<?xml version="1.0" encoding="utf-8"?>
<!DOCTYPE svg PUBLIC "-//W3C//DTD SVG 1.1//EN" "http://www.w3.org/Graphics/SVG/1.1/DTD/svg11.dtd" [
<!ENTITY ns_svg "http://www.w3.org/2000/svg">
<!ENTITY ns_xlink "http://www.w3.org/1999/xlink">
]>
<svg version="1.1" id="Layer_1" xmlns="&ns_svg;" xmlns:xlink="&ns_xlink;" width="179.379" height="250.246"
viewBox="0 0 179.379 250.246" overflow="visible" enable-background="new 0 0 179.379 250.246" xml:space="preserve">
<path fill="#FFFFFF" d="M8.903,0.398h161.574c4.711,0,8.504,3.793,8.504,8.504v232.441c0,4.711-3.793,8.504-8.504,8.504H8.903
c-4.711,0-8.504-3.793-8.504-8.504V8.902C0.399,4.191,4.192,0.398,8.903,0.398L8.903,0.398z M8.903,0.398"/>
<path fill="none" stroke="#000000" stroke-width="0.7974" d="M8.903,0.398h161.574c4.711,0,8.504,3.793,8.504,8.504v232.441
c0,4.711-3.793,8.504-8.504,8.504H8.903c-4.711,0-8.504-3.793-8.504-8.504V8.902C0.399,4.191,4.192,0.398,8.903,0.398L8.903,0.398z
M8.903,0.398"/>
<path fill="#E2CF00" d="M50.446,223.68c-0.668,0.952-3.563-5.711-5.422-10.759c-0.914-2.483-2.137-4.526-1.633-5.179
c1.324-1.34,4.754-0.141,7.246,1.77c2.664,2.047,4.547,5.051,4.547,5.051L50.446,223.68z M27.074,218.738l-0.078-3.719
c2.293-2.063,5.571-5.047,8.907-8.898l-8.657,0.055l-0.679-3.234L26.473,61.664c0,0,9.492,9.824,9.734,9.824
c0.285,0.004,0.105,58.657,0.071,97.879c0.078,0.188-5.004,0.07-5.336,2.636c-0.219,1.696,5.507,1.461,5.601,1.575
c-0.012,17.629-0.258,30.289-0.137,30.289c4.352,0,5.266,0.172,5.266,0.172C36.766,209.109,31.664,213.257,27.074,218.738
L27.074,218.738z M58,200.589c-0.765-1.522-1.98-7.375-2.914-7.233c-4.281,1.418-5.66-4.892-1.23-5.215
c1.675-0.125,3.55,2.06,4.601,4.773C58.961,194.339,58.442,201.156,58,200.589L58,200.589z M58.965,191.813
c-1.262-2.06-2.469-9.582-4.769-9.156c-2.102,0.48-3.446-1.359-3.239-2.969c1.074-4.52,8.77-0.228,10.789,0.815
C60.746,182.773,59.332,188.434,58.965,191.813L58.965,191.813z M42.828,171.175c-0.55-0.222,0.856-2.491,0.868-5.108
c0.015-2.965-1.336-6.237-1.176-6.711c5.039-3.949,11.886-8.199,13.129-5.94c1.281,9.616,0.621,14.964-0.817,22.146l-0.949,0.496
c0,0-1.59-0.299-2.773-0.906l-6.204-3.117L42.828,171.175z M123.832,98.582c-0.934-7.406-0.254-18.938,1.07-23.496
c0.508-1.543,10.098,4.844,10.863,5.316c0.715,0.449,1.063,0.379,0.629,2.328c-0.5,2.25-0.422,4.898,0.285,7.914
c0.266,1.125,0.473,1.563-0.234,2.055C135.711,93.215,124.078,99.332,123.832,98.582L123.832,98.582z M119.281,67.836
c0.199-0.477,0.992-6.02,1.238-6.043c0.801-0.07,1.979,5.434,4.03,7.246c3.867-0.445,4.32,2.172,3.563,3.438
c0.188,0.555-1.246,1.762-2.59,1.648C122.188,72.824,117.691,71.672,119.281,67.836L119.281,67.836z M67.543,63.32
c-1.09-0.77,0.977-6.297,6.867-5.027c2.536-4.77,2.672-15.523,3.899-16.191c1.844-0.68,20.636-5.895,20.074-1.348
c-0.602,4.879-1.57,28.387-8.648,34.164c-0.707,0.844,11.199,8.895,11.199,8.895s12.563-7.816,11.844-7.699
c-0.309,0.082-0.555,6.648-0.737,17.271c-0.177,10.246,1.323,17.586,4.444,28.426c-0.395,1.313,2.392,7.868,5.509,14.368
c3.534,7.375,8.319,14.815,8.319,14.815c-8.223-2.771-15.776-1.69-24.996-4.854l-0.448,36.434c0,0,4.771,2.488,5.69,3.633
c0.449,0.563,0.5,1.34,0.551,2.047c0.199,2.75-2.129,6.023-6.551,4.945c-1.387,4.851-3.379,16.262-3.453,16.258
c-6.758,0.91-13.602,1.886-20.445,1.52c0,0,1.024-3.664,1.418-9.172c0.141-2.008,0.243-4.173,0.481-6.469
c0.863-8.469,3.355-17.719,7.379-18.313c-0.793,0.314-10.211-7.801-11.492-8.383c-5.297,2.762-12.254,7.395-12.254,7.395
s0.918-6.711,0.957-13.742c0.047-7.539-0.489-15.871-0.727-18.039c-1.824-12.422-6.902-23.73-11.004-32.191
c-1.648-3.398-4.113-8.836-4.113-8.836c6.047-0.695,12.894-0.367,23.582,2.824c0,0-0.602-36.77-0.606-36.566
c0.098,0.328-2.746-1.168-5.351-2.824C67.535,65.773,67.68,63.414,67.543,63.32L67.543,63.32z M120.875,55.078
c0.043-0.375,0.215-4.527,0.215-4.527c1.672,1.961,3.023,7.707,3.355,7.609c0,0,2.147-0.336,2.816,0.375
c2.18,2.316,0.034,5.055-2.142,4.543C122.953,62.52,120.57,58.816,120.875,55.078L120.875,55.078z M143.094,179.738
c0,0-0.57-64.887-0.559-97.57c2.332-0.383,4.746,1.168,6.926-2.148c-1.152-2.391-4.449-1.66-6.926-2.145l-0.023-30.133
c0,0-4.137-0.074-4.141-0.344c-0.004-0.25,2.133-2.258,6.172-6.477c0.484-0.508,1.309-1.391,1.832-1.957
c2.035-2.223,5.273-5.922,5.426-5.77c1.273,1.074,1.141,2.828-4.758,8.301c-4.301,3.992-4.465,3.727,0.289,3.66
c4.535-0.082,5.109-0.461,4.477,1.172c0.008,0.664,0.527,1.188,0.402,1.289c-0.129,0.113,0.031,141.765,0.031,141.765
L143.094,179.738z M129.242,28.605c0.031,0.082,0.625,0.309,1.266,1.016c2.613,4.281,3.969,9.703,6.023,13.441
c-4.254,1.891-10.152-2.305-11.574-5.973C123.227,32.477,128.285,26.063,129.242,28.605L129.242,28.605z"/>
<path fill="#131F67" d="M25.348,22.598l0.164,205.691l128.645,0.191l-0.556-206.122L25.348,22.598z M67.946,65.844
c0.171,0.332,0.457,0.809,0.457,0.809s-0.309,0.082-0.528,0.223C52.989,72.38,36.891,84.649,36.614,85.009l0.285-13.578
l-9.985-10.375l0.039-36.793h38.711l11.356,18.98c-0.684,4.973-2.449,14.598-2.449,14.598c-1.043-0.25-4.559-0.582-6.457,2.141
C67.207,61.281,66.723,63.051,67.946,65.844L67.946,65.844z M140.523,108.191l1.469-1.863l-2.59,0.117l1.777-1.93l-2.867-0.066
l2.237-1.897l-3.021-0.035l2.242-1.867l-3.305,0.148l2.367-2.031l-3.266,0.012l2.438-2.043l-3.195-0.043l2.074-1.836l-2.789-0.035
l3.152-2.211c1.348,0.586,3.156,0.922,4.973,0.961l0.035,14.902L140.523,108.191z M142.785,82.348
c7.371,0.023,8.945-3.914,0.039-4.539c0,0-0.699-19.543-0.5-27.629c0.004-0.988,0.098-2.098,0.098-2.098l-4.855-0.125
c0,0,13.013-14.043,14.238-15.184c1.109,47.199,1.063,156.786,1.063,156.786l-9.94-9.941l-0.109-30.989
c-3.328-3.371-5.234-8.284-7.215-11.468l-5.438-2.641l1.276-4.367l-0.547-1.242l-1.694,6.175l5.944,2.829l0.633,1.277l-1.004,5.82
l5.629,1.934l0.978,1.336l-0.354,5.688l1.164,0.355l0.012,1.129l-1.168-0.102l-0.418,6.383l1.59,0.469l-0.004,1.441
c0-0.027-0.926,0.004-1.379-0.035c-0.629-0.34-1.66-1.685-1.66-1.685l0.559-7.091l-7.133-1.43l-0.531-0.75l1.313-7.086l-7.492-2.289
c0.771,1.891,1.789,3.66,2.638,5.521c-1.027,0.302-2.103,0.367-3.146,0.591c-0.281,9.568,0.043,19.529-0.254,28.533
c-6.027,0.436-3.199-0.141-5.82-0.102c-1.026,0-1.858,0.832-1.858,1.859c0,0.655,0.34,1.23,0.852,1.563l-1.039,0.37l-1.816-2.055
l3.797-3.642l-0.022-1.046l-4.715,4.714l2.043,2.356l-1.215,0.629l-1.863-1.961c0,0-4.008,4.101-3.758,4.176
c0.125,0.039,0.348,0.246,0.496,0.453c2.854,6.164-1.039,9.105-5.746,7.402c-1.195,5.668-2.336,10.785-3.277,16.654
c-3.521,1.328-20.062,2.1-20.242,1.789c0,0-0.422-0.396-0.437-0.598c0.074-0.262-0.477,0.548-0.477,0.548
c0,0.353-14.418-0.358-21.531-1.716c0,0-0.145-0.684-0.086-1.582c0.117-1.805-0.024-1.784,1.621-1.522
c3.351,0.224,5.953-0.926,6.988-3.875c0.578-1.655,0.309-3.146-0.578-7.565c-0.855-4.293-0.867-3.828-0.766-4.41
c0.121-0.68,0.856-1.441,1.914-2.297c0.797-0.649,0.875-1.867,0.235-1.192c-0.442,0.646-1.219,0.872-1.91,1.235
c-1.633,0.851-1.578,1.676-0.618,5.203c0.454,1.651,0.926,3.437,0.942,3.644c0.047,0.649-0.184,0.384-1.156-0.285
c-0.625-0.456-1.34-0.831-1.981-1.206c-1.953-1.039-1.086,0.102,0.793,1.352c1.477,1.095,1.723,1.566,0.449,1.043
c-1.316-0.539-3.203-0.305-4.679,0.25c-0.289,0.16-0.504,0.145-0.547-0.121c-0.067-0.413,0.183-1.448,0.293-3.848
c0.277-6.06,1.703-12.517,5.734-16.246c5.77-5.344,15.254-1.719,20.512,3.229l0.57-0.862c-3.531-2.965-9.652-6.664-15.613-5.945
c2.492-2.078,7.988-5.523,7.988-5.523c3.774,2.734,6.555,5.467,10.695,8.428L90,176.746l-11.386-9.027l-12.266,8.086
c0,0,0.512-7.759,0.703-10.595l-5.324,4.704l4.105,6.074l-4.351,4.476c0,0,0.734-0.101-0.067,1.278
c-1.226,2.484-1.965,6.484-2.531,10.551c0.109,3.031-0.637,6.391-0.867,9.063c-0.402-2.504-0.879-3.815-1.805-6.09
c-0.851-2.19-1.183-2.172-2.144-1.854c-5.203,0.438-2.852-9.603,3.3-3.035c0.27,0.28,0.715,0.621,0.735,0.556
c0.129-0.402-1.633-5.691-2.313-6.91c-0.718-1.285-0.726-1.469-1.793-1.359c-2,0.207-2.679-0.504-2.882-2.609
c0.269-3.98,4.574-2.301,7.335-1.078c0.247,0.191-1.296-1.402-1.847-1.966c-0.754-0.765-0.875-1.257-0.875-1.257l0.164-2.113
l4.223-3.852l-3.473-5.125l0.144-1.832l3.711-4.45l-3.953-4.289l-0.047-1.526l3.211-4.276l-4.304-3.45l-0.211-1.378
c0,0,2.765-5.108,2.691-5.297c-0.062-0.157-4.664-3.336-4.664-3.336l-0.465-2.147l2-5.457l-4.785-2.73l-0.875-2.465l1.348-5.059
l-4.961-2.289l-1.414-2.848l0.922-5.316l-5.563-1.645l-1.477-2.336l0.196-4.672l-1.364-0.141l0.02-1.156l1.52,0.012
c0,0-0.122-0.172,0.046-2.48c0.286-3.922,0.313-3.773-0.625-3.938c-1.972-0.34-1.519-1.555,0.497-1.328
c0.312,0.031,0.574,0.059,0.792,0.102c0.532,0.098,0.942,0.789,0.942,0.789l-0.445,7.246l7.113,1.188l0.676,0.91l-1.192,6.719
l6.676,1.93l0.898,1.629l-1.894,6.984l6.73,2.957l0.442,1.301l-2.856,6.199l6.184,3.004l0.387,1.488l-3.434,6.395l7.129,5.184
c0,0-0.191-0.508-0.477-1.354l-5.648-4.036l2.863-5.457c0,0,0.227,0.399,0.469,0.317c-0.145-0.91-0.258-1.828-0.32-2.724L60.356,122
l9.437-6.348c-4.043-2.434-9.144-2.352-13.828-3.266c0,0-0.207-0.652-0.559-1.234c-1.363-2.188-2.589-4.965-4.109-7.832
c1.121-0.527,1.606-0.461,2.809-0.695c0,0,3.039-19.043,5.418-28.352c0,0,0.367,0.113,0.547,0.117c1.156,0,2.093-0.938,2.093-2.098
c0-0.633-0.281-1.195-0.722-1.582c0.257-0.074,0.531-0.145,0.82-0.215c0.383-0.004,1.934,1.703,1.934,1.703l-3.981,3.922
l-0.023,1.297c1.586-1.652,5.074-5.219,5.074-5.219l-2.102-2.207l1.039-0.484l1.703,1.871l3.821-3.926l0.98,0.668
c-1.289,1.691-2.125,2.242-4.051,4.238c1.004,1.188,4.903,4.945,4.903,4.945l-0.012-1.297l-3.84-3.727l3.735-3.727l0.214-0.246
c0,0,2.969,1.281,3.157,1.277c-1.262-1.035-3.524-1.926-4.754-2.82c-5.574-3.289-0.281-10.086,4.859-8.398
c0.149,0.547,2.836-14.344,2.535-15.168c0.27-2.305,0.328-1.979-0.468-3.301c-2.395-5.516-9.379-15.953-9.379-15.953l62.835-0.402
c-0.652,1.277-1.313,2.313-1.81,3.805c0,0,3.531,3.676,4.824,8.512c0.719,2.699,1.754,5.227,3.569,7.02
c0.027,0.066-0.063,0.145-0.176,0.223c-4.969,1.75-10.629-2.488-12.367-7.324l-2.852,4.648c1.285,0.145-18.977-2.301-23.949-1.684
c0.441,0.086,0.961,0.453,0.668,1.848c-0.504,2.402-1.406,11.094-1.406,11.094c-1,8.457-1.77,19.078-7.352,22.594
c0,0,0.855,0.91,1.594,1.375c0.017-0.012-0.656-0.695-0.68-0.777c0.004-0.242,0.145-0.398,0.309-0.527
c1.181-0.961,2.621-2.945,2.57-2.996c4.605,3.996,11.809,7.438,16.152,6.008c1.715-0.359,2.477-2.008,3.383-0.668
c-1.18,7.273-1.098,15.273-0.641,21.559c0.711,14.004,3.805,22.031,6.871,31.953c-1.578,0.558-9.664,5.979-9.664,5.979
c-0.051,0.688,9.754,2.941,13.602,2.539c0,0,0.793,0.773,0.797,0.609c-0.023-0.043-0.051-0.098-0.078-0.152
c0.57-0.316,0.957-0.926,0.957-1.625c0-1.027-0.828-1.859-1.854-1.859c-0.19,0-0.379,0.027-0.556,0.082
c-0.479-1.184-0.895-2.223-0.895-2.223l5.445,2.371l-1.773,5.956l0.594,1.325l2.168-7.758l-6.953-2.977l-0.469-1.381l2.883-5.886
l-6.219-3.684l-0.262-1.172l3.348-6.316l-6.02-4.625l4.402-5.688l-5.422-4.551l0.063-0.758l4.492-5.168l-4.646-4.773l-0.129-1.93
l5.06-4.496l-4.367-6.348c1.82-1.223,2.84-2.617,4.031-4.008l1.065,0.465l-3.879,2.941l4.146,5.988l4.371-3.949l-2.371-3.863
l1.444,0.656l1.324,2.07l-0.216,2.117l-4.319,3.934l3.715,5.375l0.027,0.988c0,0-2.31,2.652-3.988,4.625l4.707,5.195l-3.853,4.91
l4.845,4.125l-0.138-1.238l-3.569-3.016l2.742-3.32c0.194-2.004-0.238-5.441,0.784-6.949c-1.655-1.617-0.789-5.516,0.021-6.777
c-1.578-1.871-0.676-5.977,0.332-6.148c-1.203-1.512-0.728-4.574,0.281-5.57c0.323-0.172-4.306-1.84-7.224-3.848
c2.431-4.52,1.863-8.77,2.629-10.301c1.052,3.031,2.396,6.258,3.56,8.578c0.121,0.242,0.379,0.188,0.767,0.191
c4.823,0.43,4.366,4.41,0.745,5.43c0,0,7.359,5.48,11.091,6.086c0.039,0.098,0.012,0.227-0.113,0.488
c-0.527,1.094-0.836,2.988-0.914,4.652c-0.27,2.477,0.93,6.281,0.93,6.281L135.1,92.75c-0.305,1.309-2.012,1.336-2.18,2.266
c0.363,4.004,8.184,19.34,9.832,21.074C143.383,105.145,142.188,93.27,142.785,82.348L142.785,82.348z M141,110.254l1.266-1.043
l-0.026,1.656L141,110.254z M142.238,112.789l-0.641-0.477l0.645-0.715L142.238,112.789z M63.594,132.32
c0.121,0.754,0.262,1.5,0.414,2.234c-0.898,0.233-1.562,1.051-1.562,2.022c0,1.155,0.941,2.098,2.097,2.098
c0.164,0,0.324-0.022,0.477-0.063c0.332,1.156,0.648,2.152,0.89,2.884l0.426,0.305c-1.144-3.987,1.078-6.133-2.207-9.448
C64.082,132.188,63.84,132.234,63.594,132.32L63.594,132.32z M131.355,24.129l20.449,0.133v7.547l-15.763,16.754l6.078,0.074
l-0.065,28.738c-1.664,0.695-3.255,1.766-4.789,2.805l-9.586-5.305l-0.688-0.352c0,0,0.262-0.074,0.823-0.441
c1.086-0.711,1.5-2.461,1.009-3.773c-0.806-2.145-2.47-1.758-3.855-1.762c-1.147-0.891-2.133-3.863-2.94-5.844
c-0.375-0.863-0.73-1.523-0.824-2.023c-0.086-0.461-0.082-0.863-0.082-0.863s0.188,0.055,0.457,0.613
c1.527,3.215,5.094,4.77,6.992,1.73c0.961-1.867,0.297-3.996-1.316-4.59c-0.496-0.184-2.176,0.012-2.176,0.012
c-0.098,0.059-1.215-1.578-2.797-6.961c-0.648-2.223-0.82-7.043-0.203-7.738c1.047-1.27,1.32-3.055,2.207-4.336
c0.402-0.809,0.379-0.305,1.012,0.594c2.152,3.063,5.934,5.438,9.398,5.289c2.457-0.109,3.215-0.945,2.637-1.656
c-1.352-1.379-2.234-3.313-2.676-5.004c-1.031-3.945-2.121-7.461-4.891-10.527L131.355,24.129z M120.973,42.852
c0.258,0.242,0.055,0.621,0.008,1.301c-0.121,1.727-0.155,1.746-1.147,1.313c-1.906-0.836-4.603-0.105-6.228,1.656
c-2.047,2.223-2.112,4.512-0.832,9.027c1.461,5.078,1.427,5.75-0.328,6.789c-1.055,0.898-2.133,2.777-1.729,2.773
c0.06-0.004,0.203-0.113,0.324-0.25s1.082-0.914,1.823-1.422c2.035-1.391,2.673-2.102,1.738-4.672
c-0.926-2.535-1.668-5.016-1.285-5.168c0.185-0.074,0.888,0.75,1.32,1c0.891,0.512,2.766,1.453,2.996,1.453
c0.32-0.004-0.02-0.23-0.934-0.832c-2.449-1.605-3.453-3.063-1.09-2.141c1.266,0.492,2.604,0.203,3.358-0.043
c0.884-0.289,1.341-0.578,1.435-0.246c0.129,1.563,0.008,3.176-0.09,4.75c-0.027,0.098-0.148,1.168-0.267,2.371
c-0.448,4.57-1.228,8.422-3.233,10.902c-6.72,8.297-14.367,5.879-22.957-0.762c3.207-8.875,2.983-15.793,3.776-18.609
c0.738-0.223,1.609,0.215,2.147,0.516c1.195,0.68,2.56,1.09,3.863,1.16c1.219,0.066,1.431-0.105,1.32,0.254
c-0.082,0.281-2.043,0.855-3.246,1.105c-2.184,0.453-2.023,0.961-0.184,0.793c1.934-0.172,3.805-0.941,5.785-2.262
c1.375-0.91,1.426-0.914,1.055-2.059c-0.086-0.277-0.273-0.688,0.379-0.93c0.68-0.25,0.586-0.527,0.199-0.832
c-0.094-0.078-0.34-0.094-0.438-0.172c-0.121-0.098,0.008-0.527,0.008-0.586c-2.5-2.113-6.906-2.164-10.531,0.008
c-0.18-0.066-0.367-0.352-0.191-0.738c0.383-0.832,4.281-1.832,7.047-1.879c1.262-0.02,1.512,0.141,3.41,0.723
c0.781,0.238,1.219,0.301,1.289,0.18c0.164-0.27-0.117-1.074-0.719-1.504c-2.031-1.453-4.984-1.34-9.02,0.262
c-2.16,0.855-1.935,1.152-1.238-3.109c0.195-1.184,0.418-2.086,0.418-2.086S117.867,41.559,120.973,42.852L120.973,42.852z
M118.066,46.852c1,0.008,1.91,0.258,2.44,0.773c0.777,0.859-0.039,1.129-1.272,0.66c-1.582-0.602-3.379-0.258-4.771,0.605
c-0.896,0.559-1.086,0.258-0.336-0.535C115.039,47.391,116.609,46.844,118.066,46.852L118.066,46.852z M103.711,48.336
c1.742-0.012,3.336,0.301,3.988,1.035c0.602,0.672,0.023,0.738-1.469,0.156c-2.105-0.824-4.91-0.563-7.224,0.586
c-1.188,0.59-1.555,0.711-1.396,0.039C98.309,49.063,101.168,48.352,103.711,48.336L103.711,48.336z M117.633,48.879
c1.66,0.004,3.07,0.383,2.809,1.25c-0.094,0.309-0.176,0.121-1.362-0.242c-1.185-0.367-2.699-0.227-4.22,0.215
c-1.422,0.414-1.69,0.508-1.055-0.105C114.578,49.25,116.172,48.875,117.633,48.879L117.633,48.879z M121.012,49.711
c1.68,2.586,1.977,6.383,3.766,8.438c3.306-0.613,4.867,2.496,2.086,4.566c-1.413,0.785-3.137,0.191-4.405-1.883
c-1.207-1.977-1.539-3.176-1.578-4.43C120.988,53.77,120.84,52.359,121.012,49.711L121.012,49.711z M101.66,50.898l0.73,0.086
c0.53,1.805,1.723,1.91,2.434,0.023l0.555,0.094C104.539,53.414,102.43,53.508,101.66,50.898L101.66,50.898z M100.523,50.934
c0.309-0.02,0.559,0.305,0.694,0.727c0.285,0.961-0.038,0.84-0.702,0.434c-0.668-0.406-1.185-0.68-0.798-0.844
C100.008,51.098,100.234,50.992,100.523,50.934L100.523,50.934z M106.813,51.547c0.254,0.313,0.313,0.555-0.016,0.781
c-0.316,0.168-0.551,0.273-0.859,0.383c-0.297,0.09-0.477,0.02-0.352-0.406c0.078-0.363,0.305-0.883,0.477-1.086
C106.348,51.164,106.656,51.367,106.813,51.547L106.813,51.547z M115.691,51.328l0.582,0.039c0.608,1.648,2.031,1.602,2.578,0.172
l0.52-0.004C118.391,54.086,116.398,53.625,115.691,51.328L115.691,51.328z M114.645,51.543c0.56,0,1.099,0.801,0.793,1.211
c-0.309,0.258-1.68-0.035-1.801-0.543C113.59,51.906,114.09,51.543,114.645,51.543L114.645,51.543z M120.016,51.699
c0.271,0.063,0.25,0.266,0.258,0.301c0.142,0.672-0.664,0.91-0.844,0.652C119.328,52.508,119.754,51.969,120.016,51.699
L120.016,51.699z M107.238,58.914c-1.359,0.379-1.992,1.551-1.906,2.863c0.07,1.059,0.621,1.922,1.426,2.105
c1.621,0.367,2.742-0.766,4.398-1.223c0.715-0.188,0.547-1.109,0.09-1.512c-0.59-0.516-1.492-0.191-2.703,0.734
c-2.375,1.82-2.949-1.68-0.781-2.297C108.098,59.488,107.941,58.715,107.238,58.914L107.238,58.914z M36.949,139.484l0.926,0.266
l-0.926,1.094C36.949,140.844,36.953,139.898,36.949,139.484L36.949,139.484z M39.524,143.227l-1.903,2.146l2.586-0.194
l-1.754,1.819l2.692,0.108l-1.981,2.047l2.649-0.055l-1.957,1.978l2.496,0.069l-1.649,1.81l2.746-0.211l-2.007,2.164l2.945-0.056
l-2.231,2.017l2.934-0.021l-0.879,1.004l0.781,0.396c0.797-0.371,5.399-1.806,5.551-2.884c-1.015-0.273-4.008,1.25-4.207,1
c-1.199-5.293-6.375-17-9.789-20.413l-0.238,33.082c-0.524,0.479-1.356,0.241-1.887,0.456c-1.73-0.09-4.625,2.802-3.113,3.375
c0.793,0.177,5.168,0.927,5.18,1.145c0.535,9.588-0.333,19.229,0.066,29.463c1.223,0.18,5.223,0.408,5.223,0.408
s-14.668,15.307-14.954,14.997c0.34-16.401,0.161-48.474-0.125-48.59c0-0.961,0.336-2.989,0.336-2.989L26.719,65.281
c0,0-0.082-0.457-0.262-0.746c-0.301-0.5-0.32-0.625-0.343-2.156c-0.118-0.945,0.019-1.191,0.019-1.191l10.035,10.598l0.188,29.867
c0,0,9.32,13.809,11.508,20.285c4.792,9.641,4.273,23.694,7.179,29.074c0.059,0,0.117-0.005,0.176-0.009
c0.07,0.782,0.078,1.099,0.195,1.22c0.219,1.754,0.453,4.152,0.453,4.152l-1.05,1.668l1.172,1.5l0.007,4.008l-1.562,1.586
l1.43,1.816l-0.399,3.738l-1.113,0.992l0.633,0.854c0,0,0.105,1.349-0.149,2.892c-0.172,1.047-1.203,0.904-3.351-0.189
c-3.043-1.152-6.161-3.219-8.567-4.771c0.145-1.949,2.555-6.388-0.797-11.285c-1.242-0.932-4.843-0.59-5.16-0.728l0.028-15.082
M36.985,141.632l1.625-0.284l-1.641,1.641L36.985,141.632z M114.316,66.348c-0.133,0.016-0.301,0.137-0.512,0.379
c-0.228,0.254-0.587,0.184-1.5,0.129c-0.978-0.059-1.228-0.031-1.867,0.199c-0.734,0.266-0.75,0.266-1.263,0.051
c-0.797-0.34-1.293-0.379-2.022-0.172c-0.898,0.254-1.465,0.188-2.021-0.086c-0.559-0.277-0.737-0.219-0.934,0.289
c-0.082,0.211-0.48,1.039-0.664,1.324c-0.599,0.914-0.453,1.066,0.801,0.68c0.863-0.262,2.453-0.434,3.633,0.059
c0.902,0.371,1.974,0.254,3.255-0.305c1.12-0.488,2.229-0.641,3.305,0.262c0.629,0.527,0.594,0.129,0.434-0.961
C114.781,66.973,114.656,66.309,114.316,66.348L114.316,66.348z M71.735,70.195c-1.157,0-2.098,0.938-2.098,2.094
c0,1.16,0.941,2.098,2.098,2.098C72.281,73.93,72.567,70.281,71.735,70.195L71.735,70.195z M112.211,70.215
c-1.277,0.434-3.027,1.012-5.004,0.434c-1.551-0.473-1.18,0.691,0.504,0.836c1.172,0.102,1.094,0.102,0.18,0.957
c-0.77,0.723,0.195,0.668,0.719,0.219c0.621-0.527,2.31-0.391,3.263,0.043c0.414,0.191,0.461-0.598-0.035-0.773
c-1.254-0.438-0.953-0.469,0.414-0.914C112.754,70.898,112.773,70.02,112.211,70.215L112.211,70.215z M71.735,70.898
c0.66,0.25,0.246,2.68,0,2.789c-0.77,0-1.395-0.629-1.395-1.398S70.965,70.898,71.735,70.898L71.735,70.898z M60.551,70.984
c0.535-0.184,0.91,0.707,0.91,1.305c0,0.77-0.621,1.398-1.39,1.398c-0.942-0.922-1.114-1.945-0.024-2.52
C60.203,71.109,60.371,71.047,60.551,70.984L60.551,70.984z M66.063,73.039l-4.477,4.527l4.395,4.453l4.402-4.551L66.063,73.039z
M119.117,74.832c0.641,0,1.16,0.523,1.16,1.164s-0.521,1.16-1.16,1.16c-0.641,0-1.164-0.52-1.164-1.16
S118.477,74.832,119.117,74.832L119.117,74.832z M66.028,76.352c0.64,0,1.16,0.523,1.16,1.164c0,0.641-0.52,1.16-1.16,1.16
c-0.645,0-1.164-0.521-1.164-1.16C64.864,76.876,65.383,76.352,66.028,76.352L66.028,76.352z M113.637,77.465l3.207,4.32
l-3.93,3.527l0.199-2.195c0.867-0.156,1.523-0.918,1.523-1.832c0-0.793-0.496-1.465-1.195-1.73L113.637,77.465z M60.203,77.703
l-0.047,1.176l4.043,4.004l-4,4.152l0.036,1.152l4.98-5.305L60.203,77.703z M71.633,77.707l-4.945,5.07l4.769,5.207l0.059-1.32
l-3.742-3.867l3.816-3.789L71.633,77.707z M142.949,78.52c1.004-0.004,1.867,0.328,2.129,0.984c0.207,0.371,0.316,0.688,0.621,0.828
c0.586,0.27,1.383,0.082,1.422-0.113c0.066-0.004-0.938-0.098-1.109-0.25c-0.785-0.711-0.652-1.156,0.465-1.066
c0.359,0.016,1.363,0.031,1.387,0.422c0.224,1.355-1.581,2.348-3.887,2.168c-1.645-0.273-1.651,0.363-1.77,1.238
c-0.07,0.289-0.324,0.754-0.531,1.125c-0.582,1.043-0.773,0.895-0.367,1.301c0.396,0.512,0.902,1.148,0.896,1.746l-0.017,5.5
c0,0-3.453-0.016-4.651-0.883c-1.259-2.293-2.109-7.234-0.267-9.949c0.646-0.813,1.59-1.199,2.681-2.063
C140.785,78.844,141.941,78.52,142.949,78.52L142.949,78.52z M123.434,79.137l-0.125,1.59c-0.875,0.148-1.547,0.906-1.547,1.828
c0,0.813,0.527,1.504,1.258,1.754l-0.108,1.383l-2.56-3.676L123.434,79.137z M113.383,80.211c0.379,0.211,0.633,0.609,0.633,1.074
c0,0.547-0.352,1.012-0.84,1.176L113.383,80.211z M59.977,80.789c-1.774,0.922-1.164,4.488,0,4.191c1.156,0,2.094-0.941,2.094-2.098
C62.071,81.725,61.133,80.789,59.977,80.789L59.977,80.789z M71.543,80.844c-1.156,0-2.097,0.938-2.097,2.094
s0.941,2.098,2.097,2.098C73.082,84.551,72.211,80.91,71.543,80.844L71.543,80.844z M123.254,81.375l-0.18,2.285
c-0.41-0.203-0.688-0.621-0.688-1.105C122.387,82,122.75,81.531,123.254,81.375L123.254,81.375z M59.977,81.492
c0.769,0,1.39,0.621,1.39,1.391s-0.621,1.395-1.39,1.395C59.516,84.371,59.227,81.734,59.977,81.492L59.977,81.492z M71.543,81.543
c0.934,0.078,0.16,2.453,0,2.789c-0.769,0-1.394-0.625-1.394-1.395S70.774,81.543,71.543,81.543L71.543,81.543z M118.535,82.867
l-4.625,4.609l4.566,5.031l3.801-4.617L118.535,82.867z M65.953,83.746l-4.433,4.566l4.191,4.328l4.422-4.668L65.953,83.746z
M36.817,86.242l1.621,1.719l-1.672,0.016L36.817,86.242z M118.172,86.414c0.645,0,1.16,0.523,1.16,1.164s-0.516,1.16-1.16,1.16
c-0.641,0-1.16-0.52-1.16-1.16S117.531,86.414,118.172,86.414L118.172,86.414z M65.93,87.043c0.641,0,1.164,0.52,1.164,1.16
c0,0.645-0.523,1.168-1.164,1.168c-0.641,0-1.16-0.523-1.16-1.168C64.77,87.563,65.289,87.043,65.93,87.043L65.93,87.043z
M71.66,88.402l-4.898,5.063l4.734,5.043l0.063-1.195l-3.793-3.816l3.848-3.938L71.66,88.402z M60.141,88.41l0.047,1.281
l3.933,3.898l-4.132,4.156l0.164,1.121l5.086-5.258L60.141,88.41z M113.035,89.797l3.543,3.527l-3.531,3.938l-0.004-2.043
c0.727-0.254,1.25-0.945,1.25-1.762c0-0.813-0.527-1.5-1.254-1.75L113.035,89.797z M122.813,89.98l0.035,1.441
c-0.797,0.207-1.387,0.93-1.387,1.793c0,0.898,0.637,1.645,1.484,1.82l0.031,1.141l-2.81-3.094L122.813,89.98z M40.824,90.629
c0,0,1.188,1.262,1.586,1.777c-0.312,0.367-0.507,0.84-0.507,1.359c0,1.156,0.941,2.098,2.097,2.098
c0.332,0,0.645-0.082,0.926-0.223c0.215,0.32,1.16,1.629,1.16,1.629l-5.574-0.895L40.824,90.629z M71.637,91.465
c-1.16,0-2.098,0.938-2.098,2.094c0,1.16,0.938,2.098,2.098,2.098C73.739,95.23,73.324,91.566,71.637,91.465L71.637,91.465z
M59.961,91.547c-1.156,0-2.097,0.938-2.097,2.094c0,1.156,0.941,2.098,2.097,2.098c1.156,0,2.094-0.941,2.094-2.098
C62.055,92.484,61.117,91.547,59.961,91.547L59.961,91.547z M122.863,92.066l0.066,2.324c-0.492-0.164-0.849-0.629-0.849-1.176
C122.082,92.691,122.406,92.246,122.863,92.066L122.863,92.066z M71.637,92.168c1.355,0.492,0.941,2.879,0,2.789
c-0.77,0-1.398-0.629-1.398-1.398S70.867,92.168,71.637,92.168L71.637,92.168z M59.961,92.246c0.77,0,1.391,0.625,1.391,1.395
s-0.621,1.395-1.391,1.395c-0.769,0-1.394-0.625-1.394-1.395S59.192,92.246,59.961,92.246L59.961,92.246z M113.039,92.379
c0.375,0.211,0.633,0.613,0.633,1.078s-0.254,0.871-0.629,1.082L113.039,92.379z M42.852,92.977l1.629,2.098
C44.332,95.129,44.172,95.16,44,95.16c-0.769,0-1.394-0.625-1.394-1.395C42.606,93.473,42.696,93.199,42.852,92.977L42.852,92.977z
M118.32,93.93l-3.832,4.602l4.707,4.176l3.34-4.133L118.32,93.93z M65.973,94.48l-4.699,4.773l3.32,3.445l-1.836-0.199
l-2.656-2.707l-0.063,0.898l1.446,1.652l-1.539-0.051l0.269,0.715c3.805,0.105,7.426,1.227,11.117,1.961l0.227-0.5l-1.367-0.348
l1.293-1.551l-0.016-1.176l-2.238,2.398l-0.758-0.176l3.172-3.27l-0.215-0.996l-3.899,3.992l-1.132-0.258l3.961-4.047L65.973,94.48z
M118.516,97.227c0.642,0,1.16,0.52,1.16,1.16c0,0.645-0.52,1.164-1.16,1.164c-0.645,0-1.164-0.521-1.164-1.164
C117.352,97.746,117.871,97.227,118.516,97.227L118.516,97.227z M65.813,97.832c0.64,0,1.16,0.52,1.16,1.16
c0,0.64-0.52,1.16-1.16,1.16c-0.641,0-1.16-0.52-1.16-1.16C64.653,98.352,65.172,97.832,65.813,97.832L65.813,97.832z
M39.492,98.164c0,0-0.3,3.816-0.472,5.656l6.074,1.621l0.754-6.098L39.492,98.164z M36.844,98.453l0.844,0.031l-0.105,3.52
l-0.855-0.844L36.844,98.453z M48.078,99.996c0,0,0.61,0.98,1.309,2.063c-0.375,0.379-0.606,0.898-0.606,1.473
c0,1.156,0.938,2.098,2.098,2.098c0.211,0,0.414-0.031,0.61-0.09c0.273,0.516,0.781,1.336,0.781,1.336l-5.203-1.527L48.078,99.996z
M113.227,100.387l4.086,3.328l-3.176,3.906l-0.211-1.676c0.715-0.262,1.227-0.945,1.227-1.75c0-0.965-0.737-1.758-1.68-1.848
L113.227,100.387z M42.563,100.445c0.64,0,1.16,0.52,1.16,1.16s-0.52,1.164-1.16,1.164c-0.641,0-1.164-0.523-1.164-1.164
S41.922,100.445,42.563,100.445L42.563,100.445z M124.211,100.813c-1.027,0-1.863,0.828-1.863,1.855
c0,1.023,0.836,1.859,1.863,1.859C124.617,104.828,124.727,101.34,124.211,100.813L124.211,100.813z M124.211,101.434
c0.109,0.555,0.246,2.605,0,2.473c-0.684,0-1.238-0.559-1.238-1.238C122.973,101.984,123.527,101.434,124.211,101.434
L124.211,101.434z M49.781,102.672c0.465,0.73,0.946,1.52,1.356,2.234c-0.086,0.016-0.172,0.021-0.258,0.021
c-0.773,0-1.398-0.625-1.398-1.396C49.481,103.207,49.594,102.906,49.781,102.672L49.781,102.672z M113.555,102.988
c0.559,0.117,0.978,0.613,0.978,1.207c0,0.484-0.281,0.906-0.688,1.109L113.555,102.988z M119.086,104.078l-3.449,4.629l5.238,4.086
l2.965-5.066L119.086,104.078z M40.297,105.961l3.906,1.145l-0.738,3.992c-0.062-0.23-0.277-0.652-0.57-1.156
c0.168-0.301,0.265-0.648,0.265-1.016c0-1.156-0.937-2.094-2.093-2.094c-0.059,0-0.114,0.004-0.168,0.008
C40.551,106.324,40.297,105.961,40.297,105.961L40.297,105.961z M46.082,106.934l-1.27,6.367l5.871,2.363l1.43-6.727L46.082,106.934
z M119.754,106.984c0.641,0,1.16,0.52,1.16,1.16s-0.52,1.16-1.16,1.16s-1.164-0.52-1.164-1.16S119.113,106.984,119.754,106.984
L119.754,106.984z M41.391,107.57c0.613,0.148,1.066,0.699,1.066,1.355c0,0.086-0.011,0.172-0.027,0.254
C42.094,108.641,41.731,108.078,41.391,107.57L41.391,107.57z M124.738,107.746l-3.148,5.926l5.352,3.738l-0.366-1.266l-3.828-2.809
l2.228-4.078L124.738,107.746z M48.688,109.887c0.644,0,1.16,0.523,1.16,1.168c0,0.641-0.516,1.16-1.16,1.16
c-0.641,0-1.16-0.52-1.16-1.16C47.528,110.41,48.047,109.887,48.688,109.887L48.688,109.887z M54.231,110.48l1.246,2.172
c-0.512,0.383-0.848,0.992-0.848,1.68c0,1.16,0.942,2.098,2.098,2.098c0.172,0,0.34-0.023,0.5-0.063l0.902,1.914l-5.449-2.387
L54.231,110.48z M125.953,110.5c-0.488-0.113-0.957,0.199-1.293,0.52c-0.348,0.34-0.566,0.813-0.566,1.34
c0,1.023,0.832,1.855,1.859,1.855C127.355,113.875,126.602,110.648,125.953,110.5L125.953,110.5z M114.676,111.012l4.43,3.168
l-2.586,4.988c0,0-0.262-1.008-0.59-2.363c0.633-0.297,1.066-0.938,1.066-1.68c0-1.023-0.832-1.855-1.855-1.855
c-0.008,0-0.016,0-0.022,0C114.941,112.453,114.785,111.672,114.676,111.012L114.676,111.012z M125.953,111.121
c0.77,0.234,0.508,2.395,0,2.473c-0.676,0.104-1.238-0.555-1.238-1.234C124.715,111.676,125.27,111.121,125.953,111.121
L125.953,111.121z M55.785,113.305l1.133,2.41c-0.062,0.008-0.125,0.016-0.191,0.016c-0.77,0-1.399-0.629-1.399-1.398
C55.328,113.926,55.508,113.559,55.785,113.305L55.785,113.305z M115.258,113.898c0.629,0.059,1.117,0.586,1.117,1.227
c0,0.449-0.238,0.84-0.594,1.055C115.609,115.461,115.43,114.676,115.258,113.898L115.258,113.898z M121.102,114.531l-3.035,5.996
l5.605,3.418l2.578-5.801L121.102,114.531z M46.035,115.684l3.454,1.57l-0.973,3.566l-0.422-0.875
c0.203-0.32,0.324-0.703,0.324-1.113c0-1.082-0.816-1.969-1.867-2.082L46.035,115.684z M51.492,117.375l-1.695,5.996l5.387,2.804
l2.457-6.034L51.492,117.375z M46.957,117.59c0.449,0.23,0.762,0.699,0.762,1.242c0,0.094-0.012,0.188-0.031,0.277L46.957,117.59z
M122.098,118.078c0.641,0,1.164,0.523,1.164,1.164c0,0.641-0.52,1.16-1.164,1.16c-0.641,0-1.16-0.52-1.16-1.16
C120.938,118.602,121.457,118.078,122.098,118.078L122.098,118.078z M127.215,118.406l-2.57,6.277l5.902,3.258l-0.445-1.146
l-4.363-2.519l1.871-4.543L127.215,118.406z M53.653,120.5c0.64,0,1.16,0.52,1.16,1.16c0,0.645-0.52,1.16-1.16,1.16
c-0.641,0-1.161-0.516-1.161-1.16C52.492,121.02,53.012,120.5,53.653,120.5L53.653,120.5z M129.07,121.43
c-1.027,0-1.859,0.832-1.859,1.859s0.832,1.895,1.859,1.859C130.934,125.105,129.984,121.414,129.07,121.43L129.07,121.43z
M59.426,121.637c0.355,0.641,0.617,1.309,0.859,1.992c-0.554,0.379-0.918,1.012-0.918,1.734c0,1.114,0.872,2.028,1.969,2.094
c0.043,0.003,0.238,0.031,0.238,0.031l0.332,1.262l-4.632-2.43C57.922,124.574,58.477,123.363,59.426,121.637L59.426,121.637z
M129.07,122.051c0.543,0.227,0.688,2.406,0,2.473c-0.684,0-1.238-0.551-1.238-1.234S128.387,122.051,129.07,122.051L129.07,122.051
z M117.645,122.773l4.556,2.609l-2.285,4.935l-0.681-2.262c0.492-0.332,0.816-0.896,0.816-1.535c0-1.021-0.82-1.849-1.836-1.859
L117.645,122.773z M60.535,124.328l0.723,2.41c-0.738-0.035-1.191-0.629-1.191-1.375C60.067,124.949,60.25,124.582,60.535,124.328
L60.535,124.328z M118.406,125.305c0.582,0.102,1.023,0.605,1.023,1.214c0,0.355-0.148,0.672-0.388,0.898L118.406,125.305z
M50.434,125.465l3.523,2.059l-1.59,4.113l-0.461-1.484c0.317-0.366,0.508-0.844,0.508-1.362c0-0.978-0.672-1.793-1.574-2.026
L50.434,125.465z M123.984,125.551l-2.137,5.722l6.18,3.246l1.543-5.854L123.984,125.551z M51.117,127.645
c0.36,0.254,0.594,0.672,0.594,1.146c0,0.168-0.031,0.328-0.086,0.478L51.117,127.645z M55.731,127.93l-2.504,5.809l5.215,3.439
l2.714-6.056L55.731,127.93z M125.922,128.875c0.641,0,1.16,0.52,1.16,1.16c0,0.64-0.52,1.16-1.16,1.16
c-0.64,0-1.16-0.521-1.16-1.16C124.762,129.395,125.281,128.875,125.922,128.875L125.922,128.875z M132.035,131.425
c-0.523,0.337-0.832,0.981-0.828,1.646c0,1.027,0.832,1.863,1.855,1.859c0.229-0.004,0.434-0.027,0.617-0.07
C134.215,134.145,133.457,131.395,132.035,131.425L132.035,131.425z M57.289,131.262c0.645,0,1.164,0.52,1.164,1.159
c0,0.642-0.519,1.164-1.164,1.164c-0.64,0-1.16-0.522-1.16-1.164C56.129,131.781,56.649,131.262,57.289,131.262L57.289,131.262z
M133.34,134.25c-0.078,0.043-0.168,0.063-0.277,0.055c-0.68-0.031-1.233-0.552-1.233-1.234c0-0.391,0.18-0.734,0.461-0.961
C133.355,131.309,133.512,134.41,133.34,134.25L133.34,134.25z M64.156,135.238c0.215,0.953,0.446,1.859,0.68,2.703
c-0.097,0.019-0.191,0.031-0.293,0.031c-0.769,0-1.394-0.625-1.394-1.396C63.149,135.941,63.574,135.406,64.156,135.238
L64.156,135.238z M128.906,135.921l-1.617,6.438l6.184,2.254l1.185-6.094L128.906,135.921z M53.539,136.007l3.282,2.267
c0,0-1.063,2.56-1.957,3.922l-0.254-1.184c0.543-0.38,0.898-1.005,0.898-1.719c0-1.023-0.734-1.879-1.707-2.059L53.539,136.007z
M122.91,136.316c0.684,0,1.234,0.551,1.234,1.233c0,0.445-0.138,0.63-0.492,0.849c-0.271-0.609-0.646-1.215-0.98-2.035
C122.773,136.335,122.801,136.316,122.91,136.316L122.91,136.316z M53.969,138.016c0.492,0.215,0.836,0.707,0.836,1.277
c0,0.363-0.137,0.691-0.363,0.941L53.969,138.016z M58.895,138.957l-2.977,5.171l4.367,3.345l3.414-5.18L58.895,138.957z
M130.984,139.132c0.641,0,1.16,0.521,1.16,1.164c0,0.642-0.521,1.161-1.16,1.161c-0.641,0-1.164-0.52-1.164-1.161
C129.82,139.652,130.344,139.132,130.984,139.132L130.984,139.132z M136.332,140.738l0.758,1.176
c-0.234,0.313-0.379,0.699-0.379,1.121c0,1.023,0.836,1.855,1.863,1.855c0.141,0,0.277-0.014,0.406-0.039l0.608,0.943l-3.875-1.391
L136.332,140.738z M59.785,142.121c0.645,0,1.161,0.52,1.161,1.16c0,0.64-0.516,1.16-1.161,1.16c-0.64,0-1.164-0.521-1.164-1.16
C58.621,142.641,59.145,142.121,59.785,142.121L59.785,142.121z M137.465,142.492l1.145,1.777c-0.012,0-0.022,0-0.034,0
C137.492,144.25,137.035,143.359,137.465,142.492L137.465,142.492z M65.36,142.57l-4.219,5.594l5.594,4.148l-0.086-1.238
l-4.09-2.922l3.109-4.141L65.36,142.57z M126.949,144.464l5.566,1.746l-1.188,5.524l-1.313-2.18
c0.355-0.342,0.578-0.816,0.578-1.349c0-1.026-0.828-1.858-1.855-1.858c-0.207,0-0.405,0.033-0.594,0.102L126.949,144.464z
M66.293,145.421c-1.054,0.11-1.883,1-1.883,2.082c0,1.161,0.942,2.099,2.098,2.099c0.531,0.066,0.609-0.75,0-0.699
c-0.769,0-1.394-0.629-1.394-1.398c0-0.736,0.574-1.339,1.304-1.386l-0.105-0.696C66.309,145.426,66.301,145.421,66.293,145.421
L66.293,145.421z M134.512,146.02l-0.965,6.392l6.305,1.347l0.474-5.797L134.512,146.02z M55.649,146.176l2.976,2.199l-2.261,3.164
l-0.122-0.911c0.539-0.378,0.895-1.007,0.895-1.714c0-0.911-0.578-1.676-1.387-1.965L55.649,146.176z M128.738,146.973
c0.684,0,1.234,0.551,1.234,1.234c0,0.305-0.109,0.582-0.293,0.796L128.477,147C128.563,146.984,128.648,146.973,128.738,146.973
L128.738,146.973z M108.738,147.809c0.133,0.051,0.512,0.078,0.453,0.203c-0.051,0.102-1.06,1.207-1.06,1.207l0.113,1.031
l1.793-2.027l0.719,0.266l-2.516,2.556l-0.117,0.953l3.353-3.289l1.43,0.396l-3.898,3.836l4.488,4.547l4.492-4.578l-3.191-3.485
l1.578,0.149c0.664,0.758,1.398,1.965,2.621,2.609l-0.121-0.91c-0.063,0.043-1.484-1.34-1.258-1.563l1.254,0.089
c0,0,1.813-0.525-0.461-0.525c-2.98,0-6.191-1.018-8.754-1.773c-0.281-0.086-0.719-0.316-0.93-0.325
C107.957,147.289,108.207,147.605,108.738,147.809L108.738,147.809z M55.864,147.793c0.343,0.253,0.57,0.66,0.57,1.121
c0,0.328-0.113,0.629-0.305,0.867L55.864,147.793z M136.824,148.906c0.641,0,1.16,0.519,1.16,1.16c0,0.641-0.521,1.16-1.16,1.16
c-0.645,0-1.164-0.521-1.164-1.16C135.66,149.425,136.18,148.906,136.824,148.906L136.824,148.906z M60.5,149.02l-3.625,4.608
l4.106,3.938l4.207-4.93L60.5,149.02z M141.922,150.199l0.289,0.047l0.016,3.145l-0.465-0.098L141.922,150.199z M113.617,151.66
c0.641,0,1.16,0.52,1.16,1.16c0,0.64-0.521,1.16-1.16,1.16c-0.641,0-1.164-0.521-1.164-1.16
C112.453,152.18,112.977,151.66,113.617,151.66L113.617,151.66z M61.063,151.988c0.64,0,1.16,0.523,1.16,1.164s-0.52,1.16-1.16,1.16
c-0.645,0-1.164-0.521-1.164-1.16C59.899,152.512,60.418,151.988,61.063,151.988L61.063,151.988z M66.66,152.902l-4.683,5.582
l5.027,5.195l-0.015-1.164l-3.907-4.096l3.66-4.266L66.66,152.902z M119.035,153.414l-4.82,4.871l4.805,4.98l0.113-1.121
l-3.711-3.742l3.477-3.59L119.035,153.414z M108.438,153.918l0.008,1.324l3.023,3.078l-3.098,3.156l0.02,1.344l4.392-4.524
L108.438,153.918z M133.133,154.5l5.676,1.074l-0.348,5.363l-1.367-1.652c0.234-0.309,0.375-0.696,0.375-1.114
c0-1.026-0.832-1.854-1.859-1.854c-0.293,0-0.569,0.07-0.815,0.19L133.133,154.5z M56.614,155.457l2.796,2.941l-2.671,3.021
l-0.024-1.025c0.746-0.324,1.266-1.066,1.266-1.926c0-0.896-0.559-1.656-1.348-1.957L56.614,155.457z M66.989,156.199
c-0.93,0.215-1.625,1.047-1.625,2.039c0,0.996,0.695,1.832,1.625,2.047v-0.735c-0.54-0.19-0.926-0.706-0.926-1.312
c0-0.602,0.386-1.113,0.926-1.309V156.199z M108.129,156.395c-0.859,0.569-0.477,3.771,0,3.719c1.027,0,1.855-0.832,1.855-1.859
S109.156,156.395,108.129,156.395L108.129,156.395z M119.125,156.699c-1.027,0-1.859,0.832-1.859,1.859
c0,1.025,0.832,1.858,1.859,1.858C119.941,160.148,119.609,156.887,119.125,156.699L119.125,156.699z M135.609,156.938
c0.684,0,1.233,0.551,1.233,1.233c0,0.224-0.063,0.435-0.163,0.614l-1.474-1.782C135.332,156.96,135.469,156.938,135.609,156.938
L135.609,156.938z M108.129,157.02c0.684,0,1.234,0.551,1.234,1.233c0,0.685-0.551,1.239-1.234,1.239
C108.191,159.046,107.898,156.964,108.129,157.02L108.129,157.02z M56.649,157.3c0.382,0.251,0.629,0.677,0.629,1.169
c0,0.465-0.227,0.883-0.579,1.137L56.649,157.3z M119.125,157.32c0.156,0.5,0.348,2.562,0,2.473c-0.684,0-1.238-0.551-1.238-1.234
C117.887,157.876,118.441,157.32,119.125,157.32L119.125,157.32z M113.504,159.121l-4.523,4.504l4.617,4.723l4.371-4.66
L113.504,159.121z M61.309,159.367l-4.051,4.371l3.902,5.066l4.579-4.56L61.309,159.367z M39.348,159.523
c1.246,0.004,2.406,0.215,2.883,1.043c1.906,2.555,1.359,7.805,0.035,9.608c-2.969,2.695-4.645,3.406-7.992,2.788
c0.382-1.511-1.227-2.326-1.457-1.99c-0.032,0.004-0.157,0.27-0.004,0.289c1.152,0.141,1.063,1.516,0.926,1.522
c-1.278-0.039-2.106-0.021-2.235-0.587c-0.082-0.352,0.125-0.891,0.867-1.5c0.875-0.698,4.895-0.684,4.895-0.684
c0.015,0.008-0.012-1.141,0.394-1.802c0.352-0.577,0.844-1.222,0.508-1.487c-0.582-0.267-0.972-0.918-1.054-1.668
c-0.157-1.57,0.089-5.354,0.035-5.397C37.824,159.598,38.598,159.523,39.348,159.523L39.348,159.523z M113.496,162.445
c0.641,0,1.164,0.519,1.164,1.16c0,0.641-0.523,1.16-1.164,1.16s-1.16-0.521-1.16-1.16
C112.336,162.964,112.855,162.445,113.496,162.445L113.496,162.445z M61.336,162.898c0.645,0,1.164,0.516,1.164,1.16
c0,0.641-0.519,1.164-1.164,1.164c-0.64,0-1.164-0.523-1.164-1.164C60.172,163.414,60.696,162.898,61.336,162.898L61.336,162.898z
M119.031,163.988l-4.73,4.824l5.039,5.215l-0.156-1.414l-3.633-3.735l3.551-3.703L119.031,163.988z M108.348,164.082l-0.129,1.332
l3.348,3.52l-3.043,3.125l-0.043,1.521l4.474-4.72L108.348,164.082z M56.563,165.902l2.676,3.75l-3.184,2.789l0.082-1.063
c0.926-0.218,1.613-1.05,1.613-2.043c0-0.875-0.539-1.625-1.304-1.937L56.563,165.902z M66.574,166.641
c-0.062,0.777-0.105,1.405-0.144,1.98c-0.867,0.254-1.5,1.059-1.5,2.007c0,0.845,0.5,1.571,1.219,1.903
c-0.059,0.601-0.133,1.265-0.243,2.101l-3.195-4.675L66.574,166.641z M142.172,166.859l0.125,13.121l9.477,9.863l0.103,36.823
l-39.142,0.237l-10.069-17.09c-0.22-0.319-0.487-0.215-0.711-0.539l2.987-15.938c4.699,2.161,8.652-3.434,6.086-7.968
C125.512,180.078,142.172,166.859,142.172,166.859L142.172,166.859z M119.059,166.934c-1.026,0-1.858,0.828-1.858,1.853
c0,1.026,0.832,1.862,1.858,1.862c1.023,0,0.637-0.633,0.637-1.66C119.695,167.96,120.082,166.934,119.059,166.934L119.059,166.934z
M108.234,167.043c-0.517,0.585-0.81,3.742,0,3.714c1.027-0.03,1.858-0.836,1.858-1.858
C110.094,167.871,109.262,167.043,108.234,167.043L108.234,167.043z M119.059,167.555c0.68,0,0.371,0.668,0.371,1.352
s0.309,1.121-0.371,1.121c-0.684,0-1.238-0.559-1.238-1.241C117.82,168.105,118.375,167.555,119.059,167.555L119.059,167.555z
M108.234,167.664c0.684,0,1.233,0.55,1.233,1.234c0,0.68-0.551,1.232-1.233,1.232C108.309,169.93,107.926,167.75,108.234,167.664
L108.234,167.664z M56.387,168.152c0.394,0.246,0.66,0.683,0.66,1.183c0,0.579-0.351,1.075-0.851,1.286L56.387,168.152z
M66.375,169.398c-0.058,0.891-0.101,1.621-0.16,2.363c-0.351-0.256-0.582-0.664-0.582-1.135
C65.633,170.098,65.934,169.632,66.375,169.398L66.375,169.398z M113.441,169.828l-4.41,4.41l4.594,4.769l4.367-4.616
L113.441,169.828z M60.973,170.973l-4.617,3.707l2.972,4.559l1.036,0.625l4.23-3.62L60.973,170.973z M42.426,171.277l10.875,5.805
c0,0-2.82,1.18-2.742,3.066c0.113,2.104,1.375,3.828,3.879,3.18c0.574-0.082,0.84,0.156,1.395,1.449
c1.059,2.476,2.106,5.195,1.699,5.113c-1.335-1.066-1.136-1.125-2.707-1.828c-2.925-0.811-4.71,1.918-3.785,4.121
c0.864,2.035,2.297,2.15,3.739,1.94c0.211,0.051,0.386,0.28,0.531,0.546c0.457,0.928,1.148,2.575,1.691,5.109
c0.836,3.91,1.024,8.802,0.41,10.031c-0.839,1.703-2.004,4.008-2.004,4.008c-2.269-4.323-7.21-8.112-12.761-6.771
c-0.188,0.114-0.227,0.728,0.023,1.082c1.801,2.364,2.106,4.532,2.75,6.856c1.653,5.957,4.981,9.363,4.938,8.754l-1.746,3.164
c0,0-15.098,0.074-21.278,0v-7.258L43.52,203.07l-6.414-0.274l0.222-28.582C39.672,173.727,42.426,171.277,42.426,171.277
L42.426,171.277z M113.523,173.109c0.641,0,1.16,0.519,1.16,1.16c0,0.645-0.521,1.168-1.16,1.168c-0.641,0-1.164-0.523-1.164-1.168
C112.359,173.628,112.883,173.109,113.523,173.109L113.523,173.109z M60.481,174.285c0.64,0,1.164,0.52,1.164,1.16
c0,0.644-0.524,1.168-1.164,1.168c-0.641,0-1.16-0.524-1.16-1.168C59.321,174.805,59.84,174.285,60.481,174.285L60.481,174.285z
M108.332,175.352l0.113,1.146l3.18,3.336l-2.945,2.996c-0.43,0.59-1.527,0.461-1.875,0.5c0,0.039,0.074,0.435,0.336,0.55
c0.273,0.122,0.603,0.1,0.734,0.178c0.309,0.172,0.504,0.197,0.504,0.197l4.281-4.378L108.332,175.352z M108.379,177.941
c-0.77,0.246-0.633,3.527,0,3.719c1.027,0,1.859-0.832,1.859-1.86C110.238,178.773,109.406,177.941,108.379,177.941L108.379,177.941
z M119.293,178.449c0.078,0.301,0.191,2.441,0,2.472c-0.684,0-1.238-0.554-1.238-1.237
C118.055,179.001,118.609,178.449,119.293,178.449L119.293,178.449z M108.379,178.566c0.684,0,1.238,0.551,1.238,1.232
c0,0.686-0.555,1.239-1.238,1.239C108.215,180.753,107.938,178.605,108.379,178.566L108.379,178.566z M70.117,179.16
c-0.183,0.07-0.437,0.027-0.64,0.027c-0.645,0-1.446-0.457-1.621-0.371c-0.203,0.094-0.137,0.516-0.125,0.707
c0.023,0.176,0.511,0.232,0.715,0.367c0.324,0.211,0.234,0.283-0.133,0.375c-0.328,0.072-0.59,0.098-0.801,0.395
c-0.129,0.184-0.141,0.504,0.082,0.504c1.285-0.02,2.922-0.551,4.465-0.036c0.879,0.317,1.453,0.513,1.594,0.392
c0.293-0.25-0.739-1.238-1.727-1.422c-0.992-0.188-1.352-0.109-1.027-0.406c0.164-0.151,0.39-0.094,0.406-0.203
c0.047-0.309-0.18-0.629-0.449-0.672C70.567,178.77,70.336,179.074,70.117,179.16L70.117,179.16z M75.66,182.253
c-0.105,0.004-0.257,0.079-0.461,0.243c-0.585,0.386-1.503,0.91-3.722,0.3c-1.219-0.397-2.586-0.05-3.383,0.177
c-0.621,0.172-1.512,0.344-2.223,0.021c-0.695-0.337-1.457-0.845-1.316-0.321c0.035,0.135,0.078,0.898,0.086,1.355
c0.023,1.07,0.098,1.961,0.867,1.121c0.336-0.362,0.738-0.367,1.496-0.065c0.539,0.211,0.918,0.354,1.336,0.082
c0.59-0.388,1.102-0.483,2.195-0.114c0.52,0.178,1.063,0.192,1.719-0.211c1.09-0.671,1.781-0.02,2.199,0.664
c0.332,0.549,0.496-0.229,1.11-1.839C75.875,182.895,75.973,182.25,75.66,182.253L75.66,182.253z M70.438,188.246
c-0.594,0.336-1.422,0.438-2.024,0.832c-1.273,0.879-0.078,1.609,0.805,1.429c0.359-0.086,0.781-0.265,1.246-0.569
c1.594-1.06,2.477-0.906,2.625,0.375c0.164,1.388-1.969,2.013-1.769,2.651c0.265,0.423,1.3-0.155,1.945-1.022
C75.164,189.363,73.074,186.757,70.438,188.246L70.438,188.246z M78.696,195.512c-2.165,0.245-5.418,1.289-7.051,2.52
c-1.285,1-1.637,1.25-1.094,1.648c0.496,0.363,0.879,0.379,0.195,1.077c-0.242,0.25-0.656,0.771-0.656,0.871
c0.008,0.5,3.059,1.989,4.813,2.224c1.347,0.18,3.531-0.026,4.711-0.5c1.55-0.625,1.601-1.056,0.136-0.625
c-1.144,0.336-2.527,0.59-3.886,0.492c-1.223-0.091-2.426-0.462-3.18-0.734c-1.875-0.668-1.551-1.448,0.344-0.784
c2.179,0.944,5.003,0.929,7.511-0.203c1.016-0.457,1.297-0.815,1.481-0.661c0.047,0.04,0.148,0.29,0.176,0.355
c0.062,0.168,0.07-0.426,0.16-1.362c0.074-0.782,0.144-1.825,0.144-1.825s-0.148,0.441-0.144,0.648
c0.019,1.363-0.645,1.371-2.516,0.324c-2.203-1.207-3.269-1.09-5.363-1.078c-0.914,0.008-0.957-0.258,0.332-0.685
c0.613-0.202,1.555-0.53,2.961-0.976C78.93,195.867,79.242,195.449,78.696,195.512L78.696,195.512z M62.11,198.266
c0.796,0,1.507,0.676,1.711,1.991l-0.793-0.058c-0.262-1.961-1.684-1.516-2.243-0.348l-0.699,0.02
C60.633,198.793,61.406,198.266,62.11,198.266L62.11,198.266z M64.133,198.387c0.324-0.031,1.824,0.698,1.914,0.922
c0.102,0.246-0.469,0.508-0.969,0.655c-0.574,0.168-0.457,0.192-0.64-0.147C64.184,199.339,63.739,198.406,64.133,198.387
L64.133,198.387z M60.305,198.48c0.016,0.211-0.438,0.979-0.77,1.082c-0.386,0.117-0.695-0.398-0.375-0.66
C59.449,198.753,60.246,198.18,60.305,198.48L60.305,198.48z M75.731,198.582c1.008-0.039,1.945,0.977,2.027,2.184l-0.508-0.013
c-0.472-2.507-2.398-1.94-2.832-0.151l-0.597-0.172C74.321,199.137,75.043,198.613,75.731,198.582L75.731,198.582z M73.75,198.762
c0.278-0.02,0.242,0.207-0.09,0.87c-0.156,0.317-0.269,0.493-0.543,0.485c-0.371-0.059-0.621-0.176-0.812-0.473
c-0.129-0.293,0.176-0.521,0.82-0.725C73.422,198.828,73.625,198.77,73.75,198.762L73.75,198.762z M77.989,198.949
c0.175,0,0.5,0.113,1.003,0.336c1.297,0.57,1.45,0.804,0.77,1.129c-0.301,0.145-0.551,0.254-0.75,0.32
c-0.606,0.203-0.586-0.137-0.75-0.56c-0.094-0.237-0.203-0.452-0.324-0.702C77.774,199.117,77.77,198.945,77.989,198.949
L77.989,198.949z M59.02,201.07c0.215,0,0.683,0.285,1.621,0.621c1.344,0.479,2.703,0.301,4.488-0.268
c0.738-0.236,0.992-0.382,0.699,0.045c-0.23,0.34-1.484,0.961-2.511,1.215c-1.918,0.477-4.453-0.428-4.457-1.41
C58.875,201.128,58.922,201.074,59.02,201.07L59.02,201.07z M65.375,202.691c0.192,0.004,0.004,0.297-0.402,0.75
c-0.633,0.703-1.594,1.187-2.578,1.363c-2.063,0.362-3.774-0.199-3.793-1.355c-0.012-0.832,0.137-0.844,1.156-0.317
c0.863,0.446,2.809,0.552,4.375,0.048c0.516-0.137,1.043-0.449,1.133-0.473C65.313,202.695,65.344,202.691,65.375,202.691
L65.375,202.691z M81.25,203.809c-1.566,0.414-3.23,0.832-4.754,1.125c-1.629,0.319-4.004,0.023-5.242-0.586
c-0.918-0.449-1.238-0.184-0.836,0.691c0.262,0.57,0.66,1.171,1.836,1.582c1.707,0.593,5.707-0.371,8.68-1.911
C82.664,203.945,82.332,203.48,81.25,203.809L81.25,203.809z M55.442,215.585l2.672-4.542c18.113,3.507,37.71,0.96,43.71,0.128
c0,0,6.547,10.836,8.902,14.642c0.223,0.406,0.832,1.772,0.832,1.772l-61.849-0.046c0.867-1.743,1.692-3.993,1.692-3.993
c-1.891-0.757-3.36-3.582-4.266-5.964c-0.797-2.09-2.176-7.195-3.988-9.684C46.321,206.098,54.301,210.117,55.442,215.585
L55.442,215.585z"/>
<path fill="#D40000" d="M111.031,227.078H49.778l7.98-15.953c14.891,2.253,29.57,1.973,44.082-0.325L111.031,227.078z
M27.328,214.363l-0.183-7.703l7.953,0.015L27.328,214.363z M93.875,163.82l-0.09-24.84l11.211,7.375l-0.41,25.219L93.875,163.82z
M67.071,157.964c0.398-8.886-1.727-17.175-3.364-25.577l11.606-7.625l0.636,28.042L67.071,157.964z M36.508,134.621l0.316-32.027
c10.442,15.016,16.79,29.968,18.61,50.558c-2.84,1.147-5.61,2.41-8.524,3.434C43.559,148.887,40.176,141.438,36.508,134.621
L36.508,134.621z M142.305,148.406c-9.647-12.258-15.469-29.066-18.504-49.188l8.832-4.289c2.93,7.105,5.781,14.332,9.492,20.227
L142.305,148.406z M104.211,126.574l-0.941-26.883l8.844-5.371c0.47,9.223,1.927,17.875,3.669,25.141L104.211,126.574z
M84.977,112.227l-9.543-5.551l0.543-24.301l8.722,6.84L84.977,112.227z M144.547,44.844c0.684-2.543,5.285-5.793,7.254-7.543
l-0.082,7.195C151.719,44.496,144.898,44.98,144.547,44.844L144.547,44.844z M77.664,40.953l-9.902-16.895l62.058-0.52
l-7.973,17.012C105.41,37.543,91.352,38.902,77.664,40.953L77.664,40.953z"/>
<path d="M22.094,10.723h-8.191v2.801h3.046c0,0-0.039-0.535-0.011,5.711c0.019,4.375,0.015,7.172-0.039,9.012
c0.015,2.449-0.391,3.949-1.352,4.848c-1.527,1.285-4.512,1.156-5.617-0.055c-0.816-0.949-0.992-2.762-0.941-4.895H6.207
c0,0,0,1.031,0,1.574c-0.484,10.074,13.012,8.367,13.442,1.336c0.09-1.5,0.047-0.953,0.007-9.277
c-0.039-8.918-0.007-8.254-0.007-8.254h2.445V10.723z M106.105,192.91c0.141,0.043,2.059-1.254,3.055-3.164
c1.074-2.114,0.102-4.188,0.422-4.195c1.98,0.59,1.41,4.363,0.723,5.534c-0.586,1.017-1.703,1.704-2.859,1.899
C106.301,193.176,106.105,192.91,106.105,192.91L106.105,192.91z M109.332,184.656c-0.398,0.008-0.574-0.063-0.836-0.332
c-0.363-0.379-0.805-0.633-1.035-0.602c-0.313,0.047-0.457-0.014-0.461-0.178c0-0.136,0.141-0.158,0.652-0.111
c0.315,0.025,0.977-0.471,0.977-0.471l0.008-35.684c2.805,1.164,7,1.832,10.223,2.216l0.216,31.804c0,0,4.727-2.477,6.444-3.465
l0.06-28.469L128.93,149l-5.289-10.747c-0.742,0.575-11.152-0.397-13.75-2.089l9.496-5.926c-0.965-2.945-1.84-5.758-2.648-8.734
c-0.022-0.094-0.198-0.082-0.227-0.176c-0.195-0.727-0.332-1.055-0.516-1.785c-0.035-0.137,0.02-0.359-0.02-0.496
c-2.043-7.047-3.441-16.387-3.728-24.75c0.03-0.078,0.332-0.012,0.332-0.012l-0.06-5.109l-0.336,0.227l0.031-2.313l0.344-0.34
c0.008-0.449,0.039-1.293,0.039-1.293l-0.44-0.273l0.229-3.875l0.453-0.066l0.246-6.133l-12.027,7.785c0,0-7.852-5.621-11.285-8.535
c3.777-2.566,4.781-7.578,5.718-11.734c0.957-4.109,1.27-7.508,1.543-10.949c0.297-3.793,0.926-8.641,1.43-11.031
c0.305-1.445,0.293-1.605-0.133-1.629c-0.148-0.008,0.004-0.055,0.336-0.105c7.715-0.309,15.996,0.84,23.352,1.797
c0,0,1.82-3.391,2.449-4.641c0,0,0.371,1.148,0.766,1.945c0.896,1.691,2.935,3.484,4.681,4.453c0.651,0.426,2.526,1.055,3.793,1.27
c0.746,0.125,1.944-0.113,2.832-0.465c0.306-0.129,0.547-0.289,0.547-0.449c0.004-0.16-0.237-0.324-0.547-0.617
c-0.263-0.25-0.612-0.73-0.78-1.074c-0.531-1.086-1.349-2.906-1.806-4.609c-1.281-3.387-2.233-7.477-5.181-9.277l2.035-4.066
l-64.012,0.016l9.902,16.684c0,0,0.301,0.496,0.399,0.672C77.395,41.074,77.516,41,77.516,41
c-0.645,5.832-1.563,11.574-2.777,17.219c0,0-0.129-0.453-2.008-0.426c-5.504,0.082-7.434,6.199-2.832,8.906
c0.437,0.258,1.175,0.754,1.902,1.137c0.211,0.105,2.848,1.656,2.848,1.656l-3.164-1.422l-0.227,36.707c0,0-6.598-1.98-10.945-2.168
l0.043-31.828l-6.071,3.277l-0.277,28.457l-3.324,0.215c0,0,1.258,2.68,1.539,3.246c0.562,1.125,1.976,3.637,2.941,5.223
c0.344,0.559,1.145,1.809,1.145,1.809c4.43,0.117,8.969,0.781,13.09,2.613l-9.543,6.207c3.984,11.227,8.957,27.656,6.187,54.172
l0.668-0.426l0.184-2.855l11.875-8.173l14.652,11.798c0,0-1.066-0.027-1.305-0.039c-3.734-0.134-6.367,3.691-7.27,6.879
c-1.59,5.625-1.801,7.017-2.531,15.935c-0.293,3.526-0.989,6.929-1.7,10.288c-0.375,1.689-0.32,1.855-0.32,1.855
c7.453,0.238,15.233-0.548,21.07-1.837c0,0,2.465-11.698,3.344-16.663c0.832,0.477,1.565,0.684,2.315,0.668
C112.805,192.801,112.309,184.878,109.332,184.656L109.332,184.656z M83.614,24.313l3.027,10.629l-7.418,0.684l-6.16-11.227
L83.614,24.313z M129.219,24.164l-7.625,16.176c-16-2.242-25.234-2.457-43.805,0.172l-9.652-16.129l2.539-0.023l7.277,12.879
l10.813-1.078l-2.988-11.785l2.855-0.086l2.957,11.563l16.73-0.09c0.543-3.871,1.594-11.449,1.594-11.449l3.086,0.03l-2.059,11.711
l9.887,1.238l5.707-13.09L129.219,24.164z M107.762,24.313l-0.977,9.836l-13.84,0.109l-2.215-9.949L107.762,24.313z M124.531,24.125
l-4.699,11.676l-6.848-0.914l1.871-10.598L124.531,24.125z M43.215,43.129c1.07,0.84,1.406,1.055,1.223,1.406
c-0.203,0.395-0.442,0.316-1.348-0.445c-2.703-2.297-5.598-2.828-8.066-2.164c-6.95,2.434-8.16,10.469-3.321,15.941
c4.813,4.254,13.266,1.688,14.625-4.965c0.039-1.23,1.106-1.707,1.106-0.117c-0.531,5.566-3.156,10.363-5.375,13.91h12.789
c-3.098-4.633-4.141-7.348-5.059-14.266c0.043-1.086,0.754-1.25,0.996-0.23c0.735,4.906,4.555,8.797,9.61,8.008
c10.289-2.074,10.34-16.055,1.344-18.316c-2.243-0.465-4.938,0.125-7.012,1.977c-0.754,0.672-1.024,0.781-1.285,0.523
c-0.297-0.285,0.058-0.57,0.914-1.328c4.75-3.504,4.535-9.895,0.211-13.469c-4.067-2.832-8.86-2.59-12.305,0.438
C37.797,34.188,39.305,40.203,43.215,43.129L43.215,43.129z M132.973,35.566c0.301,0.996,0.613,1.973,0.685,2.172
c1.116,3.027,1.577,4.027,2.309,5.031c0.121,0.168,0.156,0.148-0.021,0.289c-3.362,1.645-9.44-2.398-10.905-6.105
c0.185-0.355,0.996-1.859,0.996-1.859c0.426,0.828,0.108,1.645,0.387,2.387c0.066,0.32,0.767-2.141,0.767-2.141
s0.668,1.09,0.75,3.191c0.012,0.324,0.875-1.41,0.875-1.41c1.082,1.457,1.02,3.984,1.02,3.984c1.219-1.48,0.461-2.328,2.344,1.445
c0.219-0.395,0.113-0.809,0.398-0.699c0.824,0.32,1.988,0.898,2.414,0.781c-0.555-0.691-1.625-1.055-1.918-1.973
c0,0,0.848,0.07,0.902,0.031c-0.961-0.523-1.888-0.977-2.609-1.984c0.215-0.078,1.086,0.07,1.047-0.02
c-1.301-1.18-3.258-2.129-0.43-1.863c-1.84-1.293-3.887-2.188-0.695-2.094c-2.277-1.074-2.891-1.738-2.465-1.922
c0.238-0.102,0.918,0.309,2.004-0.039c-1.828-0.746-2.586-1.09-2.656-1.332c-0.09-0.301,0.781-0.465,1.375-1.109
c0,0-0.734,0.168-1.059-0.172c0,0,0.359-1.031,0.637-1.629C131.449,30.645,132.367,33.637,132.973,35.566L132.973,35.566z
M152.605,31.457c0,0-10.297,11.098-15.398,16.602l4.984,0.074l0.227,30.043c1.738,0.234,4.746,0.008,5.887,1.16
c0.707,1.047-2.031,3.105-3.57,2.676c-1.026-0.277-2.301-0.059-2.301-0.059l0.105,33.477c-3.289-6.102-5.801-9.965-9.441-20.563
c1.055-0.734,2.141-1.297,2.32-1.422c-1.398-3.375-2.367-8.68-0.414-13.305l1.348,0.805c-0.988,2.82-1.352,6.992,0.262,10.848
l0.371-0.387c0,0-0.397-0.77-0.655-1.621c-0.229-0.754-0.56-1.734-0.563-2.742c-0.063-1.793-0.008-3.336,0.414-4.773
c0.146-0.469,0.355-1.168,0.465-1.383c0.105-0.215,0.211-0.414,0.211-0.477c-3.961-1.605-6.801-3.953-10.219-5.633
c-0.129-0.063-0.238-0.117-0.324-0.164c-0.434-0.242-0.315-0.324,0.359-0.594c1.426-0.566,2.008-1.254,1.977-2.641
c-0.047-1.965-1.098-2.734-3.397-2.605c-0.836,0.047-0.892,0.035-1.039-0.25c-0.349-0.668-1.551-3.32-1.551-3.426
c-0.004-0.063-0.254-0.66-0.56-1.328c-0.473-1.066-1.02-2.164-1.242-3.277c-0.112-0.551-0.434-0.77-0.516-0.199
c-0.609,4.238-1.168,6.473-2.262,9.02c-0.328,0.758-0.574,1.395-0.547,1.418c0.105,0.094,1.938,0.945,2.793,1.297
c3.348,1.379,4.867,2.227,4.352,2.434c-0.359,0.141-0.488,0.391-0.578,1.102c-0.242,1.867-0.215,2.82,0.099,3.41
c0.327,0.621,0.319,0.664-0.22,1.016c-0.465,0.301-0.362,0.301-0.487,1.859c-0.152,1.852-0.052,3.027-0.052,3.027l0.836,1.07
L123.43,87l-0.195,4.844l1.146,0.867l-1.069,1.055l0.383,4.418c0,0-0.142,0.41-0.328,0.613c1.813,18.68,8.816,37.508,19.305,50.34
l0.105,30.691l10.276,10.285L152.605,31.457z M151.801,33.434v2.418l-8.727,9.402l8.727,0.152v2.051l-13.398-0.027L151.801,33.434z
M151.668,37.539l0.023,6.777l-6.527,0.008L151.668,37.539z M13.86,40.273c-5.45,0.207-4.563,6.352-2.2,8.172
c1.434,1.324,1.45,1.426-0.312,0.426c-3.207-2.086-6.598-0.633-6.695,2.863c-0.172,5.652,6.492,6.113,7.867,1.41
c0.109-0.621,0.664-1.383,0.621-0.227c-0.09,1.898-2.496,6.629-2.692,6.57h6.082c-0.449-1.129-1.98-4.023-2.011-6.352
c0.035-1.617,0.429-0.563,0.664,0.242c1.351,4.797,7.933,4.016,8.129-1.012c0.082-3.66-3.403-5.879-6.278-3.711
c-1.632,1.141-1.648,0.852-0.336-0.594C19.68,45.008,18.008,40.117,13.86,40.273L13.86,40.273z M91.805,40.953l1.359-0.055
c-0.051,1.363-0.594,7.672-1.242,13.191c-0.727,6.227-2.223,11.594-2.508,11.594l-1.312-0.793
C90.277,57.746,90.855,48.555,91.805,40.953L91.805,40.953z M97.977,40.758c-0.19,3.855-1,6.551-1.246,11.109
c-0.305,5.566-1.262,12.496-3.766,18.242c-0.844,1.938-2.402,3.754-4.59,4.609c-3.832,1.504-7.086-3.246-4.496-6.742
c2.051-2.762,5.258-2.727,6.231,0.07c0.804,2.309-1.782,5.207-3.844,4.309c-1.434-0.625-1.067-3.207,0.543-3.816
c0.668-0.25,1.23,0.594,0.902,1.355c-0.258,0.598-0.285,0.969,0.067,0.715c1.453-1.023,0.359-3.469-1.45-2.555
c-2.41,1.219-2.004,4.805,0.422,4.961c3.074,0.305,5.445-3.48,6.965-10.668c1.664-8.047,1.25-15.246,2.848-21.563L97.977,40.758z
M94.051,40.895l1.613-0.047c-0.129,0.594-0.152,1.23-0.262,1.965c-0.637,4.219-1.012,10.379-1.664,15.207
c-0.922,6.809-2.574,10.949-2.613,10.445c-0.188-0.824-0.707-1.496-1.109-2.148c1.667-4.531,2.339-8.652,2.766-12.531
C93.281,49.25,93.422,45.043,94.051,40.895L94.051,40.895z M87.145,41.285l1.418-0.074c-0.555,9.031-1.879,17.219-2.66,20.734
c-0.243,1.059-0.321,1.52-0.524,1.605c-0.223,0.098-0.594-0.258-1.496-0.762C85.258,62.984,86.36,47.434,87.145,41.285
L87.145,41.285z M89.356,41.156l1.539-0.152c-0.229,3.266-0.781,8.398-1.398,13.027c-0.746,5.594-1.722,10.551-2.211,10.48
l-1.281-0.445C86.86,64.332,88.977,47.641,89.356,41.156L89.356,41.156z M86.434,41.313c-1.004,6.84-1.102,14.828-3.184,21.211
l-1.441-0.672c0.394,0.129,1.418-4.152,1.765-8.996c0.301-4.219,1.063-8.809,1.29-11.352L86.434,41.313z M84.059,41.566
c-0.574,2.414-0.574,5.969-1.004,8.938c-0.531,3.676-1.098,11.137-1.949,10.965l-1.473-0.746c0.773,0.234,2.121-13.906,2.941-18.926
L84.059,41.566z M80.184,42.164l1.492-0.203c-0.719,5.52-2.02,18.391-2.789,18.488l-1.402-0.742
C78.031,57.445,79.414,49.758,80.184,42.164L80.184,42.164z M79.254,42.379c-0.621,6.066-1.199,12.211-2.492,16.93l-1.535-0.691
c0,0,1.066-5.188,1.57-8.832c0.496-3.598,0.574-4.113,0.731-5.051c0.351-2.066,0.445-2.145,0.445-2.145L79.254,42.379z
M144.887,48.598l-0.145,29.137l-1.699-0.063l0.07-29.121L144.887,48.598z M148.902,48.828c0.641,0,1.16,0.52,1.16,1.16
c0,0.64-0.521,1.164-1.16,1.164c-0.646,0-1.16-0.523-1.16-1.164C147.742,49.347,148.258,48.828,148.902,48.828L148.902,48.828z
M121.535,59.52c1.203,2.199,2.125,3.008,3.184,3.43c1.914,0.758,4.551-1.113,3.59-3.73c-0.504-1.375-1.785-1.578-3.406-1.305
c0,0-0.698-0.496-1.522-2.992c-0.973-2.949-2.504-5.988-2.504-5.988C120.781,52.637,119.91,56.492,121.535,59.52L121.535,59.52z
M150.621,51.531c0.641,0,1.164,0.521,1.164,1.16c0,0.645-0.523,1.164-1.164,1.164c-0.645,0-1.164-0.52-1.164-1.164
C149.457,52.051,149.977,51.531,150.621,51.531L150.621,51.531z M147.434,51.578c0.642,0,1.16,0.52,1.16,1.16
c0,0.64-0.52,1.164-1.16,1.164c-0.64,0-1.164-0.523-1.164-1.164C146.27,52.097,146.793,51.578,147.434,51.578L147.434,51.578z
M121.395,51.301c1.078,2.234,1.31,3.914,2.353,5.941c0.457,0.883,0.871,1.641,0.871,1.641c3.414-1.605,4.728,2.438,1.957,3.727
c-2.728,1.27-5.793-3.555-5.496-8.754C121.16,52.422,121.395,51.301,121.395,51.301L121.395,51.301z M148.961,54.316
c0.641,0,1.16,0.52,1.16,1.16s-0.52,1.164-1.16,1.164s-1.16-0.523-1.16-1.164S148.32,54.316,148.961,54.316L148.961,54.316z
M152.035,56.496v2.484l-6.066,5.887v-2.402L152.035,56.496z M72.254,58.41c1.16,0.016,1.715,0.355,0.945,0.664
c-2.546,1.012-3.679,2.621-3.82,5.441c-0.004,1.426,0.168,1.609-0.711,0.816C66.43,62.199,69.656,58.391,72.254,58.41L72.254,58.41z
M74.383,59.43c0.281-0.012,0.563,0.023,0.84,0.113c0.683,0.215,0.433,0.23-0.715,0.992c-2.195,1.457-2.863,2.883-2.961,5.801
c-0.027,0.438,0.063,0.805,0.027,0.988c-0.031,0.141-0.203,0.094-0.304,0.09c-0.418-0.07-0.676-0.516-0.797-0.887
C69.082,63.75,71.653,59.531,74.383,59.43L74.383,59.43z M76.758,60.395c0.191-0.004,0.356,0.027,0.492,0.094
c0.535,0.266,0.336,0.305-0.644,1.008c-1.746,1.242-2.61,3.07-2.813,5.113c-0.129,1.309,0.883,2.867-0.906,1.582
c-1.258-1.043-1.008-3.754,0.328-5.613C74.035,61.43,75.739,60.406,76.758,60.395L76.758,60.395z M152.035,59.824v2.828
l-6.066,5.766v-2.895L152.035,59.824z M78.707,61.301c0.692,0.004,1,0.449,0.196,0.953c-1.965,1.234-3.149,3.59-3.032,6.051
c0.11,1.484,0.168,1.75-0.781,0.77c-1.527-1.582-0.453-5.875,2.512-7.48C78.004,61.383,78.395,61.297,78.707,61.301L78.707,61.301z
M80.719,62.121c1.129-0.027,1.289,0.547,0.277,1.254c-1.933,1.348-3.222,3.723-3.191,5.883c0.016,1.004-0.063,1.125-0.508,0.789
c-2.23-1.703,0.16-7.648,3.184-7.91C80.563,62.129,80.641,62.125,80.719,62.121L80.719,62.121z M120.621,62.309
c0.277,0.02,0.773,1,1.547,3.055c0.75,1.984,1.957,4.48,2.211,4.574c0.082,0.031,0.422-0.086,0.758-0.266
c2.543-1.336,4.336,2.457,1.828,3.867c-1.785,1.004-3.473-0.074-5.027-3.215c-1.832-3.699-2.336-6.449-1.449-7.93
C120.527,62.332,120.57,62.305,120.621,62.309L120.621,62.309z M82.789,63.316c0.305-0.012,0.602,0.047,0.883,0.191
c0.66,0.34,0.563,0.594-0.449,1.188c-1.039,0.609-1.449,0.992-2.051,1.898c-0.933,1.414-1.09,1.957-1.09,3.777
c0,1.484-0.441,1.566-1.328,0.246C77.227,68.344,80.289,63.426,82.789,63.316L82.789,63.316z M85.328,64.648
c1-0.023,1.661,0.387,0.703,0.891c-3.042,1.609-4.32,3.918-3.738,6.758c0.18,0.891-0.836,0.137-1.453-1.074
c-0.902-1.773,0.762-5.199,3.035-6.246C84.348,64.758,84.875,64.656,85.328,64.648L85.328,64.648z M119.672,67.262
c0.191,0.012,0.414,0.52,0.902,1.766c0.316,0.816,0.742,1.789,0.945,2.164c0.207,0.375,0.348,0.73,0.315,0.785
c-0.172,0.285-1.582-0.203-2.056-0.711c-0.733-0.785-0.965-2.543-0.473-3.551C119.453,67.422,119.559,67.254,119.672,67.262
L119.672,67.262z M148.902,69.406c0.641,0,1.16,0.516,1.16,1.16c0,0.641-0.521,1.164-1.16,1.164c-0.646,0-1.16-0.523-1.16-1.164
C147.742,69.922,148.258,69.406,148.902,69.406L148.902,69.406z M29.781,71.277c0.641,0,1.161,0.523,1.161,1.164
s-0.52,1.16-1.161,1.16c-0.644,0-1.16-0.52-1.16-1.16C28.621,71.801,29.137,71.277,29.781,71.277L29.781,71.277z M77.77,71.629
c1.269-0.047,1.66,0.555,1.875,2.48c0.144,1.32,0.429,1.445,2.511,1.094c2.196-0.367,2.93,0.227,3.086,2.5
c0.125,1.805,0.11,1.789,2.606,1.805c2.457,0.016,2.722,0.266,3.003,2.785c0.211,1.871,0.142,1.82,2.56,1.785
c2.676-0.035,2.918,0.164,3.098,2.531c0.146,1.918,0.273,2.043,1.966,1.902c1.655-0.137,4.711-0.148,5.28-0.027
c1.427,0.313,1.483,0.254,1.793-1.668c0.402-2.527,0.902-2.844,4.013-2.531c1.526,0.152,1.707,0.121,1.922-1.223
c0.289-1.793,0.647-2.32,0.647-0.766c0.004,3.922-0.271,4.105-2.887,3.406c-1.97-0.523-2-0.121-2.207,1.773
c-0.181,1.672-0.461,2.355-1.078,2.621c-0.478,0.207-2.082,0.031-2.728-0.152c-0.242-0.07-1.77-0.105-3.578-0.086
c-4.354,0.043-4.401,0.055-4.397-3.004c0-1.289-0.28-1.566-2.563-1.496c-2.858,0.086-2.709,0.16-3.195-3.273
c-0.172-1.191-0.265-1.234-2.632-1.203c-2.583,0.039-3.168,0.074-3.016-2.098c0.137-1.977-0.344-2.496-2.496-1.996
c-2.293,0.535-2.731-0.441-2.957-2.207c-0.207-1.637-0.344-1.227-1.442-1.313c-1.211-0.094-1.07-1.461,0.219-1.586
C77.391,71.664,77.59,71.633,77.77,71.629L77.77,71.629z M150.695,72.223c0.641,0,1.16,0.52,1.16,1.16c0,0.64-0.521,1.16-1.16,1.16
c-0.641,0-1.16-0.52-1.16-1.16C149.535,72.743,150.055,72.223,150.695,72.223L150.695,72.223z M147.426,72.285
c0.641,0,1.16,0.523,1.16,1.168c0,0.641-0.52,1.16-1.16,1.16c-0.64,0-1.16-0.52-1.16-1.16
C146.266,72.809,146.785,72.285,147.426,72.285L147.426,72.285z M31.52,74.223c0.644,0,1.164,0.52,1.164,1.16
c0,0.64-0.52,1.16-1.164,1.16c-0.641,0-1.16-0.52-1.16-1.16C30.36,74.743,30.879,74.223,31.52,74.223L31.52,74.223z M28.258,74.246
c0.645,0,1.16,0.52,1.16,1.164c0,0.641-0.515,1.16-1.16,1.16c-0.641,0-1.16-0.52-1.16-1.16
C27.098,74.766,27.617,74.246,28.258,74.246L28.258,74.246z M88.953,75.238l12.079,9.008l11.43-7.648l-0.069,2.789l-11.349,7.547
c0,0-9.655-7.477-14.324-11.09L88.953,75.238z M149.055,75.371c0.641,0,1.16,0.523,1.16,1.164s-0.52,1.16-1.16,1.16
c-0.645,0-1.164-0.52-1.164-1.16C147.891,75.895,148.41,75.371,149.055,75.371L149.055,75.371z M129.273,76.891l2.867,4.656
l-2.859,2.074l2.602,3.324l-2.809,2.879l3.086,1.957l-2.883,4.02l-3.996,1.773l3.996-5.246l-3.305-2.27l3.133-3.379l-2.813-3.688
l2.91-2.272l-3.147-5.164l0.207-0.25L129.273,76.891z M76.332,75.863l21.219,15.875c0,0,1.957,1.473,2.52,1.828
c1.191,0.758,1.431,0.453,2.617-0.363c2.685-1.59,9.172-6.008,9.172-6.008l-0.051,2.289c0,0-6.526,4.883-10.141,6.906
c-0.512,0.285-1.063,0.016-1.449-0.273c-7.879-6.242-15.945-12.293-23.934-18.406L76.332,75.863z M125.086,76.117
c0.09,0.16,0.375,0.219,0.516,0.43c0.938,1.457,2.646,4.043,2.646,4.043l-2.983,2.367L128,86.551l-3.422,3.479l3.496,2.379
c0,0-2.172,3.324-3.813,4.844l-0.039-2.582l1.401-1.691l-1.608-1.105l-0.009-3.551l1.638-1.723l-1.496-1.516l0.266-3.883l1.43-1.129
l-1.18-1.617L125.086,76.117z M29.821,76.91c0.64,0,1.164,0.516,1.164,1.16c0,0.641-0.524,1.16-1.164,1.16
c-0.641,0-1.161-0.52-1.161-1.16C28.66,77.426,29.18,76.91,29.821,76.91L29.821,76.91z M151.805,81.141l-5.902,5.457v-2.477
l5.902-5.797V81.141z M33.196,78.477v2.992l-6.305,5.82v-2.887L33.196,78.477z M151.805,81.906v2.969l-5.902,5.547V87.48
L151.805,81.906z M144.859,82.371l0.125,96.477l6.852,7.254l0.004,2.401l-8.672-8.983l-0.199-97.065L144.859,82.371z M33.196,82.086
v3.359l-6.305,5.75v-3.16L33.196,82.086z M76.317,82.703l8.336,6.488l-0.036,22.621c-3.375-2.539-6.086-4.051-8.648-5.336
L76.317,82.703z M149.059,90.02c0.646,0,1.164,0.52,1.164,1.16c0,0.64-0.52,1.16-1.164,1.16c-0.641,0-1.164-0.52-1.164-1.16
C147.895,90.54,148.418,90.02,149.059,90.02L149.059,90.02z M87.16,91.125l0.032,23.082l-1.641-1.5l-0.098-22.895L87.16,91.125z
M30.231,91.348c0.64,0,1.16,0.516,1.16,1.16c0,0.641-0.52,1.164-1.16,1.164c-0.641,0-1.164-0.523-1.164-1.164
C29.067,91.863,29.59,91.348,30.231,91.348L30.231,91.348z M150.613,92.992c0.641,0,1.16,0.52,1.16,1.16
c0,0.64-0.521,1.164-1.16,1.164c-0.646,0-1.164-0.523-1.164-1.164C149.449,93.511,149.969,92.992,150.613,92.992L150.613,92.992z
M147.305,93.137c0.641,0,1.16,0.52,1.16,1.16s-0.52,1.16-1.16,1.16c-0.64,0-1.16-0.52-1.16-1.16S146.664,93.137,147.305,93.137
L147.305,93.137z M88.094,93.023l5.082,4.754l-5.238,4.969l-0.039-2.293l2.914-2.809l-2.93-3.039L88.094,93.023z M90.028,93.445
l4.242,3.129l-0.664,0.805L90.028,93.445z M31.949,94.145c0.641,0,1.161,0.52,1.161,1.16c0,0.64-0.52,1.16-1.161,1.16
c-0.64,0-1.16-0.52-1.16-1.16C30.789,94.665,31.309,94.145,31.949,94.145L31.949,94.145z M28.547,94.203
c0.641,0,1.16,0.523,1.16,1.164c0,0.641-0.52,1.16-1.16,1.16c-0.641,0-1.16-0.52-1.16-1.16
C27.387,94.727,27.906,94.203,28.547,94.203L28.547,94.203z M111.879,94.625c0.816,9.234,1.383,15.625,3.766,24.332l-10.965,7.016
l0.098-26.75L111.879,94.625z M142.105,115.754l-0.043,31.719c-10.353-14.729-15.935-31.945-17.73-48.262
c0,0,5.559-2.559,8.258-4.133C135.445,101.777,134.211,101.77,142.105,115.754L142.105,115.754z M149.199,95.965
c0.645,0,1.16,0.523,1.16,1.164s-0.517,1.16-1.16,1.16c-0.641,0-1.16-0.52-1.16-1.16S148.559,95.965,149.199,95.965L149.199,95.965z
M30.278,97.215c0.64,0,1.16,0.52,1.16,1.16s-0.52,1.164-1.16,1.164c-0.641,0-1.161-0.523-1.161-1.164S29.637,97.215,30.278,97.215
L30.278,97.215z M94.988,97.105l4.031,3.074l0.008,2.332l-4.816-4.633L94.988,97.105z M93.609,98.336l5.035,4.98l-5.277,5.27
l-5.211-4.938L93.609,98.336z M131.535,98.512l-4.859,1.992c1.859,16.832,6.68,29.445,13.176,39.676L140,116.57
C136.645,111.262,134.105,104.863,131.535,98.512L131.535,98.512z M151.949,98.859v2.648l-6.047,5.543v-2.637L151.949,98.859z
M93.605,100.316l-3.207,3.133l3.229,3.125l3.108-3.125L93.605,100.316z M33.196,99.969v2.816l-6.004,5.797v-2.996L33.196,99.969z
M100.766,101.547l0.051,26.941l-1.336,0.629l0.095-28.145L100.766,101.547z M93.543,101.953L95,103.418l-1.523,1.531l-1.434-1.461
L93.543,101.953z M151.949,102.234v3.055l-6.047,5.645l-0.103-2.91L151.949,102.234z M85.063,113.688
c6.238,5.395,11.031,13.589,16.296,18.167c2.129,1.849,7.332,4.728,10.141,5.608c3.191,1.009,5.68,1.423,8.883,1.478
c2.531,0.047,2.543,0.06,2.543,0.06l1.07,1.905l-1.773-0.023l-0.113,6.725c1.875,0.09,3.711-0.012,5.523-0.238l0.656,1.227
c-12.902,1.745-25.516-3.141-33.102-9.391c-3.461-2.844-6.271-6.316-9.692-11.371c-6.586-10.273-18.187-15.234-28.992-15.348
l-0.894-1.395l1.804,0.063c0,0,0.184-1.293,0.207-3.488c0.028-2.473,0.012-2.906-0.183-2.98c-1.309-0.152-5.254-0.07-5.137,0.098
l-0.812-1.453C64.367,102,77.043,106.484,85.063,113.688L85.063,113.688z M33.196,103.547v2.762l-6.004,5.66v-2.766L33.196,103.547z
M99.16,103.781L99,106.25l-2.859,2.828l3.043,2.957l-0.07,2.063l-5.366-4.977L99.16,103.781z M59.961,104.66
c-0.277,0-0.445,0.023-0.476,0.074c-0.071,0.121-0.032,1.18-0.266,5.02c-0.086,1.406-0.184,1.41,0.996,1.555
c0.992,0.031,3.207,0.602,4.68,0.773c1.242,0.164,0.984-0.211,1.332-1.207c0.383-1.086,0.59-2.047,1.062-3.598
c0.434-1.418,0.235-1.465-2.562-1.984C62.793,104.93,60.789,104.66,59.961,104.66L59.961,104.66z M87.875,104.426l4.855,4.844
l-4.782,4.859l-0.082-2.348c0.922-0.82,2.02-1.754,2.833-2.68l-2.82-2.879L87.875,104.426z M63.516,105.996l0.519,0.855l1.254,0.207
l-0.218,0.871l0.636,0.902l-0.785,0.586l0.027,1.086l-0.98-0.035l-0.852,0.609l-0.671-0.855l-0.981-0.031l0.051-1.215l-0.637-0.539
l0.762-0.68l-0.098-1.082l1.207,0.203L63.516,105.996z M55.629,107.457l0.77,0.504l-0.785,0.543l-0.036,0.828l-0.48,0.41
l-1.762-3.449l1.149,0.465l0.875-0.582L55.629,107.457z M69.77,106.66c-0.617,0.008-0.699,1.148-1.367,3.305
c-0.93,3.008-0.997,2.73,0.789,3.355c0.797,0.281,2.316,0.793,3.125,1.172c1.961,0.922,1.968,0.918,2.703-0.332
c0.324-0.559,0.941-1.922,1.371-2.629c1.078-1.766,1.105-1.68-0.871-2.633c-1.164-0.559-1.867-0.789-4.313-1.781
C70.524,106.844,70.09,106.652,69.77,106.66L69.77,106.66z M71.727,108.656l0.855,0.535l0.965-0.402l0.192,1.035l1.054,0.41
l-0.301,1.02l0.461,0.762l-0.894,0.176l-0.653,1.41l-0.984-0.691l-1.043,0.379l-0.293-0.777l-1.066-0.516l0.386-0.855l-0.535-1.156
l1.227-0.094L71.727,108.656z M93.262,109.715l5.363,5.254l-4.883,4.891l-5.359-5.27L93.262,109.715z M149.195,110.672
c0.645,0,1.164,0.516,1.164,1.16c0,0.641-0.521,1.16-1.164,1.16c-0.641,0-1.16-0.52-1.16-1.16
C148.035,111.188,148.555,110.672,149.195,110.672L149.195,110.672z M78.946,110.926c-0.313,0.004-0.489,0.289-0.758,0.84
c-0.114,0.234-0.778,1.469-1.387,2.43c-1.379,2.156-1.379,2.047-0.004,2.891c0.582,0.359,1.926,1.465,3.082,2.512
c1.067,0.965,0.949,0.734,3.254-1.566c1.5-1.5,2.426-1.922,1.84-2.715c-1.422-1.219-2.59-2.109-4.133-3.277
C79.824,111.281,79.297,110.922,78.946,110.926L78.946,110.926z M93.516,111.512l-3.164,3.098l3.563,3.23l2.957-3.035
L93.516,111.512z M39.348,110.461l0.035,24.238c3.477,5.945,7.047,11.945,8.902,18.633l5.102-2.497
C50.949,131.035,45.274,120.055,39.348,110.461L39.348,110.461z M30.266,111.984c0.64,0,1.16,0.516,1.16,1.16
c0,0.641-0.52,1.16-1.16,1.16c-0.641,0-1.16-0.52-1.16-1.16C29.106,112.5,29.625,111.984,30.266,111.984L30.266,111.984z
M93.551,113.277l1.527,1.398l-1.406,1.523l-1.539-1.594L93.551,113.277z M150.621,113.504c0.641,0,1.164,0.52,1.164,1.16
s-0.523,1.16-1.164,1.16c-0.645,0-1.164-0.52-1.164-1.16S149.977,113.504,150.621,113.504L150.621,113.504z M147.5,113.621
c0.645,0,1.164,0.52,1.164,1.16c0,0.64-0.52,1.16-1.164,1.16c-0.641,0-1.16-0.52-1.16-1.16
C146.34,114.141,146.859,113.621,147.5,113.621L147.5,113.621z M79.66,113.547l0.883,0.652l1.035-0.445l0.075,1.219l0.945,0.465
l-0.594,0.863l0.36,1.137l-1.024,0.035l-0.793,1.039l-0.711-0.684l-1.387,0.094l-0.222-1.184l-0.602-0.473l0.469-0.785l-0.344-1.043
l1.192-0.082L79.66,113.547z M28.559,114.84c0.64,0,1.16,0.52,1.16,1.16s-0.52,1.16-1.16,1.16c-0.641,0-1.16-0.52-1.16-1.16
S27.918,114.84,28.559,114.84L28.559,114.84z M31.899,114.871c0.644,0,1.164,0.523,1.164,1.168c0,0.641-0.52,1.16-1.164,1.16
c-0.641,0-1.16-0.52-1.16-1.16C30.739,115.395,31.258,114.871,31.899,114.871L31.899,114.871z M99.125,117.641l-2.77,2.586
l2.727,2.844L99,125.254l-4.84-4.828l4.918-4.832L99.125,117.641z M71.75,117.082l-10.39,6.891l-0.633-1.723l9.262-6.066
L71.75,117.082z M149.047,116.52c0.641,0,1.16,0.523,1.16,1.164s-0.52,1.16-1.16,1.16c-0.645,0-1.164-0.521-1.164-1.16
C147.883,117.044,148.402,116.52,149.047,116.52L149.047,116.52z M86.75,117.219c-0.48,0.035-0.972,0.602-1.902,1.594
c-0.918,0.973-1.996,2.113-2.227,2.277c-0.722,0.508-0.687,0.629,0.571,2.039c0.379,0.43,1.101,1.305,1.601,1.945
c0.496,0.645,1.293,1.45,1.449,1.614c0.512,0.535,0.789,0.426,3.133-1.258c2.848-2.043,2.832-1.738,0.215-5.117
C88.086,118.371,87.367,117.176,86.75,117.219L86.75,117.219z M30.231,117.934c0.64,0,1.16,0.52,1.16,1.16
c0,0.64-0.52,1.16-1.16,1.16c-0.641,0-1.164-0.52-1.164-1.16C29.067,118.454,29.59,117.934,30.231,117.934L30.231,117.934z
M91.176,118.355l1.875,2.012l-0.168,0.203L91.176,118.355z M151.875,118.805v3.488l-5.781,5.344v-3.191L151.875,118.805z
M87.102,119.824l0.703,0.965l1.191-0.074l-0.175,1.137l0.632,0.465l-0.617,0.863l-0.051,1.09l-0.984-0.234l-0.809,0.969
l-0.793-0.93l-0.933,0.109l0.031-1.133l-0.953-0.543l0.676-0.734l0.019-1.27l1.387-0.051L87.102,119.824z M115.715,119.895
l0.578,1.762l-14.461,9.41l-1.262-1.453L115.715,119.895z M77.86,121.074l1.148,0.867l-15.18,9.758l-0.457-1.27L77.86,121.074z
M33.461,120.699v2.902l-6.402,6.168v-2.996L33.461,120.699z M93.566,121.395l0.188-0.152l4.961,4.766l-0.938,0.999L93.566,121.395z
M79.86,122.793l0.136,28.148l-1.324-0.914l0.102-26.708L79.86,122.793z M80.676,123.445l1.078,0.949l-1.031,1.008L80.676,123.445z
M151.875,123.203v2.855l-5.781,5.491v-2.983L151.875,123.203z M33.461,124.574v2.683l-6.402,6.121v-2.71L33.461,124.574z
M93.141,124.941c-0.168-0.004-0.348,0.105-0.608,0.309c-0.238,0.188-0.82,0.594-1.294,0.902c-1.742,1.129-3.218,2.191-3.285,2.348
c-0.132,0.324,1.614,2.605,4.043,5.339c0.953,1.075,0.926,1.282,1.883,0.325c0.762-0.864,3.551-3.227,3.469-3.859
c-0.152-0.727-1.113-1.552-3.492-4.77C93.539,125.129,93.352,124.945,93.141,124.941L93.141,124.941z M82.387,125.234l3.805,5.45
l-0.508,0.504l-4.668-4.605L82.387,125.234z M74.946,125.879l0.007,26.262l-7.144,5.073c0.129,0.071-0.879-15.776-3.61-24.229
L74.946,125.879z M92.719,126.805l0.699,1.305l1.059-0.18l-0.137,1.202l0.895,0.703l-0.883,1.224l0.117,0.867l-1.039-0.234
l-0.945,0.978l-0.651-1.247l-1.362,0.023l0.19-1.194l-0.954-0.801l1.04-0.617l0.146-1.09l0.895,0.077L92.719,126.805z
M98.918,127.007l0.117,1.071l-0.637-0.551L98.918,127.007z M80.649,128.914l-0.008-1.536l4.555,4.396l-4.653,4.363l0.031-2.074
l2.649-2.52L80.649,128.914z M118.305,128.063l0.646,1.957l-9.359,5.767l-1.887-0.979L118.305,128.063z M149.141,131.301
c0.642,0,1.164,0.52,1.164,1.159c0,0.642-0.522,1.165-1.164,1.165c-0.641,0-1.16-0.523-1.16-1.165
C147.98,131.82,148.5,131.301,149.141,131.301L149.141,131.301z M89.567,135.078l-3.289-3.293l0.414-0.45L89.567,135.078z
M98.039,132.117c-1.113,0.953-3.492,3.703-3.488,4.156s3.293,3.297,5.27,4.559c0.621,0.395,0.871,0.406,1.109,0.046
c3.418-5.104,3.563-4.933,2.211-5.929c-1.375-1.051-2.983-2.617-4.082-3.156C98.598,131.566,98.516,131.707,98.039,132.117
L98.039,132.117z M85.715,132.367l5.418,5.199l-5.027,4.848l-5.215-5.504L85.715,132.367z M30.36,132.757
c0.64,0,1.16,0.521,1.16,1.164c0,0.642-0.52,1.161-1.16,1.161c-0.641,0-1.161-0.52-1.161-1.161
C29.199,133.277,29.719,132.757,30.36,132.757L30.36,132.757z M98.855,133.805l0.914,0.813l1.086-0.285l0.246,1.073l1.047,0.388
l-0.563,1.095l0.078,1.379l-1.056-0.199l-0.733,1.129l-1.074-1.078l-1.227,0.102l0.065-1.203l-1.086-0.527l0.688-0.788l-0.431-1.087
l1.301,0.207L98.855,133.805z M150.684,134.289c0.642,0,1.16,0.52,1.16,1.16c0,0.64-0.52,1.16-1.16,1.16
c-0.64,0-1.164-0.521-1.164-1.16C149.52,134.809,150.043,134.289,150.684,134.289L150.684,134.289z M82.867,137.027l3.207,3.285
l2.954-2.832l-3.129-3.306L82.867,137.027z M147.484,134.332c0.641,0,1.16,0.52,1.16,1.164c0,0.641-0.521,1.164-1.16,1.164
c-0.646,0-1.164-0.523-1.164-1.164C146.32,134.852,146.84,134.332,147.484,134.332L147.484,134.332z M28.758,135.543
c0.645,0,1.164,0.523,1.164,1.164s-0.519,1.16-1.164,1.16c-0.641,0-1.16-0.52-1.16-1.16S28.117,135.543,28.758,135.543
L28.758,135.543z M32.16,135.555c0.645,0,1.164,0.523,1.164,1.164s-0.519,1.159-1.164,1.159c-0.64,0-1.16-0.519-1.16-1.159
C31,136.079,31.52,135.555,32.16,135.555L32.16,135.555z M85.91,135.813l1.461,1.508l-1.351,1.427l-1.508-1.556L85.91,135.813z
M105.746,136.848c-0.75,0.534-2.781,4.383-3.129,5.228c0.004,0.206,0.98,0.823,2.203,1.397c1.043,0.484,4.426,1.844,4.738,1.918
c0.68,0.168,0.797-0.095,0.909-0.535c0.063-0.233,0.328-1.129,0.63-2.103c1.047-3.401,1.362-3.241-0.195-3.761
c-0.539-0.176-2.228-0.746-3.289-1.239C106.559,137.27,106.082,136.839,105.746,136.848L105.746,136.848z M149.047,137.46
c0.641,0,1.164,0.521,1.164,1.165c0,0.641-0.523,1.164-1.164,1.164c-0.645,0-1.164-0.523-1.164-1.164
C147.883,137.98,148.402,137.46,149.047,137.46L149.047,137.46z M93.598,139.055l0.185,22.832l-1.789-1.398l-0.048-22.905
L93.598,139.055z M85.61,142.945l-4.934,5.019l-0.031-2.554l2.761-2.5l-2.812-2.941l0.059-1.977
C82.453,139.464,83.989,141.273,85.61,142.945L85.61,142.945z M30.336,138.566c0.645,0,1.164,0.519,1.164,1.16
c0,0.641-0.519,1.164-1.164,1.164c-0.64,0-1.164-0.523-1.164-1.164C29.172,139.085,29.696,138.566,30.336,138.566L30.336,138.566z
M106.453,138.516l0.992,0.832l0.836-0.5l0.477,0.853l1.199,0.168l-0.539,1.304l0.703,1.01l-1.168,0.215l-0.289,1.391l-1.145-0.68
l-0.867,0.375l-0.633-1.176l-1.353-0.056l0.737-1.28l-0.694-1.013l0.979-0.065L106.453,138.516z M91.23,138.609l-0.008,2.012
l-2.149,2.175l2.157,2.345l-0.013,2.34l-4.461-4.539L91.23,138.609z M114.113,139.93c-0.449,0.016-0.453,0.488-0.801,2.03
c-0.074,0.336-0.313,1.235-0.527,1.997c-0.648,2.313-0.73,2.355,1.273,2.753c1.164,0.172,6.188,1.345,6.289,0.543
c0.129-1.362,0.211-4.565,0.227-5.651c0.043-0.367-0.043-0.711-0.406-0.754C117.879,140.574,115.328,139.973,114.113,139.93
L114.113,139.93z M94.535,140.027c2.855,1.949,5.617,3.933,8.898,5.711l0.082,23.476l-9-6.698L94.535,140.027z M151.805,140.094
v2.879l-5.996,5.728v-2.75L151.805,140.094z M116.668,141.094l0.52,1.113l1.095-0.363l-0.009,1.332l0.978,0.613l-1.176,0.543
l-0.104,1.617l-1.188-0.367l-0.98,0.605l-0.866-0.91l-1.063-0.021l0.392-1.438l-0.688-0.659l0.995-0.489l0.082-1.283l1.066,0.641
L116.668,141.094z M33.59,140.878v2.778l-6.531,6.008v-2.426L33.59,140.878z M124.844,142.617l1.465,2.48l-0.526,1l-0.984-0.48
l-1.077,0.398l0.163-1.324l-0.832-0.66l0.845-0.774l-0.039-0.972L124.844,142.617z M86.168,143.438l5.008,5.188l-5.102,5.267
l-5.003-5.264L86.168,143.438z M151.805,146.684l-5.996,5.569v-2.707l5.996-5.687V146.684z M33.59,144.418v2.707l-6.531,6.117
v-2.508L33.59,144.418z M86.184,145.387l-3.254,3.215l3.226,3.237l3.258-3.155L86.184,145.387z M86.227,147.23l1.39,1.43
l-1.328,1.383l-1.437-1.398L86.227,147.23z M80.645,149.207l4.961,5.098l-0.571,0.672l-4.398-3.418L80.645,149.207z M91.297,149.621
l0.133,2.3l-2.707,2.31l2.472,2.599l0.066,2.386l-4.703-4.843L91.297,149.621z M149.137,151.957c0.641,0,1.16,0.516,1.16,1.16
c0,0.64-0.52,1.16-1.16,1.16c-0.64,0-1.16-0.521-1.16-1.16C147.977,152.473,148.496,151.957,149.137,151.957L149.137,151.957z
M30.477,153.359c0.644,0,1.16,0.519,1.16,1.16c0,0.641-0.516,1.164-1.16,1.164c-0.641,0-1.16-0.523-1.16-1.164
C29.317,153.878,29.836,153.359,30.477,153.359L30.477,153.359z M54.242,154.07l-3.66,5.476l2.887,1.935l-2.734,3.676l2.843,3.419
l-2.863,2.456l2.906,4.973c-1.156-0.229-2.332-1-3.394-1.529l-2.192-4.168l2.52-2.168L48,165.171l2.68-3.179l-2.688-1.887
l2.934-4.508L54.242,154.07z M150.523,154.801c0.641,0,1.16,0.52,1.16,1.159c0,0.642-0.521,1.161-1.16,1.161
c-0.641,0-1.16-0.52-1.16-1.161C149.363,155.32,149.883,154.801,150.523,154.801L150.523,154.801z M78.492,154.71l25.277,19.485
l-0.102,2.582l-25.285-19.43l-10.738,7.578l0.097-2.759L78.492,154.71z M147.43,154.957c0.641,0,1.16,0.516,1.16,1.16
c0,0.64-0.52,1.16-1.16,1.16c-0.64,0-1.16-0.521-1.16-1.16C146.27,155.473,146.789,154.957,147.43,154.957L147.43,154.957z
M88.59,157.441l-0.266,0.051l-2.757-2.012l0.601-0.681C86.168,154.801,87.977,156.801,88.59,157.441L88.59,157.441z M32.196,156.32
c0.64,0,1.164,0.523,1.164,1.164s-0.524,1.16-1.164,1.16c-0.641,0-1.161-0.521-1.161-1.16
C31.035,156.844,31.555,156.32,32.196,156.32L32.196,156.32z M29.067,156.335c0.64,0,1.164,0.521,1.164,1.161
s-0.524,1.16-1.164,1.16c-0.641,0-1.161-0.52-1.161-1.16S28.426,156.335,29.067,156.335L29.067,156.335z M149.137,157.867
c0.641,0,1.16,0.523,1.16,1.164c0,0.645-0.52,1.16-1.16,1.16c-0.64,0-1.16-0.517-1.16-1.16
C147.977,158.391,148.496,157.867,149.137,157.867L149.137,157.867z M30.465,159.152c0.645,0,1.164,0.522,1.164,1.164
c0,0.644-0.519,1.164-1.164,1.164c-0.641,0-1.16-0.521-1.16-1.164C29.305,159.676,29.824,159.152,30.465,159.152L30.465,159.152z
M151.805,161.316v2.562l-5.668,5.497v-2.477L151.805,161.316z M75.285,162.085c0.844-0.007,1.973,0.036,3.496,0.086
c1.301,0.048,2.739,0.075,3.196,0.063c1.801-0.051,2.39,0.562,2.422,2.512c0.031,1.73,0.023,1.723,2.289,1.82
c2.73,0.113,3.453,0.812,3.488,3.394c0.016,1.004,0.828,1.399,2.418,1.172c2.504-0.354,2.992-0.011,3.285,2.317
c0.242,1.945,0.109,1.844,2.406,1.828c2.469-0.016,3.023,0.396,3.051,2.297c0.016,1.105,0.285,1.438,1.238,1.523
c1.023,0.09,1.461,0.611,0.957,1.133c-0.09,0.094-0.563,0.15-1.309,0.164c-1.574,0.022-2.095-0.475-2.388-2.277
c-0.203-1.25-0.328-1.317-2.422-1.258c-2.668,0.074-2.879-0.086-3.168-2.418c-0.246-2-0.582-2.203-2.879-1.771
c-1.668,0.316-2.55-0.421-2.77-2.296c-0.242-2.108-0.336-2.188-2.703-2.271c-2.371-0.086-3.031-0.5-3.055-1.926
c-0.031-2.211-0.309-2.41-3.226-2.324c-1.415,0.043-2.864,0.021-3.7-0.065c-1.765-0.185-1.758-0.19-1.933,1.504
c-0.262,2.539-0.633,2.771-3.989,2.522c-1.402-0.103-1.5-0.039-1.597,1.027c-0.121,1.336-0.614,2.159-0.992,1.656
c-0.2-0.266-0.204-0.29,0-2.243c0.222-2.187,0.246-2.202,3.097-1.983c1.93,0.147,1.836,0.219,2.043-1.535
C72.797,162.602,72.758,162.109,75.285,162.085L75.285,162.085z M33.684,161.887v2.813l-6.625,6.151v-2.727L33.684,161.887z
M54.266,165.191l1.441,1.969l-0.468,3.664l-1.223,0.922l0.867,1.738l-0.277,2.141l-0.344,0.195l-2.406-4.668l2.847-2.504
l-2.918-3.561l2.754-3.714l-2.859-2.008l3.437-5.063c0.594-0.723,0.629,2.148,0.629,2.148l-1.422,2.156l1.59,1.375h0.004l0.008,3.41
L54.266,165.191z M56.086,163.535l0.153-4.594l-1.243-0.961l0.961-1.594l-0.066-4.066l-0.289-0.199
c-2.387-29.117-16.645-46.324-18.875-50.227c0,0-0.496-0.395-0.403-1.398c0.04-0.434,0.059-3,0.04-5.703
c-0.09-13.801,0.027-23.258,0.027-23.258L25.91,60.367l0.063,4.086l0.516,0.371l-0.004,18.609l-0.434,0.023
c0,0-0.137,5.004-0.102,8.438l0.625,0.02l-0.039,12.785l-0.531,0.063l0.031,8.285h0.579c0,0,0.132,8.684-0.075,12.91l-0.429,0.023
l0.031,8.232l0.488,0.039l0.031,11.777l-0.601,0.091l0.164,7.772l0.488,0.026c0.176,4.806,0.094,13.11,0.094,13.11l-0.563,0.027
l0.141,7.719l0.402,0.027l-0.117,13.551l-0.367,0.043l0.141,8.004l0.394,0.035l-0.066,6.655l-0.274,0.048l-0.062,2.486l0.289,0.661
l0.019,8.866l-0.222,0.098l-0.063,4.454l16.25-16.431l-5.984-0.18l0.004-5.309c0.004-8.766,0.121-15.836-0.141-24.387
c-0.078-0.074-0.672-0.168-1.32-0.207c-3.082-0.18-3.918-0.43-3.926-1.168c-0.016-0.914,1.383-2.047,2.539-2.063
c0.262-0.004,0.703-0.265,0.703-0.265l-0.371-97.234l-7.273-7.617l0.031-2.418l8.961,9.484l0.336,97.184l0.34-0.156l0.023-32.642
c4.594,6.868,7.168,13.673,9.723,20.481c0,0,0.902-0.313,0.941-0.332c0.004-0.008-0.324-0.114-0.324-0.114
c-2.605-8.698-5.902-15.003-10.18-21.585l0.063-31.633c10.949,15.465,16.242,29.375,18.441,49.422l-5.539,2.766l-0.539,0.719
l-4.184,2.094l-0.402-0.668l-2.539,1.759c1.961,3.418,1.891,8.332,0.293,10.938l0.684,0.426c0.05,0.19,2.632-5.32-0.258-10.926
l1.89-1.164c2.727,5.637,1.461,11.707,0.176,13.271c0,0,1.977,1.26,3.395,2.027c1.543,0.836,2.91,1.602,4.761,2.199
c1.137,0.465,1.86-0.082,1.856-0.094l0.555-3.145l-0.879-1.203l1.023-0.825l0.469-4.815l-1.102-1.113L56.086,163.535z
M151.805,164.82v3.101l-5.668,5.375v-3.054L151.805,164.82z M33.684,168.145l-6.625,6.082v-2.531l6.625-6.219V168.145z
M149.551,172.281c0.645,0,1.164,0.523,1.164,1.164c0,0.64-0.52,1.16-1.164,1.16c-0.641,0-1.16-0.521-1.16-1.16
C148.391,172.805,148.91,172.281,149.551,172.281L149.551,172.281z M36.328,174.16l0.008,28.645l-1.75,0.004l0.082-28.996
L36.328,174.16z M30.477,173.902c0.644,0,1.16,0.516,1.16,1.16c0,0.641-0.516,1.16-1.16,1.16c-0.641,0-1.16-0.521-1.16-1.16
C29.317,174.418,29.836,173.902,30.477,173.902L30.477,173.902z M147.898,175.007c0.645,0,1.16,0.521,1.16,1.161
s-0.517,1.164-1.16,1.164c-0.642,0-1.164-0.523-1.164-1.164S147.258,175.007,147.898,175.007L147.898,175.007z M151.027,175.059
c0.645,0,1.16,0.521,1.16,1.16c0,0.641-0.517,1.159-1.16,1.159c-0.642,0-1.164-0.519-1.164-1.159
C149.863,175.579,150.387,175.059,151.027,175.059L151.027,175.059z M32.289,176.8c0.645,0,1.168,0.524,1.168,1.164
c0,0.646-0.523,1.161-1.168,1.161c-0.64,0-1.16-0.516-1.16-1.161C31.129,177.324,31.649,176.8,32.289,176.8L32.289,176.8z
M92.098,176.835c6.051,0.75,4.449,7.099,1.896,8.418c-3.474,1.618-6.253-1.64-4.035-4.944c1.629-2.422,4.724-0.82,3.526,1.836
c-0.676,1.496-2.069,1.319-2.059-0.19c0.5-1.438,0.043-0.927-0.348-0.418c-1.222,1.593,1.246,3.28,2.516,1.711
c0.777-0.966,0.941-2.108,0.676-3.026c-0.457-1.564-2.262-2.478-4.301-1.027c-2.441,2.922-3.746,6.707-4.465,10.939
c-1.535,9.014-1.613,18.493-2.93,20.899l-1.433-0.035c2.086-10.313,2.098-19.142,4.32-27.271
C86.563,179.695,89.371,176.828,92.098,176.835L92.098,176.835z M29.117,176.887c0.641,0,1.161,0.523,1.161,1.164
s-0.52,1.159-1.161,1.159c-0.64,0-1.16-0.519-1.16-1.159C27.957,177.411,28.477,176.887,29.117,176.887L29.117,176.887z
M53.672,177.043c-1.598,0.035-3.215,1.355-3.094,3.042c0.153,2.052,1.368,2.966,3.368,2.759c1.066-0.109,1.039-0.13,1.757,1.159
c0.649,1.161,2.356,6.11,2.368,6.86c-0.821-1.09-2.739-3.113-4.504-3.028c-1.903,0.138-3.5,1.938-2.063,4.485
c0.762,1.25,2.121,1.496,3.5,1.082c2.067,3.215,2.457,6.433,3.113,10.172c0,0,0.817-7.996,1.063-11.188
c0.469-4.888,1.137-8.056,3.031-11.931c-1.578-0.911-3.269-1.625-4.965-2.276c-0.675-0.263-1.386-0.267-2.054-0.703
C54.731,177.168,54.203,177.035,53.672,177.043L53.672,177.043z M149.68,177.695c0.641,0,1.16,0.519,1.16,1.16
c0,0.645-0.52,1.164-1.16,1.164c-0.64,0-1.16-0.521-1.16-1.164C148.52,178.214,149.039,177.695,149.68,177.695L149.68,177.695z
M56.942,180.262c1.195,1.941,2.359,4.745,2.464,6.512c0.04,1.172-0.191,2.604-0.39,3.949c-0.098,0.659-0.348,0.016-0.801-1.418
c-1.883-5.949-2.379-7.086-3.687-6.789c-0.743,0.168-1.516,0.194-2.024-0.082c-1.656-0.914-1.808-3.979,0.61-4.565
C55.028,177.453,56.258,179.148,56.942,180.262L56.942,180.262z M56.899,178.781c2.41,0.949,3.949,2.383,3.511,4.711
c-0.195,0.879-0.324,1.602-0.558,1.508c-0.274-0.109-0.645-1.161-1.395-2.969C58.289,181.445,56.571,178.793,56.899,178.781
L56.899,178.781z M96.805,178.882c0.125-0.019,0.324,0.103,0.598,0.356c1.902,1.871,0.871,6.094-1.659,7.308
c-1.043,0.716-2.961,0.599-2.974-0.093c-0.004-0.27,0.06-0.344,0.324-0.348c2.129,0.016,4.395-2.945,3.766-6.1
C96.785,179.535,96.641,178.906,96.805,178.882L96.805,178.882z M30.528,179.91c0.64,0,1.16,0.516,1.16,1.16
c0,0.64-0.52,1.164-1.16,1.164c-0.641,0-1.164-0.524-1.164-1.164C29.364,180.426,29.887,179.91,30.528,179.91L30.528,179.91z
M98.801,180.266c0.133-0.02,0.598,0.176,0.902,0.547c1.789,2.156,0.336,5.836-2.48,7.094c-1.074,0.582-1.979,0.18-1.75-0.418
c1.918-0.793,3.728-2.852,3.535-5.668C98.938,180.832,98.605,180.293,98.801,180.266L98.801,180.266z M60.836,180.656l0.653,0.308
l-0.27,0.567C61.094,181.191,61.098,181.063,60.836,180.656L60.836,180.656z M100.84,180.891c0.141-0.004,0.461-0.052,0.762,0.241
c1.16,1.125,1.344,4.282,0.23,5.841c-0.523,0.73-2.141,2.059-2.625,2.195c-0.563,0.066-0.953,0.152-1.891-0.273
c-0.313-0.013,0.141-0.31,0.733-0.647c2.095-1.211,3.484-3.371,3.121-5.397C100.945,181.594,100.566,180.898,100.84,180.891
L100.84,180.891z M102.961,181.91c0.559,0.047,0.988,0.535,1.25,0.949c1.379,1.976,0.234,6.133-2.582,6.996
c-1.879,0.574-2.574,0.031-1.059-0.855c2.184-1.273,3.316-3.762,2.684-5.734C102.953,182.32,102.668,181.93,102.961,181.91
L102.961,181.91z M105.234,183.355c0.656,0.008,1.164,0.512,1.395,1.031c0.543,1.276,0.461,3.065-0.25,4.322
c-0.703,1.254-2.055,2.297-3.555,2.45c-0.391,0.038-0.73-0.021-1.027-0.147c-0.656-0.285-0.43-0.324,0.809-0.974
c1.978-1.036,3.146-3.185,2.845-5.556C105.336,183.594,104.98,183.359,105.234,183.355L105.234,183.355z M33.684,182.921v3.067
l-6.449,6.086v-2.992L33.684,182.921z M88.473,183.32c0.121,0.129,0.851,1.867,0.941,2.226c-1.511,2.173-1.937,5.735-2.172,8.438
c-0.851,7.652-1.738,16.894-2.125,16.979l-1.679,0.039c0.64,0.428,1.461-12.693,2.761-21.003
C86.301,189.348,87.696,182.934,88.473,183.32L88.473,183.32z M107.977,184.675c2.215,1.5,1.035,6.181-2.047,7.337
c-1.117,0.43-1.527,0.484-2.035-0.009c-0.315-0.308-0.621-0.414,0.191-0.702c2.277-0.594,3.883-2.719,3.5-5.188
C107.539,185.512,106.977,183.925,107.977,184.675L107.977,184.675z M123.324,185.074c2.621,3.117,4.473,7.816,5.102,11.191
c0.297,1.688,0.453,3.272,0.316,3.647c-0.242,0.668-0.617,0.534-0.848-0.259c-2.142-10.25-13.355-10.594-16.879-1.875
c-3.224,8.391,5.809,15.977,12.563,10.496c0.941-0.771,1.266-1.03,1.535-0.719c0.176,0.207-0.262,0.805-1.102,1.5
c-7.695,7.125-0.802,15.405,6.469,14.991c8.612-0.487,11.555-10.754,4.383-15.761c-0.473-0.371-0.773-0.52-0.746-0.782
c0.055-0.547,0.441-0.468,1.316,0.267c6.926,6.181,15.491-0.512,14.258-7.733c-2.103-12.267-15.646-9.172-17.715-0.591
c-0.332,1.059-0.896,1.216-0.91,0.212c-0.008-0.688,0.074-1.492,0.233-2.371c0.527-4.806,5.298-12.216,5.298-12.216h-13.273V185.074
z M90.063,185.973l1.007,0.648c-1.084,3.238-1.487,7.059-1.933,10.754c-0.535,4.473-1.008,9.078-1.66,13.469l-1.543,0.055
c0.805-2.715,1.176-10.293,1.972-16.646C88.371,191.039,88.879,186.621,90.063,185.973L90.063,185.973z M91.813,187.031l1.289,0.746
c-0.453,1.808-0.996,3.789-1.262,5.683c-0.594,4.215-0.824,9.329-2.191,17.196l-1.395,0.117c0.352-2.527,1.016-8.152,1.586-13.332
C90.496,191.43,91.531,186.887,91.813,187.031L91.813,187.031z M33.684,186.828v3.007l-6.449,5.938v-2.771L33.684,186.828z
M93.996,187.98c0,0,1.109,0.629,1.25,0.699c-0.836,3.319-1.246,6.408-1.66,9.418c-0.559,4.063-0.973,8.012-1.742,12.473
l-1.488,0.094c0.742-3.422,1.59-11.461,2.258-17.129C93,190.242,93.801,187.918,93.996,187.98L93.996,187.98z M58.496,194.742
c0.02,2.265-0.476,5.785-0.476,5.785c-0.196,0.109-0.805-5.152-2.93-7.531c-2.59,1.23-4.824-1.661-3.059-3.648
C55.481,186.382,58.496,192.714,58.496,194.742L58.496,194.742z M95.938,188.887l1.801,0.832c-0.219-0.039-0.645,1.202-1.059,3.141
c-1.262,5.897-2.516,17.527-2.723,17.522l-1.387,0.114c0.449-3.121,1.066-8.059,1.715-12.422
C95.02,193.128,95.703,188.914,95.938,188.887L95.938,188.887z M98.441,190.02l1.371,0.819c-0.121-0.086-0.613,1.38-0.855,2.399
c-1.234,5.887-1.789,11.047-2.551,16.754l-1.492,0.195c-0.113,0.164,1.285-11.234,2.441-16.992
C97.75,191.227,98.332,189.953,98.441,190.02L98.441,190.02z M100.578,191.043l1.465,0.723c-1.594,4.516-1.742,8.836-3.27,17.902
l-1.551,0.281c0.62-5.805,1.508-12.035,2.78-17.715C100.18,191.469,100.563,191.059,100.578,191.043L100.578,191.043z
M162.422,191.262c1.234,1.698,1.945,3.926,2.168,5.969c0.066,0.699,0.012,1.168-0.215,1.172c-0.188,0.004-0.285-0.146-0.449-0.723
c-0.844-4.352-6.375-4.555-7.711-0.586c-1.5,3.863,2.293,7.105,5.297,5.418c0.98-0.613,3.227-1.973,1.027,0.163
c-0.828,0.845-1.59,1.755-1.66,2.685c-0.227,2.992,1.738,4.918,4.039,5.104c2.574,0.216,4.359-1.616,4.441-4.077
c0.039-1.324-0.586-2.824-1.805-3.988c-1.156-1.103-1.234-1.521-0.066-0.758c1.289,0.84,2.684,1.496,3.772,1.277
c5.212-1.051,4.109-7.977-0.397-8.418c-1.66-0.137-3.285,0.848-4.098,2.898c-0.789,1.852-0.97,1.219-0.66-0.117
c0.547-2.184,1.27-4.238,2.641-6.02H162.422L162.422,191.262z M102.676,192.102l1.652,0.664l-3.457,16.641l-1.395,0.189
c0.866-4.799,1.315-10.345,2.487-14.717C102.211,193.949,102.352,192.91,102.676,192.102L102.676,192.102z M30.774,194.738
c0.64,0,1.164,0.519,1.164,1.16c0,0.641-0.524,1.16-1.164,1.16c-0.641,0-1.16-0.521-1.16-1.16
C29.614,195.257,30.133,194.738,30.774,194.738L30.774,194.738z M32.289,197.46c0.645,0,1.168,0.524,1.168,1.165
s-0.523,1.16-1.168,1.16c-0.64,0-1.16-0.52-1.16-1.16S31.649,197.46,32.289,197.46L32.289,197.46z M29.27,197.535
c0.64,0,1.164,0.515,1.164,1.16c0,0.64-0.524,1.164-1.164,1.164c-0.645,0-1.164-0.524-1.164-1.164
C28.106,198.05,28.625,197.535,29.27,197.535L29.27,197.535z M30.715,200.21c0.645,0,1.164,0.524,1.164,1.165
s-0.519,1.16-1.164,1.16c-0.641,0-1.164-0.52-1.164-1.16S30.074,200.21,30.715,200.21L30.715,200.21z M41.219,204.089l-13.926,14.11
l-0.043-2.821l9.547-9.375l-9.621-0.144l0.023-1.91L41.219,204.089z M34.836,206.777l-7.461,7.125l-0.063-7.242L34.836,206.777z
M42.809,207.301c0,0-0.039,0.258,0.66,1.484c2.035,3.539,2.504,6.809,4.305,10.602c0.898,2.077,2.914,4.172,3.363,4.288
l-2.238,4.103l63.25-0.129l-10.125-17.676c-16.07,2.973-30.507,2.452-44.082,0.073c-0.778,1.048-1.629,3.173-2.446,4.711
C53.469,209.305,46.985,205.785,42.809,207.301L42.809,207.301z M45.11,207.773c3.343-0.047,6.129,1.543,8.601,4.914
c0.789,1.068,1.094,1.559,1.09,2.008c-0.082,0.519-1.117,2.187-1.117,2.187s-0.602-1.651-0.746-2.456
c-0.899,3.313-1.254-0.523-1.602-1.535c-1.097,3.194-1.687-1.199-1.633-2.384c-1.492,2.052-1.394-1.315-2.121-1.94
c-0.019,1.772-1.063,0.56-2.418,0.181c0.707,0.991,2.086,1.659,0.328,1.879c1.754,1.214,2.633,1.026,0.93,1.694
c1.313,0.727,3.477,1.599,1.086,2.074c1.461,0.922,3.809,1.31,1.281,2.188c1.91,1.168,4.45,1.086,0.879,2.022
c1.293,0.758,3.574,1.039,1.024,1.699c0.394,0.176,1.078,0.633,1.078,0.633l-1.106,1.742c0,0-0.398-0.031-0.668-0.316
c-1.172-1.223-2.312-3.473-3.332-6.629c-0.75-2.319-1.644-4.773-2.629-6.81C43.5,207.852,43.551,207.796,45.11,207.773
L45.11,207.773z M101.598,211.753l8.742,14.957l-2.074,0.032l-7.715-12.805l-10.414,1.176l3.429,11.449l-3.094,0.086l-3.074-11.268
c-5.813,0.239-11.36,0.303-16.192-0.086l-1.64,11.428l-2.953-0.103l1.871-11.31l-9.77-1.25l-5.301,12.685l-3.054,0.06
c1.972-3.32,6.89-14.056,7.808-15.113C79.453,215.102,90.508,213.262,101.598,211.753L101.598,211.753z M159.18,221.77v14.862
h-2.516v2.896h8.273v-2.896h-2.773c-0.016-5.077-0.008-10.155,0-15.237c-0.141-7.047,7.68-5.828,7.777-1.668l0.022,2.448h2.772
c0,0,0.091-0.058,0.039-2.034c-0.03-4.746-2.547-6.647-6.659-6.609C159.637,213.863,158.988,219.023,159.18,221.77L159.18,221.77z
M99.559,215.223l6.617,11.508l-10.633,0.047l-3.57-10.655L99.559,215.223z M59.778,215.559c2.097,0.612,4.355,0.746,6.628,0.828
l-1.933,10.297l-9.422-0.02L59.778,215.559z M86.297,216.77l2.5,10l-17.734,0.09l1.461-9.965
C77.18,217.171,81.727,216.914,86.297,216.77L86.297,216.77z"/>
</svg>
