<?xml version="1.0" encoding="utf-8"?>
<!DOCTYPE svg PUBLIC "-//W3C//DTD SVG 1.1//EN" "http://www.w3.org/Graphics/SVG/1.1/DTD/svg11.dtd" [
<!ENTITY ns_svg "http://www.w3.org/2000/svg">
<!ENTITY ns_xlink "http://www.w3.org/1999/xlink">
]>
<svg version="1.1" id="Layer_1" xmlns="&ns_svg;" xmlns:xlink="&ns_xlink;" width="179.379" height="250.246"
viewBox="0 0 179.379 250.246" overflow="visible" enable-background="new 0 0 179.379 250.246" xml:space="preserve">
<path fill="#FFFFFF" d="M8.903,0.398h161.574c4.711,0,8.504,3.793,8.504,8.504v232.441c0,4.711-3.793,8.504-8.504,8.504H8.903
c-4.711,0-8.504-3.793-8.504-8.504V8.902C0.399,4.191,4.192,0.398,8.903,0.398L8.903,0.398z M8.903,0.398"/>
<path fill="none" stroke="#000000" stroke-width="0.7974" d="M8.903,0.398h161.574c4.711,0,8.504,3.793,8.504,8.504v232.441
c0,4.711-3.793,8.504-8.504,8.504H8.903c-4.711,0-8.504-3.793-8.504-8.504V8.902C0.399,4.191,4.192,0.398,8.903,0.398L8.903,0.398z
M8.903,0.398"/>
<path d="M7,30.43l2.578-0.023c0.489,1.559,1.578,3.141,3.055,3.582c4.168,0.977,6.852-1.352,7.738-4.039
c1.071-3.258-0.027-7.836-2.894-9.461c-2.383-1.352-5.918-0.211-7.539,2.668l-1.805-1.102l0.969-10.738h11.785v2.539h-9.551
l-0.152,4.473c2.055-1.441,5.215-1.43,7.269-0.418c3.891,1.855,5.7,6.074,4.942,11.051c-1.047,4.945-3.356,7.746-8.574,8.152
C9.028,37.16,6.977,33.176,7,30.43L7,30.43z M7,30.43"/>
<path d="M172.496,219.82l-2.574,0.019c-0.492-1.554-1.578-3.14-3.055-3.577c-4.168-0.977-6.852,1.352-7.738,4.038
c-1.07,3.259,0.023,7.837,2.895,9.462c2.383,1.348,5.918,0.211,7.539-2.673l1.805,1.106l-0.969,10.738h-11.785v-2.539h9.551
l0.148-4.474c-2.051,1.442-5.215,1.431-7.266,0.418c-3.895-1.854-5.699-6.073-4.941-11.05c1.047-4.945,3.355-7.75,8.57-8.152
C170.473,213.085,172.52,217.07,172.496,219.82L172.496,219.82z M172.496,219.82"/>
<path d="M83.813,148c2.304-4.618,3.98-9.359,4.277-14.43c0.274-1.863-0.859-1.895-1.031-0.582
c-3.258,12.476-20.61,9.097-20.012-2.637c0.484-9.516,9.934-11.563,14.867-8.453c1.946,1.148,1.836,0.461,0.774-0.727
c-7.324-8.172-2.891-18.691,7.008-18.883c10.703,0.633,13.48,11.895,6.914,18.52c-0.816,0.793-2.625,3.352,0.102,1.563
c6.629-4.711,15.828,0.355,15.641,7.617c-0.348,13.39-16.672,14.39-20.164,3.207c-0.336-1.242-1.301-1.863-1.035,0.242
C91.637,137.25,92.637,143,95.504,148H83.813z M83.813,148"/>
<path d="M123.207,68.59c2.301-4.617,3.98-9.359,4.277-14.43c0.273-1.863-0.859-1.895-1.031-0.582
c-3.262,12.477-20.609,9.098-20.012-2.637c0.484-9.516,9.934-11.563,14.863-8.453c1.949,1.148,1.84,0.461,0.777-0.727
c-7.324-8.172-2.891-18.691,7.008-18.883c10.703,0.633,13.48,11.895,6.914,18.52c-0.816,0.793-2.625,3.352,0.102,1.563
c6.629-4.707,15.828,0.355,15.641,7.617c-0.348,13.391-16.672,14.391-20.164,3.207c-0.336-1.242-1.301-1.863-1.035,0.242
c0.484,3.813,1.484,9.563,4.352,14.563H123.207z M123.207,68.59"/>
<path d="M44.262,68.59c2.305-4.617,3.98-9.359,4.277-14.43c0.274-1.863-0.859-1.895-1.031-0.582
c-3.258,12.477-20.609,9.098-20.012-2.637c0.485-9.516,9.934-11.563,14.868-8.453c1.945,1.148,1.835,0.461,0.773-0.727
c-7.324-8.172-2.891-18.691,7.008-18.883c10.703,0.633,13.48,11.895,6.914,18.52c-0.817,0.793-2.625,3.352,0.101,1.563
c6.629-4.707,15.829,0.355,15.641,7.617c-0.348,13.391-16.672,14.391-20.164,3.207c-0.336-1.242-1.301-1.863-1.035,0.242
c0.484,3.813,1.484,9.563,4.351,14.563H44.262z M44.262,68.59"/>
<path d="M134.969,180.199c-2.305,4.621-3.98,9.363-4.277,14.429c-0.273,1.868,0.859,1.899,1.027,0.582
c3.262-12.472,20.613-9.093,20.016,2.642c-0.484,9.516-9.938,11.563-14.867,8.448c-1.945-1.144-1.836-0.461-0.773,0.731
c7.324,8.168,2.887,18.688-7.008,18.883c-10.703-0.637-13.48-11.898-6.918-18.52c0.816-0.797,2.629-3.355-0.098-1.566
c-6.629,4.711-15.828-0.352-15.641-7.618c0.344-13.39,16.672-14.386,20.16-3.203c0.336,1.239,1.305,1.864,1.039-0.241
c-0.484-3.816-1.488-9.563-4.352-14.566H134.969z M134.969,180.199"/>
<path d="M56.024,180.199c-2.305,4.621-3.981,9.363-4.278,14.429c-0.273,1.868,0.86,1.899,1.028,0.582
c3.261-12.472,20.613-9.093,20.015,2.642c-0.484,9.516-9.937,11.563-14.867,8.448c-1.945-1.144-1.836-0.461-0.773,0.731
c7.324,8.168,2.886,18.688-7.008,18.883c-10.703-0.637-13.481-11.898-6.918-18.52c0.816-0.797,2.629-3.355-0.098-1.566
c-6.629,4.711-15.828-0.352-15.64-7.618c0.343-13.39,16.671-14.386,20.16-3.203c0.336,1.239,1.304,1.864,1.039-0.241
c-0.485-3.816-1.488-9.563-4.352-14.566H56.024z M56.024,180.199"/>
<path d="M11.77,60.418c0.953-1.953,1.883-3.773,2.386-5.918c0.336-2.023-0.351-1.273-0.738,0.055
c-0.578,1.836-2.179,2.672-3.664,2.695c-2.699,0.035-4.043-2.086-3.961-4.363C5.5,50.488,7.93,48.789,9.766,48.922
c1.375,0.098,2.578,0.84,3.305,1.418c0.476,0.254,0.988,0.363,0.277-0.285c-1.344-1.469-2.461-2.371-2.438-4.57
c0.024-2.063,1.786-4.215,4.125-4.148c2.918,0.086,4.25,2.313,4.243,4.387c-0.008,1.512-0.766,2.902-1.93,3.762
c-0.754,0.613-0.543,1.07,0.316,0.492c0.828-0.715,1.817-1.027,2.836-1.047c2.793-0.047,3.887,2.367,3.727,4.609
c-0.153,2.102-1.938,4.262-4.297,4.02c-2.106-0.242-3.211-2.008-3.844-3.824c-0.211-0.555-0.539-0.703-0.531,0.125
c0.484,4.043,1.992,6.563,2.004,6.559H11.77z M11.77,60.418"/>
<path d="M167.605,190.023c-0.953,1.953-1.879,3.777-2.387,5.918c-0.336,2.022,0.352,1.272,0.742-0.055
c0.574-1.837,2.176-2.673,3.664-2.695c2.695-0.035,4.043,2.086,3.957,4.363c0.293,2.402-2.137,4.098-3.969,3.969
c-1.379-0.103-2.578-0.844-3.305-1.422c-0.48-0.254-0.988-0.363-0.277,0.285c1.34,1.469,2.461,2.375,2.438,4.57
c-0.023,2.063-1.789,4.214-4.125,4.148c-2.922-0.086-4.25-2.313-4.242-4.387c0.008-1.509,0.762-2.898,1.93-3.762
c0.754-0.613,0.543-1.07-0.32-0.493c-0.828,0.716-1.813,1.028-2.836,1.052c-2.793,0.043-3.883-2.371-3.723-4.613
c0.148-2.103,1.938-4.262,4.293-4.021c2.105,0.243,3.211,2.009,3.844,3.825c0.211,0.555,0.543,0.707,0.535-0.125
c-0.488-4.043-1.996-6.563-2.004-6.559H167.605z M167.605,190.023"/>
</svg>
