<?xml version="1.0" encoding="utf-8"?>
<!DOCTYPE svg PUBLIC "-//W3C//DTD SVG 1.1//EN" "http://www.w3.org/Graphics/SVG/1.1/DTD/svg11.dtd" [
<!ENTITY ns_svg "http://www.w3.org/2000/svg">
<!ENTITY ns_xlink "http://www.w3.org/1999/xlink">
]>
<svg version="1.1" id="Layer_1" xmlns="&ns_svg;" xmlns:xlink="&ns_xlink;" width="179.379" height="250.246"
viewBox="0 0 179.379 250.246" overflow="visible" enable-background="new 0 0 179.379 250.246" xml:space="preserve">
<path fill="#FFFFFF" d="M8.903,0.398h161.574c4.711,0,8.504,3.793,8.504,8.504v232.441c0,4.711-3.793,8.504-8.504,8.504H8.903
c-4.711,0-8.504-3.793-8.504-8.504V8.902C0.399,4.191,4.192,0.398,8.903,0.398L8.903,0.398z M8.903,0.398"/>
<path fill="none" stroke="#000000" stroke-width="0.7974" d="M8.903,0.398h161.574c4.711,0,8.504,3.793,8.504,8.504v232.441
c0,4.711-3.793,8.504-8.504,8.504H8.903c-4.711,0-8.504-3.793-8.504-8.504V8.902C0.399,4.191,4.192,0.398,8.903,0.398L8.903,0.398z
M8.903,0.398"/>
<path fill="#131F67" d="M23.68,20.27c0.066,63.301,0.738,141.094,0.785,210.035l130.973-0.031l-0.871-209.699L23.68,20.27z
M62.395,21.613c22.594,0.613,45.332-0.051,68.098,0.129c0,0-8.273,14.406-10.777,18.938c-0.551,1-0.605,1.703-0.313,2.117
c0.461,0.641,0.422,1.723-0.09,2.348c-0.223,0.27-0.32,0.441-0.336,0.602c-0.02,0.16,0.125,0.336,0.242,0.625
c0.406,1.383-0.641,2.34-1.734,2.781c-0.734,0.297-2.367,0.496-3.57,0.438c-7.555-0.359-22.371-6.742-28.476-7.242
c-4.235-1.18-9.707-0.766-14.219-0.512c-0.855,0.051-0.703-1.934-0.703-1.934C69.805,33.344,65.156,27.633,62.395,21.613
L62.395,21.613z M131.719,22.211l21.352,0.023l0.098,3.449l-8.984,9.211c-0.848,0.859-1.516,1.574-1.516,1.574l-0.051,8.309
c-6.129-3.289-7.348-7.223-8.465-11.551c-10.242,7.555-10.719,24.086,0.457,32.598c0.094-3.699,2.91-10.961,7.902-11.5l0.07,28.793
l-6.141-5.996l-13.352,0.176c2.203-3.57,2.254-6.406,0.828-9.754c-2.398-5.469-6.102-17.953-5.82-17.91c0,0,0.109-0.27,0.41-0.336
c1.105-0.246,1.813-1.316,1.496-2.598c-0.063-0.414-0.059-0.316,0.223-0.855c1.086-1.852-0.207-3.863-0.207-3.863L131.719,22.211z
M60.895,22.387l8.011,14.484c0,0-0.101,0.664-0.058,1.055c0.062,0.559,0.25,1.059,0.57,1.582c0.211,0.344,0.367,0.816,0.418,1.254
c0.078,0.719,0.078,0.719,1.129,1.668c0.223,0.199,0.266,0.324,0.184,0.531c-0.348,0.879-0.145,2.676,0.543,4.824
c0.871,2.715,1.093,2.68-0.524,6.309c-0.34,0.758-0.746,1.766-1.187,2.699c-2,4.105-2.309,5.219,1.125,7.41
c0.965,0.613,1.25,1.148,1.008,2.375c-0.192,0.969-0.231,1.586,0.234,2.129c0.301,0.355,0.574,0.41,0.5,0.684
c-0.051,0.188-0.277,0.988-0.203,1.664c0.203,1.82-1.899,4.504-3.817,5.441c-0.386,0.273-0.496-0.059-0.711-0.441
c-1.988-3.48-6.937-2.07-7.265,2.082c-0.086,1.098-0.051,1.574-0.336,1.809c-0.094,0.078-0.387,0.242-0.387,0.242
s-7.402,4.816-12.113,7.289c-0.305,0.164-0.582,0.43-0.797,0.473c-0.25,0.051-0.438,0.004-0.59-0.152
c-1.738-3.305-0.777-7.211-0.629-8.594c-0.035-0.492-0.457-0.578-1.086-0.586c-1.07-0.012-2.613,1.074-2.949,2.086
c-0.285,0.859-0.465,1.414-0.723,1.41c-0.261-0.004-0.386-0.348-1.031-1.59c-1.344-2.582-1.551-2.906-2.805-4.406
c-1-1.195-1.855-1.352-2.835-0.461c-0.68,0.617-0.657,0.078-1.239-0.234c-1-0.68-2.508-0.07-2.543,0.891
c-0.031,0.805-0.039,1.41-0.855,1.461c-0.906,0.059-1.301,1.234-1.047,2.906c0.137,0.879,0.16,1.02-0.106,1.344
c-0.878,1.051-0.996,1.777-0.511,3.246c1.379,4.188,3.371,7.004,5.246,10.813c0,0-4.762,2.703-7.59,4.273l-0.074-77.898
L60.895,22.387z M153.473,26.523l0.113,67.668l-10.227-10.051c0,0-0.199-12.965-0.188-18.266c0.008-5.305,0.086-10.605,0.066-11.59
c-0.023-0.984,0.051-5.18,0.082-9.488c0.07-9.023-0.758-7.906,0.922-9.637L153.473,26.523z M133.492,34.637l0.563,1.633
c-4.285,2.457-9.527,16.137,0.098,26.184l-0.195,2.07C123.871,55.371,125.738,42.25,133.492,34.637L133.492,34.637z M134.223,36.57
c1.473,3.035,3.145,5.719,5.426,7.367c-1.227,2.93-1.754,6.168,0.324,10.527c-1.457,0.805-3.488,2.93-5.586,7.285
C126.793,54.078,128.484,42.953,134.223,36.57L134.223,36.57z M77.727,42.305c4.211,0.004,8.605,0.691,12.633,1.906
c2.539,12.84,7,21.469,6.98,26.496c0,0-0.352-0.059-1.102-0.598c-1.832-1.324-4.242-0.586-5.531,1.102
c-1.222,1.598,0.008,3.82-0.621,4.754c-1.183,1.738-4.238,4.949-4.746,4.844c-0.375-0.078-0.312-0.238,0.996-2.246
c1.36-2.09,2.406-3.984,1.957-4.449c-0.191-0.195-0.293,0.219-1.308,1.984c-2.387,4.145-4.489,6.711-5.321,6.375
c-0.386-0.156-0.187-0.5,1.582-2.832c1.996-2.637,2.551-4.289,2.352-5.016c-0.152-0.563-0.461,0.344-1.289,1.965
c-0.883,1.715-2.481,3.625-3.77,5.461c-0.41,0.664-0.933,1.047-1.605,1.352c-0.5,0.215-1.293,0.566-1.754,0.508
c-0.238-0.031-0.074-0.168,0.25-0.488c2.547-2.621,4.734-5.543,5.976-8.352c0.192-0.367-0.082-0.891-0.394-0.504
c-1.906,3.352-4.559,7.535-7.438,9.379c-0.621,0.395-1.55,0.73-2.386,0.66c-1.418-0.039-0.918-0.355,0.375-1.188
c2.761-1.773,6.64-6.879,7.265-8.684c0.149-0.426-0.015-0.668-0.289-0.641c-2.273,3.637-5.277,7.641-8.769,9.313
c-1.883,0.906-4.254,1.082-5.422,0.512c-0.856-0.418-0.641-0.563,0.875-0.66c3.652-0.359,7.93-3.789,10.051-7.414
c1.238-2.008,0.367-1.547-1.047,0.391c-2.418,3.305-7.219,6.473-10.196,6.223c-3.011-0.176-4.742-2.508-4.355-4.508
c0.234-1.211,1.094-2.445,2.777-2.797c2.883-0.605,4.77,3.961,2.129,4.824c-0.898,0.293-1.238,0.07-0.914-0.289
c1.957-0.859,1.086-3.211-0.562-3.449c-1.039-0.152-2.246,0.547-2.297,2.156c0.031,1.203,1.019,2.375,3.004,2.402
c2.347,0.035,5.953-1.656,8.14-4.773c1.555-2.379,0.125-1.574-1.035,0.012c-1.019,1.402-4.32,3.363-4.57,3.293l0.113-1.617
c0.051,0.281,5.078-3.164,4.785-5.727c-0.191-1.859,0.082-2.426,2.02-2.402c1.445,0.016,3.285,0.523,3.82,1.188
c0.551,0.656,1.172,0.863,0.895-0.242c-0.442-1.797,0.09-2.094-0.953-1.754c-0.719,0.234-1.356-0.344-2.079-0.855
c-0.789-0.563-1.793-0.801-2.992-0.758c-0.89,0.031-1.297-0.023-1.152-0.867c0.101-0.594,0.215-1.133,0.043-1.523
c-0.281-0.633-1.402-1.289-2.664-2.223c-1.496-1.098-1.219-1.164,1.965-8.496c1.336-3.082,1.34-3.711,0.539-5.988
c-1.266-3.59-1.465-5.031,0.906-5.531C74.938,42.375,76.324,42.301,77.727,42.305L77.727,42.305z M91.199,44.383l1.234,0.352
c0.008,0.004,3.844,13.133,6.043,19.543c0.668,1.957,1.18,4.602,1.309,7.082c-0.063,3.418-1.984,5.871-4.332,6.141
c-1.664,0.191-3.465-0.672-4.293-2.52c-0.695-1.762-0.172-3.836,1.836-4.551c3.473-1.238,6.016,3.191,2.609,4.555
c-1.762,0.707-3.434-0.563-2.641-2.043c0.555-1.039,2.121-0.926,2.492,0.145c0.301,1.141,0.797,0.602,0.586-0.168
c-0.645-2.465-3.809-1.883-4.063,0.383c0,2.813,3.074,3.473,4.91,1.895c1.422-1.262,1.574-3.539,1.219-5.52
c-0.488-4.105-2.816-9.434-4.465-15.516C92.82,51.125,91.625,47.508,91.199,44.383L91.199,44.383z M140.215,44.531l2.313,0.914
l-0.055,7.625l-1.961,0.676C137.945,49.824,140.078,44.535,140.215,44.531L140.215,44.531z M93.332,45.023l1.695,0.656
c0.93,5.379,5.305,15.664,6.848,23.34c0.434,4.613,0.5,5.969-2.625,8.426V77.41h-1.691c0,0-0.004-0.102,0.734-0.656
c4.094-3.059,1.652-9.805,0.105-14.988C95.703,53.484,93.297,45.016,93.332,45.023L93.332,45.023z M77.489,45.563
c-0.215,0.004-0.434,0.012-0.653,0.023c-2.558,0.137-2.976,0.301-2.984,0.855c-0.016,1.047,0.414,1.512,2.789,1.258
c2.058-0.223,5.039,0.094,7.094,0.98c2.343,1.008,2.902,1.246,3.742,1.68c2.113,1.086,1.746,0.004-0.164-1.254
C83.406,46.539,80.711,45.523,77.489,45.563L77.489,45.563z M95.934,45.934l1.59,0.605c0,0,0.422,1.238,0.574,1.949
c1.547,6.871,5.758,14.594,6.25,22.629c0.113,2.633-0.34,5.086-2.27,6.273h-1.457c1.559-1.547,2.594-1.992,2.16-7.375
C102.09,63.105,97.535,54.473,95.934,45.934L95.934,45.934z M98.758,47.047l1.465,0.543c1.691,9.273,10.07,23.133,4.734,29.82
h-1.332c1.191-1.855,1.68-3.484,1.504-5.988C104.609,62.992,100.309,54.813,98.758,47.047L98.758,47.047z M101.215,47.902
l1.582,0.48c2.145,9.398,10.383,24.801,4.508,29.059l-1.156-0.031C110.574,69.137,103.863,60.578,101.215,47.902L101.215,47.902z
M103.969,48.777c0.484,0.27,1.18,0.398,1.707,0.555c1.664,7.105,4.699,14.094,6.082,20.711c0.465,3.625-0.328,6.336-2.605,7.367
h-0.488c2.043-3.082,1.66-6.973,0.57-11.18C107.766,60.578,104.918,54.359,103.969,48.777L103.969,48.777z M79.086,48.902
c-0.734-0.008-1.5,0.105-2.312,0.363c-0.832,0.313-0.731,0.969,0.043,0.832c0.261-0.043,0.722-0.125,1.031-0.18
c1.894-0.332,4.23,0.352,7.058,2.066c0.684,0.414,1.426,0.813,1.61,0.949c0.519,0.387,1.074,0.387,0.883-0.109
c-0.075-0.195-1.164-1.043-2.129-1.582C83.207,49.996,81.289,48.922,79.086,48.902L79.086,48.902z M106.652,49.52l1.594,0.242
c2.992,13.754,9.559,22.301,3.941,27.402h-1.406c1.539-1.57,2.23-4.027,1.723-6.934c-0.52-2.969-2.055-7.676-3.324-11.816
C107.703,53.613,106.52,49.555,106.652,49.52L106.652,49.52z M108.938,49.906l1.348,0.25c1.578,5.59,4.258,12.52,5.871,18.293
c0.992,3.551,0.594,7.922-1.621,8.727l-1.141,0.02c1.883-2.512,2.148-5.129,1.289-8.516
C112.922,61.734,110.254,55.672,108.938,49.906L108.938,49.906z M117.254,49.914c1.359,5.797,4.629,14.637,5.805,17.688
c1.563,3.121,1.094,7.734-1.258,9.563l-1.109,0.023c1.344-1.258,1.805-3.371,1.59-5.566c-0.605-6.195-4.992-14.789-6.582-21.391
L117.254,49.914z M111.34,50.188l1.391,0.129c1.395,6.063,4.102,11.953,5.859,18.016c0.328,1.371,0.613,3.043,0.496,4.273
c-0.238,2.578-1.309,4.613-2.246,4.613h-0.957c1.957-2.332,1.859-5.508,1.023-8.926C115.523,62.648,112.176,55.844,111.34,50.188
L111.34,50.188z M75.149,50.219c-0.578,0.004-0.59,0.535,0.336,1.344c0.566,0.496,0.523,0.332,0.488,0.645
c-0.137,1.344,0.074,2.57,0.629,1.191c0.144-0.371,0.363-0.785,0.578-0.734c0.406,0.125,0.199,0.875,0.398,1.254
c0.332,0.668-0.023,0.832-0.832,0.625c-0.582-0.148-0.613,0.168-0.976,0.57c-0.633,0.699-0.531,1.121,0.445,0.902
c0.16-0.035,0.297,0.008,0.418,0.039c0.305,0.07,0.582,0.262,1.309,0.813c0.929,0.711,2.246,1.656,3.097,1.801
c1.371,0.23,1.063-0.426-0.054-0.855c-0.961-0.367-2.153-1.387-2.149-1.672c0.004-0.215,0.305-0.086,2.035-0.563
c0.75-0.207,1.805-0.668,2.25-0.871c0.735-0.34,0.77-0.336,1.918-0.301c1.961,0.059,2.258-0.012,0.887-1.027
c-2.777-2.059-6.477-3.398-8.441-2.547c-0.594,0.262-0.582,0.102-1.012-0.145C75.91,50.363,75.453,50.219,75.149,50.219
L75.149,50.219z M114.867,50.402c1.922,7.41,5.645,14.051,6.547,21.078c0.207,2.012-0.129,3.973-1.801,5.672l-1.129,0.02
c-0.164,0.004,1.574-2.688,1.426-4.988c0.047-1.23-0.09-2.547-0.441-3.848c-2.184-6.246-4.336-11.91-6.008-17.867L114.867,50.402z
M80.133,52.836c0.012,0,0.02,0,0.031,0c0.524,0.082,0.543,0.293,0.391,0.566c-0.227,0.402-0.625,1.18-0.625,1.18
s-0.535,0.105-0.641-0.031C79.094,54.273,79.797,52.879,80.133,52.836L80.133,52.836z M81.465,53.078
c0.059-0.004,0.129,0.027,0.242,0.07c0.504,0.199,1.379,0.609,1,0.926c-0.445,0.371-2.179,0.539-2.093,0.383l0.578-1.066
C81.313,53.16,81.367,53.078,81.465,53.078L81.465,53.078z M76.156,59.551c-0.046,0.004-0.082,0.016-0.113,0.031
c-0.101,0.063,0.129,0.465,0.461,0.922c1.531,2.066-0.59,2.68-2.094,1.574c-1.425-1.109-3.632-1.008-3.312,0.156
c0.113,0.41,0.004,0.613,0.801,0.625c0.707,0.008,0.89,0.047,1.527,0.484c2.441,1.668,5.594-0.566,4.055-2.961
C77.188,59.93,76.469,59.535,76.156,59.551L76.156,59.551z M82.18,62.785c-0.887,0-1.445,0.66-0.336,0.859
c3.965,0.711,1.305,4.82-1.492,2.703c-2.52-2.273-5.891-2.258-5.93-0.645c-0.008,0.406,0.012,0.422,0.609,0.531
c1.407,0.266,3.504,0.906,4.305,1.313c0.473,0.238,0.969,0.457,1.106,0.492c1.679,0.609,3.836-0.184,4.261-1.598
C85.09,65.148,84.778,62.785,82.18,62.785L82.18,62.785z M32.442,76.012c0.531,0.008,1.093,0.473,1.496,1.152
c0.933,1.57,2.063,4.211,2.785,5.668c0.183,0.367,0.187,0.695,0.176,0.871c0.058,0.852,0.343,1.176,0.851,0.789
c0.496-0.375,1.188-1.008,0.379-1.109c-0.816-0.617-1.269-1.52-0.765-2.066c0.371-0.406,0.226-0.668-0.075-0.684
c-1.14-0.02-2.843-3.418-2.043-4.148c1.086-0.988,2.282,0.234,4.832,5.293c1.125,2.234,1.176,4.68,0.211,3.469
c-0.324-0.305-0.258-0.148-0.644,0.816c-0.289,0.723-0.524,1.066-1.625,2.121c-1.34,1.289-2.153,2.309-2.18,2.531
c-0.059,0.426,0.723,0.027,1.293-0.715c1.273-1.242,1.32-1.574,1.309,0.074c-0.012,1.488-0.086,1.762,0.179,1.75
c0.418-0.016,0.645-1.191,0.84-2.617c0.235-1.281,0.899-1.926,2.008-2.641c0.305-0.195,0.309-0.332,0.25-0.895
c-0.203-1.813,0.824-5.188,1.293-4.352c0.066,0.188,0.269,0.625,0.379,0.934c0.09,0.477,0.387,1.016,0.848,1.051
c0.566,0.426,0.566,0.656,0.761,2.215c0.067,0.512,0.293,1.273,0.449,1.68c0.293,0.758,0.559,1.199,0.395,1.426
c-0.105,0.109-0.324,0.32-0.324,0.32l-9.285,5.504c0,0-0.727,0.402-0.993,0.512c-0.734,0.332-1.179,0.086-1.543-0.461
c-1.968-2.93-3.316-6.223-4.699-9.258c-0.832-1.801-0.019-2.992,1.055-1.539c0.414,0.563,0.203,0.922-0.004,2.016
c-0.039,0.195,0.145,0.121,0.488,0.176c0.543-0.059,0.805,0.426,0.785,1.246c-0.343,1.18,0.133,0.543,0.356,0.484
c0.43,0.008,0.523,0.266,0.766,0.754c0.148,0.688,0.453,0.488,0.894,0.035c0.367-0.379,0.367-0.367-0.371-1.25
c-1.273-1.379-3.039-4.496-3.5-6.395c-0.125-0.523-0.078-0.941,0.016-1.219c0.578-1.297,1.379-1.301,2.254,0.508
c0.148,0.309,0.441,0.805,0.648,1.105c0.336,0.488,0.543,0.902,0.531,1.676c-0.258,0.648-0.301,0.66-0.078,0.75
c0.555,0.219,1.539,1.219,1.586,2.117c0.043,0.91,0.199,1.391,0.914,0.852c0.816-0.613,0.469-0.863-0.336-1.652
c-0.844-1.004-0.894-1.875-0.394-2.598c0.082-0.242,0.046-0.313-0.262-0.281c-0.981,0.094-1.934-1.148-1.25-2.09
c0.312-0.555,0.277-0.695-0.168-0.711c-0.231-0.008-0.609,0.035-0.797-0.07c-0.293-0.543-0.894-1.301-0.891-1.922
C31.528,76.359,31.973,76.008,32.442,76.012L32.442,76.012z M90.621,76.059c1.609,0.988,3.203,2.016,5.012,2.484
c-4.191,7.547-10.93,11.59-16.57,13.172c0.191,0.965,0.328,1.93,1.261,2.52c-0.031-0.145-0.445-1.859-0.351-2.211
c7.766-1.984,14.605-9.594,16.355-13.52l34.145-0.371c-25.313,24.281-26.32,58.452-5.672,87.098l-2.375,1.383
c-15.91-23.836-15.75-46.801-10.977-62.18c3.383-10.902,9.457-19.234,14.07-23.996c0,0-18.512-0.254-27.723,0.086
c-1.34,2.047-2.586,3.719-4.383,5.652c0,0,4.68-4.52,4.559-5.305c8.539-0.004,17.344-0.496,25.871,0.098
c-9.977,11.941-14.898,24.27-15.75,35.867c-0.031,1.508-0.121,0.668-0.621,1.223l-1.574,2.441l-1.266-2.539
c-0.855-0.277-2.547,0.168-3.262-0.09c-3.512,15.664,0.035,34.566,4.656,46.902c0,0-1.16,0.647-2.586,0.539
c-1.563-0.349-1.945,0.086-3.297,0.358c-1.559,0.298-2.102,0.293-2.445,0.688c-0.191,0.219-0.539,0.522-0.93,0.738
c-3.793,1.379-8.242,6.543-8.242,6.469l-4.172-1.875c3.843-7.551,8.359-10.271,16.292-13.621l-0.738-3.375
c-8.449,3.148-13.828,6.918-18.07,14.242c-5.148-0.074-25.992-0.224-26.016-0.156c8.504-9.668,15.207-24.254,15.942-35.625
c0.18-2.215-0.129-1.153,0.848-1.813l1.542-1.832l1.208,1.805c0,0,0.875,1.113,1.429,0.187c1.551-15.858-0.09-33.94-7.73-46.542
c1.355-0.09,2.707-0.129,4.004,0.641c2.988,6.77,4.75,15.129,5.515,21.395c0.965,7.934,0.828,16.883-0.156,24.48l0.512,0.069
c1.488-9.874,0.984-20.378-0.383-29.558c-0.703-4.789-2.961-12.277-4.516-15.734c-0.429-0.957-0.761-1.203-0.355-1.344
C82.996,84.125,87.278,81.02,90.621,76.059L90.621,76.059z M64.805,76.895c0.711,0,1.289,0.578,1.289,1.289
s-0.578,1.289-1.289,1.289c-0.715,0-1.293-0.578-1.293-1.289S64.09,76.895,64.805,76.895L64.805,76.895z M134.789,77.551
c-2.727,2.469-4.918,5.023-7.219,7.75c6.809,9.363,14.379,19.516,20.742,27.625c0,0,2.199-1.305,2.191-1.469
c-0.004-0.086-0.176-0.516-0.215-0.422c-0.094,0.227-1.785,1.172-1.785,1.172l-20.137-26.43c0,0,1.09-1.305,1.43-1.715
c1.563-0.516,5.918-5.91,6.129-5.797c3.414,2.613,13.699,13.691,17.664,17.086l0.051,30.75c-0.41,1.23-11.379,5.969-19.125,23.655
c-3.898,2.185-8.215,3.36-12.227,5.259c0,0,1.02,1.605,1.52,2.047c-0.613-1.324-0.719-1.578,0.668-2.145l28.988-11.816l-0.055,2.387
l-0.469,4.121c-7.891,4.863-14.547,6.902-25.406,14.242c-0.773,0.18-1.398,0.922-2.215,0.965
c-27.738-40.848-10.008-71.625,6.16-87.09L134.789,77.551z M44.465,79.641c0.758,0.012,0.566,1.766,0.285,2.375
c-0.558,0.438-1.117,0.047-1.105-0.773c0.004-0.27-0.047-0.52-0.114-0.563C43.11,80.41,43.813,79.629,44.465,79.641L44.465,79.641z
M61.406,80.734c0.637,0.484,0.872,1.129,1.106,1.773c-0.859-0.133-3.16-0.793-2.078-1.309L61.406,80.734z M57.215,83.02
c20.004,30.254,19.109,62.387-3.215,86.742l28.246-0.043c3.594-7.094,9.586-11.418,17.25-14.082l0.668,2.227
c-8.809,2.828-13.265,7.515-16.813,14.012H49.668c12.942-13.926,18.871-25.691,19.805-41.605
c0.887-15.152-2.969-28.996-14.68-45.648L57.215,83.02z M62.852,83.367l4.719,2.227l-0.7,4.844l-4.941-2.281L62.852,83.367z
M54.348,84.727c25.226,38.164,14.406,65.012-5.734,87.352l-3.711,0.063l-8.653-8.035l0.16,48.828c0,0-8.433,8.262-9.402,9.25
c-0.957,0.922-1.676-0.492-1.676-0.492l0.024-64.731l0.375-2.534l0.113-13.949l5.375-2.836l20.156,26.422
c0,0-0.808,1.194-1.183,1.406c-0.246,0.137-0.067,0.375,0.14,0.348c0.563-0.074,2.18-1.879,1.84-2.172
c-7.312-9.06-20.906-26.793-20.906-26.793l-5.66,2.953c0,0,0.164-11.578,0.062-16.023c0.215-1.051,1.004-0.77,1.531-1.238
c6.52-4.188,11.114-9.301,13.95-14.262c0.207-0.371,1.461-2.598,1.586-2.801c0.441-0.723,1.539-2.977,2.179-4.414
c0.356-0.805,0.735-1.777,0.879-1.895c3.922-1.277,8.039-3.09,11.977-4.719l-5.672-8.516L54.348,84.727z M38.887,85.211
c-0.215-0.004-0.758,0.242-1.488,0.906c-1.352,1.227-3.133,3.242-3.141,3.629c0.363,0.129,0.684-0.078,0.973-0.371
c1.133-1.672,2.879-2.324,3.906-3.785C39.297,85.32,39.129,85.207,38.887,85.211L38.887,85.211z M51.594,86.984
c0,0,3.914,5.703,4.914,7.215c-10.312,4.086-21.105,9.48-30.668,12.969v-2.285l1.512-4.105L51.594,86.984z M66.938,90.754
l3.859,1.992l-1.09,4.352l-3.89-2.18L66.938,90.754z M70.121,97.992l3.168,2.309l-1.445,3.691l-3.195-2.195L70.121,97.992z
M44.254,100.699c0,0-0.488,1.711-1.312,3.246c-3.922,6.813-7.762,12.871-15.692,18.133c-0.301-0.27-1.164-1.781-1.164-1.781
l-0.078-2.02c4.203-3.379,7.832-5.859,13.402-15.77l1.614-0.656l1.375,0.594l0.929-1.66L44.254,100.699z M60.754,100.715
c-3.656,7.754-7.254,15.754-13.078,21.793l15.938,22.245C68.86,129.046,66.91,114.328,60.754,100.715L60.754,100.715z
M40.699,102.406l-0.765,1.324l1.324,0.766l0.766-1.324L40.699,102.406z M38.539,102.551c-2.89,6.453-7.222,11.422-12.91,14.992
l-0.219-9.473L38.539,102.551z M39.555,104.477l-0.766,1.324l1.325,0.766l0.765-1.324L39.555,104.477z M72.125,104.754l2.871,2.727
l-1.707,3.008l-2.945-2.438L72.125,104.754z M116.137,106.094c-0.004,0-0.004,0.004-0.008,0.008
c-5.047,15.695-3.531,30.684,3.395,43.73c3.398-8.457,6.188-14.118,12.824-23.122C128.262,121.359,116.547,105.926,116.137,106.094
L116.137,106.094z M38.426,106.344l-0.805,1.305l1.301,0.801l0.805-1.301L38.426,106.344z M60.453,108.176
c4.555,10.879,4.153,20.691,1.731,29.191l-11.367-14.359C54.981,117.836,57.746,112.941,60.453,108.176L60.453,108.176z
M37.25,108.215l-0.859,1.262l1.262,0.867l0.863-1.27L37.25,108.215z M35.981,110.02l-0.942,1.211l1.203,0.941l0.946-1.207
L35.981,110.02z M73.434,111.309l2.574,2.441l-1.625,3.172l-2.613-2.391L73.434,111.309z M34.496,111.902l-0.988,1.16l1.16,0.988
l0.988-1.16L34.496,111.902z M117.531,112.246L129,127.043c-3.836,4.566-7.023,9.945-9.875,15.742
C115.93,132.773,114.488,122.938,117.531,112.246L117.531,112.246z M32.883,113.742l-1.059,1.105l1.106,1.059l1.059-1.105
L32.883,113.742z M59.676,115.223l-5.25,7.586l6.02,7.684C61.09,126.333,61.235,121.508,59.676,115.223L59.676,115.223z
M31.172,115.469l-1.125,1.035l1.035,1.129l1.125-1.035L31.172,115.469z M29.516,116.949l-1.188,0.965l0.965,1.188l1.184-0.965
L29.516,116.949z M74.336,117.734l2.156,2.516l-2.187,2.59l-2.047-2.301L74.336,117.734z M101.73,118.184l1.465,0.055
c-2.402,23.676,2.316,35.652,6.488,46.07c0,0-0.008,0.418-0.148,0.543c-0.68,0.233-2.055,0.483-3.16-0.484
C100.762,149.934,99.535,132.156,101.73,118.184L101.73,118.184z M27.59,118.488l-1.238,0.898l0.894,1.238l1.239-0.895
L27.59,118.488z M119.316,119.332c-0.375,0-0.695,9.738,0.707,14.496l5.277-7.152L119.316,119.332z M105.668,120.938l1.766,2.371
l-1.871,2.551l-1.918-2.414L105.668,120.938z M26.156,121.582c0.09-0.012,0.235,0.234,0.52,0.43c0.262,0.273,0.227,0.254-0.07,0.488
c-0.461,0.371-0.598,0.309-0.59-0.266C26.055,121.762,26.09,121.594,26.156,121.582L26.156,121.582z M74.442,123.363l1.949,2.793
l-2.156,2.773l-1.848-2.922L74.442,123.363z M105.516,126.898l2.055,2.504l-1.766,2.746l-2.246-2.621L105.516,126.898z
M153.078,127.43l0.184,2.883l-0.711-1.056l-1.305,1l0.91,1.212l1.141-0.891l0.07,1.164c-7.238,5.227-10.355,11.234-13.293,15.738
l-1.305,0.555l-1.488-0.473l-0.723,1.285l-1.266,0.297c-0.039-0.008,2.535-5.52,6.941-11.133
C146.156,133.016,153.059,127.382,153.078,127.43L153.078,127.43z M153.918,131.941l0.063,10.258l-12.949,5
C144.391,141.477,148.355,136.16,153.918,131.941L153.918,131.941z M150.703,130.695l-1.184,0.969l1.02,1.171l1.176-0.968
L150.703,130.695z M148.883,132.238l-1.141,1.015l1.063,1.134l1.141-1.023L148.883,132.238z M105.645,132.809l2.441,2.598
l-1.789,3.07l-2.539-2.438L105.645,132.809z M147.043,133.902l-1.066,1.09l1.168,1.125l1.07-1.094L147.043,133.902z
M145.359,135.625l-1.027,1.137l1.246,1.077l1.027-1.136L145.359,135.625z M143.668,137.563l-0.953,1.194l1.293,1l0.957-1.198
L143.668,137.563z M106.484,139.398l3.051,1.979l-1.492,3.634l-3.047-2.324L106.484,139.398z M142.195,139.414l-0.898,1.242
l1.379,0.945l0.91-1.285L142.195,139.414z M140.816,141.375l-0.832,1.289l1.395,0.895l0.828-1.328L140.816,141.375z M139.586,143.32
l-0.766,1.324l1.441,0.819l0.766-1.339L139.586,143.32z M138.473,145.328l-0.766,1.324l1.598,0.691l0.633-1.266L138.473,145.328z
M108.137,146.145l3.125,2.117l-1.383,3.805l-3.297-2.332L108.137,146.145z M153.434,149.887l0.156,78.266l-34.395,0.117
c0,0-1.609-2.828-4.973-9.367c-1.426-2.766-2.629-3.942-2.754-6.137c0.129-1.285-0.465-2.746-1.52-3.336
c-0.355-0.195-0.949,0.043-0.75-0.509c0.219-0.604-0.453-1.539-0.633-1.737c-0.211-0.352-0.078-0.438-0.102-1.742
c-0.023-1.262-0.09-1.789-0.359-2.742c-0.684-2.406-0.836-3.61-0.445-4.855c1.016-3.169,2.074-5.594,3.445-8.548
c0.797-1.726,0.676-2.401-1.77-3.655c-1.828-0.941-2.07-0.931-1.84-2.302c0.105-0.644,0.207-1.05,0.074-1.358
c-0.082-0.191-0.387-0.457-0.566-0.605c-0.238-0.207-0.168-0.625,0.078-0.941c0.238-0.306,0.242-0.746,0.004-1.477
c-0.5-1.543,0.633-3.582,2.77-4.993c0.945-0.625,0.918-0.495,1.902,0.539c2.879,3.024,7.16,1.125,7.168-3.14
c0.004-1.328-0.449-1.25,0.805-1.875c4.262-2.711,13.008-7.641,12.949-7.508c0.57,1.16,0.758,2.151,1.121,3.401
c0.309,1.071,0.27,1.153,0.152,3.239c-0.105,1.886-0.16,2.324,0.281,2.445c2.523,0.277,3.102-0.613,3.586-2.242
c0.207-0.719,0.609-0.574,0.859-0.27c0.961,1.746,2.176,3.563,2.973,4.805c1,1.586,2.68,2.375,3.559,1.629
c0.184-0.617,0.336-0.637,1.449-0.383c1.352,0.305,2.125-0.449,2.254-1.445c0.051-0.398-0.238-0.379,0.484-0.773
c1.797-1.328,1.113-3.141,0.844-4.234c0.023,0.058,0.766-0.453,0.785-1.478c0.082-5.308-4.52-12.956-4.414-12.761L153.434,149.887z
M110.008,152.945l3.652,1.765l-0.859,4.364l-3.754-1.688L110.008,152.945z M145.555,154.566c2.102,2.44,3.625,6.508,4.41,9.156
c0.387,1.32,0.434,2.823,0.086,3.034c-0.34,0.207-0.5-0.015-0.434-0.804c0.051-0.657,0.07-1.164-0.211-1.157
c-0.816,0.211-0.848-1.026-0.762-1.315c0.055-0.195,0.156-0.332,0.199-0.438c0.203-0.48-0.324-0.415-0.867-0.422
c-0.484,0.011-0.609-0.282-0.586-0.739c-0.012-0.504-0.684-0.405-1.066-0.019c-0.348,0.347-0.273,0.762,0.199,1.051
c0.68,0.418,1.32,1.438,2.898,4.961c0.918,2.043,0.648,3.492-0.445,3.477c-0.758-0.02-1.645-2.099-2.355-3.629
c-0.188-0.395,0.277-0.836,0.438-1.052c0.422-0.55,0.355-0.722-0.266-0.733c-0.582-0.008-0.828,0.043-1.18-0.676
c-0.133-0.27-0.23-0.684-0.184-0.945c0.301-0.793-0.316-0.984-0.914-0.68c-0.754,0.316-0.75,0.988,0.402,2.09
c0.738,1.215,0.547,1.133-0.156,1.949c-0.145,0.288-0.059,0.469,0.25,0.473c0.891-0.273,1.859,1.332,1.598,1.879
c-0.273,0.238-1.02,1.094-0.297,0.93c1.465-0.398,2.355,1.746,1.492,2.473c-1.289,0.648-1.594,0.445-3.574-3.516
c-0.617-1.23-1.359-2.555-1.449-2.688c-0.09-0.138-0.133-0.5-0.129-0.793c0.09-0.72-0.219-0.879-0.84-0.595
c-0.469,0.11-0.891,0.496-0.297,0.86c0.691,1.195,0.934,1.386,0.555,1.688c-0.863,0.688-0.488,0.659,0.48,0.855
c0.473,0.14,0.715,0.386,0.844,0.679c0.5,1.122,1.387,2.707,1.477,3.032c0.293,0.824-0.238,1.191-0.961,1.156
c-0.762,0.019-1.109-0.582-1.477-1.094c-1.379-1.914-2.371-3.813-3.781-5.992l0.191-2.035c0,0,0.367,0.082,0.574-0.02
c0.406-0.195,0.645-0.828,0.875-1.676c0.371-0.734,2.555-2.406,3.391-3.305c0.156-0.102,0.285-0.27,0.285-0.371
c-0.004-0.328-0.945-0.11-1.566,0.602c-0.91,0.809-1.301,0.531-1.27-0.5c-0.09-1.277-0.867-0.637-0.906,0.609
c-0.102,0.984-0.445,1.586-1.133,2.136c-1.301,1.039-1.082,0.778-1.023,2.22c0.105,2.52-0.867,4.59-1.504,3.219
c-0.223-0.488-0.488-1.043-1.055-1.067c-0.402-0.019-0.602-0.414-0.824-1.386c-0.328-1.578-0.789-2.59-1.207-4.043L145.555,154.566z
M113.176,159.992l4.207,1.676l-0.785,4.402l-4.172-1.594L113.176,159.992z M145.27,160.398c-0.031,0-0.063,0.008-0.098,0.022
c-1.188,0.896-2.281,1.903-3.57,2.673c-0.488,0.284-1.051,1.027-1.055,1.223s0.574,0.187,1.137-0.06
c0.535-0.229,3.59-3.097,3.594-3.362C145.484,160.664,145.465,160.387,145.27,160.398L145.27,160.398z M106.617,165.742
c0.996-0.004,0.418,0.293-1.754,1.801c-2.121,1.469-5.617,6.121-6.023,7.844c-0.184,0.784,0.316,0.848,0.875-0.23
c2.574-4.949,7.441-9.469,11.902-9.266c2.184,0.098,3.363,0.688,1.555,0.944c-4.957,0.606-8.66,3.435-11.902,9.067
c0,0.125,0.297,0.121,0.633-0.098c2.969-3.629,6.313-8.434,12.184-8.043c4.238,0.254,5.441,5.293,1.926,7.012
c-3.066,1.5-5.895-2.152-3.355-4.316c0.828-0.704,1.344-0.395,0.551,0.324c-1.699,1.543,0.383,4.289,2.457,3.246
c1.258-0.527,1.77-2.332,0.66-3.695c-2.473-3.031-7.797-0.727-11.508,4.171c-0.391,0.517-0.727,1.634-0.398,1.513
c0.574-0.234,0.922-0.688,1.262-1.195c1.324-1.836,2.344-2.758,4.137-3.746c1.387-0.762,1.469-0.617,0.953,0.703
c-0.219,0.558-0.391,0.742-0.93,1.09c-2.262,1.543-3.664,3.609-3.719,4.926c-0.043,0.96,0.664,2.219-0.102,2.477
c-1.293,0.608-4.824,0.112-5.777-1.105c-0.684-0.875-0.949-0.368-0.434,1.055c0.34,0.941,0.324,1.469,0.836,1.375
c0.648-0.344,1.094-0.262,2.352,0.426c0.605,0.332,1.684,0.641,2.336,0.789c1.195,0.276,1.445,0.16,1.418,0.676
c-0.008,0.16,0.047,0.604,0.012,0.887c-0.195,1.555,1.105,2.086,2.875,3.105c1.035,0.598,0.629,1.215-0.57,4.176
c-0.621,1.34-1.152,3.141-1.922,4.504c-0.719,1.527-0.781,3.199-0.316,5.109c0.859,3.539,1.477,5.336-0.055,5.655
c-3.941,0.595-12.648,0.571-17.398-1.257c-1.219-9.121-7.66-22.657-6.832-26.157c1.649,2.485,8.563,1.828,6.481-5.12
c0,0,0.566-0.848,1.691-1.988c2.898-2.941,3.617-3.43,2.238-0.836c-1.059,1.992-2.41,4.594-2.441,5.098
c-0.023,0.398,0.289,0.492,0.535,0.172c0.18-0.238,0.395-0.816,0.582-1.254c1.73-4.051,4.684-7.7,6.723-8.578
c0.523-0.227,0.496,0.016,0.137,0.46c-2.398,2.981-4.23,5.743-5.531,9.34c-0.059,0.371,0.469,0.528,0.637,0.177
c2.25-4.715,2.922-5.781,5.684-9.102c1.086-1.305,2.098-1.965,2.906-1.895c0.695,0.063,0.488,0.176-0.156,0.867
c-0.492,0.523-1.223,1.258-2.402,2.741c-2.078,2.618-4.172,6.875-3.402,6.653c0.133,0.355,0.789-0.778,1.344-1.86
c1.52-2.55,3.137-5.922,6.746-8.14C105.066,165.93,105.891,165.75,106.617,165.742L106.617,165.742z M36.797,166.566l6.43,6.422
l12.929-0.164c-2.132,3.313-0.992,8.449,0.184,11.453c2.305,5.887,5.68,15.601,5.434,15.742c0,0-1.883,0.483-2.051,1.676
c-0.254,1.769,0.512,1.637-0.594,3.234c-0.246,0.359-0.086,1.034,0.18,1.573c0.176,0.396,0.344,0.989,0.015,1.454l-11.406,20.348
L26.27,228.41v-4.071l10.84-10.972l-0.133-8.074c5.914,1.753,7.941,7.855,8.449,12.375c10.68-9.747,10.414-24.418,0.324-33.622
c-1.965,9.728-9.011,11.75-8.859,11.556L36.797,166.566z M117.219,167.719c0.691,0.051,1.625,0.159,2.258,0.504
c-0.43,0.254-0.734,0.563-1.02,0.875C118.113,168.484,117.645,168.148,117.219,167.719L117.219,167.719z M135.145,167.789
c0.574-0.004,1.281,1.684,0.875,2.078c-0.227,0.222-0.969,0.304-1.234,0.136C134.445,169.753,134.617,167.789,135.145,167.789
L135.145,167.789z M114.746,170.71c0.742,0,1.344,0.603,1.344,1.345c0,0.741-0.602,1.344-1.344,1.344s-1.344-0.603-1.344-1.344
C113.402,171.313,114.004,170.71,114.746,170.71L114.746,170.71z M57.871,172.628l0.969,0.021c-1.762,2.354-2,4.387-1.375,7.324
c0.703,3.305,6.063,15.734,6.406,19.155c0.016,0.153,0.032,0.591,0.032,0.591l-1.317,0.09c0,0-0.097-0.355-0.137-0.492
c-1.843-6.195-3.679-10.922-4.96-14.535C56.211,180.887,54.258,175.113,57.871,172.628L57.871,172.628z M64.953,172.648
c0.008,0,0.016,0.004,0.024,0.004l0.929,0.008c-0.031,0.023-1.386,2.925-1.484,4.691c-0.113,1.996,0.371,4.172,1.035,6.319
c1.563,4.646,3.852,9.821,5.121,15.685c0.016,0.07,0.157,0.637,0.157,0.637l-1.379-0.184c0,0-0.137-0.602-0.153-0.684
c-0.949-5.161-3.605-10.516-5.187-15.594c-0.813-2.309-1.375-5.145-1.086-7.313C63.137,174.688,64.668,172.68,64.953,172.648
L64.953,172.648z M76.211,172.66c-0.988,1.527-1.883,3.441-1.949,4.941c-0.055,2.789,0.758,5.145,1.57,7.608
c2.5,7.591,3.711,11.595,4.961,17.685l-1.328-0.57c0,0-0.051-0.34-0.082-0.438c-0.707-3.813-0.754-3.48-4.922-16.302
c-0.976-3.078-1.91-5.772-1.726-8.335c0.043-1.461,1.316-4.352,2.656-4.582L76.211,172.66z M77.805,172.66h1.238
c0,0-0.679,0.722-0.879,0.996c-2.164,3-1.539,6.222-0.465,10.066c1.481,5.284,4.215,11.195,5.649,19.25c0.023,0.152,0,0.93,0,0.93
l-1.477-0.598c-1.34-7.387-4.648-15.043-6.242-21.688c-0.933-3.903-0.668-6.367,1.496-8.492
C77.668,172.707,77.805,172.66,77.805,172.66L77.805,172.66z M62.68,172.703h0.926c0,0-1.551,2.547-1.547,4.043
c-0.262,2.684,0.711,5.645,1.824,8.75c1.715,4.773,3.977,10.543,4.672,13.582c0.027,0.121,0.121,0.664,0.121,0.664l-1.617-0.086
c0,0-0.086-0.735-0.184-1.074c-1.867-6.531-3.683-10.754-5.828-16.719c-0.324-0.903-0.844-4.473-0.234-6.785
C61.293,173.262,62.68,172.703,62.68,172.703L62.68,172.703z M60.196,172.707l1,0.027c0,0-0.149,0.272-0.532,0.926
c-1.824,3.304-1.008,6.32,0.121,9.684c1.512,4.484,3.879,9.956,5.36,15.141c0.082,0.293,0.195,1.172,0.195,1.172l-1.445-0.02
c0,0-0.293-1.055-0.313-1.168c-0.812-4.805-5.203-12.809-6.343-18.902C57.614,176.296,58.153,174.273,60.196,172.707L60.196,172.707
z M73.59,172.707c0,0-1.578,2.738-1.719,4.262c-0.285,2.984,0.664,5.461,1.746,8.827c1.872,5.817,4.512,12.638,4.747,15.759
c0.007,0.102,0.046,0.48,0.046,0.48l-1.625-0.578c0,0-0.074-0.325-0.105-0.441c-1.414-5.641-3.09-11.263-5.344-17.595
c-0.555-2.14-1.285-4.289-1.219-6.125c0.329-2.452,0.747-3.116,2.207-4.569L73.59,172.707z M80.742,172.71l1.309,0.028
c0,0-0.391,0.211-1.324,1.207c-5.164,4.719,3.215,18.043,5.148,30.172c0.02,0.129,0.082,0.586,0.082,0.586l-1.441-0.516
c-0.137-0.605-0.238-1.34-0.406-2c-1.567-6.203-3.653-12.578-5.571-18.363c-1.078-4.215-1.468-7.926,0.461-10
C79.606,173.105,80.742,172.71,80.742,172.71L80.742,172.71z M67.278,172.719l1.394,0.038c-1.008,1.263-1.598,3.231-1.652,4.981
c-0.055,2.07,0.5,4.086,1.179,6.215c1.399,4.367,3.395,9.113,4.766,15.007c0.078,0.392,0.145,0.642,0.18,0.813
c0.054,0.27,0.211,0.699,0.211,0.699l-1.469-0.293c0,0-0.152-0.384-0.254-0.586c-0.148-0.301-0.285-0.684-0.406-1.145
c-0.711-3.074-3.332-10.051-4.93-14.946C65.031,180.421,64.688,175.031,67.278,172.719L67.278,172.719z M84.684,172.773
c1.781-0.066,3.394,1.449,3.773,2.871c0.371,1.508-0.101,3.211-1.761,4.055c-2.696,1.363-5.594-2.266-3.469-4.266
c1.609-1.513,3.992-0.395,3.476,1.547c-0.336,1.262-2.25,1.34-2.566,0.065c-0.086-0.421-0.297-0.843-0.449-0.612
c-0.992,2.328,2.336,3.418,3.718,1.254c0.821-1.738-0.738-3.974-3.039-3.547c-3.148,0.582-3.511,4.582-2.203,9.246
c1.825,7.37,6.18,17.284,6.172,21.836c0,0.059,0.016,0.246,0.016,0.246l-1.383-0.414c0,0-0.012-0.074-0.02-0.141
c-0.828-6.355-5.55-16.879-6.906-24.969c-0.586-3.688,0.852-6.367,4.082-7.098C84.313,172.805,84.496,172.781,84.684,172.773
L84.684,172.773z M71.012,172.832c-0.969,1.296-1.602,3.242-1.633,4.632c-0.031,2.036,0.703,4.021,1.305,6.142
c1.527,5.233,5.097,14.906,4.965,16.715c0.039,0.195,0.136,0.797,0.136,0.797l-1.379-0.41c0,0-0.054-0.086-0.156-0.336
c-0.461-1.797-2.648-9.496-5.094-16.157c-0.945-2.675-1.402-4.761-1.335-6.534c0.199-2.449,0.898-3.473,1.972-4.836L71.012,172.832z
M97.262,181.512c-3.574,0.202-3.23,4.559-1.016,5.297c0.793,0.219,1.258,0.03,1.383-0.141c0.145-0.195-0.016-0.497-0.535-0.57
c-1.504-0.496-2.039-2.263-0.684-3.004c0.742-0.391,1.922-0.141,3.352,0.918c2.547,1.887,5.672,2.004,5.266,0.094
c-0.098-0.461-0.297-0.523-2.164-0.777c-1.52-0.207-2.203-0.688-2.863-1.043C98.957,181.723,98.039,181.488,97.262,181.512
L97.262,181.512z M46.106,185.563c9.23,9.016,7.863,23.145-0.024,30.219c-0.16-0.571-0.508-1.969-0.543-1.93
c5.93-6.172,8.723-16.285,0.137-26.656C45.723,187.234,45.867,186.449,46.106,185.563L46.106,185.563z M103.961,185.8
c-0.086,0.005-0.164,0.013-0.23,0.035c-2.391,0.657-2.887,3.021-1.336,3.989c0.949,0.597,1.68,0.234,0.496-0.489
c-1.012-0.616-0.512-2.241,0.715-2.222c0.539,0.008,0.902,0.238,2.27,1.246c1.121,0.828,2.18,0.894,2.418-0.228
c0.145-0.672-0.078-0.968-0.793-0.793c-0.316,0.079-0.504-0.108-0.93-0.405C105.613,186.27,104.574,185.789,103.961,185.8
L103.961,185.8z M45.153,187.57c8.32,9.66,5.648,19.73,0.039,25.633c-1.543-4.547-5.317-7.383-5.317-7.383
c1.422-3.156,2.27-6.453-0.39-10.617C41.961,192.964,44.012,190.503,45.153,187.57L45.153,187.57z M99.215,191.098
c-0.391-0.009-0.262,0.366,0.656,1.012c2.195,1.492,2.383,1.762,0.258,1.726c-0.539-0.034-1.383,0.349-1.863,0.509
c-2.773,0.926-2.906,0.852-4.234,0.538c-0.441-0.101-0.891-0.284-1.086-0.108c-0.301,0.272-0.637,0.453-0.258,0.858
c0.273,0.298,0.785,0.524,1.41,0.884c3.219,1.844,3.512,2.284,7.301,2.387c0.434,0.008,0.656-0.215,0.91-0.219
c0.621-0.008,0.945,0.145,1.57,0.715c1.145,1.043,1.195,0.285,0.516-1.086c-0.355-0.719-0.668-0.892-0.496-1.435
c0.402-1.246-0.168-1.496-0.914-0.39c-0.559,0.863-0.621,0.844-1.148-0.27c-0.703-1.387-0.375-2.027,0.691-1.121
c0.805,0.684,1.008,0.176,1.324-0.367c0.41-0.715,0.348-1.353-0.387-1.297c-0.426,0.03-0.82-0.164-1.152-0.527
C101.66,192.195,100.414,191.305,99.215,191.098L99.215,191.098z M100.129,194.852c0.086,0.004,0.148,0.039,0.176,0.129
c0.008,0.457-0.305,1.391-0.563,1.883c-0.082,0.215-0.223,0.242-0.422,0.285c-0.664,0.121-0.711-0.082-0.59-0.496
c0.242-0.633,0.445-1.539,1.301-1.797C100.066,194.852,100.098,194.848,100.129,194.852L100.129,194.852z M98.441,195.168
c0.266-0.02,0.277,0.089,0.168,0.335c-0.191,0.411-0.527,0.802-0.777,1.122c-0.535,0.344-1.402-0.707-1.016-0.98
c0.531-0.211,0.934-0.431,1.492-0.461C98.359,195.171,98.402,195.168,98.441,195.168L98.441,195.168z M38.832,195.855
c0.141,0,0.289,0.026,0.438,0.09c2.015,2.719,1.879,6.855,0.313,9.144c-0.113,0.173-0.234,0.204-0.429,0.138
c-0.676-0.398-1.528-0.547-2.168-0.777v-7.957C37.645,196.352,38.211,195.852,38.832,195.855L38.832,195.855z M91.895,196.503
c-0.152,0.004-0.219,0.11-0.023,0.313c2.938,2.125,6.977,4.586,10.703,3.633c0.344-0.074,0.621-0.262,0.555-0.614
c-0.043-0.222-0.422-0.409-0.832-0.3c-0.855,0.222-2.492,0.254-3.164,0.145c-2.566-0.418-4.828-2.059-6.797-3.02
C92.188,196.55,92.016,196.496,91.895,196.503L91.895,196.503z M91.039,198.531c-0.133-0.008-0.121,0.125-0.039,0.371
c0.414,1.229,4.566,4.098,7.848,5.047c2.82,0.813,6.867,0.011,6.633-1.328c-0.125-0.696-0.637-0.864-2.434-0.637
c-3.957,0.769-7.77-0.848-10.66-2.649C91.605,198.848,91.207,198.539,91.039,198.531L91.039,198.531z M65.114,200.214
c1.726-0.022,3.441,0.118,5.296,0.427c3.606,0.616,7.789,1.734,11.325,3.371c6.011,2.258,13.57,4,19.984,3.762
c1.566,0.043,4.395-0.09,4.941-0.271c1.43-0.319,1.824-0.015,2.168,1.759c0.059,0.387,0.18,0.495,0.676,0.832
c0.758,0.516,0.633,1.023,0.539,2.159c-0.078,0.954,0.5,1.493,2.816,5.767c2.633,4.862,5.203,10.516,5.203,10.516
c-23.098-0.02-45.133-0.875-68.766-0.141c2.125-5.039,7.918-14.129,11.551-21.422c-0.879-2.246,0.207-2.625-0.25-3.16
c-0.734-1.246-0.203-2.996,1.351-3.392C63.031,200.296,64.074,200.227,65.114,200.214L65.114,200.214z M65.114,200.214"/>
<path fill="#E2CF00" d="M49.567,228.55c0,0,7.566-15.3,10.757-19.886c4.586-5.816,25.297,2.527,35.598,4.613
c4.188,0.808,13.891,0.43,13.891,0.43l8.113,14.621L49.567,228.55z M33.848,211.164l-0.32-47.637l2.371,1.479l0.543,47.849
l-10.246,9.809l-0.055-2.875L33.848,211.164z M40.047,205.73c2.442-4.914-0.285-10.91-0.285-10.906
c1.418,0.347,5.359-7.133,5.711-6.918c6.035,7.402,7.082,18.429-0.293,25.265C43.321,208.418,40.071,205.73,40.047,205.73
L40.047,205.73z M44.551,172.035c4.586-4.684,8.223-8.336,11.859-13.578c0.297-0.426-19.347-25.379-19.043-25.816
c3.032-3.352,7.094-5.813,10.254-9.855c0,0,16.11,21.09,16.481,20.902c1.633-6.599,2.828-12.574,2.515-19.473
c-0.992-17.648-8.535-28.457-8.593-28.242C55.473,112.188,30.406,136.75,25.469,135l-0.027-11.332
c0.3,0.566,15.882-10.023,19.992-24.023c0.293-1.008,12.383-4.875,12.301-5.023c-0.512-1.313-5.801-8.797-5.801-8.797
s2.137-0.996,2.371-0.992c6.859,8.527,12.031,19.758,13.793,30.453c2.137,11.516,3.516,33.172-19.582,56.82L44.551,172.035z
M113.797,142.238c-3.613-11.219-3.516-22.832-1.855-30.941c2.539-14.695,11.824-25.215,19.273-33.238h3.23
c0,0-3.863,3.996-5.27,5.453c-2.414,2.766-5.906,8.539-5.906,8.539l19.277,25.195l10.984-2.375c0,0-0.332,11.273,0.012,11.273
c-8.539,7.065-14.676,13.465-19.082,23.762c-2.699,1-11.652,4.859-11.652,4.859c-4.254-1.043,12.664-27.566,9.445-28.016
c-1.324-1.09-16-20.887-16.285-20.844c-6.766,20.707-0.164,42.457,11.734,57.648c-1.352,0.875-2.574,1.555-2.461,1.348
C120.145,157.832,115.68,149.391,113.797,142.238L113.797,142.238z M78.582,131.855c0.762,1.18,4.192-25.277-4.82-46.453
c0.855-0.648,8.293-2.07,8.293-2.07l2,6.34l-5.07,2.148l0.933,2.973c3.938-1.91,12.469-4.73,17.711-13.445
c0,0,25.488-0.219,26.031-0.172c0.531,0.043-5.199,5.531-10.629,16.641c-2.48,5.078-4.453,11.645-4.867,19.348
c-0.082,1.523-5.832-7.156-5.832-7.156c1.434-7.336,5.27-14.555,9.086-21.773c0,0-5.859-0.336-9.953-0.215
c-6.367,6.961-10.363,10.625-19.961,13.949c3.5,11.215,24.918,16.605,20.152,15.582c-0.973-0.23-2.203,10.313-1.172,22.188
c0.195,9.496,5.305,25.324,5.484,25.199c0,0-3.402,0.766-3.676,0.219c0.574-0.137-5.066,1.293-5.066,1.293l-2.02-5.903l5.461-2.511
l-0.883-3.328c-0.023,0-12.05,3.637-17.938,14.128l-26.344,0.032c10.16-11.023,14.301-21.926,16.508-36.34
C74.168,132.91,78.582,131.855,78.582,131.855L78.582,131.855z M143.367,36.684c3.313-2.77,9.961-9.988,9.961-9.988l0.086,3.699
l-7.547,7.844l0.078,48.441l-2.551-2.445L143.367,36.684z M139.879,54.414c-1.355,0.648-4.066,3.832-5.355,7.41
c-8.742-7.809-5.141-22.16-0.355-25.148c1.387,3.133,5.406,7.289,5.313,7.199C138.559,47.156,137.852,50.484,139.879,54.414
L139.879,54.414z M62.492,21.895l67.411,0.117c-3.844,7.574-7.371,13.691-11.461,21.145c-2.125,2.566-48.161-8.281-48.375-7.203
L62.492,21.895z M62.492,21.895"/>
<path fill="#D40000" d="M157.5,241.699v-2.223h2.215l5.289-8.027l-5.48-12.664h-2.133v-2.492h7.945v2.492h-2.801l4.172,9.875
l2.781-3.961l-0.063-5.914h-1.949v-2.492h7.25v2.492h-2.59l0.129,20.691h2.195v2.223h-6.891v-2.223h1.898l-0.188-9.73l-6.328,9.73
h2.238v2.223H157.5z M132.266,227.266c-4.418-8.602-10.09-16.402-16.594-23.141c6.477-7.07,11.879-14.398,16.492-22.402
c4.754,7.965,9.98,15.487,17.273,22.762C142.207,211.602,136.777,219.367,132.266,227.266L132.266,227.266z M26.055,218.91
l-0.453-63.609l7.664,7.445l0.457,48.848L26.055,218.91z M158.793,201.223c2.789-2.957,5.324-6.234,7.418-9.773
c2.629,3.895,5.422,7.883,7.73,9.871c-2.621,2.984-5.098,6.441-7.484,10.004C164.379,208,162.117,204.652,158.793,201.223
L158.793,201.223z M61.215,206.582c-1.586,0.242-0.691-1.227-0.398-2.622c0.16-0.776-0.594-1.507-0.59-1.746
c0.019-1.382,1.054-1.964,5.742-1.909c11.051,0.77,16.766,4.305,23.102,5.948c6.07,1.575,12.089,1.543,18.789,1.392
c0.652,0.254,2.523,4.867,1.949,5.367C94.656,216,75.321,204.875,61.215,206.582L61.215,206.582z M88.524,173.648
c-1.598-1.16-3.094-1.371-4.575-1.625c2.598-4.57,5.747-8.734,11-11.344l2.445,6.055C94.305,168.32,91.27,170.214,88.524,173.648
L88.524,173.648z M56.602,157.934c0,0-2.27,3.707-4.41,5.512c-6.364-8.535-20.594-26.703-20.594-26.703l-6.035,3.059
c0,0-0.028-3.516,0.109-3.762c16.313-8.407,27.5-24.289,32.43-39.164c0,0,2.625,2.68,2.281,3.813
c-4.41,11.734-11.953,23.5-23.039,32.324L56.602,157.934z M76.942,140.625l20.589,0.027l0.91,7.156
c-7.883,2.645-14.391,8.039-20.473,14.28l-9.766-0.168C71.406,154.906,75.852,147.789,76.942,140.625L76.942,140.625z
M153.172,110.469c0.664,2.02-0.008,4.195,0.25,4.102c-24.664,12.199-31.711,38.969-31.711,38.969s-2.34-3.707-2.234-4.282
c12.766-28.37,21.305-29.214,22.945-32.296l-19.414-25.125l4.391-5.973l20.824,27.098
C150.293,112.008,151.473,111.207,153.172,110.469L153.172,110.469z M141.012,147.171c4.18-7.519,8.496-11.89,12.793-14.897
l-0.211,9.926L141.012,147.171z M25.711,117.652l0.106-9.629l12.703-5.465C35.008,110.215,30.239,114.316,25.711,117.652
L25.711,117.652z M82.305,108.996l-0.75-6.773c7.711-3.363,14.523-7.863,20.023-14.02c5.91-0.285,9.945,0.117,9.914,0.035
c0.008-0.012-5.621,8.246-9.352,21.25L82.305,108.996z M146.199,37.848l7.02-7.09l0.219,63.293l-7.051-6.707L146.199,37.848z
M84.508,89.387l-2.23-6.273c3.503-1.313,6.156-4.172,8.628-7.004c1.676,1.496,3.836,2.027,4.586,2.313
C96.52,78.664,88.391,88.422,84.508,89.387L84.508,89.387z M30.211,46.047c7.516-7.336,12.403-15.07,17.121-22.766
c4.145,8.465,10.137,15.871,16.563,23.027c-6.625,7.203-11.656,14.91-16.489,22.672C42.656,60.801,37.656,53.133,30.211,46.047
L30.211,46.047z M12.879,58.691c-2.164-3.461-4.348-6.793-7.492-10.133c3.062-3.277,5.664-6.527,7.41-9.723
c2.41,3.508,4.699,7.176,7.66,9.98C17.574,51.988,15.258,55.352,12.879,58.691L12.879,58.691z M71.348,41.863
c0,0-0.879-0.508-0.781-1.223c0.289-0.926-0.938-3.02-0.938-3.02c14.949-4.535,36.719,8.227,49.637,5.543
c-0.109,0.902,0.039,1.977-0.324,2.828c0.406,1.809,0.691,1.867-1.074,2.969c-9.074,2.57-18.641-2.906-27.503-5.523
C83.129,41.16,77.254,41.738,71.348,41.863L71.348,41.863z M4.649,33.922v-2.703h2.539v-20.32H4.649V8.551h7.039v2.348H9.852
l0.172,9.77l6.382-9.77h-2.488l0.028-2.348h7.964v2.348h-2.273l-5.082,8.039l5.082,12.281h2.273v2.703h-7.961v-2.531l2.985-0.051
l-4.231-9.566l-2.851,3.93v5.563h2.074v2.656H4.649z M4.649,33.922"/>
<path fill="#100F08" d="M61.723,21.004l2.73,5.141l-0.472,0.32c0.742,1.238,1.375,2.633,2.133,3.859l0.55-0.063
c0.899,1.719,1.258,2.355,2.434,4.391l-0.531-0.004c0.273,0.906,0.972,1.508,0.988,2.156c0.008,0.809-0.203,1.629,0.297,2.176
c0.586,0.648,0.656,0.828,0.535,1.207c-0.32,1.012,0.594,2.125,1.519,2.027c6.536-0.875,13.196-0.133,19.852,1.879
c4.789,1.508,9.039,3.199,13.063,4.387c1.266,0.379,3.832,0.977,6.039,1.141c6.121,0.449,9.555-0.801,8.523-3.348
c-0.082-0.203-0.266-0.352-0.281-0.457c-0.027-0.191,0-0.402,0.348-0.688c1.004-1.027,0.445-1.773-0.168-2.906
c0,0,7.863-14.043,11.789-21.043L61.723,21.004z M129.785,22.266l-5.734,9.906c-3.07-0.559-3.789,2.023-3.836,2.383
c-3.984-1.02-3.371,4.145-1.375,4.496c0.133,0.746-3.273,1.68-5.066-0.078c2.758,0.371,3.734-3.277,0.367-4.086
c4.438-3.301-3.891-8.238-3.988-1.414c-3.914-0.691-3.406,4.484-0.922,4.887c-1.273,1.398-5.008,1.438-6.961-1.512
c3.324,1.723,5.121-2.727,1.668-3.977c4.258-3.73-4.078-7.176-3.883-1.141c-3.145-1.863-5.305,2.887-1.109,3.613
c-0.238,0.855-5.734,0.863-7.129-1.348c3.898,0.891,4.078-3.855,0.637-4.238c3.453-4.379-5.309-6.594-3.836-0.617
c-3.386-1.34-4.664,2.879-1.367,4.234c0.184,0.672-5.336,1.242-7.269-1.18c4.242-0.637,2.758-4.75,0.008-4.418
c0,0,0.042-0.121,0.195-0.52c1.297-4.129-5.68-4.473-4.711-0.098c0.152,0.406,0.324,0.941,0.324,0.941
c-1.922-0.391-3.098,0.391-2.957,2.195c0.477,2.395,1.742,2.219,3.363,1.742c0.68,0.711-3.906,3.082-6.785,0.965
c3.524-1.016,1.738-5.145-1.211-4.59c-0.121-1.316-1.554-3.168-3.422-2.266l-1.98-3.887L129.785,22.266z M135.551,77.293
l-4.141,0.063c-2.906,2.969-23.973,22.375-20.426,51.684c1.52,12.535,5.02,23.382,14.379,36.191l2.5-1.465l0.383,0.254
l25.938-14.918l0.012-4.531l-30.105,12.629c-0.598-0.637-0.949-1.344-1.453-2.125l12.066-5.129c0,0,0.289-0.735,0.383-1.07
c3.965-10.036,12.023-17.301,19.039-22.914c-0.039-9.879-0.082-30.566-0.082-30.566l-18.141-18.063
c-2.328,2.125-4.391,4.313-6.453,6.688l20.828,27.414l-1.848,1.199l-20.605-27.27C130.262,82.43,132.91,79.867,135.551,77.293
L135.551,77.293z M154.055,95.117c0,0-0.098-47.066-0.238-69.793l-10.809,11.09l0.043,47.707L154.055,95.117z M153.137,29.805
l-7.637,7.879l0.086,48.496l-1.965-1.938l0.004-47.188l9.539-9.996L153.137,29.805z M78.817,28.637
c0.23,0.406,0.132,0.961-0.235,1.418c-1.563,1.938,3.344,5.305,6.871,4.719c2.688-0.445,4.977-2.059,3.989-3.285
c-0.805-1-0.278-2.012,0.687-2.004c0.996,0.004,1.793,0.797,0.934,1.879c-1.918,2.41,1.004,5.234,5.473,5.293
c3.16,0.043,4.215-0.734,4.043-2.988c-0.078-1.055,0.129-1.344,0.863-1.504c1.172-0.258,1.762,1.086,0.789,2.109
c-2.098,2.215,0.289,5.469,4.258,5.676c1.453,0.078,1.738,0,3.359-0.914c1.266-0.715,1.711-1.793,1.094-2.633
c-0.801-1.078,0.277-2.371,1.52-1.84c0.891,0.383,1.328,1.063,0.344,2.219c-1.293,1.516-0.68,2.77,1.809,3.613
c1.938,0.66,3.277,0.578,4.184-0.25c0.281-0.258,0.91-0.797,0.902-0.633c-0.609,1.055-1.148,2.031-1.148,2.031
c-4.059,1.809-7.227-1.578-7.121-1.703c-4.184,2.41-7.891,1.902-11.02-2.148c-0.816,0.449-6.648,1.512-10.855-3.105
c-4.25,2.129-8.195,1.234-11.707-1.148c-2.59,2.449-5.324,2.836-8.164,1.66l-0.84-1.691c0.211-0.082,1.125,1.695,5.57,0.867
c1.492-0.277,4.059-2.785,2.621-4.008c-0.656-0.93-0.675-1.352-0.093-1.914C77.512,27.793,78.489,28.082,78.817,28.637
L78.817,28.637z M67.93,30.855c0.25,0.48,0.281,1.281,0.008,0.801c-0.145-0.254-0.895-1.383-0.86-1.418
C67.426,30.211,67.774,30.57,67.93,30.855L67.93,30.855z M153.141,31.242l0.051,62.578l-6.504-6.449l-0.313-49.023L153.141,31.242z
M77.828,34.273l2.047,1.289l-3.668-0.023L77.828,34.273z M89.34,35.352l1.719,1.668l-3.617-0.758L89.34,35.352z M121.551,36.219
l-0.77,1.574C120.34,37.297,120.211,36.246,121.551,36.219L121.551,36.219z M134.547,62.23c1.305-2.93,3.051-6.66,5.879-7.848
c-2.105-4.18-1.832-8.359-0.34-10.652c-2.137-1.988-4.328-4.367-5.688-7.789C127.652,41.895,126.57,54.129,134.547,62.23
L134.547,62.23z M134.344,37.086l0.465,1.141c-6.008,7.355-4.152,17.004,0.199,22.156l-0.625,1.297
C129.063,56.07,126.734,44.215,134.344,37.086L134.344,37.086z M98.43,41.242c6.961,2.043,12.539,5.227,20.586,2.391l0.035,1.566
c-5.121,3.289-15.324-0.184-22.219-2.73c-11.082-4.09-19.707-3.852-25.867-3.383c-0.543-0.105-0.973-1.523-0.105-1.531
C82.383,37.426,80.52,35.988,98.43,41.242L98.43,41.242z M100.004,38.473l2.285,2.426c-1.715-0.539-3.387-1.137-4.938-1.883
L100.004,38.473z M134.895,39.07l0.449,0.617c0.191,0.27-1.266,0.406-1.02,0.094L134.895,39.07z M95.617,43.508
c8.309,3.121,17.457,6.234,23.465,3.441c0,0,0.035,1.188-0.648,1.527c0,0-0.637,0.512-2.754,0.801
c-9.715,0.801-16.023-3.223-23.863-5.602c-2.977-0.898-7.754-1.992-12.661-2.195c-2.914-0.133-7.371,0.285-7.371,0.285
c-0.972-0.082-0.957-0.652-0.964-1.215C79.266,39.422,87.035,40.262,95.617,43.508L95.617,43.508z M135.797,40.516
c0.109-0.004,0.219,0.004,0.324,0.02l0.852,1.086l-1.008,1.602c0,0-0.891-0.816-1.34-1.621
C134.375,41.082,135.047,40.551,135.797,40.516L135.797,40.516z M111.316,40.824l2.633,1.984c-1.98,0.098-4.207,0.172-6.41-0.703
L111.316,40.824z M133.602,41.832c0.211-0.004,0.426,0.215,0.68,0.648c0.492,0.836,0.426,0.996-0.523,1.305
c-1.246,0.398-1.348,0.313-0.941-0.809C133.09,42.215,133.336,41.84,133.602,41.832L133.602,41.832z M137.602,42.348l1.777,1.492
c-0.98,2.555-1.625,5.801,0.348,10.457c-0.219,0.016-1.496,1.277-1.898,1.492C136.703,55.316,134.219,46.086,137.602,42.348
L137.602,42.348z M135.578,44.301l-0.453,2.828c-0.035,0.23-1.969-1.34-1.789-2.125C133.68,44.07,134.855,44.27,135.578,44.301
L135.578,44.301z M132.383,45.293c0.234,0.004,0.602,0.566,1.051,1.305c0.352,0.578,0.281,0.793-0.496,1.496
c-1.145,1.156-1.371,0.777-1.117-1.191C131.945,45.93,132.121,45.293,132.383,45.293L132.383,45.293z M134.75,47.855
c0.156,0.004,0.293,0.039,0.391,0.121l0.133,2.75c0.012,0.25-2.148-0.098-2.434-1.145C132.48,48.91,133.914,47.836,134.75,47.855
L134.75,47.855z M131.898,50.184c0.156-0.023,0.641,0.297,1.098,0.57c0.797,0.473,0.813,0.68,0.129,1.559
c-0.805,1.035-1.207,0.871-1.328-0.93C131.75,50.723,131.699,50.211,131.898,50.184L131.898,50.184z M135.07,51.234
c0.07,0,0.133,0.02,0.188,0.066c0.383,0.328,0.965,3.086,0.719,3.375c-0.348,0.41-2.191-0.137-2.605-0.785
C132.98,53.273,134.398,51.234,135.07,51.234L135.07,51.234z M132.813,54.484c0.211-0.016,0.594,0.129,1.172,0.41
c0.348,0.164,0.926,0.48,1.051,0.75c0.227,0.469-0.148,1.172-0.633,1.75c-0.316,0.387-0.617,0.098-1.238-1.188
C132.664,55.172,132.461,54.508,132.813,54.484L132.813,54.484z M136.535,55.719c0.043,0,0.082,0.008,0.117,0.027
c0.629,0.348,0.523,1.383-0.219,2.145c-0.895,0.918-1.668,0.227-1.051-0.938C135.773,56.215,136.238,55.727,136.535,55.719
L136.535,55.719z M84.715,81.391c-0.543,0.027-1.391,0.52-1.758,0.992c-0.468,0.602-0.875,0.523-1.394,0.48
c-0.617-0.008-1.555,0.129-2.828,0.707c-0.719,0.328-1.047,0.402-2.106,0.457c-0.687,0.031-1.379,0.125-1.531,0.207
c-0.152,0.082-0.649,0.254-1.102,0.387c-0.922,0.27-0.593,0.531-0.062,1.719c2.691,6.902,4.617,14.941,5.32,21.492
c0.789,7.516,0.551,16.625-0.5,23.586c-2.574,0.016-4.195-0.117-6.906-0.07c-1.852,15.047-6.875,26.996-16.91,37.741l27.133,0.071
c3.109-8.293,17.296-14.617,17.761-14.148l0.746,3.023c0,0-10.203,1.461-17.078,14.41c0.703-0.426,3.262-0.129,4.953,1.625
c3.375-4.281,8.915-7.078,8.95-7.012l0.184-0.516c0,0,1.016-0.344,1.91-0.516c0.285-0.055,0.871-0.164,1.262-0.301
c0.602-0.211,0.898-0.434,1.828-0.355c1.938,0.184,3.879-0.375,3.836-0.387c-5.758-15.887-7.121-30.228-4.871-46.883
c2.121,0.016,6.777,0.098,6.777,0.098c0.465-4.68,1.059-9.363,2.496-13.781c1.848-5.676,4.074-10.949,7.656-15.773
c2.023-3.027,3.793-5.184,5.883-8.02l-26.563,0.059c-3.516,5.91-10.285,10.844-15.73,12.898c-1.852,0.695-2.114,0.594-2.422-0.277
c-0.547-1.555-0.52-1.492,0.929-1.902c0.485-0.141,2.032-0.953,4.446-2.086c5.129-2.602,8.656-7.367,10.73-10.586
c0.824-1.27,0.27-0.984-1.141-0.996c-1.293-0.102-1.883-0.5-3.043-1.582c-0.426-0.398-0.613-0.684-0.809-0.66
C89.246,77.668,86.703,80.543,84.715,81.391L84.715,81.391z M90.949,76.363c1.195,1.277,2.613,2.023,4.477,2.27
c-2.98,4.676-6.621,8.332-10.805,10.555l-2.125-5.984C87.707,80.777,89.102,78.348,90.949,76.363L90.949,76.363z M134.246,78.266
c-28.094,25.969-26.441,58.711-6.77,85.309l-2.059,1.238c-18.477-24.758-21.82-61.383,6.41-86.656L134.246,78.266z M116.535,81.434
l6.887-0.016l-4.688,6.078l-6.293-0.023L116.535,81.434z M115.457,81.484l-3.832,6.039l-10.328,0.133
c-6.184,7.621-12.824,11.336-19.582,13.875l-1.32-6.508c0,0,10.703-2.582,17.633-13.621L115.457,81.484z M104.957,81.984
l-2.395,2.648l2.488,2.527l2.27-2.566L104.957,81.984z M110.379,81.922l-2.426,2.52l1.895,2.539l2.512-2.465L110.379,81.922z
M98.422,82.379l-0.414,3.969l3.121,1.023l0.453-3.391L98.422,82.379z M117.402,82.527l-2.266,3.539l3.41,0.055l2.383-3.523
L117.402,82.527z M81.758,83.434l2.207,6.125l-1.937,0.934l-1.969-6.395L81.758,83.434z M79.141,84.414l2.277,6.34l-1.906,0.629
l-2.094-6.598L79.141,84.414z M81.871,109.434c0.254,8.813,0.379,14.125-1.093,21.871c-0.079,0.405-1.661,0.047-1.661,0.047
c0.204,0.066,0.895-8.754,0.836-14.293c-0.101-10.551-1.89-20.988-6.031-31.445c0.789-0.484,2.734-0.73,2.734-0.73
C79.27,92.813,81.586,101.344,81.871,109.434L81.871,109.434z M54.289,85c9.071,12.031,15.551,28.355,14.469,44.46
c-1.039,18.728-8.141,29.521-20.609,42.489l-3.219,0.074c14.762-14.152,21.293-26.267,21.809-42.246
c0.589-18.379-5.024-30.602-14.477-43.629L54.289,85z M25.285,101.539l0.032,4.383l30.894-13.25l-4.457-6.566L25.285,101.539z
M97.695,87.184l-3.363,0.172l0.113,3.395l3.504-0.086L97.695,87.184z M127.676,86.539l20.02,26.254l-4.953,3.68l-19.086-24.672
L127.676,86.539z M111.984,88.332l5.992,0.094l-2.316,3.844l-5.793-0.047L111.984,88.332z M110.875,88.426
c-2.754,5.125-6.555,10.969-8.691,20.414l-19.727,0.016c-0.035-2.156-0.316-4.313-0.636-6.469c8.5-3.109,15.085-7.762,19.929-13.91
L110.875,88.426z M114.523,88.699l-2.57,1.48l1.57,1.809l2.836-1.086L114.523,88.699z M91.043,90.586l-0.851,3.344l3.199,1.23
l0.59-3.973L91.043,90.586z M109.438,93.086l5.75,0.035l-2.422,4.832l-5.695-0.086L109.438,93.086z M123.129,92.453l18.945,24.559
l-1.777,1.406L121.781,94.41L123.129,92.453z M111.621,93.473l-2.594,2.16l1.949,2.25l2.391-1.906
C113.418,95.938,111.621,93.473,111.621,93.473L111.621,93.473z M86.473,93.652l-0.793,3.25l3.324,0.887l0.594-3.488L86.473,93.652z
M81.875,95.816l-0.676,3.199l3.133,0.848l0.66-3.086L81.875,95.816z M56.02,95.492c0.16-0.031-0.524,3.813-1.531,4.504
c-0.481,0.332-0.731,0.258-1.149-0.191c-0.289-0.313-1.59-2.438-1.59-2.438l1.114-0.559c1.347,2.16,1.347,1.113,1.859-0.727
L56.02,95.492z M50.824,97.707c0.442-0.004,0.977,0.543,1.582,1.605c0.872,1.535,0.844,1.637-0.593,2.078
c-2.582,0.684-3.543,0.848-2.746-0.859C49.922,98.699,50.258,97.711,50.824,97.707L50.824,97.707z M58.516,97.402l1.769,3.027
c-7.089,18.047-18.523,30.995-34.261,38.832l-0.039-3C44.543,125.699,52.153,113.223,58.516,97.402L58.516,97.402z M106.715,98.707
l5.582,0.102l-1.492,4.266l-5.93-0.043L106.715,98.707z M49.149,98.52c-4.539,10.824-10.746,20.266-23.153,28.237l-0.05-2.874
c13.933-8.398,19.957-24.125,19.957-24.133L49.149,98.52z M119.676,98.504c3.301,0.09,6.777,3.691,6.426,6.66
c-0.25,2.09,0.152,3.645,0.719,2.785c1.262-1.891,4.969-0.633,4.934,1.641c-0.016,1.211-0.824,1.406-1.289,0.316
c-0.684-1.613-2.609-1.652-2.895,0.039c-0.266,1.582,1.078,2.746,4.668,4.047c4.211,0.984,6.742,4.758,5.246,6.926
c-0.52,0.574-0.832,0.715-0.93,0.418c-0.031-0.086-0.133-0.535-0.23-0.992c-0.477-2.273-1.566-3.227-2.887-2.449
c-0.664,0.391-0.582,0.91-0.195,1.594c0.516,0.91,0.195,1.262-0.727,0.797c-1.457-0.73-1.938-2.465-0.527-3.262
c1.68-0.672,1.109-0.816-1.035-1.543c-4.566-1.559-6.523-4.422-6.766-9.875c0.09-2.484-0.25-3.371-1.422-3.711
c-1.07-0.309-2.281,1.051-1.512,1.766c0.418,0.391,0.758,0.742,0.535,0.957c-0.707,0.691-2.484-0.43-2.465-1.629
c0.012-0.785,0.309-0.945,1.48-1.867c0.328-0.258,0.051-0.738-0.426-0.746C118.582,100.953,118.707,98.578,119.676,98.504
L119.676,98.504z M109.332,99.133l-2.789,1.602l1.449,2.031l3.09-1.453L109.332,99.133z M55.059,100.707
c0.32,0,0.582,0.258,0.582,0.578s-0.262,0.582-0.582,0.582c-0.32,0-0.582-0.262-0.582-0.582S54.739,100.707,55.059,100.707
L55.059,100.707z M60.778,100.957c5.886,12.848,7.285,27.543,3.187,42.227l-15.898-20.688
C54.168,115.629,58.27,107.77,60.778,100.957L60.778,100.957z M39.274,101.902l-14.188,5.961L25.008,118.5
C32.934,113.09,36.297,107.551,39.274,101.902L39.274,101.902z M52.91,101.813c1.399-0.043,0.707,3.73-1.105,5.02
c-0.668,0.512-1.117,0.449-1.336-0.574c-0.113-0.531-0.672-1.652-1.375-2.555c-0.816-1.051-0.809-1.078,0.387-1.152
C50.801,102.57,51.879,101.938,52.91,101.813L52.91,101.813z M51.528,103.418c-1.032-0.016-1.34,0.465-0.727,1.125
c0.52,0.559,0.93,0.438,1.277-0.367C52.289,103.688,52.098,103.426,51.528,103.418L51.528,103.418z M25.942,117.215l0.035-9.027
l12.133-5.109C35.676,108.352,31.168,113.582,25.942,117.215L25.942,117.215z M133.715,124.508l-1.613,1.624l-15.664-20.417
l0.98-2.574L133.715,124.508z M47.883,103.855c0.527,0.008,1.715,1.828,2.051,3.137c0.246,0.969-0.016,1.176-1.856,1.449
c-0.761,0.207-2.816,0.008-2.652-0.543C45.727,107.109,47.699,103.855,47.883,103.855L47.883,103.855z M104.621,104.066l5.715,0.059
l-1.309,4.691l-5.984-0.09L104.621,104.066z M107.148,104.352l-2.66,1.84l2.102,2.074l2.82-1.742L107.148,104.352z M116.113,106.367
l15.844,20.563c-4.727,6.012-9.441,12.918-12.543,22.047C113.773,135.785,111.711,122.941,116.113,106.367L116.113,106.367z
M51.766,108.117c0.32,0,0.582,0.258,0.582,0.578s-0.262,0.586-0.582,0.586c-0.32,0-0.578-0.266-0.578-0.586
S51.446,108.117,51.766,108.117L51.766,108.117z M49.942,108.902c0.992,0.07,0.058,3.219-1.434,4.367
c-1.172,0.906-1.676,0.484-1.949-1.172c-0.098-0.598-0.727-1.617-1.281-2.418c-0.618-0.898-0.364-1.043,1.207-0.68
C47.578,109.211,48.93,108.953,49.942,108.902L49.942,108.902z M102.895,109.672l5.992,0.035l-0.926,7.117L102.895,109.672z
M44.508,110c0.945,0.879,2.141,3.969,1.527,4.191c-0.711,0.258-3.933-0.117-4.293-0.488c-0.25-0.254-0.25-0.254,0.278-0.961
c0.289-0.387,0.84-1.16,1.226-1.719C43.594,110.617,43.981,109.512,44.508,110L44.508,110z M47.848,110.105
c-0.914,0.031-0.977,0.156-0.543,1.141c0.355,0.801,0.598,0.871,1.207,0.348C49.356,110.859,49,110.066,47.848,110.105
L47.848,110.105z M153.023,110.723l0.215,3.512c-23.035,11.426-31.66,38.397-31.785,38.397l-1.672-3.112
C130.352,123.477,144.41,115.934,153.023,110.723L153.023,110.723z M44.485,114.875c1.371-0.027,1.773-0.121,1.765,0.387
c0.016,1.367-1.261,3.305-2.824,4.039c-1.051,0.492-1.074,0.504-1.191-0.734c-0.094-0.953-0.403-2.18-0.899-3.156
c-0.152-0.359-0.75-1.191,0-0.953C42.082,114.691,43.629,114.895,44.485,114.875L44.485,114.875z M47.563,114.559
c0.32,0,0.578,0.258,0.578,0.578s-0.258,0.578-0.578,0.578c-0.324,0-0.582-0.258-0.582-0.578S47.239,114.559,47.563,114.559
L47.563,114.559z M40.223,115.359c0.246-0.008,0.484,0.5,0.766,1.254c0.617,1.633,0.804,2.52,0.621,2.902
c-0.278,0.594-4.059,0.211-4.704-0.453C36.785,119.156,39.688,115.688,40.223,115.359L40.223,115.359z M42.942,115.762
c-0.539,0.039-0.254,0.363,0.148,1.309c0.277,0.656,0.656,0.762,1.086,0.305c0.574-0.617,0.652-1.102,0.289-1.367
C43.93,115.797,43.539,115.766,42.942,115.762L42.942,115.762z M153.184,119.313l0.02,1.176c-0.898-0.266-1.453-0.648-2.477-0.988
c-0.625-0.207-0.996-0.359-0.441-1.02c0.867-1.035,1.797-1.68,2.855-2.32l0.004,1.332
C151.453,118.238,151.621,118.93,153.184,119.313L153.184,119.313z M86.602,118.117h6.363v4.203h4.977l-0.387,4.789h-4.59v4.199
h-6.363v-4.199h-4.547l0.367-4.789h4.18V118.117z M100.973,118.133c-3.223,15.969-0.266,32.918,4.707,46.73l-2.512,0.277
c-3.875-11.047-6.953-26.77-3.82-47C99.348,118.141,100.469,118.121,100.973,118.133L100.973,118.133z M148.207,118.441
c0.32,0,0.578,0.262,0.578,0.582s-0.258,0.578-0.578,0.578s-0.578-0.258-0.578-0.578S147.887,118.441,148.207,118.441
L148.207,118.441z M36.258,119.781c0.211-0.004,0.859,0.273,1.434,0.434c0.863,0.242,1.547,0.344,2.332,0.359
c1.582,0.031,1.789,0.016,1.109,1.316c-0.492,0.938-1.594,2.176-2.367,2.555c-1.094,0.582-1.516,0.504-1.449-0.574
c0.007-0.73-0.309-2-0.723-2.902C36.274,120.266,35.906,119.793,36.258,119.781L36.258,119.781z M42.953,120.297
c0.321,0,0.582,0.258,0.582,0.578s-0.261,0.582-0.582,0.582c-0.324,0-0.582-0.262-0.582-0.582S42.633,120.297,42.953,120.297
L42.953,120.297z M150.023,120.219c0.449-0.008,1.219,0.266,1.922,0.605c1.859,0.906,1.809,1.113-0.711,2.902
c-1.832,1.387-2.266,1.543-2.328-0.645C148.84,121.234,149.039,120.238,150.023,120.219L150.023,120.219z M35.305,120.746
c0.738,0.012,1.555,3.855,0.891,4.199c-1.032,0.535-4.231-0.508-4.219-1.383C31.981,123.277,34.981,120.742,35.305,120.746
L35.305,120.746z M147.801,120.59c0.441-0.02,0.5,0.328,0.461,1.551c-0.023,0.648,0.09,1.707,0.133,2.203
c0.094,1.023,0.008,1.094-0.801,0.637c-0.52-0.293-1.574-0.773-2.711-0.871c-0.934-0.082-1.004-0.465-0.715-1.082
C144.992,121.664,146.488,120.707,147.801,120.59L147.801,120.59z M38.047,121.168c-0.644-0.004-0.484,0.34-0.086,1.301
c0.285,0.684,0.774,0.75,1.278,0.168c0.707-0.816,0.57-1.246-0.458-1.402C38.563,121.203,38.196,121.172,38.047,121.168
L38.047,121.168z M146.949,122.086c-0.27,0.023-0.637,0.234-0.813,0.348c-0.605,0.383-0.852,0.656,0.027,0.957
c0.781,0.266,1.195,0.383,1.137-0.289C147.262,122.695,147.293,122.105,146.949,122.086L146.949,122.086z M87.219,122.582v4.188
h5.066v-4.188H87.219z M142.422,122.945c0.32,0,0.578,0.258,0.578,0.578s-0.258,0.582-0.578,0.582s-0.578-0.262-0.578-0.582
S142.102,122.945,142.422,122.945L142.422,122.945z M47.586,123.598l15.981,20.516l-1.063,2.672l-16.461-21.656L47.586,123.598z
M153.285,123.5l0.035,2.683c-1.809,1.32-13.273,9.63-19.207,23.613l-3.105,1.325C135.383,139.082,144.73,128.773,153.285,123.5
L153.285,123.5z M31.703,124.637c1.039,0.316,2.032,1.039,3.016,1.168c1.129,0.141,1.52,0.066,1.211,0.653
c-0.684,1.304-1.977,2.67-3.34,3.116c-0.973,0.32-1.434,0.203-1.281-0.406c0.285-1.133,0.336-2.063,0.297-3.094
C31.762,125.512,31.281,124.723,31.703,124.637L31.703,124.637z M30.481,124.875c0.664,0.566,0.535,4.152-0.207,4.926
c-0.387,0.402-1.508,0.034-3.192-0.923c-1.101-0.621-1.308-1.003-0.758-1.386C27.254,126.93,29.981,124.742,30.481,124.875
L30.481,124.875z M144.664,124.953c0.348-0.008,0.773,0.051,1.289,0.172c1.988,0.445,2.434,0.898,0.734,2.25
c-0.625,0.496-1.293,1.117-1.484,1.355c-0.914,1.121-1.551,0.309-1.75-1.728C143.313,125.578,143.527,124.77,144.664,124.953
L144.664,124.953z M142.172,125.145c0.324,0,0.531,0.172,0.523,0.574c-0.008,0.512,0.363,2.738,0.57,3.352
c0.355,1.043,0.098,1.277-0.766,0.82c-0.629-0.336-2.293-0.595-3.195-0.523c-1.023,0.078-0.992-0.196-0.695-1.055
C139.141,126.789,141.199,125.148,142.172,125.145L142.172,125.145z M32.676,125.887c-0.391,0-0.406,0.523-0.141,1.727
c0.086,0.383,0.414,0.359,1.036-0.078c0.734-0.516,0.707-0.84-0.122-1.336C33.106,125.996,32.852,125.887,32.676,125.887
L32.676,125.887z M37.203,126.02c0.325,0,0.582,0.258,0.582,0.578s-0.257,0.578-0.582,0.578c-0.32,0-0.578-0.258-0.578-0.578
S36.883,126.02,37.203,126.02L37.203,126.02z M140.277,128.27c0.281,0.273,1.309,0.262,1.484,0.098
c0.273-0.25,0.145-1.414-0.082-1.555C141.102,126.617,139.934,127.839,140.277,128.27L140.277,128.27z M44.352,130.484
c0.351,1.656,2.679,1.562,2.418-0.164c-0.153-1.008-0.188-0.988,0.316-0.965c2.406,0.117,1.988,3.91-0.785,3.617
c-0.578,0.07-0.652,0.309-0.164,0.512c0.484,0.203,2.352,0.68,2.637,0.68c3.019-0.012,7.371,4.629,7.265,8.746
c-0.07,2.691,0.84,4.629,1.774,4.847c0.742,0.177,1.82-0.5,1.726-1.323c-0.129-1.138,0.797-0.781,1.328,0.035
c0.813,1.129-0.234,2.758-2.168,2.629c-0.824,0.159,0.602,0.684,1.661,0.987c0.961,0.056,0.148,1.239-0.028,1.45
c-0.543,0.629-2.32,0.148-3.715-0.977c-1.711-1.383-2.449-3.234-2.648-6.875c-0.133-2.336-0.305-2.813-0.984-1.849
c-1.227,2.153-4.153,1.099-4.52-1.175c-0.203-1.203,0.856-2.071,1.199-0.98c0.907,2.27,3.129,1.723,2.766-0.527
c-0.238-1.484-1.723-2.305-4.66-3.133c-3.528-0.992-4.578-2.203-5.266-5.099c-0.305-1.28-0.258-1.948,0.422-2.62
c0.332-0.332,0.758-0.669,0.758-0.669S44.156,129.582,44.352,130.484L44.352,130.484z M136.684,128.645
c0.32,0,0.578,0.258,0.578,0.582c0,0.319-0.258,0.578-0.578,0.578s-0.582-0.259-0.582-0.578
C136.102,128.902,136.363,128.645,136.684,128.645L136.684,128.645z M25.895,129.195c1.051,0.383,1.953,0.945,3.039,1.312
c0.703,0.239,0.512,0.806-0.219,1.603c-0.812,0.961-1.609,1.43-2.734,1.965l0.011-1.621c1.368-0.477,2.239-1.618-0.058-1.98
L25.895,129.195z M139.418,130.102c0.398,0.004,0.961,0.016,1.621,0.151c1.676,0.349,1.871,0.497,0.867,1.673
c-0.375,0.438-0.93,1.094-1.234,1.465c-0.988,1.379-1.523,0.905-1.984-0.875C138.117,130.652,137.984,129.938,139.418,130.102
L139.418,130.102z M31.149,130.766c0.32,0,0.578,0.258,0.578,0.578s-0.258,0.577-0.578,0.577c-0.325,0-0.582-0.257-0.582-0.577
S30.824,130.766,31.149,130.766L31.149,130.766z M137.727,132.027c0.16,0.586,0.402,1.336,0.59,1.867
c0.906,2.004,0.332,1.227-1.297,1.051c-1.094-0.117-2.836,0.066-3.266-0.238c-0.191-0.243-0.016-0.887,0.336-1.613
c0.492-1.023,1.391-1.895,2.063-2.289C137.852,130.02,137.453,131.016,137.727,132.027L137.727,132.027z M39.875,131.313
l18.258,24.137l-1.434,2.043l-18.777-24.821L39.875,131.313z M154.285,131.402c-9.488,6.859-13.133,15.18-13.875,16.269
l13.914-5.366L154.285,131.402z M136.168,132.191c-0.523,0.141-1.27,1.104-0.949,1.483c0.195,0.2,0.961,0.224,1.328,0.091
C137.109,133.559,136.723,132.188,136.168,132.191L136.168,132.191z M56.164,158.293l-3.886,4.898l-20.262-26.207l5.113-3.691
L56.164,158.293z M153.273,132.82l0.145,9.008l-11.902,4.961C145.5,140.059,149.406,135.898,153.273,132.82L153.273,132.82z
M71.906,133.585l4.766,6.204l-5.824-0.133L71.906,133.585z M132.172,134.094c0.32,0,0.578,0.258,0.578,0.577
c0,0.321-0.258,0.579-0.578,0.579s-0.578-0.258-0.578-0.579C131.594,134.352,131.852,134.094,132.172,134.094L132.172,134.094z
M135.664,135.563c2.18,0.026,2.906,0.145,2.273,1.219c-0.844,1.043-1.344,2.039-2.266,3.004c-0.535,0.543-1.199-0.575-1.758-2.364
c-0.449-1.444-0.219-1.808,0.633-1.819C135.402,135.589,135.547,135.559,135.664,135.563L135.664,135.563z M133.148,137.516
c0.176,0.569,0.594,1.508,0.926,2.082c0.332,0.57,0.703,1.207,0.68,1.316c-0.055,0.27-0.309,0.289-0.883,0.074
c-1.242-0.559-4.164,0.031-4.242-0.242c-0.434-0.618,0.219-2.305,1.445-3.473c0.598-0.57,1.145-0.938,1.465-0.945
C132.855,136.324,132.91,136.762,133.148,137.516L133.148,137.516z M31.317,137.07l20.617,26.773l-1.43,1.738l-20.848-27.293
c0,0-3.289,1.613-4.257,2.152l0.129,13.848l-0.563-0.027l0.082,70.137l11.504-11.469l-0.148-47.595c2.441,2.297,4.531,4.747,7.324,7
l4.785-0.039C61,159.594,67.84,148.723,69.344,129.253c1.004-13.022-3.324-29.401-14.801-45.272l-2.804,1.703l5.539,8.344
l-11.731,5.199c-4.672,9.848-10.211,18.938-20.34,24.141l-0.054,12.75l-0.18,0.261l0.137,4.004L31.317,137.07z M132.113,137.984
c-0.547,0.043-1.402,1.223-1.012,1.625c0.461,0.223,1.176,0.207,1.473-0.191C132.777,139.031,132.727,138.21,132.113,137.984
L132.113,137.984z M70.614,140.742l6.054,0.035l-1.582,5.195l-5.898-0.113L70.614,140.742z M128.129,140.719
c0.32,0,0.578,0.258,0.578,0.577c0,0.325-0.258,0.582-0.578,0.582s-0.582-0.257-0.582-0.582
C127.547,140.977,127.809,140.719,128.129,140.719L128.129,140.719z M97.281,140.878l0.781,6.743
c-6.602,2.402-13.723,6.477-19.949,13.964c-1.067-0.069-9.559,0.075-9.559,0.075c0.215,0.031,7.871-14.414,8.75-20.688
L97.281,140.878z M73.301,141.507l-2.777,1.907l2.172,2.313l2.875-1.945L73.301,141.507z M131.086,141.535
c0.59-0.004,1.379,0.066,2.016,0.179c1.023,0.2,1.172,0.22,0.828,1.063c-0.461,1.121-1.5,3.141-1.762,3.305
c-0.938,0.578-3.02-3.59-2.309-4.309C130.047,141.625,130.445,141.539,131.086,141.535L131.086,141.535z M128.43,142.816
c0.27-0.023,0.625,0.496,0.73,0.945c0.129,0.547,1.074,1.922,1.672,2.582c0.746,0.827,0.707,0.945-0.363,1.031
c-1.277,0.102-2.527,0.355-3.246,0.613c-1.113,0.406-1.266,0.316-1.121-0.985C126.316,145.039,127.625,142.887,128.43,142.816
L128.43,142.816z M127.453,146.875c0.137,0.378,1.867-0.316,1.965-0.773c-0.02-0.207-0.695-1.388-1.105-1.441
C127.621,144.766,127.332,146.335,127.453,146.875L127.453,146.875z M69.028,146.609l5.722,0.055l-1.875,4.714l-5.66-0.015
L69.028,146.609z M71.59,147.238l-2.742,1.734l2.137,2.066l2.625-1.809L71.59,147.238z M129.785,148.094
c0.484-0.005,1,0.043,1.105,0.223c0.305,0.5-0.934,3.297-0.934,3.297l-2.016,0.801c-0.434-0.895-1.176-1.82-1.355-2.789
c-0.07-0.422,0.141-0.579,0.609-0.84C127.891,148.395,128.973,148.102,129.785,148.094L129.785,148.094z M124.379,148.324
c0.32,0,0.582,0.258,0.582,0.578s-0.262,0.578-0.582,0.578s-0.578-0.258-0.578-0.578S124.059,148.324,124.379,148.324
L124.379,148.324z M98.285,148.402c0,0,1.234,6.988,1.305,6.219c-9.547,3.593-15.129,8.898-17.773,14.07L63.91,168.68l3.996-6.199
l10.602-0.055C83.633,156.207,89.953,151.25,98.285,148.402L98.285,148.402z M95.992,150.046l-0.883,2.825l2.676,1.707l1.008-3.032
L95.992,150.046z M125.324,150.102c0.227-0.02,0.449,0.362,0.91,1.18c0.34,0.601,0.789,1.48,0.789,1.48l-0.801,0.297
c-0.648-2.207-1.238-1.388-1.309,0.563l-1.098,0.438c0,0,0.121-1.879,0.746-2.974C124.922,150.453,125.125,150.121,125.324,150.102
L125.324,150.102z M66.957,152.035l5.551,0.066l-2.32,4.809l-5.645-0.153L66.957,152.035z M91.16,152.418l-0.438,3.57l2.988,0.633
l0.406-3.391L91.16,152.418z M69.317,152.46l-2.743,1.774l1.801,2.367l2.637-1.773L69.317,152.46z M86.875,155.585l-0.566,3.286
l2.801,0.636l0.636-3.304L86.875,155.585z M25.949,155.777l7.016,6.957l0.387,48.519l-6.977,6.997L25.949,155.777z M64.121,157.555
c-0.023,0.039,5.598,0.159,5.598,0.159l-2.25,4.063l-1.922-0.086l2.527-1.728l-1.621-2.073l-2.597,1.694l1.449,2.099l-3.797-0.082
L64.121,157.555z M100.316,158.757l1.902,6.294l-2.289,0.398l-1.723-5.922C98.91,159.164,99.613,158.984,100.316,158.757
L100.316,158.757z M82.317,159.148l0.035,3.776l3.058,0.259l0.121-3.539L82.317,159.148z M97.516,159.753l1.746,5.981l-1.453,0.414
l-2.086-5.68C96.293,160.132,96.891,159.887,97.516,159.753L97.516,159.753z M94.863,160.988l2.242,5.855
c-3.098,1.254-6.305,3.941-8.719,6.62c-1.793-1.315-2.844-1.452-3.949-1.754C87.485,166.039,91.082,163.059,94.863,160.988
L94.863,160.988z M61.059,162.457l5.883,0.175l-4.09,6.114l-6.66-0.008L61.059,162.457z M78.578,162.684l-0.382,3.573l3.148,1.864
l0.48-3.672L78.578,162.684z M74.781,163.184l-2.238,2.366l2.379,2.716l2.18-2.832L74.781,163.184z M69.774,163.309l-2.66,2.441
l2.113,2.762l2.433-2.777L69.774,163.309z M35.875,165.585l0.262,47.399l-9.777,9.476l-0.071-2.55l7.77-8.117
c0.008-16.031-0.043-32.066-0.098-48.098L35.875,165.585z M61.883,164.055l-2.699,3.68l3.203,0.008l2.32-3.563L61.883,164.055z
M45.239,186.992c-1.067,3.828-5.973,7.984-6.059,7.914c2.426,3.48,2.344,8.445,0.203,10.89c0.012-0.054,3.906,3.181,4.453,4.86
c0.309,0.668,0.43,1.48,0.82,2.144c0.106,0.177,0.434,0.614,0.434,0.614C54.606,203.766,50.074,192.457,45.239,186.992
L45.239,186.992z M45.379,187.992c9.238,11.461,3.149,21.953-0.074,24.879l-0.617-1.016c6.867-7.978,3.957-17.781-0.043-22.422
L45.379,187.992z M44.379,190.223c0.063,0.188,0.422,0.727,0.156,0.691l-0.464-0.094L44.379,190.223z M44.309,191.5
c0.203,0,0.371,0.063,0.461,0.203c0.188,0.313-0.766,2.949-1.356,2.332c-0.179-0.348-0.386-0.648-0.55-1.008
c-0.196-0.43-0.067-0.637,0.375-1.067C43.539,191.668,43.977,191.5,44.309,191.5L44.309,191.5z M45.637,192.214
c0.469,0.039,1.133,1.509,1.195,2.56c0.028,0.108-1.578-0.25-2.004-0.738C44.879,193.605,45.281,192.512,45.637,192.214
L45.637,192.214z M42.024,193.414c2.781,5.593,2.609,9.961,0.16,13.98l-1.918-1.642c1.289-3.054,1.926-6.315-0.246-10.468
L42.024,193.414z M43.903,194.816c0.191-0.021,0.785,0.07,1.312,0.238c1.859,0.594,1.93,1.813,0.137,2.707
c-0.742,0.37-0.973,0.207-1.403-1.656C43.739,195.184,43.578,194.844,43.903,194.816L43.903,194.816z M47.496,196.957
c0.36,0,0.524,0.675,0.567,1.848c0.043,1.109-0.196,1.195-1.09,0.405c-0.965-0.858-1.133-1.062-0.246-1.765
C46.989,197.238,47.332,196.957,47.496,196.957L47.496,196.957z M44.957,198.793c0.18-0.016,0.692,0.313,1.196,0.695
c1.273,0.969,0.988,1.633-0.457,2.101c-1,0.329-0.95,0.368-0.926-1.366C44.781,199.367,44.731,198.813,44.957,198.793
L44.957,198.793z M61.809,200.371c-1.551,0.395-2.203,1.777-1.688,3.027c0.235,0.565,0.59,0.57,0.172,0.918
c-0.469,0.539-0.715,1.785-0.203,2.238c0.606,0.348,0.762-0.255,0.125,0.918l-11.703,21.5l70.25-0.129l-8.441-15.816
c0.02-0.024,0.676-2.609-0.676-2.922c-0.434-0.099-0.684-0.5-0.77-0.887c0.109-1.102-0.391-1.57-0.813-2.137
c-6.676,0.941-12.477,0.473-17.27-0.605c-6.902-1.552-11.836-4.242-15.043-5.086C71.324,200.227,65.985,199.723,61.809,200.371
L61.809,200.371z M65.594,200.52c5.445-0.035,11.539,1.633,15.801,3.477c4.426,1.828,9.113,3.191,13.848,3.891
c3.91,0.491,7.809,0.241,11.547-0.055c0.406-0.059,0.832-0.004,1.133,0.32c0.777,0.859,0.25,1.398-1.688,1.578
c-3.113,0.258-6.973,0.147-10.398-0.367c-5.418-0.621-11.164-2.262-16.125-4.317c-6.195-2.323-11.887-3.101-16.383-2.418
c-2.468,0.379-2.832,0.438-2.824-0.226C60.524,201.109,61.594,200.516,65.594,200.52L65.594,200.52z M47.758,204.27
c-0.238,0.551-1.93-1.246-1.914-1.75c0.035-0.227,1.406-1.117,1.949-1.48c0.262-0.204,0.246-0.098,0.25,0.136
C48.051,201.855,48,203.602,47.758,204.27L47.758,204.27z M45.153,202.945c0.781,0.104,2.066,2.215,0.933,2.543
c-1,0.289-1.914,0.476-2.035-0.195c0.516-1.652,0.711-2.305,1.008-2.344C45.09,202.945,45.121,202.945,45.153,202.945
L45.153,202.945z M90.582,210.148c4.984,0.863,11.531,1.379,15.809,1.047c2.453-0.25,2.969-0.168,2.953,0.851
c-0.008,0.642,0.063,0.625-3.105,0.625c-2.629,0.173-4.996-0.108-7.543-0.237c-5.27-0.263-10.055-1.168-14.48-2.703
c-4.91-1.273-9.16-3.719-13.965-4.224c-4.402-0.433-8.363,0.349-9.195,0.81c-0.277-0.004-0.422-0.414-0.406-0.793
c0.015-0.371,0.152-0.668,0.465-0.906C73.739,201.434,80.496,208.253,90.582,210.148L90.582,210.148z M46.801,205.934
c0.422,0.004,0.285,0.625-0.402,1.944c-0.586,1.122-0.817,1.114-1.145-0.034c-0.355-1.23-0.32-1.363,0.379-1.548
C46.047,206.199,46.399,205.984,46.801,205.934L46.801,205.934z M43.856,206.559c0.492,0.008,1.191,2.237,0.832,2.66
c-0.282,0.332-1.309,0.105-1.61-0.285C42.598,208.3,43.215,206.546,43.856,206.559L43.856,206.559z M65.926,207.16
c1.957-0.02,3.91,0.191,5.703,0.5c-1.031,0.379-2.058,0.734-3.133,1.352C67.754,208.375,66.914,207.757,65.926,207.16L65.926,207.16
z M68.469,209.871c6.922-3.859,9.844,1.468,10.844,2.328c6.051-1.34,7.234-0.68,10.609,2.969c6.059-2.965,8.996-0.445,11.527,1.148
c2.965-2.773,6.727-2.853,8.688-1.457c0.367,0.613,0.875,1.391,0.918,1.621c0.031,0.184-0.242-0.027-0.926-0.517
c-3.559-2.546-9.465,0.625-7.887,3.981c0.426,0.902,0.359,1.293-0.277,1.656c-0.902,0.608-2.012-0.402-1.383-1.438
c1.051-1.727,0.262-3.172-2.293-4.504c-3.598-1.883-9.476,0.227-8.265,3c0.773,0.886,0.054,1.508-0.965,1.477
c-1.16-0.035-1.551-0.809-0.809-1.637c0.926-1.055,0.684-2.125-0.394-3.348c-3.235-4.603-9.77-2.777-8.907,1.258
c0.383,1-0.699,1.406-1.82,0.961c-0.715-0.286-0.605-1.387,0.172-1.777c0.902-0.091,1.027-1.395,0.922-2.23
c-0.156-1.215-1.949-2.41-3.723-3.047c-1.285-0.461-2.476-0.56-3.418-0.473c-1.988,0.18-3.097,1.531-2.77,3.551
c0.195,1.194-0.141,2.43-1.539,1.773c-0.766-0.355-0.575-1.223,0.207-2.023c2.75-2.688-2.789-5.953-6.133-3.703
c-0.567,0.465-0.981,0.547-0.981,0.547C61.965,204.77,68.531,209.656,68.469,209.871L68.469,209.871z M77.586,209.168l4.18,1.574
c-0.965,0.191-1.645,0.461-2.328,0.73L77.586,209.168z M66.672,210.867c-3.859-0.735-4.066,3.578-1.555,4.281
c-3.457,4.75,5.598,6.594,3.938,0.729c4.586,0.829,3.758-4.394,0.344-4.343c0.8-1.946,7.097-0.473,6.824,0.972
c-4.258,0.45-2.555,4.328-0.715,4.337c-4.449,4.215,4.457,8.098,4.223,1.745c3.574,0.75,3.996-3.995,0.558-4.304
c1.258-1.773,5.754-0.657,7,1.367c-3.547,0.473-3.328,3.586-0.55,4.09c-3.52,4.48,5.14,6.136,4.238,0.929
c3.105,1.067,4.809-3.073,0.789-4.257c4.117-2.454,8.586,1.203,8.102,1.277c-4.699-0.277-3.762,4.43-0.363,4.176
c-2.16,4.89,6.41,5.16,4.238,0.09c3.855,0.07,3.516-4.395-0.18-4.695c2.328-1.695,4.949-1.844,6.637-0.259
c-3.516,0.927-2.055,5.013,1.484,3.879c0.324,3.423,3.105,2.696,3.168,2.595l2.488,4.641l-67.406,0.105l5.75-10.617
c3.402,0.176,3.281-3.099,3.133-3.18c2.261,1.617,4.691-2.398,1.382-3.548C62.903,208.051,66.91,210.664,66.672,210.867
L66.672,210.867z M44.727,210.57c-0.141,0.144-0.176,0.229-0.41,0.015C43.731,209.914,45.328,209.855,44.727,210.57L44.727,210.57z
M58.664,212.348c0.297,0.241,0.094,0.909-0.148,1.137c-0.606,0.647-0.813,0.598-0.277-0.524
C58.399,212.621,58.547,212.344,58.664,212.348L58.664,212.348z M88.196,212.648l3.507,0.848l-1.665,0.938
C89.422,213.766,88.832,213.191,88.196,212.648L88.196,212.648z M99.152,214.059l3.809,0.246c-0.504,0.34-0.996,0.659-1.613,1.284
C100.867,215.078,99.961,214.57,99.152,214.059L99.152,214.059z M111.848,217.945c0.211,0.445,1.055,1.979,0.977,2.019
C111.59,220.18,111.258,218.348,111.848,217.945L111.848,217.945z M111.848,217.945"/>
</svg>
