<?xml version="1.0" encoding="utf-8"?>
<!DOCTYPE svg PUBLIC "-//W3C//DTD SVG 1.1//EN" "http://www.w3.org/Graphics/SVG/1.1/DTD/svg11.dtd" [
<!ENTITY ns_svg "http://www.w3.org/2000/svg">
<!ENTITY ns_xlink "http://www.w3.org/1999/xlink">
]>
<svg version="1.1" id="Layer_1" xmlns="&ns_svg;" xmlns:xlink="&ns_xlink;" width="179.379" height="250.246"
viewBox="0 0 179.379 250.246" overflow="visible" enable-background="new 0 0 179.379 250.246" xml:space="preserve">
<path fill="#FFFFFF" d="M8.903,0.398h161.574c4.711,0,8.504,3.793,8.504,8.504v232.441c0,4.711-3.793,8.504-8.504,8.504H8.903
c-4.711,0-8.504-3.793-8.504-8.504V8.902C0.399,4.191,4.192,0.398,8.903,0.398L8.903,0.398z M8.903,0.398"/>
<path fill="none" stroke="#000000" stroke-width="0.7974" d="M8.903,0.398h161.574c4.711,0,8.504,3.793,8.504,8.504v232.441
c0,4.711-3.793,8.504-8.504,8.504H8.903c-4.711,0-8.504-3.793-8.504-8.504V8.902C0.399,4.191,4.192,0.398,8.903,0.398L8.903,0.398z
M8.903,0.398"/>
<path fill="#D40000" d="M71.989,45.957c7.937-7.742,13.148-16.188,18.132-24.309c4.372,8.934,10.645,16.754,17.43,24.309
c-7.258,7.496-12.883,15.512-17.406,23.938C85.129,61.258,79.852,53.434,71.989,45.957L71.989,45.957z M71.989,45.957"/>
<path fill="#D40000" d="M71.989,205.003c7.937-7.746,13.148-16.187,18.132-24.308c4.372,8.933,10.645,16.754,17.43,24.308
c-7.258,7.497-12.883,15.513-17.406,23.935C85.129,220.3,79.852,212.48,71.989,205.003L71.989,205.003z M71.989,205.003"/>
<path fill="#D40000" d="M157.602,199.68c3.254-3.173,5.387-6.634,7.43-9.957c1.789,3.659,4.359,6.862,7.141,9.957
c-2.973,3.07-5.277,6.352-7.133,9.805C162.988,205.945,160.824,202.742,157.602,199.68L157.602,199.68z M157.602,199.68"/>
<path fill="#D40000" d="M7.426,50.664c3.25-3.176,5.383-6.633,7.426-9.961c1.793,3.66,4.363,6.863,7.14,9.961
c-2.972,3.07-5.277,6.352-7.132,9.805C12.809,56.93,10.645,53.727,7.426,50.664L7.426,50.664z M7.426,50.664"/>
<path fill="#D40000" d="M7.047,37.711l0.129-1.617c0.41-4.992,1.5-6.676,7.699-11.883c3.008-2.527,3.996-3.773,4.133-5.223
c0.395-3.406-2.68-4.473-4.684-4.488c-2.593-0.027-5.527,1.527-4.128,5.129l-2.911,0.855c-0.586-3.359,0.016-6.516,2.743-7.914
c3.636-1.824,8.304-1.109,10.66,1.766c1.582,1.93,1.941,4.598,1.093,6.684c-2.48,5.336-10.898,7.684-11.593,13.855h9.304v-3.438
h2.743v6.328L7.047,37.711z M7.047,37.711"/>
<path fill="#D40000" d="M172.332,212.539l-0.133,1.617c-0.406,4.988-1.5,6.676-7.695,11.883c-3.008,2.527-3.996,3.773-4.137,5.218
c-0.391,3.411,2.684,4.474,4.684,4.493c2.594,0.023,5.527-1.527,4.129-5.129l2.91-0.855c0.59,3.359-0.012,6.512-2.738,7.914
c-3.637,1.823-8.305,1.109-10.66-1.766c-1.582-1.93-1.941-4.598-1.094-6.684c2.48-5.34,10.895-7.688,11.594-13.855h-9.309v3.434
h-2.738v-6.324L172.332,212.539z M172.332,212.539"/>
</svg>
