<?xml version="1.0" encoding="utf-8"?>
<!DOCTYPE svg PUBLIC "-//W3C//DTD SVG 1.1//EN" "http://www.w3.org/Graphics/SVG/1.1/DTD/svg11.dtd" [
<!ENTITY ns_svg "http://www.w3.org/2000/svg">
<!ENTITY ns_xlink "http://www.w3.org/1999/xlink">
]>
<svg version="1.1" id="Layer_1" xmlns="&ns_svg;" xmlns:xlink="&ns_xlink;" width="179.379" height="250.246"
viewBox="0 0 179.379 250.246" overflow="visible" enable-background="new 0 0 179.379 250.246" xml:space="preserve">
<path fill="#FFFFFF" d="M8.903,0.398h161.574c4.711,0,8.504,3.793,8.504,8.504v232.441c0,4.711-3.793,8.504-8.504,8.504H8.903
c-4.711,0-8.504-3.793-8.504-8.504V8.902C0.399,4.191,4.192,0.398,8.903,0.398L8.903,0.398z M8.903,0.398"/>
<path fill="none" stroke="#000000" stroke-width="0.7974" d="M8.903,0.398h161.574c4.711,0,8.504,3.793,8.504,8.504v232.441
c0,4.711-3.793,8.504-8.504,8.504H8.903c-4.711,0-8.504-3.793-8.504-8.504V8.902C0.399,4.191,4.192,0.398,8.903,0.398L8.903,0.398z
M8.903,0.398"/>
<path fill="#131F67" d="M24.125,21.027h130.824l0.242,209.094l-131.176-0.348C24.016,229.773,24.012,93.328,24.125,21.027
L24.125,21.027z M116.746,228.313c0,0-7.516-13.832-11.453-21.392c-0.344-0.659-0.609-1.159-0.891-1.375
c-0.449-0.343-0.594-0.168-2.301,0.2c-13.961,3.593-29.387,4.02-43.336,1.281c-0.641-0.082-0.883,0.223-0.887,0.604
c-4.387,6.246-7.797,12.517-12.125,19.125c-0.906,1.388-0.965,1.556-0.965,1.556H116.746z M72.465,202.328
c-0.73,0.016-1.543,0.457-1.394,0.074c0.085-0.223,0.293-2.478,0.382-3.285c0.219-0.36,0.528,0.582,0.493,1.457
c-0.02,0.5,0.222,0.14,1.875,0.226c1.789,0.095,3.253,0.431,3.859,0.56c2.117,0.457,6.207,0.129,7.961-1.141
c0.949-0.688,1.308,0.055,0.328,0.793c-4.418,3.327-7.922,2.059-11.758,1.5C73.637,202.43,73.059,202.313,72.465,202.328
L72.465,202.328z M74.344,199.168c-0.273-0.176-0.453-0.195-0.805-0.031c-1.359,0.629-1.004-0.273-0.027-1.184
c0.449-0.414,0.434-0.625,0.098-1.063c-0.172-0.223-0.461-0.25-0.391-0.578c0.293-1.431,2.309-3.586,4.559-4.551
c0.937-0.398,1.086,0.038-0.098,0.73c-1.824,1.063-2.414,1.972-1.383,1.602c2-0.716,3.82-0.212,6.375,1.059
c0.731,0.363,1.067,0.433,1.688,0.367c0.461-0.379,0.871,0.074,1.156,0.313c0.176,0.145,0.215,0.211,0.418,0.164
c1.457-0.34,0.586,0.582-1.403,2.023C80.969,200.523,77.086,201.703,74.344,199.168L74.344,199.168z M79.824,199.785
c1.454-0.438,3.227-1.348,4.317-2.297c1.324-1.153,0.574-0.977-0.945-0.25c-2.2,1.051-3.743,1.355-6.215,1.301
c-2.075-0.047-2.008-0.133-2.082,0.125C74.633,199.566,77.485,200.484,79.824,199.785L79.824,199.785z M75.801,196.27
c0.121-0.392,0.211-0.906,0.105-1.074c-0.191-0.305-0.605-0.078-1.128,0.578c-0.325,0.406-0.278,0.461,0.039,0.781
c0.16,0.109,0.281,0.191,0.379,0.246C75.637,196.988,75.707,196.578,75.801,196.27L75.801,196.27z M76.707,196.801
c0.637-2.156,2.067-2.113,3.082-0.051l0.719,0.003c-1.477-4.011-4.332-1.979-4.43,0.017
C76.414,196.878,76.707,196.801,76.707,196.801L76.707,196.801z M82.039,196.438c0.672-0.375,0.575-0.629-0.285-1.066
c-0.609-0.313-0.933-0.375-1.043-0.176c0.008,0.445,0.028,1.082,0.285,1.433C81.266,196.793,81.637,196.632,82.039,196.438
L82.039,196.438z M72.598,190.3c-0.125-0.202-0.102-0.573,0.367-0.788c2.887-1.328,0.781-4.134-1.449-2.027
c-0.707,0.574-1.758,0.844-2.57,0.5c-0.766-0.332-0.778-1.258,0.238-1.457c0.332-0.067,1.187-0.246,1.5-0.461
c3.879-2.063,5.937,2.418,3.187,3.91C73.305,190.305,72.707,190.488,72.598,190.3L72.598,190.3z M61.735,186.23
c-1.575-0.707-1.789-3.164-0.313-4.121c0.938-0.637,1.899-0.813,4.484,0.457c1.825,0.897,2.872-0.066,2.825,0.977
c-0.032,0.637-0.067,1.273-1.129,1.43c-1.727,0.246-2.906-2.078-5.121-1.859c-1.602,0.16-1.399,2.058-0.242,2.445
C63.778,186.07,62.844,186.684,61.735,186.23L61.735,186.23z M90.668,186.589c-0.289,0.134-0.422-0.491-0.297-0.827
c0.786-1.852,1.508-3.324,2.223-5.059c0.566-1.383,0.949-1.977,1.203-1.977c0.262,0.004,0.383,0.203-0.055,1.055
C93.082,181.5,90.672,186.734,90.668,186.589L90.668,186.589z M77.75,186.109c-0.695-0.492-0.578-1.223,0.211-0.668
c1.02,0.711,2.688-0.59,2.348-1.82c-0.41-1.48-2.395-1.84-4.059-0.512c-2.621,2.094-5.496,2.199-5.496,0.562
c0.004-0.468-0.058-0.573,1.031-0.647c1.266-0.082,2.7-0.66,3.411-1.09c3.187-1.931,6.578-0.599,5.875,2.621
C80.754,186.074,78.879,186.809,77.75,186.109L77.75,186.109z M66.059,181.359c-0.258-0.008-0.735,0.25-0.867,0.147
c-0.266-0.194-0.227-0.765-0.446-1.379c-0.386-1.085-0.011-0.746,0.672-0.452c0.926,0.355,1.801,0.284,2.582,0.016
c0.809-0.277,1.864-0.211,3.555,0.008c1.363,0.176,2.125,0.125,3.359-0.227c1.344-0.418,0.989-0.266,0.766,0.555
c-0.149,0.539-0.332,1.262-0.5,1.433c-0.93-0.515-1.633-0.315-2.242,0.036c-1,0.438-1.707,0.511-2.528,0.27
c-0.773-0.438-1.23-0.398-1.847-0.023C67.496,182.253,67.02,181.406,66.059,181.359L66.059,181.359z M86.047,179.102
c0.188-0.328,0.461-0.777,0.719-1.285c2.07-4.086,2.211-5.223,0.75-6.598c-1.965-1.848-3.641-1.048-5.524,2.645
c-0.457,0.898-0.726,1.57-0.914,1.847c-0.211,0.321-0.461,0.075-0.582-0.05c-0.234-0.234,1.856-4.157,2.676-5.012
c2.141-2.238,6.121-0.445,5.871,2.598c-0.129,1.535-0.422,2.379-1.836,5.191c-0.351,0.694-0.652,1.285-0.84,1.569
C85.707,180.449,85.856,179.438,86.047,179.102L86.047,179.102z M66.528,178.938c0.324-1.453,5.023-2.129,6.257-0.219
c0.121,0.188,0.051,0.18-0.48,0.034c-2.387-0.784-2.859-0.741-5.149,0.157C66.813,179.043,66.567,179.094,66.528,178.938
L66.528,178.938z M84.446,178.664c0-0.137,0.175-0.676,0.437-1.195c1.566-3.074,2-3.816,1.523-4.391
c-0.933-1.121-2.183-0.148-3.332,3.063c-0.429,1.198-0.722,0.944-0.929,0.754c-0.403-0.363,1.375-4.099,2.23-4.652
c1.942-1.227,3.469,0.191,2.61,2.699c-0.668,1.133-1.219,2.875-1.844,3.793C84.844,179.145,84.442,179.023,84.446,178.664
L84.446,178.664z M77.422,173.668c-0.094-0.152,0.09-0.363,0.762-1.793c0.926-1.969,1.211-2.699,0.836-3.82
c-0.668-2.004-3.196-2.492-4.727-1.18c-0.504,0.421-0.844,1.012-1.078,1.539c-0.555,1.218-1.016,2.796-1.344,3.129
c-0.289,0.285-0.687,0.344-0.664-0.156c0.367-1.063,0.539-1.887,1.399-3.441c2.148-4.641,8.343-2.492,6.894,2.39
c-0.539,1.771-1.16,3.114-1.527,3.552C77.77,174.128,77.43,173.918,77.422,173.668L77.422,173.668z M75.985,172.816
c0-0.152,0.234-0.586,0.48-1.191c1.047-2.574,1.055-3.363-0.473-3.395c-0.914,0.117-1.046,0.488-1.851,2.52
c-0.258,0.656-0.402,1.128-0.559,1.328c-0.164,0.215-0.476,0.09-0.605-0.043c-0.324-0.328,1.105-3.66,1.859-4.285
c1.738-1.504,3.988,0.628,2.934,2.543c-0.492,1.339-0.918,2.246-1.211,2.66C76.305,173.32,75.981,173.27,75.985,172.816
L75.985,172.816z M39.004,142.816l-5.277-0.359c0.933,5.609,0.98,11.785,0.035,16.164c-0.805,3.746-0.816,6.504-0.574,9.75
c0.281,3.777,1.89,6.98,2.293,10.992c0.293,2.906-0.352,5.938-0.93,8.828c-0.965,4.824-0.766,5.328-0.625,10.996
c0.133,5.25-0.359,5.063-0.664,4.754c-0.047-0.047-0.086-0.973-0.082-2.078c0.008-1.106-0.059-3.805-0.125-5.68
c-0.125-3.746,0.293-7.059,0.598-8.422c0.617-2.773,1.312-5.613,0.882-8.684c-0.867-3.871-2.089-7.739-2.519-11.473
c-0.531-4.605,0.769-9.224,1.199-12.566c0.418-3.23-0.023-8.813-0.875-11.137c-0.144-0.774-0.84-1.781-0.84-1.781
c-0.797-0.114-1.594-0.227-2.711-0.219c-0.062,22.168,0,44.348,0.02,66.519l4.918,4.543l5.058-4.78L39.004,142.816z M39.356,168.246
c0,0,7.511,4.3,15.789,8.527c-0.789-4.836,1.711-5.563,4.058-6.125c-0.562-9.344,8.039-7.426,9.36,0.69l0.847,0.005
c1.489-4.048,2.965-6.841,6.356-7.509c2.633-0.515,5.226,1.142,5.883,5.043c-0.114-0.272,8.722-5.159,8.964,5.165
c4.012-2.48,6.879-0.336,8.035,2.813c1.695-2.57,5.934-2.685,7.289-2.871c0.473-0.543,1.305-0.853,2.82-0.84
c1.297-0.066,3.043-1.035,3.938,0.145c1.367,0.214,2.406-0.032,3.57,0.863c0.93,0.703,1.965,2.269,3.508,1.187
c2.945-1.409,6.258-2.046,8.891-3.75c0,0-0.699-0.894-0.492-0.765c0.074,0.047,0.402,0.469,0.895,0.668
c0.176,0.07,1.797-0.895,1.797-0.895c-10.973-12.578-19.996-37.134-14.039-59.852c0.168-0.387-0.496-0.535-0.82-0.672
c0.098-0.176,1.711,0.059,1.027,1.504c-0.691,4.352-1.469,9.066-1.645,12.676c-0.004,0.441,0.039,0.836,0.039,0.836
c24.598,11.288,21.582,35.745,15.262,44.258l0.996,1.323c0.441,0.293,19.352-10.683,18.727-11.132l3.582-1.773l-0.582-47.957
l-14.152-1.078c0,0,0.152-0.402,0.332-0.508c0.129-2.926-0.137-7.258,0.004-10.883c0.059-10.355,0.16-13.879,0.027-14.164
c-4.367-2.863-10.875-7.043-16.352-9.074c0.223,0.066-0.09,4.293-0.258,4.535c-5.125,1.629-2.746,3.707-4.641,5.941
c-1.27,1.391-4.25,1.656-5.688-0.012c-1.719-1.656-2.523-5.453-2.523-5.453c-2.711,2.887-2.152,6.371-5.785,7.684
c-5.836,2.883-7.688-5.73-7.348-5.531c-2.238,2.145-8.512,3.891-9.191-5.168c-2.82,2.582-5.98,1.301-7.324-1.879
c-1.723,0.059-3.652,1.402-5.395,2.129c-1.621,0.711-3.687,1.129-5.222,1.098c-1.922,0.23-3.504,0.223-5.239-0.289
c-0.812,0.262-2.644-0.523-3.21-1.648c-0.868-1.016-1.622-1.074-2.446-0.891c-2.801,1.469-5.808,1.824-9.117,3.363
c-0.207,0.145,0.289,0.41,0.125,0.359c-0.07-0.023-1.738,0.813-1.738,0.813c16.761,21.934,17.672,44.078,14.16,59.772
c-0.137,0.548-0.215,0.942,0.148,1.368c-0.531-0.09-0.539,0.066-0.64-0.273l1.742-13.176c0.055-1.59,0.254-1.473-1.152-2.066
c-1.297-0.547-2.528-1.078-3.598-1.734c-4.09-3.012-8.711-6.723-10.961-11.352c-6.422-9.953-4.305-21.824,0.508-31.23l-1.196-1.238
c-14.05,7.008-22.347,14.559-22.347,14.559l0.058,47.063l14.442,1.656L39.356,168.246z M32.391,136.82
c-0.461-0.508-1.641-0.598-2.133-0.211c-0.113,0.098-0.355,0.594-0.426,0.578c-0.656-0.168-1.109-0.306-1.195-0.853l0.695-1.046
c0.547-0.825,1.34-1.118,2.676-1.43c0.473-0.109,1.188-0.211,1.441-0.316c1.004-0.434,1.352-1.368,0.336-0.949
c-0.742,0.202-1.777,0.137-1.914-0.539c-0.113-0.555-0.59-0.77-1.117-0.707c-0.98,0.234-1.875,0.741-2.738,1.254
c-0.387,0.23-1.113,0.754-1.113,0.754c-0.118,0.18-0.539-1.129-0.145-1.512c0.492,0.059,0.914,0.066,1.391-0.125
c1.195-0.473,2.343-1.044,3.55-1.505c0.766-0.296,0.836-0.272,0.633-0.815c-0.097-0.199-0.188-0.863-0.054-1.211
c0.14-0.367,0.125-0.556-0.114-0.711c-0.543-0.359-1.843-0.027-3.672,0.848c-0.554,0.265-0.921,0.375-1.277,0.656
c0.231-0.574,0.098-0.685,0.09-1.285c0.746,0.094,1.418-0.203,2.016-0.516c0.492-0.255,1.043-0.509,2.394-0.679
c0.367-0.048,0.199-1.392-0.219-1.778c-0.398-0.371-1.234-0.379-2.246-0.082c-0.902,0.207-2.023,0.418-2.644,1.383
c-0.782,0.733,0.019-1.223,1.449-2.008c0.625-0.012,2.004-0.309,2.328-0.379c0.555-0.121,0.641-1.406-0.16-1.961
c-0.5-0.434,1.824-0.445,1.777-0.313c-0.031,0.074-0.051,0.625,0.125,0.766c1.004,0.301,0.992,1.113,1.082,1.457
c1.149,1.879,1.715,0.699,2.504,0.055c-0.164,4.086,1.27,4.551,1.461,4.809c-1.973,3.664-0.484,3.754,1.363,4.597
c0,0-0.703,0.286-1.171,0.254c-0.735-0.043-2.145,0.825-2.758,1.337c-0.34,0.281-0.352,0.047-1.711,0.008
c-1.281-0.035-1.375,0.059-1.957,0.315c-1.153,0.509-1.149,0.989-0.02,0.797c1.196-0.198,2.371,0.524,2.508,1.513
c0.098,0.184,0.012,0.516-0.008,0.504c-0.25-0.047-0.812,0.047-0.804-0.07C32.621,137.582,32.614,137.137,32.391,136.82
L32.391,136.82z M34.141,131.867c0.324-0.207,0.383-0.793,0.098-1.032c-0.258-0.218-1.352-0.101-1.661,0.177
C31.879,131.559,33.156,132.473,34.141,131.867L34.141,131.867z M34.84,129.406c0.402-0.313,0.453-1.063,0.106-1.5
c-0.594-0.738-2.137-0.297-2.219,0.637C32.637,129.535,34,130.059,34.84,129.406L34.84,129.406z M34.34,126.031
c0.07-0.816-0.738-1.332-1.484-0.945c-0.93,0.48-0.367,1.496,0.797,1.438C34.297,126.488,34.297,126.488,34.34,126.031
L34.34,126.031z M31.621,122.723c-0.433,0.211-0.457,0.719-0.047,1.047C33.203,124.664,32.707,122.266,31.621,122.723
L31.621,122.723z M145.445,127.594c-0.719-2.625-2.691-0.02-2.691,0.016c-0.07-2.691,0.441-3.887-1.586-4.805
c2.035-3.066,1.609-3.488-0.547-4.668c0.199,0.02,2.863-0.574,3.316-2.09c0.102,0.07,4.18,1.07,4.691-1.145
c-1.23,0.559-3.652,0.641-3.68-1.742c0.23-0.066,0.801,0.051,0.754,0.125c-0.32,1.527,2.477,1.906,2.934,0.699
c0,0,0.938,0.629,1.352,0.723c0.047,0.031-1.273,1.852-2.473,2.125c-2.168,0.715-2.914,0.906-2.918,1.336
c0,0.168,0.355,0.195,0.996,0.324c1.348,0.094,1.32,0.379,1.496,0.824c0.156,0.395,0.309,0.473,0.754,0.43
c1.539-0.508,2.309-0.773,3.379-1.84c0.129-0.023,0.281,1.121,0.363,1.16c0.012-0.184-1.086,0.137-2.777,1.121
c-1.379,0.801-1.918,0.918-2.094,1.137c-0.129,0.16,0.207,0.668,0.242,1.219c0.027,0.461-0.285,0.684-0.055,0.828
c0.266,0.168,0.676,0.137,1.219-0.004c1.191-0.285,2.066-0.75,3.141-1.41c-0.23,0.43,0.152,1.52,0.152,1.52s-0.527-0.371-0.965-0.18
c-0.836,0.367-2.191,0.863-2.559,0.949c-0.355,0.086-0.508,0.129-0.648,0.246c-0.168,0.145-0.141,0.492-0.145,1
c0,0.355-0.105,0.687,0.121,0.793c0.5,0.16,1.512,0.109,2.539-0.246c0.438-0.191,1.371-0.695,1.371-0.695l-0.293,1.504
c-0.391-0.438-1.512-0.113-2.262,0.18c-0.379,0.117-0.492,0.354-0.586,0.683c-0.168,0.563,0.191,0.95,0.602,1.134
c0.277,0.125,0.699,0.074,0.699,0.074c-1.941,0.734-1.555,1.007-2.688,0.449C146.109,128.839,145.629,128.281,145.445,127.594
L145.445,127.594z M147.477,127.598c-0.32-0.371-0.883-0.586-1.211-0.438c-0.289,0.152-0.188,0.477-0.094,0.718
C146.418,128.563,148.125,128.344,147.477,127.598L147.477,127.598z M146.344,125.719c0.453-0.594-0.047-1.395-0.887-1.398
c-0.586-0.004-0.898,0.359-0.891,0.816C144.578,126,145.961,126.214,146.344,125.719L146.344,125.719z M145.406,123.453
c0.844-0.227,1.105-1.043,0.52-1.633c-0.414-0.418-1.715-0.473-2.063-0.094C142.973,122.699,143.969,123.844,145.406,123.453
L145.406,123.453z M146.109,120.477c0.496-0.254,0.59-0.676,0.152-1.152c-0.793-0.672-2.18-0.148-1.73,0.832
C144.75,120.637,145.508,120.781,146.109,120.477L146.109,120.477z M44.559,97.859c0.742-0.27,1.281-0.848,2.066-1.289
c0.528-0.285,0.367-0.242-0.308-0.637c-0.532-0.242-1.598-1.316-1.7-1.063C44.375,95.332,44.41,97.836,44.559,97.859L44.559,97.859z
M63.399,124.117c0.027-0.512,0.09-1.285,0.078-1.848c0.097-1.078-0.094-0.762-0.68-0.41c-0.433,0.277-1.129,0.699-1.402,0.836
c-1.074,0.531-0.946,0.563,0.566,1.285C63.231,124.547,63.375,124.492,63.399,124.117L63.399,124.117z M61.922,121.594
c1.027-0.645,1.367-0.977,1.418-1.699c0.004-0.832-0.094-1.133-0.824-0.559c-2.5,1.965-5.07-1.887-2.785-4.031
c0.468-0.434,1.058-1.117,1.066-1.293c0.035-1.242-1.367-0.035-2.516,1.672c-1.269,1.551-2.062,3.488-0.945,5.352
C58.227,122.398,60.211,122.668,61.922,121.594L61.922,121.594z M56.246,119.086c-0.047-0.605,0.125-1.285,0.207-1.488
c0.278-0.711,0.266-0.801-1.007-0.207c-0.508,0.164-1.114,0.301-1.344,0.301c-1.043-0.008-0.781,0.316,0.707,1.555
C56.309,120.488,56.36,120.602,56.246,119.086L56.246,119.086z M59.785,113.133c0.161-0.375-0.168-0.52-0.484-0.449
c-0.027,0.008-0.57,0.41-1.211,0.914c-1.941,1.523-3.367,1.699-4.332,0.539c-0.977-1.176-0.566-2.57,1.617-4.164
c0.961-0.707,1.196-0.754,0.731-1.063c-0.352-0.234-0.375-0.199-1.758,0.734c-2.789,1.883-3.625,3.168-3.348,5.039
c0.059,0.766,0.461,1.168,0.856,1.469C54.516,118.5,58.207,115.262,59.785,113.133L59.785,113.133z M62.602,114.242l-0.168-2.59
c-2.836-2.434-5.528-6.594-6.457-10.039c-0.946-3.063-0.192-9.449-0.051-8.977l-1.531-2.891c-1.336,3.066-1.918,7.746-0.465,12.512
C55.16,106.301,57.629,111.203,62.602,114.242L62.602,114.242z M50.653,112.734c0.902-1.723,0.929-1.535-0.809-1.551
c-1.988-0.02-1.766-0.258-0.648,1.43C50.098,113.973,49.946,114.09,50.653,112.734L50.653,112.734z M51.848,110.371
c1.144-0.363,0.883-0.281,2.402-1.262c1.746-1.133,1.817-1.75,0.067-0.879c-2.246,1.117-4.223,0.832-4.953-0.625
c-0.653-1.301,0.71-2.922,2.953-3.555c0.765-0.215,1.172-0.398,1.172-0.734c0.007-1.02-3.813,0.34-5.387,1.879
C45.063,108.168,47.723,111.691,51.848,110.371L51.848,110.371z M46.934,105.75c0.105-0.156,0.379-0.527,0.629-0.914
c1.078-1.242,0.172-0.871-0.785-1.211c-0.504-0.188-1.02-0.371-1.317-0.328c-0.57,0.09,0.192,1.188,0.375,1.895
C46.352,106.773,46.293,106.723,46.934,105.75L46.934,105.75z M51.004,102.902c1.926-0.188,2.121-0.375,2.125-0.77
c0-0.395-0.234-0.32-1.203-0.188c-2.562,0.355-4.258-0.293-4.621-1.652c-0.379-1.402,1.355-2.73,3.668-2.652
c1.25,0.043,2.082-0.387,1.32-0.801c-0.394-0.219-3.844-0.172-4.625,0.055c-2.289,0.664-3.222,1.934-3.012,3.688
c0.317,2.172,1.504,2.793,4.403,2.637C49.617,103.191,50.324,102.969,51.004,102.902L51.004,102.902z M52.492,95.84
c0.004-0.34-0.546-0.387-2.363-0.656c-2.422-0.359-3.504-2.59-2.043-3.93c0.551-0.508,1.871-0.727,2.606-0.594
c1.593,0.289,2.57,0.617,2.586,0.078c0.003-0.48-0.461-0.516-3.457-1.148c-4.528-0.953-7.012,3.473-3.391,5.637
C47.805,96.047,52.489,96.516,52.492,95.84L52.492,95.84z M53.617,89.512c0-0.172-0.148-0.301-0.492-0.434
c-0.496-0.195-0.832-0.23-1.953-0.984c-1.496-1.004-1.949-2.957-0.953-4.047c0.969-1.016-0.773-2.219-2.16-1.07
c-1.442,1.191-1.32,3.066,0.34,4.547C49.926,88.887,53.61,90.305,53.617,89.512L53.617,89.512z M46.281,89.246
c1.575-0.734,2.704-0.313,1.5-1.324c-0.675-0.625-1.253-2.398-1.722-0.895c-0.36,0.895-0.625,2.477-0.633,2.633
C45.531,89.766,45.508,89.582,46.281,89.246L46.281,89.246z M101.934,85.434c-1.793-0.445-3.016-2.516-2.563-4.508
c0.258-1.125,1.324-3.777,1.531-3.941c0.793-0.625,0.684,0.207-0.043,1.648c-0.66,1.473-1.176,2.656-0.973,3.535
c0.293,1.246,0.797,2.199,2.102,2.516c0.914,0.223,1.777-0.16,2.363-0.57c0.773-0.543,1.504-1.938,2.379-3.867
c0.277-0.543,0.652-2.211,1.117-1.191c0.227,0.523-1.641,4.027-2.336,4.914C104.637,85.086,103.152,85.742,101.934,85.434
L101.934,85.434z M112.734,84.262c0.875,0.832,2.352,1.25,3.313,0.949c2.363-0.828,3.438-3.051,2.543-6.621
c-0.453-2.004-0.84-3.25-1.23-3.496c-0.191-0.121-0.398,0.102-0.586,0.379c-0.164,0.25,0.09,0.602,0.355,1.543
c1.129,3.969,0.836,5.766-0.543,6.523c-2,1.102-3.715-0.164-4.293-3c-0.094-0.438-0.367-1.328-0.367-1.328
c-0.156-0.395-1.395-0.309-0.941,1.012C111.117,81.242,112.063,83.676,112.734,84.262L112.734,84.262z M122.875,73.859
c-0.031-1.395-2.984-7.457-3.184-6.813c0,0-0.012,1.414,0.102,1.973c0.043,0.211,0.199,0.406,0.324,0.629
c2.566,4.555,2.168,7.762-0.055,8.465c-0.758,0.344-0.922,0.68-0.586,1.031c0.688,0.742,2.406-0.723,2.742-1.258
C123.059,76.691,122.941,74.512,122.875,73.859L122.875,73.859z M79.918,72.832c0.965-1.078,3.086-4.785,3.738-6.73
c2.012-5.789,4.125-12.453,4.711-18.609c0.063-0.777,0.106-1.957,0.145-2.059c-0.16-0.172-1.156-0.082-1.492,0.09
c-0.16,0.207-0.051,0.668-0.11,1.27c-0.898,6.922-2.562,13.227-5.023,19.645c-1.078,2.789-2.078,4.625-3.379,6.563
c-0.227,0.34-0.512,0.688-0.629,0.887c-0.328,0.469-0.086,0.777,0.297,0.578C78.848,74.086,79.43,73.355,79.918,72.832
L79.918,72.832z M76.621,74.516c3.082-4.227,5.278-9.297,6.981-15.285c1.074-3.875,2.023-7.797,2.594-11.793
c0.113-0.852,0.21-1.422,0.043-1.676c-0.418-0.113-1.196-0.043-1.465,0.164c-0.164,0.246-0.055,0.746-0.207,1.895
c-0.395,2.973-0.985,5.961-1.985,9.867c-2.629,8.652-5.051,13.496-8.226,17.73c-0.258,0.359-0.485,0.59-0.461,0.742
c0.031,0.223,0.34,0.203,0.844-0.113C75.399,75.531,76.153,75.082,76.621,74.516L76.621,74.516z M71.922,76.758
c1.508-0.852,4.164-4.563,6.043-8.555c2.106-4.719,3.867-10.047,5.02-14.66c0.504-2.023,1.214-7.074,1.113-7.406
c-0.121-0.395-1.598-0.066-1.391,0.207c0,0-1.465,8.117-3.043,12.594c-2.925,8.305-5.457,13.941-8.179,16.652
c-0.356,0.355-1.059,1.047-1.059,1.047s0.012,0.313,0.242,0.359C71.211,77.094,71.571,76.938,71.922,76.758L71.922,76.758z
M69.614,76.43c3.402-1.898,7.39-10.762,10.644-21.887c0.559-1.902,1.574-8.277,1.574-8.277s-1.355,0.051-1.617,0.336
c-0.262,0.383-0.219,1.363-0.601,3.691c-1.461,7.039-3.672,13.461-6.989,19.805c-1.433,2.813-3.82,5.457-5.324,6.215
c-0.844,0.418-1.09,0.883-0.473,0.918c1.039,0.035,1.129,0.254,1.883-0.148L69.614,76.43z M116.266,175.535
c-2.555-0.012-4.723,2.429-6.656,5.5c-4.109,6.289-6.871,16.797-7.543,22.383l1.551-0.293c-0.234,0.109,2.898-14.863,7.668-21.273
c2.578-4.047,2.469-4.109,3.918-4.477c1.832-0.473,3.297,1.503,2.391,2.691c-0.328,0.406-0.691,0.108-0.586-0.465
c0.324-1.832-2.355-2.184-3.105-0.383c-0.859,2.066,1.43,3.913,3.664,3.098c2-0.703,2.836-3.488,1.434-5.547
C118.277,176.074,117.234,175.457,116.266,175.535L116.266,175.535z M102.824,175.277c-3.059,3.828-4.57,7.762-6.449,13.133
c-1.875,5.363-3.223,10.613-3.809,16.636l1.652-0.211c-0.063-3.875,4.195-22.308,10.172-29.214c0.336-0.438,0.605-0.801,0.578-0.902
C104.637,173.789,103.219,174.91,102.824,175.277L102.824,175.277z M109.578,173.848c-3.961,3.237-7.129,10.309-9.215,16.848
c-2.258,7.066-3.27,13.539-3.098,13.539l1.574-0.231c-0.117-0.409,4.422-25.308,12.848-29.839c0.73-0.364,0.883-0.73,0.266-0.891
C111.008,173.141,110.242,173.453,109.578,173.848L109.578,173.848z M114.016,173.863c-8.652,1.137-14.305,27.605-14.496,29.801
c-0.004,0.035-0.031,0.207-0.031,0.207l1.723-0.355c0,0,0.016-0.082,0.023-0.125c1.184-6.763,2.34-11.504,5.039-17.617
c2.102-4.531,5-10.32,9.332-10.883c0.352-0.047,0.688,0.094,0.563-0.316C115.906,173.926,114.609,173.844,114.016,173.863
L114.016,173.863z M62.453,165.527c-3.129,0.805-3.23,4.543-1.148,9.32c0.16,0.359,0.129,0.555,0.289,0.695
c0.355,0.313,0.637-0.122,0.676-0.411c0.058-0.433-0.125-1.015-0.457-1.866c-1.289-3.306-0.981-5.211,0.297-6.052
c3.269-1.683,4.152,1.771,4.644,3.356c0.121,0.39,0.164,0.922,0.379,0.949c0.652,0.09,0.961-0.142,0.953-0.142
c0,0-0.867-2.972-1.394-4.089C65.836,165.48,63.805,165.102,62.453,165.527L62.453,165.527z M39.766,169.059l-0.031,39.401
l-5.989,5.614c-2.566-2.199-5.941-5.641-5.941-5.641l0.105-66.613l-1.925-0.152c-0.473,28.617-0.137,57.664-0.157,86.339l17.7,0.134
l14.648-22.832c0,0,0.184-0.273,0.242-0.418c0.18-0.441,0.16-1.098,0.071-3.523c-0.036-0.989,0.074-1.746-0.071-1.977
c-0.148-0.234-0.461-0.066-0.75,0.063c-0.297,0.132-0.476,0.086-0.316-0.262c0.09-0.199,0.387-0.637,0.637-1.051
c0.824-1.348,1.023-1.777,0.746-3.273c-0.067-0.367-0.407-0.676-0.7-1.11c-2.464-3.632-3.468-9.015-2.246-12.961
c0.391-1.741,0.25-2.097-0.593-3.452L39.766,169.059z M117.246,126.691c-1.609-0.828-1.578-0.809-1.59,0.754
c0.008,1.168,0.031,1.449,0.469,1.293c0.637-0.324,1.414-0.617,1.996-0.867C119.242,127.488,117.82,126.996,117.246,126.691
L117.246,126.691z M123.617,130.75c-1.25-0.997-0.789-0.883-1.145,1.363c-0.211,1.355-0.488,1.387,0.918,0.941
c0.797-0.277,2.438-0.102,1.699-1.039C125.098,132.035,123.859,130.957,123.617,130.75L123.617,130.75z M73.434,165.199
c-1.914,1.156-3.871,6.765-3.871,6.765c-6.696,0.798-9.5,7.371-9.797,12.856c-0.238,4.328-0.531,9.383-0.094,9.824
c4.391-1.974,6.082,0.305,6.496-0.31c0.192-0.269-0.972-1.155-2.433-1.953c-0.34-0.183-0.868-0.519-1.067-0.683
c-0.531-0.442,1.067-0.063,2.074,0.625c1.289,0.875,1.504,0.691,0.946-1.864c-0.605-2.78-0.707-3.121,1.433-4.222
c0.856-0.442,1.344-0.817,1.953-1.504c0.493-0.547,0.618-0.68,0.438,0.125c-0.313,1.397-1.559,2.008-2.68,2.574
c-0.554,0.285-0.789,0.859-0.789,1.355c-0.004,0.5,0.574,3.218,0.844,4.086c0.246,0.824,0.336,1.652,0.531,2.492
c0.5,2.184,0.531,2.609,0.278,4.195c-0.149,0.93-0.223,1.457-0.172,2.02c0.047,0.507,0.117,1.203,0.117,1.203
c0.004-0.023-1.195-1.227-3.817-0.196c-1.89,0.743-3.382-0.03-4.441-0.582c-0.242,0.86-0.187,1.793-0.16,2.778
c10.902,1.992,20.211,1.727,28.047,0.906c0.203-2.316,1.191-9.676,3.265-16.313c0.864-2.761,1.84-5.671,2.942-7.616
c0.75-1.324,1.52-2.216,1.789-2.371c0.086-0.052,0.094-0.078,0.09-0.113c0-0.074,0-0.137-0.004-0.207
c-0.027-0.43-0.129-1.098-0.5-1.391c-0.906-0.723-2.348,0.207-2.824,1.813c-0.414,0.965-2.313,5.129-2.445,5.059
c-0.113-0.07-0.375-0.074-0.281-0.398c0.727-1.688,1.723-3.473,2.285-4.988c0.777-2.18,2.465-3.332,3.727-1.957
c0.434,0.473,0.605,0.906,0.805,1.055c0.148,0.113,0.352,0.038,0.473-0.148c0.477-0.715-0.625-2.34-1.809-2.668
c-1.707-0.473-2.98,0.773-4.915,4.808c-1.117,2.329-1.32,2.915-1.496,2.735c-0.039,0.015-0.336,0.015-0.226-0.438
c0.23-0.969,1.711-3.789,2.785-5.574c1.594-2.648,4.543-2.859,5.785-0.566c0.191,0.316,0.199,0.722,0.41,1.004
c0.383,0.492,1.008,0.395,1.164-0.414c-0.168-0.536-1.207-2.469-1.926-2.805c-1.664-1.141-3.68-0.918-5.375,0.598
c-0.383,0.339-0.786,1.039-1.911,3.32c-1.656,3.66-1.703,3.672-2.152,3.082c0.664-1.777,2.418-4.668,3.125-6.445
c0.137-0.266,0.164-0.547,0.152-0.82c-0.043-1.293,0.168-3.57-2.562-5.191c-2.328-1.254-5.402,0.063-6.449,2.531
c-0.801,1.891-1.387,3.19-1.793,3.457c-0.567,0.379-0.461-0.148-0.407-0.336c0.809-1.711,1.946-3.441,2.125-5.164
C81.235,164.57,76.508,162.848,73.434,165.199L73.434,165.199z M49.035,77.902c3.688-1.711,6.215-2.574,9.973-3.68
c0.508-0.223,0.59-0.273,0.051-1.34c-2.383-4.711,4.148-8.469,6.371-3.844c0.297,0.617,0.363,0.957,0.656,0.664
c0.547-0.715,1.195-1.73,1.867-2.891c2.5-3.871,3.633-8.285,4.965-12.184c0.551-2.289,1.324-4.68,1.543-7.137
c-4.961-8.625-8.414-16.926-13.676-24.605l-34.707-0.023l-0.129,69.34C35.653,84.109,42.258,81.184,49.035,77.902L49.035,77.902z
M88.102,75.355c0.422-0.445,0.785-1.18,2.297-4.277c0.269-0.551,0.699-1.406,0.875-1.805c0.227-0.73,1.074-1.188,0.66,0.117
c-0.094,0.281-0.254,0.664-0.512,1.168c-0.5,0.902-0.98,2.008-1.336,2.727c-1.93,3.867-1.84,6.121,0.317,7.797
c1.613,1.539,4.996,1.715,6.796-0.773c0.27-0.398,0.508-0.914,0.586-1.102c0.781-1.898,1.359-2.848,1.508-3.035
c0.801-1.016,0.93,0.242-0.266,2.18c-1.371,2.223-1.398,4.629-0.211,6.32c1.758,2.512,5.094,2.582,7.188,0.57
c1.086-1.277,1.953-2.898,2.648-4.973c0.156-0.461,0.316-0.801,0.43-1.07c0.172-0.418,0.426-0.57,1.074-0.695
c4.457-0.852,8.199-5.426,8.73-10.418c0.07-0.676,0.262-1.871,0.332-2.582c0.141-1.414,0.141-8.742,0.004-9.18
c-0.078-0.238-0.211-0.359-0.5-0.359c-0.223,0.004-0.539,0.082-0.992,0.242c-1.469,0.527-2.152,0.66-3.563,0.152
c-0.469-0.164-0.789-0.223-0.98-0.207c-0.625,0.055,0.203,0.949,2.02,1.934c0.777,0.426,1.395,0.992,0.762,0.953
c-0.184-0.016-2.375-1.145-2.676-1.332c-1-0.609-0.738,0.16-0.227,2.188c0.691,2.719,0.293,3.484-1.855,4.551
c-0.402,0.199-0.934,0.613-1.203,0.883c-1.141,1.684-0.848,0.441-0.273-0.453c0.98-1.027,0.379-1.379-1.629-0.668
c-2.293,0.813-3.332,0.219-3.973-1.055c-0.727-1.441,0.641-3.293,1.777-3.258c0.367,0.012,0.301,0.145-0.242,0.516
c-0.656,0.445-0.965,0.879-1.035,1.645c-0.137,1.559,0.977,2.219,2.535,1.172c0.738-0.492,1.316-0.832,1.875-0.961
c0.551-0.125,1.383,0.082,1.379,0.523c0,0.18-0.027,0.629,0.012,0.727c0.148,0.492,0.938-0.203,1.281-0.453
c1.172-0.875,1.137-1.051,0.813-2.473c-0.523-1.988-0.785-3.813-1.285-5.828c-0.27-1.059-0.313-2.254-0.152-3.332
c0.082-0.539,0.293-1.648,0.336-2.41c0.043-0.758-0.004-1.844,0.023-1.844c1.164,0.891,1.641,1.047,2.777,0.613
c1.758-0.719,2.871-0.645,4.355,0.063c0.547,0.266,1.047,0.449,1.047,0.449l0.066-2.285c0,0-1.371-0.285-3.91-0.617
c-7.637-1.004-23.309-1.215-23.891-0.293c-0.148,0.234-0.297,1.867-0.715,4.137c-0.922,4.719-1.961,9.418-3.344,14.023
c-0.285,0.938-0.558,1.313-0.41,1.344c0.059,0.012,0.34-0.352,0.473-0.504c0.742-0.859,0.175,1.176-0.95,3.629
c-0.101,0.219-0.183,0.461-0.183,0.539c0,0.148-0.707,1.855-1.192,2.887c-0.3,0.645-0.55,0.836-0.55,0.426
c0.343-1.41,1.242-3.238,1.371-4.496c-0.789,1.137-1.938,3.02-2.809,4.141c-0.16,0.305,0.012,0.398,0.153,0.77
c0.523,1.398,1.789,1.523,2.519,0.258c0.41-0.703,1.676-3.359,2.117-4.52c0.453-1.195,0.774-1.824,0.922-1.902
c0.305-0.156,0.363,0.523-0.176,1.652c-1.632,3.43-2.332,5.352-3.129,6.063c-0.621,0.551-1.695,0.516-2.289-0.465
c-1.011-1.66-1.875-1.109-0.945,0.59c0.957,1.762,3.145,1.926,4.289,0.34c0.375-0.523,2.152-3.91,2.711-5.289
c0.313-0.77,0.645-1.367,0.754-1.41c0.598-0.23-0.082,1.527-1.793,5.043c-0.555,1.359-1.449,2.781-2.652,3.223
c-2.934,0.641-3.328-0.906-4.348-2.672c-0.496-0.441-0.945,0.262-0.758,1.039c0.309,1.258,0.883,1.754,1.774,2.383
C84.59,77.512,87.168,76.703,88.102,75.355L88.102,75.355z M101.18,82.711c-0.266-0.586-0.227-1.184-0.09-1.742
c0.305-1.254,0.816-2.473,1.41-3.531c0.961-0.453,0.227,1.355,0.105,1.625c-1.16,2.418-1.27,3.355-0.188,3.633
c0.93,0.238,1.43-0.328,2.305-2.496c0.453-1.113,0.633-1.605,0.789-1.672c0.34-0.133,0.504,0.004,0.484,0.34
c-0.582,1.426-1.035,2.922-1.988,4.105C103.074,83.754,101.668,83.758,101.18,82.711L101.18,82.711z M92.473,80.855
c-0.402-0.082-1.098-0.602-1.578-1.043c-1.641-1.5-1.367-3.574,0.664-7.477c0.16-0.301,0.75-1.48,0.941-1.871
c0.34-0.691,0.676-0.422,0.672,0.039c0,0.129-0.508,1.207-1.023,2.207c-2.246,4.387-2.167,6.176,0.016,7.219
c2.129,1.02,3.082,0.434,4.781-2.914c0.984-2.516,1.469-2.559,1.414-1.602c0,0.355-1.191,2.766-1.957,3.887
C95.289,80.926,94.324,81.215,92.473,80.855L92.473,80.855z M92.633,78.738c-0.836-0.52-1.176-1.805-0.684-2.859
c0.453-0.867,1.602-4.195,2.145-4.383c0.871-0.031,0.406,0.699-0.672,2.746c-1.277,2.711-1.23,3.438-0.246,3.852
c0.91,0.383,1.344-0.402,2.688-3.574c0.211-0.5,0.508-1.016,0.68-0.906c0.211-0.02,0.582,0.145-0.121,1.578
c-0.168,0.344-0.453,1.066-0.77,1.738C94.734,78.891,93.691,79.391,92.633,78.738L92.633,78.738z M107.73,72.98
c-0.367-0.188-2.094-0.867-1.836-1.426c0.031-0.055,0.133-0.012,0.184,0.023c1.578,1.055,3.543,1.324,5.59-0.145
c0.344-0.301,0.602-0.098,0.41,0.285C111.457,72.945,108.695,73.473,107.73,72.98L107.73,72.98z M102.656,71.199
c0.051-0.117,0.191-0.469,0.316-0.941c0.191-0.711,0.145-1.234,0.313-1.145c0.719,0.387,1.996,0.398,2.621,0.016
c0.688-0.418,2.082-0.547,2.59-0.219c0.723,0.473,1.094,0.254,1.602-0.141c0.574-0.449,0.586-0.258,1.621,0.102
c0.766,0.266,1.066,0.445,1.391,0.387c0.125-0.02,0.379-0.305,0.457-0.289c0.25,0.043,0.277,0.75,0.508,1.555
c0.203,0.711,0.086,0.883-0.551,0.457c-0.477-0.316-1.844-0.469-3.266-0.031c-1.051,0.32-1.293,0.191-2.066,0.063
c-1.926-0.324-3.316-0.578-4.75,0.254C102.676,71.707,102.398,71.938,102.656,71.199L102.656,71.199z M97.867,67.68
c-0.934-1.867,1.215-4.344,3.102-3.469c0.625,0.289,1.18,1.387,0.254,0.883c-4.289-0.863-3.219,5.41,1.391,2.094
c3.063-2.027,5.227-2.344,5.406-0.379c-0.086,0.723-0.727,0.605-1.211,0.672c-1.27,0.176-1.738,0.383-3.211,1.012
C101.359,69.195,99.176,69.773,97.867,67.68L97.867,67.68z M114.656,68.543c-1.047-0.27-1.957-0.68-3.051-0.879
c-1.078-0.188-1.566-0.75-1.371-1.508c0.203-0.789,1.285-0.871,2.91,0.117c1.805,1.102,3.113,1.367,3.773,0.953
c1.332-0.84,0.613-2.203-0.66-2.551c-0.957-0.266-0.254-0.637,0.777-0.332c1.656,0.629,1.691,3.621-0.016,4.242
C116.449,68.793,115.445,68.738,114.656,68.543L114.656,68.543z M100.043,58.637c1.219-0.75,2.395-1.422,2.813-1.871
c0.219-0.238,0.832-1.027,0.355-0.785c-2.48,1.488-5.367,0.25-7.457-0.77c-1-0.465-0.754-0.258-1.523-0.207
c-0.523,0.035-0.945,0.145-1.039-0.23c-0.039-0.164-0.332-0.094-0.52-0.113c-0.77-0.074-0.285-1.098,1.34-2.223
c1.91-1.324,3.578-2.191,5.234-2.547c1.723-0.371,3.477-0.164,4.762,1.074c0.496,0.477,0.453,0.793,0.902,0.5
c1.031-0.664,1.043,0.219,0.172,1.035c-0.598,0.563-0.379,0.715,0.352,1.25c0.348,0.254,0.063,0.5-0.133,0.871
c-0.074,0.227-0.016,0.477-0.051,0.648c-0.164,0.797-3.805,3.621-5.121,4.102C99.219,59.543,99.695,58.859,100.043,58.637
L100.043,58.637z M102.57,53.449l-0.602,0.008c-0.691,2.098-1.961,2.813-3.02,0.297l-0.48,0.051
C98.449,55.934,102.117,57.273,102.57,53.449L102.57,53.449z M98.594,55.418c-0.246-0.418-0.527-1.379-0.789-1.391
c-0.711-0.031-1.691,0.098-1.457,0.535C96.711,55.258,98.883,55.902,98.594,55.418L98.594,55.418z M103.461,55.043
c0.656-0.395,0.793-0.664,0.367-1.098c-0.551-0.559-0.84-0.273-1.012,0.621C102.668,55.332,102.773,55.457,103.461,55.043
L103.461,55.043z M94.586,53.566c4.387-1.98,6.047-2.234,7.828-1.746c0.414,0.113,0.781,0.344,1.012,0.332
c0.852-0.051,0.309-1.004-1.223-1.551c-1.75-0.625-2.859-0.344-6.219,1.406C94.016,53.035,92.418,54.547,94.586,53.566
L94.586,53.566z M107.293,51.164c-0.063-0.117-0.328-0.906-0.402-1.195c-0.074-0.285-0.145-0.582-0.227-0.586
c-2.031,0.324-3.82-0.055-4.301-0.168c-3.078-0.734-6.051-0.586-8.27,0.281c-0.543,0.215-1.215,0.555-1.277,0.617
c-0.176,0.164-0.438-0.023-0.434-0.227c0-0.242,1.363-1.316,2.223-1.742c2.609-1.289,5.363-1.512,8.391-0.699
c1.973,0.754,3.242,0.633,4.5,0.082c0.621-0.27,0.18,0.398-0.016,1.285c-0.133,0.617,0.016,1.141,0.039,1.488
C107.598,51.141,107.504,51.563,107.293,51.164L107.293,51.164z M153.125,228.313v-69.48c-11.535,8.496-33.352,17.355-33.352,17.355
c2.75,5.59-3.305,10.375-6.773,4.699c-3.574,4.004-8.496,18.027-8.668,22.684c0,0,9.5,16.566,14.137,24.742H153.125z
M89.594,205.434c0.316-3.488,1.063-9.402,3.391-16.285c0.977-2.887,2.152-6.199,3.816-9.164c0.664-1.035,0.711-1.438,0-1.066
c-0.445,0.238-2.477,2.523-2.754,3.102c-3.117,6.569-4.562,14.465-5.703,20.492c-0.258,1.352-0.336,3.034-0.336,3.034
L89.594,205.434z M91.875,205.148c0.742-8.474,3.863-19.914,8.559-27.375c0.438-0.707,0.984-1.324,0.961-1.57
c-0.059-0.727-1.867,0.527-3.27,2.668c-1.563,3.098-3.133,6.402-4.332,10.059c-1.691,5.168-2.93,9.938-3.41,16.414L91.875,205.148z
M96.383,204.441c0.473-4.883,1.988-9.363,3.262-13.853c1.559-5.487,3.633-9.526,6.055-13.163c0.777-1.169,1.691-2.258,2.563-3.371
c0.113-0.134,0.227-0.375,0.199-0.477c-0.559-0.098-1.004,0.078-1.438,0.32c-0.602,0.336-1.453,1.187-1.949,1.82
c-3.449,4.391-5.305,9.516-7.023,14.695c-1.656,4.973-2.848,9.754-3.078,14.257L96.383,204.441z M65.414,200.699
c0.692-0.055,1.141,0.074,1.34-0.11c0.199-0.183,0.133-0.675,0.199-1.304c0.133-1.344-0.007-1.27-0.847-0.398
c-1.395,1.438-3.934,1.988-5.446,1.12c-0.761-0.437-1.293-0.741-1.363-0.379c-0.086,0.427,0.031,0.75,0.356,0.981
C61.485,201.441,63.223,200.867,65.414,200.699L65.414,200.699z M63.778,199.668c0.961-0.32,1.941-0.833,2.496-1.618
c0.523-0.75,0.515-0.854,0.117-0.715c-1.961,0.961-3.246,1.454-5,1.188c-2.371-0.363-2.469-0.06-0.902,0.922
C61.516,200.085,62.367,200.105,63.778,199.668L63.778,199.668z M60.293,196.664c0.367-0.27,0.461-1.371,0.164-1.434
c-0.297-0.063-0.734,0.483-0.843,0.93C59.496,196.75,59.934,196.902,60.293,196.664L60.293,196.664z M63.965,196.617l0.633-0.055
c-0.324-2.767-3.328-2.883-3.883,0.272l0.477,0.075C61.813,194.391,63.629,194.46,63.965,196.617L63.965,196.617z M65.946,196.171
c0.921-0.511,0.601-1.144-0.637-1.386c-0.813-0.191-0.77,0.472-0.348,1.375C65.172,196.605,65.317,196.523,65.946,196.171
L65.946,196.171z M58.871,192.785c-0.007-0.305-0.136-0.801-0.281-1.102c-1.059-2.164-1.644-4.724-1.523-7.906
c0.086-2.277,0.113-2.984-0.36-2.984c-0.664,0.316-1.054,4.559-0.211,8.089C57.09,191.375,58.914,194.469,58.871,192.785
L58.871,192.785z M58.844,189.335c-0.063-1.19,0.199-3.858,0.066-4.44c-0.171-0.767-0.625-1.457-0.882-1.642
c-0.395-0.289-0.497,0.263-0.36,1.692C57.992,188.301,58.531,190.844,58.844,189.335L58.844,189.335z M59.18,183.227
c0.262-0.474,0.16-0.974-0.418-2.095c-2.27-4.422-2.566-7.444-0.191-8.543c0.265-0.12,0.433-0.144,0.609-0.241
c0.746-0.414,0.461-1.168-0.656-0.855c-3.09,0.855-3.7,3.742-1.094,9.086C58.754,183.242,58.961,183.617,59.18,183.227
L59.18,183.227z M59.742,180.719c0.039-0.188,0.122-0.91,0.153-1.059c0.031-0.148-0.281-0.575-0.617-1.426
c-0.872-2.228-0.891-3.149,0.058-3.797c0.309-0.181,0.629-0.188,0.676-0.395c0.074-0.324,0.066-0.855-0.125-1.008
c-1.363,0.008-1.992,0.8-2.234,1.559c-0.36,1.191,0.015,2.941,1.086,5.105C59.258,180.375,59.531,181.613,59.742,180.719
L59.742,180.719z M60.785,177.835c0.727-1.468,0.036-3.371-0.964-2.722c-0.653,0.422-0.688,0.867-0.286,2.09
C60.02,178.691,60.309,178.796,60.785,177.835L60.785,177.835z M63.34,173.906c0.293-0.285,0.035-0.699-0.504-2.324
c-0.465-1.387-0.254-2.336,0.629-2.613c1.262-0.309,1.707,1.75,1.973,2.616c0.136,0.672,0.578,0.856,0.972,0.392
c0.11-0.129,0.141-0.238-0.046-0.97c-0.817-3.194-1.879-4.211-3.594-3.413c-1.594,0.738-1.383,2.387-0.231,5.855
c0.153,0.461,0.258,0.804,0.367,0.855C63,174.344,63.18,174.066,63.34,173.906L63.34,173.906z M64.75,172.824
c0.375-0.371,0.356-0.203-0.078-1.535c-0.492-1.52-0.75-1.836-1.277-1.316c-0.324,0.32-0.16,0.676,0.211,1.918
C64.035,173.335,64.149,173.418,64.75,172.824L64.75,172.824z M130.684,167.625c2.512-1.727,1.477-4.829-1.828-5.977
c-0.391-0.137-0.82-0.301-0.953-0.363c-1.52-0.73-2.699-0.953-2.703-0.387c-0.004,0.336,0.453,0.504,1.91,1.211
c2.152,1.047,2.637,2.254,1.574,3.781C127.918,166.988,129.352,168.246,130.684,167.625L130.684,167.625z M132.961,163.852
c0.219-0.888,0.543-1.645,0.699-2.164c0.211-0.81-0.063-0.617-0.602-0.492c-1.383,0.715-2.371,0.328-1.699,1.312
C132.105,163.816,132.723,164.828,132.961,163.852L132.961,163.852z M132.789,160.753c1.727-1.03,2.105-3.71,0.504-4.991
c-0.387-0.305-1.051-0.707-1.852-0.953c-1.633-0.496-3.992-0.724-4.855-0.461c-0.184,0.219-0.191,0.563-0.008,0.659
c0.242,0.091,0.676,0.149,1.305,0.216c2.398,0.241,3.582,0.952,3.469,2.652c-0.121,1.75-1.523,2.421-4.055,1.867
c-1.363-0.297-1.996-0.153-1.449,0.164c0.648,0.379,2.047,0.875,3.422,1.144C130.449,161.257,131.789,161.335,132.789,160.753
L132.789,160.753z M124.516,160.313c1.938-4.344,2.961-15.734-8.129-23.974l0.367,2.282c6.535,5.707,8.102,12.977,6.75,19.648
L124.516,160.313z M134.414,152.527c-0.695,0.445-1.273,0.914-2.164,1.308c-0.535,0.239-0.547,0.297,0.176,0.692
c0.352,0.191,0.93,0.543,1.148,0.781c0.387,0.41,0.836,0.569,1.008,0.418C134.563,155.082,134.785,152.945,134.414,152.527
L134.414,152.527z M131.133,153.348c2.246-0.707,3.449-1.785,3.191-3.586c-0.375-2.645-2.594-3.203-6.75-2.173
c-1.996,0.5-2.176,1.435-0.277,0.954c2.395-0.609,4.273,0.309,4.02,2.059c-0.148,1.508-1.363,2.387-3.5,2.387
c-1.129,0-1.477,0.101-1.324,0.504C126.598,153.77,130.207,153.641,131.133,153.348L131.133,153.348z M127.426,147.066
c3.672-1.254,5.379-3.203,4.539-5.391c-0.988-2.57-4.191-2.598-7.414-0.203c-1.504,1.098-1.273,1.504,0.184,0.945
c1.891-0.863,3.105-1,3.879-0.309c1.398,1.242,0.457,3.406-1.664,4.184c-1.023,0.426-1.355,0.66-1.355,0.969
C125.59,147.746,125.777,147.628,127.426,147.066L127.426,147.066z M133.617,147.027c0.094-0.762-0.766-3.402-1.141-2.793
c-0.098,0.16-0.441,0.906-0.875,1.293c-1.262,1.129-1.023,0.699,0.23,1.047C132.527,146.766,133.516,147.253,133.617,147.027
L133.617,147.027z M123.906,141.382c3.711-2.144,5.129-5.202,3.207-7.237c-1.73-1.828-4.598-0.767-7.258,2.559
c-1.223,1.527-0.305,1.336,1.34-0.118c1.918-1.687,4.355-0.871,4.344,1.239c-0.008,0.898-1.285,2.414-2.492,3.117
c-0.379,0.219-0.434,0.555-0.301,0.772C122.891,141.949,123.191,141.796,123.906,141.382L123.906,141.382z M130.414,139.145
c-0.195-0.574-1.59-3.047-1.891-2.965c-0.316,0.637-0.34,1.469-0.719,2.145c-0.52,1.008-0.453,0.852,1.195,0.847
C130.227,139.168,130.375,139.335,130.414,139.145L130.414,139.145z M119.504,136.348c3.117-3.223,3.395-7.004,0.473-7.871
c-1.621-0.48-4.207,0.684-4.215,1.891c-0.004,0.75,0.137,0.883,0.793,0.613c2.754-1.021,4.938,1.621,2.406,4.656
c-0.613,0.879-0.695,1.102-0.52,1.281C118.652,137.132,118.824,137.05,119.504,136.348L119.504,136.348z M153.094,108.762V23.254
h-18.25l-14.496,22.574l-0.023,5.586c0,0.191,0.328,0.313,0.543,0.07c0.824-0.633,0.508,0.031-0.441,1.469
c-0.957,1.453-0.664,2.652,0.383,4.203c2.219,3.289,3.379,9.328,2.434,12.52c-0.359,1.207-0.438,1.695-0.203,2.367
c0.266,0.773,0.43,1.184,1.199,1.68c0.672,0.465,6.184,2.609,15.066,8.301l-0.043-40.172l5.594-5.348l5.914,5.641l0.207,66.324
C150.977,109.168,152.352,109.488,153.094,108.762L153.094,108.762z M149.895,42.332l-4.953-4.594l-4.891,4.527
c-0.027,21.602,0.121,65.941,0.121,65.941l4.863,0.348c0,0,0.359-1.012-0.098-3.625c-0.684-3.922-0.641-8.715,0.457-16.004
c0.684-4.473,0.004-8.352-1.031-12.434c-0.902-2.719-0.934-5.238-0.77-7.672c0.348-3.879,1.418-6.809,1.547-12.395
c0.078-3.184-0.074-6.297,0.039-10.223c0.051-0.527,0.273-0.461,0.313,0.078c0.148,3.555,0.285,6.93,0.32,10.398
c-0.109,4.516-1.215,9.156-1.336,13.289c-0.094,2.859-0.137,3.852,1.074,7.336c1.902,5.473,0.652,13.887,0.629,14.035
c-0.809,5.387-1.395,12.281,1.328,17.438l2.641,0.234L149.895,42.332z M115.84,83.086c1.461-0.668,1.75-1.848,0.961-4.695
c-0.141-0.504-0.301-1.109-0.355-1.34c-0.168-0.703-0.484-0.777-0.906-0.219c-0.254,0.332-0.02,0.41,0.367,1.973
c0.586,2.367,0.246,3.148-0.637,3.141c-0.781-0.004-1.391-0.645-1.613-2.18c-0.074-0.523-0.188-0.883-0.313-1.09
c-0.215-0.352-0.469-0.289-0.676,0.098c-0.266,0.504,0.234,2.574,0.902,3.574C114.293,83.359,114.789,83.566,115.84,83.086
L115.84,83.086z M115.441,80.965c0.309-0.582-0.074-2.016-0.277-2.953c-0.184-0.523-0.395-0.652-0.742-0.566
c-0.52,0.125-0.492,0.691-0.305,1.621C114.496,80.957,114.703,81.195,115.441,80.965L115.441,80.965z M119.879,77.551
c1.672-0.949,1.832-2.59,0.711-5.566c-0.461-1.223-1.035-2.082-1.352-2.09c-0.125,0.777-0.238,1.191-0.098,1.496
c0.129,0.281,0.348,0.715,0.504,1.078c0.953,2.195,0.695,3.461-0.223,4.148C118.566,77.258,119.105,77.797,119.879,77.551
L119.879,77.551z M65.192,76.406c3.922-0.836,7.457-7.117,9.683-12.715c2.028-5.641,4.184-11.84,4.524-17.008
c0,0-1.485,0.066-1.664,0.371c-0.168,0.301-0.243,0.949-0.399,1.875c-1.023,4.754-1.836,8.363-3.617,12.836
c-1.238,3.102-2.586,6.613-5.938,11.328c-1.101,1.32-2.359,2.137-3.945,2.355c-0.402,0.059-1.078-0.02-1.25,0.102
c-0.301,0.211-0.031,0.691,0.746,0.887C64.024,76.609,64.731,76.496,65.192,76.406L65.192,76.406z M119.191,75.672
c0.598-0.637,0.656-1.387-0.012-2.98c-0.188-0.445-0.273-0.699-0.5-0.637c-0.473,0.133-1.023,1.371-0.695,2.418
C118.41,75.84,118.656,76.238,119.191,75.672L119.191,75.672z M63.824,74.672c1.149-0.152,2.606-1.063,3.653-2.488
c2.16-2.816,3.652-6.02,4.758-8.508c0.882-2.008,2.48-6.34,2.914-7.91c0.922-3.332,1.425-5.48,1.847-7.867
c0.039-0.219,0.075-0.57,0.012-0.684c-0.457-0.125-1.453-0.051-1.758,0.254c-0.551,3.828-1.832,7.668-2.765,10.855
c-1.579,5.43-6.071,14.109-8.524,14.52c-1.316,0.223-2.828-0.922-2.582-2.094c0.149-0.719,0.246-0.992,0.602-1.172
c0.851-0.301,1.351,0.277,0.414,0.656c-1.086,0.941,0.867,2.379,2.066,1.375c2.035-1.703-0.953-4.965-3.402-3.465
c-2.707,1.66-2.012,4.539-0.309,5.906C61.61,74.738,62.606,74.836,63.824,74.672L63.824,74.672z M83.02,70.777
c1.676-1.715,2.933-3.93,3.847-6.703c1.985-6.227,3.629-13.367,4.223-18.957c0,0-1.43-0.148-1.75,0.152
c-0.223,0.215-0.008,0.414-0.617,4.504c-1.02,5.957-2.512,11.871-4.664,16.992c-0.883,2.074-1.133,2.328-1.758,3.402
C81.43,71.688,81.754,72.074,83.02,70.777L83.02,70.777z M120.176,57.797c-0.156-0.082-0.141-0.027-0.207,0.016
c-0.23,0.156-0.078,0.953,0.438,2.184c1.367,2.195,1.527,6.457,1.438,8.059c-0.027,0.48-0.078,0.758,0.07,1.184
c0.145,0.422,0.398,0.91,0.805,0.09c0.449-3.156,0.098-6.457-1.117-9.133C121.176,59.242,120.758,58.313,120.176,57.797
L120.176,57.797z M121.227,67.102c0.238-0.848-0.203-4.215-0.75-5.398c-0.223-0.477-0.621-0.516-0.574,0.027
c0.008,1.168-0.121,3.387,0.004,4.043C120.504,67.145,120.969,68.02,121.227,67.102L121.227,67.102z M118.137,53.496l-0.645,0.004
c0.023,2.199-1.938,2.813-2.66,0.168l-0.582,0.133C115.023,57.535,118.508,55.824,118.137,53.496L118.137,53.496z M114.219,55.156
c-0.336-0.977-0.195-1.332-1.047-0.895c-0.648,0.336-1.035,0.695-0.125,1.133C113.863,55.738,114.43,55.777,114.219,55.156
L114.219,55.156z M119.125,54.594c0.27-0.539,0.238-1.031-0.168-1.031c-0.313-0.004-0.398,0.246-0.488,0.773
C118.313,55.273,118.703,55.445,119.125,54.594L119.125,54.594z M119.469,50.938c0.246-0.082,0.176-0.43,0.109-0.871
c-1.063-1.473-3.688-1.023-4.633-0.73c-1.09,0.352-1.363,0.223-2.105-0.117c-0.613-0.113-0.699,0.035-0.848,0.328
c-0.129,0.254-0.152,0.746-0.195,1.594c-0.035,0.719-0.012,1.055,0.238,0.828c0.973-0.871,2.102-1.957,3.742-2.023
C117.77,49.863,119.469,50.969,119.469,50.938L119.469,50.938z M112.234,52.93c0,0.293,0.254,0.109,0.902-0.297
c2.355-1.395,3.723-1.195,5.738-0.531c0.453,0.148,0.73-0.32,0.242-0.719C116.719,49.418,113.766,50.668,112.234,52.93
L112.234,52.93z M120.777,43.883l12.793-21.086l-71.258-0.051L74.41,45.133C84.278,42.855,100.52,39.949,120.777,43.883
L120.777,43.883z M120.777,43.883"/>
<path fill="#E2CF00" d="M57.582,208.832c1.512-2.247,8.985,1.753,9.379,3.336c4.426-3.469,9.797-3.723,14.117,0.621
c4.446-4.844,9.203-4.512,14.153-1.707c-0.551-1.094,6.328-5.926,10.512-2.855l11.313,20.086l-72.465,0.233
C48.871,222.141,52.664,214.488,57.582,208.832L57.582,208.832z M26.387,104.059c-0.5-0.336-0.285-0.59-0.508-1.203
c-0.39-1.086-1.93-11.031,2.102-11.309c6.519,2.883,14.843,13.191,18.699,19.492c4.781,7.805,9.609,25.757,6.941,24.973
c-0.382-0.113,8.231,8.488,8.825,9.327c0.976,1.38-14.524,27.118-17.082,26.196c-0.774-0.282-5.938-3.352-5.938-3.352l0.148-8.59
c0,0,8.114-15.966,8.563-21.301c0.168-2.016-5.582-5.465-5.844-6.165c-0.656-1.733-0.578-8.183-3.929-10.999
c-0.735-0.617-2.043-0.867-3.379-0.813c-0.715,0.027-1.465,0.332-2.086,0.289c-1.52-0.105-2.352-0.867-2.696-1.57
C26.789,112.035,30.25,106.574,26.387,104.059L26.387,104.059z M153.125,109.801l0.047,3.168c-5.008,1.09-13.859-3.141-16.539,3.672
c0.332,7.359,1.988,10.659,3.141,12.883c0.867,1.992,6.957-0.281,9.102,1.729c4.477,3.431,5.137,11.263,5.16,17.353
c0.016,3.625,0.277,7.129-0.91,9.672c-2.371,3.867-13.848-6.367-18.66-15.043c-21.531-39.094-16.035-26.738-18.078-38.113
c-0.129-6.16,16.922-25.957,16.922-25.957c0.039-0.043,6.211,3.746,6.211,3.746c0.152,0.059-0.129,25.98-0.129,25.863
C144.266,109.023,149.039,109.602,153.125,109.801L153.125,109.801z M115.648,86.109c-9.465,13.535-12.668,33.762-12.059,47.867
c1.227,21.066,16.277,39.844,15.273,41.621c-0.172-0.125-0.563,0.077-0.723-0.052c-3.617-2.921-5.887-2.534-7.66-2.562
c-3.391-0.055-4.324,0.953-6.27,1.147c-4.965,0.489-4.563,0.614-8.773-0.968c-2.137-0.801-3.332-3.211-5.364-4.036
c-5.648-2.28-8.097-3.948-12.734-5.339c-4.539,0.406-11.465,2.546-14.082,0.813c16.895-34.09,15.008-55.191-3.371-90.125
c1.562,0.461,1.805,1.918,2.977,2.273c3.875,1.496,9.218,0.93,12.417-0.465c3.477-1.559,6.758,0.727,6.711,0.648
c6.844,4.82,15.125,7.93,19.438,10.078c1.273,0.656,2.883-0.379,4.289-0.664c2.883-0.582,5.352-1.813,7.5-1.094
C113.91,85.488,114.938,85.77,115.648,86.109L115.648,86.109z M73.121,42.238c-0.925-1.723-10.297-19.715-10.297-19.715
l70.438,0.422l-10.586,17.363c-0.996,0.941-5.969,3.566-11.043-2.379c0.902,0.555-7.523,6.141-13.91-0.227
c-2.176,2.121-4.816,3.496-7.254,3.688c-3.484,0.273-6.898-1.688-7.105-2.105C84.063,39.648,78.356,45.234,73.121,42.238
L73.121,42.238z M73.121,42.238"/>
<path fill="#D40000" d="M80.84,212.387c-5.824-6.055-13.887-0.598-13.789-0.255c-2.703-2.745-5.578-4.737-9.145-3.636
c0,0,0.227-1.215,0.254-1.234c12.164,1.452,28.895,2.113,46.5-1.406l0.434,1.914c-4.555-1.392-7.648,0.699-10,3.483
C86.696,206.617,84.864,210.714,80.84,212.387L80.84,212.387z M96.785,138.046l4.836-0.093c0.91,14.047,12.66,35.543,12.941,35.543
c-0.816-1.137-8.574-0.243-8.516-0.098C101.781,162.031,97.098,150.68,96.785,138.046L96.785,138.046z M68.578,171.371
c0,0-1.554-4.027-2.484-5.75c5.074-8.661,9.242-17.621,11.375-27.59l3.461,0.031C79.903,151.824,68.879,172.719,68.578,171.371
L68.578,171.371z M130.793,169.527c7.359-14.188,6.352-33.5-15.207-44.344c0,0,0.461-14.602,2.07-14.637
c0.363,0.113,9.781-0.121,9.781-0.121c3.027-6.746,6.652-13.629,11.984-18.301l0.141,16.211c-4.105,0.406-6.609,1.715-7.855,4.922
l-5.688,1.266c0.418,16.281,6.551,31.328,24.75,44.844c-4.039,3.008-14.957,9.859-18.902,11.023
C131.121,170.621,130.793,169.527,130.793,169.527L130.793,169.527z M39.617,159.296l0.161-16.878
c2.761-0.598,4.933,0.203,7.214-4.738c0,0,3.821,1.813,5.094,2.48C48.512,146.546,45.426,153.371,39.617,159.296L39.617,159.296z
M75.844,129.41l0.187-8.57l8.145,0.234c-0.691,2.906-0.906,5.813,0.02,8.719L75.844,129.41z M94.43,129.305
c0.555-2.802,0.953-5.621-0.199-8.598l8.82,0.148l-0.207,8.535L94.43,129.305z M77.653,112.547
c-1.465-16.809-12.997-35.832-13.161-35.426c1.36,0.215,3.75,0.887,5.071,0.266c1.593,0.266,2.972,0.082,3.051-0.063
c0.105-0.59,10.718,24.406,9.3,35.188C81.746,112.875,78,112.898,77.653,112.547L77.653,112.547z M98.043,112.695
c1.246-7.766,4.457-21.969,12.047-33.488c0.863,2.047,1.586,4.148,2.77,6.063c-5.723,8.313-9.246,17.816-11.387,27.52
L98.043,112.695z M45.293,108.512c-3.469-7.078-17.914-18.215-17.176-17.09c5.981-5.355,12.649-8.754,19.305-12.188
c0,0,1.184,1.121,1.004,1.402c-4.094,6.441-6.078,20.094-2.113,27.918c3.808,8.355,10.563,13.293,17.449,17.172
c-0.535,5.227-0.793,9-2.082,14.194c0,0-4.324-2.272-7.871-3.733C53.242,126.32,51.199,117.496,45.293,108.512L45.293,108.512z
M83.555,39.18c5.09,3.102,9.648,2.773,14.07-1.434c5.551,5.031,11.551,2.688,14.086,0.418c2.348,2.641,5.406,4.109,9.875,3.234
l-1.105,2.324c0.266-1.234-30.84-3.25-45.887,0.961c0,0-0.879-1.754-0.781-1.77C75.121,42.836,79.481,44.449,83.555,39.18
L83.555,39.18z M83.555,39.18"/>
<path d="M4.832,9.199v2.363l2.274-0.121v20.418l-2.457,0.012v2.426h6.82v-2.426H9.688V26l2.976-3.871l3.907,9.742H14.11v2.426h7.464
v-2.426h-2.066l-5.211-12.477l5.332-7.953h1.672V9.199H14.11v2.242h2.257l-6.679,9.75v-9.75h1.781V9.199H4.832z M61.672,21.965
l12.574,23.395c0,0,0.368-0.066,0.555-0.102c17.422-3.402,31.227-3.871,46.047-1.266l13.18-21.781
C110.043,21.938,61.672,21.965,61.672,21.965L61.672,21.965z M63.074,22.961l69.915,0.078l-3.934,6.441
c-2.355-0.727-3.668,0.355-3.996,2.609c0,0-0.293-0.125-0.84-0.188c-3.445-0.371-3.879,4.164-0.664,4.715
c0.82,0.137,0.961-0.023,0.961-0.023c-2.867,2.406-4.5,0.781-5.848-0.012c-0.035,0.281-2.57,2.184-4.961-0.094
c3.422,0.344,3.953-3.086,2.32-4.387c-0.344-0.336-0.691-0.602-0.691-0.602c0.805-0.699,0.98-1.633,0.465-2.699
c-1.039-2.145-4.293-2.02-4.789,0.324c-0.195,0.91-0.199,1.07-0.199,1.07c-2.629,0.172-3.164,2.648-2.258,4.023
c0.512,0.781,1.641,0.953,2.684,0.898c-1.406,1.988-4.621,1.313-6.055-0.324c-2.273,2.672-4.867,2.344-6.16,0.914
c0.879-0.012,1.484-0.023,2.289-0.77c1.383-1.273,0.703-3.535-1.246-4.172c-0.379-0.121-0.652-0.145-0.672-0.148
c0.012-0.02,0.051-0.145,0.133-0.824c0.488-3.945-5.43-3.555-4.855,0.324c0.066,0.449,0.188,0.691,0.188,0.691
s-0.629-0.035-0.988,0.133c-3.281,1.512-1.02,5.68,1.52,4.605c0.238-0.102,0.895-0.422,0.988-0.418
c-3.145,3.895-5.781,1.137-6.476,0.711c-2.125,3.148-5.813,1-5.887,0.781c0.23,0.063,0.922-0.082,1.578-0.418
c2.078-1.082,1.488-3.867-0.133-4.473c-0.496-0.172-1.094-0.191-1.769-0.137c0,0,0.05-0.703-0.016-0.949
c-1.02-3.793-5.742-1.898-4.578,1.305c0.101,0.281,0.375,0.566,0.375,0.566s-0.641,0.387-0.926,0.645
c-2.254,2.027,0.039,5.367,2.672,3.977c0.34-0.18,0.672-0.555,0.766-0.531c-1.239,2.262-3.118,3.051-5.801,1.176
c-1.653,2.621-4.348,1.531-5.11,0.223c2.52,0.23,4.157-4.598-0.687-4.754c-0.375-1.313-0.359-3.309-3.43-2.965L63.074,22.961z
M46.715,25.777c-2.629,6.969-10.051,13.281-14.351,21.133c-4.86,7.949-3.333,16.078,3.277,17.484
c3.469,0.738,7.988-2.594,8.39-6.184c0.083-0.73,0.356-1.117,0.848-1.059c0.383,0.047,0.348,0.992,0.203,2.129
c-0.531,3.727-2.554,9.645-5.168,12.375l12.164,0.008c-0.488-0.277-5.031-5.949-4.589-12.832c0.007-1.234,0.007-1.641,0.554-1.637
c0.438,0,0.442,0.203,0.571,1.414c0.82,7.637,10.32,8.469,13.3,1.16c1.508-3.684-0.07-10.246-4.043-15.859
C54.856,38.977,49.723,33.234,46.715,25.777L46.715,25.777z M52.078,71.664c0.028,0.016,0.043,0.016,0.047,0H52.078z M97.219,31.242
c0.555,0,1,0.453,1,1.008s-0.445,1.004-1,1.004s-1.008-0.449-1.008-1.004S96.664,31.242,97.219,31.242L97.219,31.242z
M112.84,31.363c0.586,0,1.063,0.48,1.063,1.066c0,0.59-0.477,1.063-1.063,1.063c-0.59,0-1.066-0.473-1.066-1.063
C111.773,31.844,112.25,31.363,112.84,31.363L112.84,31.363z M82.219,32.527c0.566,0,1.023,0.457,1.023,1.023
s-0.457,1.031-1.023,1.031s-1.031-0.465-1.031-1.031S81.653,32.527,82.219,32.527L82.219,32.527z M126.082,33.789l-0.891,1.582
C124.207,34.512,124.887,33.383,126.082,33.789L126.082,33.789z M69.989,35.969l-0.887-1.633
C70.688,34.441,70.219,35.578,69.989,35.969L69.989,35.969z M97.086,35.078c6,6.836,11.383,4.816,14.898,0.27
c1.512,3.875,4.875,6.555,10.66,3.949c-0.348,0.617-1.227,1.711-1.227,1.711c-5.117,1.379-7.656-1.027-9.629-3.32
c-5.203,4.32-10.102,3.273-14.145-0.539c-3.453,4.344-9.039,5.277-14.215,1.734c-2.363,3.488-5.754,4.898-10.02,3.152
c0,0-0.906-1.422-0.984-1.516c0.617,0.52,8.473,3.781,10.391-4.063C85.551,41.098,94.516,41.344,97.086,35.078L97.086,35.078z
M97.688,37.891c6.75,6.313,13.832,0.855,14.016,0.469c0.105,0.352,3.957,4.949,9.512,3.223l-0.902,1.547
c-10.453-1.77-20.066-2.902-42.082,0.332c0,0,3.515-1.039,5.293-3.844C84.512,40.262,92.148,44.523,97.688,37.891L97.688,37.891z
M12.364,39.68c-0.614,1.488-1.618,3.027-2.458,4.402c-3.949,6.125-4.175,6.715-4.488,8.875c-0.879,4.234,4.121,5.949,5.715,3.059
c0.711-1.223,1.164-0.426,0.844,0.73c-0.203,2.031-2.27,4.383-2.278,4.34l6.055,0.043c0,0-2.598-2.645-2.558-4.77
c0.003-0.969,0.523-0.996,1.152-0.125c1.808,2.496,5.18,0.488,5.199-3.059c0.016-2.176-0.644-3.395-4.578-9.25
C14.11,42.645,13.164,41.035,12.364,39.68L12.364,39.68z M74.035,43.121c0,0,2.938,0.344,3.168,0.402
c0.258,0.199-2.472,0.949-2.484,0.895L74.035,43.121z M79.992,73.23c-0.179,0.008-0.402,0.207-0.769,0.566
c-0.797,0.785-0.977,0.891-1.75,1c-0.586,0.086-1.817,0.793-2.563,1.477c-0.203,0.184-0.586,0.336-1.046,0.418
c-0.403,0.07-0.954,0.164-1.227,0.211s-0.57,0.133-0.66,0.188c-0.391,0.238-1.031,0.277-1.746,0.105
c-0.692-0.168-0.805-0.164-1.563,0.07c-1.109,0.344-1.836,0.344-2.383,0c-0.546-0.34-1.41-0.469-1.961-0.293
c-0.812,0.266-2.921-0.996-2.914-1.742c0-0.168-1.199-1.066-1.5-1.066c-1.066-0.16-10.445,3.543-10.398,3.758
c11.516,14.227,21.211,35.898,13.91,62.417l-1.293-0.62c1.086-4.82,1.516-9.673,1.848-14.598
C42.36,115.789,40.5,94.086,48.891,80.383l-1.426-1.516c-5.082,2.715-10.25,4.254-22.816,14.797l0.035,17.063
c0.031,15.43,0.023,30.461,0.023,30.461c4.547,0.504,9.555,0.914,14.496,1.34c0,0-0.066,15.258-0.179,21.223
c-0.094,5.046,0.093,4.73,0.093,4.73l16.36,8.625c-1.153-4.543,1.687-6.344,4.062-6.156c-1.05-4.379,1.555-6.387,4.532-5.824
c2.007,0.382,2.71,1.488,3.863,5.152c0.187,0.594,0.441,1.391,0.441,1.391l1.149-0.043c1.433-3.082,2.394-7.004,5.769-7.512
c4.422-0.664,6.067,2.371,6.063,5.406c4.285-3.773,9.414-0.852,9.078,4.785c2.156-1.387,5.805-2.637,8.105,2.702
c0.863-0.183,1.305-1.147,2.523-1.448c0.453-0.095,1.484-0.648,1.484-0.648l0.012-0.184c0,0,0.957-0.332,2.238-0.543
c1.102,0.41,0.781,0.398,1.371-0.332c0.66-0.34,1.73-0.563,2.559-0.488c0.863,0.078,1.25,0.14,1.758-0.082
c0.789-0.344,1.527-0.434,1.996,0.09c0.336,0.375,0.824,0.195,1.344,0.172c1.043-0.043,2.434,0.387,2.871,1.324
c0.637,0.652,2.039,1.316,2.039,1.316l1.133-0.263l0.129-0.418l9.266-3.539c-18.895-20.687-18.402-48.132-13.949-62.026l1.707,0.82
c-0.906,4.117-1.934,8.348-1.801,14.484c17.016,7.586,25.48,27.195,15.164,44.313l1.09,1.409
c4.293-1.804,15.086-7.862,18.816-11.155l0.797,0.066c0,0,2.262-1.465,3.258-2.25l0.137-45.418l-0.793,0.207l-0.141-2.652
l-14.027-1.113c0.176-0.133,0.313-0.188,0.352-0.453l-0.078-25.145c-0.523-0.797-12.27-7.68-16.641-9.289
c-0.176-0.004-0.055,0.293,0.008,1.012c0.215,2.469-1.449,4.664-3.379,4.668c-0.695,0-0.816,0.293-0.781,1.711
c0.051,2.016-0.676,3.367-2.797,4.133c-2.516,0.906-4.215-0.41-5.613-5.582c-0.371-1.355-1.086-1.016-1.777,0.84
c-0.34,0.922-1.445,3.156-2.105,4.336c-0.512,0.902-1.316,1.305-2.41,1.789c-0.852,0.422-2.699,0.348-3.762-0.191
c-1.93-0.98-2.68-2.16-3.234-5.074c-0.07-0.383-0.324-0.348-0.949,0.121c-3.406,2.566-8.196-0.086-8.168-4.523
c0.008-1.301-0.043-1.352-0.809-0.727c-2.308,1.883-5.449,0.93-6.703-2.043C80.375,73.531,80.219,73.223,79.992,73.23L79.992,73.23z
M60.414,74.805c0.242-0.012,0.992,0.988,0.992,0.988c0.692,0.766,1.622,1.152,2.586,1.719c0.09-0.133,11.278,14.879,13.18,35.578
l5.203,0.027c-0.969-20.113-6.515-29.781-9.062-35.984l1.867-0.594c4.184,8.02,9.285,24.293,9.117,38.539h-8.594
c-1.214-14.27-6.765-28.184-14.523-38.738c-0.543-0.809-0.965-1.375-0.809-1.52C60.383,74.809,60.399,74.805,60.414,74.805
L60.414,74.805z M57.125,76.93l0.871,2.734c0,0,0.106-0.641,0.371-0.883c1.7-1.527,3.325,0.484,2.559,3.219
c-0.176,0.844-0.516,2.5-0.516,2.5s-1.707-0.875-2.566-1.156c-2.367-1.004-3.156-2.988-1.348-3.211
c0.305-0.039,0.926-0.066,0.926-0.066c-0.75-0.59-2.41-1.945-2.41-1.945L57.125,76.93z M65.071,77.234
c0.718,0.406,2.562,0.844,3.621,0.445c0.859-0.32,1.511-0.145,2.402-0.066c0.512,0.043,1.527-0.184,1.527-0.184
c5.09,10.703,8.586,23.406,9.172,35.02l-4.004,0.023c-1.508-12.34-6.285-24.871-12.343-34.168
C65.176,77.898,64.821,77.25,65.071,77.234L65.071,77.234z M81.789,77.422c1.547,0.016,3.168,1.563,4.051,4.086
c0.488,1.41,0.68,1.324,1.34,1.098c1.691-0.582,3.488,1.273,1.223,1.586c-2.223,0.367-0.954,4.715-1.141,5.098
c-0.902,0.156-2.598-3.539-2.551-4.637c0.106-2.699-2.426-4.953-4-3.82c-0.742,0.539-0.664,0.918-0.894,0.723
c-0.707-0.594-0.852-2.234-0.024-3.164C80.395,77.719,81.082,77.41,81.789,77.422L81.789,77.422z M127.813,78.348
c0,0,0.09,3.547-0.043,4.328c-0.266,2.363-3.352,2.613-3.473,0.723c-0.504,0.754-0.852,1.695-1.051,2.539l-2.191-1.504
c0.832-0.598,1.625-1.121,2.238-1.859c-1.621,0.121-2.527-1.281-1.441-2.477C123.055,78.727,126.391,78.578,127.813,78.348
L127.813,78.348z M47.336,79.469l0.965,1.094c-8.621,15.285-5.582,34.828,15.234,45.098c-0.136,4.688-0.738,9.434-1.859,13.832
l-7.68-3.723c0.055-17.285-9.734-33.762-25.359-44.594C34.309,86.621,40.578,82.617,47.336,79.469L47.336,79.469z M110.219,79.602
c0.367,2.02,2.277,5.672,2.414,5.465c-0.02-0.121-7.949,10.16-11.398,27.355l-2.945,0.012
C100.219,100.977,104.07,90.164,110.219,79.602L110.219,79.602z M134.668,80.082l1.566,0.949
c-8.219,6.883-13.633,15.605-17.609,25.016l-2.078-0.984C122.711,91.414,128.805,85.352,134.668,80.082L134.668,80.082z
M136.863,81.605c0.43,0.027,0.938,0.57,1.73,1.008c0.773,0.422,0.582,0.648-0.875,1.766c-1.723,1.32-1.887,1.262-1.871-0.621
c0.012-1.25,0.324-2.086,0.93-2.148C136.805,81.605,136.832,81.605,136.863,81.605L136.863,81.605z M134.969,83.547
c0.09-0.004,0.164,0.027,0.211,0.102c0.125,0.5,0.113,1.641-0.09,2.77c-0.16,0.742-2.371,2.605-3.16,3.344
c-0.316,0.207-0.461,0.133-0.516-0.238c0.023-0.586,0.078-1.363,0.09-2.156c0.004-0.246-0.047-0.5,0.172-0.688
C132.762,85.398,134.336,83.582,134.969,83.547L134.969,83.547z M139.074,84.156c0.012,0,0.02,0,0.031,0.008
c0.203,0.121,0.168,2.684,0.027,2.852c-0.645,0.168-2.367-0.105-2.809-0.34C136.227,86.375,138.66,84.137,139.074,84.156
L139.074,84.156z M62.071,84.984l0.597,2.512c0,0,0.172-0.336,0.215-0.402c1.191-1.82,2.641-0.754,2.617,1.773
c-0.008,0.797-0.734,3.988-0.734,3.988s-4.469-2.145-4.82-3.086c-0.344-0.926,0.144-1.742,0.968-1.816
c0.309-0.035,0.629-0.059,0.981,0l-1.918-1.961L62.071,84.984z M113.227,85.32l2.027,0.746c-4.23,6.879-8.594,13.672-11.77,29.168
h-8.5c1.191-9.469,3.598-18.777,7.898-27.84c0,0,1.668-0.512,2.609-0.816c0,0-7.023,16.07-7.84,26.406l4.105,0.086
C103.945,103,108.047,92.566,113.227,85.32L113.227,85.32z M97.137,85.57c1.141-0.043,1.984,0.758,1.918,2.184
c-0.012,1.301-0.133,1.492-1.055,0.973c-1.211-0.684-2.168-0.699-3.254,0.074c-0.594,0.426-1.18,0.781-1.18,0.781
s0.523-2.266,1.324-2.977C95.656,85.922,96.453,85.594,97.137,85.57L97.137,85.57z M92.777,88.918
c-0.082,0.766-0.309,1.117-0.512,1.77c0,0,0.668-0.258,0.984-0.406c1.512-0.707,3.086,0.598,3.063,2.125
c0.066,1.02-1.043,2.242-2.359,2.25c-0.461,0.004-0.945-0.141-1.418-0.488c0.344,1.863,0.41,2.73-0.957,3.664
c-1.141,0.762-3.547-0.105-3.41-2.195l0.082-1.285L87.094,94.5c-3.227,0.133-3.285-3.84-0.68-4.465
c1.043-0.246,2.172,0.605,2.172,0.605c-0.496-0.973-0.508-2.648,0.16-3.426C90.387,85.309,92.98,87.043,92.777,88.918L92.777,88.918
z M120.969,86.438c0.176,1.484,0.766,3.109,0.598,4.496c-0.25,1.773-1.758,2.824-2.945,1.672c-0.145-0.141-0.41-0.438-0.41-0.438
c-0.535,0.68-0.867,2.594-0.867,2.594l-2.094-1.289c0,0,1.453-1.02,1.855-1.602c0.109-0.164,0.164-0.469,0.164-0.469
c-1.164,0.363-2.152-0.828-1.836-1.879C116.066,87.801,119.195,87.164,120.969,86.438L120.969,86.438z M135.594,87.512
c0.785-0.023,1.996,0.199,2.953,0.301c0.738,0.129,0.328,0.543-1.32,2.148c-1.516,1.477-1.469,1.336-2.633,1.316
c-2.727-0.043-3.207,0.016-1.617-1.695c0.832-0.898,1.555-1.707,2.152-2.008C135.258,87.535,135.414,87.516,135.594,87.512
L135.594,87.512z M130.68,87.824c0.035,0,0.063,0.012,0.086,0.035c0.184,0.172,0.121,0.938,0.102,2.074
c-0.02,1.211-0.008,1.211-0.516,1.844c-0.645,0.809-1.18,1.633-1.855,2.41c-0.582,0.633-0.563,0.566-0.914-0.953
c-0.336-1.477-0.148-1.938,1.754-4.074C129.977,88.332,130.438,87.813,130.68,87.824L130.68,87.824z M139.191,88.664l0.023,2.992
c-5.625,5.5-9.445,11.684-12.047,18.504l-1.957-0.781C128.605,100.668,133.684,93.875,139.191,88.664L139.191,88.664z
M90.434,90.473c-0.934,0-1.684,0.75-1.684,1.68s0.75,1.688,1.684,1.688c0.93,0,1.684-0.758,1.684-1.688
S91.363,90.473,90.434,90.473L90.434,90.473z M90.422,91.004c0.641,0,1.16,0.52,1.16,1.16c0,0.645-0.52,1.164-1.16,1.164
c-0.644,0-1.16-0.52-1.16-1.164C89.262,91.523,89.778,91.004,90.422,91.004L90.422,91.004z M27.926,91.711
c17.547,11.258,25.414,28.711,25.379,43.699l-0.988-0.446c-1.028-21.183-12.543-34.206-24.989-42.632L27.926,91.711z
M131.809,91.875c0.398,0,0.938,0.063,1.719,0.152c1.453,0.078,1.633,0.168,0.629,1.316c-0.273,0.316-0.797,0.973-1.168,1.469
c-0.371,0.492-0.824,1.012-1.031,1.082c-0.305,0.105-2.855-0.016-3.582-0.117c-0.238-0.031,0.074-0.273,1.316-2.047
c0.953-1.363,1.055-1.813,1.957-1.852C131.699,91.875,131.75,91.875,131.809,91.875L131.809,91.875z M139.117,92.449
c0,0,0.348,9.656,0.094,15.813c-4.004-0.148-6.352,1.371-7.328,4.25l-4.207-2.082C130.762,102.504,134.887,96.992,139.117,92.449
L139.117,92.449z M126.727,92.672c0.227,0.004,0.359,0.477,0.422,1.402c0.266,1.66,0.238,1.852-0.457,2.918
c-0.344,0.531-0.816,1.281-1.047,1.668c-0.402,0.676-0.688,0.875-0.785,0.547c-0.551-1.789-0.723-2.898-0.527-3.258
c0.32-0.594,1.813-2.715,2.023-2.992C126.5,92.766,126.625,92.672,126.727,92.672L126.727,92.672z M26.637,92.852
c14.105,8.734,24.422,23.648,24.848,41.664c0,0-3.004-1.41-4.86-2.441l-0.097-1.75l0.98-0.031l0.316,1.973l2.153-0.066l-0.571-4.93
l-3.371,0.319l-0.679-2.792l1.019-0.219l0.567,1.8l2.191-0.577l-1.168-4.391l-3.387,0.926l-1.082-2.965l1.125-0.402l0.91,1.773
l2.063-0.719l-1.949-4.398l-3.114,1.469l-1.582-2.871l1.219-0.648l0.977,1.707l1.929-0.996l-2.386-4.047l-2.957,1.648l-1.485-2.227
l0.918-0.641l1.012,1.172l1.695-1.199l-2.597-3.488l-2.828,2.215l-2.094-2.426l0.965-0.816l1.437,1.289l1.61-1.402l-3.083-3.367
l-2.695,2.461l-2.008-1.746l0.981-1.086l1.254,0.957l1.332-1.578l-3.356-2.766l-2.515,2.488l-2.41-1.594v-1.188
c0.781,0.305,1.609,0.656,2.351,1.051l1.25-1.891l-3.601-2.43L26.637,92.852z M65.918,93.598l0.531,3.078
c0.508-0.836,0.911-1.414,2.008-1.09c1.313,0.535,1.332,2.52,0.219,5.551c-0.207,0.563-0.461,1.047-0.461,1.047
s-0.578-0.238-0.961-0.504c-0.805-0.547-2.16-1.172-2.855-2.266c-0.723-1.141-0.739-2.742,0.593-2.605
c0.266,0,0.786,0.125,0.786,0.125l-2-2.547L65.918,93.598z M25.864,94.516l2.441,1.574l-0.508,0.922l-1.933-0.871V94.516z
M87.09,95.242c0.707,0.988-1.781,3.902,1.477,5.066c0,0,0.078,0.672-0.602,1.082c-1.594,1.156-3.879-0.957-3.172-3.133
C85.25,96.863,86.563,95.25,87.09,95.242L87.09,95.242z M93.848,95.332c0,0,0.984,0.719,1.18,0.906
c1.813,1.742,1.832,4.234,0.188,5.105c-1.09,0.578-2.328,0.113-2.754-0.73c-0.199-0.391,0.125-0.797,0.543-0.793
c0.781,0.004,1.379-1.496,1.148-3.074C94.063,96.121,93.848,95.332,93.848,95.332L93.848,95.332z M115.246,95.914
c0,0,0.215,2.129,0.527,3.074c0.949,2.648-0.266,4.266-2.043,3.375c-0.254-0.125-0.703-0.703-0.703-0.703l-0.176,3.047l-2.531-0.738
c0.547-0.879,1.336-1.504,1.922-2.496c0,0-0.379-0.012-0.711-0.016c-1.512,0.055-2.066-1.621-0.484-3
C112.23,97.438,115.246,95.914,115.246,95.914L115.246,95.914z M128.477,96.621c0.305-0.004,0.688,0.023,1.211,0.023
c1.605,0,2.02-0.219,1.309,0.781c-0.273,0.391-0.945,1.477-1.148,1.844c-0.402,0.75-0.484,0.984-1.156,1.133
c-0.977,0.195-2.086,0.059-3.199,0.113c-0.242-0.012,0.254-0.844,0.531-1.359c0.684-1.266,1.098-2.137,1.684-2.402
C127.938,96.648,128.168,96.621,128.477,96.621L128.477,96.621z M123.512,97.598c0.195-0.008,0.34,0.34,0.523,1.059
c0.43,1.676,0.543,1.719-0.152,3.094c-0.352,0.695-0.949,1.871-1.195,2.359c-0.629,1.246-0.664,1.234-1.063,0.117
c-0.762-2.145-0.828-1.922,0.43-4.332C122.84,98.391,123.23,97.613,123.512,97.598L123.512,97.598z M30.961,98.188l2.27,1.82
l-0.645,0.625l-1.258-0.926l-1.851,1.984l3.047,2.781l2.582-2.543l2.211,2.313l-0.676,0.574l-1.297-1.254l-1.945,1.66l2.898,3.426
l2.926-2.23l1.828,2.402l-0.746,0.469l-1.195-1.16l-1.903,1.316l2.367,3.332l2.981-1.707l1.691,2.785l-0.937,0.453l-0.961-1.531
l-2.141,1.234l2.02,3.898l3.219-1.344l1.293,2.977l-0.981,0.398l-0.828-1.789l-2.164,0.855l1.453,4.094l3.262-0.938l0.793,3.043
l-1.008,0.277l-0.496-1.684l-2.078,0.5l0.871,4.105l3.32-0.211l0.395,3.324l-1.032,0.043l-0.257-1.98l-2.118,0.027
c0.012,0.699,0.094,2.125,0.094,2.125l-1.281-0.594c-1.899-12.629-8.672-23.156-18.77-30.484l-0.05-1.508l2.457,1.559
C28.321,100.707,30.574,98.699,30.961,98.188L30.961,98.188z M127.918,101.133c0.703-0.008,0.395,0.539-0.465,2.172
c-0.957,1.824-1.125,1.859-2.918,2.297c-2.18,0.531-2.117,0.652-0.938-1.863c0.453-0.969,0.785-1.816,1.203-2.137
c0.547-0.422,1.602-0.262,2.754-0.434C127.695,101.145,127.816,101.133,127.918,101.133L127.918,101.133z M25.981,101.668
c10.484,6.766,17.109,20.754,17.933,29.234c0,0-0.285-0.188-0.855-0.453c-0.797-0.364-0.992-0.602-1.223-1.758
c-2.078-10.371-7.93-19.172-15.808-25.387L25.981,101.668z M120.52,103.402c0.441-0.094,1.25,3.09,1.008,3.758
c-0.172,0.48-1.73-0.652-2.301-0.895C118.945,106.145,120.219,103.465,120.52,103.402L120.52,103.402z M69.965,103.547l-0.051,3.305
c0,0,0.399-0.473,0.602-0.625c0.781-0.566,1.973,0.223,2.019,1.195c0.063,1.352-0.144,1.902-1.226,3.777
c-0.336,0.582-0.84,1.324-0.84,1.324s-1.281-0.914-2.68-2.305c-1.508-1.508-1.218-3.516,0.102-3.523
c0.394-0.004,0.75,0.133,1.094,0.242c-0.286-0.973-1.348-2.859-1.348-2.859L69.965,103.547z M110.941,106.02
c0,0,0.684,0.902,1.469,3.273c0.754,2.262-0.402,3.969-1.973,3.113c-0.281-0.152-0.574-0.484-0.574-0.484
c-0.109,1.098,0.086,3.074,0.109,3.09l-2.531-0.441c0,0,1.391-2.211,1.492-2.754c0,0-0.156,0.121-0.852,0.121
c-2.543,0-2.016-3.027,0.922-4.703C109.441,106.98,110.941,106.02,110.941,106.02L110.941,106.02z M125.52,106.059
c0.547-0.023,0.289,0.508-0.32,1.75c-0.672,1.375-0.504,1.258-1.926,0.531c-1.992-0.973-1.875-1.125,0.648-1.805
C124.719,106.242,125.23,106.07,125.52,106.059L125.52,106.059z M89.43,106.461c1.992,0.012,3.461,1.98,3.168,4.773
c-0.508,4.797-0.215,4.504,0.309,4.98c0.949,0.875-0.34,1.398-1.473,0.566c-0.789-0.578-1.047-1.152-1.008-3.797
c0.039-3.047-0.125-3.82-1.211-3.555c-0.68,0.168-0.894,0.742-0.82,2.797c0.105,2.879-0.082,3.605-1.176,4.527
c-1.18,0.914-2.453,0.098-1.375-0.504c0.492-0.555,0.586-1.258,0.395-3C86.031,111.77,85.164,106.438,89.43,106.461L89.43,106.461z
M138.699,108.883c0.254-0.008,0.504-0.004,0.758,0.008c3.836,0.141,13.531,0.93,13.531,0.93l0.086,2.867
c-0.434,0.266-7.672-0.836-12.996-0.738c-1.242,0.023-2.125,0.574-3.023,0.113c0.863,0.355,0.785,4.68-3.023,3.633
c-3.227-1.164-1.656-5.527,2.473-6.629C137.215,108.969,137.949,108.895,138.699,108.883L138.699,108.883z M117.363,110.801
l8.285,4.086c1.16,15.559,6.531,31.991,24.82,44.452c-2.961,2.121-10.395,7.329-18.891,10.896l-0.695-0.746
c10.086-17.156,2.465-36.035-15.199-44.582C115.73,120.145,116.328,115.445,117.363,110.801L117.363,110.801z M146.512,113.41
c1.59-0.063,2.004,0.117,2.137,0.84c0.129,0.68,0.637,0.84,1.234,0.621c1.457-0.531,2.348,2.055,1.141,3.203
c-0.75,0.711-0.617,0.988-0.004,0.992c1.523,0.008,1.477,2-0.07,3.133c-0.641,0.469-0.633,0.68,0.039,1.012
c1.125,0.559,0.898,1.656-0.527,2.559c-0.777,0.491-0.805,0.612-0.164,0.788c1.617,0.438-0.031,2.743-1.801,2.333
c-0.727-0.168-1.414-0.013-2.109,0.441c-1.891,0.789-2.207,0.945-4.254,0.691c-1.793-0.328-2.598-0.918-3.059-2.496
c-1.055-3.203-2.188-6.754-2.203-10.25c-0.156-2.148,3.445-4.09,5.148-4.176C143.41,112.891,145,113.395,146.512,113.41
L146.512,113.41z M33.164,113.461c1.907,0,3.45,1.547,3.45,3.449c0,1.906-1.543,3.449-3.45,3.449c-1.902,0-3.445-1.543-3.445-3.449
C29.719,115.008,31.262,113.461,33.164,113.461L33.164,113.461z M71.489,114.477l-0.309,3.016c0,0,0.504-0.398,0.625-0.496
c0.894-0.75,2.312,0.086,1.992,1.254c-0.105,1.031-1.879,4.086-2.59,4.727c0,0-2.847-3.102-3.152-3.707
c-0.676-1.348,0.25-2.754,1.48-2.16c0.176,0.086,0.684,0.461,0.684,0.461l-0.902-2.859L71.489,114.477z M33.395,114.719
c-1.219,0.039-2.375,0.789-2.219,1.785c0.105,0.426,0.754-0.188,1.395-0.59c0.488-0.309,1.082-0.359,1.64-0.117
c0.496,0.176,0.707,0.633,0.992,0.988c0.246,0.297,0.512,0.543,0.661,0.395c0.128-0.156,0.078-0.355,0.042-0.535
C35.645,115.289,34.52,114.684,33.395,114.719L33.395,114.719z M126.258,115.188l1.234,0.629
c1.66,21.983,12.777,34.91,24.457,42.608l-0.93,0.56C136.684,149.8,126.73,133.348,126.258,115.188L126.258,115.188z
M128.125,116.09c0,0,3.094,1.582,4.715,2.316l0.063,1.988l-1.082,0.039l-0.371-1.871l-2.25,0.16l0.703,4.602l3.629-0.445
l0.508,2.781l-1.23,0.254l-0.629-1.707l-2.082,0.508l1.348,4.469l3.273-1.056l1.023,2.922l-1.098,0.399l-0.703-1.711l-2.152,0.75
l1.668,4.363l3.406-1.095l1.371,2.731l-1.031,0.457l-0.988-1.695l-2.043,1.046l2.398,4.075l3.074-1.614l1.438,2.177l-1.129,0.758
l-1.027-1.332l-1.652,1.09l2.648,3.617l2.648-1.984l1.984,2.285l-0.879,0.773l-1.352-1.371l-1.602,1.43l3.16,3.465l2.738-2.383
l1.949,1.813l-0.578,0.605l-1.309-0.817l-1.734,1.845l3.313,2.883l2.633-2.883l2.23,1.645v1.211l-1.992-1.008l-1.34,2.011
l3.332,2.521l-0.023,0.988C134.094,146.757,129.094,129.168,128.125,116.09L128.125,116.09z M89.215,116.309
c0.82-0.027,1.688,0.746,3.121,2.406c4.004,4.641,2.938,11.816-2.301,15.563c-0.761,0.543-1.07,0.496-2-0.305
c-5.371-4.613-5.679-10.785-0.898-16.207C87.965,116.832,88.574,116.328,89.215,116.309L89.215,116.309z M108.41,116.945
c0.988,1.516,2.234,3.07,2.379,4.91c-0.074,1.82-1.297,2.156-2.566,1.098c-0.16,0.953,0.383,2.813,0.383,2.813l-2.297-0.246
c0,0,0.902-1.574,0.938-2.559c-1.594,1.113-2.813-0.336-2.594-1.504C105.105,119.473,106.738,118.133,108.41,116.945L108.41,116.945
z M89.285,118.133c-0.191,0.016-0.386,0.145-0.683,0.383c-1.403,1.121-2.5,2.52-3.071,3.969c-1.203,3.059-0.417,6.504,2.297,9.18
c1.379,1.359,1.864,1.266,3.977-1.543c1.773-2.355,2.141-5.395,1.051-8.035c-0.531-1.289-1.496-2.543-2.653-3.453
C89.758,118.281,89.528,118.113,89.285,118.133L89.285,118.133z M133.461,118.695l1.781,0.875
c2.273,14.996,9.641,24.14,17.898,30.449l-0.016,1.391l-2.215-1.719l-2.656,2.777l-2.148-1.762l0.805-0.786l1.227,0.782l1.566-1.754
l-3.086-2.75l-2.688,2.332l-2.238-2.305l0.68-0.57l1.547,1.351l1.734-1.534l-2.996-3.359l-2.68,2.031l-1.871-2.48l0.813-0.484
l0.98,1.344l2.066-1.285l-2.184-3.36l-3.117,1.599l-1.594-2.875l0.906-0.434l1.035,1.613l1.938-0.934L137,132.887l-3.184,1.051
l-1.172-3.117l0.91-0.336l0.805,1.844l2.152-0.691l-1.461-4.266l-3.293,0.93l-0.813-3.137l1.016-0.219l0.535,1.691l2.262-0.454
l-0.832-4.062l-3.367,0.426c-0.109-0.688-0.605-2.547-0.598-3.25l1.035-0.086l0.328,1.789l2.266-0.078L133.461,118.695z
M89.403,119.023c1.234,0.168,2.742,2.547,3.082,3.41c0.652,1.707,0.707,3.684,0.113,5.219c-0.484,1.254-1.938,3.476-2.859,4.104
c-0.747,0.403-1.372,0.103-2.434-1.339c-2.098-2.855-2.504-6.289-0.848-8.641C87.723,119.98,88.664,119.02,89.403,119.023
L89.403,119.023z M135.848,119.766l0.895,0.422c1.098,8.688,6.246,20.608,16.383,27.742v1.09
C145.242,143.363,138.008,133.609,135.848,119.766L135.848,119.766z M89.246,120.355c-3.531,2.66-2.965,6.824-0.293,9.629
C91.832,128.078,92.852,122.934,89.246,120.355L89.246,120.355z M35.391,120.531c1.988-0.047,3.25,0.648,3.855,2.027
c0.946,2.145,1.071,2.551,1.266,3.676c0.109,0.644,0.281,1.613,0.375,2.152c1.035,5.827,0.273,8.02-3.262,8.93
c-1.058,0.269-2.527,0.359-3.558,0.113c-0.27-0.066-1.258-0.074-2.036-0.098c-1.539-0.051-2.011-0.215-2.785-0.84
c-0.281-0.227-0.55-0.41-0.882-0.461c-1.766-0.281-2.293-1.899-0.954-3.094c0.762-0.681,0.836-0.77,0.766-0.887
c-0.039-0.063-0.363-0.121-0.723-0.121c-1.781-0.012-1.761-1.841,0.028-3.148c0.851-0.621,1.238-1.207,0.672-1.067
c-1.622,0.384-2.192-1.987-0.497-2.722c0.903-0.504,1.551-0.926,0.68-0.973c-0.734,0.063-1.328-0.477-1.105-1.113
c0.273-0.77,1.758-1.473,2.613-1.211c0.668,0.207,1.32,0.395,1.738,0.094c1.016-0.73,1.469-1.059,2.344-1.176
C34.434,120.543,34.961,120.531,35.391,120.531L35.391,120.531z M94.551,120.977l8.18,0.16l-0.242,8.02l-7.703-0.145
C94.785,129.012,96.477,125.426,94.551,120.977L94.551,120.977z M76.223,121.16l7.836,0.098c-1.293,3.023-0.809,6.129-0.336,7.879
l-7.668-0.117L76.223,121.16z M89.305,121.172c2.105,1.227,2.688,5.695-0.238,7.988C86.285,126.3,86.84,122.82,89.305,121.172
L89.305,121.172z M69.981,124.66l2.101,0.195l-0.75,3.008c0,0,0.336-0.36,0.449-0.391c2.7-1.27,2.891,1.602,0.145,4.195
c-0.605,0.57-1.582,1.355-1.582,1.355s-0.762-1.156-1.371-2.199c-0.688-1.051-1.156-2.176-1.039-2.774
c0.172-0.866,1.211-1.437,1.879-0.909c0.324,0.262,0.703,0.655,0.703,0.655L69.981,124.66z M107.48,126.863
c0,0,0.883,0.906,1.418,1.492c1.855,2.026,2.172,3.926,1.234,4.504c-0.809,0.367-1.309,0.117-1.961-0.41
c0.137,1.258,1.133,3.113,1.109,3.117l-2.766,0.445c0,0,0.68-2.52,0.625-3.473c0,0-0.57,0.438-0.824,0.546
c-1.805,0.661-2.703-1.394-1.215-3.44C106.348,127.926,107.48,126.863,107.48,126.863L107.48,126.863z M145.301,130.664
c1.859,0,3.363,1.507,3.363,3.367c0,1.855-1.504,3.363-3.363,3.363c-1.855,0-3.363-1.508-3.363-3.363
C141.938,132.171,143.445,130.664,145.301,130.664L145.301,130.664z M146.961,132.207c-0.145,0.031-0.266,0.363-0.281,1.102
c-0.168,1.508-1.422,2.117-2.793,1.418c-0.559-0.285-1.027-0.703-1.031-0.383c0,0.172,0.445,1.074,0.762,1.379
c1.164,1.047,3.996,0.797,3.93-1.641C147.52,132.938,147.203,132.152,146.961,132.207L146.961,132.207z M85.887,133.469
c0.363-0.023,0.828,0.125,1.125,0.434c0.918,0.629,1.094,1.43,1.152,4.457c0.051,2.672-0.004,2.738,0.438,3.062
c1.078,0.793,1.726-0.418,1.418-3.12c-0.297-2.605,0.645-4.5,2.219-4.488c0.773,0.004,0.918,0.457,0.328,1.039
c-0.621,0.612-0.77,1.362-0.574,2.867c0.496,3.863,0.066,5.758-1.559,6.538c-1.692,0.821-3.867-0.12-4.25-2.257
c-0.242-1.422-0.242-3.113-0.07-4.707c0.027-1.676-0.008-1.863-0.594-2.824C85.106,133.824,85.414,133.5,85.887,133.469
L85.887,133.469z M43.321,134.723c0.937-0.004,1.91,0.539,2.488,1.737c1.402,2.896-1.633,5.274-4.418,5.461
c-4.836,0.071-10.582-0.625-15.434-1.272l0.078-2.734c4.454,0.257,9.473,0.621,14.883,0.875
C40.301,136.246,41.762,134.723,43.321,134.723L43.321,134.723z M68.75,135.281l2.692,0.594l-1.711,2.801
c0.508-0.219,0.859-0.375,1.367-0.188c1.098,0.394,1.109,1.785,0.308,3.082c-0.636,0.945-2.425,2.07-3.644,2.762
c-0.688-1.473-2.203-4.047-1.598-5.457c0.321-0.747,1.203-1.109,2.032-0.704c0.273,0.164,0.793,0.431,0.793,0.431L68.75,135.281z
M75.114,135.359l8.203,0.094c-1.192,8.293-3.524,19.367-8.121,28.395l-1.934,0.5c4.055-8.97,6.75-17.384,8.012-26.785h-4.102
c-2.359,10.094-5.848,19.444-11.215,27.569l-2.386-0.772C69.305,155.266,73.852,145.121,75.114,135.359L75.114,135.359z
M93.824,135.503h9.141c1.684,16.888,7.387,28.411,15.879,39.81c0,0-0.535,0.121-0.852-0.017c-0.883-1.097-1.688-1.769-3.008-2.104
c-7.137-10.277-11.926-24.641-13.078-35.629h-5.438c0.617,13.801,4.441,25.117,9.531,36.078l-2.762,0.504
C99.152,164.339,94.672,155.805,93.824,135.503L93.824,135.503z M108.051,137.589c0.75,0.582,1.563,1.153,2.328,1.707
c2.059,1.446,2.035,4.177,0.031,4.164c-0.211,0-0.707-0.03-0.707-0.03s0.82,1.789,1.336,2.695c-0.836,0.223-2.578,0.551-2.578,0.551
s0.25-1.758,0.199-3.216c0,0-0.336,0.375-0.609,0.504c-1.328,0.556-2.453-0.604-2.285-1.976
C105.988,140.141,108.051,137.589,108.051,137.589L108.051,137.589z M46.965,137.918l4.504,2.238
c-3.07,6.98-6.582,13.515-11.66,18.484l0.129-16.134C42.711,142.43,45.555,142.402,46.965,137.918L46.965,137.918z M77.742,138.171
h2.766c-1.227,12.88-9.738,30.302-11.336,32.403l-0.523,0.398c0.031-0.02-1.09-3.953-2.368-5.367
C71.082,159.128,76.114,146.688,77.742,138.171L77.742,138.171z M97.211,138.171h4.18c1.305,10.263,4.477,21.353,12.516,34.817
c0,0-0.805,0.078-1.43-0.293c-1.371-0.852-2.32,0.273-3.141,0.23c-1.281-0.07-1.488-0.145-2.813,0.168
C99.891,159.102,98.008,148.085,97.211,138.171L97.211,138.171z M52.039,140.477l1.492,0.703c-3.21,7.43-6.085,13.332-13.695,20.577
l-0.027-2.155C45.153,154.421,48.754,147.602,52.039,140.477L52.039,140.477z M54.211,141.516c0.707,0.266,1.512,0.703,2.18,1.063
c0.223,0.09,0.164,0.289,0.164,0.5c-0.281,0.703-1.527,1.016-2,1.152c-0.57,0.16-1.133,0.272-1.234,0.297
c-0.649,0.152-0.446-0.5,0.261-1.926C53.903,141.957,54.028,141.527,54.211,141.516L54.211,141.516z M57.196,143.089
c0.449-0.026,2.253,0.97,2.64,1.329c0.137,0.421-0.254,1.089-0.824,2.32c-0.875,1.898-1.051,1.941-1.313,0.383
c-0.046-0.27-0.304-1.157-0.464-1.746C56.867,144.012,56.832,143.227,57.196,143.089L57.196,143.089z M60.465,144.621
c0,0,1.047,0.507,1.391,0.734c-4.688,14.031-17.164,25.629-17.098,25.363l-1.945-1.145C51.114,162.07,57.199,153.21,60.465,144.621
L60.465,144.621z M55.512,144.82c0.453,0.008,0.059,0.566-0.555,1.914c-0.578,1.324-0.769,1.793-1.313,2.004
c-0.778,0.281-1.895,0.289-2.887,0.465c-0.426,0.07-0.246-0.254,0.406-1.578c0.766-1.559,0.809-1.883,2.012-2.207
C53.871,145.313,54.805,144.816,55.512,144.82L55.512,144.82z M57.153,147.609c0.484,1.738,0.472,2.078,0.152,2.684
c-0.606,1.133-1.399,2.453-1.617,2.809c-0.547,0.895-0.703,0.711-1.028-1.465c-0.199-1.352-0.375-1.957-0.226-2.543
c0.273-0.664,1.086-2.23,1.543-3.148C56.637,143.988,56.989,147.434,57.153,147.609L57.153,147.609z M65.778,146.089l2.457,0.81
l-1.926,2.328c0,0,0.808-0.148,0.902-0.109c1.934,0.129,1.613,2.051,0.117,3.215c-0.621,0.566-3.679,1.957-3.679,1.957
c-0.328-1.719-1.004-2.82-0.844-4.586c0.117-0.95,0.199-1.809,1.363-1.836c0.613-0.032,0.863,0.597,1.262,1.102L65.778,146.089z
M110.332,148.176c0,0,1.48,0.766,2.852,1.82c1.789,1.379,2.098,2.996,0.309,3.621c-0.207,0.074-0.797,0.043-0.797,0.043
c0.492,0.859,1.664,2.136,1.664,2.136c-0.586,0.411-1.414,0.731-2.332,1.017c0,0-0.227-2.138-0.445-2.961
c0,0-0.234,0.465-0.531,0.648c-1.723,1.074-3.074-0.95-2.148-3.504C109.465,149.441,110.332,148.176,110.332,148.176
L110.332,148.176z M91.379,148.535c4.305-0.105,1.785,6.941-0.367,6.488c-0.035-0.063,1.777-4.172-0.664-4.824
C89.227,149.898,90.192,148.52,91.379,148.535L91.379,148.535z M84.321,149.031c1.339-0.008,2.312,0.938,1.035,1.531
c-2.012,0.934-0.813,3.168-0.77,4.438c0.028,0.773-1.789-0.676-2.176-2.25C81.91,150.714,82.141,149.207,84.321,149.031
L84.321,149.031z M52.485,149.773c0.296,0,0.519,0.022,0.593,0.082c0.129,0.332-0.472,1.371-1.351,2.703
c-0.465,0.707-0.664,0.905-0.949,1.073c-0.68,0.384-1.633,0.282-2.426,0.341c-1.184,0.012-0.973-0.013,0.336-2.047
c0.582-0.914,0.953-1.656,1.301-1.895C50.059,149.988,51.594,149.777,52.485,149.773L52.485,149.773z M54.035,151.246
c0,2.547,0.868,3.382,0.231,4.188c-0.777,1.254-1.77,2.625-2.129,3.059c-0.609,0.727-0.543,0.59-0.699-1.321
c-0.117-1.382-0.242-2.308-0.063-2.737c0.52-1.25,1.137-1.849,1.781-3.177C53.66,150.184,54.035,150.363,54.035,151.246
L54.035,151.246z M88.012,152.523c1.25,0.016,2.023,1.344,1.969,2.565l-0.055,1.164c1.613-0.616,3.621-0.015,3.707,1.571
c0.152,2.683-1.828,2.371-3.5,2.261c0.168,0.063,0.414,2.427-0.582,3.333c-1.562,1.75-4.473-0.04-3.742-2.605
c0.152-0.531,0.183-0.867,0.183-0.867s-1.043,0.379-1.414,0.363c-3.168-0.138-2.925-4.617,0.258-4.09
c0.653,0.105,1.09,0.262,1.09,0.262s-0.066-0.281-0.176-0.685C85.289,154.074,86.262,152.5,88.012,152.523L88.012,152.523z
M151.414,153.32l1.711,0.984v1.905l-2.434-1.796L151.414,153.32z M48.981,154.598c0.675-0.009,1.203,0.047,1.101,0.207
c-0.004,0.34-1.476,2.391-2.347,3.323c-0.743,0.798-0.848,0.685-2.664,0.599c-0.715-0.035-1.18-0.043-1.161-0.23
c0.836-1.098,1.989-2.512,2.789-3.691C47.012,154.707,48.117,154.605,48.981,154.598L48.981,154.598z M50.645,155.492
c0.125-0.004,0.164,0.27,0.16,0.863c0,0.449,0.062,1.832,0.129,2.434c0.117,1.093,0.117,1.093-0.352,1.746
c-0.57,0.613-1.152,1.516-1.886,2.218c-1.106,1.224-0.993,1.293-0.977-1.323c0.012-2.048-0.141-2.048,0.273-2.527
c0.227-0.266,0.93-1.125,1.395-1.797C50.09,156.082,50.461,155.496,50.645,155.492L50.645,155.492z M61.184,155.852l2.273,1.215
l-2.277,2.309c0,0,0.566-0.004,0.758,0.035c1.465,0.281,1.355,1.832-0.117,2.988c-0.907,0.574-4.008,1.703-4.008,1.703
c-0.11-1.306-0.383-2.504-0.332-3.902c0.023-0.645,0.082-1.348,0.574-1.906c0.344-0.375,0.914-0.598,1.719-0.079
c0.422,0.375,0.64,0.798,0.64,0.798L61.184,155.852z M88.008,156.641c-0.891,0-1.613,0.723-1.613,1.612
c0,0.892,0.722,1.614,1.613,1.614s1.613-0.723,1.613-1.614C89.621,157.363,88.899,156.641,88.008,156.641L88.008,156.641z
M113.422,157.02c0,0,2.977,1.117,4.316,2.348c1.25,1.043,0.664,2.761-0.578,2.797c-0.094,0-0.621-0.075-0.621-0.075
c0.422,0.642,1.832,2.212,1.832,2.212l-2.301,0.934c0,0-0.367-1.771-0.652-2.766c-0.801,1.852-2.777,0.648-2.91-0.509
C112.188,160.27,112.906,158.621,113.422,157.02L113.422,157.02z M88.008,157.16c0.621,0,1.121,0.504,1.121,1.125
c0,0.617-0.5,1.121-1.121,1.121c-0.617,0-1.121-0.504-1.121-1.121C86.887,157.664,87.391,157.16,88.008,157.16L88.008,157.16z
M44.094,159.453c0.801-0.008,1.801,0.031,2.25,0.059c0.344,0.262-0.371,1.073-1.75,2.523c-1.105,1.16-1.27,1-2.609,1.008
c-2.246,0.02-2.301,0.035-1.27-1.137c1.129-1.289,1.789-2.113,2.313-2.383C43.203,159.477,43.614,159.46,44.094,159.453
L44.094,159.453z M46.832,160.582c0.239-0.047,0.172,0.559,0.133,1.934l-0.062,2.328l-1.75,1.68
c-2.02,1.809-1.778,1.922-1.766,0.229c0.012-1.343-0.004-2.289,0.289-2.886c0.883-1.066,1.801-2.008,2.809-3.023
C46.641,160.688,46.754,160.598,46.832,160.582L46.832,160.582z M91.25,161.164c0.484-0.043,1.727,2.082,2.039,3.863
c0.711,4.062,3.145,5.988,4.855,4.359c0.699-0.961,0.777,0.086,0.742,0.586c-0.359,5.148-6.195,3.004-6.859-2.109
c-2.046,1.328-3.957-1.356-2.734-1.313C92.176,165.632,91.391,162.984,91.25,161.164L91.25,161.164z M84.492,161.203
c0.286,1.781-2.925,4.828-4.73,2.691c-0.922-1.09-0.082-3.336,1.086-1.953C82.137,162.898,83.391,161.789,84.492,161.203
L84.492,161.203z M40.375,163.645c0.66-0.017,1.617,0.108,2.035,0.055c0.586,0.058,0.168,0.344-1.109,1.504
c-1.098,1-1.41,1.445-1.535,1.011c-0.059-0.679-0.035-1.483-0.031-2.437C39.836,163.684,40.078,163.648,40.375,163.645
L40.375,163.645z M55.344,164.828l1.961,1.425l-1.945,1.79c1.742-0.086,1.898,1.551,1.238,2.46c-0.43,0.638-2.082,1.31-3.734,1.579
c-0.993,0.16-1.805,0.277-1.805,0.277s-0.035-0.766-0.063-2.039c-0.058-2.602,0.118-3.625,1.121-4.133
c0.715-0.363,1.93,0.207,2.227,0.871c0.098,0.219,0.355,0.602,0.355,0.602L55.344,164.828z M42.742,164.969
c0.008,0,0.012,0,0.016,0.004c0.109,0.148-0.289,4.387-0.289,4.387l-2.836-1.598C39.633,167.762,42.504,165.02,42.742,164.969
L42.742,164.969z M117.844,165.469c2.023,0.952,3.539,0.766,4.898,1.945c1.184,0.621,0.832,2.328-0.031,2.707
c-0.391,0.121-1.035,0.055-1.035,0.055c0.715,0.883,2.281,1.995,2.281,1.995l-2.492,1.043c0,0-0.34-1.679-0.656-2.593
c-0.453,1.359-1.984,1.328-2.859,0.688c-0.617-0.474-0.875-2.063-0.578-3.441C117.449,167.503,117.844,165.469,117.844,165.469
L117.844,165.469z M126.938,179.273c2.57,3.613,4,6.652,4.398,11.184c0.234,2.796,0.156,3.32-0.508,3.316
c-0.426-0.004-0.609-0.215-0.605-0.691c0.043-7.594-9.309-9.379-12.789-2.82c-2.039,3.848-1.031,8.941,3.352,15.883
c4.039,6.574,9.234,11.569,12.195,18.641c2.93-7.023,8.813-12.93,13.016-19.7c6.074-8.703,3.969-17.878-3.523-18.843
c-3.438-0.442-7.207,3.004-7.645,6.566c-0.094,0.797-0.266,1.026-0.699,0.965c-0.586-0.086-0.367-1.656-0.113-3.754
c0.695-4.004,2.109-7.344,4.402-10.746H126.938z M163.215,189.309c0.066-0.02,1.906,2.543,2.168,3.5
c0.211,0.78,0.375,1.59,0.242,1.93c-0.164,0.406-0.547,0.094-1.023-0.539c-1.309-1.742-3.887-1.184-4.938,1.078
c-0.758,1.633-0.336,3.734,1.07,6.117c1.684,3.108,5.797,8.703,5.922,9.215c0.109-0.441,2.73-5.191,4.844-8.34
c1.113-1.898,1.945-3.508,1.996-6.02c-0.258-3.129-4-4.415-5.668-1.988c-0.539,0.784-0.863,1.023-1.043,0.383
c-0.121-0.435,0.258-1.363,0.457-2.363c0.168-0.832,1.785-2.992,1.824-2.973H163.215z M104.555,204.902
c-24.535,5.812-44.469,2.219-46.445,1.531l-1.563,2.332c-0.191,0.395-0.308,1.578-1.367,1.898l-1.59,2.375l0.313,0.328l-1.411,1.23
l0.34,0.409l-1.023,1.493l-0.403-0.043l-2.375,3.605l0.364,0.401l-5.449,8.528l73.714,0.023
C113.375,220.934,108.793,213.007,104.555,204.902L104.555,204.902z M104.109,205.949l0.438,1.219
c-1.219-0.152-2.641-0.227-4.09-0.29C101.73,206.617,103.004,206.293,104.109,205.949L104.109,205.949z M99.828,207.007
c-2.344,1.078-3.75,2.371-4.828,3.735c-1.34-1.043-3.047-1.782-5.082-2.242L99.828,207.007z M58.403,207.602l1.043,0.117
c0,0-0.348,0.273-0.598,0.215C58.656,207.891,58.403,207.602,58.403,207.602L58.403,207.602z M105.363,208.207l0.664,1.313
c-1.598-0.845-8.43-2.781-10.367,4.008c-2.039-2.758-10.445-6.754-14.711,1.742c-1.21-2.301-8.269-8.926-14.71-0.484
c-2.536-5.246-4.657-5.684-9.317-4.969c3.313-3.18,7.969,0.129,9.945,2.836c5.555-4.606,10.2-3.219,14.258,0.527
c5.235-5.699,10.457-4.328,14.129-1.466C97.836,207.918,100.355,206.773,105.363,208.207L105.363,208.207z M62.473,208.242
c3.301,0.445,6.601,0.648,9.902,0.808c-1.91,0.703-3.867,1.306-5.426,2.716C65.77,210.121,64.133,209.164,62.473,208.242
L62.473,208.242z M86.289,208.77c-1.8,0.848-3.742,2.121-5.3,3.461c-1.68-1.367-3.407-2.551-5.29-3.146
C79.153,209.257,82.981,209.105,86.289,208.77L86.289,208.77z M166.656,210.613c-0.004,0.015-0.004,0.019,0,0.023
C166.66,210.632,166.656,210.625,166.656,210.613L166.656,210.613z M107.422,211.464c0,0-0.664,0.11-0.879,0.168
c-2.914,0.774-2.277,4.884,0.719,4.88c0.285,0,0.996-0.109,0.996-0.109c-0.059,2.781,0.789,3.457,3.629,3.301l4.816,8.609
l-71.234-0.306l4.523-7.233c2.274,0.266,3.707-1,3.2-2.93c0,0,1.402,0.426,1.793,0.43c2.574,0.016,3.242-3.938,0.773-4.621
c-0.277-0.074-0.965-0.152-1.051-0.176c1.129-2.82,4.23-1.156,5.121,0.016c2-1.645,4.207-0.91,5.157,1.218
c0,0-0.375-0.207-0.489-0.289c-2.34-1.714-4.519,1.832-2.226,3.47c0.226,0.164,0.703,0.301,0.703,0.301s-0.281,0.227-0.535,0.656
c-1.192,2.004,0.726,4.441,3.043,3.813c1.777-0.696,1.8-2.032,1.8-3.5c0,0,0.614,0.047,1.165,0.054
c2.128,0.024,2.742-2.707,1.437-3.976c-0.707-0.688-1.629-0.633-2.086-0.723c2.461-2.414,4.125-0.746,5.863,0.366
c0.262-0.007,3.008-3.308,6.278-0.065c-1.586-0.414-3.211,0.613-3.23,2.266c0.032,1.059,0.789,2,2.434,2.074
c-0.18,0.535-0.297,0.933-0.305,1.449c-0.031,1.733,1.313,2.813,3.024,2.547c1.429-0.184,2.488-1.817,1.98-3.176
c-0.23-0.613-0.547-0.836-0.547-0.836c3.852,0.48,3.781-4.395,0.789-4.691c-0.711-0.071-1.258,0.238-1.972,0.895
c1.761-3.602,4.98-2.88,6.187-1.406c1.652-1.203,3.934-2.844,6.664,0.078c-0.453-0.095-1.086-0.117-1.633,0.03
c-2.16,0.575-2.172,3.321-0.457,4.153c0.48,0.238,1.07,0.375,1.707,0.347c-0.57,2.31,1.992,3.957,3.809,2.853
c1.297-0.789,1.637-2.66,0.23-4.367c2.367-0.106,2.602-3.055,1.234-4.09c-1.07-0.81-2.336-0.426-3.25,0.644
c-0.293-0.843,2.047-3.789,5.352-1.667C103.703,210.449,105.438,210,107.422,211.464L107.422,211.464z M108.457,213.77l0.926,1.68
C108.766,215.512,107.883,214.852,108.457,213.77L108.457,213.77z M96.516,215.477c0.578,0,1.047,0.469,1.047,1.047
c0,0.582-0.469,1.051-1.047,1.051c-0.582,0-1.051-0.469-1.051-1.051C95.465,215.945,95.934,215.477,96.516,215.477L96.516,215.477z
M53.281,215.539c0.137,0.563,0.2,1.125-0.824,1.23L53.281,215.539z M158,216.027v2.344h1.922l5.422,12.488l-5.203,8.104H158v2.087
h7.449v-2.087h-2.176l6.621-10.104v10.104h-1.902v2.087h6.734v-2.087h-2.457v-20.593h2.457v-2.344h-6.734v2.344h1.902
c0.047,2.02,0.059,3.757,0,5.781c-0.949,1.262-1.93,2.805-2.969,3.992l-4.188-9.773h2.711v-2.344H158z M65.321,216.55
c0.531,0,0.96,0.431,0.96,0.962s-0.429,0.961-0.96,0.961c-0.528,0-0.957-0.43-0.957-0.961S64.793,216.55,65.321,216.55
L65.321,216.55z M81.301,216.852c0.563,0,1.016,0.457,1.016,1.016c0,0.563-0.453,1.02-1.016,1.02c-0.562,0-1.02-0.457-1.02-1.02
C80.281,217.309,80.739,216.852,81.301,216.852L81.301,216.852z M81.301,216.852"/>
</svg>
