<?xml version="1.0" encoding="utf-8"?>
<!DOCTYPE svg PUBLIC "-//W3C//DTD SVG 1.1//EN" "http://www.w3.org/Graphics/SVG/1.1/DTD/svg11.dtd" [
<!ENTITY ns_svg "http://www.w3.org/2000/svg">
<!ENTITY ns_xlink "http://www.w3.org/1999/xlink">
]>
<svg version="1.1" id="Layer_1" xmlns="&ns_svg;" xmlns:xlink="&ns_xlink;" width="179.379" height="250.246"
viewBox="0 0 179.379 250.246" overflow="visible" enable-background="new 0 0 179.379 250.246" xml:space="preserve">
<path fill="#FFFFFF" d="M8.903,0.398h161.574c4.711,0,8.504,3.793,8.504,8.504v232.441c0,4.711-3.793,8.504-8.504,8.504H8.903
c-4.711,0-8.504-3.793-8.504-8.504V8.902C0.399,4.191,4.192,0.398,8.903,0.398L8.903,0.398z M8.903,0.398"/>
<path fill="none" stroke="#000000" stroke-width="0.7974" d="M8.903,0.398h161.574c4.711,0,8.504,3.793,8.504,8.504v232.441
c0,4.711-3.793,8.504-8.504,8.504H8.903c-4.711,0-8.504-3.793-8.504-8.504V8.902C0.399,4.191,4.192,0.398,8.903,0.398L8.903,0.398z
M8.903,0.398"/>
<path d="M7.156,31.77l2.04-1.469c1.769,2.824,3.746,4.688,6.769,4.367c4.539-0.305,6.422-4.977,5.469-8.496
c-0.918-3.156-4.676-4.695-7.66-3.012c-0.707,0.398-1.52,0.887-1.52,0.887l-1.062-1.73l7.011-8.156h-7.609v3.375H7.672v-6.051
h14.875v2.055c0,0-3.984,4.055-5.305,6.277c3.247,0.117,5.86,2.133,6.793,5.324c0.551,1.68,0.305,5.523-0.41,7.176
c-1.195,2.762-4.469,5-7.457,5.129C11.149,37.777,8.485,34.324,7.156,31.77L7.156,31.77z M7.156,31.77"/>
<path d="M172.223,218.477l-2.039,1.473c-1.773-2.824-3.75-4.692-6.773-4.367c-4.539,0.305-6.418,4.973-5.469,8.496
c0.918,3.156,4.676,4.695,7.664,3.011c0.703-0.397,1.52-0.812,1.52-0.812l1.258,1.625l-7.207,8.187h7.609v-3.375h2.918v6.052
h-14.871v-2.056c0,0,3.984-4.054,5.301-6.276c-3.242-0.117-5.855-2.138-6.793-5.328c-0.547-1.676-0.301-5.521,0.414-7.172
c1.195-2.763,4.469-5,7.457-5.129C168.227,212.473,170.891,215.926,172.223,218.477L172.223,218.477z M172.223,218.477"/>
<path d="M87.926,55.547c0.012-1.621-1.27-1.652-1.254-0.469c-0.109,5.945-5.133,8.871-8.785,8.176
c-5.629-1.07-7.426-6.656-7.371-9.949c0.164-10.156,10.39-17.645,19.613-30.668c6.762,11.754,17.918,20.984,18.578,30.07
c0.879,12.078-14.406,16.582-16.586,2.504c-0.141-0.992-1.313-1.438-1.223-0.051c0.332,3.859-0.141,5.465,4.211,14.977H83.735
C86.254,65.691,87.754,60.238,87.926,55.547L87.926,55.547z M87.926,55.547"/>
<path d="M87.985,115.984c0.011,1.621-1.27,1.652-1.254,0.469c-0.11-5.941-5.133-8.871-8.785-8.176
c-5.629,1.07-7.426,6.66-7.372,9.949c0.165,10.155,10.391,17.648,19.618,30.668c6.757-11.754,17.917-20.984,18.578-30.07
c0.875-12.078-14.41-16.582-16.59-2.504c-0.141,0.992-1.313,1.441-1.223,0.051c0.332-3.859-0.141-5.465,4.215-14.977H83.793
C86.313,105.84,87.813,111.297,87.985,115.984L87.985,115.984z M87.985,115.984"/>
<path d="M87.934,194.93c0.012,1.62-1.27,1.652-1.254,0.469c-0.109-5.941-5.133-8.871-8.785-8.176
c-5.629,1.07-7.426,6.655-7.371,9.948c0.164,10.157,10.39,17.646,19.617,30.668c6.758-11.754,17.918-20.983,18.578-30.069
c0.875-12.078-14.41-16.582-16.59-2.504c-0.141,0.991-1.313,1.441-1.223,0.051c0.332-3.859-0.141-5.465,4.215-14.978H83.742
C86.262,184.785,87.762,190.242,87.934,194.93L87.934,194.93z M87.934,194.93"/>
<path d="M14.793,56.176c0.008-0.695-0.719-0.371-0.816-0.152c-0.93,1.59-2.289,1.961-3.637,1.387
c-1.336-0.566-2.086-1.824-1.965-3.617c0.25-2.75,2.43-5.762,3.485-7.461c1.004-1.543,2.101-3.379,3.261-5.723
c1.36,2.688,2.047,3.453,3.524,5.91c1.301,2.164,3.113,4.285,3.254,6.898c0,1.988-0.836,3.867-2.719,4.207
c-1.066,0.195-2.063-0.352-2.805-1.629c-0.222-0.324-0.676-0.156-0.668,0.289c0.129,1.676,0.762,3.188,2.262,4.969h-5.508
C13.586,59.996,14.739,58.293,14.793,56.176L14.793,56.176z M14.793,56.176"/>
<path d="M164.379,194.656c0.008,0.699-0.719,0.371-0.816,0.152c-0.93-1.59-2.293-1.957-3.637-1.388
c-1.336,0.571-2.086,1.825-1.965,3.618c0.25,2.754,2.43,5.762,3.484,7.461c1,1.546,2.102,3.378,3.262,5.727
c1.359-2.691,2.047-3.457,3.523-5.914c1.301-2.164,3.113-4.281,3.254-6.898c0-1.989-0.836-3.868-2.719-4.207
c-1.066-0.195-2.063,0.352-2.805,1.628c-0.223,0.325-0.676,0.157-0.668-0.289c0.129-1.675,0.762-3.187,2.262-4.968h-5.508
C163.172,190.839,164.324,192.539,164.379,194.656L164.379,194.656z M164.379,194.656"/>
</svg>
