<?xml version="1.0" encoding="utf-8"?>
<!DOCTYPE svg PUBLIC "-//W3C//DTD SVG 1.1//EN" "http://www.w3.org/Graphics/SVG/1.1/DTD/svg11.dtd" [
<!ENTITY ns_svg "http://www.w3.org/2000/svg">
<!ENTITY ns_xlink "http://www.w3.org/1999/xlink">
]>
<svg version="1.1" id="Layer_1" xmlns="&ns_svg;" xmlns:xlink="&ns_xlink;" width="179.379" height="250.246"
viewBox="0 0 179.379 250.246" overflow="visible" enable-background="new 0 0 179.379 250.246" xml:space="preserve">
<path fill="#FFFFFF" d="M8.903,0.398h161.574c4.711,0,8.504,3.793,8.504,8.504v232.441c0,4.711-3.793,8.504-8.504,8.504H8.903
c-4.711,0-8.504-3.793-8.504-8.504V8.902C0.399,4.191,4.192,0.398,8.903,0.398L8.903,0.398z M8.903,0.398"/>
<path fill="none" stroke="#000000" stroke-width="0.7974" d="M8.903,0.398h161.574c4.711,0,8.504,3.793,8.504,8.504v232.441
c0,4.711-3.793,8.504-8.504,8.504H8.903c-4.711,0-8.504-3.793-8.504-8.504V8.902C0.399,4.191,4.192,0.398,8.903,0.398L8.903,0.398z
M8.903,0.398"/>
<path d="M10.267,37.607c1.707-8.871,3.527-15.527,8.304-22.758H8.864v3.109H6.282v-5.863h14.207l1.75,2.754
c-5.074,5.438-9.718,23.012-8.898,22.758H10.267z M10.267,37.607"/>
<path d="M169.103,212.639c-1.707,8.871-3.527,15.527-8.305,22.758h9.707v-3.113h2.582v5.867h-14.203l-1.75-2.754
c5.074-5.438,9.719-23.017,8.895-22.758H169.103z M169.103,212.639"/>
<path d="M42.872,56.4c0.012-1.617-1.269-1.648-1.254-0.469c-0.109,5.945-5.136,8.871-8.785,8.176
c-5.629-1.07-7.426-6.656-7.371-9.949c0.164-10.156,10.387-17.645,19.613-30.664c6.762,11.75,17.918,20.98,18.578,30.066
c0.879,12.078-14.406,16.586-16.589,2.508c-0.141-0.996-1.309-1.441-1.219-0.055c0.332,3.859-0.141,5.465,4.211,14.977H38.681
C41.2,66.545,42.7,61.092,42.872,56.4L42.872,56.4z M42.872,56.4"/>
<path d="M132.099,56.4c0.012-1.617-1.27-1.648-1.258-0.469c-0.105,5.945-5.133,8.871-8.781,8.176
c-5.629-1.07-7.426-6.656-7.375-9.949c0.168-10.156,10.391-17.645,19.617-30.664c6.762,11.75,17.918,20.98,18.578,30.066
c0.879,12.078-14.406,16.586-16.59,2.508c-0.141-0.996-1.309-1.441-1.219-0.055c0.332,3.859-0.141,5.465,4.211,14.977h-11.375
C130.427,66.545,131.927,61.092,132.099,56.4L132.099,56.4z M132.099,56.4"/>
<path d="M88.017,96.502c0.015-1.621-1.27-1.652-1.254-0.469c-0.106,5.941-5.133,8.867-8.785,8.176
c-5.629-1.07-7.426-6.66-7.371-9.949c0.168-10.156,10.39-17.648,19.617-30.668c6.762,11.754,17.918,20.984,18.578,30.07
c0.879,12.078-14.406,16.582-16.59,2.504c-0.141-0.992-1.313-1.441-1.219-0.051c0.328,3.855-0.141,5.465,4.211,14.977H83.825
C86.345,106.646,87.849,101.189,88.017,96.502L88.017,96.502z M88.017,96.502"/>
<path d="M132.099,136.6c0.012-1.621-1.27-1.652-1.258-0.47c-0.105,5.946-5.133,8.871-8.781,8.177
c-5.629-1.07-7.426-6.656-7.375-9.949c0.168-10.156,10.391-17.645,19.617-30.668c6.762,11.754,17.918,20.984,18.578,30.07
c0.879,12.077-14.406,16.582-16.59,2.508c-0.141-0.996-1.309-1.441-1.219-0.056c0.332,3.86-0.141,5.466,4.211,14.978h-11.375
C130.427,146.744,131.927,141.291,132.099,136.6L132.099,136.6z M132.099,136.6"/>
<path d="M42.872,136.6c0.012-1.621-1.269-1.652-1.254-0.47c-0.109,5.946-5.136,8.871-8.785,8.177
c-5.629-1.07-7.426-6.656-7.371-9.949c0.164-10.156,10.387-17.645,19.613-30.668c6.762,11.754,17.918,20.984,18.578,30.07
c0.879,12.077-14.406,16.582-16.589,2.508c-0.141-0.996-1.309-1.441-1.219-0.056c0.332,3.86-0.141,5.466,4.211,14.978H38.681
C41.2,146.744,42.7,141.291,42.872,136.6L42.872,136.6z M42.872,136.6"/>
<path d="M132.106,197.178c0.012,1.62-1.27,1.652-1.254,0.469c-0.109-5.941-5.133-8.867-8.785-8.176
c-5.629,1.07-7.426,6.659-7.371,9.948c0.164,10.157,10.391,17.649,19.613,30.668c6.762-11.754,17.918-20.983,18.578-30.065
c0.879-12.078-14.406-16.586-16.586-2.508c-0.141,0.996-1.313,1.441-1.223,0.051c0.332-3.856-0.141-5.465,4.211-14.973h-11.375
C130.435,187.033,131.935,192.49,132.106,197.178L132.106,197.178z M132.106,197.178"/>
<path d="M42.88,197.178c0.012,1.62-1.269,1.652-1.254,0.469c-0.109-5.941-5.133-8.867-8.785-8.176
c-5.629,1.07-7.426,6.659-7.371,9.948c0.164,10.157,10.391,17.649,19.613,30.668c6.762-11.754,17.918-20.983,18.582-30.065
c0.875-12.078-14.41-16.586-16.59-2.508c-0.14,0.996-1.312,1.441-1.222,0.051c0.332-3.856-0.141-5.465,4.215-14.973H38.689
C41.208,187.033,42.708,192.49,42.88,197.178L42.88,197.178z M42.88,197.178"/>
<path d="M14.052,57.213c0.008-0.699-0.715-0.375-0.813-0.152c-0.929,1.586-2.293,1.957-3.64,1.383
c-1.332-0.566-2.082-1.824-1.961-3.617c0.246-2.75,2.43-5.758,3.484-7.461c1-1.543,2.102-3.379,3.262-5.723
c1.355,2.691,2.047,3.457,3.523,5.914c1.301,2.164,3.114,4.281,3.254,6.898c0,1.988-0.836,3.863-2.718,4.207
c-1.067,0.191-2.063-0.355-2.805-1.629c-0.227-0.328-0.68-0.156-0.672,0.289c0.133,1.672,0.766,3.184,2.266,4.969H11.72
C12.849,61.029,14.001,59.326,14.052,57.213L14.052,57.213z M14.052,57.213"/>
<path d="M165.106,195.408c0.008,0.695-0.719,0.371-0.816,0.152c-0.93-1.59-2.289-1.957-3.637-1.387
c-1.336,0.566-2.086,1.824-1.965,3.617c0.25,2.75,2.43,5.762,3.484,7.46c1.004,1.547,2.102,3.379,3.262,5.724
c1.359-2.688,2.047-3.453,3.523-5.91c1.301-2.164,3.113-4.285,3.254-6.898c0-1.988-0.836-3.868-2.719-4.208
c-1.066-0.194-2.063,0.353-2.805,1.629c-0.223,0.325-0.676,0.157-0.668-0.288c0.129-1.676,0.762-3.188,2.262-4.969h-5.508
C163.899,191.587,165.052,193.291,165.106,195.408L165.106,195.408z M165.106,195.408"/>
</svg>
