<?xml version="1.0" encoding="utf-8"?>
<!DOCTYPE svg PUBLIC "-//W3C//DTD SVG 1.1//EN" "http://www.w3.org/Graphics/SVG/1.1/DTD/svg11.dtd" [
<!ENTITY ns_svg "http://www.w3.org/2000/svg">
<!ENTITY ns_xlink "http://www.w3.org/1999/xlink">
]>
<svg version="1.1" id="Layer_1" xmlns="&ns_svg;" xmlns:xlink="&ns_xlink;" width="179.379" height="250.246"
viewBox="0 0 179.379 250.246" overflow="visible" enable-background="new 0 0 179.379 250.246" xml:space="preserve">
<path fill="#FFFFFF" d="M8.903,0.398h161.574c4.711,0,8.504,3.793,8.504,8.504v232.441c0,4.711-3.793,8.504-8.504,8.504H8.903
c-4.711,0-8.504-3.793-8.504-8.504V8.902C0.399,4.191,4.192,0.398,8.903,0.398L8.903,0.398z M8.903,0.398"/>
<path fill="none" stroke="#000000" stroke-width="0.7974" d="M8.903,0.398h161.574c4.711,0,8.504,3.793,8.504,8.504v232.441
c0,4.711-3.793,8.504-8.504,8.504H8.903c-4.711,0-8.504-3.793-8.504-8.504V8.902C0.399,4.191,4.192,0.398,8.903,0.398L8.903,0.398z
M8.903,0.398"/>
<path d="M172.879,213.574v25.203h-2.492v-25.203H172.879z M172.879,213.574"/>
<path d="M163.016,238.777c2.395,0,4.32-2.149,4.32-4.817v-15.569c0-2.668-1.926-4.816-4.32-4.816h-1.398
c-2.395,0-4.324,2.148-4.324,4.816v15.569c0,2.668,1.93,4.817,4.324,4.817H163.016z M162.293,236.395
c-1.414,0-2.555-1.066-2.555-2.398v-15.777c0-1.332,1.141-2.406,2.555-2.406s2.555,1.074,2.555,2.406v15.777
C164.848,235.328,163.707,236.395,162.293,236.395L162.293,236.395z M162.293,236.395"/>
<path d="M6.5,36.676V11.469h2.489v25.207H6.5z M6.5,36.676"/>
<path d="M16.364,11.469c-2.395,0-4.321,2.152-4.321,4.82v15.57c0,2.668,1.926,4.816,4.321,4.816h1.394
c2.398,0,4.328-2.148,4.328-4.816v-15.57c0-2.668-1.93-4.82-4.328-4.82H16.364z M17.086,13.852c1.414,0,2.551,1.07,2.551,2.402
v15.777c0,1.332-1.137,2.406-2.551,2.406c-1.418,0-2.555-1.074-2.555-2.406V16.254C14.531,14.922,15.668,13.852,17.086,13.852
L17.086,13.852z M17.086,13.852"/>
<path d="M124.605,121.176c2.301-4.621,3.98-9.359,4.277-14.43c0.273-1.863-0.859-1.895-1.031-0.582
c-3.262,12.473-20.609,9.098-20.012-2.637c0.48-9.516,9.934-11.563,14.863-8.453c1.949,1.148,1.836,0.461,0.773-0.727
c-7.32-8.172-2.887-18.691,7.012-18.883c10.703,0.633,13.48,11.895,6.914,18.52c-0.816,0.793-2.625,3.352,0.098,1.563
c6.629-4.711,15.832,0.355,15.645,7.617c-0.348,13.391-16.672,14.391-20.164,3.203c-0.336-1.238-1.305-1.859-1.035,0.246
c0.484,3.813,1.484,9.563,4.348,14.563H124.605z M124.605,121.176"/>
<path d="M41.778,121.176c2.304-4.621,3.98-9.359,4.277-14.43c0.273-1.863-0.859-1.895-1.027-0.582
c-3.262,12.473-20.614,9.098-20.016-2.637c0.484-9.516,9.937-11.563,14.867-8.453c1.945,1.148,1.836,0.461,0.774-0.727
c-7.325-8.172-2.887-18.691,7.007-18.883c10.704,0.633,13.481,11.895,6.918,18.52c-0.816,0.793-2.629,3.352,0.098,1.563
c6.629-4.711,15.828,0.355,15.641,7.617c-0.344,13.391-16.672,14.391-20.161,3.203c-0.335-1.238-1.304-1.859-1.039,0.246
c0.485,3.813,1.489,9.563,4.352,14.563H41.778z M41.778,121.176"/>
<path d="M83.149,95.043c2.304-4.617,3.98-9.359,4.281-14.43c0.273-1.863-0.859-1.895-1.031-0.582
c-3.262,12.477-20.61,9.098-20.016-2.637c0.484-9.516,9.938-11.563,14.867-8.453c1.946,1.148,1.836,0.461,0.774-0.727
c-7.325-8.172-2.887-18.691,7.011-18.883c10.704,0.633,13.481,11.895,6.915,18.52c-0.816,0.793-2.629,3.352,0.098,1.563
c6.629-4.711,15.832,0.355,15.641,7.617c-0.344,13.391-16.668,14.391-20.16,3.207c-0.336-1.242-1.305-1.863-1.036,0.242
c0.485,3.813,1.485,9.563,4.348,14.563H83.149z M83.149,95.043"/>
<path d="M124.605,68.914c2.301-4.621,3.98-9.363,4.277-14.43c0.273-1.867-0.859-1.898-1.031-0.586
c-3.262,12.477-20.609,9.098-20.012-2.637c0.48-9.516,9.934-11.563,14.863-8.449c1.949,1.145,1.836,0.457,0.773-0.73
c-7.32-8.168-2.887-18.691,7.012-18.883c10.703,0.637,13.48,11.895,6.914,18.52c-0.816,0.797-2.625,3.352,0.098,1.563
c6.629-4.707,15.832,0.355,15.645,7.617c-0.348,13.391-16.672,14.391-20.164,3.207c-0.336-1.242-1.305-1.863-1.035,0.242
c0.484,3.813,1.484,9.563,4.348,14.566H124.605z M124.605,68.914"/>
<path d="M41.778,68.914c2.304-4.621,3.98-9.363,4.277-14.43c0.273-1.867-0.859-1.898-1.027-0.586
c-3.262,12.477-20.614,9.098-20.016-2.637c0.484-9.516,9.937-11.563,14.867-8.449c1.945,1.145,1.836,0.457,0.774-0.73
c-7.325-8.168-2.887-18.691,7.007-18.883c10.704,0.637,13.481,11.895,6.918,18.52c-0.816,0.797-2.629,3.352,0.098,1.563
c6.629-4.707,15.828,0.355,15.641,7.617c-0.344,13.391-16.672,14.391-20.161,3.207c-0.335-1.242-1.304-1.863-1.039,0.242
c0.485,3.813,1.489,9.563,4.352,14.566H41.778z M41.778,68.914"/>
<path d="M53.539,129.07c-2.304,4.621-3.98,9.363-4.277,14.43c-0.273,1.867,0.859,1.898,1.031,0.585
c3.258-12.476,20.61-9.097,20.012,2.638c-0.484,9.516-9.934,11.563-14.867,8.448c-1.946-1.144-1.836-0.457-0.774,0.731
c7.325,8.168,2.891,18.691-7.008,18.883c-10.703-0.637-13.48-11.895-6.914-18.52c0.817-0.797,2.625-3.352-0.101-1.563
c-6.629,4.707-15.828-0.355-15.641-7.618c0.348-13.39,16.672-14.39,20.164-3.207c0.336,1.243,1.301,1.864,1.035-0.241
c-0.484-3.813-1.484-9.563-4.351-14.566H53.539z M53.539,129.07"/>
<path d="M53.539,181.335c-2.304,4.622-3.98,9.364-4.277,14.431c-0.273,1.866,0.859,1.898,1.031,0.582
c3.258-12.473,20.61-9.095,20.012,2.641c-0.484,9.515-9.934,11.562-14.867,8.449c-1.946-1.145-1.836-0.461-0.774,0.73
c7.325,8.167,2.891,18.688-7.008,18.882c-10.703-0.636-13.48-11.897-6.914-18.519c0.817-0.797,2.625-3.356-0.101-1.567
c-6.629,4.711-15.828-0.351-15.641-7.616c0.348-13.391,16.672-14.388,20.164-3.203c0.336,1.237,1.301,1.862,1.035-0.242
c-0.484-3.817-1.484-9.563-4.351-14.567H53.539z M53.539,181.335"/>
<path d="M136.367,129.07c-2.305,4.621-3.984,9.363-4.281,14.43c-0.273,1.867,0.859,1.898,1.031,0.585
c3.262-12.476,20.609-9.097,20.016,2.638c-0.484,9.516-9.938,11.563-14.867,8.448c-1.945-1.144-1.836-0.457-0.773,0.731
c7.324,8.168,2.887,18.691-7.012,18.883c-10.703-0.637-13.48-11.895-6.914-18.52c0.816-0.797,2.629-3.352-0.098-1.563
c-6.629,4.707-15.832-0.355-15.645-7.618c0.348-13.39,16.672-14.39,20.164-3.207c0.336,1.243,1.305,1.864,1.035-0.241
c-0.484-3.813-1.484-9.563-4.348-14.566H136.367z M136.367,129.07"/>
<path d="M136.367,181.335c-2.305,4.622-3.984,9.364-4.281,14.431c-0.273,1.866,0.859,1.898,1.031,0.582
c3.262-12.473,20.609-9.095,20.016,2.641c-0.484,9.515-9.938,11.562-14.867,8.449c-1.945-1.145-1.836-0.461-0.773,0.73
c7.324,8.167,2.887,18.688-7.012,18.882c-10.703-0.636-13.48-11.897-6.914-18.519c0.816-0.797,2.629-3.356-0.098-1.567
c-6.629,4.711-15.832-0.351-15.645-7.616c0.348-13.391,16.672-14.388,20.164-3.203c0.336,1.237,1.305,1.862,1.035-0.242
c-0.484-3.817-1.484-9.563-4.348-14.567H136.367z M136.367,181.335"/>
<path d="M95.285,155.203c-2.301,4.621-3.98,9.363-4.277,14.429c-0.273,1.868,0.859,1.899,1.031,0.587
c3.262-12.477,20.609-9.098,20.012,2.637c-0.484,9.516-9.934,11.563-14.863,8.449c-1.949-1.145-1.84-0.457-0.777,0.73
c7.324,8.168,2.891,18.688-7.007,18.883c-10.704-0.637-13.481-11.898-6.914-18.52c0.816-0.797,2.625-3.353-0.102-1.566
c-6.629,4.711-15.828-0.352-15.641-7.613c0.348-13.395,16.672-14.391,20.164-3.207c0.336,1.241,1.301,1.863,1.036-0.242
c-0.485-3.813-1.485-9.563-4.352-14.566H95.285z M95.285,155.203"/>
<path d="M10.934,60.594c0.953-1.957,1.883-3.777,2.387-5.922c0.335-2.023-0.348-1.27-0.739,0.055
c-0.578,1.84-2.179,2.676-3.664,2.695c-2.695,0.035-4.043-2.082-3.957-4.363c-0.297-2.398,2.137-4.098,3.969-3.965
c1.379,0.098,2.578,0.84,3.305,1.418c0.476,0.254,0.988,0.367,0.277-0.285c-1.344-1.465-2.461-2.371-2.438-4.57
c0.024-2.063,1.79-4.211,4.125-4.145c2.922,0.082,4.25,2.313,4.243,4.383c-0.008,1.512-0.762,2.902-1.93,3.762
c-0.754,0.613-0.543,1.074,0.32,0.492c0.828-0.711,1.813-1.023,2.836-1.047c2.789-0.043,3.883,2.371,3.723,4.609
c-0.149,2.102-1.938,4.266-4.297,4.02c-2.102-0.242-3.207-2.008-3.844-3.82c-0.207-0.559-0.539-0.707-0.531,0.121
c0.488,4.047,1.992,6.563,2.004,6.563H10.934z M10.934,60.594"/>
<path d="M168.457,190.195c-0.953,1.957-1.879,3.777-2.387,5.922c-0.336,2.02,0.352,1.27,0.742-0.055
c0.574-1.84,2.176-2.676,3.664-2.695c2.695-0.035,4.039,2.082,3.957,4.363c0.293,2.397-2.137,4.094-3.969,3.965
c-1.379-0.098-2.578-0.84-3.309-1.422c-0.477-0.25-0.984-0.363-0.273,0.289c1.34,1.465,2.461,2.371,2.438,4.565
c-0.023,2.067-1.789,4.216-4.125,4.149c-2.922-0.086-4.25-2.313-4.242-4.383c0.008-1.513,0.762-2.902,1.926-3.763
c0.758-0.612,0.547-1.073-0.316-0.491c-0.828,0.711-1.813,1.023-2.836,1.047c-2.793,0.043-3.883-2.371-3.723-4.613
c0.148-2.098,1.938-4.262,4.293-4.016c2.105,0.241,3.211,2.008,3.844,3.819c0.211,0.556,0.543,0.707,0.531-0.121
c-0.484-4.047-1.992-6.562-2.004-6.562H168.457z M168.457,190.195"/>
</svg>
