<?xml version="1.0" encoding="utf-8"?>
<!DOCTYPE svg PUBLIC "-//W3C//DTD SVG 1.1//EN" "http://www.w3.org/Graphics/SVG/1.1/DTD/svg11.dtd" [
<!ENTITY ns_svg "http://www.w3.org/2000/svg">
<!ENTITY ns_xlink "http://www.w3.org/1999/xlink">
]>
<svg version="1.1" id="Layer_1" xmlns="&ns_svg;" xmlns:xlink="&ns_xlink;" width="179.379" height="250.246"
viewBox="0 0 179.379 250.246" overflow="visible" enable-background="new 0 0 179.379 250.246" xml:space="preserve">
<path fill="#FFFFFF" d="M8.903,0.398h161.574c4.711,0,8.504,3.793,8.504,8.504v232.441c0,4.711-3.793,8.504-8.504,8.504H8.903
c-4.711,0-8.504-3.793-8.504-8.504V8.902C0.399,4.191,4.192,0.398,8.903,0.398L8.903,0.398z M8.903,0.398"/>
<path fill="none" stroke="#000000" stroke-width="0.7974" d="M8.903,0.398h161.574c4.711,0,8.504,3.793,8.504,8.504v232.441
c0,4.711-3.793,8.504-8.504,8.504H8.903c-4.711,0-8.504-3.793-8.504-8.504V8.902C0.399,4.191,4.192,0.398,8.903,0.398L8.903,0.398z
M8.903,0.398"/>
<path fill="#D40000" d="M95.797,226.46c0.43-6.343,0.063-13.151,0.352-18.315c-0.195-0.363,0.512-1.363,0.547-1.363
c-0.418-0.77-0.563-2.735-0.031-4.477c4.152-15.816,11.672-28.13,19.414-39.609c6.297,18.973-13.477,32.285-17.633,48.859
c-1.387,5.741-1.18,9.75-1.711,14.934L95.797,226.46z M62.922,226.703l-23.523-36.34l5.105-2.488l24.18,38.699L62.922,226.703z
M93.348,159.382c0.207,1.044,1.031,1.603,1.902,1.125c0.852-0.468,0.949-0.5,0.418,0.325c-1.172,1.816,1.203,3.574,2.727,2.016
c0.543-0.555,0.633-1.457,0.141-1.914c-0.555-0.516-0.676-0.785,0.145-0.391c2.059,0.832,3.191-2.145,1.195-3.145
c-0.512-0.258-1.516-0.031-1.891,0.363c-0.457,0.477-0.52,0.309-0.398-0.059c0.07-0.219,0.121-0.575,0.293-0.996
c0.137-0.329,0.23-0.781,0.23-0.781l-2.102,0.023c0,0,0.172,0.48,0.344,0.886c0.16,0.384,0.223,0.668,0.301,0.829
c0.281,0.57-0.059,0.359-0.625-0.063c-0.805-0.599-1.809-0.431-2.383,0.355C93.434,158.418,93.258,158.898,93.348,159.382
L93.348,159.382z M96.387,129.816l4.52-0.133l4.973,13.723c-3.977,6.605-5.051,14.058-0.422,21.613l-14.34,0.023
C94.481,153.66,95,141.585,96.387,129.816L96.387,129.816z M101.114,147.671c0.609-0.543,0.684-1.526,0.133-2.183
c-0.695-0.824-0.535-0.867,0.395-0.328c1.348,0.777,2.637-0.903,1.84-2.391c-0.504-0.945-2.137-1.152-2.758-0.313
c-0.52,0.699-0.461,0.059-0.063-0.872c0.148-0.343,0.359-0.983,0.359-0.983l-2.191,0.043c0,0,0.281,0.621,0.434,1.02
c0.398,1.059,0.414,1.391-0.203,0.711c-1.336-1.122-2.906-0.309-2.918,1.305c0.012,1.241,1.137,2.039,2.121,1.457
c0.598-0.352,0.867-0.434,0.195,0.375c-0.465,0.77-0.301,1.754,0.313,2.215C99.614,148.234,100.512,148.207,101.114,147.671
L101.114,147.671z M70.821,151.949c0.175-0.129,0.242-0.043,0.132,0.129c-0.089,0.152-0.327,0.363-0.526,0.586
c-1.023,1.137,0.297,2.586,1.944,2.359c1.125-0.152,1.782-1.918,0.953-2.613c-0.269-0.18-0.479-0.215-0.683-0.457
c-0.016-0.102,0.031-0.168,0.129-0.129c0.148,0.063,0.445,0.304,0.597,0.344c1.043,0.285,1.829-0.148,2.095-0.883
c0.168-0.852,0.008-1.766-0.688-2.242c-0.648-0.434-1.605-0.313-2.16,0.43c-0.57,0.758-0.652,0.034-0.184-1.009
c0.176-0.394,0.293-0.948,0.293-0.948l-2.012,0.105c0,0,0.105,0.434,0.284,0.93c0.446,1.141,0.767,1.465,0.196,0.879
c-2.461-1.449-3.278,0.52-3.321,1.305C67.797,152.21,69.946,153.046,70.821,151.949L70.821,151.949z M80.672,129.691l3.637,0.016
c-2.742,14.57-8.36,26.781-17.809,35.18l-17.785-0.055l-8.57-5.988l3.308-4.301C66.031,156.871,75.649,145.675,80.672,129.691
L80.672,129.691z M64.309,163.477c1.066-0.47,1.508-1.672,0.805-2.48c-0.637-0.73-0.704-0.961,0.277-0.391
c1.305,0.762,2.57-0.758,1.93-2.246c-0.398-0.93-1.657-1.215-2.563-0.586c-0.797,0.594-0.781,0.328-0.367-0.609
c0.207-0.465,0.367-1.207,0.367-1.207l-2.23,0.031c0,0,0.16,0.531,0.324,0.894c0.371,0.832,0.508,1.216,0.332,1.22
c-0.082,0-0.356-0.254-0.521-0.402c-0.44-0.406-1.655-0.485-2.104-0.055c-1.336,1.273-0.582,3.496,1.113,3.086
c1.098-0.267,1.348-0.68,0.438,0.352C60.992,162.352,62.727,164.176,64.309,163.477L64.309,163.477z M50.254,163.035
c0.922-0.434,1.23-1.496,0.715-2.184c-0.521-0.688-0.777-1.133,0.145-0.513c1.23,0.618,2.3-0.202,2.285-1.597
c-0.016-1.465-1.657-2.145-2.864-1.266c-0.207,0.148-0.457,0.28-0.5,0.285c-0.147,0,0.118-0.793,0.414-1.309
c0.125-0.227,0.353-0.684,0.353-0.684l-2.23-0.086c0,0,0.125,0.609,0.3,1.073c0.356,0.95,0.442,1.267-0.179,0.728
c-1.676-1.566-3.465,0.43-2.758,2.152c0.371,0.969,1.515,0.969,2.191,0.484c0.609-0.477,0.297,0.152-0.121,0.656
C46.86,162.141,48.535,163.839,50.254,163.035L50.254,163.035z M152.02,126.496l0.117,2.695l-28.797,24l-1.207-1.853L152.02,126.496
z M44.914,131.543c4.146-2.949,8.759-8.246,13.31-11.008C61.547,128.18,53.75,135.671,44.914,131.543L44.914,131.543z
M121.008,129.609c-4.172-14.316,15.527-13.363,13.051-10.324L121.008,129.609z M27.399,120.258l28.504-23.242l1.296,1.953
l-30.073,24.637L27.399,120.258z M105.489,96.813c0.078,0.242,0.941,1.168,0.945,1.254c-0.246-0.184-1.711-1.004-2.426-0.207
c-0.25,0.293-0.57,0.988-0.535,1.711c0.301,1.297,1.773,1.754,2.82,0.867c0.301-0.254,0.559-0.566,0.621-0.457
c0.055,0.094-0.109,0.539-0.246,0.895c-0.152,0.359-0.727,1.121-0.313,1.121l2.027-0.004c0,0-0.078-0.477-0.32-1
c-0.449-0.98-0.434-1.512,0.113-0.805c1.063,1.375,3.125,0.227,2.91-1.422c-0.156-1.191-1.359-1.871-2.246-1.305
c-0.098,0.063-0.383,0.344-0.422,0.348c-0.109,0.004,0.188-0.449,0.383-0.828c0.652-1.25-0.32-2.41-1.813-2.285
c-0.48,0.039-1.012,0.344-1.012,0.387C105.415,95.535,105.325,96.313,105.489,96.813L105.489,96.813z M130.102,85.152
c2.852,2.625,5.703,4.547,8.555,6.227l-2.691,4.25c-18.242-1.688-31.504,5.523-37.039,25.074l-3.008,0.578
c1.129-12.195,5.219-24.289,17.301-36.109L130.102,85.152z M112.618,88.074c0.008,0.578,1.066,1.266,0.832,1.422
c-0.109,0.059-0.742-0.492-1.031-0.523c-2.105-0.223-2.543,3.051-0.457,3.418c0.41,0.074,1.258-0.18,1.512-0.387
c0.332-0.273,0.566-0.5,0.633-0.477c0.129,0.047-0.164,0.633-0.391,1.063c-0.215,0.402-0.512,1.191-0.512,1.191
c0.836,0.148,1.641,0.184,2.395,0.008c0,0-0.215-0.684-0.434-1.203c-0.273-0.668-0.332-1.09-0.148-1.043
c0.082,0.02,0.172,0.227,0.34,0.371c1.035,0.891,2.559,0.508,2.957-0.883c0.375-1.309-1.188-2.652-2.277-1.922
c-0.383,0.258-0.383,0.063-0.004-0.508c0.348-0.523,0.262-1.32-0.051-1.789C114.836,85.598,112.567,86.465,112.618,88.074
L112.618,88.074z M129.809,91.949c-0.055-0.289,0.02-0.207,0.324,0.113c0.961,0.996,2.613,0.844,3.035-0.48s-0.863-2.836-1.98-2.316
c-0.582,0.27-0.594,0.176-0.262-0.258c0.859-1.117-0.086-2.586-1.559-2.57c-1.344,0.016-2.137,1.309-1.48,2.422
c0.266,0.453,0.18,0.551-0.293,0.324c-1.375-0.668-2.656,1.508-1.648,2.801c0.59,0.758,1.961,0.836,2.746,0.082
c0.418-0.398,0.414-0.207,0.109,0.621c-0.262,0.723-0.555,1.309-0.555,1.309l2.379,0.02
C130.625,94.016,129.989,92.809,129.809,91.949L129.809,91.949z M78.844,121.195c0,0-3.531-9.832-4.742-14.547
c2.617-6.27,6.203-12.348,0.179-21.375l14.638-0.043c-4.523,10.258-4.617,36.137-5.68,36.199L78.844,121.195z M80.129,109.688
c0,0-0.724-0.996-0.766-1.801c-0.09-0.516,0.042-0.547,0.313-0.02c1.305,1.441,3.069,0.047,3.078-1.23
c0.148-1.164-1.216-2.168-2.095-1.582c-0.612,0.406-0.78,0.289-0.233-0.473c0.772-1.07-0.066-2.465-1.449-2.449
c-1.797,0.02-2.485,1.699-1.196,2.898c0.95,0.883,0.063,0.359-0.69,0.043c-1.474-0.613-2.438,0.883-1.777,2.395
c0.457,1.043,1.793,1.316,2.578,0.473c0.43-0.465,0.824-0.734,0.594-0.035c-0.121,0.566-0.782,1.766-0.782,1.766L80.129,109.688z
M82.395,93.926c0,0-0.867-1.086-1.016-1.902c-0.052-0.301,0.164-0.227,0.655,0.195c1.575,1.352,3.739-1.07,2.271-2.551
c-0.504-0.512-1.017-0.656-1.606-0.352c-0.733,0.387-0.675,0.199-0.308-0.199c0.535-0.582,0.496-1.645-0.082-2.16
c-1.603-1.426-4.137,0.699-2.649,2.227c0.649,0.664,0.341,0.578-0.371,0.148c-1.351-0.805-2.843,1.406-1.827,2.703
c1.198,1.016,2.098,0.516,2.93-0.121c0.18-0.098,0.336-0.141,0.336-0.063c0.004,0.148-0.828,2.105-0.828,2.105L82.395,93.926z
M63.196,87.801c-0.895-0.063-1.532-8.406-0.441-11.051c2.328-11.145,9.434-19.266,13.855-26.094
c7.093-10.168,6.211-27.059,6.511-26.387l1.009,0.117c0,0-0.777,9.902-0.341,14.375c0.457,3.934,0.36,4.18,0.078,4.57
c-0.073,0.367,0.036,1.438-0.046,1.805C80.664,59.703,73.129,74.676,65.352,85.98L63.196,87.801z M136.133,62.359L112.18,24.582
l5.754-0.516c2.137,3.383,22.949,35.66,22.949,35.66L136.133,62.359z M136.133,62.359"/>
<path fill="#E2CF00" d="M37.492,227.375c2.724-9.988-4.655-33.215-9.269-36.25c5.41-0.227,11.914-0.129,11.711-0.637
c0,0,23.004,36.18,22.816,36.371C62.571,227.043,37.492,227.375,37.492,227.375L37.492,227.375z M130.723,170.714
c-5.574-0.793-3.375-5.418,0.207-5.897c-0.465,0.078,0.387-2.301,3.277-3.266c0.656-1.188,1.168-3.223,1.77-4.164
c-1.73,0.563-3.836,2.023-11.711,0.87c0.688-3.729,8.219-4.366,10.934-3.788c1.566,0.363,3.113,2.699,3.59,2.75
c4.836-0.805,10.984,3.566,9.125,8.004c-0.289,0.633-1.023-0.75-2.652-1.341c-5.258-1.905-5.625-4.754-6.836-6.026
c-0.441-0.082-2.766,4.52-2.766,4.52l0.727,3.125c1.262-0.113,6.867,3.348-0.113,5.695
C134.348,177.848,130.711,173.152,130.723,170.714L130.723,170.714z M143.934,141.02c-0.301-0.306,0.234-2.375,0.941-3.566
c0.383-0.641,1.266-1.075,1.785-0.984c0.922,0.163,0.777,1.504-0.445,5.434C146.165,142.469,144.915,142.527,143.934,141.02
L143.934,141.02z M32.918,113.512c-1.527-0.004-0.156-4.164,0.784-5.484c0.31-0.41,1.528,0.465,1.591,1.066
C35.406,110.172,33.75,113.941,32.918,113.512L32.918,113.512z M31.833,85.227c1.866,0.453,4.816,2.332,6.223,3.363
c1.754,1.305,1.272,3.871,2.676,4.102c0.945-0.469,2.679-4.672,2.679-4.672s0.438-2.156-0.796-2.824
c-3.07-1.652-3.016-3.441-2.82-3.598c0.909-2.363,2.723-1.941,3.702-2.074c0.021-1.293-0.022-4.02,2.653-3.738
c2.34,0.223,2.57,3.563,1.586,3.594c-0.02-0.055,4.425-0.637,4.382,2.293c-0.022,1.59-2.659,3.625-3.479,2.887
c0,0,0.437,3.164-3.543,4.25c-0.931,0.949-1.688,4.973-1.688,4.617c2.399-2.168,6.161-2.676,12.09-1.898
c-3.672,6.813-13.836,3.625-14.629,2.309C35.754,92.293,30.961,90.285,31.833,85.227L31.833,85.227z M75.602,68.898
c5.406,0.492,11.32-1.203,15.82-0.305c0.512,0.07,1.066,0.828,1.375,0.996c2.324,1.266,4.758,0.871,8.5-0.543
c0.922-0.348,18.066-0.215,18.066-0.215c3.906,5.766,10.852,16.621,11,16.254c0,0-9.504-0.109-13.883,0.148
c-3.078,0.184-1.266,0.602-3.406,0.695c-14.98,11.254-17.832,35.566-17.832,35.566s4.762-1.25,6.004,0.063
c5.891-17.23,17.074-25.098,32.664-23.555c7.207,0.711,15.805,7.797,15.805,7.797l-15.418,12.551
c-11.949-6.027-17.066,11.733-13.441,11.776l31.055-25.382c0,0,0.531,2.074,0.477,2.141c-2.215,2.902-39.234,32.952-39.234,32.952
l-1.625-1.793c0,0-1.023,0.907-1.559,1.509c-0.055,0.984,0.293,1.82,1.039,2.59c-7.332,5.887-7.574,16.684-2.168,22.578
c0,0-2.398,0.168-2.652,0.211c-3.047,0.523-6.195-14.5-0.156-21.488c-3.047-5.977-4.926-14.106-5.305-14.485
c0.078,0.961-4.813,0.642-4.813,0.642c-0.371,12.141-1.641,24.047-4.559,35.52l22.469,0.484l-9.563,16.598
c0,0-10.734-0.27-15.356-0.59c-4.828-2.809-7.612-0.676-12.144,0.367c-6.445,0.188-15.938-0.113-15.938-0.023
c-3.218-6.395-6.679-11.094-11.378-16.575c-0.598-0.995,19.085-0.379,19.085-0.379s9.836-14.882,11.629-19.085
c1.399-3.281,4.536-15.227,4.536-15.227c0.145,0.625-1.786-3.106-6.286-3.021c-3.718,24.731-33.108,33.063-50.793,17.146
l-0.164-2.875l38.97-31.609l1.73,2c-0.372-0.297-23.922,19.3-23.532,19.175c6.981,3.653,15.06,0.696,14.118-11.296
c5.531-3.996,10.43-8.656,15.242-13.41c0.105-0.184,5.371,11.824,5.242,14.133c3.031-1.016,4.824,1.117,4.769,0.75
c-1.089-6.941,4.993-33.27,5.106-36.297c-3.375-0.27-7.856-0.148-14.879-0.426c5.641,10.918,3.684,18.316-4.203,25.043l-1.649-2.07
c0.668,0.371,11.517-9.016,2.782-23.043c-0.398,0.031-4.602-0.379-4.602-0.379S75.164,70.836,75.602,68.898L75.602,68.898z
M117.473,23.773c0,0,24.594-0.594,24.602,0.129c-0.785,13.215,2.297,25.266,9.73,36.414c0,0-10.895-0.387-10.695-0.25
L117.473,23.773z M117.473,23.773"/>
<path fill="#131F67" d="M153.25,22.914L25.387,22.758L26.18,227.98h127.707L153.25,22.914z M141.555,23.727
c-0.012-0.012-1.648,21.711,9.684,35.938c-6.922-1.051-10.887,0.012-14.918,2.859l0.551,0.57c5.555-3.414,10.258-2.516,15.078-1.984
l-0.133,27.945c-0.035,1.355-5.633,0.75-9.172-1.91c-1.684-0.992-3.852-3.074-4.82-4.641c-0.297-0.473-0.609-0.945-0.695-1.043
c-0.324-0.375-2.344-4.137-6.051-11.258c-1.883-3.621-4.375-8.563-6.398-12.391c-1.309-2.477-3.742-7.16-3.914-7.531
c-0.359-0.781-3.012-5.953-4.043-7.836c-2.727-4.969-7.125-13.645-8.695-16.754c-0.348-0.805-0.875-1.18,0.07-1.152
c0.207,0.004,0.418,0.02,0.539,0.047c0.168,0.082,0.367-0.285,0.367-0.285L141.555,23.727z M27.699,141.238l-0.082-2.199
l37.161-30.645l1.184,1.523L27.699,141.238z M63.602,87.559c-0.149,0.055-0.313,0.109-0.492,0.168
c-0.954-4.258-0.411-9.941,0.714-14.215c1.642-5.938,4.7-10.695,8.11-15.477c7.789-10.922,11.238-19.156,11.097-33.828l1.114,0.121
c-0.047,2.316-0.352,4.059-0.442,7.145c-0.14,3.301-0.086,5.816,0.267,9.039c0.176,1.586,0.276,2.613,0.012,2.82
c-0.129,0.105-0.242,0.652-0.125,0.855c-0.02,0.438-0.078,1.316-0.078,1.316C81.992,54.238,72.426,76.637,63.602,87.559
L63.602,87.559z M68.25,107.414L66.281,105c0,0-1.515-1.223-0.155-2.602c3.934-3.988,3.961-9.063,0.159-13.621
c-0.257-0.578,1.181-3.504,1.181-3.504l2.996,0.051C75.129,91.004,76.403,101.043,68.25,107.414L68.25,107.414z M71,84.867
c0.094-0.391-4.438-0.238-4.438-0.238c2.816-4.195,5.207-8.512,7.558-12.836c3.649-6.547,8.707-18.02,10.293-26.336
c1.181,9.727,2.899,24.16,11.22,24.73c2.73,0.188,5.891-1.684,6.406-1.375l17.289-0.137c3.547,7.191,7.355,11.82,11.863,16.738
c3.242,1.848,7.195,3.313,11.016,4.262c2.172,0.539,2.379,0.18,6.66,0.789c1.133,0.164,2.852-0.316,2.836-0.316
c-3.422,2.699-7.367,1.938-11.711,0.781c-0.246-0.066-0.5-0.141-0.754-0.23l-3.281,4.938c-7.305-1.73-30.754-0.508-36.934,24.988
c0,0,0.633,0.324,0.484,0.148c4.91-22.129,25.648-26.539,35.535-24.336l-0.848,1.297c-16.406-2.008-29.762,8.254-32.945,22.805
l0.316,0.285c6.156-21.996,32.035-30.137,48.078-14.887l2.945-2.086l-0.098,2.82l-39.445,33.051l-1.578-1.634
c0,0-0.277,0.212-0.59,0.474c-1.02,0.848-1.422,1.055-1.137,1.526c0.285,0.474,1.395,1.539,1.441,1.657
c-6.543,5.332-8.617,15.613-2.402,22.813c0.695,0.762,0.57,0.969,0.441,0.109c-5.578-6.07-4.871-16.801,2.082-21.887l1.402,1.836
c-3.063,6.718-4.695,17.203,3.355,18.109c2.883,7.73-0.434,16.887-4.137,23.023c-3.926,7.074-8.684,12.949-11.652,20.652
c-1.441,3.215-3.738,12.746-3.617,20.031l-0.867-0.008c0-2.973,0.199-6.501,0.223-8.751c0.121-10.987,0.105-10.336,0.352-10.612
c0.082-0.094,0.313-0.191,0.336-0.27c0.031-0.113-0.18-0.344-0.262-0.609c-0.086-0.277-0.234-0.763-0.219-1.168
c0.016-0.406,0.395-1,0.324-1.134c-1.73-6.062-1.875-16.957-7.466-21.961c-2.737-2.351-6.379-2.448-11.093-0.515
c-10.407,0.015-8.864,0.551-17.266,0.07c-3.478-6.363-7.691-12.559-12.25-17.156c-2.133-2.379-5.099-3.68-7.883-5.402
c1.116-2.122,2.383-3.672,3.77-4.676c0.289-0.41,0.484-0.855,0.855-1.203c28.332,2.723,34.477-24.715,33.184-24.016l-0.254,0.215
c-7.742,28.273-35.31,27.242-49.164,15.019c0,0-1.957,1.7-1.965-0.163c-0.008-1.699,0.613-2.188,0.613-2.188l38.891-31.715
c0.711,0.453,1.476,1.961,1.797,1.793c0.715-0.383,1.77-1.148,1.738-1.602c-0.023-0.352-1.422-2.551-1.422-2.551
C79.031,97.059,74.34,92.246,71,84.867L71,84.867z M85.742,24.328c0.188,0,0.364,0.09,0.497,0.297
c0.238,0.375-0.708,2.559-1.29,2.941c-0.554,0.367-0.593-0.059-0.194-2.172C84.871,24.777,85.333,24.332,85.742,24.328
L85.742,24.328z M142.809,24.367h9.008l0.066,34.598C145.153,49.5,141.743,38.605,142.809,24.367L142.809,24.367z M88.16,24.449
c0.228-0.008,0.427,0.055,0.489,0.215c0.23,0.586-1.09,3.105-2.723,5.195c-0.849,1.082-1.277,1.395-1.543,1.137
c-0.224-0.492-0.215-1.066,0.565-1.969c0.646-0.742,1.739-2.477,2.192-3.449C87.336,25.008,87.528,24.492,88.16,24.449L88.16,24.449
z M97.411,24.574c0.262,0,0.531-0.004,0.609,0.121c1.57,3.207,4.531,6.102,7.563,7.648c0.441,0.25,0.234,0.879,0.383,1.32
c-3.402-0.504-7.871-5.328-9.066-8.848C96.891,24.563,97.149,24.57,97.411,24.574L97.411,24.574z M102.735,24.57
c0.676,0.688,1.742,1.52,1.98,2.305c0.148,0.48,0.258,1.035,0.152,1.297c-0.59,0.367-3.531-3.043-3.418-3.441
C101.825,24.484,102.293,24.434,102.735,24.57L102.735,24.57z M89.989,24.523c0.289,0.012,0.73-0.008,0.797,0.211
c0.367,1.488-3.031,7.281-5.508,8.922c-0.879,0.582-0.938,0.43-0.868-0.547c0.047-0.66,0.11-0.605,1.017-1.469
c1.289-1.234,2.699-3.133,3.473-4.816C89.895,24.664,89.649,24.527,89.989,24.523L89.989,24.523z M92.293,24.543
c0.324,0.004,0.625,0.113,0.707,0.254c0.113,0.195-0.039,0.512-0.145,0.902c-1.117,3.168-3.899,7.723-7.164,10.313
c-1.273,0.977-1.489,0.973-1.578-0.039c-0.055-0.586,0.214-0.758,0.813-1.172c2.77-1.922,5.262-5.258,6.316-8.664
c0.203-0.66,0.125-1.258,0.488-1.461C91.899,24.582,92.098,24.543,92.293,24.543L92.293,24.543z M109.493,30.031
c0.133,0.227,1.082,1.715,0.305,1.156c-0.316-0.262-0.898-0.922-1.82-1.969c-2.18-2.477-2.246-2.324-2.203-2.941
c0.023-0.801-0.551-2.117,0.688-1.777C107.684,25.934,108.45,28.246,109.493,30.031L109.493,30.031z M99.563,24.594
c0.246-0.004,0.539,0.043,0.781,0.09c1.438,2.699,4.945,5.07,4.93,5.059c0,0,0.09,1.176-0.039,1.383
c-0.074,0.363-5.566-3.813-6.18-6.313C99.114,24.652,99.317,24.598,99.563,24.594L99.563,24.594z M95.653,24.645
c1.289,2.367,3.953,7.746,10.207,9.922c0.449,0.098,0.93,1.375,0.582,1.73c-3.43-0.996-9.648-4.355-11.762-11.621
C94.887,24.484,95.434,24.512,95.653,24.645L95.653,24.645z M93.973,25.105c-0.215,0,2.953,9.145,11.977,11.871
c0.781,0.242,1.238,0.582,1.188,1.043c-0.063,0.582-0.043,0.656-0.91,0.219c-2.461-1.285-5.973-1.887-8.902-0.398
c-0.457,0.234-0.922,0.867-0.555,1.266c0.211,0.203,0.73,0.051,1.391-0.203c3.41-1.328,8.633-0.547,9.555,1.539
c0.652,1.48,0.766,2.574,0.406,2.754c-0.273,0.141-0.734-0.359-1.551-1.074c-2.594-2.277-5.699-2.91-8.164-0.723
c-0.535,0.473-1.063,0.391-1.25,0.586c-0.18,0.191,0.035,0.617,0.184,1.031c0.16,0.434,0.168,0.551,0.008,0.918
c-0.215,0.504-0.223,1.145-0.199,1.625c0.059,1.164,0.828,2.168,3.051,3.707c1.727,1.199,3.078,1.871,0.977,0.168
c-3.633-2.945-4.293-4.141-1.938-3.121c2.352,0.941,5.609-0.004,7.918-1.766c0.785-0.012,1.254-0.148,1.668,0.152
c1.723,4.043,3.129,9.422,5.418,14.637c-2.73,3.086-12.25,10.652-19.035,10.383c-5.859-0.234-7.93-9.824-9.227-15.125
c-0.434-2.242-0.934-4.523-0.875-7.691c0,0,0.109-0.086,0.258-0.059c0.984,0.188,2.671,0.316,3.531,0.113
c1.558-0.363,1.875-0.641,1.965-0.41c0.105,0.27-0.543,0.879-1.676,1.656c-0.496,0.336-1.93,1.031-1.781,1.133
c0.343,0.227,2.082-0.695,2.375-0.945c0.453-0.383,0.766-0.406,0.984-0.195c0.254,0.25,0.305-0.016-0.535,2.07
c-0.926,2.297-0.836,2.508,0.969,3.922c0.629,0.496,1.203,0.984,1.34,1.199c0.172,0.285,0.289,0.617,0.371,0.723
c0.305,0.41,0.117-0.246-0.063-1.293c-0.211-0.773-0.973-1.539-1.508-1.914c-0.984-0.684-0.832-1.359-0.016-3.691
c2.406-6.887,1.793-9.961-0.859-11.457c-1.195-0.672-4.543-0.492-5.598,0.387c-0.52,0.438-0.45-0.418-0.368-0.473
C90.86,33.297,92.352,29.125,93.973,25.105L93.973,25.105z M106.247,28.477c1.805,1.793,4.055,4.227,5.406,5.957
c0.742,0.922,1.133,1.867,1.727,2.836c0.113,0.176,0.223,0.379,0.145,0.457c-0.031,0.035-0.289-0.113-0.434-0.223
c-1.324-0.996-6.785-7.215-6.785-7.215C106.055,29.266,105.879,28.918,106.247,28.477L106.247,28.477z M107.329,32.699
c0,0,4.73,5.168,7.441,7.707c0.535,1.121,1.555,2.734,1.531,3.004c-0.012,0.121-0.582-0.316-0.582-0.316
c-2.996-2.758-5.762-5.863-8.637-8.801c0.027,0.016-0.227-1.219-0.23-1.715C106.915,32.336,107.204,32.602,107.329,32.699
L107.329,32.699z M117.594,45.945c0.637,1.035,1.102,1.961,1.406,2.57c0.508,0.965,0.336,0.992-0.109,0.637
c-3.387-2.77-6.223-6.145-9.41-9.238c-0.414-0.426-1.242-1.371-1.242-1.371c0.031,0.035-1.039-2.23-0.367-2.184
c0.523,0.203,0.871,0.773,1.207,1.137C110.75,39.289,113.938,42.367,117.594,45.945L117.594,45.945z M88.055,38.559
c1.397-0.043,2.773,0.32,3.465,1.176c0.633,0.777,0.887,2.012,0.539,2.371c-0.219,0.223-0.996-0.406-0.996-0.406
c-3.289-1.848-4.422-0.957-6.203-0.418c-0.258,0.078-0.527-0.605-0.2-1.285C85.313,38.867,86.973,38.59,88.055,38.559L88.055,38.559
z M108.75,40.305c3.52,3.527,7.09,7.445,10.898,10.48c0.531,0.453,0.898,0.746,1.141,0.988c0.504,0.996,1.66,3.367,1.66,3.367
c-4.078-2.852-13.27-12.684-13.168-12.617C109.375,42.57,108.512,40.723,108.75,40.305L108.75,40.305z M101.864,40.891
c0.645-0.008,1.348,0.195,1.902,0.414c1.773,0.703,2.887,1.453,1.055,1.203c-2.555-0.348-3.43-0.367-4.363-0.215
c-1.738,0.277-1.875,0.473-2.027,0.195C98.032,41.766,99.938,40.906,101.864,40.891L101.864,40.891z M87.364,41.098
c0.641-0.004,1.335,0.137,2.016,0.434c2.168,0.949,2.551,1.566,0.702,1.27c-0.956-0.156-2.711-0.141-3.968,0.184
c-0.398,0.102-0.84,0.336-0.941,0.367c-0.445,0.141-0.57-0.191-0.379-0.75C85.121,41.637,86.141,41.105,87.364,41.098L87.364,41.098
z M103.051,43.859l0.445,0.035c-0.559,3.164-3.719,2.855-4.57,0.137l0.449-0.008C101.04,46.621,102.286,45.094,103.051,43.859
L103.051,43.859z M104.813,44.023c1.457-0.016,1.363,0.863-0.156,1.449c-1.168,0.453-1.297,0.371-0.871-0.5
C104.196,44.133,104.153,44.031,104.813,44.023L104.813,44.023z M89.762,44.141c0.141,2.852-3.832,3.371-4.074,0.262l0.379-0.016
c1.3,2.445,2.804,0.969,3.273-0.246H89.762z M91.528,44.527c0.449,0.309,0.172,0.73-0.805,1.324
c-0.879,0.551-1.109-0.113-0.383-1.031C90.645,44.523,91.149,44.277,91.528,44.527L91.528,44.527z M98.418,44.523
c0.176-0.055,0.586,0.719,0.234,0.902c-0.207,0.109-0.516-0.207-0.551-0.441C98.075,44.801,98.192,44.598,98.418,44.523
L98.418,44.523z M110.317,44.703c2.652,2.922,5.32,5.852,13.129,12.211c0,0,1.102,1.961,1.34,2.727
c-0.188,0.234-0.289,0.207-0.836-0.063c-5.09-3.93-9.824-8.711-13.531-13.152C110.243,45.797,109.852,45.191,110.317,44.703
L110.317,44.703z M85.039,44.992c0.302-0.008,0.728,0.664,0.492,1.07c-0.194,0.148-0.492-0.086-0.625-0.27
c-0.128-0.184-0.125-0.52-0.046-0.672C84.91,45.035,84.969,44.996,85.039,44.992L85.039,44.992z M111.426,49.039
c-0.02-0.102,12.328,12.418,13.914,12.176c0.738,0.434,2.574,3.992,2.574,3.992c0.051,0.113,0.043,0.324-0.254,0.176
c-2.09-1.035-10.82-8.277-15.281-13.668C112.051,50.93,111.657,49.93,111.426,49.039L111.426,49.039z M96.747,50.879
c2.152,1.039,1.227,3.172-1.047,1.816c-1.793-1.09-3.211-1.188-3.203-0.246c0.008,0.398,0.492,0.91,0.965,0.902
c0.887,0.059,1.688,0.383,2.559,0.574c1.359,0.289,2.375-0.07,2.715-0.895c0.574-1.398-0.797-2.926-1.699-2.844
S96.36,50.703,96.747,50.879L96.747,50.879z M113.797,54.297c-0.148-0.129,6.141,6.766,14.723,12.457
c0.332,0.387,1.16,2.375,1.293,2.645c-0.035,0.188-0.223,0.004-0.223,0.004c-4.332-2.508-10.051-7.473-15.469-13.109
c0,0-0.523-1.25-0.684-2.063C113.555,54.176,113.684,54.246,113.797,54.297L113.797,54.297z M99.504,56.781
c-0.195,0.027-0.453,0.32-0.777,0.5c-0.66,0.363-0.867,0.461-2.492-0.027c-0.879-0.266-1.02-0.246-1.547,0.145
c-0.457,0.34-0.711,0.395-1.227,0.164c-0.922-0.41-1.348-0.109-2.199,0.188c-0.816,0.293-1.094-0.063-1.824-0.23
c-0.098,0-0.141,2.953-0.043,3.047c0.035,0.031,0.761-0.445,1.172-0.656c0.711-0.359,0.609-0.305,1.645-0.262
c1.527,0.266,3.039,0.176,4.063-0.227c1.273-0.359,2.27-0.293,3.148,0.43c0.535,0.438,1.242,0.363,0.828-0.441
c-0.141-0.277-0.465-1.301-0.426-1.684c0.059-0.57-0.07-0.934-0.281-0.945C99.532,56.781,99.52,56.781,99.504,56.781L99.504,56.781z
M115.825,59.082c2.895,2.777,6.465,7.016,14.867,11.926c0.438,0.77,1.027,1.785,1.402,2.582c0.035,0.219-0.02,0.418-0.234,0.34
c-5.191-3.289-8.078-4.887-15.273-11.98c-0.445-0.719-0.922-1.941-1.293-2.938C115.372,58.727,115.704,59.012,115.825,59.082
L115.825,59.082z M114.602,60.141l3.211,6.031l-10.816-0.02C109.743,64.512,112.368,62.328,114.602,60.141L114.602,60.141z
M96.668,60.277c-1.777,0.707-2.047,0.852-3.809,0.426c-1.023-0.25-0.742,0.344-0.219,0.59c1.328,0.621,3.254,0.184,3.969-0.309
C97.083,60.68,97.403,59.984,96.668,60.277L96.668,60.277z M94.844,62.141c-1.859,0.023-3.617,0.672-3.746,1.43
c-0.027,0.145,0.125,0.309,0.414,0.137c1.262-0.762,4.391-1.008,6.762-0.152c0.383,0.137,0.449-0.102,0.051-0.43
C97.438,62.395,96.118,62.121,94.844,62.141L94.844,62.141z M118.458,64.715c3.5,3.234,6.879,6.207,14.418,10.531
c0.543,1.184,1.328,2.602,1.465,2.723c-7.063-3.426-14.762-10.191-14.762-10.191s-1.211-2.16-1.488-3.082
C118.063,64.383,118.356,64.637,118.458,64.715L118.458,64.715z M120.868,69.75c0,0,6.449,5.453,13.801,9.156
c0.297,0.285,1.035,2.039,1.277,2.23c0.246,0.188-0.293,0.188-0.82-0.086c-3.848-1.77-12.098-7.441-12.098-7.441
C122.235,72.313,121.102,70.961,120.868,69.75L120.868,69.75z M43.699,92.539c0.59-1.262,1.192-2.664,1.582-3.809
c1.754,0.02,2.618-0.641,3.243-1.434c0.89-0.023,1.57-0.02,2.781-0.055c-0.039-1.199,0.016-2.895,0.016-2.895
c1.227-1.262,2.059-2.723,0.156-4.957c0,0-0.078-1.043-0.106-2.82c-0.875-0.137-2.843-0.047-2.843-0.047
c-1.59-2.238-4.411-1.676-5.266-0.004c0,0-1.271,0.07-2.142,0.074c-0.015,0.473-0.164,2.57-0.164,2.57s-3.711,2.531,0.138,5.512
l-0.051,2.504c0.719,0.055,1.234,0.008,2.176,0.188c0,0-1.474,3.418-2.441,5.039c-0.332,0.086-0.25-0.102-0.652-1.234
c-0.48-1.336-1.57-2.797-2.492-3.516c-1.25-0.965-2.965-1.266-4.16-2.105c-1.149-0.809-1.965-1.852-2.328-1.656
c-0.121,0.406-0.254,2.738,0.179,4.238c0.61,2.465,4.161,4.039,7.122,5.219c0.23,0.145,0.43,0.367,0.434,0.449
c0.004,0.406-0.391,0.281-1.363,0.184c-1.469-0.145-2.078,0.258-2.594,1.512c-0.152,0.309-0.52,0.844-0.816,1.195
s-0.605,0.699-0.653,0.848c-0.043,0.148-0.347,0.91-0.647,1.547c-0.188,0.391-0.496,0.805-0.521,1.383
c-0.065,1.766-0.093,4.141,0.173,5.637c0.195,1.102,1.581,1.73,2.063,1.82c0.734,0.137,0.867,0.883,0.75,1.492
c-0.563,3.004-2.293,4.844-2.848,3.855c-0.145-0.262-0.302-1.488-0.34-1.473c-0.027,0.012-0.289,1.043-0.191,1.465
c0.109,0.453,0.687,0.785,1.258,0.578c0.843-0.305,1.511-1.145,2.035-3.051c0.215-0.777,0.418-1.215,0.785-1.27
c0.668,0.047,1.711,1.422,1.711,1.422c-3.473,2.891-10.152,8.141-10.152,8.141l-0.247-94.719l54.981,0.105
c0.305,7.512-0.606,13.828-3.305,20.516c-3.195,7.207-8.152,12.563-11.949,19.195c-4.582,8.008-6.047,16.313-4.488,24.668
c-4.68,6.125-8.621,9.066-12.367,11.914c0,0-2.805-2.949-4.368-4.602c0,0,0.661-0.055,1.431-0.086
c3.555-0.398,7.405-0.902,8.891-4.605c0.211-0.41,0.125-0.594-0.129-0.648c-2.785,0.383-5.203-0.008-6.781,0.105
C45.333,91.203,43.699,92.539,43.699,92.539L43.699,92.539z M44.125,95.266c0,0-4.47-2.125-4.802-2.184
c-1.948-0.355-6.644-2.801-7.44-4.465c-0.103-0.219-0.363-3.254-0.445-3.875c0.027-0.199,0.109-0.191,0.304-0.051
c0.5,0.348,2.446,1.617,3.164,1.965c2.97,1.441,4.118,2.469,4.845,4.641c0.184,0.543,0.375,1.109,0.48,1.223
c0.238,0.258,0.34,0.238,0.636,0.008c1.274-1.645,1.868-3.016,2.457-4.781c0.075-0.195,0.243-0.398,0.146-0.684
c-0.234-0.781-0.806-1.789-0.219-2.555c-1.859,0.086-3.641-1.273-3.414-2.633c0.496-2.523,1.566-2.07,3.569-2.438
c-0.229-5.832,5.231-4.414,5.215-0.352c6,0.504,3.164,6.051-0.319,5.203c1.383,3.152-2.771,4.332-3.353,3.797
c-0.233,1.02-1.815,4.297-2.151,5.273c4.444-3.148,11.594-1.75,12.633-1.953C52.848,96.805,44.406,95.492,44.125,95.266
L44.125,95.266z M124.153,75.383c1.129,0.871,10.695,6.855,12.465,6.988c0,0,0.844,0.949,1.543,1.813
c0.648,0.805,0.891,0.934,0.965,1.094c0.074,0.164-0.246,0.156-0.301,0.148c-4.305-1.871-8.684-3.84-12.406-6.949
c-0.504-0.43-0.617-0.621-0.863-0.949C125.227,77.094,124.254,75.547,124.153,75.383L124.153,75.383z M127.325,80.211
c4.375,2.461,8.094,4.844,12.086,6.129c0.566,0.211,0.859,0.227,1.141,0.426c0.285,0.199,1.5,0.953,1.785,1.121
c1.82,1.066,2.008,1.016,1.555,1.195c-0.496,0.199-3.695-0.734-6.395-1.734c-4.789-1.77-6.48-2.773-8.215-4.336
C128.891,82.609,127.075,80.434,127.325,80.211L127.325,80.211z M40.063,93.93c0.367-0.008,0.957,0.219,1.574,0.691
c0.656,0.504,2.272,1.563,2.94,1.848c0.341,0.145,0.446,0.184,0.446,0.184l4.304,4.887l-11.082,9.008c0,0-0.897-0.922-1.187-1.227
c-0.271-0.293-0.192-0.535,0.144-0.863c0.274-0.266,0.293-0.84,0.246-1.121c-0.065-0.418-0.054-0.891,0.478-1.277
c0.426-0.316,0.492-0.867,0.473-1.02c-0.02-0.121,0.23-0.523,0.602-0.793c0.777-0.57,1.012-1.258,0.745-2.07
c-0.108-0.34-0.168-0.43,0.278-0.727c0.793-0.527,0.988-1.027,1.05-1.797c0.009-0.125-0.022-0.254-0.043-0.352
c-0.155-0.816,0.567-0.609,1.161,0.418c0.324,0.563,0.418,1.48,0.578,2.527c0.191,1.234,0.324,1.57,0.39,1.398
c0.388-0.996-0.065-4.738-1.207-5.246c-1.664-0.742-3.054-2.254-2.636-2.852c0.145-0.203,0.172-0.133,1.184,0.336
c0.594,0.273,1.145,0.496,1.227,0.5c1.176,0.035,0.461-0.469,0.078-0.52c-0.457-0.063-1.832-0.898-1.992-1.191
C39.543,94.184,39.692,93.938,40.063,93.93L40.063,93.93z M37.227,94.574c1.082-0.016,1.293,0.277,1.304,1.211
c0.004,0.547,0.211,0.973,1.075,2.066c0.352,0.449,0.586,0.793,0.563,0.965c-0.039,0.289-0.141-0.008-1.336-0.148
c-0.423-0.051-0.641-0.059-0.785,0.16c-0.414,0.609-1.281-0.023-1.816-0.922C34.953,95.766,35.403,94.594,37.227,94.574
L37.227,94.574z M57.86,95.863l11.781,14.418l-1.328,1.031L56.489,97.09L57.86,95.863z M55.891,96.75l1.262,2.129
c0,0-3.652,3.117-4.609,4c-7.759,6.281-25.266,20.539-25.266,20.539l-0.234-2.867L55.891,96.75z M34.625,97.133
c0.23,0.008,0.491,0.297,0.866,0.867c0.321,0.496,1.017,1.484,1.754,2.164c1.438,1.324,1.575,1.203,0.41,1.328
c-0.464,0.051-0.612-0.004-0.897,0.703c-0.855,1.066-3.379-2.754-2.789-4.219C34.199,97.406,34.395,97.129,34.625,97.133
L34.625,97.133z M38.735,99.195c0.211-0.008,0.492,0.07,0.82,0.27c0.625,0.258,0.668,0.406,0.562,1.004
c-0.097,0.57-0.53,0.719-1.386-0.035C38.083,99.82,38.192,99.223,38.735,99.195L38.735,99.195z M57.539,99.551l1.384,1.785
L27.5,126.746l0.008-2.926C28.274,123.918,48.422,106.41,57.539,99.551L57.539,99.551z M33.172,99.84
c0.082-0.02,0.215,0.27,0.563,0.793c0.711,1.07,1.363,1.773,2.105,2.332c0.703,0.531,0.78,0.824,0.297,0.828
c-0.203,0.004-0.488,0.219-0.633,0.473c-0.302,0.512-0.324,0.391-0.785,0.121c-0.656-0.383-1.316-0.965-1.578-1.723
c-0.246-0.719-0.274-1.809-0.07-2.605C33.106,99.922,33.133,99.848,33.172,99.84L33.172,99.84z M38.133,101.867
c0.801-0.027,1.375,0.906,0.848,1.66c-0.297,0.285-0.563,0.422-1.148,0.078c-0.773-0.457-0.914-1.16-0.277-1.551
C37.75,101.93,37.949,101.875,38.133,101.867L38.133,101.867z M32.977,103.887c0.172-0.008,0.472,0.234,0.98,0.754
c0.391,0.402,1.07,0.742,1.34,0.895c0.608,0.34,0.637,0.457,0.309,0.73c-0.141,0.117-0.605,0.125-0.73,0.492
c-0.359,1.051-1.887-0.172-2.031-1.676C32.77,104.316,32.762,103.895,32.977,103.887L32.977,103.887z M36.817,104.008
c1,0.043,1.477,1.215,0.675,1.789c-0.433,0.313-1.53-0.242-1.64-0.816C35.781,104.613,36.434,103.992,36.817,104.008L36.817,104.008
z M60.246,104.879c0.582,0,1.052,0.469,1.052,1.051s-0.47,1.055-1.052,1.055s-1.05-0.473-1.05-1.055S59.664,104.879,60.246,104.879
L60.246,104.879z M57.102,105.313c0.582,0,1.051,0.473,1.051,1.055c0,0.578-0.469,1.051-1.051,1.051s-1.051-0.473-1.051-1.051
C56.051,105.785,56.52,105.313,57.102,105.313L57.102,105.313z M36.028,106.719c0.066-0.004,0.132-0.004,0.203,0
c0.965,0.047,1.015,0.965,0.441,1.461c-0.345,0.297-0.652,0.391-1.099,0.035C34.781,107.578,35.074,106.773,36.028,106.719
L36.028,106.719z M59.442,108.258c0.582,0,1.054,0.473,1.054,1.051c0,0.582-0.472,1.055-1.054,1.055
c-0.578,0-1.055-0.473-1.055-1.055C58.387,108.73,58.864,108.258,59.442,108.258L59.442,108.258z M151.801,108.32l0.051,2.66
L114.7,141.882l-1.258-1.64L151.801,108.32z M57.309,108.547l-2.746,6.168l-0.824-1.59h-2.055l0.629-1.84l-1.211-1.473
L57.309,108.547z M115.774,134.199l4.887-3.918c-2.102-10.617,6.297-14.844,14.277-11.758l4.961-4.23
C130.688,106.535,109.032,111.797,115.774,134.199L115.774,134.199z M49.637,113.445c0.578,0,1.051,0.473,1.051,1.055
c0,0.578-0.473,1.051-1.051,1.051c-0.582,0-1.055-0.473-1.055-1.051C48.583,113.918,49.055,113.445,49.637,113.445L49.637,113.445z
M46.442,113.703c0.582,0,1.02,0.438,1.02,1.02s-0.438,1.09-1.02,1.09s-1.051-0.477-1.051-1.059
C45.391,114.176,45.86,113.703,46.442,113.703L46.442,113.703z M63.438,115.84l-4.844,3.879c1.25,10.168-3.695,15.344-14.328,11.859
l-5.141,4.078C53.016,145.214,71.199,132.895,63.438,115.84L63.438,115.84z M48.524,116.758c0.582,0,1.05,0.469,1.05,1.051
s-0.468,1.055-1.05,1.055s-1.055-0.473-1.055-1.055S47.942,116.758,48.524,116.758L48.524,116.758z M150.481,117.023
c0.582,0,1.055,0.473,1.055,1.055c0,0.578-0.473,1.051-1.055,1.051s-1.051-0.473-1.051-1.051
C149.43,117.496,149.899,117.023,150.481,117.023L150.481,117.023z M46.348,117.277l-3.103,6.129l-0.769-1.848l-2.082,0.031
l0.672-2.141l-1.301-1.102L46.348,117.277z M146.317,117.922l0.965,1.621l2.035,0.051l-0.766,1.543l1.469,1.512l-6.629,1.629
L146.317,117.922z M38.953,122.371c0.582,0,1.056,0.473,1.056,1.055c0,0.578-0.474,1.051-1.056,1.051s-1.054-0.473-1.054-1.051
C37.899,122.844,38.371,122.371,38.953,122.371L38.953,122.371z M35.926,122.488c0.582,0,1.055,0.473,1.055,1.055
c0,0.578-0.473,1.051-1.055,1.051s-1.056-0.473-1.056-1.051C34.871,122.961,35.344,122.488,35.926,122.488L35.926,122.488z
M141.196,123.113c0.578,0,1.051,0.473,1.051,1.055s-0.473,1.051-1.051,1.051c-0.582,0-1.055-0.469-1.055-1.051
S140.614,123.113,141.196,123.113L141.196,123.113z M151.836,123.277l0.047,2.336c-9.695,8.558-30.078,25.07-30.078,25.07
l-1.27-1.629C120.536,149.055,141.274,132.109,151.836,123.277L151.836,123.277z M38.031,125.559c0.583,0,1.056,0.469,1.056,1.051
s-0.473,1.055-1.056,1.055c-0.578,0-1.05-0.473-1.05-1.055S37.453,125.559,38.031,125.559L38.031,125.559z M143.348,125.809
c0.582,0,1.051,0.473,1.051,1.055c0,0.578-0.469,1.055-1.051,1.055s-1.051-0.477-1.055-1.055
C142.293,126.281,142.766,125.809,143.348,125.809L143.348,125.809z M140.368,126c0.582,0,1.055,0.468,1.055,1.051
c0,0.581-0.473,1.055-1.055,1.055c-0.578,0-1.055-0.474-1.055-1.055C139.313,126.468,139.79,126,140.368,126L140.368,126z
M152.129,126.371l-0.09,2.973c-9.391,8.008-28.605,23.913-28.539,23.926l-1.453-2.004
C122.047,151.266,143.11,133.125,152.129,126.371L152.129,126.371z M36.102,125.934l-2.899,6.539l-1.25-1.763l-1.827-0.125
l0.434-1.765l-1.68-1.146L36.102,125.934z M136.586,128.516l1.852-0.352l-0.324,1.895l1.301,1.366l-6.816,1.496l3.297-6.108
L136.586,128.516z M146.77,160.367c1.383,2.066,1.297,4.324,0.715,4.672c-0.609-0.344-1.137-0.941-1.77-1.211
c-3.176-1.371-5.711-2.496-6.164-4.512C137.821,154.762,145.618,158.648,146.77,160.367L146.77,160.367z M130.083,148.262
l10.684-8.699c0,0,1.637,0.844,1.945,1.23c0.113,0.421-0.184,0.551-0.617,0.941c-0.203,0.258-0.328,0.504-0.34,1.059
c-0.012,0.598,0.188,0.863-0.055,1.128c-0.402-0.022-0.727,0.505-0.707,0.931c0.012,0.324-0.414,0.684-0.66,0.93
c-0.441,0.433-0.574,0.523-0.855,1.996c-0.027,0.147-0.02,0.531-0.227,0.729c-0.617,0.056-1.066,1.567-1.348,1.661
c-0.449-0.027-1.168-0.579-1.344-1.391c-0.113-0.531-0.082-1.559,0.043-2.219c0.148-0.789,0.219-1.504,0.168-1.691
c-0.117-0.441-0.406-0.172-0.402,0.445c0.004,0.25-0.094,1-0.254,1.707s-0.59,1.648-0.395,2.207
c0.289,0.832,1.355,1.184,1.836,1.625c1.266,1.16,1.539,1.727,1.684,1.983c1.012,1.849,1.016,2.165,0.762,3.556
c-0.145,0.801-0.926,0.664-1.395,0.34c0,0-3.008-2.188-4.313-3.273C132.313,151.813,130.922,150.132,130.083,148.262
L130.083,148.262z M134.137,154.238c1.145,0.465,4.129,2.629,4.129,2.629l-2.719,5.652c0.496,0.887,0.695,3.086,0.695,3.086
c3.438-0.267,5.297,5.526-0.055,4.992c0.609,3.582-5.156,6.387-5-0.027c-6.008,0.465-3.992-6.34-0.289-5.063
c-0.109-2.886,1.813-3.257,3.168-3.968c1.113-1.258,1.793-4.105,1.793-4.105l-0.27-0.867c-1.141,1.992-5.992,2.562-11.32,1.508
C125.711,154.652,130.09,154.75,134.137,154.238L134.137,154.238z M123.536,158.543c-0.184,0.68-0.188,0.671,0.633,0.589
c0.418-0.043,2.09-0.038,3.254,0.009c2.145,0.168,5.523,0.184,7.215-1.109c0.328-0.313,0.508-0.289,0.57-0.121
c0.145,0.836-1.5,3.574-1.5,3.574l-2.715,1.504c0,0-1.109,0.051-2.488,0.015l-0.023,2.446c-1.078,0.636-2.93,3.367,0.047,5.465
l-0.102,2.66l2.625,0.047c1.738,1.664,3.156,1.656,4.754,0.089h3.023l-0.012-2.871c1.488-1.198,1.703-3.229,0.18-4.854l-0.039-2.914
l-2.328,0.015c0,0-0.48-0.375-0.492-0.667c-0.004-0.191,1.699-3.469,2.023-3.938c0.422-0.609,0.309-0.262,0.984,1.145
c0.969,2.007,1.926,2.828,4.379,4.012c2.188,1.059,2.973,1.555,3.605,2.159c0.508,0.485,0.805,0.332,1-0.39
c0.422-1.602,0.293-3.203-0.59-4.672c-1.863-3.094-5.105-3.234-5.621-3.953c-0.066-0.168,0.594-0.367,1.301-0.684
c1.23-0.746,3.027-3.004,3.258-3.91c-0.043-0.435,0.246-1.81,0.457-2.113c0.246-0.543,0.273-0.793,0.262-2.246
c-0.219-0.828-0.02-1.907,0.082-2.277c0.113-0.755-0.285-1.641-0.855-2.73c-0.211-1.012-0.164-0.746,0.492-3.027
c0.105-0.367,0.84-3.543-0.102-3.758c0.012,0.027,0.102,0.125,0.125,0.175c0.16,0.321,0.246,1.692,0.102,2.079
c-0.055,0.152-0.16,0.55-0.238,0.887c-0.57,2.551-0.906,3.191-1.422,2.633c-0.121-0.133-0.594-0.324-0.957-0.563
c-0.684-0.457-0.625-0.68-0.457-1.532c0.039-0.129,0.313-1.296,0.285-1.261c-0.148,0.402-0.25,1.438-0.719,1.684
c-0.25,0.059-0.594-0.164-1.246-0.727c-0.25-0.215-0.785-0.59-0.785-0.59s7.723-6.5,10.594-8.652l-0.027,96.246l-54.574,0.023
c-0.684-5.961,1.109-13.849,4.078-21.75c1.836-4.883,4.473-8.504,7.445-12.875c5.695-8.332,10.004-16.797,8.344-27.523
c-0.215-1.59-0.438-2.355-0.359-2.782c0.691-1.3,3.438-5.237,5.445-6.879c2.945-2.409,7.047-6.003,7.375-5.793
c0.98,1.892,2.137,3.418,3.672,4.571c0.27,0.293,0.277,0.551-0.344,0.679C129.079,154.051,124.891,154.945,123.536,158.543
L123.536,158.543z M28.766,131.199c0.582,0,1.051,0.469,1.051,1.051s-0.469,1.05-1.051,1.05s-1.051-0.468-1.051-1.05
S28.184,131.199,28.766,131.199L28.766,131.199z M130.79,131.438c0.582,0,1.055,0.469,1.055,1.051s-0.473,1.051-1.055,1.051
s-1.051-0.469-1.051-1.051S130.208,131.438,130.79,131.438L130.79,131.438z M133.083,134.324c0.582,0,1.051,0.469,1.051,1.051
s-0.469,1.051-1.051,1.051s-1.051-0.469-1.051-1.051S132.5,134.324,133.083,134.324L133.083,134.324z M129.676,134.77
c0.582,0,1.055,0.473,1.055,1.051c0,0.582-0.473,1.055-1.055,1.055c-0.578,0-1.051-0.473-1.051-1.055
C128.625,135.242,129.098,134.77,129.676,134.77L129.676,134.77z M125.918,137.168l1.902-0.094c-0.238,0.683-0.367,1.386-0.5,2.097
l1.547,1.138l-6.703,1.141l2.891-5.942L125.918,137.168z M121.344,154.488l-11.285-14.574l1.359-1.102l11.379,14.418
L121.344,154.488z M119.969,140.328c0.578,0,1.051,0.472,1.051,1.054c0,0.578-0.473,1.052-1.051,1.052
c-0.582,0-1.055-0.474-1.055-1.052C118.915,140.8,119.387,140.328,119.969,140.328L119.969,140.328z M143.676,141.96
c0.914,0.711,0,1.711-0.875,1.317c-0.758-0.32-0.703-1.09-0.105-1.399C143.071,141.703,143.356,141.746,143.676,141.96
L143.676,141.96z M144.895,142.641c0.938,0.016,1.973,2.237,1.785,2.895c-0.281,0.758-0.539,0.785-1.863-0.332
c-1.309-1.109-1.328-1.157-0.797-1.754C144.313,143.109,144.454,142.66,144.895,142.641L144.895,142.641z M122.567,143.046
c0.582,0,1.051,0.47,1.051,1.052s-0.469,1.055-1.051,1.055s-1.051-0.473-1.051-1.055S121.985,143.046,122.567,143.046
L122.567,143.046z M119.305,143.449c0.582,0,1.051,0.472,1.051,1.054s-0.469,1.052-1.051,1.052s-1.051-0.47-1.051-1.052
S118.723,143.449,119.305,143.449L119.305,143.449z M142.411,144.203c1.039,0.152,1.313,0.938,0.832,1.52
c-0.648,0.789-2.102,0.07-1.758-0.867C141.641,144.43,142.02,144.21,142.411,144.203L142.411,144.203z M144.274,145.387
c0.406-0.035,1.02,0.527,1.691,1.457c0.75,1.047,0.813,1.387,0.598,2.027c-0.309,0.929-0.504,1.102-1.18,0.191
c-0.254-0.34-0.848-1.145-1.27-1.586c-0.902-0.945-1.043-0.703-0.504-1.427C143.86,145.719,144.032,145.406,144.274,145.387
L144.274,145.387z M141.833,146.488c0.934,0.48,1.023,1.105,0.473,1.551c-0.648,0.355-1.793-0.066-2.016-0.707
C139.965,146.391,140.961,145.914,141.833,146.488L141.833,146.488z M143.415,147.875c0.527-0.036,0.961,0.507,1.605,1.55
c1.102,1.774,1.16,2.371,0.223,3.544c-0.672,0.84-0.742,0.883-1.402-0.457c-0.535-1.094-1.563-2.38-2.512-3.148
c-0.395-0.32-0.535-0.77-0.25-0.801c0.086-0.008,0.438-0.027,0.781-0.039c0.508-0.021,0.691-0.086,0.969-0.359
C143.012,147.984,143.208,147.887,143.415,147.875L143.415,147.875z M139.629,149.257c0.488-0.022,1.121,0.243,1.594,0.789
c0.535,0.563,0.473,1.079-0.578,1.185c-0.473,0.184-1.762-0.66-1.766-1.228C138.872,149.527,139.196,149.277,139.629,149.257
L139.629,149.257z M142.102,151.316c0.027-0.004,0.051-0.004,0.078,0c0.441,0.019,0.668,0.445,1.164,1.44
c0.762,1.528,0.539,2.36-0.773,3.036c-0.895,0.457-1.574,0.594-1.691,0.07c-0.031-0.153-0.031-0.594-0.105-1.02
c-0.098-0.57-0.23-1.164-0.734-1.923c-0.805-1.211-0.945-1.64-0.063-1.284c0.465,0.188,0.977,0.168,1.508-0.113
C141.723,151.398,141.922,151.324,142.102,151.316L142.102,151.316z M137.641,153.77c-0.305-0.004-0.504,0.184-0.418,0.684
c0.277,0.136,0.715,0.007,1.047,0.129c0.445,0.16,0.723,0.887,1.199,0.766C139.52,154.738,138.313,153.785,137.641,153.77
L137.641,153.77z M46.567,164.421c-2.461-1.171-8.551-3.882-11.489-3.925c-5.44-1.527-5.808-0.832-7.714-1.321
c10.102-2.62,17.055,2.419,19.598,4.864C48.117,165.191,47.489,164.859,46.567,164.421L46.567,164.421z M52.996,188.23
c5.782,10.026,11.168,21.336,20.207,38.082l-0.866,0.272l-34.47,0.063c1.707-18.504-8.289-36.129-8.964-35.438
c7.805,0.146,14.285-1.362,15.656-4.237l-1.113-0.32c-4.543,3.922-11.125,4.101-15.668,2.891c0.102-9.641-0.438-19.82-0.141-29.458
c5.371-0.397,9.565,1.571,12.543,5.493C45.18,172.171,48.574,180.559,52.996,188.23L52.996,188.23z M37.192,161.523
c1.382-0.105,8.925,3,12.3,5.315c0.938,0.97,2.306,2.657,2.31,2.821c0.004,0.445-0.66-0.105-3.922-1.965
c-2.466-1.387-5.023-2.496-7.516-3.559c-0.118-0.048-0.344-0.145-0.344-0.145s-0.184-0.215-0.5-0.461
C38.633,162.848,36.906,161.628,37.192,161.523L37.192,161.523z M40.86,165.039c-0.079-0.016,7.48,2.723,13.492,7.512
c0.801,0.637,1.781,3.012,1.781,3.012c-0.535-1.013-10.031-6.691-13.367-7.992C42.762,167.563,40.86,165.039,40.86,165.039
L40.86,165.039z M43.524,168.671c0.41-0.245,11.465,6.278,13.082,7.961c0.734,0.563,2.453,3.289,2.461,3.837
c0.004,0.488-0.532,0.066-1.523-0.848c-5.086-4.75-12.441-8.332-12.5-8.254L43.524,168.671z M45.574,172.464
c5.188,2.196,11.707,7.474,14.997,10.618c0.824,0.813,1.41,1.992,1.523,2.543c0.069,0.339-0.103,0.316-0.172,0.5
c-4.263-4.895-13.634-10.48-14.875-10.918C47.055,175.516,46.016,173.309,45.574,172.464L45.574,172.464z M62.805,187.71
c0.598,0.61,1.543,2.747,1.332,3.009c-0.106,0.125-0.094,0.059-0.344-0.113c-1.363-1.359-8.375-7.578-14.223-11.066
c-0.547-0.273-2.391-3.176-2-3.234C50.629,177.305,59.371,184.285,62.805,187.71L62.805,187.71z M50.16,180.773
c0.099,0.008,0.282,0.137,0.599,0.309c5.375,2.969,13.172,10.438,14.647,12.23c0.336,0.555,0.868,1.569,0.829,2.19
c-0.071,0.489-0.266,0.075-2.438-2.065c-3.496-3.422-7.517-6.73-11.773-9.513c-0.821-0.562-0.66-0.636-1.258-1.668
C50.172,181.219,49.938,180.757,50.16,180.773L50.16,180.773z M84.551,180.887c3.84,0.109,5.34,3.016,7.707,8.375
c1.934,5.277,2.738,10.113,2.824,13.965c0.008,0.258-0.461,0.039-0.676-0.02c-1.027-0.273-2.309-0.532-3.793-0.157
c-1.09,0.274-2.125,0.243-1.004-0.487c0.359-0.238,1.336-1.142,1.855-1.465c1.055-0.656,0.414-0.648-0.629-0.134
c-0.793,0.392-1.32,0.884-1.648,0.961c-0.199,0.048-0.074-0.612,0.117-1.09c1.117-2.746,1.457-4.371-0.207-4.882
c-0.449-0.137-1.06-0.555-1.344-0.832c-0.227-0.223-0.422-1.109-0.496-1.145c-0.074-0.039-0.129,0.809-0.129,0.938
c0.004,0.441,0.569,1.336,1.254,1.824c1.155,0.828,1.387,1.058,0.758,3.023c-0.883,2.75-1.07,3.426-1.231,4.063
c-0.093,0.367-0.272,0.992-0.362,1.398c-0.352,1.559-0.309,2.922-0.242,4.219c0.379,2.894,3.5,4.324,7.691,2.715
c0.398-0.153,0.563-0.016,0.563-0.016c-3.34,3.398-7.086,5.566-9.271,12.426c-2.808-5.66-6.784-10.094-13.397-11.871l-0.098-1.18
c2.309,1.105,6.777,2.609,9.616,0.918c1.521-1.039,1.06-1.707-0.784-0.992c-2.199,0.852-6.164,0.754-8.145-0.363
c-0.403-0.227-0.817-0.032-0.93,0.007c-0.105-0.664-1.06-3.171-0.918-4.112c-0.082-0.134,0.602-0.141,0.733,0.034
c0.547,0.735,3.332,2.911,6.224,2.743c1.438-0.086,2.617-0.523,3.867-1.84c0.105-0.094,0.613-0.16,0.68-0.239
c0.113-0.125,0.031-0.308,0.026-0.375c-0.03-0.101-0.218-0.375-0.34-0.687c-0.16-0.271-0.194-0.551-0.168-0.771
c0.004-0.179,0.125-0.276,0.22-0.401c0.109-0.242,0.077-0.551,0.02-0.715c-0.258-0.177-0.227-0.496-0.09-0.648
c0.391-0.442-3.367-3.871-4.103-3.864c-0.265,0.004-0.108,0.493,0.431,0.853c1.91,1.27,3.305,2.926,2.987,3.141
c-0.241,0.168-1.097-0.2-1.968-0.403c-1.75-0.409-3.848-0.672-6.122,0.97c-0.851,0.699-3.101,0.805-3.101,0.805
c-0.031-1.223-5.211-14.914-5.219-14.317c1.883-2.198,7.805-7.401,13.737-9.644C81.274,181.016,83.235,180.71,84.551,180.887
L84.551,180.887z M62.055,183.949l10.769,0.168c-2.707,1.363-7.628,6.254-7.628,6.254C63.789,187.535,63.36,186.125,62.055,183.949
L62.055,183.949z M52.742,185.371c0.806,0.004,9.353,6.968,10.571,8.617c0.144,0.195,1.011,1.109,1.926,2.027
c2.21,2.215,3.121,3.496,3.132,4.409c0.005,0.435-0.39,0.153-0.979-0.5c-4.43-4.918-7.31-7.59-12.781-11.362
c-0.621-0.332-2.551-2.898-1.898-3.185C52.723,185.375,52.731,185.371,52.742,185.371L52.742,185.371z M81.989,186.652
c-0.243-0.008-0.204,0.223-0.07,0.437c1.355,1.2,4.938,1.146,6.172,0.177c1.121-0.879-0.349-0.414-0.806-0.22
c-1.069,0.457-2.218,0.407-3.707,0.013C82.708,186.828,82.227,186.66,81.989,186.652L81.989,186.652z M85.293,188.605
c-1.255,0.012-2.563,0.387-2.273,0.848c0.109,0.168,0.449,0.484,1.269,0.039c1.181-0.586,3.61,0.179,3.681,0.199
c0.25,0.065-0.806-0.695-1.16-0.853C86.418,188.668,85.86,188.602,85.293,188.605L85.293,188.605z M55.11,189.906
c4.593,2.813,10.191,8.438,13.55,12.453c0.56,0.69,0.961,1.543,0.97,2.043c0.008,0.723-0.148,0.324-3.199-2.771
c-2.396-2.444-6.004-5.78-8.399-7.573c-1.433-1.047-1.69-1.184-2.367-2.427C55.031,190.469,54.801,189.891,55.11,189.906
L55.11,189.906z M83.731,190.848c-0.864,0.409-2.008,0.32-3.125-0.063c-1.008-0.348-0.773-0.051-0.387,1.05
c0.172,0.504,0.281,1.216,0.281,1.317c0.004,0.246,0.004,0.266,0.715-0.133c0.621-0.349,0.754-0.47,2.078-0.16
c1.348,0.312,1.37,0.195,2.004-0.133c0.551-0.289,0.664-0.461,1.043-0.309c0.737,0.296,1.573,0.426,2.52-0.074
c0.727-0.38,0.961-0.121,1.296,0.047c0.458,0.23,0.634,0.082,0.458-0.371c-0.075-0.181-0.208-0.957-0.211-1.203
c-0.008-0.465-0.122-0.887-0.316-0.789c-0.723,0.367-1.313,0.754-2.004,0.738C86.817,190.746,85.703,189.984,83.731,190.848
L83.731,190.848z M27.742,191.805c11.454,14.266,9.427,34.832,9.047,34.664l-8.976,0.043L27.742,191.805z M57.539,194.688
c4.575,3.207,10.017,8.797,13.035,12.664c0.513,0.668,0.095,0.879,0.353,1.684c0.094,0.3-0.414-0.141-1.867-1.703
c-1.809-1.945-4.785-4.868-6.746-6.563c-2.149-1.859-2.766-2.328-3.223-2.957C58.727,197.289,57.258,194.762,57.539,194.688
L57.539,194.688z M83.281,196c-0.046,0-0.097,0-0.144,0.003c-1.629,0.079-2.453,1.903-1.06,3.192
c0.524,0.484,1.36,0.769,1.356,0.508c-0.004-0.063-0.266-0.325-0.449-0.465c-1.161-0.895-1.043-2.285,0.281-2.301
c0.461-0.004,0.488,0.16,1.547,0.922c1.25,0.894,2.722,0.894,2.703-0.004c-0.012-0.664-0.258-1.34-1.375-1.23
c-0.293,0.027-0.68,0.059-1.024-0.027c-0.328-0.082-0.608-0.281-0.737-0.341C83.992,196.085,83.621,196.003,83.281,196L83.281,196z
M60.512,200.199c3.5,2.351,8.309,7.664,10.766,10.797c0.566,0.734,0.602,1.547,0.375,1.984c-0.055,0.086-0.484-0.185-0.484-0.185
c-2.845-3.347-6.066-6.39-9.23-9.479C61.938,203.316,60.059,200.296,60.512,200.199L60.512,200.199z M94.438,205.281l-0.758,0.375
c-1.145-1.715-2.191-1.738-3.07,0.265l-0.563-0.14C89.629,205.32,91.555,200.957,94.438,205.281L94.438,205.281z M94.266,203.816
c0.316,0.012,0.867,0.184,0.996,0.504c0.145,0.297-0.02,0.633-0.449,0.617c-0.066-0.004-0.484-0.517-0.691-0.828
C93.965,203.918,94.032,203.813,94.266,203.816L94.266,203.816z M81.414,205.918l-0.847,0.039c-1.609-2.118-2.813-0.695-3.536,0.188
l-0.905-0.121C76.27,203.695,80.379,202.887,81.414,205.918L81.414,205.918z M89.645,204.109c0.129,0.004,0.254,0.027,0.371,0.074
c-0.332,0.504-0.391,0.926-0.465,1.383c-0.328,0.137-0.797,0.422-1.146,0.059C87.758,205.035,88.754,204.094,89.645,204.109
L89.645,204.109z M76.43,204.348c0.397,0,0.277-0.023,0.104,0.198c-0.175,0.228-0.414,0.629-0.543,0.989
c-0.054,0.25-0.093,0.34-0.328,0.347c-0.448,0.017-1.354-0.144-1.347-0.14C73.973,205.418,75.395,204.382,76.43,204.348
L76.43,204.348z M81.547,204.645c0.266-0.035,0.203,0.348,0.121,0.496c-0.173,0.198-0.238,0.266-0.332,0.016
c-0.048-0.117-0.113-0.211-0.173-0.285c-0.133-0.168-0.116-0.176,0.048-0.203C81.281,204.652,81.453,204.645,81.547,204.645
L81.547,204.645z M95.375,206.335c0.984-0.026,0.328,1.646-1.043,2.052c-1.516,0.766-3.25,0.582-5.02-0.427
c-1.008-0.573-1.313-1.179-0.434-0.937c3.309,0.91,4.113,0.742,6.109-0.551C95.106,206.371,95.231,206.348,95.375,206.335
L95.375,206.335z M63.539,205.973c3.293,2.789,5.774,5.948,8.407,8.862c0.527,0.649,0.773,1.278,0.671,1.7
c-0.125,0.527-1.207-0.73-1.207-0.73c0.028,0.012-6.429-6.88-6.429-6.88S63.34,205.988,63.539,205.973L63.539,205.973z
M73.383,206.938c0.23,0.008,0.684,0.112,1.414,0.301c3.172,0.961,4.129,0.926,5.948,0.09c1.16-0.535,1.642-0.457,1.146,0.343
c-0.914,1.478-4.146,1.638-6.567,0.817c-0.64-0.219-1.207-0.602-1.823-1.063C73.168,207.078,73.09,206.926,73.383,206.938
L73.383,206.938z M87.996,207.914c0.192-0.016,0.543,0.203,0.974,0.449c2.656,1.504,4.617,1.226,6.25,0.219
c0.297-0.27,0.457-0.141,0.496,0.121c0.141,0.918,0.18,1.574-0.238,2.016c-0.242,0.258-0.656,0.375-1.281,0.581
c-2.57,0.868-5.7,0.25-6.297-1.679C87.703,208.628,87.578,207.941,87.996,207.914L87.996,207.914z M66.934,212.046
c0.008,0,0.019,0,0.031,0c0.184,0.028,0.612,0.403,1.289,1.173c3.53,4.008,5.487,6.309,5.129,7.469c-0.031,0-0.056,0.25-0.203,0.121
c-1.941-1.681-3.527-3.513-4.711-5.431C67.176,213.277,66.641,212.074,66.934,212.046L66.934,212.046z M95.418,214.867
c-2.98,2.281-6.598,7.707-6.923,10.379c-0.062,0.511-0.007,0.895-0.198,1.078c-0.148,0.148-0.488,0.16-0.938,0.074
c-0.278-0.051-0.211-0.082-0.278-0.396c-0.254-1.222,0.919-4.3,3.345-7.933c1.27-1.902,4.16-4.473,4.969-4.492
C95.934,213.8,95.411,214.891,95.418,214.867L95.418,214.867z M73.34,213.628c0.211-0.003,0.535,0.106,0.991,0.302
c2.677,1.148,3.673,1.566,5.407,2.977c3.227,2.633,6.816,8.883,5.762,9.469c-0.462,0.257-0.789,0.094-0.977-0.484
c-0.035-0.109-0.375-0.984-0.778-1.727c-2.163-3.977-4.979-6.711-8.944-8.645c-1.465-0.715-1.613-0.638-1.728-1.234
C72.992,213.835,73.071,213.637,73.34,213.628L73.34,213.628z M95.375,215.926c0.266-0.023,0.332,0.469,0.238,1.452
c-0.07,0.802-0.121,0.786-1.016,1.728c-1.43,1.156-3.121,3.879-3.906,6.647c0.004,0.099-0.07,0.31-0.207,0.422
c-0.368,0.317-0.832,0.164-1.148,0.157c-0.23-0.122-0.168-0.622-0.125-0.902c0.652-2.516,2.266-5.605,4.789-8.32
C94.711,216.348,95.137,215.945,95.375,215.926L95.375,215.926z M73.895,216c1.418-0.036,6.453,3.727,8.492,7.023
c1.332,2.151,1.69,3.035,1.387,3.348c-0.164,0.164-0.879,0.191-1.254,0.043c-0.34-0.133-0.473-0.648-1.11-1.848
c-1.664-3.125-4.058-5.392-6.655-6.59c-0.484-0.224-0.742-0.363-0.898-0.535C73.684,217.082,73.461,216.074,73.895,216L73.895,216z
M74.66,218.796c0.442,0.082,1.657,0.872,2.677,1.618c1.801,1.32,4.539,5.359,3.973,5.938c-0.184,0.188-0.809,0.191-1.133,0.066
c-1.931-3.43-4.431-5.063-5.445-6.016C74.422,219.882,73.703,218.66,74.66,218.796L74.66,218.796z M70.656,219.398
c0.083-0.021,0.422,0.312,1.032,0.957c1.808,1.897,2.957,4.004,2.691,5.065c-0.224,0.899-0.488,0.407-2.559-3.543
C70.949,220.219,70.535,219.43,70.656,219.398L70.656,219.398z M95.399,219.453c0.043,1.093-0.047,1.363-0.16,1.941
c-0.078,0.395-0.34,0.578-0.586,0.887c-0.617,0.765-1.316,2.09-1.668,3.16c-0.293,0.863-0.156,1.065-1.215,0.953
c-0.496-0.066-0.379-0.199-0.184-0.77C92.254,223.753,93.86,220.723,95.399,219.453L95.399,219.453z M74.844,221.512
c0.022-0.559,4.852,4.301,4.187,4.848c-0.625,0.109-1,0.133-1.265-0.09c-0.516-1.156-2.813-3.352-2.813-3.352L74.844,221.512z
M95.133,223.043c0.012,0,0.02,0,0.027,0c0.219,0.046,0.098,3.035-0.082,3.281c-0.344,0.176-0.996,0.191-1.344,0
c-0.211-0.114-0.277-0.328-0.195-0.559C93.739,225.188,94.786,223.117,95.133,223.043L95.133,223.043z M76.903,226.332
c-0.152,0.238-1.094,0.281-1.45,0.012c-0.112-0.087-0.222-1.57-0.089-1.837C75.723,224.273,77.02,226.012,76.903,226.332
L76.903,226.332z M76.903,226.332"/>
<path d="M14.215,11.137c-3.754,0.07-5.617,3.215-5.638,6.359l0.005,8.258H6.34v2.738h2.242c0,0,0.038,1.254,0.031,2.004
c-0.031,3.707,1.281,5.957,3.835,6.578c2.457,0.445,3.735-0.082,5.603-1.047c0.68,0.281,1.151,0.863,1.879,0.938
c0.805,0.078,2.476,0.043,2.476,0.043l-0.046-2.813l-0.836-0.121c-1.598-0.027-2.293-0.586-2.121-1.586
c0.339-0.652,0.391-1.125,0.421-1.914V16.613C19.778,13.191,16.981,11.164,14.215,11.137L14.215,11.137z M14.098,13.855
c1.793-0.027,3.281,2.059,3.242,4.195l0.026,10.789c0.06,0.676-0.05,1.34-0.347,1.805c-0.239-0.688-3.946-4.477-5.797-4.301
c0,0-0.078,0.191-0.129-4.551c-0.023-2.328-0.637-5.801,1.457-7.371C13.071,14.039,13.594,13.863,14.098,13.855L14.098,13.855z
M111.258,23.203l0.605,0.793l-3.535,0.02c0.578,0.488,13.688,26.867,30.449,57.348c2.773,5.348,8.066,7.277,14.211,7.512
L136.711,62.66c1.734-0.945,5.176-3.473,7.258-3.004c0.129,0.637,0.75,0.383,0.758-0.184l0.754,0.016l0.262,0.41h3.164l0.258-0.371
l2.73,0.391c-7.289-8.98-11.133-22.824-9.887-36.336l-24.168,0.051l-0.32-0.422L111.258,23.203z M108.329,24.016
c-0.016-0.012-0.023-0.016-0.023,0H108.329z M80.539,41.602c-2.745,8.871-9.543,16.172-13.573,23.523
c-4.328,8.023-5.345,15.004-4.125,22.637l0.789,0.066c9.223-12.574,16.362-27.605,20.359-42.383c0.085-0.32-0.063-0.891,0.012-1.215
c-0.173-0.391-0.023-0.813,0.086-0.926c0.234-0.246,0.148-1.203-0.027-2.789c-0.434-4.711-0.348-8.406,0.047-12.676
c0.3-3.277,0.285-3.793,0.285-3.793l-1.578-0.023C83.102,29.602,82.367,36.477,80.539,41.602L80.539,41.602z M118.5,24.402
l2.594,0.055c0.398,7.926,7.074,8.957,8.105,8.84c-1.703,5.359,1.117,11.242,7.914,12.078c-1.559,4.969,1.199,11.52,6.637,11.344
l0.574,0.363c-0.352,0.715-0.426,2.188-0.406,2.207c-1.207,0.09-1.863,0.266-2.648,0.422C134.247,49.117,118.5,24.402,118.5,24.402
L118.5,24.402z M141.551,24.402c-0.785,8.855,0.992,21.016,5.148,28.203c0,0-0.129,0.48-0.219,0.613
c-0.395,0.598-0.59,0.078-0.832-0.402c-0.887-1.637-2.559-1.891-3.293-0.98c-1.617,2.207,0.137,3.078,1.5,4.324
c-5.566-0.344-7.422-6.469-6.137-9.5c-0.027,0.578,0.281,1.449,0.688,2.07c1.566,2.371,3.852,0.371,3.195-1.508
c-0.27-0.777-1.266-2.07-1.266-2.07s1.355-0.203,1.906-0.535c0.52-0.324,0.848-0.891,0.711-1.668
c-0.105-0.625-0.133-0.898-0.469-1.461c-0.41-0.516-1.145-0.867-1.734-0.828c-1.148,0.074-1.289,0.867-2.043,1.406
c-0.184-1.422-1.098-2.508-2.586-2.238c-1.133,0.207-1.949,1.41-1.258,2.918c0.352,0.773,0.844,1.004,1.34,1.672
c-8-0.895-7.129-10.395-6.242-10.223c0,0,0.242-0.047,0.168,0.316c-0.453,2.324,2.434,3.715,3.699,2.027
c0.805-1.371-0.926-3.535-0.926-3.535s1.152-0.246,1.676-0.551c2.09-1.203-0.137-4.664-2.078-3.816
c-0.684,0.313-0.859,0.945-1.523,1.281c-0.445-0.496-0.473-1.035-1.27-1.48c-2.195-1.223-3.566,1.668-2.352,2.938
c0.496,0.516,1.375,0.984,1.203,1.047c-6.801-0.855-6.734-7.977-6.578-7.926L141.551,24.402z M83.09,24.461h0.938
c-0.277,4.223-0.879,9.793-0.484,13.91c0.457,3.934,0.477,4.492,0.195,4.883c-0.387,0.434-0.184,0.637-0.105,0.992
c0.102,0.645,0.108,0.652,0.02,1.02c-0.825,3.305-1.879,6.723-3.219,10.184c-4.375,12.07-11.516,25.227-17.117,32.125
c-0.004-0.023-0.254,0.023-0.258,0c-1.531-9.629,1.742-17.656,3.449-20.949c3.469-6.68,8.91-12.379,12.145-19.375
C81.403,41.293,83.434,34.141,83.09,24.461L83.09,24.461z M117.547,24.422l22.809,35.469l-4.164,2.043l-23.344-37.383
L117.547,24.422z M48.848,28.133c-8.086,0.121-12.031,10.297-5.258,15.184c1.219,0.875,1.59,1.387,1.262,1.727
c-0.281,0.285-0.656,0.152-1.262-0.449c-5.273-5.176-13.414-2.348-14.172,4.828C28.16,61.313,42.958,64.434,46.75,53.113
c1.086-3.246,1.551,0.27,0.495,3.723c-0.879,3.184-2.405,6.449-4.194,9.168c-0.297,0.445-0.734,1.016-0.734,1.016h12.996
c0,0-0.414-0.555-1-1.238c-2.364-3.52-3.645-7.469-4.059-11.59c-0.099-1.172-0.056-2.063,0.172-2.211
c0.395-0.254,0.621,0.063,1.043,1.461c0.863,2.875,2.496,5.223,4.319,6.113c4.407,1.828,8.009,1.273,11.021-2.738
c6.515-8.684-4.141-19.41-11.754-12.402c-0.699,0.641-1.137,0.707-1.203,0.184c-0.031-0.254,0.164-0.496,1.117-1.395
c6.543-5.195,3.266-14.105-4.898-15.008C49.656,28.148,49.246,28.129,48.848,28.133L48.848,28.133z M15.969,33.559
c0.164,0.332-0.441,0.66-1.094,0.844c-1.837,0.512-3.637-0.633-3.691-3.266c-0.021-0.801-0.07-1.66,0.211-1.785
C12.239,28.973,15.473,32.555,15.969,33.559L15.969,33.559z M130.915,31.348c0.59,0,1.066,0.48,1.066,1.074
c0,0.59-0.477,1.07-1.066,1.07s-1.07-0.48-1.07-1.07C129.844,31.828,130.325,31.348,130.915,31.348L130.915,31.348z M13.852,40.711
c-3.699,0.012-5.637,5.043-2.117,8.027c0.617,0.523,0.855,0.996,0.816,1.109c-0.099,0.262-0.191,0.043-0.945-0.484
c-3.309-2.332-7.285-0.246-6.934,3.102c0.496,4.777,5.875,5.91,7.785,1.492c0.34-0.781,0.5-1.023,0.684-1.027
c0.164,0,0.187,0.32,0.109,0.828c-0.352,2.082-1.359,4.27-2.496,6.027h6.008c-1.231-1.859-1.742-3.695-2.07-5.992
c-0.023-0.605,0.059-1.004,0.293-1.008c0.16,0,0.25,0.215,0.507,1.238c0.957,3.781,6.806,3.586,7.778-0.242
c1.09-4.285-2.957-7.336-6.281-4.625c-0.469,0.383-1,0.66-1.094,0.395c-0.028-0.078,0.273-0.637,0.801-1.102
C20.09,45.137,17.821,40.703,13.852,40.711L13.852,40.711z M138.477,43.18c0.598,0,1.082,0.484,1.082,1.082
s-0.484,1.082-1.082,1.082s-1.082-0.484-1.082-1.082S137.879,43.18,138.477,43.18L138.477,43.18z M84.129,45.289
c0.391,1.547-7.238,24.746-18.082,39.512l4.733,0.098l0.149,0.52c6.629,9.793,2.483,18.457-2.871,22.48l1.851,2.469l-1.668,1.352
l-1.668-1.988c-13.569,10.18-40.054,32.715-40.054,32.715l0.148,3.613l2.066-1.625c13.434,13,41.918,12.289,49.386-14.552
l2.005,0.043c-4.52,19.677-22.906,27.375-36.781,24.114l-3.25,4.668l0.871,0.468c-0.16-0.249-0.31-0.336-0.074-0.565l2.762-3.551
c20.761,2.655,33.296-9.095,37.367-25.013l2.648,0.048c-2.273,13.37-8.543,25.141-17.48,34.355
c-6.449-0.028-17.793-0.176-17.793-0.176c4.129,4.004,12.019,16.215,12.332,17.453c0,0,8.113,0.258,16.816,0.047
c3.191-1.438,7.461-2.012,9.452-1.008c3.505,1.766,6.798,8.316,8.278,18.823c0.379,2.711,0.727,3.856,0.832,4.403
c0.02,0.097,0.254,0.172,0.289,0.152c0.137-0.07-0.211,0.477-0.227,0.887c-0.012,0.406,0,1.019,0.195,1.23
c0.242,0.27,0.215,0.448,0.18,0.566c-0.023,0.074-0.496,0.511-0.496,0.511c-0.07,6.125-0.035,11.685-0.371,19.216l1.203,0.008
c-0.008-12.121,3.648-23.332,9.285-31.051c3.426-5.066,7.051-10.523,9.055-15.723c2.254-5.852,2.566-12,1.359-17.188l-0.828,0.047
c-4.953-3.398-6.973-10.648-0.867-15.828l-2.164-2.813c-6.094,4.716-7.496,13.407-1.18,20.606l-2.469-0.008
c-6.164-7.691-4.801-16.523,2.32-22.828l-1.59-2.024l1.73-1.522l1.563,1.707l39.754-33.215l-0.031-3.633l-3.043,2.469
c-17.832-16.484-44.277-4.918-48.156,14.941l-2.422,0.027c5.082-21.371,23.809-27.41,37.352-24.566l3.344-5.059
c-3.016-0.848-5.98-3.063-8.609-5.633c-0.078-0.078-0.652,0.129-0.73,0.051c-0.078-0.082,0.348-0.402,0.27-0.484
c-6.582-6.797-11.066-16.504-11.273-16.52l-17.445-0.043c-2.563,1.266-6.945,2.703-9.348,0.762
c-5.164-4.172-6.898-12.582-7.609-17.996c-0.215-1.688-0.395-4.617-0.555-5.59C84.492,45.27,84.301,45.262,84.129,45.289
L84.129,45.289z M145.977,54.648c0.586,0,1.059,0.477,1.059,1.059s-0.473,1.055-1.059,1.055c-0.582,0-1.055-0.473-1.055-1.055
S145.395,54.648,145.977,54.648L145.977,54.648z M148.25,55.895c0.859,1.113,1.621,2.262,2.051,3.477
c-0.402-0.012-0.777,0.113-1.227-0.238c-0.102-1.227-0.605-1.961-1.242-2.777L148.25,55.895z M145.059,57.457
c0.352,0.172,0.633,1.504,0.387,1.73c-0.426,0.09-0.715,0.063-0.859-0.086C144.375,58.75,144.778,57.523,145.059,57.457
L145.059,57.457z M75.68,69.027l16.195,0.02c2.816,2.16,5.57,1.875,9.57,0.141h18.008l1.016,1.848H74.801
C75.055,70.352,75.68,69.027,75.68,69.027L75.68,69.027z M74.344,71.914h46.605l1.18,1.895H73.188L74.344,71.914z M78.84,74.668
h5.23l-1.938,3.289h-5.395L78.84,74.668z M90.453,74.668h4.989l-2.219,3.285h-4.949L90.453,74.668z M106.594,74.668l-2.102,3.285
h-5.074l2.18-3.254L106.594,74.668z M112.852,74.668h5l-1.871,3.285h-5.176L112.852,74.668z M45.711,75.18
c-3.242-0.035-2.641,4.262-2.336,4.129c-2.035-0.469-3.539,0.5-3.789,2.23c-0.199,1.379,1.145,3.34,3.496,3.063
c-0.313,0.363,0.008,2.441,0.32,2.633c0,0,0.039,0.301-1.204,2.891c-1.472,3.07-1.772,3.215-2.437,1.199
c-0.719-2.172-1.828-3.273-4.719-4.676c-0.773-0.371-1.859-1.023-2.423-1.449c-1.293-0.973-1.308-0.957-1.245,1.02
c0.077,2.563,0.855,3.688,3.594,5.203c1.34,0.738,3.906,1.785,4.371,1.781c0.328-0.004,1.526,0.535,3.309,1.484
c0.347,0.184,1.535,0.84,3.059,0.988c1.616,0.113,5.262-0.27,7.37-1.488c1.188-0.684,1.646-1.297,2.521-3.047
c0,0-2.992,0.156-4.359-0.203c-2.84-0.168-4.254-0.004-6.406,1.117c-1.805,0.934-1.902,1.102-1.152-0.445
c0.344-0.707,0.664-1.543,0.953-2.375c0.315-0.828,0.397-0.898,1.188-0.977c1.727-0.176,2.71-1.172,2.871-2.902
c0.043-0.465-0.028-0.953-0.028-0.953c1.177,0.172,3.587-0.41,3.509-2.848c-0.066-2.191-1.629-2.695-3.552-2.844
C48.867,77.59,48.047,75.207,45.711,75.18L45.711,75.18z M45.75,75.859c2.84,0.02,2.773,2.625,1.534,4.105l-1.511-1.242
l-1.219,1.125C43.231,79,43.235,75.844,45.75,75.859L45.75,75.859z M123.45,75.891l1.395,2.063h-2.883L123.45,75.891z M70.43,78.855
h5.348l-2.145,3.016h-5.06C68.574,81.871,69.708,79.945,70.43,78.855L70.43,78.855z M87.285,78.855l-2.022,3.133H80.59l1.875-3.07
L87.285,78.855z M93.547,78.855h4.832l-1.91,3.34h-4.777L93.547,78.855z M104.918,78.855h4.891l-1.988,3.34h-4.824L104.918,78.855z
M116,78.855h5.043l-2.082,3.34h-4.859L116,78.855z M45.821,79.477l2.402,2.422l-2.344,2.344l-2.414-2.309L45.821,79.477z
M51.91,81.832c-0.425,2.816-3.136,2.66-3.905,1.285l1.105-1.258l-1.355-1.332C49.071,78.418,52.235,79.707,51.91,81.832
L51.91,81.832z M43.844,80.488l-1.301,1.461l1.426,1.371c-0.918,1.277-4.445,1.176-3.738-1.895
C40.68,79.477,42.664,79.117,43.844,80.488L43.844,80.488z M126.204,80.129l1.488,2.043l-2.789,0.023L126.204,80.129z
M68.208,82.637L128,82.832l1.602,1.957c-20.879,0.359-41.321-0.336-62.645-0.352L68.208,82.637z M47.188,83.91
c2.367,1.453,0.617,4.516-1.926,3.996c-1.896-0.832-2.281-2.801-0.578-3.941l1.34,1.102L47.188,83.91z M67.692,85.082l-1.633,0.008
l-1.59,1.859c6.008,6.328,5.789,11.816,0.19,16.602l2.25,2.523C73.192,100.703,74.583,92.262,67.692,85.082L67.692,85.082z
M73.864,85.324c3.367,5.262,6.277,15.23-3.754,24.359l-1.211-1.469c8.734-8.531,6.684-15.707,2.77-22.824L73.864,85.324z
M74.797,85.453l13.578,0.055c-2.906,11.074-4.945,17.598-5.255,34.926l-3.922,0.023c0.427-0.398-2.035-10.465-4.901-13.953
C80.313,96.289,77.071,90.531,74.797,85.453L74.797,85.453z M32.09,85.469c0.233,0,0.715,0.301,1.655,0.867
c0.849,0.508,1.946,1.148,2.442,1.426c1.867,1.047,2.793,2.031,3.324,3.539c0.394,1.125,0.147,1.148-0.992,0.086
c-0.848-0.789-1.754-1.469-4.016-3.02c-0.797-0.547-1.047-0.457-0.586,0.207c0.332,0.48,1.051,1.023,2.5,1.91
c1.055,0.641,2.504,1.926,2.387,2.113c-0.103,0.172-0.281,0.156-0.789-0.063c-0.235-0.105-0.992-0.414-1.68-0.695
c-2.957-1.199-4.22-2.672-4.398-5.121C31.875,85.863,31.824,85.473,32.09,85.469L32.09,85.469z M94.051,85.523
c0,0,0.406,0.539,0.461,0.762c0.113,0.488-0.363,0.934-1.867,1.602c-0.516,0.23-0.941,0.355-0.93,0.656
c0.07,0.703,1.422,1.781,1.258,2.746c-0.313,0.734-2.191,1.457-2.66,2.328c0.004,0.598,1.223,1.512,1.047,2.32
c-0.094,0.242-0.488,0.492-1.071,0.996c-1.19,1.035-1.265,1.195-0.827,2c1.016,1.871,1.051,1.73-0.336,3.059
c-1.395,1.34-1.371,1.324-0.703,2.488c0.723,1.254,0.688,1.199-0.277,2c-0.949,0.789-0.91,0.949-0.403,1.926
c0.493,0.949,0.603,0.961-0.222,1.691c-0.965,0.855-1.149,0.945-0.465,2.023c0.703,1.109,0.754,1.063-0.039,1.973
c-0.754,0.863-0.84,0.902-0.434,1.488c0.516,0.734,0.609,0.93,0.073,1.742c-0.582,0.875-0.578,0.813-0.046,1.625
c0.449,0.688,0.371,1.449,0.371,1.449l-1.68-0.004c0,0-0.013-0.965-0.207-1.32c-0.478-0.859-0.465-1.129,0.102-1.891
c0.582-0.785,0.484-0.852-0.059-1.637c-0.547-0.793-0.469-0.785,0.242-1.688c0.651-0.828,0.688-1.219,0.316-1.691
c-0.879-1.121-0.879-1.594,0.007-2.332c0.673-0.566,0.739-0.82,0.153-1.789c-0.567-0.945-0.641-1.031,0.406-1.977
c1.07-0.965,1.059-0.945,0.34-2.039c-0.696-1.063-0.656-1.133,0.461-2.172c1.129-1.047,1.144-1.047,0.402-2.371
c-0.691-1.238-0.699-1.215,0.655-2.422c1.349-1.121,1.806-1.266,0.461-2.875c-0.75-1.277-0.215-1.402,1.017-2.039
c2.156-1.316,1.172-1.238,0.266-3.191c-0.758-1.309-0.325-1.32,0.996-1.977c0.328-0.141,0.691-0.301,1.063-0.508
c0.883-0.492,0.406-0.945,0.406-0.945L94.051,85.523z M96.868,85.551l6.484,0.086c-7.516,9.594-11.129,21.863-12.426,34.809
l-2.449-0.039C88.324,110.297,91.504,97.668,96.868,85.551L96.868,85.551z M130.153,85.777c3.707,3.121,6.457,4.906,8.41,5.609
c0,0-2.617,4.34-2.816,4.184c-15.039-2.898-32.922,5.871-36.965,24.773l-2.371,0.016c0.875-7.418,2.828-13.613,6.422-20.074
c3.566-6.277,6.852-9.941,11.809-14.563L130.153,85.777z M104.282,85.617l3.195,0.055c0,0,0.598,0.723,0.871,0.98
c1.375,1.563,1.496,1.254-1.543,2.969c-1.918,1.082-2.766,1.586-2.879,2.039c-0.086,0.457,0.84,1.363,0.945,1.973
c0.004,0.07-2.605,1.816-3.078,2.063c-0.66,0.32-0.691,0.594-0.039,1.73c0.75,1.305,0.691,1.262-0.93,2.391
c-1.582,1.105-1.895,0.996-1.219,2.094c0.934,1.523,0.496,1.871-1.707,3.059c-0.555,0.301-0.57,0.602-0.184,1.641
c0.543,1.449,0.68,1.301-0.457,2.086c-1.344,0.926-1.578,0.949-1.281,1.516c0.863,1.648,1.207,2.047,0.051,2.586
c-0.879,0.41-0.898,0.641-0.41,1.73c0.488,1.094,0.617,1.047-0.254,1.664c-0.805,0.57-1.281,0.445-0.496,1.379
c0.621,0.738,0.566,1.32,0.059,1.773c-0.434,0.184-0.637,1.012-0.508,1.027l-1.121,0.031c-0.879-1.18,0.156-1.859,0.313-1.973
c0.145-0.273-0.031-0.469-0.383-1.105c-0.488-0.883-0.473-0.988,0.23-1.504c0.707-0.52,0.727-0.387,0.258-1.535
c-0.551-1.34-0.523-1.492,0.34-2.113c0.848-0.609,0.859-0.746,0.281-1.918c-0.609-1.234-0.609-1.238,0.902-2.238
c1.063-0.707,1.078-0.664,0.516-1.973c-0.391-0.902-0.113-1.215,1.332-2.207c0.824-0.566,0.887-0.676,0.5-1.352
c-1.074-1.855-1.063-1.914,0.785-3.109c1.512-0.98,1.5-1.063,0.914-2.367c-0.629-1.414-0.688-1.305,1.387-2.547
c1.707-1.023,1.801-0.965,1.098-2.195c-0.875-1.531-0.816-1.281,2.594-3.23c1.234-0.844,2.344-0.555,1.117-1.988
C104.942,86.359,104.282,85.617,104.282,85.617L104.282,85.617z M43.996,88.137c0.235-0.008,0.418,0.281,0.407,0.82
c-0.043,0.762-0.398,1.512-0.747,2.266c-0.718,1.539-1.44,2.676-1.819,2.68c-0.891,0.012-0.867-0.188,0.319-2.508
c0.54-1.059,1.099-2.266,1.188-2.5C43.535,88.387,43.785,88.145,43.996,88.137L43.996,88.137z M54.969,91.617
c0.016,3.254-10.195,4.895-10.724,3.254c1.778-1.395,7.039-0.777,8.157-2.023c-1.344-0.078-3.164,0.145-4.414,0.168
c-1.555,0.027-4.07,0.691-4.094,0.969c-0.164-0.859,2.672-2.465,4.918-2.566C50.91,91.324,53.192,91.574,54.969,91.617
L54.969,91.617z M55.844,96.586c0,0-19.906,16.473-29.746,24.441l0.058,3.555l31.493-25.781L55.844,96.586z M55.778,97.398
l1.273,1.547l-29.563,24.082l-0.105-2.523L55.778,97.398z M149.215,105.852l-1.063,1.133c-28.871-21.48-55.457,11.137-40.797,34.469
c-0.133,0.3-1.152,1.047-1.152,1.047C89.864,115.41,121.129,83.715,149.215,105.852L149.215,105.852z M133.329,101.145
c1.641,0.016,4.656,1.141,5.93,2.672c1.484,1.785,1.051,2.582-0.832,0.898c-2.027-1.473-3.699-1.813-0.887-0.074
c0.621,0.383,1.18,1.129,1.207,1.211c0.105,0.301-0.414-0.012-2.773-0.871c-1.402-0.512-3.18-1.895-3.641-2.836
C131.989,101.441,132.469,101.141,133.329,101.145L133.329,101.145z M127.25,101.195c0.512-0.004,0.969,0.035,1.293,0.129
c2.063,0.594,2.715,0.902,3.484,1.504c0.527,0.406,0.355,0.703-0.254,0.441c-0.711-0.305-2.969-0.977-3.371-0.934
c-0.586,0.059,0,0.441,0.844,0.652c1.867,0.469,2.793,0.949,1.461,0.969c-0.695,0.105-3.738,0.113-4.566,0.016
c-1.383-0.164-3.453-1.426-2.977-1.875C123.68,101.609,125.719,101.207,127.25,101.195L127.25,101.195z M121.329,103.137
c2.449,0.027,3.773,0.941,1.098,1.129c-4.602,0.727-5.484,1.727-0.387,0.535c1.188-0.277,1.164,0.152,0.344,0.555
c-0.668,0.324-1.508,0.484-2.203,0.824c-1.258,0.523-4.141,0.637-5.266,0.211C113.258,105.762,118.465,103.102,121.329,103.137
L121.329,103.137z M141.032,103.551c1.238,0.035,3.879,1.828,5.055,3.508c0.766,1.102,0.383,1.891-0.777,1.008
c-0.23-0.176-1.898-1.594-1.992-1.625c-0.152-0.059,1.387,1.402,1.609,1.816c0.195,0.348,0.637,1.148-0.191,1.164
c-1.297-0.16-4.344-3.563-4.363-5.246C140.368,103.727,140.622,103.543,141.032,103.551L141.032,103.551z M125.68,104.512
c0.516-0.02,0.254,0.254-0.727,0.945c-1.766,1.242-0.844,0.992,1.219-0.07c0.629-0.32,1.383-0.574,1.652-0.625
c0.266-0.047,0.582-0.121,0.703-0.156c0.555-0.172,0.125,0.512-0.777,1.238c-1.898,1.52-4.043,2.715-5.523,3.082
c-1.887,0.469-2.289,0.527-1.59-0.652c1.109-1.871,2.723-3.367,4.266-3.656C125.247,104.551,125.508,104.516,125.68,104.512
L125.68,104.512z M132.032,104.539c0.785-0.016,1.758,0.148,3.289,0.477c1.074,0.336,0.793,0.41-0.496,0.551
c-2.426,0.266-1.418,0.547,0.941,0.508c3.219-0.027-1.613,1.16-3.18,1.395c-1.223,0.055-1.578,0.012-4.246-0.488
c-1.016-0.191-0.406-0.934,1.52-1.855C130.645,104.75,131.247,104.555,132.032,104.539L132.032,104.539z M151.915,104.977
l0.09,2.074l-38.957,32.57l-1.324-1.465L151.915,104.977z M138.661,106.758c1.555-0.02,3.797,1.059,3.559,1.707
c-0.09,0.242-0.266,0.23-1.449-0.082c-0.781-0.207-2.172-0.426-1.988-0.254c0.063,0.059,1.152,0.473,1.566,0.574
c1.371,0.328,3.016,1.105,2.652,1.336c-0.637,0.387-1.219,0.082-1.973,0.004c-1.883-0.262-4.977-1.215-5.484-1.688
C134.965,107.816,136.989,106.781,138.661,106.758L138.661,106.758z M120.489,106.879c0.281,0.016,0.387,0.273,0.117,0.633
c-0.406,0.535-0.594,0.984-0.957,1.641c-1.301,2.012-2.121,2.809-3.375,3.59c-1.25,0.777-1.43,0.645-1.32-0.977
c0.141-1.688,1.348-3.457,3.051-4.289c0.785-0.109,1.238-0.316,0.41,0.672c-1.461,1.75-0.461,1.574,0.906-0.418
C119.754,107.098,120.208,106.863,120.489,106.879L120.489,106.879z M115.43,107.113c0.844-0.004,1.129,0.297,0.047,0.801
c-1.031,0.484-3.082,1.918-3.133,2.074c-0.082,0.27,0.684-0.152,1.957-0.848c1.703-0.93,1.855-0.906,1.031,0.156
c-0.934,1.203-3.172,2.707-4.93,3.266c-2.461,0.672-2.402,0.203-1.027-1.625c1.313-1.984,2.426-2.93,4.102-3.473
C114.211,107.227,114.922,107.117,115.43,107.113L115.43,107.113z M73.699,107.418c8.927,15.395,3.974,31.035-6.386,39.016
c-10.828,8.34-27.672,7.844-37.614-2.168l1.379-1.302c-0.007,0.009,15.673,15.974,35.414,1.802
c10.024-7.191,14.161-24.176,5.896-36.016L73.699,107.418z M33.711,107.449c-0.031,0-0.056,0.004-0.07,0.016
c-0.301,0.195-1.434,3.52-1.66,4.902c-0.067,0.402,0.031,0.797,0.363,1.121c0.233,0.23,0.608,0.082,0.727,0.035
c0.753-0.34,1.171-0.863,1.832-2.523c0.441-0.91,0.503-1.992,0.414-2.371c-0.036-0.156-0.278-0.512-0.586-0.719
C34.391,107.688,33.914,107.449,33.711,107.449L33.711,107.449z M33.883,108.145c0.358-0.004,1.063,0.574,1.151,0.988
c0.004,0.723-0.405,1.926-0.714,1.746c-0.516-0.641-1.109-0.238-1.207-0.469c-0.066-0.711,0.387-1.641,0.703-2.262
C33.836,108.145,33.86,108.145,33.883,108.145L33.883,108.145z M130.301,108.719c3.969,0,7.918,1.164,10.816,3.73l-1.551,1.418
c-6.797-4.844-14.711-3.426-19.398-0.156c-4.645,3.234-8.754,10.398-4.727,20.484l-1.453,1.316
c-4.512-8.113-2.09-18.836,5.891-23.91c2.816-1.789,6.422-2.813,10.035-2.879C130.043,108.719,130.172,108.719,130.301,108.719
L130.301,108.719z M71.598,109.902c0.121,0,0.305,0.395,0.285,0.879c-0.023,0.578-0.27,1.336-0.66,1.496
c-0.445,0.184-0.728-1.137-0.728-1.137C70.77,110.711,71.141,110.27,71.598,109.902L71.598,109.902z M142.672,110.355
c0.16-0.008,0.316,0,0.453,0.016c0.445,0.055,0.449,0.453,0.031,0.832c-0.449,0.414-0.688,0.434-1.141,0.102
c-0.406-0.293-0.426-0.512-0.074-0.762C142.125,110.426,142.403,110.371,142.672,110.355L142.672,110.355z M66.43,110.445
l1.315,1.625l-4.562,3.672l-0.547,0.039L27.703,144.71l-0.007-2.569L66.43,110.445z M139.422,114.363l-4.758,3.926
c-9.508-4.941-17.137,3.863-14.445,11.859l-4.113,3.574C108.747,113.523,130.27,106.613,139.422,114.363L139.422,114.363z
M114.512,111.281c0.012-0.004,0.027-0.004,0.039,0c0.031,0.004,0.066,0.027,0.094,0.059c0.168,0.164-0.164,2.84-0.41,3.34
c-0.09,0.18-0.16,0.41-0.16,0.516c0.004,0.219-0.875,2.059-1.563,3.27c-0.258,0.457-0.535,1.059-0.613,1.336
c-0.551,2.652-1.738-1.613-1.32-4.086c0.199-1.164,1.848-3.566,2.328-3.387c0.242,0.09,0.227,0.273-0.199,1.203
c-1.195,2.594-1.492,3.93-0.242,1.422C113.911,112.063,114.286,111.32,114.512,111.281L114.512,111.281z M33.688,111.332
c0.176,0.012,0.316,0.109,0.395,0.316c0.051,0.176,0.109,0.539,0.008,0.719c-0.242,0.547-0.746,0.91-1.258,0.875
c-0.227-0.012-0.469-0.211-0.5-0.453c-0.027-0.219,0.027-0.59,0.305-0.875C33,111.543,33.391,111.316,33.688,111.332L33.688,111.332
z M69.906,111.5c0.567,0.027,1.161,1.543,0.782,2.234c-0.309,0.566-0.367,0.461-0.91-0.633c-0.282-0.578-0.5-1.199-0.5-1.199
l0.461-0.363c0.035-0.02,0.078-0.031,0.117-0.035C69.871,111.5,69.891,111.5,69.906,111.5L69.906,111.5z M68.958,112.141
c0,0,0.594,1.07,0.738,1.93c0.089,0.52,0.074,0.422-0.5,0.207c-0.45-0.281-0.551-0.445-0.832-0.801
c-0.184-0.324-0.372-0.566-0.372-0.566L68.958,112.141z M72.524,112.371c0.297-0.012,0.621,0.289,0.914,1.031
c1.105,2.781,1.004,5.902-0.239,7.375c-0.207,0.246-0.253,0.254-0.503,0.102c-0.2-0.125-0.219-1.445-0.023-1.82
c0.059-0.117,0.241-0.914,0.254-1.363c0.035-1.07-0.258-1.203-0.398-0.215c-0.164,1.145-0.34,1.945-0.652,1.258
c-0.156-0.352-0.238-0.699-0.355-1.07C70.899,115.262,71.625,112.398,72.524,112.371L72.524,112.371z M67.708,113.082
c0,0,1.063,1.371,1.5,1.863c0.156,0.266,0.148,0.336-0.098,0.43c-0.422,0.16-1.829-0.777-2.387-1.066
c-0.301-0.242-0.172-0.426-0.172-0.426C66.938,113.594,67.321,113.309,67.708,113.082L67.708,113.082z M109.68,113.129
c0.566-0.004,0.566,0.191-0.039,1.066c-3.387,4.867-2.703,4.145-0.551,1.48c1.199-1.48,1.406-1.621,1.539-1.289
c0.098,0.246-1.328,3.129-2.063,4.172c-0.383,0.539-1.684,1.445-2.34,1.777c-1.609,0.813-1.43,0.488-0.836-1.535
C106.149,115.668,108.055,113.148,109.68,113.129L109.68,113.129z M65.719,114.813c9.276,23.074-16.129,33.203-27.594,22.531
l1.336-1.063c15.948,10.816,31.688-6.512,24.484-20.07C63.946,116.211,64.598,115.668,65.719,114.813L65.719,114.813z
M67.867,115.375c1.528,0.156,3.786,2.949,3.899,4.504c0.242,1.109-0.07,1.297-0.613,0.52c-0.914-1.688-0.805-0.617-0.027,1.059
c0.413,0.852,0.512,1.867,0.082,1.922c-0.591-0.121-1.859-2.148-2.25-2.984c-0.927-1.832-0.992-1.52-1.5-4.234
C67.36,115.652,67.492,115.379,67.867,115.375L67.867,115.375z M63.25,116.133c7.07,13.551-8.137,29.84-23.598,19.313l4.632-3.68
c8.071,3.871,17.079-0.931,14.496-12.059L63.25,116.133z M133.762,118.656l-12.75,10.625
C118.387,120.477,128.02,115.445,133.762,118.656L133.762,118.656z M110.079,118.637c0.418-0.086,0.77,2.578,0.848,6.324
c0.078,3.66,0.172,4.02-0.969,2.671c-0.477-0.547-1.063-1.069-1.324-1.565c-0.754-1.426-0.516-2.926-0.305-5.016
c0.195-1.953,0.891-1.648,0.777,0.398c-0.07,1.313-0.059,2.949,0.148,2.945c0.074,0,0.098-0.125,0.051-0.305
c-0.102-0.375,0.352-4.613,0.535-5.113C109.922,118.762,110,118.652,110.079,118.637L110.079,118.637z M74.942,120.246
c0.922,0.363,1.184,3.438,0.184,6.41c-0.43,1.273-1.087,2.109-2.07,2.625c-0.699,0.367-0.863,0.25-0.547-0.391
c0.582-1.043,0.891-2.125,1.129-3.473c0.094-1.316-0.603-0.262-0.543,0.301c-0.543,2.452-1.258,2.824-1.164,0.238
c0.065-1.902,0.315-2.719,1.215-4.027C73.594,121.273,74.078,120.371,74.942,120.246L74.942,120.246z M106.918,120.559
c0.379,0.004,0.473,0.512,0.133,1.5c-0.234,0.688-1.035,2.91-0.941,2.902c0.059-0.004,0.918-2.004,1.094-2.328
c0.289-0.535,0.395-0.637,0.648-0.613c0.246,0.988-0.008,2.219-0.129,3.242c-0.523,2.664-2.336,5.418-3.031,4.598
c-1.133-1.336-0.602-6.738,0.898-8.383C106.157,120.859,106.625,120.555,106.918,120.559L106.918,120.559z M58.36,120.969
c1.367,9.422-6.411,13.449-13.129,10.605C45.375,131.539,58.36,120.969,58.36,120.969L58.36,120.969z M90.153,121.141l1.355,1.777
l2.48,0.129l-1.27,1.875l1.262,2.398l-2.77,0.055l-1.595,1.828l-1.382-1.652l-2.422-0.13l1.41-2.249l-1.137-2.152l2.612-0.125
L90.153,121.141z M69.321,121.949c0.313,0.012,1.843,2.023,1.996,2.77c0.461,1.796,0.289,5.199-0.355,5.082
c-0.703-2.449-0.431-3.716-0.684-3.434c-0.434,0.449,0.273,4.207,0.039,5.133c-0.11,0.238-0.489-0.047-0.911-0.652
c-1.125-1.621-0.972-7.957-0.112-8.891C69.301,121.953,69.313,121.949,69.321,121.949L69.321,121.949z M152.219,125.77
l-30.637,25.379l1.77,2.272l28.922-23.878L152.219,125.77z M107.973,126.208c0.133-0.029,0.438,0.187,1.012,0.815
c1.004,1.354,2.066,3.215,2.453,4.645c0.148,0.555,0.383,1.292,0.527,1.641c0.215,0.516,0.23,0.66,0.105,0.816
c-0.531,0.652-2.75-0.993-3.469-2.57c-1.004-2.216-1.031-4.211-0.02-2.266c0.367,0.707,0.82,1.734,0.816,1.328
c0-0.117-0.445-1.602-0.789-2.266C108.399,127.938,107.629,126.277,107.973,126.208L107.973,126.208z M151.895,126.824l0.063,2.102
l-28.531,23.859l-1.121-1.359C122.305,151.426,149.18,129.074,151.895,126.824L151.895,126.824z M107.348,128.121
c0.133,0.016,0.203,0.207,0.16,0.632c-0.129,1.388-0.469,4.407-0.398,4.677c0.043,0.155,0.449-2,0.543-2.387
c0.488-2,1.234,2.785,0.785,4.926c-0.07,0.34-0.215,0.883-0.289,1.215c-0.074,0.336-0.313,0.905-0.406,1.059
c-0.809,1.27-2.711-3.793-2.391-6.371C105.551,130.266,106.868,128.074,107.348,128.121L107.348,128.121z M74.34,129.23
c0.371-0.021,0.444,0.348,0.383,1.117c-0.219,2.641-1.973,5.409-3.896,6.148c-1.914,0.734-2.093,0.586-0.957-0.782
c0.86-1.038,1.384-2.129,1.235-2.272c-0.078-0.078-0.27,0.359-0.969,1.254c-0.871,1.121-1.017,0.172-0.224-1.477
c0.688-1.423,1.328-2.169,2.621-3.039C73.446,129.566,74.008,129.25,74.34,129.23L74.34,129.23z M91.688,130.035
c-0.387,11.367-3.219,23.715-8.692,34.453l-5.112,0.012c6.262-9.223,10.258-20.637,11.367-34.418L91.688,130.035z M93.938,130.043
c0,0,0.766,0.796,1.078,1.332c0.344,0.594,0.438,1.109-0.188,1.555c-0.723,0.613-1.027,0.383,0.156,1.905
c0.625,0.802,0.422,0.935-0.352,1.61c-0.797,0.695-0.844,0.734-0.102,1.676c0.793,1.007,0.938,1.16-0.098,1.941
c-0.934,0.699-0.945,0.863-0.219,2.004c0.672,1.051,0.875,1.039-0.41,2.125c-1.102,0.93-1.125,0.672-0.066,2.383
c0.391,0.629,0.363,0.668-0.352,1.301c-1.754,1.555-1.664,1.457-1.414,1.867c1.926,2.758,1.055,2.679-0.828,3.996
c-0.379,0.324-0.281,0.691,0.566,2.066c0.723,1.172,0.617,1.426-1.074,2.59c-1.762,1.211-1.82,1.375-0.938,2.608
c0.868,1.22,0.888,1.138-0.522,2.396c-0.638,0.565-1.156,1.09-1.156,1.09h-3.125c0,0,0.66-0.602,1.109-0.938
c2.566-1.895,2.555-1.695,1.473-3.063c-0.957-1.211-0.863-1.293,0.105-1.985c0.698-0.496,1.637-1.011,2.344-1.519
c0.379-0.271,0.098-0.496-0.535-1.691c-0.707-1.34-0.746-1.188,0.574-2.27c1.441-1.191,1.465-1.146,0.684-2.652
c-0.785-1.508-0.797-1.375,0.191-2.188c1.473-1.199,1.543-1.138,0.77-2.531c-0.617-1.109-0.625-1.078,0.418-2.121
c1.055-1.051,0.926-0.985,0.301-1.949c-0.633-0.98-0.602-1.109,0.234-1.855c0.898-0.802,0.773-0.75,0.027-1.773
c-0.734-1.008-0.723-0.934,0.168-1.715c0.473-0.41,0.945-0.828,0.918-1.02c-0.07-0.5-0.547-1.207-1.004-1.887
c-0.176-0.258,0.176-0.336,0.734-0.918c0.57-0.59,0.543-0.441,0.113-1.227c-0.23-0.426-0.672-1.142-0.672-1.142L93.938,130.043z
M85.571,130.07l0.891,0.023c0,0,0.152,0.202,0.359,0.413c0.57,0.582,0.593,0.923,0.02,1.235c-0.552,0.301-0.336,0.722,0.121,1.398
c0.487,0.715,0.484,0.633-0.216,1.34c-0.722,0.586-1.093,0.754-0.297,1.863c0.454,0.516,0.396,1.051-0.308,1.512
c-0.539,0.354-1.438,0.647-0.492,2c0.461,0.965,0.5,0.901-0.465,1.586c-1.281,0.91-1.524,0.754-0.934,2.078
c0.652,1.477,0.719,1.496-0.625,2.487c-1.563,1.149-1.617,1.243-0.966,2.618c0.657,1.387,0.672,1.035-0.979,2.324
c-1.211,0.941-1.484,0.992-1.129,1.773c0.672,1.461,0.957,1.852-1,2.855c-2.267,1.16-2.379,1.246-1.293,2.973
c0.887,1.402,0.688,1.202-0.77,2.043c-2.109,1.215-3.043,1.741-3.109,2.116c-0.043,0.431,1.648,1.696,1.648,1.696l-2.945,0.082
c0,0-1.238-1.004-1.719-1.473c-1.333-1.297-1.344-0.871,3.082-3.02c2.441-1.188,2.238-0.918,1.839-1.609
c-1.179-2.043-1.218-2.255,0.989-3.367c1.922-0.965,1.593-1.035,1.125-2.496c-0.407-1.273-0.34-1.156,0.672-1.91
c2.445-1.813,2.378-1.625,1.996-2.516c-0.375-0.875-0.664-1.281-0.383-1.716c0.883-1.261,2.758-1.53,1.992-3.034
c-0.359-0.973-0.484-1.191,0.594-2.031c0.972-0.81,0.98-0.711,0.355-1.781c-0.759-0.98-0.648-1.145,0.461-1.914
c0.793-0.727,0.78-0.707,0.336-1.411c-0.613-0.976-0.582-1.007,0.293-1.772c0.711-0.625,0.836-0.656,0.383-1.349
c-0.603-0.914-0.504-1.112,0.289-1.562c0.488-0.274,0.483-0.387,0.445-0.853C85.824,130.585,85.571,130.07,85.571,130.07
L85.571,130.07z M96.614,130.125l4.098,0.012c1.309,7.598,3.594,10.715,4.914,13.12c-5.18,8.321-4.004,15.231-0.84,21.345
l-12.98-0.051C95.133,153.168,96.848,141.714,96.614,130.125L96.614,130.125z M68.481,130.156c0.152-0.012,0.258,0.23,0.511,0.664
c0.821,1.398,0.239,3.387-0.961,5.465c-0.897,1.554-1.062,0.367-0.651-1.875c0.262-1.41-0.453,0.707-0.789,2.41
c-0.185,0.926-0.629,1.672-1.109,1.629c-0.453-0.074-0.313-1.371-0.301-1.656c0.104-2.043,0.867-3.493,2.344-5.52
C68.083,130.507,68.309,130.168,68.481,130.156L68.481,130.156z M110.317,134.152c0.195-0.012,0.469,0.07,0.805,0.262
c0.258,0.152,0.73,0.434,1.055,0.613c1.137,0.625,1.227,0.816,0.688,1.445c-0.668,0.78-1.094,0.484-2.25-0.813
C109.833,134.785,109.821,134.171,110.317,134.152L110.317,134.152z M109.938,135.859c0.184,0.008,0.563,0.203,0.934,0.625
c0.746,0.859,0.656,1.582-0.172,1.375c-0.34-0.496-0.512-1.25-0.836-1.805C109.79,135.925,109.829,135.859,109.938,135.859
L109.938,135.859z M146.547,135.969c-0.727,0.004-1.941,0.961-2.172,1.934c-0.707,2.976-0.707,2.848-0.074,3.277
c0.188,0.129,0.324,0.223,0.418,0.277c0.371,0.293,0.875,0.746,0.941,0.656c0.602,0.004,1.52-3.805,1.488-4.59
c0.035-0.832,0.066-0.93-0.141-1.31C146.915,136.046,146.75,135.969,146.547,135.969L146.547,135.969z M109.383,136.035
c0.047-0.008,0.109,0.016,0.18,0.074c0.477,0.473,0.668,1.32,0.91,1.926c0,0.133-0.055,0.347-0.121,0.477
c-0.41,0.788-1.051,0.027-1.117-1.336C109.2,136.414,109.239,136.063,109.383,136.035L109.383,136.035z M146.434,136.621
c0.031,0,0.063,0,0.09,0c0.488,0.023,0.41,0.527-0.266,1.257c-0.355,0.384-1.09,0.567-1.332,0.329
c-0.352-0.344,0.375-1.293,1.168-1.52C146.227,136.648,146.336,136.628,146.434,136.621L146.434,136.621z M64.117,137.039
c0.028,0,0.056-0.004,0.082,0c0.254,0.016,0.465,0.129,0.634,0.324c0.323,0.402,0.188,1.023,0.034,1.539
c-0.386,1.359-2.929,3.992-3.843,4c-0.543-0.094,1.73-2.984,1.8-3.469c-0.168-0.168-1.578,1.461-2.241,2.59
c-0.298,0.512-0.637,1.145-0.82,1.254c-0.474,0.055-1.021,0.354-1.023,0.039c0.078-1.445,2.902-4.59,3.867-5.465
C63.196,137.293,63.708,137.046,64.117,137.039L64.117,137.039z M70.934,137.176c2.183-0.027-2.117,4.749-4.899,5.441
c-0.862,0.211-2.461,0.27-2.573,0.09c-0.117-0.18,0.012-0.329,0.37-0.422c0.574-0.148,3.414-1.957,3.41-2.172
c0-0.266-1.175,0.176-2.179,0.824c-0.649,0.422-0.953,0.336-0.602-0.172C66.094,138.418,68.281,137.203,70.934,137.176
L70.934,137.176z M108.723,137.18c0.125,0.012,0.25,0.258,0.328,0.809c0.395,1.023,0.414,1.301,0.039,1.605
c-0.641,0.512-0.797,0.37-0.789-0.816C108.305,137.8,108.52,137.164,108.723,137.18L108.723,137.18z M36.801,138.539
c0,0,0.797,0.3,0.465,0.68c-0.231,0.262-1.211,0.038-1.211-0.039L36.801,138.539z M146.481,138.57
c0.262-0.016,0.266,0.223,0.129,0.828c-0.07,0.32-0.387,1.992-0.941,2.457c-0.066,0.043-0.875-0.438-1.094-0.66
c-0.102-0.102-0.414-0.336-0.457-0.492c-0.137-0.504,0.008-1.16,0.395-1.489c0.148-0.129,0.449-0.198,0.613-0.202
c0.125,0,0.5-0.125,0.836-0.27C146.192,138.637,146.364,138.578,146.481,138.57L146.481,138.57z M37.083,139.723
c0.523-0.004,1.168,0.055,1.715,0.237c1.608,0.47,4.563,1.793,5.016,2.228c0.66,0.633-1.067,1.305-3.141,1.328
c-1.102,0.012-1.309-0.215-2.832-1.129c-0.195-0.13-1.082-0.711-0.824-0.923c0.281-0.289,1.133,0.082,2.191,0.621
c0.348,0.177,1.188,0.125,1.184-0.03c0-0.184-2.113-0.97-3.699-1.473c-1.039-0.329-1.016-0.664-0.379-0.805
C36.496,139.75,36.766,139.727,37.083,139.723L37.083,139.723z M35,140.445c0,0,0.438,0.39,1.008,0.816
c0.617,0.461,1.332,1.031,1.828,1.788c0.723,0.88,1.862,3.067,1.734,3.462c-0.29,0.909-3.336-0.684-5.825-3.173
c-0.808-0.812-1.28-1.414-1.28-1.414l0.948-0.858c0,0,0.837,0.699,1.798,1.551c1.809,1.593,1.797,1.047-0.023-0.633
c-0.512-0.478-0.985-0.902-0.985-0.902C34.227,140.777,34.512,140.507,35,140.445L35,140.445z M109.344,140.523
c0,0,0.973,1.008,1.332,1.473c-5.922,5.789-8.184,13.875-2.465,22.492l-2.746-0.012C100.329,154.363,102.766,146.75,109.344,140.523
L109.344,140.523z M59.254,140.762c0.371-0.016,0.034,0.418-0.617,1.527c-1.224,2.078-1.465,2.602-3.445,3.117
c-0.512,0.133-1.239,0.027-1.536,0.066c-0.851,0.105-0.472,0,0.833-0.848c1.809-1.172,0.273-0.57-1.402,0.293
c-0.97,0.496-1.984,0.473-2.07,0.214c-0.051-0.144,0.39-0.519,0.676-0.772c2.547-2.277,3.328-2.18,5.699-3.004
C58.426,140.996,59.004,140.773,59.254,140.762L59.254,140.762z M48.606,142.839c0.925,0.005,1.785,0.099,2.547,0.267
c0.507,0.117,1.332,0.219,0.636,0.848c-0.784,0.738-2.913,1.75-4.487,1.816c-0.219,0.012-3.461-0.219-2.771-0.914
c0.142-0.078,0.579-0.06,0.958-0.129c1.796-0.34,1.309-0.629-0.898-0.513c-2.77,0.149-2.895-0.136-0.802-0.711
c1.535-0.418,3.039-0.632,4.423-0.659C48.344,142.839,48.477,142.835,48.606,142.839L48.606,142.839z M63.395,143.05
c1.234-0.011,2.191,0.207,2.195,0.677c0.008,0.762-2.324,2.434-3.855,2.766c-0.359,0.074-0.875,0.188-1.141,0.246
c-0.531,0.121-3.492,0.019-3.777-0.086c-1.387-0.504-0.422-0.699,2.117-0.996c1.104-0.125,1.633-0.418,1.633-0.625
c-0.004-0.106-0.816-0.133-2.032,0.02c-1.351,0.172-1.086-0.227,0.599-1.098C60.25,143.375,62,143.063,63.395,143.05L63.395,143.05z
M40.598,144.105c0.172,0.004,0.586,0.147,1.277,0.438c1.477,0.43,3.5,0.914,4.891,2.43c1.121,1.082,1.39,1.434,1.156,1.816
c-0.285,0.461-3.763,0.109-5.227-0.516c-0.965-0.414-2.118-1.301-2.645-2.066c-1.273-1.859-0.738-2.348,0.883-1.047
c1.953,1.563,2.242,1.722,2.59,1.652c0.136-0.027-0.207-0.353-0.86-0.836C41.02,144.753,40.219,144.098,40.598,144.105
L40.598,144.105z M52.625,146.102c1.637,0,1.988,0.125,3.577,0.852c1.985,0.699,1.505,1.32-2.022,2.199
c-1.767,0.418-3.543,0.125-4.832-0.668c-2.84-1.75-2.652-2.098,0.519-1.316c1.043,0.258,2.082,0.305,2.146,0.109
c0.051-0.149-1.211-0.469-2.234-0.809c-1.109-0.367-0.157-0.337,2.063-0.359C52.133,146.105,52.391,146.102,52.625,146.102
L52.625,146.102z M134.399,153.656c0,0-0.363,0.172-0.523,0.258c-0.129,0.07-1.109,0.191-2.184,0.273
c-2.121,0.156-3.547,0.496-4.832,1.012c-1.941,0.781-3.238,3.188-3.238,3.188c1.453-0.098,9.664,1.387,11.941-1.57
c0.477-0.621-1.227,4.672-2.098,4.91c-2.164-0.263-3.074,3.133-2.859,2.992c-2.184,0.844-3.875,1.34-3.32,3.875
c0.242,1.105,1.363,2.418,3.734,2.086c-0.645,4.395,4.73,5.53,5.32,0.234c0,0,1.051-0.2,1.453-0.246
c2.453-0.583,3.047-4.165-0.551-5.301c-1-0.293-1.055-0.48-1.055-0.48c0.184-0.809,0.141-1.656-0.445-2.598
c0.797-1.891,2.77-5.539,2.77-5.539L134.399,153.656z M134.778,154.746c0.492,0.66-2.086,1.754-4.832,1.992
c-0.617,0.051-1.969,0.176-2.004,0.238c-0.297,0.516,5.309,0.141,7.055-0.836c0.598-0.336,0.652-0.043,0.395,0.477
c-2.027,2.605-6.922,1.965-10.75,1.504c-0.219-0.219-0.031-0.489,0.824-1.184c1.574-1.273,2.707-1.703,5.188-1.957
C131.348,154.96,134.465,154.371,134.778,154.746L134.778,154.746z M137.809,157.445c-0.352,1.121-2.195,4.543-2.195,4.543
c-0.227,0.226-1.031,0.387-0.973-0.481c0.012-0.929,1.754-4.761,2.223-4.836C137.422,156.628,137.836,157.043,137.809,157.445
L137.809,157.445z M138.977,157.707c0.539,3.925,3.52,4.859,6.383,6.098c0.75,0.348,1.391,0.961,2.145,1.355
c1.414-1.926-0.18-5.672-2.668-6.891c-1.848-0.863-3.535-1.551-4.574-1.474C139.657,156.844,138.985,157.23,138.977,157.707
L138.977,157.707z M140.508,157.473c0.32-0.004,0.777,0.09,2.445,0.53c2.523,0.673,4.301,2.532,4.766,4.981
c0.02,0.101,0.148,2-0.285,1.93c-0.656-0.188-1.012-0.848-2.066-1.289c-1.313-0.551-3.156-1.273-4.289-2.301
c-0.914-0.832-1.414-1.727-1.523-2.492c-0.113-0.793,0.152-0.875,0.82-0.234c1.496,1.191,2.969,1.598,4.449,2.75
c0.41,0.316,1.887,1.137,0.879,0.116c-0.684-0.687-2.691-1.89-3.758-2.401C140.461,158.348,139.657,157.48,140.508,157.473
L140.508,157.473z M26.949,161.391l16.903,26.426c-4.16,2.195-6.211,3.156-13.121,2.613l0.027,0.348l-2.935-0.168
c5.071,7.914,11.325,18.238,9.552,36.25l20.59-0.024c0,0,0.319,0.306,0.352,0.329c0.3,0.203,0.754-0.359,0.754-0.359l9.289-0.048
l0.25,0.298l4.332-0.027c0,0-19.805-37.059-29.75-55.457C39.106,164.191,34.852,160.91,26.949,161.391L26.949,161.391z
M133.536,162.266c1.109-0.027,2.215,0.734,2.223,2.219c0.004,0.769-0.648,1.848-0.648,1.848l-1.508-1.438l-1.441,1.44
c-0.711-0.585-1.129-1.703-0.898-2.339C131.708,162.91,132.672,162.289,133.536,162.266L133.536,162.266z M116.055,162.793
c1.43,5.574,2.977,13.262-9.43,31.027c-7.34,10.508-9.738,20.422-10.031,32.519l-0.742,0.005c0.352-6.637,0.398-18.676,0.398-18.676
l0.691-0.618c0,0-0.316-0.511-0.453-1.112c-0.234-1.013-0.039-0.676,0.566-3.395C99.59,189.41,116.055,162.793,116.055,162.793
L116.055,162.793z M49.813,165.352l62.871,0.285l-0.836,1.652l-60.84-0.438L49.813,165.352z M133.618,165.828l2.332,2.273
l-2.281,2.563l-2.402-2.516L133.618,165.828z M131.7,166.793l-1.273,1.355l1.105,1.16c-1.137,2.387-4.16,0.523-4.059-1.263
C127.59,165.96,130.032,165.102,131.7,166.793L131.7,166.793z M135.735,169.484l1.016-1.289l-1.145-1.258
c1.875-1.853,3.652-0.219,3.824,1.328C139.61,169.914,137.04,171.773,135.735,169.484L135.735,169.484z M61.274,167.906l5.148,0.051
l-1.914,3.582l-5.224-0.02L61.274,167.906z M72.746,167.934h4.731l-2,3.633h-4.785L72.746,167.934z M83.918,167.934h5.016
l-2.035,3.633h-5.157L83.918,167.934z M95.149,167.934h5.133l-1.867,3.633h-5.328L95.149,167.934z M106.586,167.934h4.949
l-2.004,3.633h-5.094L106.586,167.934z M51.93,167.953h3.324l-1.355,2.391L51.93,167.953z M134.868,170.246
c1.902,1.527,0.582,4.039-1.402,4.082c-1.367,0.031-3.348-2.277-1.203-4.164l1.43,1.309L134.868,170.246z M64.903,172.176h4.836
l-1.82,3.27H63.18L64.903,172.176z M75.653,172.203h5.305l-1.871,3.27h-5.048L75.653,172.203z M87.012,172.203h5.277l-1.719,3.27
h-5.332L87.012,172.203z M98.329,172.203h5.238l-1.629,3.27h-5.539L98.329,172.203z M55.137,172.328h3.34l-1.422,2.617
L55.137,172.328z M57.656,176.121l49.005,0.434l-0.832,1.59l-46.93,0.008L57.656,176.121z M59.375,178.964l45.926,0.114
l-1.059,2.199l-15.863-0.07c-3.099-2.313-6.638-1.247-10.673,0.07c0,0-12.147,0.125-16.922,0L59.375,178.964z M123.825,184.578
c2.547,3.257,4.375,7.8,5.113,11.382c0.734,3.665-0.063,5.461-0.996,2.254c-1.555-8.019-11.063-9.19-15.305-2.979
c-5.895,8.629,4.43,19.101,11.832,12.09c0.633-0.602,0.984-0.746,1.195-0.492c0.25,0.289,0.078,0.55-1.238,1.878
c-5.145,5.181-3.234,12.638,3.73,14.372c9.883,2.461,15.855-9.618,7.219-15.32c-0.898-0.684-0.992-0.855-0.664-1.227
c0.289-0.328,0.543-0.293,1.344,0.434c7.402,6.695,17.516-2.055,12.832-11.105c-3.609-6.969-13.648-5.692-16.051,2.055
c-0.449,1.445-0.48,1.527-0.73,1.688c-1.027,0.039-0.305-3.363-0.148-4.262c1.164-3.977,2.453-7.695,4.914-10.766H123.825z
M44.106,188.281l24.218,38.23l-5.351-0.063l-23-35.961L44.106,188.281z M163.071,190.512c0.16,0.12,2.418,6.327,1.977,6.898
c-0.137,0.449-0.516,0.293-0.664-0.27c-1.406-5.359-8.043-4.457-7.98,1.086c0.039,3.434,3.563,4.918,6.629,2.785
c0.453-0.316,0.664-0.32,0.664-0.02c0.004,0.093-0.352,0.563-0.785,1.047c-2.465,2.742-1.535,6.535,1.789,7.313
c4.469,1.047,6.633-3.984,3.273-7.602c-0.488-0.527-0.887-1.008-0.891-1.075c0-0.272,0.375-0.226,0.813,0.099
c3.098,2.301,6.875,0.75,6.832-2.81c-0.055-4.69-5.891-5.929-7.496-1.586c-0.398,1.079-0.594,1.368-0.797,1.173
c-0.785-0.414,2.102-7.105,2.18-7.105L163.071,190.512z M39.25,190.77l22.866,35.733c-1.05-0.026-2.022,0.04-3.073,0.024
c0.426-6.676-4.945-9.805-8.102-9.961c1.895-7.805-3.797-11.09-7.59-11.707c1.539-10.146-6.86-11.582-6.981-11.481
c0.043-0.832-0.112-1.433-0.226-2.125L39.25,190.77z M35.543,191.335c-0.048,0.216,0.434,2.239-0.473,1.864l-0.063-1.86
L35.543,191.335z M30.731,191.391c0.328,1.344,1.015,1.609,1.957,2.512c0,0-1.203,0.203-1.48,0.008
c-0.496-0.344-1.539-2.532-1.539-2.532L30.731,191.391z M34.309,193.664c0.578,0,1.047,0.468,1.047,1.05
c0,0.579-0.469,1.048-1.047,1.048c-0.582,0-1.051-0.469-1.051-1.048C33.258,194.132,33.727,193.664,34.309,193.664L34.309,193.664z
M36.387,194.469c3.008-0.195,7.367,3.031,6.219,9.066c-0.2-0.422-0.438-1.348-0.926-2.008c-2.074-2.797-4.517,1.035-2.871,2.601
c0.808,0.767,1.187,1.067,1.097,1.138c-1.851-0.352-3.257,1.289-2.483,3.112c1.284,2.36,3.069,1.11,4.105-0.289
c0,0,0.636,2.11,1.27,2.38c0.969,0.409,2.305-0.109,2.762-1.281c0.676-1.742-0.969-2.188-1.332-3.16
c3.479,0.113,7.914,5.199,5.894,9.609c0.267-1.005-0.812-3.259-2.905-2.677c-1.047,0.368-1.41,1.892-0.566,3.458
c0.27,0.503,0.414,0.691,0.414,0.691s-0.907,0.117-1.145,0.266c-2.716,1.671,0.789,6.238,2.809,3.387
c0.207-0.341,0.547-0.73,0.547-0.73c0.332,0.637,0.434,1.531,1.043,1.84c2.507,1.261,3.621-1.402,2.57-2.707
c-0.594-0.734-1.262-1.582-1.262-1.582c-0.105-0.469,7.508,1.527,6.577,8.93l-20.175-0.027c1.871-11.371-2.657-24.383-4.969-28.348
l1-1.324c0.254,0.492,0.668,1.73,1.406,1.965c2.34,0.754,3.055-0.883,2.737-2.563C38.039,195.32,36.785,194.598,36.387,194.469
L36.387,194.469z M41.727,205.171c0.551,0,0.996,0.45,0.996,1c0,0.552-0.445,0.997-0.996,0.997s-0.996-0.445-0.996-0.997
C40.731,205.621,41.176,205.171,41.727,205.171L41.727,205.171z M161.579,214.378c-1.34-1.253-2.824-1.218-4.168-1.069l-0.07,2.816
c0,0,3.32-0.165,2.879,1.559c-0.117,0.336-0.277,1.469-0.277,1.469l-0.043,14.457c0.539,6.354,8.719,7.625,10.738,1.598
c0.387-1.032,0.324-1.965,0.324-3.09v-7.621l2.324-0.047l-0.09-2.707l-2.129,0.031c0.156-3.81-0.504-7.474-3.176-8.344
C164.95,212.543,163.106,213.293,161.579,214.378L161.579,214.378z M168.52,220.882c-1.352,0.246-3.242-2.304-4.797-4.132
c0.711-1.372,2.879-1.125,3.688-0.281C168.583,217.688,168.5,219.941,168.52,220.882L168.52,220.882z M49.301,217.02
c0.555,0,1.004,0.453,1.004,1.008s-0.449,1.008-1.004,1.008c-0.56,0-1.008-0.453-1.008-1.008S48.742,217.02,49.301,217.02
L49.301,217.02z M162.629,219.453c1.426,2.785,5.813,4.925,5.875,4.5l0.027,7.664c0.223,3.074-0.859,4.57-2.805,4.77
c-3.414,0.038-3.375-4.203-3.375-6.563l-0.047-7.571C162.329,221.344,162.219,220.207,162.629,219.453L162.629,219.453z
M162.629,219.453"/>
</svg>
