<?xml version="1.0" encoding="utf-8"?>
<!DOCTYPE svg PUBLIC "-//W3C//DTD SVG 1.1//EN" "http://www.w3.org/Graphics/SVG/1.1/DTD/svg11.dtd" [
<!ENTITY ns_svg "http://www.w3.org/2000/svg">
<!ENTITY ns_xlink "http://www.w3.org/1999/xlink">
]>
<svg version="1.1" id="Layer_1" xmlns="&ns_svg;" xmlns:xlink="&ns_xlink;" width="179.379" height="250.246"
viewBox="0 0 179.379 250.246" overflow="visible" enable-background="new 0 0 179.379 250.246" xml:space="preserve">
<path fill="#FFFFFF" d="M8.903,0.398h161.574c4.711,0,8.504,3.793,8.504,8.504v232.441c0,4.711-3.793,8.504-8.504,8.504H8.903
c-4.711,0-8.504-3.793-8.504-8.504V8.902C0.399,4.191,4.192,0.398,8.903,0.398L8.903,0.398z M8.903,0.398"/>
<path fill="none" stroke="#000000" stroke-width="0.7974" d="M8.903,0.398h161.574c4.711,0,8.504,3.793,8.504,8.504v232.441
c0,4.711-3.793,8.504-8.504,8.504H8.903c-4.711,0-8.504-3.793-8.504-8.504V8.902C0.399,4.191,4.192,0.398,8.903,0.398L8.903,0.398z
M8.903,0.398"/>
<path fill="#E2CF00" d="M129.004,24.406l-64.422,0.313l8.18,15.496c16.742-1.504,31.418-0.164,46.703,0.332L129.004,24.406z
M85.004,78.895c-0.066,0.09-2.68,0.766-2.414,1.359c6.824,14.602,9.871,26.484,12.719,41.496c1.441-1.168,3.77-1.121,3.77-1.121
c-1.148-5.574,5.879-6.27,5.926-0.438c1.348,0.313,2.734,0.316,3.953,1.68c0.578-16.441,6.59-33.754,13.918-45.145
c-8.664,3.43-21.254,11.984-21.254,11.984S91.043,84.344,85.004,78.895L85.004,78.895z M137.66,80.641
c-11.527,10.945-16.039,41.32-15.215,41.738c-14.859-0.496-19.363,15.883-6.48,24.715c-0.512,1.715-1.77,3.109-2.742,4.62
c1.328,0.763,2.777,0.923,4.227,1.082c1.102,1.306,2.18,2.81,3.375,2.931c1.297-0.816,2.219-2.008,3.297-3.043
c1.348-0.345,2.684-0.724,3.961-1.306c-1.133-1.578-2.473-3.175-2.508-4.651c11.199-7.895,9.664-18.629-0.434-24.125
c3.008-18.078,7.395-29.625,12.488-37.836L137.66,80.641z M58.258,94.609c-1.465,0.715-2.266,2.223-3.328,3.406
c-1.457,0.066-2.863,0.563-4.254,1.184c0,0,3.34,4.613,3.133,4.859c-10.832,7.094-10.742,17.461-0.34,24.289
c1.762,14.758-10.781,38.105-11.414,37.43l-0.024,4.824c8.727-9.652,13.668-27.188,14.532-41.59
c17.828-1.184,18.457-18.402,6.187-24.875c-0.945-0.867,3.086-4.867,3.086-4.867c-1.023-1.008-2.734-1.121-4.234-1.246
C60.656,96.895,59.832,95.77,58.258,94.609L58.258,94.609z M133.648,106.523c2.52,5.602,11.727-1.227,13.324,1.758
c1.297,1.691,4.121,1.863,3.969-0.984c-0.531-2.824-2.387-3.449-9.762-2.219c-2.797,0.465-3.941,0.742-3.926-0.531
C135.32,102.211,133.66,105.387,133.648,106.523L133.648,106.523z M142.199,114.699c-2.066,0-2.418,8.078-2.387,10.504
c-5.984,9.449,12.277,8.375,4.379-1.918c0.273-1.344-1.008-3.539-0.973-4.508C142.574,118.695,142.289,115.047,142.199,114.699
L142.199,114.699z M36.926,119.559c-3.238,0.082-6.801,3.055-1.609,7.328c0.347,0.116-0.172,1.02,0.004,2.406
c1.464,3.156,1.07,7.832,2.16,7.113c1.258-0.832,2.308-4.317,2.039-9.188c-0.02-0.32-0.442-0.661-0.364-1.005
C42.071,121.406,39.61,119.488,36.926,119.559L36.926,119.559z M70.063,128.609c-0.832,15.781-4.699,31.262-13.461,44.687
c7.543-3.511,14.863-8.046,21.945-11.929l16.559,10.242c0.957-0.414,1.621-0.621,2.258-1.246
c-7.628-11.156-9.993-27.211-13.316-41.735c-1.266,0.896-3.644,1.349-3.644,1.349c-0.168,5.035-5.454,6.668-6.536,0.098
L70.063,128.609z M30.106,140.921c-1.766,0.11-3.094,4.481,1.906,5.129c3.531,0.501,8.051-1.237,10.293-0.433
c2.609,4.156,4.949-1.965,1.465-2.961c-3.742-1.074-11.367,1.722-12.207-0.653C31.129,141.191,30.598,140.891,30.106,140.921
L30.106,140.921z M60.133,209.27l-9.988,17.637L114,226.523l-8.348-16.824C105.793,209.516,77.762,213.031,60.133,209.27
L60.133,209.27z M60.133,209.27"/>
<path fill="#D40000" d="M73.989,41.727l1.039,2.473c13.714-1.656,28.066-3.375,42.429,0.277c0,0,1.055-2.289,1.039-2.453
C105.109,38.621,75.176,39.504,73.989,41.727L73.989,41.727z M87.867,76.473l13.055,8.441c0,0,6.25-4.414,8.914-6.285l-1.617-2.375
c-5.52,12.168-15.223,2.547-18.863-3.18C89.356,73.074,88.367,75.293,87.867,76.473L87.867,76.473z M122.926,80.559
c0.902-0.02,1.406,0.328,1.859,1.25c0.512,1.039,0.711,0.781,0.379-0.516c-0.52-2.043,1.652-3.371,3.695-2.008
c1.477,0.984,1.414,3.371-0.199,3.813c-1.305,0.355-1.34,0.695-0.195,0.641c2.055-0.098,2.602,2.641,1.141,3.98
c-1.68,1.543-3.824,0.449-4.02-1.484c-0.09-0.547-0.203-0.539-0.387-0.227c-0.516,0.891-0.566,2.051-0.465,3.098l-3.035-1.883
c1.082-0.535,1.738-0.855,2.52-1.668c0.105-0.105,0.18-0.184,0.18-0.23c0-0.082-0.34,0.027-0.957,0.094
c-1.832,0.191-3.246-0.996-2.867-2.723C120.895,81.227,121.652,80.586,122.926,80.559L122.926,80.559z M109.543,128.18
c3.301-3.777,7.398-6.199,13.098-5.863c0.723-15.82,6.211-29.891,15-42.566l-9.668-5.813l-3.879,2.34
C114.766,89.508,109.035,106.293,109.543,128.18L109.543,128.18z M37.074,91.207c0,0-6.543,4.898-9.585,7.266l0.148,43.633
l0.844,0.289c0.062,0.094-0.075-0.648,0.316-0.988c0.317-0.274,0.817-0.59,1.117-0.696c0.84-0.308,0.879-0.866,0.094-1.354
c-0.609-0.375-0.844-0.957-0.773-1.922c0.05-0.684,0.019-0.832-0.262-1.293c-0.356-0.578-0.383-1.306-0.086-2.059
c0.141-0.352,0.129-0.445-0.121-0.918c-0.317-0.605-0.356-1.254-0.117-1.954c0.09-0.269,0.152-0.851,0.144-1.304
c-0.031-1.738,1.403-2.891,4.055-3.254c1.035-0.142,1.066-0.185,0.59-1.051c-2.684-4.902,3.347-7.457,3.797-6.672L37.074,91.207z
M119.645,93.641c2.449-0.035,4.465,1.918,4.5,4.367s-1.922,4.461-4.371,4.496c-2.449,0.039-4.461-1.918-4.5-4.367
C115.238,95.688,117.195,93.676,119.645,93.641L119.645,93.641z M119.688,94.43c-1.961,0.031-3.527,1.641-3.496,3.602
c0.027,1.961,1.637,3.531,3.598,3.5c1.961-0.027,3.531-1.641,3.504-3.602C123.262,95.969,121.648,94.402,119.688,94.43
L119.688,94.43z M119.777,95.559c1.332-0.02,2.426,1.039,2.445,2.371c0.02,1.328-1.043,2.426-2.375,2.445
c-1.328,0.02-2.422-1.047-2.441-2.375C117.391,96.668,118.449,95.578,119.777,95.559L119.777,95.559z M31.746,97.379
c0.18-0.004,0.371,0.023,0.567,0.086c1.105,0.352,1.492,1.324,0.894,2.246c-0.472,0.727-0.418,0.789,0.407,0.48
c0.648-0.238,0.976-0.164,1.488,0.34c1.531,1.516-0.75,4.063-2.246,2.52c-0.742-0.762-0.813-0.539-0.297,0.773
C32.723,104.25,33,104.91,33,104.91l-2.199-0.031c0,0,0.344-0.875,0.5-1.289c0.379-0.996,0.395-1.141-0.398-0.516
c-1.789,1.414-3.813-1-2.168-2.582c0.332-0.32,0.871-0.336,1.617-0.043c0.543,0.215,0.609,0.066,0.199-0.445
C29.664,98.887,30.485,97.402,31.746,97.379L31.746,97.379z M77.262,101.289c-0.895,5.848-0.113,14.051-0.133,18.438
c2.379,0.453,2.406,2.074,2.774,4.09c1.156-0.402,3.687,1.309,4.035,1.156C84.199,119.039,81.114,101.82,77.262,101.289
L77.262,101.289z M116.77,107.148c3.379,0.27,2.73,2.883,1.727,3.953c-0.477,0.551-0.391,0.797,0.133,0.48
c1.43-0.859,2.563-0.238,3.023,1.246c0.785,2.539-2.551,4.727-4.039,2.449c-0.504-0.773-0.813-0.598-0.691,0.211
c0.078,0.777,0.836,2.391,0.836,2.391l-3.316-0.297c0,0,1.016-1.688,1.191-2.141c0.371-0.941,0.176-1.195-0.531-0.434
c-2.074,1.898-4.949-0.531-3.609-3.051c0.66-1.238,1.875-1.641,3.191-0.652c0.887,0.578,1.078,0.328,0.285-0.375
C113.488,109.621,114.777,106.988,116.77,107.148L116.77,107.148z M31.906,109.223c0.04-0.004,0.075-0.004,0.114-0.004
c0.285,0.008,0.582,0.086,0.879,0.25c0.824,0.465,1.05,1.379,0.535,2.176c-0.297,0.457-0.211,0.746,0.133,0.445
c0.464-0.398,1.484-0.133,1.882,0.488c1.024,1.602-0.976,3.699-2.25,2.367c-0.566-0.59-0.781-0.613-0.714-0.227
c0.183,0.723,0.66,1.961,0.66,1.961l-2.297,0.043c0,0,0.496-1.305,0.605-1.965c0.086-0.523-0.121-0.445-0.672,0.172
c-0.531,0.602-1.015,0.664-1.691,0.215c-1.676-1.109-0.336-3.961,1.41-3.004c0.602,0.332,0.688,0.141,0.219-0.48
C29.879,110.551,30.735,109.277,31.906,109.223L31.906,109.223z M151.156,108.203c-3.715,3.844-2.551,1.57-0.828,4.5
c0.008,1.93,1.137,3.441,0.242,6.488c-0.285,0.598-0.313,0.879-0.156,1.477c-0.27,3.367-2.969,3.324-5.59,3.848
c0.434-0.027,4.152,6.844-2.785,7.383l0.078,27.934l10.883-8.02l-0.047-43.609H151.156z M69.5,122.953
c-3.086,1.988-7.418,6.957-12.871,5.879c-0.656,17.43-6.379,30.921-14.539,42.52c2.816,1.664,5.918,3.664,8.801,4.944
c2.433-1.253,3.805-1.776,6.195-3.745C66.895,157.398,70.004,140.832,69.5,122.953L69.5,122.953z M95.117,126.14
c0.551,8.954,2.008,17.431,6.664,24.231l0.313-19.023c-1.656-0.398-3.02-1.47-3.5-4.513L95.117,126.14z M61.461,131.421l3.113,0.075
c0,0-0.707,1.406-1.011,2.191c-0.371,0.961-0.196,1.156,0.511,0.488c0.926-0.867,2.399-0.949,3.172-0.173
c2.055,2.06-0.093,5.418-2.527,3.946c-1.039-0.633-1.215-0.422-0.391,0.472c1.61,1.493-0.07,3.638-1.949,3.649
c-1.355-0.008-2.238-1.094-2.344-2.289c-0.05-0.75,0.325-1.508,0.981-1.875c0.68-0.383,0.191-0.629-0.547-0.23
c-2.418,1.297-4.031-2.039-2.211-3.938c1.051-1.098,2.164-0.996,3.231,0.051c0.746,0.73,1.015,0.664,0.804-0.2
C62.082,132.617,61.461,131.421,61.461,131.421L61.461,131.421z M145.457,134.043h2.23c-0.223,0.555-0.504,1.117-0.684,1.66
c-0.191,0.593-0.051,0.672,0.539,0.098c1.539-1.031,3.176,0,2.844,1.633c-0.23,1.129-1.172,1.68-2.266,1.191
c-0.961-0.434-0.652-0.247-0.105,0.41c0.652,0.785,0.484,1.695-0.375,2.3c-1.52,1.071-3.531-0.707-2.523-2.257
c0.594-0.922,0.32-0.821-0.219-0.375c-0.813,0.593-2.039-0.246-2.063-1.41c-0.094-1.676,1.598-2.622,2.789-1.434
c0.57,0.476,0.711,0.418,0.453-0.277C145.844,135.078,145.77,134.539,145.457,134.043L145.457,134.043z M145.574,146.223l2.34-0.023
c0,0-0.035,0.176-0.395,0.852c-0.422,0.797-0.359,1.617,0.082,1.059c0.746-0.941,2.328-0.676,2.848,0.473
c0.605,1.339-0.574,2.824-1.797,2.262c-0.793-0.367-0.848-0.289-0.32,0.473c0.516,0.746,0.285,1.656-0.547,2.19
c-1.645,1.048-3.609-1.043-2.242-2.382c0.363-0.359,0.25-0.531-0.195-0.293c-1.809,0.984-3.145-1.461-1.578-2.895
c0.664-0.609,1.176-0.57,2.273,0.188c0.34,0.238,0.406-0.004,0.16-0.605C145.785,146.5,145.574,146.223,145.574,146.223
L145.574,146.223z M58.836,147.691c2.602-0.039,4.738,2.035,4.778,4.637c0.035,2.602-2.04,4.742-4.641,4.777
c-2.602,0.039-4.742-2.039-4.777-4.642C54.156,149.863,56.235,147.727,58.836,147.691L58.836,147.691z M58.891,148.531
c-2.137,0.031-3.844,1.785-3.813,3.922c0.032,2.136,1.789,3.843,3.926,3.813c2.137-0.031,3.844-1.789,3.813-3.927
C62.785,150.203,61.028,148.5,58.891,148.531L58.891,148.531z M58.934,150.016c1.316-0.02,2.394,1.03,2.414,2.344
c0.019,1.316-1.027,2.402-2.344,2.418c-1.316,0.019-2.398-1.031-2.418-2.348C56.567,151.113,57.621,150.035,58.934,150.016
L58.934,150.016z M53.016,161.425l2.719,1.328c0,0-1.286,1.048-1.797,1.586c-0.657,0.692-0.61,1.021,0.273,0.688
c1.684-0.637,3.371,0.312,3.403,2.062c0.042,2.332-2.719,3.454-4.043,1.688c-0.395-0.527-0.864-0.742-0.68-0.317
c0.449,1.047,0.176,2.36-0.606,2.899c-0.625,0.434-1.769,0.562-2.347,0.262c-1.985-1.027-2.086-3.316-0.188-4.219
c0.953-0.453,0.985-0.879,0.047-0.646c-1.953,0.485-3.094-1.879-1.683-3.504c1.496-1.722,3.933-1.366,4.203,1.185
c0.047,0.453,0.359,0.125,0.496-0.57C52.977,163.352,53.016,161.425,53.016,161.425L53.016,161.425z M78.356,165.262
c0,0-9.957,5.664-9.653,5.902c0.059,0.035,2.207,3.055,2.207,3.055c4.938-11.188,16.766-1.923,18.661,3.793
c0.41,0.25,0.48,0.18,0.925,0.379c0.043-0.402,0.864-4.371,0.864-4.371L78.356,165.262z M62.391,206.402
c-0.5,0.625-2.168,2.394-1.957,2.461c14.629,3.144,29.715,2.894,45.074,1.226l-1.172-3.687
C89.172,210.266,62.391,206.402,62.391,206.402L62.391,206.402z M62.391,206.402"/>
<path fill="#131F67" d="M25.453,22.941l0.899,205.66l128.383-0.453l-0.77-205.453L25.453,22.941z M64.5,24.406l64.031-0.262
c-3.004,7.797-11.652,20.117-11.242,20.145c-13.32-2.199-27.05-3.309-42.406-0.031L64.5,24.406z M26.938,24.91l35.933-0.047
l11.848,21.242c0,0,0.699,1.324,0.281,2.711c-0.453,1.512-0.844,2.184-1.25,2.957c0.039-0.441-3.418-0.879-3.129,2.082
c0.2,2,2.731,3.133,4.621,1.578c0.301-0.027,0.297,0.254,0.231,0.742c-0.172,1.148-1.391,4.789-2.227,5.031
c-4.254-3.488-5.773,2.879-2.906,4.152c1.664,0.734,4.215,0.125,5.41-1.871c0.914-1.527,0.813-1.273,1.098,0.578
c0.109,0.691,0.262,1.488,0.34,1.848c0.242,1.125,0,1.344-1.891,1.852c-1.523,0.594-3.066,0.922-4.633,1.258
c-2.871,0.473-4.336,2.637-4.406,5.266c-0.016,0.57,0.004,0.832-0.117,1.004C54.008,79.895,41.117,86.34,27.594,97.34L26.938,24.91z
M108.402,75.348c-0.457-0.746-1.926-4.648-2.332-6.273c-1.051-7.895-1.25-17.266-2.375-24.609l1.48,0.164
c0,0,0.559,2.129,1.156,7.875c0.297,2.848,0.609,8.773,0.855,11.496c0.375,4.043,2.203,10.512,3.336,12.145
c1.848,2.664,5.559,0.941,4.316-2.219c-0.645-1.641-3.137-1.375-2.793,0.328c0.008,0.301,0.238-0.219,0.602-0.539
c1.078-0.406,2.293,0.715,1.66,2.066c-0.785,1.723-3.113,0.938-3.883-1.238c-0.922-2.598,2.184-4.543,4.504-2.961
c2.59,1.766,2.594,6.238,0.512,7.648C111.934,80.512,109.547,77.957,108.402,75.348L108.402,75.348z M117.074,78.637
c-0.141-0.086,0.004-0.355,0.176-1c0.652-2.414,0.242-4.301-1.32-6.074c-0.871-0.988-1.195-1.164-0.742-1.344
c0.969-0.379,3.102,1.172,3.688,2.695c0.578,1.496,0.723,3.043-0.09,4.734C118.219,78.012,117.336,78.738,117.074,78.637
L117.074,78.637z M119.715,77.027c0-0.281,0.188-1.172,0.234-1.609c0.168-1.684-0.621-3.391-2.012-4.73
c-1.172-1.121-1.277-1.238-0.172-1.254c2.855-0.051,4.676,4.566,3.359,6.84C120.785,76.633,119.75,77.371,119.715,77.027
L119.715,77.027z M122.133,75.465c0.84-3.934-2.965-6.555-3.039-6.434c0.188-0.879,1.699-0.375,2.215-0.031
c1.922,1.293,3.027,4.668,1.848,6.586c-0.129,0.238-0.285,0.371-0.492,0.5c-0.398,0.25-0.633,0.449-0.711,0.273
C121.891,76.227,122.109,75.656,122.133,75.465L122.133,75.465z M88.653,62.703c0.398-0.391,0.519-0.402,1.281-0.113
c2.395,0.902,4.309-0.816,3.742-2.621c-0.203-0.652-1.102-1.363-1.652-1.418c-0.902-0.094-0.922,0.383,0.051,0.746
c1.195,0.445,1.316,1.711,0.266,2.285c-1.238,0.832-3.262-1.285-4.746-1.105c-0.707,0.211-1.16,0.875-0.758,1.688
C87.153,62.73,88.223,63.074,88.653,62.703L88.653,62.703z M86,62.445c-0.832-0.387-1.148-0.379-0.988-1.285
c0.102-0.598,0.953-4.609,1.359-6.16c1.207-4.648,0.071-7.223-3.355-8.262c-2.324-0.703-4.324-0.344-6.692,0.914l-0.425-1.313
c9.922-2.598,26.859-2.023,26.8-1.922c0.332,1.336,0.461,2.672,0.59,4.008c0,0-3.172-1.555-4.828-2.074
c-2.551-0.781-6.582,0.074-7.293,1.539c-0.406,0.828-0.195,1.383,1.516,0.461c2.805-1.512,8.535-0.359,10.551,1.242
c0.469,0.367,0.445,0.449,0.453,0.883c0.012,0.656,0.051,0.695-0.867,0.207c-4.813-2.461-8.926-2.176-10.344,1.055
c-0.328-0.098-1.578-0.313-1.578-0.313l1.344,1.98l0.254,2.074c0,0,2.188,1.215,3.395,1.73c1.191,0.5,0.504-0.035-0.953-1.051
c-1.07-0.742-0.219-0.98,0.488-0.695c1.453,0.332,3.578,0.754,6.035-0.805c0.762-0.484,2.512-0.066,2.539,0.152
c0,0,0.23,1.816,0.465,5.602c0.109,1.789,0.328,4.129,0.453,5.09c0.379,2.898,0.488,3.063-1.039,1.672
c-0.512-0.465-1.367-1.238-1.375-1.191c-0.195,0.898,2.059,2.477,2.582,3.02c0.797,0.824,1.434,2.93,1.117,3.055
c-0.203,0.078-2.344-1.734-4.027-3.367c-0.629-0.609-1.57-1.43-1.598-1.402c-0.348,0.23,1.066,1.828,2.391,3.02
c1.547,1.395,1.727,1.52,1.207,1.727c-0.961,0.391-1.824-0.094-4.152-2.02c-0.227-0.188-1.109-0.813-1.148-0.766
c-0.215,0.281,1.934,2.316,2.422,2.492c0.906,0.324,1.168,1.199,0.453,1.543c-0.477,0.23-2.254-0.746-3.68-1.98
c-0.258-0.223-0.965-0.598-1.012-0.547c-0.281,0.184,1.309,1.559,2.832,2.477c1.488,0.895,1.727,1.117,1.348,1.859
c-0.355,0.77-3.621-1.008-5.258-2.836c-0.348-0.391-0.621-0.559-0.551-0.426c0.711,1.969,3.055,3.383,4.797,3.945
c0.309,0.102,0.762,0.23,0.965,0.391c0.496,0.395,0.383,0.805-0.152,1.035c-1.859,0.52-4.789-1.73-6.883-4.086
c-0.242-0.102-0.098,0.207-0.035,0.309c1.746,2.789,5.094,4.914,7.109,4.516c1.18-0.23,2.129,0.125,2.137,0.52
c0.008,0.324-0.641,0.84-1.91,0.93c-2.867,0.207-7.348-2.93-9.969-6.926c-0.082-0.125-0.18-0.172-0.184-0.094
c-0.07,0.844,1.559,2.922,2.809,4.109c3.711,3.531,7.223,4.723,9.961,2.734c1.543-1.195,3.035-3.813,0.738-4.688
c-1.219-0.461-1.992,1.215-0.949,0.738c1.371-0.168,1.68,0.559,1.5,1.242c-0.348,1.172-1.508,1.359-2.453,0.867
c-1.641-0.891-1.293-3.941,0.836-4.473c1.914-0.465,3.586,1.16,3.809,2.703c0.34,2.391-2.359,4.984-4.527,5.629
c-7.387,2.195-13.157-8.07-13.191-8.301c-0.371-0.715-0.816-1.09-1.097-0.258c-0.301,1.203-1.969,4.734-2.864,4.711
c0.278-1.246,1.449-3.34,1.164-5.172c-0.492,1.504-1.531,4.719-3.519,6.43c-0.516,0.473-2.031,1.023-0.989-0.184
c1.258-1.77,2.903-4.184,2.563-6.453c-0.336,0.508-0.516,1.801-0.898,2.652c-0.954,2.133-3.043,4.668-4.418,5.078
c-1.02,0.301-0.922-0.043,0.117-1.137c1.117-1.176,3.094-4.629,2.965-6.117c-0.059-0.656-2.051,5.684-5.801,7.422
c-1.012,0.367-1.586-0.098-1.586-0.098c1.473-0.848,5.543-4.859,5.16-9.418c0,0-0.219,0.676-0.539,1.688
c-1.379,4.352-4.344,7.211-6.656,7.449c-1.844,0.188-3.133-0.559-2.676-0.887c2.394,0.02,4.359-0.809,5.894-3.141
c1.563-2.367,2.141-6.176,1.196-10.203C77,61.66,76.813,58.395,76.516,54.902c2.621,0.895,5.258,1.488,7.808,0.492
c-0.257,1.039-0.683,1.168-1.355,1.957c-0.488,0.574-0.32,0.711,1.586-0.637c0.555-0.391,0.754-0.707,0.855-0.602
c0.161,0.172-0.093,1.242-0.648,3.379c-0.828,3.195-0.613,3.422,2.457,4.625c0.574,0.227,0.785,0.445,0.988,0.684
c0.094,0.113,0.598,1.02,0.645,1.051c0.109,0.074,0.082-0.922,0.019-1.176c-0.164-0.672-0.527-1.176-0.843-1.375
C87.426,62.746,86.555,62.699,86,62.445L86,62.445z M143.934,104.105l0.031-3.316l3.223,2.289l-0.039,1.094L143.934,104.105z
M138.426,104.828l-0.117-61.344c0,0,2.473-1.645,3.711-2.457c0.77,2.43,0.766,7.648,0.477,9.969
c-0.484,1.512-0.699,8.242-0.152,11.668c0.438,2.73,0.359,7.246-0.055,9.406c-0.16,0.848-0.039,4.805,0.266,8.465
c0.23,2.797,0.164,5.34-0.172,6.797c-0.266,1.148-0.176,5.258,0.129,6.836c0.445,2.32,0.523,9.773,0.324,10.18
C142.305,104.949,138.148,105.031,138.426,104.828L138.426,104.828z M143.324,40.633c0,0,2.492,1.645,3.695,2.465l0.016,2.645
l-3.602-2.352L143.324,40.633z M106.148,44.902l1.539,0.094c0.613,3.195,0.879,6.828,1.125,10.469
c0.078,5.613,0.77,11.531,2.09,15.414l-1.133,1.188c-1.93-4.449-2.082-11.461-2.512-16.211
C107.07,50.516,106.191,44.938,106.148,44.902L106.148,44.902z M143.625,44.344l3.352,2.266l0.035,2.875l-3.375-2.238
L143.625,44.344z M108.371,45.113l1.352,0.148c0.41,3.789,1.043,6.363,1.281,10.543c0.313,5.402,1.25,9.84,1.832,14.063
l-1.016,0.336c-0.676,0.313-1.801-4.676-2.301-14.789C109.367,52.355,108.848,48.914,108.371,45.113L108.371,45.113z
M110.418,45.254l1.613,0.289c0.715,9.602,1.844,18.617,3.027,23.785l-1.406,0.094C111.91,62.035,111.797,53.492,110.418,45.254
L110.418,45.254z M112.75,45.594l1.484,0.258c1.785,21.957,2.887,21.672,3.234,22.535l-1.609,0.652
C114.125,62.73,113.773,53.836,112.75,45.594L112.75,45.594z M119.492,67.16c-0.254,0.738-0.855,0.672-1.516,0.746
c-0.734-2.016-1.164-4.422-1.473-6.777c-0.676-5.172-0.922-10.023-1.629-15.125l1.773,0.18
C116.59,46.223,117.906,64.188,119.492,67.16L119.492,67.16z M81.383,47.863c2.336,0.113,4.273,1.16,4.461,2.691
c0.039,0.348-0.234,0.18-0.551-0.063c-2.008-1.539-4.289-2.02-7.051-1.027c-0.601,0.219-1.093,0.559-1.359,0.512
c-0.242-0.156-0.316-0.527-0.133-0.836C77.395,48.063,80.231,47.809,81.383,47.863L81.383,47.863z M75.973,50.941
c0.047,2.418-0.539,3.75-1.809,4.313c-1.531,0.672-3.496-0.773-2.539-2.387c0.719-1.223,1.961-0.855,2.196,0.43l1.945-4.332
C75.766,48.965,75.965,50.336,75.973,50.941L75.973,50.941z M147.039,50.555l-0.023,2.492l-3.59-2.398l0.242-2.398L147.039,50.555z
M83.348,50.23c1.769,0.699,2.418,1.555,2.484,1.938c-0.105,0.281-0.281,0.09-1.57-0.609c-1.992-1.219-4.582-1.418-6.863,0.129
c-0.567,0.113-0.625-0.207-0.055-0.82C79.078,49.508,81.477,49.488,83.348,50.23L83.348,50.23z M96.781,49.762
c1.555-0.047,3.414,0.348,4.988,1.137c0.691,0.348,1.316,0.566,1.77,0.965c0.363,0.191,0.391,1.012,0.125,1.074
c-0.234,0.031-0.625-0.152-1.203-0.555c-3.734-2.426-6.422-2.129-8.578-0.637c-0.121,0.082-0.492,0.168-0.641,0.156
c-0.41-0.031-0.43-0.199-0.258-0.422C93.98,50.352,95.477,49.809,96.781,49.762L96.781,49.762z M143.438,51.508l3.598,2.516v2.473
l-3.828-2.66L143.438,51.508z M78.489,52.512l0.527,0.016c1.223,2.969,2.762,1.438,3.398,0.25l0.641,0.105
C82.051,56.855,77.977,54.777,78.489,52.512L78.489,52.512z M77.594,52.906c0.598,0.074,0.574,0.746,0.762,1.234
c0.414,1.098-1.164,0.168-1.434-0.098C76.465,53.563,77.117,52.957,77.594,52.906L77.594,52.906z M95.402,52.793
c1.555,2.359,2.449,0.961,3.332-0.066l0.422,0.137c-0.113,1.691-2.965,3.5-4.316-0.031L95.402,52.793z M100.176,53.059
c0.164,0.004,0.5,0.121,0.805,0.246c0.848,0.344,0.805,0.594-0.137,1.012c-1.504,0.668-2.023,0.754-1.574-0.188
C99.527,53.695,99.699,53.125,100.176,53.059L100.176,53.059z M94.281,53.418c0.379,0.277,0.625,0.586,0.668,1.086
c0.031,0.352-1.141-0.055-1.141-0.613C93.848,53.531,94.039,53.242,94.281,53.418L94.281,53.418z M83.883,53.555
c0.773,0.285,0.68,0.652,0.145,0.984c-0.965,0.539-1.379,0.434-0.754-0.414C83.559,53.734,83.621,53.563,83.883,53.555
L83.883,53.555z M143.195,54.797l3.898,2.738l-0.035,2.516l-3.895-2.652C142.984,56.32,143.156,55.594,143.195,54.797
L143.195,54.797z M75.86,58.691c0.183,0.004,0.254,0.613,0.3,1.508c0.071,1.484-1.441,3.551-2.968,4.262
c-1.84,0.859-3.809-0.344-3.481-2.125c0.305-1.645,2.637-1.711,2.727-0.195c-0.227,0.398,0.09,0.734,0.222,0.699
c0.598-0.16,2.016-1.434,2.59-2.859c0.223-0.555,0.36-1.125,0.52-1.254C75.801,58.699,75.832,58.688,75.86,58.691L75.86,58.691z
M143.094,58.227l3.891,2.84l0.02,2.5l-3.863-2.656C142.988,59.797,143.055,59,143.094,58.227L143.094,58.227z M95.844,62.184
c-0.293,0.492-0.051,1.379,0.551,0.625c1.555-1.805,3.801,0.453,2.598,1.891c-1.09,1.301-2.434,0.883-5.27-0.199
c-2.066-0.789-2.391-0.52-2.898,0.051c-0.421,0.469-0.207,1.41,0.336,1.398c1.676,0.383,3.125,0.75,4.855,1.113
c3.664,0.75,5.895-3.969,2.551-5.699C97.766,60.949,96.109,61.488,95.844,62.184L95.844,62.184z M79.684,62.727
c-1.43,1.281-0.258,4.645,1.844,4.945c0.441,0.063,1.097,0.043,1.843-0.172c1.473-0.422,3.094-1.293,3.16-1.801
c0.301-2.305-3.128-0.238-3.582,0.035c-1.082,0.656-2.226,0.57-2.8-0.207c-1.301-1.758,1.027-3.773,2.441-1.625
c0.359,0.543,0.231-0.375-0.156-1C81.883,62.02,80.465,62.078,79.684,62.727L79.684,62.727z M143.352,62l3.656,2.586l-0.02,2.406
l-3.547-2.559L143.352,62z M143.625,65.523l3.465,2.492l0.059,2.5l-3.637-2.395C143.582,67.223,143.602,66.375,143.625,65.523
L143.625,65.523z M124.191,66.957c3.047,0.051,4.766,4.555,3.16,6.426c-0.48,0.559-0.859,0.707-1.078,0.5
c-0.047-0.043,0.031-0.547,0.063-1.117c0.098-1.816-0.285-3.059-1.613-4.438C123.727,67.297,123.348,66.977,124.191,66.957
L124.191,66.957z M86.668,67.676c-0.578,0.207-1.187,0.621-1.656,0.52c-0.465-0.102-0.691,0.129-0.871,0.492
c-0.699,1.398-0.485,1.852,0.898,1.059c0.657-0.379,0.887-0.242,2.645,0.09c1.254,0.234,2.105,0.211,3.211-0.074
c1.375-0.355,2.191-0.383,2.887-0.004s1.168,0.902,1.188,0.477c-0.078-0.5-0.512-1.773-0.613-2.199
c-0.047-0.203-0.391-0.023-0.711,0c-1.141,0.082-2.496-0.941-3.375-0.398c-0.703,0.43-0.797,0.547-1.762-0.02
C87.789,67.195,87.289,67.453,86.668,67.676L86.668,67.676z M123.371,67.988c2.066,1.723,2.594,3.254,2.395,4.508
c-0.105,0.91-0.172,1.918-1.066,2.469c-0.164,0.078-0.41,0.129-0.637,0.16c0.691-2.59-0.125-4.91-3.043-7.387
C121.867,67.316,122.734,67.457,123.371,67.988L123.371,67.988z M76.828,67.984c0.094,0,0.196,0.016,0.297,0.051
c0.36,0.117,0.414,1.055,0.133,1.348c-0.281,0.293-0.508,0.051-0.836-0.695C76.18,68.281,76.434,67.984,76.828,67.984L76.828,67.984
z M74.926,68.715c0.75-0.016,1.039,0.672,1.168,1.223c0.109,0.469-0.031,1.867-0.43,1.379c-0.097-0.297-0.504-1.25-0.832-1.5
C74.102,69.266,74.176,68.73,74.926,68.715L74.926,68.715z M72.805,69.41c0.109-0.004,0.25,0.008,0.422,0.039
c1.176,0.195,2.078,2.066,1.804,3.129c-0.625,1.145-0.855,0.375-1.058-0.664c-0.164-0.43-0.645-1.102-0.938-1.449
C72.422,69.746,72.324,69.422,72.805,69.41L72.805,69.41z M143.523,68.863l3.582,2.566l0.004,2.75l-3.746-2.52
C143.445,70.699,143.488,69.777,143.523,68.863L143.523,68.863z M70.477,69.977c1.754,0.004,3.25,2.043,2.699,4.012
c-0.687,2.047-4.102,1.609-3.535-0.434c0.164-0.586,0.793-1.02,1.39-0.648c0.868,0.531,0.77-0.336,0.223-0.641
c-0.848-0.477-2.015-0.188-2.277,0.77c-0.906,3.348,3.394,4.484,5.734,1.031c0.856-1.262,1.785-2.613,2.301-3.191
c0.461-0.516,0.559-0.465,0.484,0.203c-0.297,3.109-2.465,6.992-6.527,6.781c-3.949-0.375-5.184-4.566-2.203-7.18
c0.504-0.441,1.031-0.656,1.543-0.695C70.364,69.98,70.418,69.977,70.477,69.977L70.477,69.977z M91.406,70.148
c-1.445,0.699-2.757,0.965-4.18,0.344c-1.051-0.457-1.035,0.039-0.578,0.449c1.32,1.125,3.726,0.613,4.753-0.02
C91.738,70.719,91.848,70.121,91.406,70.148L91.406,70.148z M147.117,75.113l0.012,2.5l-4-2.68
c-0.063-0.598,0.004-1.504,0.137-2.441L147.117,75.113z M143.262,75.949l3.809,2.508l0.098,2.477l-3.699-2.293L143.262,75.949z
M143.527,79.422l3.637,2.516l0.051,2.703l-3.602-2.371L143.527,79.422z M54.844,82.266l-2.227,6.723l1.457,0.09l0.985,1.773
l1.012-1.82l1.531-0.113L54.844,82.266z M143.68,83.16l3.504,2.41l0.055,2.496l-3.645-2.516L143.68,83.16z M143.535,86.219
l3.594,2.594l0.074,2.652l-4.074-2.711L143.535,86.219z M63.141,87.719l-2.203,7.199l1.242-0.168l1.164,1.926l1.172-1.73
l1.113,0.063L63.141,87.719z M46.551,88.254l-2.098,7.156l1.407-0.004l1.187,1.805l1.043-1.742l1.594-0.043L46.551,88.254z
M143.07,89.57l4.215,2.961l0.035,2.816l-4.086-2.738L143.07,89.57z M147.238,96.262l0.047,2.465l-3.551-2.523l-0.383-2.738
L147.238,96.262z M71.957,96.688l-2.574,7.27l1.727,0.016l1.046,1.746l0.84-1.754l1.387,0.016L71.957,96.688z M143.969,97.41
l3.293,2.258l-0.027,2.531l-3.238-2.172L143.969,97.41z M81.578,126.839l-1.875-1.804c-0.023-0.148,1.536-0.902,2.493-0.422
c1.265,0.633,1.918,2.914,0.5,4.113c-1.129,0.953-2.848,0.16-2.883,0.047L81.578,126.839z M79.91,123.867
c0.036-2.785-1.433-3.5-2.644-4.066c0,0-0.203-17.641-0.176-18.168c0,0.074-0.312-1.91-0.348-2.027l-0.293-0.078
c0.055,1.789,0.168,20.125,0.141,20.242c-2.269,0.262-2.902,1.797-3.109,3.863c-1.77-0.133-2.922,0.93-2.957,1.109
c-0.653-0.898-0.129-2.098-0.645-3.035c-2.25,7.125,3.996,9.273,4.106,8.339c0.429,5.267,6.23,6.22,6.035-0.171
C87.039,129.464,84.66,123.012,79.91,123.867L79.91,123.867z M46.934,101.715l-2.543,7.125l1.781-0.203l0.649,1.316
c2.855-2.516,4.293,1.367,2.843-1.965L46.934,101.715z M143.531,114.391c0.328-0.023,0.762,0.273,0.848,0.676
c0.063,1.203-1.555,0.934-1.605,0.172C142.734,114.699,143.223,114.414,143.531,114.391L143.531,114.391z M144.59,122.215
c0.695-0.574,1.805-0.25,1.824,0.613c0.016,0.762-0.859,1.016-1.547,0.586C144.363,123.223,144.305,122.484,144.59,122.215
L144.59,122.215z M144.688,124.336c3.82,0.289,6.664-2.305,5.445-4.168c1.027-1.293,0.191-2.031,0.473-2.773
c0.809-0.832,0.129-2.617-0.074-2.625c-0.164-2.398-0.863-2.707-1.898-3.988c-0.313-0.367,0.727-0.73,1.125-1.367
c-1.055,0.406-2.094-0.379-2.086-0.559l-0.453-0.559c-7.074,0.332-13.43,0.824-13.188,10.422c-1.02,4.07,0.707,7.7,5.645,6.578
c1.082-0.965,0.367-2.367,0.234-3.039c-0.422-1.852,0.066-3.055,0.203-3.922c0.422-2.68,2.387-5.172,2.598-0.965
c0.348-0.531,0.184-0.609,0.754-0.828c1.355-0.488,1.352,0.883,1.074,1.438c-0.18,0.281-0.445,0.258-0.723,0.227
c-0.395-0.047-0.91-0.191-0.918-0.336c-0.105,0.434,0.715,1.246,0.629,1.656c-0.105,0.406-0.105,0.402,0.18,0.086
c1.727-1.188,2.77,1.516,0.309,1.207C145.23,121.469,143.434,123.363,144.688,124.336L144.688,124.336z M142.168,109.691
c1.34-0.066,1.664-0.082,1.602,0.625c0.254,1.297,0.578,1.902,2.273,1.766c1.707-0.223,2.25-0.328,0.531,0.703
c-0.867,0.383-1.148,0.457-2.18,0.363c-1.035-0.094-0.957-0.199-1.551,0.156c-0.328,0.195-0.691,0.438-0.961,0.488
c-0.398,0.07-1.098,0.223-1.098,0.223c-0.402,2.02-1.008,3.035-1.844,3.992c-1.184,1.348-1.785,1.582-0.332,1.48
c0.535,0.031,0.258-0.234,0.492,1.941c0.082,0.762,0.223,1.645,0.336,1.941c0.379,0.988,0.43,1.48-1.004,1.551
c-3.578,0.273-4.414-3.211-3.938-4.988c0.039-0.281,0.203-1.207,0.238-1.941c0.02-0.402-0.063-0.742-0.051-1.152
c0.082-3.32,0.867-4.191,3.813-6.352C139.387,109.84,140.98,109.707,142.168,109.691L142.168,109.691z M145.313,109.871
c1.648-0.035,3.246,0.758,2.449,1.273c-0.516,0.332-2.371,0.195-2.887-0.172C144.207,110.5,144.457,109.887,145.313,109.871
L145.313,109.871z M71.653,112.688l-0.657,1.16l-0.683,5.398l0.121,1.098l1.351,1.77l1.071-1.836l1.683,0.031L71.653,112.688z
M148.883,112.148c1.07,0.215,1.113,1.191,0.844,1.793c-0.598,1.32-4.602,1.961-4.602,1.961c-0.031-0.566,0.047-1.113-0.371-1.754
c0,0,2.668-0.695,3.23-1.211C148.359,112.594,148.59,112.16,148.883,112.148L148.883,112.148z M149.676,115.156
c0.387,0.004,0.594,0.285,0.699,0.855c0.051,0.309-0.066,0.57-0.316,0.902c-1.016,1.105-3.871,1.871-4.902,1.59
c-0.07-0.098,0.102-1.258,0.18-1.777C146.707,116.77,149.02,115.551,149.676,115.156L149.676,115.156z M108.965,121.953
c-1.363-1.969-4.391-1.68-4.066-1.543c0.023-1.684-0.266-4-2.824-4.246c-2.582-0.195-3.906,3.211-2.926,4.648
c-1.594-0.66-3.984,0.996-3.984,1.152c-0.203,0.008-2.027,4.831,3.496,5.078c0.504,2.277,1.363,3.378,3.129,4.316l0.043,18.586
l0.625,0.84l0.055-19.473c2.828-0.125,3.176-3.359,2.965-4.105c1.258,0.055,2.398-0.2,3.355-0.93l0.332,3.172
c0,0,0.664-1.117,0.516-1.711c-1.23-18.254,5.375-38,14.043-50.797c0.465-0.535,0.605-1.18,0.832-1.184
c2.117-1.137,3.449-1.906,3.449-1.906c3.488,1.676,9.711,5.719,9.711,5.719l0.102,26.008c-0.098-0.254,11.598-1.305,11.422-0.988
c0,0-1.023-0.398-1.039-1.086l-0.305-60.859l-5.117-3.344c0,0-4.207,2.75-5.383,3.691l0.129,35.828l-9.063-5.309
c0,0,0.145-1.266,0.16-1.676c-0.145-4.891-2.547-6.531-7.117-5.082c-0.613,0.195-1.039,0.367-1.34,0.117
c-1.922-5.625-2.789-20.41-2.785-20.41l12.898-21.848l21.879-0.121l0.379,83.48l0.613,44.313c0,0-6.352,4.77-9.715,6.988
c-0.695,0.453-1.188,0.354-1.277,0.108c-0.066-0.183-0.16-11.714-0.207-18.679c-0.039-5.821,0.047-8.973,0.047-8.973
s-1.602-0.359-2.02-0.41c-0.156-0.012-0.359,0.035-0.078,0.219c0.41,0.257,1.422,0.625,1.422,0.625l0.238,27.781
c0,0-4.344,2.922-6.285,4.14c-1.445,0.899-6.023,3.204-8.734,4.532c-1.051,0.515-2.113,0.929-2.211,1.008
c-3.695,1.585-7.023,2.699-10.102,4.335c-2.125,0.872-2.027,0.021-2.48-0.675c-4.434-4.383-10.156-4.641-14.789-2.617
c-0.719,0.266-1.609,0.496-2.211,0.914c-0.172,0.128-0.477,0.27-0.672,0.316c-0.41,0.098-0.852,0.277-1.227,0.574
c-0.668,0.527-1.109,1.387-1.492,2.237c-0.234,0.532-0.946,2.993-1.039,3.724c-0.016,0.125,0.238,0.098,0.246,0.109
c0.031,0.042,0.715-2.984,0.984-3.559c0.574-1.223,1.301-1.957,1.688-2.07c0.176-0.032,0.328,0.242,0.09,0.671
c-0.473,0.86-0.859,2.681-0.973,3.5c-0.105,0.759-0.125,1.368,0.016,1.396c0.027,0.022,0.695-2.297,0.996-3.113
c0.789-2.137,1.285-3.02,2.039-3.473c0.777-0.469,0.961-0.402,0.809,0.094c-1.156,2.254-1.633,3.957-1.855,6.355
c-0.035,0.477,0.207,0.491,0.398-0.301c0.633-2.52,1.5-5.926,3.551-6.941c0.875-0.398,1.266-0.379,1.172-0.095
c-2.445,3.087-3.055,6.513-3.027,7.618c0.012,0.371,0.16,0.296,0.473-0.504c0.828-3.039,2.055-5.629,3.512-6.895
c0.563-0.492,1.246-0.629,1.816-0.699c1.727-0.215,1.785,0.426,0.281,1.301c-1.711,0.996-3.688,4.621-3.906,7.34
c-0.078,0.941,0.254,1.046,0.492-0.211c1.016-5.411,5.652-8.984,9.367-7.329c1.672,0.747,1.977,1.782,0.52,1.321
c-2.945-0.934-6.219,1.156-7.566,4.07c-1.219,2.633-1.195,4.016-0.336,7.543c0.582,3.262,1.723,7.422,1.348,10.612
c-0.406,0.621-1.684-0.254-3.195-0.44c-0.91-0.168-2.027-0.211-2.977,0.152c-0.832,0.316-1.301,0.398-1.453-0.052
c-0.051-0.144,0.637-0.843,0.945-1.233c0.492-0.621,0.211-0.72-0.48-0.047c-0.34,0.332-1.07,1.105-1.27,1.145
c-0.434,0.09-0.453-0.406-0.102-1.656c1.238-4.872,0.906-4.954-1.215-5.938c-2.102-0.801-1.438-1.207-2.371-2.004
c-0.656,0.516,0.859,2.867,2.57,3.383c1.402,0.418,1.23,1.137,0.617,3.062c-0.621,2.696-1.684,6.267-1.07,8.661
c1.293,5.031,6.402,4.93,10.316,2.898l0.477,1.281c-3.309,1.34-20.75,2.484-26.625,1.809c-0.453-1.59-0.5-1.996-0.683-3.867
c0,0,3.629,1.641,5.441,1.925c2.262,0.356,5.746,0.372,6.641-1.71c0.273-0.613-0.008-1.129-0.789-0.773
c-1.434,0.648-3.887,1.129-5.871,1.008c-1.66-0.103-4.032-0.771-5.059-1.387c-0.488-0.293-0.898-0.867-0.516-1.59
c0.34-0.074,0.782,0.301,1.047,0.434c3,1.516,4.649,1.809,6.606,1.229c1.484-0.44,3.484-2.043,2.992-2.5
c-0.504,0.177-2.168,1.575-3.316,1.88c-2.36,0.625-4.879-0.337-7.332-1.923c-0.754-0.655-0.411-1.136,0.515-0.612
c3.676,1.852,5.207,3.078,8.727,0.48c0.785-0.582,1.222-0.508,1.683-0.152c1.825,1.633,1.821,0.715,0.481-0.984
c-0.301-0.383-0.578-0.926-0.758-1.5c-0.137-0.426-0.168-0.852-0.41-1.129c-0.414-0.478-1.16-0.711-2.016-1.086
c-1.23-0.543-1.64-0.281-0.73,0.164c1.59,0.776,2.367,1.608,0.39,1.16c-1.796-0.805-4.796-0.355-6.492,0.823
c-1.332,0.649-1.918,1.345-2.23-0.125c-0.66-3.065-0.02-7.226-0.903-12.573c-0.168-1.02-0.371-1.668-0.16-1.805
c0.274-0.18,0.957,0.48,1.805,1.668c0.387,0.543,1.156,1.585,1.152,1.371c0.028-1.133-1.734-3.258-3.188-4.098
c-0.801-0.461-1.344-2.586-0.43-2.117c0.707,0.344,4.379,3.57,5.078,4.719c0.324,0.535,0.598,0.195,0.254-0.434
c-0.207-0.379-1.07-1.484-1.906-2.305c-1.488-1.449-1.66-1.384-1.375-1.68c0.566-0.59,1.773,0.168,3.93,2.121
c0.554,0.699,1.285,1.328,1.195,0.98c0.223-0.543-1.938-2.863-3.219-3.484c-0.238-0.153-0.269-0.309-0.25-0.598
c0.121-1.095,2.602,0.516,4.656,2.395c0.77,0.703,0.133-0.621-0.761-1.52c-0.7-0.711-1.828-1.59-2.598-1.892
c-0.762-0.312-0.809-0.976-0.211-1.257c2.063-0.086,4.191,2.02,5.457,3.675c0.352,0.457,0.672,0.806,0.309-0.054
c-1.176-2.594-3.618-4.055-5.313-4.348c-1.375-0.242-1.344-1.484-0.051-1.345c1.422,0.157,3.75,1.438,5.723,3.427
c0.574,0.573,1.539,1.887,1.34,1.116c-0.004-0.211-0.609-1.03-1.309-1.819c-1.617-1.605-3.492-3.021-5.48-3.441
c-0.93-0.266-3.692,0.27-3.707-0.211c-0.008-0.352,0.289-0.566,1.168-0.859c3.41-1.134,8.406,1.797,11.136,6.305
c0.196,0.324,0.567,0.461,0.59,0.387c-1.32-3.684-5.418-7.02-8.675-7.594c-2.219-0.356-4.454,0.211-5.516,1.703
c-1.195,1.684-0.731,3.93,1.066,3.75c0.942-0.086,0.868-0.621,0.852-0.638c-0.067-0.065-0.613,0.192-0.953,0.125
c-1.227-0.237-1.098-2.461,0.699-2.241c2.066,0.254,2.359,3.512,0.051,4.198c-2.133,0.634-2.914-0.343-3.496-1.495
c-0.856-1.691,0.062-4.423,1.566-5.466c4.215-2.929,9.547-0.476,12.559,2.427c1.492,1.438,2.582,3.145,3.265,4.984
c0.176,0.43,0.492,0.402,0.379-0.055c-4.238-10.809-16.879-11.978-18.758-3.684c0,0-0.066,0.254-1.281-1.477
c-1.973-2.801-4.918-3.426-8.543-1.516c-3.66,1.375-4.898,2.254-7.437,3.566c-0.371,0.132-2.719,1.75-3.094,1.414
c-3.598-2.387-6.734-3.2-8.441-4.945c0.058-0.324-0.247-5.168-0.247-5.168l0.082-20.902c0.028-0.203-1.902,0.141-5.117,0.645
c-8.543,1.703-7.793-2.79-8.926-3.105c-0.597-0.117-0.55,0.137-0.714-15.978c-0.047-4.679-0.141-12.905-0.207-18.28
c-0.071-5.379-0.09-9.855-0.039-9.953c0.046-0.094,0.527-0.504,1.078-0.898c2.082-1.473,3.25-2.367,7.808-5.84
c1.032-0.789,1.289-0.922,1.289-0.922c0.524,9.68,0.055,19.848,0.313,28.168l0.387,0.004l-0.153-27.945
c-0.785-0.207,17.965-11.176,28.238-14.738c0.192-0.066,0.672,0.148,0.672,0.148c5.899,7.227,21.414,5.039,22.664-3.758
c2.571,5.363,13.868,15.785,19.028,3.223c0,0,1.871,3.609,3.473,3.848c3.609,0.477,4.008-0.094,11.945-3.941
C114.613,89.719,109.609,104.297,108.965,121.953L108.965,121.953z M104.141,118.52c0.199,0.609,0.27,1.395,0.098,2.016
c-0.23,0.484-0.578,0.48-0.578,0.48l-1.758-1.504l-1.719,1.594c0,0-1.051-1.059-0.473-2.527
C100.809,116.523,103.328,116.895,104.141,118.52L104.141,118.52z M149.559,118.277c1.129-0.07,0.547,1.227-1.121,2.102
c-1.043,0.551-1.91,0.707-2.285,0.508c-0.203-0.609-0.031-1.164,0.098-1.41C146.961,119.113,148.91,118.473,149.559,118.277
L149.559,118.277z M76.914,120.719c1.25-0.031,2.332,0.859,2.371,2.434c0.016,0.645-0.312,1.281-0.312,1.281l-2.09-1.539
l-1.594,1.699c-0.273,0.094-1.25-1.121-0.578-2.449C75.199,121.18,76.059,120.738,76.914,120.719L76.914,120.719z M107.098,121.441
c1.758,0.797,2.063,3.25,0.352,4.195c-0.809,0.448-2.086,0.702-2.684-0.207l1.727-1.883l-1.984-1.668
C104.43,121.801,106.027,120.957,107.098,121.441L107.098,121.441z M149.254,120.797c0.301,0,0.379,0.113,0.465,0.398
c0.246,0.801-0.379,1.605-1.461,1.863c-1,0.234-0.902,0.352-1.379-0.539c-0.367-0.703-0.469-0.672,0.113-0.895
C147.691,121.398,148.441,121.133,149.254,120.797L149.254,120.797z M99.305,122c0,0-1.246,1.266-1.793,1.797l1.875,1.957
c0.094,0.234-2.16,1.253-3.348-0.281c-0.77-1-0.336-2.902,0.758-3.551C97.91,121.254,99.512,121.809,99.305,122L99.305,122z
M101.988,121.777c1.109-0.016,2.016,0.867,2.035,1.977c0.016,1.105-0.867,2.02-1.977,2.035c-1.105,0.016-2.02-0.871-2.035-1.977
C99.996,122.703,100.883,121.797,101.988,121.777L101.988,121.777z M74.59,125.152l-1.801,1.883l1.946,2.113
c0,0-1.539,0.254-2.082,0.152c-2.649-0.496-2.391-3.602-0.344-4.422C73.176,124.574,73.817,124.676,74.59,125.152L74.59,125.152z
M39.297,125.793c0,0,0.352,3.984,0.676,5.348c-0.211,1.555-1.219,2.612-1.668,4.207c-0.242,0.711-1.149,1.664-1.324,0.664
c-0.653-1.234-0.028-2.762-0.571-3.645c-0.273-0.821-0.191-1.293-0.375-2.153c-0.398-0.702-0.718-1.03-0.664-1.668
c-0.105-2.815-0.812-2.256-2.062-2.026c-1.031,0.34-2.422,0.477-3.238,1.078c-1.774,1.25-0.809,1.965-1.477,3.848
c0.105,0.824,0.309,1.121,0.164,1.836c-0.684,3.363,0.578,3.086,0.539,3.137c-0.527,0.773,0.121,2.512,0.375,2.421
c1.539,0.38,0.981,1.505,1.481,2.103c0.503,0.574,0.476,0.867,2.586,0.918c3.812,0.301,9.867-0.266,11.175-4.914
C45.731,130.395,46.926,124.621,39.297,125.793L39.297,125.793z M77.184,125.148c1.07-0.016,1.949,0.84,1.965,1.906
c0.015,1.07-0.84,1.948-1.907,1.965c-1.07,0.016-1.949-0.84-1.964-1.906C75.262,126.043,76.117,125.164,77.184,125.148
L77.184,125.148z M40.965,126.164c0.719-0.008,1.57,0.145,2.27,0.813c1.492,1.434,1.558,2.733,0.894,8.254
c-0.187,1.555-0.734,2.852-1.457,3.418c-1.457,1.137-3.238,1.949-4.711,2.309c-0.773,0.191-1.449,0.195-1.972,0.191
c-0.567-0.004-0.899-0.267-0.938-0.742c0.125-1.281-1.187-1.406-1.949-1.336c-1.352,0.055-1.492,0.195-0.649-0.457
c0.965-0.746,3.188-0.758,3.61-0.32c0.867-0.868,1.773-0.969,2.879-1.098c-0.164-0.242-0.563-1.203-0.297-1.82
c0.57-1.008,1.535-2.786,2.547-3.454c1-1.308,0.152-0.714-0.469-0.694c-0.356,0.016-0.324-0.102-0.383-0.34
c-0.246-1.02-0.601-2.927-0.605-4.063C39.731,126.277,40.246,126.175,40.965,126.164L40.965,126.164z M34.59,127.578
c0.391,0.348,0.383,0.832-0.027,1.195c-0.469,0.414-1.403,0.184-1.426-0.594C33.199,127.395,34.114,127.176,34.59,127.578
L34.59,127.578z M102.121,130.339c-1.621,0.082-2.961-1.655-2.348-3.386c0.336-0.469,0.48-0.403,0.48-0.403l1.848,1.653l1.773-1.856
C105.336,128.109,104.082,130.21,102.121,130.339L102.121,130.339z M32.61,127.652c-0.133,0.504,0.043,1.012,0.062,1.258
c-0.32,0.227-1.691,0.629-2.426,0.992c-0.511,0.176-0.882-0.305-0.808-0.742c0.191-0.816,1.39-1.352,2.265-1.605
C31.973,127.492,32.414,127.464,32.61,127.652L32.61,127.652z M32.91,129.988c0.496-0.063,0.348,1.015,0.164,1.566
c-0.183,0.395-0.73,0.379-1.218,0.405c-0.864,0.052-1.953,1.047-2.422,0.888c-0.156-0.07-0.266-0.48-0.285-0.742
C29.25,130.668,31.641,130.141,32.91,129.988L32.91,129.988z M35.524,131.484c-0.164,0.242-0.696,0.354-1.141,0.234
c-0.727-0.199-0.836-1.242-0.199-1.598C35.309,129.746,35.985,130.805,35.524,131.484L35.524,131.484z M107.293,129.109l-0.984,1.5
l-1.496-0.027l2.418,7.425l1.121-2.897c0.148-1.336,0.328-2.668,0.465-4.004L107.293,129.109z M75.434,129.734l1.918,1.562
l1.64-1.675c1.223,2.723-0.187,3.968-1.683,3.938C75.656,133.52,73.895,131.953,75.434,129.734L75.434,129.734z M33.395,132.55
c0.605-0.112,0.344,1.528,0.261,1.575c-0.386,0.141-2.058,0.359-2.761,0.953c-1.496,1.172-2.137,0.457-1.442-0.95
C30.11,133.313,32.524,132.566,33.395,132.55L33.395,132.55z M35.301,132.628c0.664-0.062,1.133,0.677,0.727,1.384
c-0.555,0.512-1.524,0.137-1.52-0.594C34.504,132.96,34.883,132.656,35.301,132.628L35.301,132.628z M34.317,136.789
c0.089,0.382-0.043,0.266-0.746,0.473c-0.387,0.113-0.993,0.37-1.625,0.691c-0.93,0.468-1.192,0.718-1.52,0.668
c-0.262-0.059-0.562-0.172-0.645-0.438c-0.324-1.059,0.54-2.141,2.551-2.883c0.418-0.152,1.164-0.277,1.422-0.305
C34.438,134.996,33.707,136.043,34.317,136.789L34.317,136.789z M35.504,135.195c0.969-0.012,1.152,1.277,0.426,1.504
C34.227,137.141,34.371,135.195,35.504,135.195L35.504,135.195z M34.305,139.949c0.273,0.261,0.312,0.691,0.004,0.914
c-0.559,0.277-2.715,0.043-2.731-0.563c-0.007-0.398,0.711-0.535,1.383-0.548C33.629,139.738,34.086,139.738,34.305,139.949
L34.305,139.949z M131.629,140.609l-1.777,2.375l2.387,5.969l2.176-7.227l-1.711,0.676L131.629,140.609z M31.133,146.738
c0.41,18.375,0.34,60.484,0.34,60.484l5.23,3.559l5.508-3.957c-0.058-13.258-0.109-22.398-0.164-34.672l8.07,4.433
c0,0,0.247,0.356,0.211,2.017c-0.558,4.578,3.871,7.551,6.809,5.742c1.133-0.477,1.227-0.559,1.465-0.203
c0.66,0.987,1.406,5.207,1.531,7.895c0.188,4.059,1.254,12.324,1.512,12.379l-13.133,22.254l-20.473,0.098l-0.234-82.754
C28.867,145.266,29.352,146.085,31.133,146.738L31.133,146.738z M107.336,144.969l-0.984,1.504l-1.188-0.004l2.082,7.691l2.523-7.52
l-1.391-0.172L107.336,144.969z M41.578,206.296c0,0-2.554,1.836-3.371,2.364c-0.429,0.16-0.636,0.191-0.738-0.219
c-0.125-0.504,0.074-1.461,0.254-3.039c0.164-1.457,0.164-1.539-0.082-3.617c-0.25-2.172-0.281-2.266-0.078-5.129
c0.23-3.199,0.273-6.305,0.023-8.227c-0.242-1.824-0.238-5.992-0.055-8.32c0.227-2.848,0.153-5.344-0.222-7.41
c-0.664-3.684-0.774-4.953-0.082-7.727c0.262-1.035,0.39-1.586,0.336-3.324c-0.059-1.93-0.098-2.563-0.789-6.836
c-0.395-2.461-0.426-2.801-0.055-6.695c0.074-0.785,0.102-1.313,0.402-1.563c0.348-0.289,3.993-0.505,3.993-0.505L41.578,206.296z
M31.992,146.809l3.973-0.043c-0.309,1.241-0.375,2.188-0.41,3.09l-3.524-2.32L31.992,146.809z M32.051,148.398l3.492,2.277
c0.004,0.961-0.07,1.879,0.071,2.84l-3.54-2.348L32.051,148.398z M32.059,152.012l3.734,2.555c0.149,0.996,0.449,2,0.567,2.894
l-4.235-2.862L32.059,152.012z M152.879,153.02l0.195,73.375l-37.191,0.168l-11.789-22.648c0,0,0.121-2.082,0.414-3.148
c0.352-1.285,0.445-1.563,0.938-1.625c1.324,0.688,2.801-0.227,3.25-1.227c0.559-1.239-0.57-3.105-2.297-3.512
c-0.762-0.18-1.594,0.164-2.434,0.805c-0.488,0.406-0.598,0.453-0.695,0.098c-0.219-0.798,0.488-2.973,1.758-4.836
c0.707-1.039,0.898-1.337,1.125-0.941c0.926,1.598,2.906,1.266,3.656,0.363c0.91-1.091,0.719-3.578-1.34-4.238
c-4.031-1.289-5.883,2.754-5.832,2.746l-0.863-4.853c4.855-1.187,7.656-1.604,9.195-3.077c1.215-1.156,1.793-3.16,1.641-4.941
c0,0,13.48-5.478,19.789-8.875C143.262,160.796,152.879,153.02,152.879,153.02L152.879,153.02z M132.352,153.55l-0.996,1.755h-1.414
l2.859,7.405l2.188-7.729l-1.363,0.121L132.352,153.55z M32.235,155.676l4.281,2.952c0.094,0.957,0.215,1.813,0.086,2.899
l-4.508-2.981L32.235,155.676z M115.754,154.77l-1.066,1.414l-1.227-0.129l2.406,7.332c0.734-2.117,1.398-4.996,2.125-7.117
l-1.141,0.055L115.754,154.77z M32.156,159.445l4.43,2.933c0.02,0.907,0.063,1.763-0.254,2.403l-4.179-2.684L32.156,159.445z
M124.055,159.871l-1.074,2.066l-1.434-0.195l2.563,7.027l2.801-6.961l-1.734,0.094L124.055,159.871z M32.164,162.863l3.844,2.82
c0.055,0.039-0.215,1.285-0.156,1.992l-3.653-2.25L32.164,162.863z M32.27,166.352l3.582,2.461c0.008,0.934,0.07,1.809,0.219,2.602
l-3.887-2.523L32.27,166.352z M32.207,169.906l4.141,2.945l0.219,2.371l-4.387-2.759L32.207,169.906z M66.293,170.895
c3.973,1.48,7.699,9.035,7.582,18.815c-0.078,6.793,1.973,16.485,1.934,16.372c0,0-1.153,0.156-1.477-0.098
c-1.496-4.988-1.996-10.258-2.23-14.603c-0.196-3.625-0.403-7.183-0.633-8.011c-0.652-2.922-1.359-6.332-3.23-8.555
c-1.454-1.676-3.114-1.965-4.106-0.086c-0.812,1.543,0.898,4.09,2.32,3.242c0.34-0.191,0.547-0.52,0.098-0.509
c-1.477,0.22-2.465-1.819-1.531-2.793c1.64-1.711,4.515,2.103,3.183,4.2c-0.589,0.906-2.125,1.066-3.351,0.734
c-2.735-1.32-3.422-4.56-2.504-6.688C63.043,171.289,64.574,170.32,66.293,170.895L66.293,170.895z M61.485,171.863
c0.324,0.015,0.101,0.613-0.196,1.539c-0.703,2.226,0.617,5.683,2.442,6.375c0.547,0.371,0.519,0.512,0.152,0.719
c-1.191,0.668-3.355-1.34-3.926-3.578c-0.414-1.618-0.313-3.531,0.469-4.34c0.422-0.446,0.762-0.676,0.992-0.711
C61.442,171.867,61.465,171.863,61.485,171.863L61.485,171.863z M32.164,173.176l4.422,2.891c0.207,0.902,0.117,1.863-0.023,2.832
l-4.426-3.082L32.164,173.176z M58.844,173.141c0.328-0.013,0.207,0.539,0.113,1.543c-0.211,2.319,0.512,4.008,2.149,5.41
c0.695,0.59,0.883,0.777,0.586,1.086c-0.422,0.441-1.637-0.148-2.586-1.141c-1.739-1.813-2.317-5.238-0.961-6.477
C58.442,173.289,58.672,173.145,58.844,173.141L58.844,173.141z M108.02,173.543c1.891-0.074,3.484,0.66,3.66,2.969
c0.258,3.379-2.895,5.227-5.09,3.284c-1.969-1.944,0.027-4.995,2.309-3.565c1.148,0.723-0.223,2.371-1.148,1.52
c-0.422-0.383-0.605-0.145-0.305,0.301c0.898,1.34,2.664,0.223,2.539-0.957c-0.25-2.324-3.102-2.293-4.176-1.384
c-1.473,1.243-2.77,3.079-3.734,4.415c-0.793,1.156-0.961,1.125-0.844-0.305C101.539,176.035,105.074,173.656,108.02,173.543
L108.02,173.543z M56.571,174.281c0.3-0.012,0.183,0.422,0.207,1.535c0.121,2.854,1.324,4.633,2.851,5.625
c0.512,0.565-0.144,0.969-1.109,0.695c-2.192-0.677-4.43-5.391-2.571-7.414C56.207,174.438,56.414,174.289,56.571,174.281
L56.571,174.281z M54.438,175.219c0.304-0.02,0.133,0.609,0.16,1.801c0.062,2.508,0.836,3.711,2.703,5.242
c0.605,0.5,0.684,0.441,0.441,0.719c-0.636,0.733-2.8-0.305-3.722-1.805c-1.098-1.789-1.258-4.484-0.239-5.505
C54.067,175.387,54.278,175.227,54.438,175.219L54.438,175.219z M52.317,176.425c0.254,0,0.113,0.453,0.152,1.535
c0.094,2.625,0.691,3.927,2.359,5.142c1.047,0.762,1.301,0.535,0.981,0.836c-0.563,0.526-2.094,0.074-3.246-0.895
c-1.723-1.458-2.207-5.047-0.805-6.277C52.008,176.546,52.184,176.425,52.317,176.425L52.317,176.425z M32.239,176.796l4.25,2.946
l-0.122,2.484l-4.226-2.859L32.239,176.796z M106.523,181.457c-1.73-0.352-2.383-1.602-2.176-3.016
c0.07-0.473,0.348-0.742,0.645-0.125c0.254,0.979,0.91,2.34,1.801,2.604C107.156,181.027,106.855,181.527,106.523,181.457
L106.523,181.457z M69.328,178.523c1.95,4.91,1.918,10.272,2.239,15.344c0.429,6.738,1.625,11.277,2.011,12.039
c0,0-1.902,0.023-2-0.254c0,0-1.797-8.934-1.527-13.352c0.02-4.945-0.941-9.294-1.531-11.246
C67.899,179.324,67.871,180.469,69.328,178.523L69.328,178.523z M32.215,180.441l4.09,2.672c-0.059,0.914-0.066,1.828-0.055,2.742
l-4.008-2.836L32.215,180.441z M87.176,180.21c0.004,0.149,0.594,0.274,1.516,0.052c1.019-0.246,2.039-0.203,2.828,0.016
c0.836,0.226,0.926-0.043,0.172-0.371c-0.371-0.16-0.957-0.528-1.835-0.512C88.981,179.41,87.172,179.887,87.176,180.21
L87.176,180.21z M103.734,180.109c0.098,0.184,0.41,0.594,0.688,0.918c0.527,0.609,0.676,0.613,0.434,0.863
c-0.551,0.573-1.707-0.259-1.832-1.32C102.914,179.796,103.301,179.305,103.734,180.109L103.734,180.109z M67.137,180.316
c1.906,2.723,2.187,9.102,2.23,13.637c0.036,4.082,1.414,11.566,1.528,11.535c-0.395,0.23-0.922,0.148-1.418-0.043
c-0.492-0.637-0.793-2.43-1.363-7.285c-0.149-1.25-0.434-5.235-0.5-8.441c-0.059-2.828-1.637-8.953-1.637-8.953
S66.59,180.328,67.137,180.316L67.137,180.316z M65.012,181c1.738,3.878,2.023,7.734,2.102,12.41
c0.074,4.425,1.054,9.609,1.425,11.895c-0.586,0.063-1.207,0.109-1.453-0.152c-0.156-0.215-0.281-0.551-0.355-0.984
c-0.793-3.829-0.981-7.988-1.207-11.508c-0.344-5.453-0.43-6.801-1.203-9.52c-0.438-1.543-0.594-1.513-0.262-1.809
C64.313,181.105,64.793,180.992,65.012,181L65.012,181z M84.571,181.891c0.046,1.809,0.281,1.069,0.918,0.78
c0.48-0.039,0.875,0.224,1.765,0.552c1.137,0.418,1.035,0.559,1.836,0.164c0.492-0.238,0.887-0.324,1.121-0.134
c0.934,0.763,2.141,0.332,2.82-0.28c0.527-0.277,1.105-0.129,1.555-0.086c0.648,0.059,0.477-0.352,0.559-1.168
c0.07-0.727-0.207-0.789-0.957-0.548c-0.77,0.25-1.531,0.286-2.195,0.082c-1.708-0.519-2.954-0.179-3.796-0.046
c-1.997,0.313-2.102,0.109-2.555-0.176c-0.336-0.211-0.895-0.605-1.086-0.594C84.36,180.449,84.426,181.105,84.571,181.891
L84.571,181.891z M102.273,181.063c0.188-0.099,0.277,0.16,0.539,0.504c0.445,0.574,0.574,0.848,0.203,0.897
c-0.98,0.146-1.223,0.039-1.191-0.565C101.852,181.41,101.961,181.223,102.273,181.063L102.273,181.063z M62.961,181.918
c1.438,1.449,1.805,9.578,1.965,11.328c0.52,9.484,1.422,10.848,0.957,11.559c-0.543-0.009-0.734,0.191-1.09-0.285
c-1.23-3.474-1.16-7.043-1.359-10.668c-0.281-4.797-0.758-7.398-1.434-9.777c-0.449-1.582-0.441-1.61,0.367-2.043
C62.512,181.957,62.832,181.914,62.961,181.918L62.961,181.918z M61.024,183.063c0.504,1.151,1.523,6.387,1.66,10.906
c0.113,3.59,0.969,10.605,1.129,10.645c-0.524,0.047-1.153-0.059-1.407-0.457c-1.57-6.918-1.07-13.621-2.882-20.578
C59.629,183.238,60.203,182.684,61.024,183.063L61.024,183.063z M32.278,183.914l4.238,3.039l0.09,2.593l-4.328-3.069V183.914z
M95.277,183.585c-2.395,0.931-3.012,1.692-2.637,2.364c0.316,0.563,1.27,0.363,3.82-0.699c1.902-0.797,2.5-0.449,2.887,0.75
c-0.016,1.773-1.738,1.98-2.707,1.738c-0.418-0.016-0.355,0.019,0.09,0.578c1.973,1.547,4.395-1.481,3.188-3.398
C98.973,183.164,97.34,182.664,95.277,183.585L95.277,183.585z M80.254,184.305c-1.973,1.551-1.269,4.344,0.375,4.762
c0.457,0.229,1.141,0.121,1.406-0.055c0.246-0.164,0.246-0.43-0.261-0.512c-1.524-0.254-2.391-1.375-1.653-2.508
c0.715-1.102,2.039-0.891,4.59,0.207c2.203,0.949,3.168,0.656,3.43-0.485c0.113-0.5-0.027-0.972-1.082-1.011
C84.117,184.594,82.168,182.805,80.254,184.305L80.254,184.305z M106.684,188.578c-0.133-0.801-1.438,0.023-2.305,1.445
c-0.852,1.401-0.938,1.602-1.113,0.147c-0.258-2.168,1.992-3.866,3.398-3.921c1.691-0.191,2.801,0.753,2.844,1.844
C109.594,190.238,107.031,190.257,106.684,188.578L106.684,188.578z M32.18,187.3l4.492,3.082c0,0,0.149,1.653,0.055,2.539
l-4.508-2.886L32.18,187.3z M86.082,188.335c-1.953,1.321-0.804,3.739,0.559,4.013c1.441,0.284,1.543-0.72,0.109-1.016
c-0.765-0.301-0.961-1.027-0.66-1.59c0.68-1.117,1.941-0.395,2.676-0.047c1.629,0.773,2.473,1.058,2.988,0.523
c0.914-0.953,0.098-2.652-1.109-2.051c-0.324,0.16-0.571,0.313-1.262,0.141C88.332,188.089,87.067,187.855,86.082,188.335
L86.082,188.335z M32.219,190.964l4.418,3.021L36.5,196.66l-4.144-3.043L32.219,190.964z M32.309,194.637l4.156,2.961
c-0.062,1.129-0.035,1.577,0.012,2.297l-4.199-2.711L32.309,194.637z M105.754,195.207c3.332,0.324,2.227,4.152-0.098,3.117
c-0.621-0.465-0.809-0.43-1.496,1.25c-0.883,2.148-1.098,1.972-0.977-0.508C103.273,196.637,104.387,195.227,105.754,195.207
L105.754,195.207z M79.516,195.789c0.078,0.004,0.14,0.016,0.18,0.046c0.226,0.254-0.45,1.25-1.024,1.836
c-0.422,0.278-1.445-0.468-1.199-0.836C77.766,196.48,78.977,195.844,79.516,195.789L79.516,195.789z M83.957,197.757l-0.593,0.087
c-0.899-2-2.766-1.544-3.344,0.316l-0.821-0.094C80.028,195.789,82.985,194.391,83.957,197.757L83.957,197.757z M100.727,198.214
l-1.008,0.063c-0.902-2.172-2.184-2.496-3.266-0.352l-0.781-0.227C97.012,194.957,99.258,194.738,100.727,198.214L100.727,198.214z
M95.691,195.738c0.516-0.031,0.449,0.207-0.09,0.941c-0.465,0.637-0.578,0.734-1.047,0.387
C93.785,196.496,95.063,195.781,95.691,195.738L95.691,195.738z M100.465,195.805c0.098,0.004,0.211,0.012,0.344,0.047
c1.039,0.254,1.516,0.746,1.004,1.379c-0.316,0.395-0.625,0.547-0.836,0.285C100.277,196.359,99.891,195.77,100.465,195.805
L100.465,195.805z M84.778,196.488c0.109,0.43-0.231,0.734-0.61,0.375c-0.156-0.145-0.289-0.395-0.269-0.574
C84.137,196.063,84.703,196.25,84.778,196.488L84.778,196.488z M32.27,197.964l4.269,3.067c0.141,1.078,0.168,1.898,0.16,2.637
l-4.394-2.911L32.27,197.964z M94.512,198.895c2.461,1.684,5.344,1.66,7.148,0.18c0.402-0.328,0.754-0.344,0.762-0.028
c-0.258,1.185-3.395,2.7-5.844,1.841c-1.348-0.473-2.453-0.941-3.336-2.195C92.719,197.871,93.797,198.398,94.512,198.895
L94.512,198.895z M93.469,199.714c3.598,3.103,6.453,2.239,8.621,0.677c0.32-0.082,0.324,0.207,0.395,0.741
c0.094,0.688-0.477,1.024-2.035,1.493c-3.012,0.902-6.543-0.086-7.18-2.105C93.195,200.121,93.043,199.605,93.469,199.714
L93.469,199.714z M32.254,201.57l4.328,2.973l-0.136,2.266l-4.219-2.849L32.254,201.57z M32.321,205.046l4.089,2.771l-0.015,1.879
l-3.973-2.832L32.321,205.046z M62.008,205.93c17.434,3.945,29.789,2.07,41.918-0.066l10.742,21.07l-64.742,0.086
C54.156,220.171,57.672,212.688,62.008,205.93L62.008,205.93z M62.008,205.93"/>
<path d="M6.246,11.371v2.297h2.348v19.98H6.246v2.477h6.825v-2.477h-1.809V27.98l2.742-3.797l4.11,9.465h-2.625v2.477h7.445v-2.477
h-1.778L15.703,21.48l5.18-7.852l1.922,0.039v-2.297H15.41v2.297h2.133l-6.281,9.637v-9.637h1.863v-2.297H6.246z M63.637,23.707
l3.227,6.031l0.003,0.285l1.786,3.48l0.269,0.172l0.402,0.762l0.043,0.367l0.997,1.594l-0.008,0.34l4.226,7.855
c3.48-1.297,32.098-3.641,42.695,0.191l1.543-2.617h0.367l2.723-4.777l-0.043-0.398l0.914-1.047l0.133-0.473l3.004-4.699
l0.012-0.758l3.754-6.262L63.637,23.707z M128.43,24.609c0,0-1.961,3.766-2.969,5.289c-0.816-0.645-3.184-0.207-3.043,2.289
c-3.863-1.465-4.793,3.141-1.809,4.18c-1.531,1.336-2.996-0.176-4.156-1.203c-1.137,0.281-3.496,1.117-4.828-1.34
c0,0,0.559,0.301,1.113,0.629c3.16,0.961,3.414-3.301,1.063-3.996c-0.293-0.078-0.852-0.109-0.852-0.109
c0.789-3.277-4.277-4.422-4.375-0.484c0,0-0.602-0.098-1.059-0.016c-2.688,0.492-2.07,4.453,0.676,4.262
c0.379-0.023,0.715,0.043,0.715,0.043c-0.043,0.633-3.367,1.848-5.762-0.336c-1.137,0.863-2.934,1.949-5.277-0.207
c1.543-0.063,3.02-0.504,3.004-2.25c-0.012-1.137-1.035-2.152-2.512-2.207c-0.082-1.27-1.027-2.48-2.258-2.574
c-1.5,0.086-2.266,1.297-2.277,2.574c-1.277,0.133-2.469,1.258-2.195,2.547c0.375,1.762,1.73,1.977,3.277,1.641
c-1.883,3.027-4.945,1.449-5.891,0.484c-1.125,1.051-3.086,2.469-5.504,0.527c1.289-0.219,2.719-0.977,2.477-2.773
c-0.188-1.414-1.778-1.836-2.469-1.762c0-0.934-0.707-2.477-2.375-2.316c-1.821,0.172-1.711,2.473-1.692,2.492
c-1.504-0.125-2.593,1.645-2.164,2.773c0.52,1.371,1.614,1.797,3.621,1.426c-2.343,2.199-3.828,1.348-5.109,0.883
c-1.129,1.188-2.641,1.57-4.187,0.52c3.464,0.164,2.91-5.961-1.196-3.738c-0.355-1.148-0.887-2.563-3.039-2.234l-2.449-4.734
L128.43,24.609z M49.11,28.523c-0.176,0.004-0.356,0.012-0.539,0.023c-6.633,0.426-9.086,5.035-8.774,9.121
c0.211,2.754,1.715,5.109,3.902,6.383c0.938,0.715,1.133,0.984,0.969,1.316c-0.195,0.395-0.457,0.359-0.988-0.129
c-7.59-7.262-18.281,1.266-13.551,10.684c3.758,7.488,14.309,5.754,16.57-2.672c0.18-0.668,0.469-0.961,0.782-0.777
c0.222,0.133,0.047,1-0.133,2.32c0.016,4.77-4.949,12.277-5.231,12.531l13.016-0.012c-2.984-4.078-4.734-8.074-5.098-13.895
c-0.035-1.762,0.621-1.387,1.18,0.609c2.543,9.113,14.129,9.027,16.758,0.152c2.453-8.281-6.77-15.199-12.879-9.625
c-0.879,0.801-1.477,0.949-1.488,0.363c-0.004-0.246,0.816-1.168,1.57-1.754c1.523-1.191,2.797-3.414,2.809-5.672
C58.012,32.938,54.625,28.461,49.11,28.523L49.11,28.523z M42.117,67.324h-0.015C42.102,67.332,42.11,67.332,42.117,67.324
L42.117,67.324z M96.148,30.645c0.168-0.008,0.344,0.027,0.52,0.117c0.543,0.273,0.645,0.758,0.313,1.465
c-0.117,0.25-0.285,0.539-0.258,0.801c3.816,7.035,12.227,3.891,13.02,0.621c0.047-0.207-0.047-0.434-0.156-0.656
c-0.324-0.535-0.281-0.977,0.141-1.344c0.895-0.785,2.176,0.141,1.656,1.199c-0.137,0.277-0.281,0.582-0.176,0.957
c2.16,4.902,6.461,5.27,10.066,3.332c-1.66,2.973-8.105,4.797-10.809-2.367c-4.316,5.836-11.172,5.727-14.281-0.863
c-2.797,6.742-11.235,6.902-14.305,1.301c-2.797,6.406-9.277,4.953-11.113,0.945c6.019,4.355,9.988-0.191,10.703-2.133
c0,0-0.141-0.227-0.332-0.414c-0.77-0.758-0.75-1.648,0.047-2c1.023-0.453,1.98,0.531,1.457,1.492
c-0.149,0.273-0.277,0.332-0.18,0.563c1.875,4.371,11.105,5.637,12.973-0.488c0.063-0.352,0.027-0.676-0.133-0.941
C94.863,31.5,95.422,30.676,96.148,30.645L96.148,30.645z M69.203,33.117c1.457,0.082,1.051,1.336,0.758,1.43L69.203,33.117z
M123.266,33.898c0.008,0.023-0.898,1.621-0.898,1.621C121.887,34.754,122.012,33.797,123.266,33.898L123.266,33.898z
M118.344,41.973c0,0-0.93,2.059-1.238,2.23c-17.246-4.418-41.309-0.578-41.898-0.152l-1.058-1.992
C89.27,39.035,104.344,39.68,118.344,41.973L118.344,41.973z M13.996,41.277c-0.535,0.004-1.097,0.129-1.679,0.391
c-2.996,1.363-3.254,4.801-0.559,7.52c0.426,0.43,0.781,0.844,0.781,0.91c0.008,0.309-0.297,0.25-1.031-0.191
c-4.121-2.484-8.144,0.496-6.469,4.797c1.352,3.473,6.696,2.945,7.524-0.742c0.109-0.492,0.465-0.793,0.621-0.527
c0.137,0.227-0.258,2.105-0.656,3.148c-0.52,1.371-0.832,2.09-1.145,2.648c-0.383,0.68-0.41,0.906-0.113,0.977
c0.426,0.102,5.097-0.027,5.094-0.141c0-0.063-0.196-0.52-0.438-1.02c-0.937-1.949-1.652-5.328-1.211-5.711
c0.25-0.219,0.336-0.105,0.672,0.891c1.672,4.945,7.887,3.754,7.766-1.488c-0.079-3.566-3.34-5.129-6.282-3.016
c-0.668,0.48-0.867,0.508-0.929,0.133c-0.024-0.148,0.093-0.316,0.328-0.477C19.996,46.859,17.735,41.23,13.996,41.277
L13.996,41.277z M89.211,72.531c-1.664,6.422-5.695,7.078-10.562,7.859c-6.032,0.965-9.961-1.23-11.801-4.59
c0,0-8.625,3.262-11.77,5.152c6.543,3,15.188,9.637,20.102,17.172c1.75,2.301,1.664,1.781,1.66,6.82
c-0.008,10.934,0.02,14.996,0.02,14.996c2.699,0.406,2.847,2.262,2.699,4.348c2.168-0.957,4.254,0.215,4.242,2.257
c-0.016,3.759-3.707,2.739-4.477,2.325c1.204,3.313-0.207,4.684-1.648,4.848c-1.773,0.199-3.809-0.652-3.215-4.445
c-1.933,0.75-4.383-0.613-4.722-2.897l-0.094-3.864c4.781-9-1.223-16.32-6.864-18.727c0,0,1.598-3.301,3.661-4.227
c0.211-0.063-1.25-2.203-3.707-1.738c-1.133,0.023-0.868,0.016-1.93-1.363c-2.106-2.73-3.094-2.918-5.145,0.004
c-0.898,1.285-1.117,1.32-2.183,1.34c-1.172,0.027-2.977,0.871-3.363,1.625c-0.086,0.172,0.371,0.348,0.984,1.063
c0.883,1.027,2.242,2.441,2.027,3.879c-4.644,1.891-12.347,10.18-4.25,20.797l-5.855,0.074l-0.281-37.785l-4.071,2.266l0.18,29.598
l-1.16-0.387c0.09-9.438-0.055-18.871-0.352-28.309l-10.742,7.828l0.48,44.375l1.141,0.242c0.848,6.047,12.828,1.815,13.527,2.344
l0.141,24.656l-0.523,1.223l9.531,5.211l8.742-4.536c0,0,1.18-0.211,1.621-0.444c3.625-1.91,6.328-1.48,8.301,1.319
c1.215,1.731,1.422,1.985,1.422,1.985c0.734-4.989,5.156-6.824,9.445-5.524c3.156,0.962,7.465,4.103,8.785,7.942
c0,0,0.239,0.578,0.473,0.836l0.18,0.078c-0.012-0.098-0.207-0.578-0.282-0.809c-4.425-10.16-16.89-11.72-18.812-3.418L69,171.457
l9.281-5.691l12.684,8.344c0,0-0.598,2.937-0.664,4.203l0.219,0.102c0.063-0.161,0.152-0.77,0.207-1.148
c0.203-1.388,0.57-2.552,1.066-3.441c0.301-0.535,0.648-0.973,1.039-1.297c0.758-0.442,1.461-0.396,2.23-1.117l-1.852-1.383
l-0.043-4.445l3.723,5.214c1.172-0.272,5.73-1.632,8.434-0.125c0.305,0.095,4.27-1.034,6.738,4.497l11.891-4.938
c0,0,0.758-0.426,0.766-0.539c-11.855-4.375-23.824-19.863-22.672-20.113c0,0-0.035-1.586,0.055-5.484
c0.098-4.348,0.043-8.785,0.117-13.145c-4.035-1.289-3.031-4.539-3.031-4.539c-2.426,0.531-2.813,0.062-3.426-0.367l-0.418-4.113
c1.453-1.238,2.328-1.352,4.125-0.957c0,0-0.871-1.789-0.078-3.258c0.668-1.164,2.445-1.898,3.867-1.082
c1.836,1.25,1.25,3.871,0.988,4.238c1.906-0.855,4.238,0.098,4.813,1.984c0.285-5.578,0.77-11.824,1.887-16.688
c2.066-8.781,5.445-17.977,9.676-25.207c0.691-1.207,1.578-2.418,2.289-3.547c0.664-1.008,0.977-1.66,0.977-1.66
s-0.902,0.496-1.863,0.766c-1.375,0.371-2.414,0.73-2.57,0.887c-1.008,0.848-2.332,1.477-3.41,1.945
c-3.809,1.48-6.367-0.727-7.949-4.102c-0.879,4.285-4.809,7.91-10.602,5.656c-3.27-1.734-4.301-2.848-7.359-7.379
C89.875,73.066,89.211,72.531,89.211,72.531L89.211,72.531z M89.336,73.234c2.168,4.281,5.41,7.316,8.563,8.527
c5.625,1.844,9.34-1.758,10.387-5.066l1.086,1.836l-8.523,6.051L87.992,76.41C88.207,76.211,89.356,73.332,89.336,73.234
L89.336,73.234z M128.027,73.527l-3.816,2.25c0,0-2.535,4.09-3.387,5.629c-4.453,7.863-7.793,16.422-9.539,24.91
c-0.703,3.105-1.449,8.785-1.699,11.516c-0.398,4.352-0.379,6.141-0.266,10.132l0.301,0.325c0,0-0.469,0.82-0.805,1.512
c-0.91,1.879-1.133,2.941-1.078,5.12c0.125,5.017,3.176,9.817,7.48,11.774c0.246,0.109,0.566,0.254,0.566,0.254
s-0.738,1.996-2.078,3.398c-0.895,0.941-1.086,0.984-0.77,1.445c0.441,0.645,1.859,1.199,3.621,1.176
c0.625-0.012,0.621-0.012,1.773,1.241c2.25,2.454,2.926,2.403,4.977-0.375c0.605-0.828,0.953-1.022,1.844-1.046
c1.309-0.032,3.695-1.086,3.684-1.579c-1.609-0.714-3.477-4.39-3.18-4.429c8.809-4.66,10.672-14.317,4.242-21.418l6.141-0.098
l0.227,38.527c1.203-0.801,3.922-2.516,3.922-2.516l-0.09-29.981c0.422,0.079,0.855,0.384,1.676,0.517l0.242,28.348
c0,0,0.797-0.325,1.492-0.778c3.434-2.261,10.152-7.491,10.152-7.491l-0.23-43.688h-0.895l0.141,43.668l-10.426,7.613l-0.07-27.137
c0,0,0.824-0.125,1.133-0.168c3.051-0.427,4.465-4.316,2.441-6.859c-0.723-0.902-0.211-0.84,1.32-1.133
c2.711-0.238,4.211-2.285,3.422-3.746c-0.336-0.629,0.102-0.559,0.391-1.156c0.188-0.469,0.152-1.047,0.07-1.508
c-0.105-0.605,0.141-0.871,0.293-1.258c0.242-0.602,0.008-1.285-0.391-1.852c-0.422-0.598-0.305-1.238-0.309-1.637
c-0.02-0.887-0.34-1.012-1.281-1.871c-0.711-0.648-0.137-0.789,0.906-1.324c1.645-0.848,1.758-3.844-0.43-5.121
c-1.168-0.68-3.297-0.625-7.91,0.102c-1.746,0.277-3.801,0.461-3.801,0.461s-0.016-17.078-0.137-25.883L128.027,73.527z
M128.027,74.133c0,0,9.367,5.477,9.293,5.629c-3.145,4.309-14.875,21.469-14.961,42.223c-8.602-1.082-12.121,5.644-12.539,5.617
c-1.133-25.398,9.18-43.574,14.461-51.285L128.027,74.133z M122.121,77.473l-0.027,0.621l-1.855,2.773l-0.051-2.773L122.121,77.473z
M119.258,78.438l0.066,4.469l-3.801,2.902l-0.223-4.656L119.258,78.438z M84.016,79.461l1.957,1.352l-0.07,4.43l-2.942-5.352
L84.016,79.461z M137.5,80.953l0.016,3.207c-7.496,10.574-11.43,22.648-12.633,37.941l-1.824-0.059
C123.543,106.836,128.66,92.961,137.5,80.953L137.5,80.953z M86.735,81.281l4.621,3.023l-0.199,5.055l-4.195-2.695l-0.394-1.031
L86.735,81.281z M114.727,81.496l-0.02,4.699l-3.57,2.652l-0.168-4.664L114.727,81.496z M71.434,82.727
c0.531,0.008,0.953,0.395,1.055,1.125c0.39,3.121,2.769,2.223,3.332,3.16c0.214,0.32-0.293,0.598-1.918,0.469
c-2.985-0.223-5.157-2.637-3.633-4.227C70.66,82.895,71.074,82.723,71.434,82.727L71.434,82.727z M92.047,84.742l3.949,2.516
l-0.012,5.188l-3.871-2.359L92.047,84.742z M110.066,84.758l0.305,4.59l-4.324,2.871l-0.152-4.559L110.066,84.758z M118.289,84.773
l-2.48,5.285l-14.48,10.418l-12.016-7.781l-2.231-5.098l14.02,9.145L118.289,84.773z M79.242,86.871
c3.848-0.047,6.801,4.039,7.813,7.617c0.734,2.363,0.844,3.215,0.922,6.973c0.082,3.828,0.199,4.488,0.918,5.027
c0.441,0.332,0.57,0.242,0.625-0.434c0.125-1.504,1.922-0.578,1.953,1.008c0.035,1.758-1.902,2.324-3.332,0.973
c-0.762-0.719-0.774-0.711-1.012,0.703c-0.16,0.945-1.262,6.875,1.559,8.352c0.531,0.051,0.656-0.375,0.261-0.871
c-0.789-0.992,0.79-2.141,2.079-1.508c1.559,0.766,1.402,3.273-0.262,4.168c-1.902,1.02-4.363-0.141-5.516-2.598
c-0.844-1.805-0.84-4.309,0.016-8.027c0.394-1.715,0.566-2.805,0.656-4.117c0.031-0.434,0.082-0.902,0.113-1.047
c0.094-0.398-0.105-0.418-0.789-0.074c-1.863,0.938-3.894,0.27-4.394-1.445c-0.598-2.051,1.691-4.172,3.101-2.875
c0.536,0.492,0.473,0.984-0.168,1.297c-1.113,0.547-0.734,1.988,0.446,1.703c3.89-1.164,0.336-12.078-4.047-12.836
c-2.895-0.5-5.168,2.801-3.07,4.563c0.82,0.691,1.652,0.32,1.472-0.656c-0.25-1.359,1.559-1.215,2.231,0.184
c1.089,2.27-1.723,4.121-4.352,2.863C71.754,93.012,74.977,86.957,79.242,86.871L79.242,86.871z M96.688,87.738l3.879,2.609
l0.035,5.063l-3.855-2.285L96.688,87.738z M105.238,88.176l0.016,4.652l-3.742,2.723v-4.949L105.238,88.176z M115.324,91.227
l-1.914,5.336l-12.09,8.266l-9.973-6.254l-1.715-4.938l11.75,7.613L115.324,91.227z M36.871,91.613l-0.004,27.016
c-3.918,0.168-6.164,4.043-3.23,7.704c0,0-0.512,0.065-1.109,0.147c-2.653,0.367-4.426,1.77-4.075,3.473
c0.11,0.52,0,1.047-0.152,1.309c-0.234,0.698-0.172,1.234,0.145,1.836c0.25,0.473,0.207,0.664,0.066,1.016
c-0.297,0.754-0.227,1.336,0.125,1.91c0.437,0.43,0.316,0.772,0.258,1.457c-0.071,0.965,0.105,1.354,0.711,1.729
c0.785,0.485,1.078,1.282,0.187,1.215c-0.445-0.03-2.004,1.474-2.004,1.474l-0.148-43.355L36.871,91.613z M58.11,95.078
c0.703,0,1.421,0.879,2.461,2.367c0.625,1.063,0.636,0.918,2.07,0.863c1.461,0.105,2.355,0.492,2.738,0.934
c0.145,0.168-0.242,0.211-1.168,1.152c-0.957,0.973-1.094,1.359-1.73,2.449c-0.231,0.395-0.731,0.434-0.965,0.074
c-0.192-0.293,0.297-1.234,1.207-2.348c1.285-1.238,1.016-1.363-0.852-1.168c-1.312,0.137-1.453,0.07-1.949-0.727
c-1.488-2.949-2.277-2.852-3.699,0.094c-0.387,0.824-0.234,0.77-1.914,0.641c-1.324-0.102-1.653,0.23-0.906,0.926
c1.168,0.961,1.621,3.219,1.558,3.191l-0.902,0.082c0,0-0.274-0.508-0.395-0.828c-0.246-0.648-0.902-1.625-1.617-2.395
c-1.008-1.09-0.453-1.688,1.801-1.934c1.258-0.133,1.285-0.152,1.863-0.996C56.731,95.965,57.41,95.082,58.11,95.078L58.11,95.078z
M112.941,97.77l-1.301,4.609l-10.313,7.23l-8.387-5.598l-1.113-4.336l9.637,6.105L112.941,97.77z M77.391,101.418
c0,0,2.98,5.809,4.062,9.57c0.942,3.273,2.25,12.75,1.903,13.332c-0.731-1.004-3.153-0.777-3.184-0.77
c0.203-1.109-0.695-3.348-2.758-3.789L77.391,101.418z M111.316,103.543l-1.027,4.539l-8.781,6.348l-7.246-4.949l-0.949-4.387
l8.016,5.355L111.316,103.543z M60.27,103.797l1.14,0.395l0.215,8.195l8.785,1.461l0.2,1.402l-10.172-1.641
C60.332,110.113,60.27,103.797,60.27,103.797L60.27,103.797z M55.813,104.039l0.246,9.531c-0.094-0.031-7.324,1-10.09,1.727
l0.164-1.305c0,0,5.023-1.094,8.66-1.516c0-2.664-0.019-5.465-0.023-8.184L55.813,104.039z M137.539,105.793
c0,0,1.195,0.113,3.75-0.336c6.594-1.156,8.379-0.688,9.223,1.344c0.922,3.152-2.535,3.23-3.148,1.227
c-0.395-1.297-1.809-1.012-6.535,0.109c-4.047,0.957-6.605,0.191-6.559-2.098C134.32,103.684,137.004,103.473,137.539,105.793
L137.539,105.793z M83.356,104.07c0.812-0.012,1.488,0.641,1.5,1.457c0.011,0.816-0.641,1.484-1.457,1.496
c-0.817,0.012-1.485-0.637-1.496-1.453C81.891,104.758,82.539,104.082,83.356,104.07L83.356,104.07z M61.934,104.332l1.043,0.313
c0,0,0.152,6.219,0.183,6.227c2.239,0.492,6.946,1.375,6.946,1.375l0.246,1.23c-1.969-0.461-8.242-1.488-8.242-1.488
C61.91,109.293,61.934,104.332,61.934,104.332L61.934,104.332z M54.336,104.449c0,0,0.004,4.961-0.082,7.625
c0.035-0.023-5.324,0.855-8.047,1.418l0.211-0.996c2.153-0.484,4.496-0.973,6.867-1.469c-0.046-1.953-0.043-6.23-0.043-6.23
L54.336,104.449z M58.164,105.516c0.653-0.008,1.196,0.52,1.207,1.172c0.008,0.656-0.519,1.191-1.175,1.199
c-0.653,0.012-1.188-0.508-1.2-1.164C56.989,106.066,57.508,105.523,58.164,105.516L58.164,105.516z M147.371,108.613
c0.73,1.078,1.34,1.047,2.059,0.941c-0.18,0.055-1.031,0.555-0.98,0.723c0.023,0.082-0.359,1.445,0.223,1.504
c2.188,0.211,1.082,2.48,1.344,2.832c0.59,0.672,1.023,1.102,0.617,1.941c-0.359,0.746-0.875,0.723-0.477,1.363
c0.875,1.309-0.332,1.582-0.227,2.473c0.074,0.539,0.266,1.273,0.066,1.695c-0.602,1.262-2.715,1.98-5.066,2.082
c-0.336,0.012-0.082-0.535-0.238-0.879c-0.582-0.367-0.262-0.988-0.066-1.395c0.191-0.535,0.195-0.535-0.168-0.809
c-1-0.625-0.949-0.91-0.871-1.363c0.223-1.332,0.016-1.461-0.387-1.66c-0.516-0.25-0.445-0.813-0.215-1.535
c0.156-0.496,0.047-0.621-0.195-1.074c-0.145-0.266-0.188-0.41-0.191-0.578c0.074-0.691-0.543-0.688-1.406-0.012
c-0.73,1.258-0.98,2.914-1.441,3.957c-0.352,0.805-0.41,1.645,0.012,3.496c0.813,2.828,0.211,3.301-2.977,2.695
c-2.395-0.59-3.102-3.145-2.434-6.273c0.105-0.504,0.078-0.996,0.027-1.391c-0.258-2.152,0.297-4.223,1.801-5.637
c2.508-2.355,3.75-2.715,8.934-2.387c2.031,0.145,2.184,0.273,2.184,0.273S147.309,108.621,147.371,108.613L147.371,108.613z
M110.02,109.262l-0.605,4.387l-4.867,3.434c-2.293-1.809-4.063-1.207-5.676,0.734c-1.277-0.648-3.832-2.414-3.832-2.414
l-0.652-4.977l7.078,4.91L110.02,109.262z M58.27,110.301c0.652-0.008,1.188,0.516,1.199,1.172c0.008,0.652-0.512,1.191-1.168,1.203
c-0.652,0.008-1.195-0.512-1.207-1.168C57.086,110.855,57.614,110.313,58.27,110.301L58.27,110.301z M109.203,114.793l-0.266,4.227
l-1.73,1.301l-1.742-0.18l-0.414-2.617L109.203,114.793z M58.239,114.828c0.656-0.012,1.195,0.52,1.207,1.172
c0.007,0.656-0.52,1.191-1.172,1.199c-0.657,0.012-1.192-0.512-1.2-1.164C57.063,115.379,57.582,114.836,58.239,114.828
L58.239,114.828z M63.012,114.961c0.656-0.012,1.191,0.512,1.199,1.164c0.012,0.656-0.508,1.195-1.164,1.203
c-0.656,0.012-1.195-0.516-1.203-1.168C61.836,115.504,62.36,114.969,63.012,114.961L63.012,114.961z M53.52,115.188
c0.656-0.012,1.195,0.512,1.203,1.168c0.008,0.656-0.512,1.195-1.164,1.203c-0.656,0.008-1.199-0.516-1.207-1.168
C52.34,115.734,52.864,115.195,53.52,115.188L53.52,115.188z M141.699,115.379c0.332-0.027,0.828,0.469,0.586,1.211
c-0.32,0.848-0.094,1.133,0.441,1.82c0.457,0.582,0.375,0.664,0.305,1.035c-0.102,2.438,1.469,1.383,0.785,3.156
c-0.148,0.387,0.051,0.938,0.117,1.391c-0.152-0.418-3.043-0.379-3.289,0.047c-0.41-0.063-0.93-2.777-0.516-3.137
c0.055,0,0.355,0.469,0.508,0.73c0.391,0.656,0.473,0.633,0.352-0.129C140.508,118.477,140.797,115.398,141.699,115.379
L141.699,115.379z M67.801,115.59c0.652-0.008,1.191,0.516,1.203,1.168c0.008,0.656-0.515,1.191-1.172,1.199
c-0.652,0.012-1.188-0.508-1.199-1.164C66.625,116.137,67.145,115.598,67.801,115.59L67.801,115.59z M48.594,115.809
c0.656-0.008,1.191,0.516,1.199,1.168c0.012,0.656-0.512,1.191-1.164,1.199c-0.656,0.012-1.199-0.508-1.207-1.164
C47.41,116.355,47.938,115.816,48.594,115.809L48.594,115.809z M95.09,116.152l3.555,2.305c0.059,0.727-0.035,1.766,0.203,2.117
c-2.32-0.215-3.492,1.105-3.492,1.105L95.09,116.152z M58.625,118.055c3.891,0.031,7.66,0.648,11.156,1.781l-0.273,1.254
c-7-1.805-14.824-1.898-22.301,0.082l-0.582-1.316c3.766-1.172,7.547-1.746,11.223-1.797
C58.11,118.059,58.367,118.055,58.625,118.055L58.625,118.055z M36.637,119.758c1.019-0.02,2.062,0.363,2.797,1.184
c1.379,1.543,0.715,4.406-1.235,5.319c-2.914,1.36-5.953-1.55-4.714-4.554C34,120.461,35.328,119.781,36.637,119.758L36.637,119.758
z M108.793,120.125l-0.043,1.254l-0.887-0.738L108.793,120.125z M90.242,120.18c1.286-0.02,2.34,1.012,2.36,2.297
s-1.008,2.344-2.293,2.363c-1.285,0.016-2.344-1.008-2.36-2.297C87.93,121.258,88.957,120.199,90.242,120.18L90.242,120.18z
M36.703,120.254c-0.316,0.004-0.836,0.133-1.074,0.352c-0.617,0.574,0.004,0.59,0.824,0.738c1.453,0.27,1.856,1.523,1.723,2.875
c-0.121,1.23,0.293,1.211,0.625,0.754C40.16,123.113,39,120.406,36.703,120.254L36.703,120.254z M104.242,120.875
c-0.031,0.016-0.066,0.035-0.066,0.035C104.191,120.926,104.215,120.906,104.242,120.875L104.242,120.875z M58.25,121.605
c1.742-0.035,1.922,2.828,0.383,6.026c-0.461,0.962-0.699,0.845-1.207-0.608C56.176,123.441,56.446,121.645,58.25,121.605
L58.25,121.605z M62.278,121.688c0.336-0.016,0.66,0.113,0.929,0.414c0.934,1.07,0.215,2.797-2.281,5.457
c-0.605,0.645-0.918,0.891-1.141,0.895c-0.625,0.016-0.621-0.09,0.086-2.398c0.313-1.016,0.621-2.133,0.688-2.48
C60.766,122.465,61.539,121.727,62.278,121.688L62.278,121.688z M55.977,124.25c0.168,0.793,0.469,1.895,0.66,2.449
c0.191,0.558,0.316,1.086,0.285,1.176c-0.152,0.426-1.266-0.156-2.058-1.074c-1.598-1.855-2.239-3.473-1.907-4.34
c0.485-0.691,1.727-1,2.297-0.395C55.844,122.695,55.93,124.035,55.977,124.25L55.977,124.25z M66.992,122.402
c1.684,0.992-0.257,3.262-4.031,5.144c-1.617,0.806-1.5,0.442-0.277-1.147c0.469-0.605,1.097-1.598,1.406-2.203
C64.766,122.859,65.446,121.523,66.992,122.402L66.992,122.402z M50.172,122.41c0.535-0.004,1.082,0.566,2.094,2.035
c0.453,0.656,1.187,1.586,1.637,2.069c0.445,0.485,0.796,0.97,0.777,1.07c-0.172,1.032-5.43-2.229-5.809-3.604
C48.742,123.145,49.403,122.395,50.172,122.41L50.172,122.41z M125.398,125.395c0.949,1.949,1.031,3.164,0.246,3.605
c-1.113,0.625-2.547-0.332-2.574-1.719c-0.012-0.465-0.488-2.094-0.93-3.148c-0.359-0.871-0.41-1.406-0.113-1.449
C123.191,122.871,124.91,124.48,125.398,125.395L125.398,125.395z M119.109,123.918c-0.367,1.113-0.754,2.852-0.75,3.359
c0,0.199-0.121,0.609-0.266,0.906c-0.961,1.98-3.238,0.367-2.402-1.703c0.758-1.867,2.68-3.813,3.438-3.875
C119.645,122.563,119.16,123.754,119.109,123.918L119.109,123.918z M120.645,122.848c0.379-0.039,0.695,0.793,1.188,2.191
c0.664,1.886,0.637,3.359-0.078,3.984c-1.531,1.344-3.141-0.605-2.52-3.059C119.727,124.008,120.215,122.891,120.645,122.848
L120.645,122.848z M69.262,123.195c1.906,28.055-12.477,49.64-13.5,50.226l-4.895,2.677l-8.586-4.677
c8.899-12.194,14.215-26.175,14.618-42.414C65.129,129.809,69.364,123.223,69.262,123.195L69.262,123.195z M116.426,123.281
c0.598-0.164,0.18,0.359-0.414,1.219c-0.637,0.918-1.461,3.41-2.117,3.809c-1.465,0.703-3.125-0.641-2.238-1.808
C112.477,125.426,114.887,123.703,116.426,123.281L116.426,123.281z M125.156,123.473c0.23,0,0.66,0.152,1.285,0.457
c3.055,1.492,4.563,3.461,3.254,4.402c-0.918,0.66-1.898,0.148-2.816-1.594c-0.313-0.59-0.879-1.469-1.262-1.953
C124.93,123.906,124.77,123.473,125.156,123.473L125.156,123.473z M142.336,124.473c1.961-0.027,3.578,1.535,3.605,3.5
s-1.539,3.582-3.504,3.609s-3.578-1.543-3.605-3.508C138.801,126.109,140.371,124.5,142.336,124.473L142.336,124.473z
M141.254,125.395c-2.313,1.024-1.617,4.651,0.375,5.176c0.844,0.234,1.863-0.113,1.445-0.52c-2.633-0.824-2.648-2.766-1.59-4.184
C141.656,125.641,141.426,125.32,141.254,125.395L141.254,125.395z M45,130.387c-0.09,2.051,0.352,4.426-0.625,6.652
c-1.484,3.421-6.254,4.984-8.801,4.68c-0.531-0.216-1.148-0.423-1.671-0.203c-0.317,0.137-0.707,0.116-1.043-0.039
c-0.329-0.152-0.641,0.047-0.957-0.066c-0.368-0.25-0.969-0.816-0.899-1.239c0.113-0.593,0.067-1.03-0.629-1.226
c-0.961-0.274-1.156-0.793-0.875-2.317c0.063-0.332,0.137-0.479-0.078-0.625c-0.711-0.472-0.98-1.351-0.512-2.28
c0.305-0.531,0.539-0.91-0.007-1.332c-0.215-0.488-0.18-0.677,0.285-1.302c0.496-0.589,0.582-0.655,0.265-1.164
c-0.714-1.136,0.094-1.976,1.055-2.444c1.289-0.527,2.414-0.801,3.773-0.957c0.504,0.026,0.485,0.473,0.79,0.902
c0.445,0.695-0.184,1.702,0.179,2.059c0.528,0.242,0.766,0.726,0.723,1.144c-0.016,0.966,0.043,1.298,0.305,1.7
c0.289,0.449,0.398,1.27,0.125,1.832c-0.239,0.496-0.215,0.461,0.101,0.754c0.317,0.293,0.469,1.75,0.36,1.723l1.32-0.121
c-0.137,0.145,0.496-2.727,2.004-4.945c-0.082-1.738-0.746-3.336-0.688-5.633C42.766,124.77,45.125,127.543,45,130.387L45,130.387z
M95.711,126.48c0.469,0.367,2.809,1.02,2.895,0.945c-0.074,1.12,0.609,3.297,3.047,4.023c0.031,3.125,0.004,17.543,0.004,17.543
C98.262,143.301,96.156,135.953,95.711,126.48L95.711,126.48z M38.887,126.988c0,0,0.129,0.414,0.246,1.219
c0.211,1.641-0.016,1.863-0.449,0.742c-0.512-1.313-0.539-0.289,0.035,2.715c0.141,0.727,0.133,0.898-0.043,1.387
c-0.113,0.309-0.312,1.023-0.469,1.586c-0.461,1.648-0.726,2.125-1.199,0.813c-0.242-0.672-0.441-0.778-0.269-1.301
c0.214-0.656,0.16-1.148-0.27-1.785c-0.07-0.106-0.227-0.344-0.254-1.024c0.133-1.522-0.547-1.538-0.68-1.929
c0.024-0.598-0.254-2.043,0.157-2.004c0.336,0.031,1.558,0.066,2.136-0.149C38.086,127.164,38.887,126.988,38.887,126.988
L38.887,126.988z M89.524,127.176c1.261-0.02,2.296,0.992,2.316,2.254s-0.988,2.297-2.25,2.313c-1.262,0.02-2.305-0.985-2.32-2.246
C87.25,128.234,88.262,127.195,89.524,127.176L89.524,127.176z M54.25,128.566l1.735,0.328c0.382,0.129,0.101,24-13.754,41.227
l-0.121-3.993C48.703,156.589,53.453,144.887,54.25,128.566L54.25,128.566z M83.606,129.07l0.316,5.703
c-0.973-0.828-3.449-2.383-3.43-2.414l0.012-2.109C80.504,130.253,82.629,130.414,83.606,129.07L83.606,129.07z M70.262,129.148
c0.418,0.176,0.781,0.582,1.141,0.871l-1.133,0.762L70.262,129.148z M109.926,129.438c7.473,2.215,14.836,2.151,22.113,0.531
l0.496,1.395c-7.895,2.14-15.742,2.015-23.543-0.473L109.926,129.438z M73.723,130.503l0.402,2.457l-4.219,2.731l0.204-3.734
l2.199-1.426L73.723,130.503z M111.066,132.55c0.684-0.007,1.242,0.535,1.254,1.22c0.008,0.68-0.535,1.242-1.219,1.25
c-0.68,0.012-1.238-0.535-1.25-1.215C109.844,133.121,110.387,132.563,111.066,132.55L111.066,132.55z M130.273,132.652
c0.68-0.008,1.242,0.535,1.254,1.219c0.008,0.684-0.539,1.242-1.219,1.254c-0.684,0.007-1.238-0.54-1.25-1.219
C129.047,133.223,129.59,132.664,130.273,132.652L130.273,132.652z M94.305,136.488c0.551,1.949,0.43,6.351-0.281,9.34
c-0.215,0.895-0.344,4.078-0.344,4.078c-0.133,0.168,4.234-3.613,5.637,1.344c0.484,1.703-1.477,3.32-2.789,2.848
c-0.258-0.095-0.18-0.938,0.066-1.434c0.727-1.48-1.348-2.25-2.531-0.938c-2.734,3.035,0.078,10.719,4.363,11.465
c3.555,0.621,6.41-2.922,4.035-5.031c-1.039-0.922-2.699,0.352-1.938,1.523c0.813,1.254-0.684,1.758-1.816,0.594
c-1.973-2.027,0.242-5.082,3.223-4.375c4.762,1.082,3.781,8.527-1.211,8.945c-3.82,0.32-6.391-1.345-8.004-4.293
c-1.516-2.832-1.629-5.095-0.934-10.063c0.41-2.949,0.07-5.438-0.75-5.418c-0.449,0.008-0.796,0.226-0.872,0.754
c-0.144,1.078-0.269,1.281-0.945,0.891c-0.859-0.5-1.336-2.105,0.066-3.191c1.442-1.113,3.309,0.625,3.235,0.922
c0.035-0.055,0.18-0.336,0.371-1.602c0.633-4.117-0.766-8.466-2.496-7.77c-0.379,0.152-0.332,0.324,0.164,0.602
c1.148,0.648,0.137,2.309-1.309,2.141c-2.047-0.238-2.511-3.094-0.711-4.356C91.375,131.934,93.691,134.328,94.305,136.488
L94.305,136.488z M80.328,133.059c0,0,3.633,2.215,3.825,2.785c0.125,0.363,0.273,3.543,0.273,3.543l-6.305-3.945l-9.035,5.586
c0.149-1.227,0.801-4.383,0.801-4.383l4.805-3.043C74.715,133.785,78.016,135.964,80.328,133.059L80.328,133.059z M125.449,133.27
c0.684-0.008,1.242,0.539,1.254,1.219c0.008,0.683-0.535,1.242-1.215,1.254c-0.684,0.008-1.242-0.532-1.254-1.215
C124.227,133.844,124.77,133.281,125.449,133.27L125.449,133.27z M115.832,133.289c0.68-0.008,1.246,0.535,1.254,1.214
c0.012,0.685-0.539,1.247-1.219,1.259c-0.684,0.008-1.242-0.539-1.25-1.219C114.605,133.859,115.148,133.3,115.832,133.289
L115.832,133.289z M120.668,133.57c0.68-0.012,1.246,0.535,1.254,1.219c0.012,0.68-0.535,1.242-1.219,1.25
c-0.68,0.012-1.242-0.536-1.25-1.219C119.441,134.141,119.984,133.578,120.668,133.57L120.668,133.57z M108.559,135.32
c3.273,0.68,6.555,1.379,9.691,1.723l0.129,9.628l-0.918-0.05l-0.133-8.605c-3.031-0.216-5.887-0.867-8.574-1.563L108.559,135.32z
M132.891,135.632l-0.168,1.134c0,0-5.664,0.977-8.621,1.359c-0.047,1.938-0.039,8.414-0.039,8.414l-1.133,0.207l-0.004-9.801
C126.285,136.578,129.637,136.203,132.891,135.632L132.891,135.632z M78.11,136.176l6.668,4.406l0.781,4.668l-7.77-5.165
c0,0-7.043,4.743-9.675,6.5l0.8-4.401L78.11,136.176z M108.875,137.046c2.684,0.567,5.367,1.157,8.051,1.388l0.113,7.75
l-1.234-0.328l-0.098-6.289c-2.094-0.18-4.246-0.586-6.41-1.043L108.875,137.046z M132.613,137.277l-0.227,1.051
c0,0-4.297,0.648-6.512,1.047c-0.195,0.043-0.125,6.816-0.125,6.816l-1.059,0.164l-0.125-7.91L132.613,137.277z M120.582,138.145
c0.684-0.013,1.238,0.535,1.25,1.219c0.012,0.68-0.531,1.242-1.215,1.25c-0.68,0.012-1.242-0.531-1.25-1.215
C119.355,138.719,119.902,138.152,120.582,138.145L120.582,138.145z M78.008,140.938l7.879,5.319c0,0,0.914,2.771,1.109,4.306
l-9.066-5.855l-11.344,7.52l1.313-4.645L78.008,140.938z M30.254,141.102c0.465,0.008,0.934,0.319,1.176,1.035
c0.34,1.012,0.98,1.313,2.66,1.281c3.293-0.176,6.75-1.727,9.859-0.563c1.516,0.559,2.051,2.785,0.786,3.367
c-1.375,0.633-1.957,0.234-2.434-0.845c-0.441-0.46-0.988-0.386-3.941,0.122c-1.305,0.21-2.836,0.398-4.125,0.503
c-3.293,0.267-5.11-0.769-5.52-2.729C28.453,142.02,29.473,141.089,30.254,141.102L30.254,141.102z M120.516,142.902
c0.684-0.012,1.242,0.531,1.254,1.211c0.008,0.683-0.539,1.246-1.219,1.258c-0.684,0.007-1.242-0.536-1.254-1.219
C119.289,143.473,119.836,142.91,120.516,142.902L120.516,142.902z M96.379,144.406c0.887-0.016,1.613,0.695,1.629,1.582
c0.012,0.887-0.699,1.617-1.586,1.629c-0.887,0.015-1.613-0.696-1.625-1.582C94.785,145.148,95.492,144.418,96.379,144.406
L96.379,144.406z M78.02,145.531c0,0,6.484,4.328,9.488,6.332l1.656,4.765l-11.043-7.179l-13.511,8.789l1.621-4.903L78.02,145.531z
M124.836,147.02c0.586,1.582,1.652,2.789,2.781,4.016c0,0-0.629,1.191-2.871,1.121c-1.223-0.039-1.289,0.152-1.707,0.984
c-0.688,1.051-1.246,1.737-1.691,2.082c-0.785,0.605-2.254-0.297-3.469-2.138c-0.441-0.667-0.625-0.823-1.957-0.796
c-2.047,0.043-2.785-0.527-1.723-1.445c0.926-1.13,1.59-2.371,2.422-3.559l0.918,0.105c0.039,0.137-0.715,2.418-1.777,3.344
c-0.535,0.609,0.219,0.828,1.531,0.551c0.836-0.25,1.051-0.153,1.668,1.125c1.289,2.434,1.957,2.316,3.484-0.153
c0.535-1.101,0.516-1.211,1.98-0.894c1.578,0.16,2.051-0.039,1.406-0.586c-1.309-1.113-2.031-3.727-2.031-3.727L124.836,147.02z
M78.078,150.281c0,0,11.727,7.679,11.696,7.512l2.347,5.539L78.36,154.18l-16.813,10.934l2.516-5.481L78.078,150.281z
M78.531,155.324l4.086,2.688l-0.011,4.84l-4.176-2.806L78.531,155.324z M77.481,155.464l0.074,4.774l-3.664,2.183l-0.203-4.479
L77.481,155.464z M72.832,158.543l-0.035,0.184l0.086,0.047l0.031,0.004l0.133,4.301L68.828,166l0.016-4.859L72.832,158.543z
M83.629,158.594l3.844,2.566l0.156,5.121l-4.168-2.73L83.629,158.594z M88.375,161.723l3.852,2.676l0.137,5.113l-3.938-2.648
L88.375,161.723z M67.973,161.738l-0.02,4.726l-3.836,2.681l-0.179-4.828L67.973,161.738z M108.539,167.839
c-0.758,0.793-1.039,0.696-1.691-0.616c-0.676-1.359-1.691-1.992-3.16-1.97c-1.855,0.036-0.645-1.183,1.324-1.327
C108.41,163.777,110.137,166.059,108.539,167.839L108.539,167.839z M63.074,165.066l0.102,4.742l-3.816,1.984l-0.118-2.25
l1.965-3.434L63.074,165.066z M58.153,171.402l0.132,0.863l-0.707,0.273L58.153,171.402z M123.969,183.277
c-0.012-0.004-0.016,0-0.016,0.016h0.043C123.984,183.285,123.973,183.277,123.969,183.277L123.969,183.277z M123.996,183.293
c0.492,0.324,4.883,6.688,5.191,13.57c0.168,1.82-0.617,2.168-1.012,0.437c-0.641-2.819-2.41-5.284-4.711-6.565
c-11.621-4.309-16.582,10.277-8.922,16.172c2.727,1.972,7.984,1.75,9.832-0.977c0.574-0.848,1.156-0.766,1.23-0.23
c0.035,0.265-0.098,0.449-0.809,1.086c-2.871,2.578-4.59,6.227-3.676,8.895c1.207,3.543,4.516,5.991,8.328,6.555
c4.094,0.601,8.352-2.281,9.605-6.024c1.148-3.433,0.137-6.328-3.047-9.218c-1.5-1.36-1.574-1.469-1.266-1.793
c0.301-0.313,0.5-0.235,1.242,0.48c2.289,2.211,6.555,3.402,9.367,2.102c4.504-2.082,6.438-9.09,3.359-13.68
c-1.863-3.73-6.945-5.121-11.191-3.059c-2.262,1.098-4.254,3.664-4.848,6.238c-0.266,1.156-0.93,1.363-1.031,0.324
c0.313-4.188,0.902-6.931,5.496-14.305L123.996,183.293z M162.672,190.477c0,0,1.676,3.457,1.922,5.276
c0.184,1.336,0.211,1.884-0.152,1.888c-0.117,0.004-0.406-0.645-0.516-1.148c-0.898-4.145-6.922-4.082-7.793,0.063
c-0.887,4.215,2.922,7.198,6.25,4.577c1.367-0.94,1.434-0.511,0.078,0.864c-2.609,2.609-1.461,6.261,1.82,7.234
c4.461,1.319,7.207-4.117,3.422-7.57c-0.484-0.5-0.922-0.992-0.926-1.098c-0.004-0.267,0.328-0.289,0.586-0.012
c2.172,2.277,6.547,1.574,7.215-1.348c1.258-5.477-5.813-7.816-7.762-2.922c-0.477,1.219-0.402,1.39-0.648,1.152
c-0.137-0.129-0.098-0.638,0.055-1.324c0.305-1.387,2.285-5.59,2.285-5.59L162.672,190.477z M104.086,205.574
c-16.062,3.438-31.461,2.222-42.515,0.176l-5.047,8.632l-0.348-0.015l-1.301,2.23l0.137,0.258c0,0-4.195,8.051-5.961,10.59
c20.645-0.199,65.953-0.297,65.953-0.297l-2.758-5.551l0.148-0.152l-2.727-5.797l-0.887-1.004c0,0-0.539-1.047-0.945-2.172
c-0.375-1.035-1.973-3.871-1.973-3.871l-0.227,0.02L104.086,205.574z M62.153,206.789c0.214,0.168,20.574,4.004,41.679,0.063
l1.156,1.934c-18.473,4.25-45.2,0.188-44.145-0.203L62.153,206.789z M62.504,210.585c1.863-0.065,3.75,0.935,5.02,2.603
c0.406,0.531,1.066,2.098,1.066,2.098s0.891-1.473,1.766-2.211c1.324-1.117,3.039-2.051,5.519-1.965
c2.285,0.082,4.797,1.32,7.067,4.894c0.574-2.062,8.078-9.069,14.261-0.332c0.707-2.323,4.016-6.961,9.371-3.718
c0.367,0.781,0.746,1.645,0.746,1.645c-3.164-2.216-8.375-0.73-9.609,2.727c-0.109,0.422,0.031,0.64,0.195,1.047
c1.629,2.328-2.613,2.273-1.355,0.391c0.234-0.43,0.254-0.781-0.121-1.344c-0.992-1.488-3.984-3.344-6.18-3.297
c-2.539,0.054-5.347,1.738-6.285,3.266c-0.348,0.566-0.426,1.129-0.121,1.62c0.223,0.5,0.145,0.914-0.227,1.22
c-0.871,0.719-1.968-0.109-1.55-1.168c0.277-0.465,0.234-1.039-0.332-1.832c-1.137-1.599-3.786-3.277-6.094-3.23
c-3.301,0.078-6.637,2.457-6.426,4.414c0.09,0.859-0.144,1.179-0.848,1.082c-0.851-0.121-0.949-0.926-0.343-1.582
c0.086-0.211,0.234-0.723-0.043-1.094c-3.489-4.719-8.707-3.344-9.907-2.289C59.239,211.535,60.86,210.645,62.504,210.585
L62.504,210.585z M59.399,213.859c1.308,0.012,2.718,1,3.164,1.772c0.324-0.336,3.285-1.745,4.722,0.274
c-3.765-0.285-3.812,3.715-1.027,4.097c-1.269,3.86,4.422,4.091,4.063,0.47c4.25,0.629,3.726-4.763-0.278-4.195
c2.098-1.527,3.528-1.035,6.047,0.719c0.848-1.105,4.305-2.137,5.152-0.207c-3.961-0.246-3.289,4.339-0.328,4.382
c-0.879,3.177,4.942,4.349,4.043-0.401c3.692,0.262,3.16-4.73-0.383-4.316c0.266-0.91,3.856-1.301,5.446,0.434
c1.457-1.332,3.066-2.246,5.977-0.341c-3.965-0.659-4.016,4.489-0.332,4.181c-0.344,3.41,4.863,3.465,3.996-0.474
c3.965-1.069,1.785-5.312-1.129-4.144c1.297-1.543,3.496-0.816,4.371-0.504c2.699-3.086,5.051-0.504,5.051-0.504
c-4.699-0.492-3.676,6.203,0.902,3.776c-0.008,1.375,0.586,2.567,2.453,2.763l2.223,4.598l-62.954,0.414l3.473-6.106
c0.352,0.11,2.359,0.293,2.793-2.062c4.137,1.312,4.414-3.504,1.324-4.266C58.539,213.96,58.965,213.855,59.399,213.859
L59.399,213.859z M156.863,214.43v2.336h1.844l5.254,11.789l-5.031,8.234h-1.938v2.089h7.34v-2.089h-2.445l6.73-9.707v9.707h-2.023
v2.089h6.703v-2.039h-2.203v-20.073h2.203v-2.336h-6.703v2.336h2.023v5.93l-2.859,3.68l-4.285-9.609h2.859v-2.336H156.863z
M56.946,215.602c0.41,0.664,0.066,1.094-0.641,1.108C56.305,216.71,56.766,216.043,56.946,215.602L56.946,215.602z
M108.734,216.457l0.406,0.855C108.699,217.132,108.645,216.945,108.734,216.457L108.734,216.457z M108.734,216.457"/>
</svg>
