<?xml version="1.0" encoding="utf-8"?>
<!DOCTYPE svg PUBLIC "-//W3C//DTD SVG 1.1//EN" "http://www.w3.org/Graphics/SVG/1.1/DTD/svg11.dtd" [
<!ENTITY ns_svg "http://www.w3.org/2000/svg">
<!ENTITY ns_xlink "http://www.w3.org/1999/xlink">
]>
<svg version="1.1" id="Layer_1" xmlns="&ns_svg;" xmlns:xlink="&ns_xlink;" width="179.379" height="250.246"
viewBox="0 0 179.379 250.246" overflow="visible" enable-background="new 0 0 179.379 250.246" xml:space="preserve">
<path fill="#FFFFFF" d="M8.903,0.398h161.574c4.711,0,8.504,3.793,8.504,8.504v232.441c0,4.711-3.793,8.504-8.504,8.504H8.903
c-4.711,0-8.504-3.793-8.504-8.504V8.902C0.399,4.191,4.192,0.398,8.903,0.398L8.903,0.398z M8.903,0.398"/>
<path fill="none" stroke="#000000" stroke-width="0.7974" d="M8.903,0.398h161.574c4.711,0,8.504,3.793,8.504,8.504v232.441
c0,4.711-3.793,8.504-8.504,8.504H8.903c-4.711,0-8.504-3.793-8.504-8.504V8.902C0.399,4.191,4.192,0.398,8.903,0.398L8.903,0.398z
M8.903,0.398"/>
<path d="M6.938,37.711l0.129-1.617c0.41-4.992,1.5-6.676,7.699-11.883c3.008-2.527,3.996-3.773,4.133-5.223
c0.394-3.406-2.68-4.473-4.684-4.488c-2.594-0.027-5.527,1.527-4.129,5.129L7.18,20.484c-0.59-3.359,0.012-6.516,2.738-7.914
c3.637-1.824,8.305-1.109,10.66,1.766c1.582,1.93,1.942,4.598,1.094,6.684c-2.48,5.336-10.898,7.684-11.594,13.855h9.305v-3.438
h2.742v6.328L6.938,37.711z M6.938,37.711"/>
<path d="M172.223,212.539l-0.133,1.617c-0.406,4.988-1.5,6.676-7.695,11.883c-3.008,2.527-3.996,3.773-4.137,5.218
c-0.391,3.411,2.684,4.474,4.684,4.493c2.594,0.023,5.531-1.527,4.129-5.129l2.91-0.855c0.59,3.359-0.012,6.512-2.738,7.914
c-3.637,1.823-8.305,1.109-10.66-1.766c-1.582-1.93-1.941-4.598-1.094-6.684c2.48-5.34,10.898-7.688,11.594-13.855h-9.305v3.434
h-2.742v-6.324L172.223,212.539z M172.223,212.539"/>
<path d="M83.781,68.625c2.301-4.617,3.981-9.359,4.278-14.43c0.273-1.863-0.86-1.895-1.031-0.582
c-3.262,12.477-20.61,9.098-20.012-2.637c0.48-9.516,9.933-11.563,14.863-8.453c1.949,1.148,1.836,0.461,0.774-0.727
c-7.321-8.172-2.887-18.691,7.011-18.883c10.704,0.633,13.481,11.895,6.915,18.52c-0.816,0.793-2.625,3.352,0.098,1.563
c6.629-4.711,15.832,0.355,15.645,7.617c-0.348,13.391-16.672,14.391-20.164,3.207c-0.336-1.242-1.305-1.863-1.035,0.242
c0.484,3.813,1.484,9.563,4.348,14.563H83.781z M83.781,68.625"/>
<path d="M95.543,181.96c-2.305,4.622-3.984,9.36-4.281,14.431c-0.273,1.862,0.859,1.895,1.031,0.582
c3.262-12.473,20.609-9.098,20.016,2.637c-0.484,9.516-9.938,11.562-14.867,8.453c-1.949-1.148-1.836-0.461-0.773,0.727
c7.324,8.171,2.887,18.691-7.012,18.882c-10.703-0.632-13.48-11.894-6.914-18.519c0.817-0.793,2.625-3.352-0.097-1.563
c-6.629,4.711-15.832-0.354-15.645-7.616c0.348-13.391,16.672-14.391,20.164-3.203c0.336,1.237,1.305,1.858,1.035-0.246
c-0.484-3.813-1.484-9.563-4.347-14.563H95.543z M95.543,181.96"/>
<path d="M11.364,60.129c0.953-1.957,1.882-3.777,2.386-5.922c0.336-2.023-0.351-1.27-0.738,0.055
c-0.578,1.836-2.18,2.676-3.664,2.695c-2.699,0.035-4.043-2.086-3.961-4.363c-0.293-2.398,2.137-4.098,3.973-3.965
c1.375,0.098,2.578,0.84,3.304,1.418c0.477,0.254,0.989,0.363,0.278-0.285c-1.344-1.469-2.461-2.371-2.438-4.57
c0.024-2.063,1.785-4.215,4.125-4.145c2.918,0.082,4.25,2.309,4.242,4.383c-0.007,1.512-0.765,2.902-1.929,3.762
c-0.758,0.613-0.543,1.07,0.316,0.492c0.828-0.715,1.816-1.027,2.836-1.047c2.793-0.043,3.887,2.367,3.727,4.609
c-0.153,2.102-1.942,4.266-4.297,4.02c-2.106-0.242-3.211-2.008-3.844-3.82c-0.211-0.559-0.539-0.707-0.531,0.121
c0.484,4.047,1.992,6.563,2.004,6.563H11.364z M11.364,60.129"/>
<path d="M168.016,190.063c-0.957,1.953-1.883,3.772-2.391,5.918c-0.332,2.022,0.352,1.272,0.742-0.056
c0.578-1.836,2.176-2.672,3.664-2.694c2.695-0.035,4.043,2.086,3.957,4.363c0.297,2.398-2.137,4.098-3.969,3.965
c-1.379-0.099-2.578-0.84-3.305-1.418c-0.48-0.254-0.988-0.363-0.277,0.284c1.344,1.47,2.461,2.371,2.438,4.571
c-0.023,2.063-1.789,4.214-4.125,4.148c-2.922-0.086-4.25-2.313-4.242-4.388c0.008-1.511,0.762-2.901,1.93-3.761
c0.754-0.614,0.543-1.071-0.32-0.493c-0.828,0.716-1.813,1.028-2.836,1.047c-2.793,0.048-3.883-2.366-3.723-4.608
c0.148-2.103,1.938-4.262,4.293-4.021c2.105,0.243,3.211,2.009,3.848,3.825c0.207,0.554,0.539,0.703,0.531-0.125
c-0.488-4.043-1.996-6.563-2.004-6.559H168.016z M168.016,190.063"/>
</svg>
