<?xml version="1.0" encoding="utf-8"?>
<!DOCTYPE svg PUBLIC "-//W3C//DTD SVG 1.1//EN" "http://www.w3.org/Graphics/SVG/1.1/DTD/svg11.dtd" [
<!ENTITY ns_svg "http://www.w3.org/2000/svg">
<!ENTITY ns_xlink "http://www.w3.org/1999/xlink">
]>
<svg version="1.1" id="Layer_1" xmlns="&ns_svg;" xmlns:xlink="&ns_xlink;" width="179.379" height="250.246"
viewBox="0 0 179.379 250.246" overflow="visible" enable-background="new 0 0 179.379 250.246" xml:space="preserve">
<path fill="#FFFFFF" d="M8.903,0.398h161.574c4.711,0,8.504,3.793,8.504,8.504v232.441c0,4.711-3.793,8.504-8.504,8.504H8.903
c-4.711,0-8.504-3.793-8.504-8.504V8.902C0.399,4.191,4.192,0.398,8.903,0.398L8.903,0.398z M8.903,0.398"/>
<path fill="none" stroke="#000000" stroke-width="0.7974" d="M8.903,0.398h161.574c4.711,0,8.504,3.793,8.504,8.504v232.441
c0,4.711-3.793,8.504-8.504,8.504H8.903c-4.711,0-8.504-3.793-8.504-8.504V8.902C0.399,4.191,4.192,0.398,8.903,0.398L8.903,0.398z
M8.903,0.398"/>
<path d="M5.926,30.648l2.063-1.488c1.792,2.859,3.792,4.746,6.855,4.422c4.594-0.309,6.496-5.035,5.531-8.602
c-0.926-3.191-4.73-4.75-7.754-3.047c-0.711,0.402-1.535,0.902-1.535,0.902l-1.078-1.754l7.098-8.254h-7.7v3.414H6.449v-6.125H21.5
v2.078c0,0-4.031,4.105-5.367,6.355c3.285,0.117,5.93,2.16,6.879,5.391c0.555,1.699,0.305,5.586-0.422,7.262
c-1.207,2.793-4.519,5.059-7.547,5.188C9.969,36.727,7.27,33.234,5.926,30.648L5.926,30.648z M5.926,30.648"/>
<path d="M172.973,219.602l-2.063,1.487c-1.793-2.862-3.793-4.745-6.852-4.421c-4.594,0.309-6.496,5.035-5.535,8.598
c0.93,3.194,4.734,4.754,7.754,3.047c0.715-0.402,1.539-0.82,1.539-0.82l1.273,1.645l-7.293,8.284h7.699v-3.414h2.953v6.121h-15.047
v-2.077c0,0,4.031-4.102,5.363-6.352c-3.281-0.121-5.93-2.16-6.875-5.391c-0.555-1.699-0.305-5.586,0.418-7.263
c1.211-2.793,4.52-5.058,7.547-5.19C168.934,213.52,171.629,217.016,172.973,219.602L172.973,219.602z M172.973,219.602"/>
<path d="M83.5,148.253c2.328-4.675,4.028-9.472,4.328-14.601c0.278-1.887-0.871-1.918-1.043-0.59
c-3.3,12.625-20.855,9.207-20.254-2.668c0.493-9.633,10.055-11.703,15.047-8.555c1.969,1.16,1.856,0.465,0.782-0.738
c-7.411-8.266-2.922-18.914,7.093-19.109c10.833,0.645,13.645,12.039,7,18.742c-0.828,0.805-2.66,3.395,0.098,1.586
c6.711-4.77,16.02,0.355,15.832,7.707c-0.352,13.551-16.875,14.562-20.406,3.242c-0.34-1.254-1.32-1.888-1.047,0.246
c0.488,3.859,1.5,9.68,4.398,14.737H83.5z M83.5,148.253"/>
<path d="M83.449,68.574c2.329-4.68,4.028-9.477,4.329-14.605c0.277-1.887-0.872-1.918-1.043-0.59
c-3.301,12.625-20.86,9.207-20.254-2.668c0.488-9.629,10.054-11.703,15.043-8.555c1.972,1.16,1.859,0.465,0.785-0.738
c-7.41-8.266-2.922-18.914,7.094-19.109c10.832,0.645,13.64,12.039,6.996,18.742c-0.824,0.805-2.656,3.395,0.102,1.586
c6.707-4.77,16.02,0.355,15.828,7.707c-0.348,13.551-16.871,14.563-20.402,3.242c-0.34-1.254-1.32-1.887-1.051,0.246
c0.492,3.859,1.504,9.68,4.402,14.742H83.449z M83.449,68.574"/>
<path d="M95.352,181.887c-2.332,4.676-4.031,9.473-4.332,14.602c-0.277,1.89,0.871,1.922,1.043,0.59
c3.301-12.621,20.859-9.203,20.254,2.672c-0.488,9.628-10.055,11.699-15.043,8.55c-1.969-1.159-1.859-0.465-0.785,0.739
c7.414,8.27,2.926,18.914-7.094,19.109c-10.832-0.642-13.641-12.039-6.996-18.742c0.824-0.805,2.656-3.391-0.102-1.582
c-6.707,4.765-16.019-0.36-15.828-7.707c0.352-13.555,16.871-14.563,20.402-3.246c0.34,1.257,1.321,1.886,1.051-0.246
c-0.492-3.859-1.504-9.676-4.402-14.738H95.352z M95.352,181.887"/>
<path d="M10.723,59.695c0.965-1.977,1.902-3.82,2.414-5.992c0.34-2.043-0.356-1.285-0.75,0.059
c-0.582,1.859-2.203,2.707-3.707,2.727c-2.731,0.035-4.09-2.109-4.004-4.418c-0.301-2.426,2.16-4.145,4.016-4.012
c1.394,0.102,2.609,0.852,3.343,1.438c0.485,0.254,1,0.367,0.282-0.289c-1.36-1.484-2.493-2.402-2.465-4.625
c0.023-2.086,1.808-4.266,4.172-4.195c2.957,0.086,4.3,2.34,4.293,4.438c-0.008,1.527-0.77,2.934-1.95,3.805
c-0.765,0.621-0.55,1.086,0.321,0.5c0.836-0.723,1.836-1.039,2.871-1.063c2.824-0.043,3.93,2.398,3.765,4.668
c-0.148,2.125-1.96,4.313-4.343,4.066c-2.133-0.246-3.25-2.031-3.891-3.867c-0.215-0.563-0.547-0.715-0.539,0.125
c0.492,4.094,2.016,6.641,2.027,6.637H10.723z M10.723,59.695"/>
<path d="M168.656,191.145c-0.965,1.977-1.902,3.819-2.414,5.992c-0.34,2.043,0.352,1.284,0.746-0.059
c0.586-1.859,2.207-2.707,3.711-2.727c2.727-0.035,4.09,2.108,4.004,4.418c0.297,2.426-2.164,4.145-4.016,4.012
c-1.395-0.102-2.613-0.852-3.348-1.438c-0.484-0.255-1-0.367-0.277,0.288c1.355,1.485,2.488,2.403,2.465,4.625
c-0.023,2.087-1.809,4.267-4.176,4.196c-2.953-0.086-4.301-2.34-4.293-4.438c0.008-1.527,0.773-2.934,1.953-3.806
c0.766-0.621,0.551-1.085-0.32-0.5c-0.84,0.724-1.836,1.04-2.871,1.063c-2.828,0.043-3.93-2.398-3.77-4.668
c0.152-2.125,1.961-4.313,4.348-4.066c2.129,0.246,3.25,2.031,3.891,3.867c0.211,0.563,0.547,0.715,0.539-0.121
c-0.492-4.098-2.02-6.645-2.031-6.641H168.656z M168.656,191.145"/>
</svg>
