<?xml version="1.0" encoding="utf-8"?>
<!DOCTYPE svg PUBLIC "-//W3C//DTD SVG 1.1//EN" "http://www.w3.org/Graphics/SVG/1.1/DTD/svg11.dtd" [
<!ENTITY ns_svg "http://www.w3.org/2000/svg">
<!ENTITY ns_xlink "http://www.w3.org/1999/xlink">
]>
<svg version="1.1" id="Layer_1" xmlns="&ns_svg;" xmlns:xlink="&ns_xlink;" width="179.379" height="250.246"
viewBox="0 0 179.379 250.246" overflow="visible" enable-background="new 0 0 179.379 250.246" xml:space="preserve">
<path fill="#FFFFFF" d="M8.903,0.398h161.574c4.711,0,8.504,3.793,8.504,8.504v232.441c0,4.711-3.793,8.504-8.504,8.504H8.903
c-4.711,0-8.504-3.793-8.504-8.504V8.902C0.399,4.191,4.192,0.398,8.903,0.398L8.903,0.398z M8.903,0.398"/>
<path fill="none" stroke="#000000" stroke-width="0.7974" d="M8.903,0.398h161.574c4.711,0,8.504,3.793,8.504,8.504v232.441
c0,4.711-3.793,8.504-8.504,8.504H8.903c-4.711,0-8.504-3.793-8.504-8.504V8.902C0.399,4.191,4.192,0.398,8.903,0.398L8.903,0.398z
M8.903,0.398"/>
<path d="M15.125,37.5v-2.25h2.071v-3.711H6.856v-2.617l11.187-16.879l1.828,0.008v16.871h3.164v2.617h-3.164l-0.062,3.711h1.734
v2.25H15.125z M17.196,18.223L10.09,28.922h7.106V18.223z M17.196,18.223"/>
<path d="M165.172,212.75V215h-2.066v3.71h10.34v2.614l-11.188,16.879l-1.828-0.004v-16.875h-3.164v-2.614h3.164l0.059-3.71h-1.734
v-2.25H165.172z M163.105,232.027l7.102-10.703h-7.102V232.027z M163.105,232.027"/>
<path d="M123.441,67.105c2.305-4.621,3.98-9.359,4.277-14.43c0.273-1.867-0.859-1.898-1.031-0.582
c-3.258,12.473-20.609,9.094-20.012-2.637c0.484-9.516,9.934-11.566,14.867-8.453c1.945,1.145,1.836,0.461,0.773-0.73
c-7.324-8.168-2.891-18.688,7.008-18.883c10.703,0.637,13.48,11.898,6.914,18.52c-0.816,0.797-2.625,3.355,0.102,1.566
c6.629-4.711,15.828,0.355,15.641,7.617c-0.348,13.391-16.672,14.391-20.164,3.203c-0.336-1.238-1.301-1.863-1.035,0.242
c0.484,3.816,1.484,9.566,4.352,14.566H123.441z M123.441,67.105"/>
<path d="M43.817,67.105c2.3-4.621,3.98-9.359,4.277-14.43c0.273-1.867-0.859-1.898-1.031-0.582
c-3.262,12.473-20.61,9.094-20.012-2.637c0.484-9.516,9.934-11.566,14.863-8.453c1.95,1.145,1.84,0.461,0.778-0.73
c-7.325-8.168-2.891-18.688,7.007-18.883c10.704,0.637,13.481,11.898,6.915,18.52c-0.817,0.797-2.625,3.355,0.097,1.566
c6.629-4.711,15.832,0.355,15.645,7.617c-0.348,13.391-16.672,14.391-20.164,3.203c-0.336-1.238-1.305-1.863-1.036,0.242
c0.485,3.816,1.485,9.566,4.348,14.566H43.817z M43.817,67.105"/>
<path d="M135.203,180.469c-2.305,4.62-3.98,9.363-4.277,14.43c-0.273,1.867,0.859,1.897,1.027,0.586
c3.262-12.478,20.613-9.098,20.016,2.637c-0.484,9.516-9.938,11.563-14.867,8.449c-1.945-1.145-1.836-0.457-0.773,0.73
c7.324,8.168,2.887,18.691-7.008,18.883c-10.703-0.638-13.48-11.898-6.918-18.52c0.816-0.797,2.629-3.352-0.098-1.566
c-6.629,4.711-15.828-0.352-15.641-7.613c0.344-13.396,16.672-14.391,20.16-3.207c0.336,1.242,1.305,1.863,1.039-0.242
c-0.484-3.813-1.488-9.563-4.352-14.566H135.203z M135.203,180.469"/>
<path d="M55.578,180.469c-2.304,4.62-3.98,9.363-4.281,14.43c-0.273,1.867,0.859,1.897,1.031,0.586
c3.262-12.478,20.61-9.098,20.016,2.637c-0.484,9.516-9.938,11.563-14.867,8.449c-1.946-1.145-1.836-0.457-0.774,0.73
c7.325,8.168,2.887,18.691-7.011,18.883c-10.703-0.638-13.481-11.898-6.914-18.52c0.816-0.797,2.628-3.352-0.098-1.566
c-6.629,4.711-15.828-0.352-15.641-7.613c0.344-13.396,16.668-14.391,20.16-3.207c0.336,1.242,1.305,1.863,1.036-0.242
c-0.481-3.813-1.485-9.563-4.348-14.566H55.578z M55.578,180.469"/>
<path d="M11.567,60.738c0.953-1.957,1.879-3.777,2.386-5.922c0.336-2.02-0.351-1.27-0.742,0.055
c-0.574,1.84-2.176,2.676-3.664,2.695c-2.695,0.035-4.039-2.082-3.957-4.363c-0.293-2.398,2.137-4.094,3.969-3.965
c1.379,0.098,2.582,0.84,3.308,1.422c0.477,0.25,0.985,0.363,0.274-0.289c-1.34-1.465-2.461-2.371-2.434-4.566
c0.02-2.066,1.785-4.215,4.121-4.148c2.922,0.086,4.25,2.313,4.243,4.383c-0.008,1.512-0.762,2.902-1.926,3.762
c-0.758,0.613-0.547,1.074,0.316,0.492c0.828-0.711,1.813-1.023,2.836-1.047c2.793-0.043,3.883,2.371,3.723,4.613
c-0.149,2.098-1.938,4.262-4.293,4.016c-2.106-0.242-3.211-2.008-3.844-3.82c-0.211-0.559-0.543-0.707-0.531,0.121
c0.484,4.047,1.992,6.563,2.004,6.563H11.567z M11.567,60.738"/>
<path d="M167.813,189.746c-0.953,1.953-1.883,3.773-2.387,5.918c-0.336,2.023,0.348,1.273,0.738-0.055
c0.578-1.836,2.18-2.676,3.664-2.695c2.695-0.036,4.043,2.086,3.957,4.363c0.297,2.397-2.137,4.098-3.969,3.965
c-1.375-0.098-2.578-0.84-3.305-1.418c-0.477-0.254-0.988-0.364-0.277,0.285c1.344,1.469,2.461,2.371,2.438,4.57
c-0.023,2.063-1.785,4.215-4.125,4.145c-2.922-0.082-4.25-2.309-4.242-4.383c0.008-1.512,0.762-2.902,1.93-3.762
c0.754-0.613,0.543-1.07-0.32-0.492c-0.824,0.715-1.813,1.026-2.832,1.047c-2.793,0.047-3.887-2.367-3.727-4.609
c0.152-2.102,1.938-4.262,4.297-4.02c2.102,0.242,3.211,2.008,3.844,3.824c0.211,0.555,0.539,0.702,0.531-0.125
c-0.488-4.048-1.992-6.563-2.004-6.559H167.813z M167.813,189.746"/>
</svg>
