<?xml version="1.0" encoding="utf-8"?>
<!DOCTYPE svg PUBLIC "-//W3C//DTD SVG 1.1//EN" "http://www.w3.org/Graphics/SVG/1.1/DTD/svg11.dtd" [
<!ENTITY ns_svg "http://www.w3.org/2000/svg">
<!ENTITY ns_xlink "http://www.w3.org/1999/xlink">
]>
<svg version="1.1" id="Layer_1" xmlns="&ns_svg;" xmlns:xlink="&ns_xlink;" width="179.379" height="250.246"
viewBox="0 0 179.379 250.246" overflow="visible" enable-background="new 0 0 179.379 250.246" xml:space="preserve">
<path fill="#FFFFFF" d="M8.903,0.398h161.574c4.711,0,8.504,3.793,8.504,8.504v232.441c0,4.711-3.793,8.504-8.504,8.504H8.903
c-4.711,0-8.504-3.793-8.504-8.504V8.902C0.399,4.191,4.192,0.398,8.903,0.398L8.903,0.398z M8.903,0.398"/>
<path fill="none" stroke="#000000" stroke-width="0.7974" d="M8.903,0.398h161.574c4.711,0,8.504,3.793,8.504,8.504v232.441
c0,4.711-3.793,8.504-8.504,8.504H8.903c-4.711,0-8.504-3.793-8.504-8.504V8.902C0.399,4.191,4.192,0.398,8.903,0.398L8.903,0.398z
M8.903,0.398"/>
<path d="M5.27,30.441c0.129-3.5,1.418-4.816,3.957-6.648c-2.028-1.438-2.879-3.551-2.707-5.352c0.418-4.355,3.847-6.535,7.59-6.441
c3.738,0.094,6.961,3.012,7.214,6.18c0.219,2.754-0.617,4.082-2.605,5.531c2.359,1.953,3.871,3.238,3.812,6.688
c-0.054,3.449-3.042,7.551-8.25,7.676C9.074,38.203,5.145,33.941,5.27,30.441L5.27,30.441z M19.809,30.453
c0.222-3.172-2.629-5.309-5.852-5.344c-3.136-0.031-5.945,2.598-5.945,5.445c0,3.055,3.652,4.715,6.008,4.727
C16.887,35.289,19.617,33.184,19.809,30.453L19.809,30.453z M18.778,19.113c0.062-2.672-2.446-4.582-5.032-4.508
c-2.3,0.07-4.734,1.793-4.738,4.027c0,2.789,2.77,4.184,5.137,4.238C16.289,22.918,18.731,21.129,18.778,19.113L18.778,19.113z
M18.778,19.113"/>
<path d="M172.902,219.809c-0.129,3.5-1.414,4.816-3.953,6.648c2.023,1.434,2.879,3.546,2.703,5.348
c-0.414,4.359-3.848,6.539-7.586,6.445c-3.742-0.098-6.965-3.012-7.215-6.18c-0.219-2.754,0.617-4.082,2.605-5.531
c-2.363-1.954-3.871-3.239-3.816-6.688c0.059-3.449,3.047-7.552,8.254-7.681C169.102,212.046,173.031,216.309,172.902,219.809
L172.902,219.809z M158.367,219.796c-0.227,3.173,2.629,5.31,5.848,5.341c3.141,0.034,5.945-2.594,5.945-5.441
c0-3.055-3.648-4.719-6.008-4.727C161.285,214.957,158.559,217.066,158.367,219.796L158.367,219.796z M159.395,231.137
c-0.063,2.668,2.445,4.582,5.031,4.504c2.301-0.066,4.738-1.789,4.738-4.023c0.004-2.793-2.77-4.184-5.133-4.239
C161.887,227.332,159.441,229.117,159.395,231.137L159.395,231.137z M159.395,231.137"/>
<path d="M125.23,68.363c2.301-4.621,3.98-9.359,4.277-14.43c0.273-1.867-0.859-1.898-1.031-0.582
c-3.262,12.473-20.609,9.094-20.012-2.637c0.484-9.516,9.934-11.563,14.863-8.453c1.949,1.148,1.84,0.461,0.777-0.73
c-7.324-8.168-2.891-18.688,7.008-18.879c10.703,0.633,13.48,11.895,6.914,18.516c-0.816,0.797-2.625,3.355,0.098,1.566
c6.629-4.711,15.832,0.355,15.645,7.617c-0.348,13.391-16.672,14.391-20.164,3.203c-0.336-1.238-1.305-1.863-1.035,0.246
c0.484,3.813,1.484,9.563,4.348,14.563H125.23z M125.23,68.363"/>
<path d="M125.23,148.563c2.301-4.621,3.98-9.359,4.277-14.431c0.273-1.866-0.859-1.897-1.031-0.581
c-3.262,12.473-20.609,9.094-20.012-2.637c0.484-9.52,9.934-11.566,14.863-8.453c1.949,1.145,1.84,0.461,0.777-0.73
c-7.324-8.168-2.891-18.688,7.008-18.883c10.703,0.637,13.48,11.898,6.914,18.52c-0.816,0.797-2.625,3.355,0.098,1.566
c6.629-4.711,15.832,0.355,15.645,7.617c-0.348,13.391-16.672,14.387-20.164,3.202c-0.336-1.237-1.305-1.862-1.035,0.243
c0.484,3.816,1.484,9.563,4.348,14.566H125.23z M125.23,148.563"/>
<path d="M42.403,148.563c2.304-4.621,3.98-9.359,4.277-14.431c0.273-1.866-0.859-1.897-1.027-0.581
c-3.262,12.473-20.614,9.094-20.016-2.637c0.484-9.52,9.937-11.566,14.867-8.453c1.945,1.145,1.836,0.461,0.774-0.73
c-7.325-8.168-2.887-18.688,7.007-18.883c10.704,0.637,13.481,11.898,6.918,18.52c-0.816,0.797-2.629,3.355,0.098,1.566
c6.629-4.711,15.828,0.355,15.641,7.617c-0.344,13.391-16.672,14.387-20.161,3.202c-0.335-1.237-1.304-1.862-1.039,0.243
c0.485,3.816,1.489,9.563,4.352,14.566H42.403z M42.403,148.563"/>
<path d="M82.551,108.461c2.301-4.617,3.98-9.359,4.277-14.43c0.274-1.863-0.859-1.895-1.031-0.582
c-3.262,12.477-20.609,9.098-20.012-2.637c0.485-9.516,9.934-11.563,14.864-8.449c1.949,1.145,1.84,0.457,0.777-0.73
c-7.324-8.172-2.891-18.691,7.008-18.883c10.703,0.633,13.48,11.895,6.914,18.52c-0.816,0.793-2.625,3.352,0.098,1.563
c6.629-4.707,15.832,0.355,15.645,7.617c-0.348,13.391-16.672,14.391-20.164,3.207c-0.336-1.242-1.305-1.863-1.035,0.242
c0.484,3.813,1.484,9.563,4.348,14.563H82.551z M82.551,108.461"/>
<path d="M42.403,68.363c2.304-4.621,3.98-9.359,4.277-14.43c0.273-1.867-0.859-1.898-1.027-0.582
c-3.262,12.473-20.614,9.094-20.016-2.637c0.484-9.516,9.937-11.563,14.867-8.453c1.945,1.148,1.836,0.461,0.774-0.73
c-7.325-8.168-2.887-18.688,7.007-18.879c10.704,0.633,13.481,11.895,6.918,18.516c-0.816,0.797-2.629,3.355,0.098,1.566
c6.629-4.711,15.828,0.355,15.641,7.617c-0.344,13.391-16.672,14.391-20.161,3.203c-0.335-1.238-1.304-1.863-1.039,0.246
c0.485,3.813,1.489,9.563,4.352,14.563H42.403z M42.403,68.363"/>
<path d="M136.992,181.727c-2.305,4.621-3.98,9.362-4.281,14.43c-0.273,1.867,0.859,1.898,1.031,0.586
c3.262-12.477,20.609-9.098,20.016,2.636c-0.484,9.517-9.938,11.563-14.867,8.45c-1.945-1.145-1.836-0.457-0.773,0.73
c7.324,8.168,2.887,18.691-7.012,18.883c-10.703-0.637-13.48-11.896-6.914-18.521c0.816-0.796,2.629-3.351-0.098-1.562
c-6.629,4.707-15.828-0.356-15.641-7.617c0.344-13.391,16.668-14.391,20.16-3.207c0.336,1.242,1.305,1.863,1.035-0.242
c-0.48-3.813-1.484-9.563-4.348-14.566H136.992z M136.992,181.727"/>
<path d="M94.313,142.289c-2.305,4.621-3.98,9.359-4.282,14.43c-0.273,1.863,0.86,1.898,1.032,0.581
c3.262-12.472,20.609-9.093,20.016,2.638c-0.484,9.516-9.938,11.563-14.867,8.453c-1.945-1.148-1.836-0.461-0.773,0.73
c7.324,8.168,2.887,18.688-7.012,18.879c-10.703-0.633-13.48-11.895-6.914-18.516c0.816-0.797,2.629-3.356-0.098-1.566
c-6.629,4.71-15.828-0.355-15.64-7.618c0.343-13.39,16.668-14.39,20.16-3.202c0.336,1.237,1.305,1.862,1.035-0.246
c-0.48-3.813-1.484-9.563-4.348-14.563H94.313z M94.313,142.289"/>
<path d="M54.164,181.727c-2.3,4.621-3.98,9.362-4.277,14.43c-0.273,1.867,0.859,1.898,1.031,0.586
c3.258-12.477,20.61-9.098,20.012,2.636c-0.484,9.517-9.934,11.563-14.867,8.45c-1.946-1.145-1.836-0.457-0.774,0.73
c7.325,8.168,2.891,18.691-7.008,18.883c-10.703-0.637-13.48-11.896-6.914-18.521c0.817-0.796,2.625-3.351-0.101-1.562
c-6.629,4.707-15.828-0.356-15.641-7.617c0.348-13.391,16.672-14.391,20.164-3.207c0.336,1.242,1.301,1.863,1.035-0.242
c-0.484-3.813-1.484-9.563-4.351-14.566H54.164z M54.164,181.727"/>
<path d="M11.164,62.27c0.953-1.957,1.883-3.777,2.387-5.922c0.336-2.02-0.352-1.27-0.738,0.055c-0.578,1.84-2.18,2.676-3.664,2.695
c-2.7,0.039-4.043-2.082-3.961-4.363c-0.293-2.398,2.136-4.094,3.968-3.965c1.379,0.098,2.583,0.844,3.309,1.422
c0.477,0.25,0.988,0.363,0.274-0.289c-1.34-1.465-2.461-2.371-2.434-4.566c0.023-2.063,1.785-4.215,4.121-4.148
c2.922,0.086,4.25,2.313,4.246,4.387c-0.008,1.508-0.766,2.898-1.93,3.762c-0.757,0.613-0.543,1.07,0.317,0.492
c0.828-0.715,1.812-1.027,2.836-1.051c2.793-0.043,3.883,2.371,3.722,4.613c-0.148,2.102-1.937,4.262-4.293,4.016
c-2.105-0.238-3.21-2.008-3.843-3.82c-0.211-0.555-0.543-0.707-0.532,0.121c0.485,4.047,1.993,6.566,2.004,6.563H11.164z
M11.164,62.27"/>
<path d="M168.215,191.113c-0.953,1.957-1.883,3.777-2.387,5.922c-0.336,2.02,0.348,1.27,0.738-0.055
c0.578-1.84,2.18-2.676,3.664-2.695c2.695-0.039,4.043,2.082,3.957,4.363c0.297,2.397-2.137,4.094-3.969,3.965
c-1.379-0.098-2.578-0.844-3.305-1.422c-0.477-0.25-0.988-0.363-0.277,0.289c1.344,1.465,2.461,2.371,2.438,4.565
c-0.023,2.063-1.785,4.216-4.125,4.149c-2.922-0.086-4.25-2.313-4.242-4.387c0.008-1.508,0.762-2.898,1.93-3.763
c0.754-0.612,0.543-1.069-0.32-0.491c-0.828,0.715-1.813,1.027-2.836,1.051c-2.789,0.043-3.883-2.371-3.723-4.613
c0.148-2.102,1.938-4.262,4.297-4.016c2.102,0.237,3.207,2.008,3.844,3.819c0.207,0.556,0.539,0.707,0.531-0.121
c-0.488-4.047-1.992-6.565-2.004-6.562H168.215z M168.215,191.113"/>
</svg>
