<?xml version="1.0" encoding="utf-8"?>
<!DOCTYPE svg PUBLIC "-//W3C//DTD SVG 1.1//EN" "http://www.w3.org/Graphics/SVG/1.1/DTD/svg11.dtd" [
<!ENTITY ns_svg "http://www.w3.org/2000/svg">
<!ENTITY ns_xlink "http://www.w3.org/1999/xlink">
]>
<svg version="1.1" id="Layer_1" xmlns="&ns_svg;" xmlns:xlink="&ns_xlink;" width="179.379" height="250.246"
viewBox="0 0 179.379 250.246" overflow="visible" enable-background="new 0 0 179.379 250.246" xml:space="preserve">
<path fill="#FFFFFF" d="M8.903,0.398h161.574c4.711,0,8.504,3.793,8.504,8.504v232.441c0,4.711-3.793,8.504-8.504,8.504H8.903
c-4.711,0-8.504-3.793-8.504-8.504V8.902C0.399,4.191,4.192,0.398,8.903,0.398L8.903,0.398z M8.903,0.398"/>
<path fill="none" stroke="#000000" stroke-width="0.7974" d="M8.903,0.398h161.574c4.711,0,8.504,3.793,8.504,8.504v232.441
c0,4.711-3.793,8.504-8.504,8.504H8.903c-4.711,0-8.504-3.793-8.504-8.504V8.902C0.399,4.191,4.192,0.398,8.903,0.398L8.903,0.398z
M8.903,0.398"/>
<path d="M6.977,31.879l2.422-0.75c0.914,2.395,2.761,3.102,4.715,2.949c3.503-0.273,4.667-4.117,4.933-7.52
c-1.367,1.418-3.422,2.141-5.168,2.07c-5.586-0.297-7.015-4.684-7.07-9.281c-0.153-3.875,1.48-6.684,4.281-7.969
c1.481-0.656,4.875-0.656,6.367,0.117c3.426,1.773,4.692,4.84,4.461,12.152c0.004,6.02-1.297,13.031-7.867,13.18
C10.25,37.344,7.367,34.445,6.977,31.879L6.977,31.879z M16.489,25.285c1.14-0.707,1.781-1.371,2.292-2.367
c0.422-0.82,0.563-1.246,0.442-2.938c-0.305-4.363-2.637-6.84-6.02-6.348c-1.882,0.273-2.914,1.313-3.504,3.238
c-1.093,3.559,0.293,7.727,2.887,8.688C13.754,25.988,15.559,25.863,16.489,25.285L16.489,25.285z M16.489,25.285"/>
<path d="M171.809,218.367l-2.422,0.754c-0.914-2.395-2.762-3.102-4.715-2.95c-3.504,0.274-4.668,4.118-4.93,7.521
c1.363-1.422,3.418-2.141,5.164-2.07c5.586,0.293,7.016,4.684,7.07,9.281c0.156,3.875-1.48,6.683-4.281,7.969
c-1.48,0.652-4.875,0.652-6.367-0.118c-3.426-1.772-4.691-4.839-4.461-12.151c-0.004-6.02,1.297-13.031,7.867-13.181
C168.535,212.906,171.418,215.805,171.809,218.367L171.809,218.367z M162.297,224.964c-1.141,0.707-1.781,1.371-2.293,2.368
c-0.422,0.82-0.563,1.242-0.441,2.938c0.309,4.362,2.637,6.84,6.02,6.348c1.883-0.273,2.914-1.313,3.504-3.239
c1.094-3.558-0.293-7.726-2.887-8.687C165.031,224.257,163.23,224.382,162.297,224.964L162.297,224.964z M162.297,224.964"/>
<path d="M124.426,121.457c2.301-4.617,3.98-9.359,4.277-14.43c0.273-1.863-0.859-1.895-1.031-0.582
c-3.262,12.477-20.609,9.098-20.012-2.637c0.484-9.516,9.934-11.563,14.863-8.453c1.949,1.148,1.84,0.461,0.777-0.727
c-7.324-8.172-2.891-18.691,7.008-18.883c10.703,0.633,13.48,11.895,6.914,18.52c-0.816,0.793-2.625,3.352,0.098,1.563
c6.629-4.707,15.832,0.355,15.645,7.617c-0.348,13.391-16.672,14.391-20.164,3.207c-0.336-1.242-1.305-1.863-1.035,0.242
c0.484,3.813,1.484,9.563,4.348,14.563H124.426z M124.426,121.457"/>
<path d="M83.77,143.18c2.301-4.617,3.98-9.359,4.277-14.43c0.274-1.863-0.859-1.895-1.031-0.582
c-3.262,12.473-20.61,9.098-20.012-2.637c0.485-9.516,9.934-11.563,14.863-8.453c1.95,1.148,1.84,0.461,0.778-0.727
c-7.324-8.172-2.891-18.691,7.008-18.883c10.703,0.633,13.48,11.895,6.914,18.52c-0.816,0.793-2.625,3.352,0.098,1.563
c6.633-4.711,15.832,0.355,15.645,7.617c-0.348,13.391-16.672,14.391-20.164,3.203c-0.336-1.239-1.301-1.86-1.035,0.246
c0.484,3.813,1.484,9.563,4.352,14.563H83.77z M83.77,143.18"/>
<path d="M43.199,121.457c2.301-4.617,3.981-9.359,4.278-14.43c0.273-1.863-0.86-1.895-1.031-0.582
c-3.262,12.477-20.61,9.098-20.012-2.637c0.484-9.516,9.933-11.563,14.863-8.453c1.949,1.148,1.84,0.461,0.777-0.727
c-7.324-8.172-2.89-18.691,7.008-18.883c10.703,0.633,13.481,11.895,6.914,18.52c-0.816,0.793-2.625,3.352,0.098,1.563
c6.633-4.707,15.832,0.355,15.645,7.617c-0.348,13.391-16.672,14.391-20.165,3.207c-0.335-1.242-1.3-1.863-1.035,0.242
c0.485,3.813,1.485,9.563,4.352,14.563H43.199z M43.199,121.457"/>
<path d="M124.426,69.195c2.301-4.621,3.98-9.363,4.277-14.43c0.273-1.867-0.859-1.898-1.031-0.586
c-3.262,12.477-20.609,9.098-20.012-2.637c0.484-9.516,9.934-11.563,14.863-8.449c1.949,1.145,1.84,0.457,0.777-0.73
c-7.324-8.168-2.891-18.688,7.008-18.883c10.703,0.637,13.48,11.898,6.914,18.52c-0.816,0.797-2.625,3.352,0.098,1.566
c6.629-4.711,15.832,0.352,15.645,7.617c-0.348,13.391-16.672,14.387-20.164,3.203c-0.336-1.242-1.305-1.863-1.035,0.242
c0.484,3.813,1.484,9.563,4.348,14.566H124.426z M124.426,69.195"/>
<path d="M43.199,69.195c2.301-4.621,3.981-9.363,4.278-14.43c0.273-1.867-0.86-1.898-1.031-0.586
c-3.262,12.477-20.61,9.098-20.012-2.637c0.484-9.516,9.933-11.563,14.863-8.449c1.949,1.145,1.84,0.457,0.777-0.73
c-7.324-8.168-2.89-18.688,7.008-18.883C59.785,24.117,62.563,35.379,55.996,42c-0.816,0.797-2.625,3.352,0.098,1.566
c6.633-4.711,15.832,0.352,15.645,7.617c-0.348,13.391-16.672,14.387-20.165,3.203c-0.335-1.242-1.3-1.863-1.035,0.242
c0.485,3.813,1.485,9.563,4.352,14.566H43.199z M43.199,69.195"/>
<path d="M54.961,181.348c-2.305,4.621-3.98,9.359-4.281,14.43c-0.274,1.867,0.863,1.897,1.031,0.582
c3.262-12.473,20.61-9.094,20.016,2.637c-0.485,9.516-9.938,11.566-14.867,8.453c-1.946-1.145-1.836-0.461-0.774,0.73
c7.324,8.168,2.887,18.688-7.008,18.883c-10.707-0.637-13.484-11.898-6.918-18.52c0.817-0.797,2.629-3.355-0.097-1.566
c-6.629,4.711-15.828-0.355-15.641-7.617c0.344-13.391,16.668-14.391,20.16-3.203c0.336,1.238,1.305,1.863,1.035-0.242
c-0.48-3.816-1.484-9.566-4.347-14.566H54.961z M54.961,181.348"/>
<path d="M136.188,181.348c-2.305,4.621-3.98,9.359-4.281,14.43c-0.273,1.867,0.859,1.897,1.031,0.582
c3.262-12.473,20.609-9.094,20.016,2.637c-0.484,9.516-9.938,11.566-14.867,8.453c-1.945-1.145-1.836-0.461-0.773,0.73
c7.324,8.168,2.887,18.688-7.012,18.883c-10.703-0.637-13.48-11.898-6.914-18.52c0.816-0.797,2.629-3.355-0.098-1.566
c-6.629,4.711-15.828-0.355-15.641-7.617c0.344-13.391,16.668-14.391,20.16-3.203c0.336,1.238,1.305,1.863,1.035-0.242
c-0.48-3.816-1.484-9.566-4.348-14.566H136.188z M136.188,181.348"/>
<path d="M136.188,129.262c-2.305,4.62-3.98,9.363-4.281,14.43c-0.273,1.867,0.859,1.897,1.031,0.586
c3.262-12.478,20.609-9.098,20.016,2.637c-0.484,9.516-9.938,11.563-14.867,8.449c-1.945-1.145-1.836-0.457-0.773,0.73
c7.324,8.168,2.887,18.691-7.012,18.883c-10.703-0.638-13.48-11.895-6.914-18.52c0.816-0.797,2.629-3.352-0.098-1.563
c-6.629,4.707-15.828-0.355-15.641-7.617c0.344-13.391,16.668-14.391,20.16-3.207c0.336,1.242,1.305,1.863,1.035-0.242
c-0.48-3.813-1.484-9.563-4.348-14.566H136.188z M136.188,129.262"/>
<path d="M54.961,129.262c-2.305,4.62-3.98,9.363-4.281,14.43c-0.274,1.867,0.863,1.897,1.031,0.586
c3.262-12.478,20.61-9.098,20.016,2.637c-0.485,9.516-9.938,11.563-14.867,8.449c-1.946-1.145-1.836-0.457-0.774,0.73
c7.324,8.168,2.887,18.691-7.008,18.883c-10.707-0.638-13.484-11.895-6.918-18.52c0.817-0.797,2.629-3.352-0.097-1.563
c-6.629,4.707-15.828-0.355-15.641-7.617c0.344-13.391,16.668-14.391,20.16-3.207c0.336,1.242,1.305,1.863,1.035-0.242
c-0.48-3.813-1.484-9.563-4.347-14.566H54.961z M54.961,129.262"/>
<path d="M10.926,58.602c0.953-1.957,1.883-3.777,2.387-5.922c0.336-2.02-0.348-1.27-0.739,0.055
c-0.578,1.84-2.179,2.676-3.664,2.695c-2.695,0.039-4.043-2.082-3.957-4.363c-0.297-2.398,2.137-4.094,3.969-3.965
c1.379,0.098,2.578,0.844,3.305,1.422c0.476,0.25,0.988,0.363,0.277-0.289c-1.344-1.465-2.461-2.371-2.437-4.566
c0.023-2.063,1.785-4.215,4.125-4.148c2.922,0.086,4.25,2.313,4.242,4.387c-0.008,1.508-0.762,2.898-1.93,3.762
c-0.754,0.613-0.543,1.07,0.32,0.492c0.829-0.715,1.813-1.027,2.836-1.051c2.789-0.043,3.883,2.371,3.723,4.613
c-0.148,2.102-1.937,4.262-4.297,4.016c-2.101-0.238-3.211-2.008-3.844-3.82c-0.207-0.555-0.539-0.707-0.531,0.121
c0.488,4.047,1.992,6.566,2.004,6.563H10.926z M10.926,58.602"/>
<path d="M168.449,190.339c-0.953,1.957-1.879,3.778-2.387,5.923c-0.336,2.02,0.352,1.27,0.742-0.055
c0.574-1.84,2.176-2.676,3.664-2.695c2.695-0.035,4.039,2.082,3.957,4.363c0.293,2.398-2.137,4.094-3.969,3.964
c-1.379-0.097-2.582-0.839-3.309-1.421c-0.477-0.25-0.984-0.363-0.273,0.289c1.34,1.464,2.461,2.371,2.438,4.566
c-0.023,2.065-1.789,4.215-4.125,4.147c-2.922-0.086-4.25-2.312-4.242-4.382c0.008-1.512,0.762-2.902,1.926-3.762
c0.758-0.613,0.547-1.074-0.316-0.492c-0.828,0.711-1.813,1.023-2.836,1.047c-2.793,0.043-3.883-2.372-3.723-4.613
c0.148-2.098,1.938-4.262,4.293-4.016c2.105,0.242,3.211,2.007,3.844,3.82c0.211,0.559,0.543,0.707,0.531-0.121
c-0.484-4.047-1.992-6.563-2.004-6.563H168.449z M168.449,190.339"/>
</svg>
