<?xml version="1.0" encoding="utf-8"?>
<!DOCTYPE svg PUBLIC "-//W3C//DTD SVG 1.1//EN" "http://www.w3.org/Graphics/SVG/1.1/DTD/svg11.dtd" [
<!ENTITY ns_svg "http://www.w3.org/2000/svg">
<!ENTITY ns_xlink "http://www.w3.org/1999/xlink">
]>
<svg version="1.1" id="Layer_1" xmlns="&ns_svg;" xmlns:xlink="&ns_xlink;" width="179.379" height="250.246"
viewBox="0 0 179.379 250.246" overflow="visible" enable-background="new 0 0 179.379 250.246" xml:space="preserve">
<path fill="#FFFFFF" d="M8.903,0.398h161.574c4.711,0,8.504,3.793,8.504,8.504v232.441c0,4.711-3.793,8.504-8.504,8.504H8.903
c-4.711,0-8.504-3.793-8.504-8.504V8.902C0.399,4.191,4.192,0.398,8.903,0.398L8.903,0.398z M8.903,0.398"/>
<path fill="none" stroke="#000000" stroke-width="0.7974" d="M8.903,0.398h161.574c4.711,0,8.504,3.793,8.504,8.504v232.441
c0,4.711-3.793,8.504-8.504,8.504H8.903c-4.711,0-8.504-3.793-8.504-8.504V8.902C0.399,4.191,4.192,0.398,8.903,0.398L8.903,0.398z
M8.903,0.398"/>
<path fill="#D40000" d="M71.793,125.23c7.934-7.746,13.149-16.191,18.133-24.313c4.371,8.938,10.645,16.754,17.43,24.313
c-7.262,7.492-12.887,15.508-17.41,23.934C84.934,140.527,79.653,132.707,71.793,125.23L71.793,125.23z M71.793,125.23"/>
<path fill="#D40000" d="M157.379,199.628c3.254-3.171,5.387-6.628,7.43-9.957c1.789,3.661,4.359,6.864,7.141,9.957
c-2.973,3.071-5.277,6.356-7.133,9.806C162.762,205.898,160.602,202.691,157.379,199.628L157.379,199.628z M157.379,199.628"/>
<path fill="#D40000" d="M6.676,51.082c3.25-3.176,5.387-6.633,7.43-9.961c1.789,3.66,4.359,6.863,7.14,9.961
c-2.976,3.07-5.281,6.352-7.132,9.805C12.059,57.348,9.899,54.145,6.676,51.082L6.676,51.082z M6.676,51.082"/>
<path fill="#D40000" d="M6.184,37.254v-2.191h2.129l4.531-23.418h2.582l4.992,23.418h1.719v2.191h-5.856v-2.191h1.583l-0.629-3.59
h-5.911l-0.457,3.59h1.582v2.191H6.184z M16.727,28.922L14.16,16.383l-2.406,12.539H16.727z M16.727,28.922"/>
<path fill="#D40000" d="M173.191,212.996v2.191h-2.129l-4.531,23.414h-2.578l-4.996-23.414h-1.715v-2.191h5.852v2.191h-1.582
l0.633,3.586h5.906l0.457-3.586h-1.582v-2.191H173.191z M162.648,221.328l2.566,12.539l2.406-12.539H162.648z M162.648,221.328"/>
</svg>
