<?xml version="1.0" encoding="utf-8"?>
<!DOCTYPE svg PUBLIC "-//W3C//DTD SVG 1.1//EN" "http://www.w3.org/Graphics/SVG/1.1/DTD/svg11.dtd" [
<!ENTITY ns_svg "http://www.w3.org/2000/svg">
<!ENTITY ns_xlink "http://www.w3.org/1999/xlink">
]>
<svg version="1.1" id="Layer_1" xmlns="&ns_svg;" xmlns:xlink="&ns_xlink;" width="179.379" height="250.246"
viewBox="0 0 179.379 250.246" overflow="visible" enable-background="new 0 0 179.379 250.246" xml:space="preserve">
<path fill="#FFFFFF" d="M8.903,0.398h161.574c4.711,0,8.504,3.793,8.504,8.504v232.441c0,4.711-3.793,8.504-8.504,8.504H8.903
c-4.711,0-8.504-3.793-8.504-8.504V8.902C0.399,4.191,4.192,0.398,8.903,0.398L8.903,0.398z M8.903,0.398"/>
<path fill="none" stroke="#000000" stroke-width="0.7974" d="M8.903,0.398h161.574c4.711,0,8.504,3.793,8.504,8.504v232.441
c0,4.711-3.793,8.504-8.504,8.504H8.903c-4.711,0-8.504-3.793-8.504-8.504V8.902C0.399,4.191,4.192,0.398,8.903,0.398L8.903,0.398z
M8.903,0.398"/>
<path fill="#D40000" d="M26.676,46.246c7.938-7.746,13.148-16.191,18.137-24.313c4.371,8.938,10.645,16.754,17.426,24.313
c-7.258,7.492-12.883,15.508-17.407,23.934C39.817,61.543,34.539,53.723,26.676,46.246L26.676,46.246z M26.676,46.246"/>
<path fill="#D40000" d="M26.676,98.508c7.938-7.742,13.148-16.188,18.137-24.309c4.371,8.934,10.645,16.754,17.426,24.309
c-7.258,7.496-12.883,15.512-17.407,23.934C39.817,113.809,34.539,105.984,26.676,98.508L26.676,98.508z M26.676,98.508"/>
<path fill="#D40000" d="M26.676,152.027c7.938-7.746,13.148-16.192,18.137-24.313c4.371,8.938,10.645,16.755,17.426,24.313
c-7.258,7.492-12.883,15.508-17.407,23.933C39.817,167.324,34.539,159.503,26.676,152.027L26.676,152.027z M26.676,152.027"/>
<path fill="#D40000" d="M26.676,204.109c7.938-7.742,13.148-16.188,18.137-24.31c4.371,8.935,10.645,16.755,17.426,24.31
c-7.258,7.496-12.883,15.512-17.407,23.937C39.817,219.41,34.539,211.585,26.676,204.109L26.676,204.109z M26.676,204.109"/>
<path fill="#D40000" d="M71.625,73.734c7.934-7.742,13.149-16.188,18.133-24.309c4.371,8.934,10.645,16.754,17.43,24.309
c-7.262,7.496-12.887,15.512-17.41,23.934C84.766,89.031,79.485,81.211,71.625,73.734L71.625,73.734z M71.625,73.734"/>
<path fill="#D40000" d="M71.25,176.41c7.938-7.746,13.149-16.191,18.133-24.313c4.371,8.938,10.645,16.754,17.43,24.313
c-7.258,7.492-12.883,15.508-17.407,23.934C84.391,191.707,79.114,183.887,71.25,176.41L71.25,176.41z M71.25,176.41"/>
<path fill="#D40000" d="M115.902,46.246c7.938-7.746,13.148-16.191,18.133-24.313c4.375,8.938,10.645,16.754,17.43,24.313
c-7.258,7.492-12.883,15.508-17.406,23.934C129.043,61.543,123.766,53.723,115.902,46.246L115.902,46.246z M115.902,46.246"/>
<path fill="#D40000" d="M115.902,98.508c7.938-7.742,13.148-16.188,18.133-24.309c4.375,8.934,10.645,16.754,17.43,24.309
c-7.258,7.496-12.883,15.512-17.406,23.934C129.043,113.809,123.766,105.984,115.902,98.508L115.902,98.508z M115.902,98.508"/>
<path fill="#D40000" d="M115.902,152.027c7.938-7.746,13.148-16.192,18.133-24.313c4.375,8.938,10.645,16.755,17.43,24.313
c-7.258,7.492-12.883,15.508-17.406,23.933C129.043,167.324,123.766,159.503,115.902,152.027L115.902,152.027z M115.902,152.027"/>
<path fill="#D40000" d="M115.902,204.109c7.938-7.742,13.148-16.188,18.133-24.31c4.375,8.935,10.645,16.755,17.43,24.31
c-7.258,7.496-12.883,15.512-17.406,23.937C129.043,219.41,123.766,211.585,115.902,204.109L115.902,204.109z M115.902,204.109"/>
<path fill="#D40000" d="M157.922,199.273c3.254-3.172,5.387-6.629,7.43-9.957c1.789,3.66,4.359,6.863,7.141,9.957
c-2.977,3.07-5.281,6.354-7.133,9.805C163.305,205.543,161.145,202.339,157.922,199.273L157.922,199.273z M157.922,199.273"/>
<path fill="#D40000" d="M6.871,50.59c3.25-3.172,5.387-6.633,7.43-9.961c1.789,3.66,4.359,6.863,7.137,9.961
c-2.973,3.07-5.278,6.352-7.129,9.805C12.254,56.855,10.09,53.652,6.871,50.59L6.871,50.59z M6.871,50.59"/>
<path fill="#D40000" d="M6.5,36.676V11.469h2.489v25.207H6.5z M6.5,36.676"/>
<path fill="#D40000" d="M16.364,11.469c-2.395,0-4.321,2.152-4.321,4.82v15.57c0,2.668,1.926,4.816,4.321,4.816h1.394
c2.398,0,4.328-2.148,4.328-4.816v-15.57c0-2.668-1.93-4.82-4.328-4.82H16.364z M17.086,13.852c1.414,0,2.551,1.07,2.551,2.402
v15.777c0,1.332-1.137,2.406-2.551,2.406c-1.418,0-2.555-1.074-2.555-2.406V16.254C14.531,14.922,15.668,13.852,17.086,13.852
L17.086,13.852z M17.086,13.852"/>
<path fill="#D40000" d="M172.879,213.574v25.203h-2.492v-25.203H172.879z M172.879,213.574"/>
<path fill="#D40000" d="M163.012,238.777c2.398,0,4.324-2.149,4.324-4.817v-15.569c0-2.668-1.926-4.816-4.324-4.816h-1.395
c-2.395,0-4.324,2.148-4.324,4.816v15.569c0,2.668,1.93,4.817,4.324,4.817H163.012z M162.293,236.395
c-1.414,0-2.555-1.066-2.555-2.398v-15.777c0-1.332,1.141-2.406,2.555-2.406s2.555,1.074,2.555,2.406v15.777
C164.848,235.328,163.707,236.395,162.293,236.395L162.293,236.395z M162.293,236.395"/>
</svg>
