<?xml version="1.0" encoding="utf-8"?>
<!DOCTYPE svg PUBLIC "-//W3C//DTD SVG 1.1//EN" "http://www.w3.org/Graphics/SVG/1.1/DTD/svg11.dtd" [
<!ENTITY ns_svg "http://www.w3.org/2000/svg">
<!ENTITY ns_xlink "http://www.w3.org/1999/xlink">
]>
<svg  version="1.1" id="Layer_1" xmlns="&ns_svg;" xmlns:xlink="&ns_xlink;" width="179.379" height="250.246"
viewBox="0 0 179.379 250.246" overflow="visible" enable-background="new 0 0 179.379 250.246" xml:space="preserve">
<path fill="#FFFFFF" d="M8.903,0.398h161.574c4.711,0,8.504,3.793,8.504,8.504v232.441c0,4.711-3.793,8.504-8.504,8.504H8.903
c-4.711,0-8.504-3.793-8.504-8.504V8.902C0.399,4.191,4.192,0.398,8.903,0.398L8.903,0.398z M8.903,0.398"/>
<path fill="none" stroke="#000000" stroke-width="0.7974" d="M8.903,0.398h161.574c4.711,0,8.504,3.793,8.504,8.504v232.441
c0,4.711-3.793,8.504-8.504,8.504H8.903c-4.711,0-8.504-3.793-8.504-8.504V8.902C0.399,4.191,4.192,0.398,8.903,0.398L8.903,0.398z
M8.903,0.398"/>
<path fill="#131F67" d="M25.168,230.809L24.762,20.406l130.504,0.246l0.164,210.074L25.168,230.809z M71.953,55.488
c-4.668-1.273-4.554,3.363-1.136,3.535c3.828,0.328,5.468-6.195,3.64-8.77C74.457,50.254,72.867,55.172,71.953,55.488L71.953,55.488
z M41.668,81.695l-5.605,2.504l-0.024,4.184C38.379,86.523,40.203,84.254,41.668,81.695L41.668,81.695z M79.926,207.421
c-1.102-0.554-2.434-1.75-2.227-1.961c0.098-0.104,0.696,0.086,1.239,0.329c4.383,1.848,7.781,1.727,13.003-0.168
c0.398-0.145,0.988,0.609,0.766,1.023C90.395,210.066,82.91,208.848,79.926,207.421L79.926,207.421z M77.617,202.289
c-1.007-1.512,0.329-0.364,0.778,0.063c3.238,3.016,7.629,4.035,11.398,1.194c0.176-0.194,0.199-0.375,0.149-0.511
c-0.106-0.278-0.11,0.02-1.719,0.578c-3.621,1.355-6.668,0.242-9.641-2.031c-1.226-0.945-1.797-1.411-1.797-1.657
c0-0.226,0.231-0.366,0.641-0.297c0.258,0.043,0.969,0.192,1.488,0.235c0.907,0.074,0.836,0.035,1.766-0.395
c1.98-0.914,3.809-1.25,5.879-0.88c0.48,0.087,1.082,0.246,1.164,0.22c0.465-0.156-0.219-0.766-1.977-2.156
c-0.343-0.277-0.773-0.512-0.918-0.746c-0.218-0.371,0.02-0.469,0.274-0.465c0.719,0.008,3.965,2.719,5.074,4.328
c0.34,0.487,0.574,0.543,0.574,1.051c-0.063,0.527-0.148,1.035,0.422,1.777c0.41,0.53,0.809,1.383,0.813,1.426
c0.004,0.047-0.082,0.312-0.457,0.065c-0.172-0.034-0.254-0.214-0.57-0.171c-0.27,0.039-0.715,0.253-1.203,0.484
C85.211,207.324,81.024,205.898,77.617,202.289L77.617,202.289z M87.574,202.085c0.09,0.009-0.316-1.671-0.773-2.167
c-0.902-0.977-2.277-1.152-3.109-0.152c-0.469,0.563-0.981,2.129-0.981,2.129s0.727,0.215,0.93,0.215
c0.031-0.353,0.031-1.336,0.754-1.91c0.359-0.281,1.125-0.274,1.422-0.039c0.593,0.293,0.843,1.468,0.851,1.925
C86.992,202.188,87.742,202.098,87.574,202.085L87.574,202.085z M82.078,199.664c-0.64,0.285-1.472,0.48-1.664,0.906
c-0.254,0.566,0.637,0.738,1.102,0.93c0.64,0.309,0.652,0.195,0.859-0.297c0.129-0.309,0.301-0.711,0.465-1.082
C83.317,199.195,82.84,199.324,82.078,199.664L82.078,199.664z M89.012,201.273c0.371-0.371,0.437-0.613,0.109-1.031
c-0.148-0.192-0.574-0.383-1.035-0.539c-0.594-0.2-0.855-0.441-0.48,0.363l0.531,1.147C88.41,201.766,88.653,201.617,89.012,201.273
L89.012,201.273z M28.375,162.031c0.227,0,2.461-0.735,3.258-1.09c0.789-0.301,0.883-0.293,0.57-0.728
c-0.117-0.163-0.214-0.625-0.156-1.132l0.059-0.704c-1.379-0.28-3.438,0.481-4.145,1.446
C27.457,160.441,27.508,161.813,28.375,162.031L28.375,162.031z M28.094,165.469c0.418,0.422,0.535,0.434,1.793-0.031
c0.437-0.293,1.359-0.664,2.004-0.703c1.515-0.406,1.515-0.246,1.086-1.215c-0.196-0.445-0.262-0.816-0.199-1.227
c0.074-0.493,0.132-0.559-0.145-0.645c-0.723-0.228-4.094,1.035-4.695,2.016C27.512,164.352,27.567,164.945,28.094,165.469
L28.094,165.469z M107.227,195.238c-0.219,0.328-0.602,0.914-0.762,1.305c-0.277,0.684-0.109,0.813,0.004,2.148
c0.063,0.772,0.078,1.977,0.082,2.625c0.004,1.233-0.016,1.621,0.363,1.69c0.332,0.067,0.488-0.183,0.645-0.832
c0.082-0.319,0.273-0.655,0.332-0.858c0.238-1.396,0.676-3.719,1.68-4.695c0.141-0.114,0.547-0.188,1.289-0.195
c0.906-0.012,1.195-0.039,1.477-0.246c1.586-1.391,0.336-3.184-1.078-3.309C109.617,192.727,107.359,194.992,107.227,195.238
L107.227,195.238z M113.523,194.656c0.102,1.597-1.488,2.683-3.105,2.316c-0.656-0.168-0.855-0.016-1.293,0.918
c-0.953,2.566-1.332,5.141-1.586,6.828c-0.109,1.516-0.664,5.456-0.262,6.715c4.609,5.698,9.465,11.578,14.777,17.444l31.609,0.043
l0.191-37.214l-9.18-8.68l0.016-13.766c-9.824,4.629-19.625,9.323-29.434,13.995c2.141,6.856-5.109,8.294-6.699,3.7
c-1.375,1.257-2.5,8.066-1.996,8.402c0,0,0.184,0.246,0.488-0.297c0.5-0.892,1.156-1.547,1.859-1.98
C110.953,191.816,113.383,192.441,113.523,194.656L113.523,194.656z M88.367,193.96c-1.55-1.229-0.722-3.112,0.567-3.675
c0.683-0.301,1.781-0.258,2.988,0.168c1.059,0.484,1.691,0.418,2.777,0.285c0.719-0.082,0.586,1.426-0.168,1.816
c-0.527,0.273-1.746,0.145-3.223-0.699c-2.555-1.453-3.676,0.434-2.094,2.133C90.09,194.926,88.59,194.176,88.367,193.96
L88.367,193.96z M35.824,171.421c1.364-0.875,0.797-2.425-0.472-2.683c-1.711,0.035-2.149,2-0.922,2.68
c0,0.238-0.609,0.042-0.938-0.204c-0.511-0.382-0.046-1.875-0.519-1.933c-0.363,0.004-3.899,1.254-4.277,1.504
c-1.59,0.902-0.098,2.938,0.824,2.703C31.434,173.003,34.035,172.574,35.824,171.421L35.824,171.421z M27.926,168.516
c0.031,0.905,0.285,1.309,0.879,1.316c1.246-0.215,2.402-0.809,3.562-1.184c0.907-0.297,1.278-0.629,0.586-1.199
c-0.211-0.239-0.394-0.582-0.297-1.235c0.239-0.75,0.059-0.784-0.257-0.819c-0.317-0.039-1.039,0.266-2.891,0.977
c-0.973,0.371-1.16,0.535-1.414,1.07C27.981,167.852,27.91,168.105,27.926,168.516L27.926,168.516z M38.231,180.21
c0.215-0.253,0.687-1.832,0.687-2.222c-0.094-0.649-0.578-0.797-1.008-0.379c-0.519,0.469-0.379,1.172-0.687,1.711
c-0.109,0.187-0.223,0.445-0.192,0.551C37.199,180.441,37.899,180.543,38.231,180.21L38.231,180.21z M42.285,171.613
c15.84-16.871,25.653-40.215,8.485-72.41c-1.922-0.82-2.52,2.309-2.703,2.438l-2.192,1.91c11.621,20.039,9.602,43.086-4.605,59.477
l0.015,1.043c0.032,2.289,0.692,2.187,1.653,1.117c1.019-1.074,0.34-0.199-0.078,0.242c-0.36,0.383-0.93,1.141-1.082,1.336
C41.965,168.141,42.828,170.699,42.285,171.613L42.285,171.613z M41.235,166.543c-0.282-0.781-0.59-3.29-0.454-3.348
c0,0-0.562-3.668-0.996-4.328c-0.359-0.551-1.246-0.957-2.234-1.02c-0.844-0.055-0.914-0.039-1.094,0.234
c-0.308,0.473-0.097,2.855,0.215,3.73c0.356,1.022,0.149,1.582-0.141,2.598c-0.097,0.367-0.136,0.39,0.047,0.418
c0.789-0.055,1.051-1.027,1.364-0.739c0.105,0.106-0.168,0.903-0.536,1.707c-0.39,0.849-0.507,2.017-0.042,3.454
c0.257,0.805,0.148,1.059-0.008,1.543c-0.106,0.324-0.289,1.32-0.293,2.309c0.367,1.242,0.183,1.797-0.035,2.207
c-0.469,1.051-0.836,2.477-0.582,3.276c0.113,0.353,0.402,0.052,0.617-0.55c0.332-1.188,0.718-1.453,1.695-1.453
c0.711,0,0.777,0.25,1.012-0.07c0.535-0.719,1.84-3.277,1.863-3.992C42.137,170.703,42.16,169.141,41.235,166.543L41.235,166.543z
M48.809,178.484c0.43-0.16,1.094-1.074,1.094-1.387c0-0.345-2.657-2.93-3.762-3.641c-0.504-0.325-0.742-0.094-1.625,1.098
c-0.789,1.059-0.891,1.07-0.746,1.273c0.176,0.246,2.883,2.004,3.781,2.504C47.864,178.503,48.391,178.645,48.809,178.484
L48.809,178.484z M53.785,173.891c-0.394-0.306-3.574-3.828-4.519-4.004c-0.356-0.066-1.508,1.241-1.508,1.539
c0,0.202,1.984,2.223,3.391,3.452c0.402,0.349,0.847,0.638,0.988,0.638C52.582,175.285,53.731,174.359,53.785,173.891
L53.785,173.891z M57.164,170.566c0-0.211-0.351-0.641-1.207-1.481c-2.179-2.14-3.394-3.121-3.777-3.116
c-0.418,0.137-1.172,1.406-1.219,1.852c0.145,0.262,3.789,3.57,4.262,3.89C55.805,172.273,57.082,170.96,57.164,170.566
L57.164,170.566z M60.582,167.148c0.094-0.313-0.09-0.582-0.551-1.023c-0.328-0.313-1.488-1.454-2.582-2.531
c-2.293-2.259-2.3-2.262-3.035-1.203c-0.758,1.086-0.754,1.094,1.481,3.273c2.383,2.328,2.941,2.796,3.313,2.796
C59.77,168.203,60.387,167.766,60.582,167.148L60.582,167.148z M35.024,165.109c-0.399-0.117-0.766-0.047-1.078,0.203
c-1.692,1.438,0.707,3.285,1.691,2.133C36.293,166.796,36.266,165.406,35.024,165.109L35.024,165.109z M64.094,163.605
c0-0.238-0.492-0.777-2.199-2.406c-4.215-4.023-4.024-3.871-4.492-3.621c-0.293,0.156-0.86,1.238-0.86,1.641
c0,0.301,0.406,0.719,3.531,3.637c1.832,1.711,2.375,2.141,2.692,2.141C63.266,164.75,64.071,164.214,64.094,163.605L64.094,163.605
z M35.133,163.757c0.828-0.358,0.981-1.257,0.512-1.964c-0.899-0.793-2.153-0.137-2.172,0.887
C33.629,163.637,34.442,164.043,35.133,163.757L35.133,163.757z M67.559,160.227c0-0.48-7.223-7.23-7.735-7.23
c-0.347,0-0.597,0.281-0.925,1.047c-0.285,0.664-0.258,1.055,0.101,1.398c0.52,0.504,1.914,1.785,3.235,2.983
c0.785,0.707,1.683,1.556,2,1.88c0.742,0.762,1.562,1.352,1.875,1.352C66.555,161.395,67.176,161.043,67.559,160.227L67.559,160.227
z M34.754,159.355c0.008-0.271-0.062-0.547-0.258-0.754c-0.492-0.527-1.414-0.25-1.644,0.449
C32.641,160.695,34.688,160.766,34.754,159.355L34.754,159.355z M40.102,106.813l1.41-4.316l4.316-0.113l0.602-4.289l4.441-0.641
l0.071-4.434l4.25-0.582l-0.266-4.746l3.941-0.934l-0.195-4.395l3.578-1.098l-0.144-3.828l0.617-0.48l-1.551-1.574l-1.332,0.434
l-0.023,3.93l-3.575,1.152l0.375,4.352l-3.613,0.824l-0.043,4.73l-4.152,0.465l-0.297,4.176l-4.047,0.797l-0.605,4.09l-3.93,0.266
l-1.199,3.594l-2.594,0.031v2.406L40.102,106.813z M87.039,184.051c-0.136-0.324,0.219-0.277,0.836,0.113
c0.645,0.406,1.586,0.746,2.254,0.746c0.277,0,1.273-0.176,2.211-0.395c1.121-0.41,2.113-0.434,3.277-0.184
c0.867,0.117,1.738,0.211,1.938,0.211c0.578,0.078,1.559-0.633,1.82-1.083c0.715-1.218,0.543,0.993,0.547,1.247
c0.012,1.132,0.156,2.434-0.656,1.828c-0.48-0.246-1.32-0.469-1.988-0.02c-0.676,0.448-1.23,0.543-2.02,0.069
c-0.648-0.253-0.992-0.308-1.477,0.142c-0.539,0.504-1.852,0.324-2.555,0.094c-1.203-0.203-1.879-0.375-2.688,0.262
c-0.433,0.25-0.543,0.063-0.867-0.891C87.344,185.234,87.09,184.168,87.039,184.051L87.039,184.051z M90.11,183.25
c-0.075-0.125,0.57-0.758,1.007-0.984c1.285-0.664,3.836-0.634,5.66,0.039c0.949,0.352,1.098,0.952,0.172,0.823
c-1.926-0.401-4.34-0.733-6.199,0.153C90.605,183.359,90.149,183.309,90.11,183.25L90.11,183.25z M91.738,180.242
c-1.316-0.489-1.96-1.008-1.96-1.172c0-0.18,0.281-0.145,1.316,0.137c1.41,0.523,3.074,0.796,4.465,0.313
c1-0.371,1.5-0.605,1.5-0.383c0,0.234-0.414,0.848-1.098,1.198C94.59,180.895,92.785,180.628,91.738,180.242L91.738,180.242z
M120.305,176.589l0.977-0.136l-0.34-4.075l3.598-1.065l-0.25-4.056l3.832-1.319l-0.227-4.563l3.984-0.786l0.52-3.991l3.762-0.266
l0.777-4.344l4.039-0.141l0.836-3.609l2.688-0.02l-0.012-2.027l-4.188,0.016l-0.887,3.906l-3.953,0.113l-0.84,4.293l-4.145-0.031
l-0.531,4.629l-3.895,0.636l0.004,4.985l-3.762,0.972l0.293,4.263l-3.758,1.371l0.426,4.063L120.305,176.589z M145.422,80.957
c-0.539,0.383-0.742,1.141-0.574,1.758c0.527,1.398,2.391,0.961,2.613-0.055c0.109-0.441-0.184-1.105-0.691-1.25
c-0.09-0.027-0.406,0.004-0.57-0.168c-0.117-0.121,0.621-0.5,1.059-0.359c0.547,0.184,0.992,0.902,0.992,1.527
c0,0.242-0.066,0.602,0.02,0.723c0.902-0.023,1.934-0.52,2.898-0.785c1.633-0.453,2.223-1.391,1.863-2.488
c-0.305-0.914-1.238-1.277-2.469-0.813C148.875,79.68,146.898,79.984,145.422,80.957L145.422,80.957z M75.719,181.016
c5.527-3.888,8.785-6.105,15.879-6.488c-2.531-1.039-2.945-2.41-3.656-3.719c-8.789,0.832-13.457,3.641-17.633,6.258
C72.035,177.878,73.836,178.824,75.719,181.016L75.719,181.016z M106.535,175.628c-2.68-1.894-5.871-3.043-9.18-3.925l-2.539,2.629
C94.672,174.238,102.164,174.406,106.535,175.628L106.535,175.628z M132.277,150.695c-17.293-26.57-5.676-49.949,6.348-64.848
c0.387-0.488,0.48-0.512,0.391-0.902c-0.113-0.512-0.254-3.094-0.168-4.586c-22.223,22.023-22.793,50.719-8.852,73.492
C130.992,152.96,133,151.777,132.277,150.695L132.277,150.695z M134.871,148.421c-2.84-4.726-17.957-30.319,5.133-58.87
c0,0-0.078-1.457-0.25-2.004c-0.313-0.98-0.793-1.375-0.793-1.375c-9.699,14.559-23.793,32.773-6.188,64.41L134.871,148.421z
M121.648,100.254c0.348-0.285,0.848-1.309,0.848-1.73c0-0.375-0.273-0.691-2.875-3.336c-3.473-3.523-4.074-4.063-4.52-4.063
c-0.418,0-1.516,1.043-1.516,1.441c0,0.188,1.023,1.289,3.434,3.699C121.496,100.73,121.285,100.551,121.648,100.254
L121.648,100.254z M124.848,93.762c0-0.211-0.32-0.633-1.082-1.414c-2.008-2.066-4.871-4.688-5.121-4.688
c-0.32,0-1.199,0.711-1.43,1.156c-0.16,0.313-0.156,0.383,0.031,0.68c0.355,0.555,4.836,4.805,6.109,5.875
C124.117,96.074,124.813,94.297,124.848,93.762L124.848,93.762z M126.578,91.129c0.355-0.191,1.027-1.449,0.945-1.77
c-0.035-0.152-1.172-1.375-2.523-2.719c-2.672-2.66-2.828-2.754-3.492-2.16c-0.605,0.539-0.98,1.082-0.906,1.297
c0.09,0.266,4.09,4.332,4.906,4.992C126.152,91.289,126.23,91.313,126.578,91.129L126.578,91.129z M146.969,90.93
c1.254-1.203-0.168-2.527-1.203-1.918c-0.438,0.273-0.699,0.867-0.566,1.262C145.422,90.926,146.309,91.281,146.969,90.93
L146.969,90.93z M149.453,90.621c2.129-0.555,3.145-0.93,3.59-1.59c0.309-0.461,0.344-0.742-0.004-1.492
c-0.32-0.688-0.691-0.898-2.023-0.168c-0.914,0.5-2.953,0.738-3.664,1.16c-0.285,0.246-0.145,0.242,0.082,0.387
c0.516,0.328,0.766,0.547,0.707,0.98C148.02,90.836,148.117,90.977,149.453,90.621L149.453,90.621z M147.203,87.289
c1.035-0.527,0.824-1.801-0.328-2.305c-1.52-0.402-2.5,1.43-1.254,2.32C145.953,87.539,146.801,87.496,147.203,87.289
L147.203,87.289z M150.633,86.773c1.492-0.512,2.066-0.91,2.5-1.734c0.34-0.656,0.195-0.945,0.148-1.578
c-0.066-0.957-0.551-0.848-1.941-0.348c-0.68,0.262-3.926,1.176-3.973,1.508c1.57,0.898,1.168,1.371,1.18,2.516
C148.629,87.395,149.367,87.211,150.633,86.773L150.633,86.773z M130.293,85.25c0-0.434-4.172-4.516-4.613-4.516
c-0.688,0-1.676,1.07-1.527,1.656c0.066,0.266,3.977,4.203,4.465,4.492C129.301,87.285,130.25,85.902,130.293,85.25L130.293,85.25z
M132.688,82.703c0.18-0.141,0.5-0.508,0.711-0.813c0.449-0.652,0.414-1.016-0.121-1.363c-0.195-0.125-1.07-0.914-1.941-1.758
c-0.875-0.84-1.699-1.57-1.836-1.621c-0.719-0.094-2.02,1.059-1.883,1.648c0.074,0.305,3.27,3.453,3.984,3.926
C132.063,83.023,132.285,83.02,132.688,82.703L132.688,82.703z M138.336,76.621c0-0.117-0.727-0.582-1.887-1.215
c-3.551-1.93-3.613-1.941-4.723-1.039c-0.383,0.309-0.691,0.664-0.691,0.785c0,0.125,0.77,0.949,1.75,1.879
c2.035,1.926,2.535,2.34,2.82,2.34C136.191,78.941,138.242,77.156,138.336,76.621L138.336,76.621z M143.305,74.805
c0.438-0.523,0.93-2.344,0.695-2.707c-0.215-0.219-0.766-0.184-1.031,0.055c-0.273,0.25-0.949,2.535-0.848,2.805
C142.227,75.234,142.926,75.105,143.305,74.805L143.305,74.805z M104.512,152.246c0.336-0.043,0.996-0.453,1.953-1.277
c1.023-0.875,4.262-2.832,4.613-3.617c0.16-0.449,0.043-1.09-0.293-1.138c-0.258-0.038-0.313,0.161-2.465,1.711
c-1.453,1.048-4.008,2.923-4.391,3.317C103.762,151.668,104.137,152.203,104.512,152.246L104.512,152.246z M104.211,164.762
c2.219-1.539,4.016-3.134,6.906-4.914c0.223-0.293,0.258-0.73,0.121-1.091c-0.168-0.444-0.402-0.269-1.277,0.341
c-2.129,1.434-4.32,3.125-6.156,4.379c-0.59,0.398-1.086,0.621-0.961,0.844C103.008,164.621,103.918,164.71,104.211,164.762
L104.211,164.762z M106.367,165.707c1.461-1.191,3.207-2.332,4.762-3.484c0.219-0.22,0.277-0.953,0.051-1.254
c-0.176-0.238-0.027-0.195-0.461,0.051c-0.629,0.358-4.402,2.93-5.105,3.512c-0.41,0.34-0.75,0.508-0.648,0.625
C105.438,165.46,105.938,165.648,106.367,165.707L106.367,165.707z M108.203,166.632c0.301-0.202,2.895-1.858,3.102-2.081
c0.238-0.25,0.168-1.38-0.063-1.469c-0.656,0.523-4.113,2.628-4.121,2.969C107.477,166.367,107.941,166.656,108.203,166.632
L108.203,166.632z M110.977,166.863c0.395-0.367,0.477-0.426,0.484-0.836c0.016-0.742-0.168-0.711-1.223,0.043
c-0.738,0.48-1.188,0.812-1.055,1.101C109.707,167.992,110.449,167.344,110.977,166.863L110.977,166.863z M111.262,168.375
c0.207-0.074,0.207-0.184,0.176-0.441c-0.031-0.289-0.074-0.277-0.387-0.277C110.211,167.688,110.969,168.449,111.262,168.375
L111.262,168.375z M101.164,164.23c0.383-1.258,0.914-2.254,1.789-3.195c3.488-3.094,2.422-6.898,0.219-9.996
c2.852-3.988,5.695-8.215,8.145-12.09l-0.008-6.293l0.328,0.031c-0.113,13.742,0.512,36.272,0.512,36.272l2.836,2.161l-0.383,0.188
C115.066,171.238,106.352,165.781,101.164,164.23L101.164,164.23z M103.727,162.66c2.41-1.821,4.758-3.25,7.152-5.191
c0.254-0.207,0.402-0.219,0.41-0.695c0.016-0.906-0.168-0.918-1.063-0.277c-0.395,0.285-1.848,1.297-3.223,2.227
c-1.438,0.973-2.77,1.832-3.035,2.145c-1.348,1.559-1.844,2.293-1.707,2.52C102.406,163.617,102.68,163.367,103.727,162.66
L103.727,162.66z M106.355,158.25c1.242-0.816,4.207-2.875,4.477-3.129c0.469-0.446,0.551-1.148,0.129-1.23
c-0.207-0.039-2.504,1.491-4.445,2.965c-0.941,0.715-1.152,0.879-1.152,1.555C105.363,158.82,105.609,158.742,106.355,158.25
L106.355,158.25z M107.594,155.043c3.801-2.704,3.703-2.477,3.621-3.48c-0.027-0.34-0.105-0.496-0.254-0.523
c-0.121-0.023-0.793,0.461-1.547,0.992c-0.758,0.531-1.66,1.246-2.113,1.563c-1.32,0.913-1.758,1.159-1.758,1.688
c0,0.515,0.141,0.844,0.371,0.844C106,156.125,106.754,155.637,107.594,155.043L107.594,155.043z M107.047,152.949
c1.75-1.239,3.68-2.633,3.941-2.965c0.32-0.402,0.266-1.277-0.145-1.277c-1.754,1.175-3.871,2.719-5.355,3.938
c-0.195,0.168-0.438,0.332-0.516,0.551c-0.016,0.289,0.348,0.664,0.488,0.676C105.75,153.875,106.195,153.55,107.047,152.949
L107.047,152.949z M105.906,148.766c1.34-0.906,2.555-1.984,3.883-2.898c0.996-0.68,1.277-0.891,1.219-1.75
c-0.035-0.496-0.469-0.211-2.16,0.914c-1.238,0.824-1.805,1.152-2.246,1.715c-0.309,0.714-1.324,1.382-1.375,2.195
C105.223,149.246,105.426,149.102,105.906,148.766L105.906,148.766z M110.012,143.32c1.027-0.68,1.125-0.695,1.012-1.598
c-0.141-1.134-0.254-1.063-1.234,0.434c-0.648,0.984-0.867,1.269-0.77,1.453C109.188,143.921,109.371,143.746,110.012,143.32
L110.012,143.32z M106.273,135c-0.109-0.5-0.266-0.391-0.781,0.063c-0.949,0.832-1.102,1.438-0.508,1.754
c0.313,0.168,0.559,0.152,0.746-0.262C106.133,135.664,106.246,135.352,106.273,135L106.273,135z M100.945,142.906
c-0.121-0.461-0.684-1.086-1.113-1.305c-0.422-0.22-0.68-0.181-1.082,0.336c-0.375,0.473-0.199,0.754,0.359,1.465
c0.41,0.519,0.578,0.683,0.898,0.683C100.402,143.934,101.027,143.406,100.945,142.906L100.945,142.906z M80.328,162.727
c-0.273-0.523-0.847-1.078-1.113-0.984c-0.277,0.097-0.551,0.5-0.555,0.75c0.114,0.515,0.551,0.863,0.883,0.875
C80.176,163.277,80.559,163.168,80.328,162.727L80.328,162.727z M82.844,161.93c-0.543-0.574-1.617-1.836-1.793-1.836
c-0.277,0-0.93,0.688-0.93,0.969c0,0.336,0.977,1.703,1.301,1.813C82.246,162.796,83.754,162.891,82.844,161.93L82.844,161.93z
M85.946,162.089c-0.059-0.276-3.114-3.526-3.34-3.526c-0.289,0-0.867,0.641-0.867,0.934c0,0.238,0.988,1.527,1.898,2.48
c0.457,0.473,0.496,0.543,1.051,0.453C85.297,162.335,86.086,162.469,85.946,162.089L85.946,162.089z M91.344,161.363
c0-0.656-0.34-1.016-1.723-2.508c-0.5-0.543-1.343-1.484-1.879-2.094c-1.031-1.177-1.472-1.539-1.882-1.539
c-0.325,0-0.825,0.527-0.825,0.862c0,0.216,2.539,3.125,4.84,5.599c0.512,0.551,0.742,0.707,1.23,0.448
C91.387,161.941,91.344,161.613,91.344,161.363L91.344,161.363z M87.367,153.563c-0.515,0.422-0.707,0.598-0.711,0.879
c-0.003,0.434,4.383,5.25,4.774,5.25c0.23,0,0.195-0.031,0.328-0.551c0.273-1.57-0.156-2.031-1.289-3.07
C89.707,155.375,88.168,152.984,87.367,153.563L87.367,153.563z M95.102,150.339c-1.227-1.464-1.902-2.136-2.152-2.136
c-0.168,0-0.422,0.164-0.699,0.468c-0.457,0.431-0.41,0.414-0.121,0.931c0.148,0.27,0.57,0.797,0.934,1.172
c0.676,0.695,1.02,0.918,1.344,0.582C94.695,151.059,95.406,150.71,95.102,150.339L95.102,150.339z M94.461,146.688
c-0.297-0.004-0.801,0.535-0.801,0.828c0,0.246,0.996,1.491,1.688,2.109c0.559,0.503,0.824,0.637,1.215,0.309
c0.289-0.422,0.223-0.813,0.043-1.133C96.109,148.234,95.027,146.71,94.461,146.688L94.461,146.688z M97.902,147.046
c-0.008-0.425-1.262-2.054-1.656-2.218c-0.332,0-1.031,0.77-1.031,1.121c0,0.191,0.27,0.613,0.723,1.14
c0.895,1.039,1.125,1.267,1.316,1.106C97.574,147.93,97.91,147.464,97.902,147.046L97.902,147.046z M99.316,145.21
c0.082-0.354-0.141-0.722-0.641-1.351c-0.625-0.785-0.934-0.84-1.523-0.231c-0.215,0.224-0.316,0.418-0.316,0.528
c0,0.301,1.313,1.969,1.555,1.969C98.953,146.055,99.125,145.645,99.316,145.21L99.316,145.21z M97.008,149.339
c-0.117,0.539-0.344,0.892-0.863,1.142c-4.008,2.887-3.875,7.59-4.73,11.93c-6.488-0.063-16.738,2.597-16.675,2.734l34.464-34.77
c0,0,0.43,0.105,0.168,0.41c-2.789,2.008-2.617,5.906-4.449,7.859C101.855,142.348,99.008,145.563,97.008,149.339L97.008,149.339z
M78.301,163.543c0.055-0.395-0.309-0.5-0.621-0.184c-0.313,0.309-0.188,0.551,0.25,0.5
C78.164,163.832,78.274,163.742,78.301,163.543L78.301,163.543z M88.922,162.082c0.125-0.332-0.176-0.641-2.023-2.691
c-1.871-2.074-2.293-2.559-2.618-2.559c-0.273,0-0.945,0.68-0.945,0.957c0,0.129,0.297,0.546,0.656,0.934
c0.36,0.387,1.039,1.145,1.516,1.688c0.816,0.929,1.203,1.379,1.516,1.597c0.304,0.216,0.535,0.203,1.023,0.203
C88.719,162.21,88.864,162.23,88.922,162.082L88.922,162.082z M92.117,155.559c0.125-0.41,0.309-0.77,0.309-0.922
c0.004-0.285-2.359-2.691-2.758-2.953c-0.476-0.309-1.375,0.703-1.152,1.289c0.062,0.164,0.765,0.991,1.558,1.836
c1.016,1.078,1.52,1.586,1.684,1.559C91.93,156.344,91.953,156.089,92.117,155.559L92.117,155.559z M93.105,153.027
c0.172-0.254,0.313-0.59,0.313-0.742c0-0.18-0.395-0.657-0.961-1.293c-1.051-1.184-1.324-1.321-1.898-0.766
c-0.574,0.547-0.379,0.801,0.629,1.944C92.453,153.605,92.594,153.777,93.105,153.027L93.105,153.027z M102.129,141.727
c0.395-0.47,0.402-0.699,0.043-1.125c-0.152-0.184-0.375-0.445-0.492-0.59c-0.324-0.387-0.754-0.324-1.195,0.18
c-0.211,0.242-0.352,0.484-0.352,0.565c0,0.082,0.227,0.414,0.504,0.739C101.262,142.223,101.645,142.3,102.129,141.727
L102.129,141.727z M103.512,139.941c0.27-0.406,0.148-0.856-0.352-1.313c-0.473-0.429-0.707-0.448-1.039-0.078
c-0.445,0.493-0.375,0.657,0.102,1.185C102.766,140.332,103.199,140.421,103.512,139.941L103.512,139.941z M104.621,138.46
c0.371-0.366,0.363-0.683,0.031-1.104c-0.309-0.396-0.629-0.5-0.957-0.328c-0.566,0.305-0.508,0.828,0.051,1.414
C104.086,138.801,104.246,138.839,104.621,138.46L104.621,138.46z M78.25,212.628c7.059,0.79,14.641,1.345,28.012-0.733l0.066-4.535
c-4.172,3.25-9.645,1.022-9.961-2.723c-0.035-3.336,0.855-7.184,1.605-9.927c0.559-2.039,0.719-2.828,0.195-3.222
c-1.152-0.653-3.199-0.735-3.723-2.09c-0.25-0.715-0.273-1.478,0.094-0.935c0.168,0.25,1.496,0.871,2.539,1.103
c1.809,0.406,2.102,0.539,2.305,1.281c0.129,0.473-0.168,2.09-0.645,3.555c-0.34,1.047-0.742,2.726-0.742,3.051
c0,0.355,0.281,0.41,0.59,0.313c0.133-0.043,0.77-0.681,1.172-1.035c1.738-1.551,2.242-1.508,0.758,0.012
c-0.59,0.605-1.406,1.438-1.406,1.5c0,0.32,0.301,0.285,0.969,0.043c1.031-0.371,3.441-0.325,4.516,0.215
c1.332,0.668,1.387,0.637,1.359-1.391c-0.242-3.797-0.859-8.289-2.098-11.793c-1.887-5.344-5.801-10.305-11.59-10.082
c-7.055,0.367-11.313,3.176-16.11,6.543c2.899,6.43-1.289,11.354-2.808,12.004c-0.145,0.063,1.898,6.539,2.773,9.828
C76.914,206.598,78.25,212.628,78.25,212.628L78.25,212.628z M108.277,57.531c-0.164-0.426-4.086-13.211-5.184-18.559
c-10.609-0.617-18.453-1.5-27.797,1.152c0,0-0.203,3.602-0.101,3.777c0.093,0.445,0.414,0.434,0.675,0.289
c4.317-2.371,8.993-1.301,9.317,4.543c0.125,2.234-0.625,3.809-0.762,5.926c-0.121,1.848-1.574,4.313-0.695,5.719
c0.113,0.172,0.738,0.512,1.586,0.879c1.582,0.676,2.203,1.301,2.32,2.336c0.172,0.715-0.266,1.195-0.395,0.461
c-0.086-0.469-0.168-0.879-2.121-1.547c-1.906-0.652-2.422-1.41-2.613-1.809c-0.262-0.551-0.211-0.938,0.035-1.813
c0.52-1.867,1.035-3.766,0.988-4.664c-0.019-0.324-0.375-0.168-0.832,0.223c-0.582,0.496-3.066,2.129-3.136,2.063
c-0.032-0.035,0.41-0.695,1.105-1.359c0.844-0.805,1.895-1.785,1.895-1.965c0-0.316-0.125-0.094-0.942,0.148
c-1.425,0.391-3.07,0.336-4.175-0.152c-0.938-0.414-1.594-0.652-1.735-0.426c-0.347,5.695,0.5,11.566,2.887,16.145
c2.141,4.16,6.59,9.371,13.281,8.203c6.91-1.207,13.637-6.77,13.395-6.773C102.695,64.484,105.633,60.137,108.277,57.531
L108.277,57.531z M53.485,213.007l-1.496-1.168c0.312,0.048-8.157-5.007-14.594-6.769c-0.426-0.09-0.844-0.293-0.844,0.211
l-0.062,10.527l-9.485,8.887l0.168,4.336l20.117-0.098l13.356-19.578c0,0,0.644-0.117,0.715-0.238
c-2.45-10.398-6.141-18.699-8.489-22.864c0.039,0.052-3.371,2.759-6.371-0.604c-1.683-1.887-0.648-5.203,0.946-6.414
c-1.348-0.992-4.137-2.789-5.969-3.309c-0.379-0.094-0.946,0.676-1.133,1.375c-0.336,1.133-0.891,2.145-1.266,3.284
c-0.41,0.954-0.804,1.099-1.418,0.833c-0.953-0.286-1.207-0.383-1.207-0.383l0.032,12.375
C43.805,195.949,51.34,202.457,53.485,213.007L53.485,213.007z M83.91,80.754l2.168-2.355c-3.429-0.422-7.027-1.035-11.238-2.355
C77.766,78.215,80.824,79.559,83.91,80.754L83.91,80.754z M71.992,74.129c3.825,1.273,8.664,4.246,14.707,3.129
c-5.511-2.188-9.691-7.293-11.476-17.688c-0.387,2.02-1.195,6.215-2.461,6.668c-1.785-6.898-8.949-2.887-6.074,2.738
c-7.649,4.945-15.996,7.809-23.918,11.656c0,0-1.192,3.66-7.125,8.672c-1.098-5.867,0.672-14.426-0.481-20.5l-9.3-8.785
c0.144,1.672,0.078,2.711,0.003,4.672c0.254,0.34,0.61,0.52,0.965,0.73c0.602,33.855-0.207,67.32-0.199,98.066
c-0.094,18.844,0.406,38.476,0.129,56.269l-0.348,0.642l0.016,4.254l9.496-9.043c0,0-0.441-6.418,0.059-11.32
c5.992,1.207,11.582,4.023,16.593,7.113c0.633,0.176-2.961-12.348-16.437-17.896c0,0-0.133-3.879-0.133-12.362
c0-8.185-0.129-9.051-0.309-9.185c-0.546,0.595-7.445,2.918-7.793,2.524c0.184,0.062-1.945-14.484-0.105-16.695l6.598,0.141
c1.886,1.523,1.129-0.332,2.226-0.641c0.656-0.176,3.707,1.016,3.707,1.016c12.578-14.848,11.321-39.262,2.297-52.996
c-2.312,1.875-4.773,4.422-7.09,5.516c-0.027-0.082-0.043-7.574-0.043-7.574c12.016-7.715,25.09-30.055,24.254-30.133
c0,0,3.723,3.625,5.164,5.672L53.055,95.973c2.715,5.469,5.465,10.43,7.246,15.242c0.242,0.648,0.984,0.633,1.172,1.316
c0.16,0.586-0.555,1.398-0.453,2.043c2.504,9.574,3.07,19.734,0.601,28.938c-0.523,2.07,0.43,3.75,1.707,5.309
c0.106,0.137-1.187-1.121-1.304-1.192c-0.446-0.265-1.184,0.668-1.34,1.849c0.101,0.723,0.496,0.852,1.015,1.438
c0.915,0.761,4.551,4.339,6.153,5.977c1.426,1.453,1.793,1.52,2.75,0.487c0.269-0.253,0.551-0.597,0.812-0.808
c0.051,0.078,0.407-0.293,0.528-0.41l21.421-20.907c2.488-2.429-21.391,21.938-21.391,21.938s-11.582,11.367-14.422,14.168
c-2.934,2.894-3.328,3.531-3.445,3.746c-0.211,0.383,0.945,0.371,1.468,0.293c0.043-0.004-0.441,0.113-0.929,0.108
c-3.016-0.675-4.043,2.661-5.942,3.332c-5.031,3.571-1.648,9.306,3.157,7.411l1.171-0.563c2.911,5.41,7.114,15.266,9.083,23.828
l-0.793,0.366l-12.672,19.009h71.859c-5.16-5.138-9.551-11.445-14.023-16.168c-7.168,2.145-28.835,1.707-28.493,0.773
c0,0-3.281-13.282-5.136-19.809c5.89-5.043,5.285-13.004-3.266-16.574c6.227-4.918,12.492-6.582,18.602-6.981
c1.984,5.039,6.644,5.356,8.843,0.743c0.016-0.051,8.266,2.535,11.305,5.335c-4.508-0.468-8.961-1.366-13.473-1.582
c3.969,1.571,8.012,5.665,9.309,10.349c0.637,1.672,1.605,7.194,1.859,7.215c0,0,1.508-6.379,2.672-6.027
c2.977,6.211,8.109,1.539,5.949-3.407c7.578-3.616,16.105-7.659,23.078-11.011c2.035-3.07,7.039-8.898,7.367-8.922
c0,0,9.207-52.727,9.203-70.355c-0.305-21.188,0.426-44.777-0.488-64.598l-0.008-5.695l-19.441,0.008L120.492,42.59
c0,0-0.105,0.324-0.102,0.465c1.891,8.234,4.324,15.238,8.137,22.848c5.262-3.977,9.695,2.57,5.75,6.367
c-0.742,0.715-0.543,0.895,0.195,1.391c0.73,0.492,5.727,3.004,5.957,3.004c0.906-1.344,1.168-3.324,1.773-4.84
c0.156-0.574,0.59-0.645,1.461-0.543c1.117,0.133,1.113,0.598,1.074-6.52l-0.031-6.113c-6.746-3.105-15.68-11.008-16.094-19.223
c3.898,2.84,12.863,6.965,15.254,7.332c1.055,0.297,0.891-1.535,0.926-2.273c0.281,0.191,0.387,3.023,0.387,3.023
c-3.961-1.199-6.035-0.953-15.918-6.68c1.695,8.082,9.789,14.453,15.656,17.359c0,0,0.246,3.84,0.234,8.137
c-0.039,13.113,0.09,13.691,0.09,13.691c0-0.008,3.23-0.824,4.129-1.27c1.602-1.281,4.164-0.297,4.52,0.645
c0.523,4.949,0.02,9.539-0.09,14.262c-2.734,0.195-4.23,0.773-5.582,0.828c-0.875-0.117-1.41-0.125-1.859-0.621
c-1.305-2.824-1.219-1.035-1.379,1.086c-0.121,0.625-3.391-0.465-3.715-0.652c-14.121,16.254-12.918,34.964-3.328,52.296
c1.586-1.069,4.313-3.108,7.039-4.448c0.066,2.203,0.105,6.741,0.105,6.741c-11.055,8.11-24.293,29.599-23.848,29.657l-4.488-5.359
c0,0,2.824-4.496,3.82-5.684c0.117-0.137,0.191-1.532,0.191-1.532l6.863-9.921c-3.102-5.497-5.223-10.199-7.43-15.602
c-0.125-0.453-0.664-2.398-0.547-2.582c-4.578-20.684,0.383-30.973,0.02-31.758c0,0-0.063-0.414-0.16-0.496
c-0.148-0.121,0.039-0.242,0.207-0.539c0.328-0.57,0.848-1.746,0.672-2.094c-0.133-0.258-3.844-3.973-7.027-7.027
c-1.676-1.609-1.609-1.793-2.477-0.914c-0.32,0.324-1.109,1.25-1.109,1.25c-11.5,10.641-20.629,20.332-32.168,31.66l-0.555-0.504
c16.789-16.688,33.734-33.211,50.363-50.063l-2.926,0.051c0.082-0.211,0.203-0.41,0.375-0.465c1.566,0,3.18-0.477,4.344-1.137
c2.371-1.762,5.777-4.121,6.043-6.445c-0.168-4.473-3.941-5.121-6.664-2.934c-3.789-6.801-6.785-14.984-8.391-22.621
c-0.074-0.379-0.609-1.031-0.691-1.465c0.813-2.539,13.672-20.059,13.672-20.059H60.961l13.742,16.363
c0-0.652,19.586-2.965,28.555-0.234l5.465,19.406c-4.965,4.797-6.43,12.688,2.695,16.793c0.18,0.387-0.863,1.02-0.863,1.02
c0.145-0.238,0.398-0.48,0.297-0.699c-2.461-1.074-5.098-3.797-5.098-3.797c-5.488,4.289-10.621,6.676-15.648,6.887
c0,0,2.652,1.801,3.167,3.777c0,0-0.246-0.027-0.313-0.109c-0.543-0.664-1.797-2.82-2.851-3.453
c-1.793-0.43-2.852-0.117-4.262,0.855l-1.914,1.848C79.547,79.621,74.676,77.441,71.992,74.129L71.992,74.129z M71.258,121.621
l2-1.977c0.231-1.465,0.629-3.328,2.32-5.359c1.875-2.254,3.95-4.371,5.477-6.375c1.836-2.41,2.832-4.59,2.351-5.602
c2.735-0.492,5.243-2.906,5.325-7.285c0.031-2.301,1.14-5.656,1.226-5.609c0,0,19.086-0.648,32.215-13.168
c0,0,0.922,0.199,0.703,0.367c-4.973,4.984-10.266,8.656-16.516,10.996l-34.493,34.453L71.258,121.621z M75.074,117.668
c0.516-0.516,0.633-0.684,0.34-0.926c-0.441-0.371-1.3,0.391-1.3,1.156C74.114,118.387,74.5,118.242,75.074,117.668L75.074,117.668z
M76.86,115.914c0.41-0.395,0.398-0.68,0.058-1.02c-0.469-0.465-1.144-0.18-1.371,0.574
C75.317,116.227,76.219,116.531,76.86,115.914L76.86,115.914z M78.434,114.324c0.211-0.242,0.383-0.488,0.383-0.547
c0-0.27-0.657-0.871-0.95-0.871c-0.367,0-1.031,0.621-1.031,0.969c0,0.289,0.664,0.887,0.988,0.887
C77.949,114.762,78.223,114.563,78.434,114.324L78.434,114.324z M79.914,111.363c-0.468-0.395-0.777-0.398-1.164-0.012
c-0.449,0.449-0.402,0.945,0.133,1.418c0.406,0.426,0.582,0.383,1.133,0.043C80.481,112.34,80.563,111.898,79.914,111.363
L79.914,111.363z M81.653,111.098c0.507-0.426,0.437-0.777-0.118-1.328c-0.582-0.582-1.031-0.59-1.445,0.027
c-0.156,0.234-0.184,0.465-0.184,0.531c0,0.227,0.961,1.082,1.211,1.082C81.258,111.41,81.446,111.277,81.653,111.098
L81.653,111.098z M83.324,109.449c0.434-0.453,0.379-0.773-0.242-1.41c-0.52-0.535-0.883-0.578-1.34-0.152
c-0.472,0.441-0.375,0.902,0.161,1.438C82.442,109.867,82.844,109.949,83.324,109.449L83.324,109.449z M85.219,107.531
c0.316-0.336,0.234-0.309,0.008-0.672c-0.348-0.563-1.36-1.492-1.649-1.492c-0.359,0-0.679,0.578-0.675,1.152
c0.003,0.566,0.281,0.797,1,1.363c0.48,0.375,0.332,0.41,0.699,0.195C84.809,107.957,85.086,107.711,85.219,107.531L85.219,107.531z
M86.723,106.156c0.68-0.773,0.551-0.922-1.086-2.648c-0.559-0.582-0.672-0.648-1.07-0.617c-0.375,0.031-0.403,0.125-0.598,0.523
c-0.355,0.73-0.09,1.105,0.937,2.199C85.969,106.742,86.125,106.84,86.723,106.156L86.723,106.156z M88.403,104.355
c0.261-0.23,0.437-0.5,0.437-0.668c0-0.305-1.328-1.773-1.801-2.043c-0.336-0.195-0.683-0.086-1.121,0.289
c-0.262,0.223-0.254,0.277-0.191,0.527c0.101,0.402,1.804,2.199,2.086,2.199C87.93,104.66,88.16,104.566,88.403,104.355
L88.403,104.355z M90.067,102.738c0.281-0.289,0.503-0.637,0.503-0.785c0-0.324-1.43-1.98-1.872-2.211
c-0.375-0.199-0.593-0.117-0.964,0.406c-0.426,0.598-0.262,0.875,0.586,1.852c0.804,0.926,1.062,1.207,1.214,1.207
C89.586,103.207,89.789,103.02,90.067,102.738L90.067,102.738z M91.641,101.047c0.359-0.219,0.832-0.684,0.641-1.059
c-0.203-0.387-2.708-3.039-2.977-3.184c-0.527-0.281-0.512,0.125-0.512,1.438v0.684l1.153,1.125
C91.625,101.695,91.25,101.297,91.641,101.047L91.641,101.047z M93.676,99.18c0.199-0.199,0.387-0.535,0.383-0.66
c-1.039-1.266-4.059-5.266-4.606-5.117c-0.054,0.016-0.078,0.02-0.117,0.133c-0.137,0.402-0.191,1.23-0.097,1.902
c0.953,0.914,3.203,3.898,3.71,4.086C93.254,99.641,93.387,99.465,93.676,99.18L93.676,99.18z M95.297,97.477
c0.191-0.184,0.348-0.43,0.348-0.551s-0.336-0.539-0.691-0.961c-0.359-0.422-1.059-1.273-1.555-1.895
c-2.848-3.551-3.055-3.816-3.489-3.453c-0.285,0.234-0.355,1.07-0.211,1.387c0.247,0.539,3.356,4.285,4.36,5.254
C94.695,97.871,94.82,97.934,95.297,97.477L95.297,97.477z M96.934,95.906c0.246-0.23,0.445-0.531,0.445-0.676
c0-0.141-0.461-0.719-0.941-1.285c-0.48-0.563-1.281-1.527-1.777-2.137c-1.277-1.574-1.289-1.629-2.242-1.727
c-1.445-0.148-1.25,0.168,0.387,2.078c0.395,0.461,1.141,1.375,1.66,2.027c1.215,1.531,1.75,2.094,1.988,2.094
C96.559,96.281,96.691,96.137,96.934,95.906L96.934,95.906z M98.605,94.27c0.738-0.621,0.594-0.824-1.813-3.313
c-0.789-0.816-0.848-0.945-1.461-0.945c-0.617,0-0.816,0.129-0.816,0.426c0,0.184,3.137,3.914,3.367,4.004
C98.191,94.566,98.227,94.59,98.605,94.27L98.605,94.27z M100.359,92.477c0.199-0.215,0.359-0.488,0.359-0.609
c0-0.27-0.68-1.133-1.32-1.691c-0.297-0.262-0.676-0.535-0.914-0.535c-0.41,0-1.113,0.234-1.234,0.43
c-0.078,0.125,0.855,1.277,1.77,2.242C99.625,92.949,99.863,93.008,100.359,92.477L100.359,92.477z M101.898,90.945
c0.387-0.387,0.387-0.742-0.012-1.262c-0.285-0.375-0.375-0.414-0.965-0.414c-1.121,0-1.152,0.289-0.285,1.215
C101.281,91.172,101.461,91.387,101.898,90.945L101.898,90.945z M103.547,89.324c0.438-0.555,0.063-0.859-0.652-0.531
c-0.168,0.078-0.258,0.277-0.293,0.371C102.379,89.738,103.129,89.855,103.547,89.324L103.547,89.324z M76.016,94.004
c-1.594,1.008-4.27,2.914-6.09,4.188c-0.047,0.273-0.082,0.969,0.004,1.512c1.031-0.699,4.344-2.816,5.851-4.012
C75.856,95.246,75.965,94.457,76.016,94.004L76.016,94.004z M78.934,89.387c-0.051-0.273-0.231-0.102-0.703,0.297
c-0.617,0.523-5.852,4.402-7.242,5.379c-0.528,0.371-1.028,0.684-1.083,0.813C69.852,96,69.801,97.051,70,97.316
c1.137-0.863,6.52-4.473,6.602-4.598C77.156,91.828,78.399,90.281,78.934,89.387L78.934,89.387z M78.336,101.078
c0,0-6.422,7.719-8.488,11.563c0,0-0.012,4.398-0.074,6.934l-0.348,0.098c0,0-0.031-6.789-0.117-14.156
C69.09,87.102,68.91,82.629,68.91,82.629l-2.086-1.527l-0.085-0.723c0,0,9.253,6.48,13.769,7.512
C77.207,93.063,74.156,95.055,78.336,101.078L78.336,101.078z M70.715,110.309c0.129-0.309,0.039-0.293-0.226-0.281
c-0.192,0.008-0.305,0.188-0.313,0.383c-0.012,0.227,0.012,0.277,0.188,0.246C70.489,110.633,70.653,110.457,70.715,110.309
L70.715,110.309z M72.258,108.02c0.926-1.137,1.688-1.875,1.824-2.711c-0.59,0.098-3.996,2.484-4.051,2.738
c0.036,1.266-0.253,1.418,0.786,0.859C71.274,108.656,71.641,108.352,72.258,108.02L72.258,108.02z M72.551,105.203
c0.992-0.828,4.613-2.773,5.027-3.734c0.161-0.441-0.355-0.855-0.433-0.813c0.063,0.055-5.188,3.203-7.102,4.852
c-0.172,0.215-0.129,0.578-0.015,0.875C70.239,106.938,70.656,106.488,72.551,105.203L72.551,105.203z M71.344,103.684
c1.082-0.719,3.637-2.484,4.27-2.926c1.082-0.754,1.296-1.004,0.906-1.563c-0.153-0.219-0.367-0.352-0.723-0.195
c-3.125,2.18-3.398,2.547-5.769,4.074c-0.161,0.426-0.122,1.066,0.125,1.293C70.332,104.379,70.637,104.156,71.344,103.684
L71.344,103.684z M71.332,101.332c2.852-2.059,4.387-3.102,4.489-3.328c0.113-0.25,0.144-1.23-0.043-1.336
c-1.059,0.805-3.895,2.539-5.829,4.113c-0.05,0.32-0.109,1.047,0.047,1.203C70.387,102.145,70.504,101.934,71.332,101.332
L71.332,101.332z M70.992,93.895c2.075-1.539,3.993-2.879,6.149-4.32c1.832-1.215,2.137-1.484,1.433-1.848
c-0.238-0.125-0.726-0.32-1.039-0.215c-2.429,1.961-5.132,3.84-7.707,5.746c-0.066,0.285,0,0.844-0.015,1.094
C69.785,94.742,70.301,94.41,70.992,93.895L70.992,93.895z M70.707,91.699c0.172-0.148,1.258-0.867,2.414-1.707
c3.102-2.246,3.469-2.465,3.469-2.703c0-0.648-0.894-0.789-1.711-0.125c-1.496,1.219-5.066,3.438-5.074,3.754
c-0.012,0.461-0.09,0.918,0.043,1.121C70.02,92.297,70.274,92.082,70.707,91.699L70.707,91.699z M71.606,88.656
c3.156-2.199,3.031-2.098,3.031-2.492c0-0.344-0.309-0.191-0.793-0.227c-0.453-0.031-0.461,0.098-1.328,0.75
c-1.844,1.391-2.516,1.773-2.711,2.184c-0.059,0.129-0.102,0.641,0.012,0.754C70.035,89.844,70.293,89.574,71.606,88.656
L71.606,88.656z M71.813,86.469c0.617-0.516,1.113-0.891,1.156-1c0.09-0.234-0.379-0.652-0.73-0.652
c-0.379,0-0.676,0.195-1.622,1.008c-0.832,0.719-1.003,0.566-0.937,0.973c0.039,0.234,0.043,0.754,0.121,0.848
C70.004,87.887,70.434,87.613,71.813,86.469L71.813,86.469z M70.535,85.047c0.668-0.563,0.809-0.676,0.321-1.164
c-0.442-0.441-0.953-0.551-1.227-0.281c-0.148,0.199-0.004,1.363-0.019,1.594C69.582,85.566,70.078,85.43,70.535,85.047
L70.535,85.047z M84.828,72.93c0-0.238,1.164-1.09,2.036-1.281c1.109-0.25,2.503-0.121,3.48,0.367c0.84,0.418,1.75,1.43,0.402,0.813
c-1.242-0.551-3.902-0.559-4.863-0.113C85.168,73.078,84.828,73.172,84.828,72.93L84.828,72.93z M83.965,68.676
c0.09-0.09,1.254,0.211,1.891,0.379c1.715,0.453,3.125,0.188,4.917-0.332c0.422-0.121,0.633,0.168,0.375,0.383
c-0.914,0.633-2.098,1-3.118,1.094C85.785,70.41,83.367,69.262,83.965,68.676L83.965,68.676z M72.953,65.363
c0.961-0.469,2.129-7.043,1.754-8.176c-1.176,1.793-2.488,2.598-4.363,2.285c-3.066-0.508-3.18-4.281-0.813-4.664
c0.95-0.152,2.106,0.473,2.297,0.328c1.012-0.477,1.801-3.867,2.047-4.969c0.184-1.074,0.449-4.059,0.489-5.008
c0.085-2.023,0.007-5,0.007-5L59.442,22.301L26.746,22.16c0,0-0.105,25.016-0.027,37.813l9.258,8.883l0.117,14.363
c10.344-4.516,20.355-9.258,30.16-14.383c-1.137-1.359-1.105-4.781,0.969-6.078C70.274,60.852,72.809,63.375,72.953,65.363
L72.953,65.363z M81.149,68.406c0.07-0.809,0.672-1.477,0.715-2.301c0-0.184,0.148-0.395,0.636-0.137
c0.633,0.336,0.828,0.102,1.547-0.23c1.274-0.586,1.637-0.574,2.617-0.18c0.633,0.34,0.828,0.336,1.422,0.027
c0.813-0.535,1.68-0.711,2.395-0.461c1.066,0.375,1.437,0.578,2.046,0.285c0.309-0.148,0.691-0.707,0.758-0.664
c0.438,0.652,0.352,1.676,0.629,2.254c0.496,0.977,0.305,1.676-0.281,1.195c-1.227-1.012-2.184-1.035-3.941-0.598
c-1.032,0.254-1.551,0.453-2.692,0.316c-3.539-0.418-3.777-0.313-4.496,0.168C81.805,68.547,81.266,68.598,81.149,68.406
L81.149,68.406z M90.648,61.992c-1.023-0.254-2.191-1.184-3.035-0.934c-1.043,0.07-1.637-1.16-1.102-1.832
c0.914-0.891,2.336,0.008,2.887,0.426c1.199,0.91,1.371,0.98,1.855,0.98c1.988-0.039,1.609-1.898,0.645-2.574
c-0.57-0.598-0.625-0.984-0.504-1.133c0.195-0.238,0.766-0.035,1.387,0.617c1.191,1.121,1.219,3.348-0.242,4.023
C91.813,61.973,91.336,62.164,90.648,61.992L90.648,61.992z M94.801,55.551c-0.926-0.672-2.574-2.176-3.004-2.715
c-0.73-0.906-1.02-1.484-0.93-2.211c0.07-0.566,0.156-0.906-0.207-1.094c-0.386-0.195-0.757-1.055-0.684-1.504
c0.023-0.121,0.457-0.047,0.723,0.281c0.332,0.055,0.266-0.145,0.629-0.383c3.781-2.539,6.816-2.051,10.406-0.305
c1.043,0.5,3.762,2.559,2.305,1.891c-0.086-0.039-1.039-0.453-2.004-0.938c-3.113-1.492-6.582-2.395-9.402-0.477
c-0.488,0.34-0.781,0.602-0.402,0.602c1.586-0.309,3.156-0.969,4.785-0.867c2.434,0.031,3.902,1.23,5.727,2.059
c1.977,0.887,2.359,1.188,1.637,1.918c-0.203,0.223-0.363,0.219-1.32,0.145c-1.027-0.078-1.113-0.047-1.691,0.32
c-1.516,0.973-3.484,1.5-5.23,1.355c-2.059-0.172-2.281-0.34-2.324-0.043c-0.027,0.191,0.418,0.52,1.027,1.078
c0.461,0.422,1.086,1.047,1.141,1.141C96.148,56.109,95.367,55.961,94.801,55.551L94.801,55.551z M94.223,52.254
c-0.004-0.242-0.461-1.305-0.73-1.578c-0.258-0.262-0.465-0.16-1.016,0.23c-0.418,0.293-0.461,0.523-0.078,0.863
C93.211,52.496,94.23,52.676,94.223,52.254L94.223,52.254z M97.324,52.402c0.832-0.406,1.676-1.832,1.293-2.293
c-0.23-0.277-0.43-0.016-0.863,0.758c-0.211,0.371-0.57,0.84-0.723,0.949c-0.68,0.477-1.574,0.031-1.953-1.02
c-0.227-0.633-0.469-1.035-0.734-0.797c-0.477,0.438,0.066,2.004,1.016,2.406C95.926,52.648,96.738,52.684,97.324,52.402
L97.324,52.402z M99.91,52.168c0.84-0.262,1.246-0.641,1.172-1.008c-0.059-0.305-0.664-0.664-1.078-0.664
c-0.184,0-0.543-0.008-0.676,0.164c-0.285,0.383-0.742,1.539-0.762,1.664C98.664,52.582,98.949,52.461,99.91,52.168L99.91,52.168z
M102.82,45.883c-4.203-1.609-7.523-2.254-11.52-0.547c-1.281,0.555-2.012,0.613-2.078,0.16c-0.055-0.383,0.867-1.516,1.863-2.039
c2.793-1.277,6.145-1.398,8.953-0.051c1.047,0.516,3.992,2.609,3.992,2.801C104.031,46.414,103.766,46.254,102.82,45.883
L102.82,45.883z M152.031,92.992c1-0.531,1.461-1.566,0.848-2.18c-0.18-0.18-0.43-0.18-0.641-0.18c-0.348,0-2.98,0.703-3.488,0.977
c-0.332,0.18-0.211,0.492,0.105,0.777c0.145,0.133,0.254,0.418,0.277,0.727c0.031,0.402-0.051,0.762,0.215,0.699
C149.883,93.691,150.73,93.57,152.031,92.992L152.031,92.992z M148.293,93.953c0.285-0.52,0.164-1.23-0.586-1.668
c-0.391-0.203-0.699-0.094-1.016,0.355C145.949,94,147.797,94.582,148.293,93.953L148.293,93.953z M144.539,94.59
c0.16-1.734,0.082-6.863,0.082-6.863s-0.934,0.789-1.52,0.816c0.215-0.75,0.449-1.023,0.785-1.758
c0.191-0.781,0.297-2.156,0.242-2.941c-0.059-0.863-0.664-0.887-0.039-2.438c0.32-0.789,0.379-1.625-0.039-2.602
c-0.176-0.484-0.234-0.762,0.23-1.375c0.434-0.57,0.262-0.855,0.254-2.047c-0.012-1.645,0-1.914-0.5-0.586
c-0.742,1.102-1.086,0.891-2.223,0.758c-1.094,2.461-2.379,5.039-2.43,7.16c-0.031,1.328-0.051,1.535,0.781,4.328
c0.309,1.043,0.414,1.387,0.434,2.645c0.016,1.203,0.105,1.625,0.289,2.289C141.211,93.156,142.531,95.105,144.539,94.59
L144.539,94.59z M106.367,205.199l0.004-2.473c0,0-3.953,1.219-5.961,0.469c-2.066-0.559-2.063-0.66-2.02-0.438
c0.07,0.399,1.605,1.212,3.027,1.544c0.996,0.234,2.996-0.005,3.977-0.294c0.559-0.163,0.617-0.011,0.395,0.161
c-2.426,1.895-5.5,1.023-7.434-0.551c-1.031-1.012-1.723-1.016-1.164,0.34C99.844,209.335,106.434,206.164,106.367,205.199
L106.367,205.199z M103.699,201.523l0.898,0.02c0,0-0.277-1.57-0.742-2.027c-0.953-0.934-2.301-0.793-3.156,0.129
c-0.391,0.418-0.691,1.905-0.691,1.905l0.723,0.017C101,200.871,102.141,197.613,103.699,201.523L103.699,201.523z M100.098,199.152
c-0.512-0.137-1.633,0.371-2.18,0.726c-0.199,0.224-0.203,0.254,0.039,0.571c0.523,0.691,1.324,1.023,1.383,0.761
C99.57,200.848,100.152,199.293,100.098,199.152L100.098,199.152z M106.043,200.898c0.117-0.484-0.336-1.31-1.047-1.599
c-0.305-0.073-0.609-0.136-0.52,0.203c0.102,0.375,0.313,0.997,0.512,1.411c0.141,0.313,0.234,0.468,0.535,0.348
C105.762,201.184,105.961,201.109,106.043,200.898L106.043,200.898z M144.641,168.117l0.008-4.188
c-2.117,2.145-4.879,5.741-5.719,7.086L144.641,168.117z M80.043,52.695c0.895-0.383,1.551-1.555,1.324-2.145
c-0.14-0.367-0.511-0.074-0.886,0.469c-0.606,0.875-0.762,0.973-1.293,0.973c-0.567,0-0.789-0.148-1.18-0.91
c-0.266-0.719-0.457-0.832-0.707-0.52c-0.117,0.145-0.105,0.348,0.047,0.871C77.746,52.805,78.774,53.238,80.043,52.695
L80.043,52.695z M82.485,52.262c0.992-0.34,1.195-0.449,1.148-0.781c-0.051-0.348-0.84-0.809-1.289-0.723
c-0.324,0.195-1.164,1.523-1.113,1.762C81.344,52.703,81.676,52.539,82.485,52.262L82.485,52.262z M76.75,51.684
c-0.031-0.305-0.074-0.605-0.16-0.711c-0.32-0.383-0.992-0.113-0.992,0.379c0,0.367,0.527,0.789,0.957,0.789
C76.856,52.141,76.813,52.215,76.75,51.684L76.75,51.684z M82.367,49.18c1.414,0.531,2.133,0.59,1.364-0.133
c-1.059-1.172-5.907-2.512-8.504-0.598c-0.188,0.266-0.149,1.277,0.054,1.219C77.399,48.242,80.106,48.32,82.367,49.18L82.367,49.18
z M77.528,45.137c-1.188,0.395-2.301,1.016-2.446,1.594c-0.23,0.93,0.188,0.941,1.742,0.453c2-0.656,4.239-0.359,5.942,0.625
c1.297,0.941,1.68,0.633,1.461-0.16C83.504,45.031,79.453,44.559,77.528,45.137L77.528,45.137z M77.528,45.137"/>
<path fill="#E2CF00" d="M153.781,28.316l-8.738,8.66l0.125,10.242c0.875,1.609-13.484-4.59-15.754-6.465
c0.266,6.844,9.605,14.641,15.68,17.492l0.164,21.73c0,0,2.445-0.945,3.789-1.414c0.996-0.344,3.277-0.313,4.027-0.672
C154.266,62.992,155.281,43.613,153.781,28.316L153.781,28.316z M105.188,39.039c-0.852,0.016-1.359,0.246-1.348,0.793
c-0.258-0.043,3.227,12.793,4.813,18.152c-3.086,3.117-6.309,8.539-1.699,13.551c0.984,1.07,2.789,1.977,4.504,3.008
c0.762,0.738-9.379,7.277-18.402,7.281c-2.895-6.344-6.938-2.836-9.164-0.625c-1.742-0.152-8.242-4.023-11.567-6.238
c-0.054-0.039-0.019-0.957-0.011-1.125c0.23,1.516,13.023,4.777,13.601,3.262c-0.367,0-5.738-3.633-7.281-7.215
c-1.969-4.043-3.543-9.594-3.543-9.594c-0.719,2.051-0.473,4.898-2.445,5.914c-0.59-6.68-10.133-3.273-5.383,3.262
c-2.668,0.781-4.949,2.164-7.539,3.313c5.418,7.375,12.879,12.277,20.758,15.172c-1.039,2.211-7.176,7.195-2.137,13.066
c0.227,0.184-4.816,5.684-7.297,9.984c-1.867,3.238-1.305,5.727-1.09,5.805c6.832-7.828,10.672-14.453,10.672-14.453
c-0.058,0.91,8.11,0.418,7.973-6.938c0.183-1.984,0.539-4.137,1.304-5.977c12.465,0.586,23.18-3.855,32.239-13.18
c0,0,1.844,0.527,3.008,0.707c0.582,0.094,1.41-0.289,1.547-0.328c0.523-0.027,1.281-0.129,1.988-0.527
c0.965-0.543,1.941-1.477,2.977-2.313c1.355-1.098,2.707-2.156,3.188-3.289c0.543-1.258,0.121-2.773-0.344-4.113
c-2.906-3.422-4.836,0.258-6.125-0.223c-4.473-6.078-8.203-23.281-8.813-23.414C117.074,42.254,108.527,38.984,105.188,39.039
L105.188,39.039z M74.485,50.781c-0.332,0.02-1.532,5.371-2.594,5.328c-4.5-2.898-4.594,3.098-0.727,2.824
c3.266-0.23,5.094-5.504,3.336-8.148C74.496,50.781,74.492,50.781,74.485,50.781L74.485,50.781z M26.403,60.953
c0.148,32.516,0.734,65.02,1.496,97.523c2.937-0.724,5.074-1.277,7.957-0.02c0.269-9.238-0.543-32.559-0.348-55.141
c10.984-8.539,18.699-17.961,24.117-30.273l-16.769,7.852c0,0-5.481,7.855-7.231,8.359c-0.25-1.117-0.531-14.414-0.301-20.117
L26.403,60.953z M63.664,81.066l-3.293,4.766c0,0,0.078,16.375,0.266,24.266c0.137,1.57,1.566,3.012,0.422,4.418
c0.699,0,3.742,21.241,0.847,29.855c-0.519,1.543-0.031,2.632,0.778,2.984l6.281,6.375c1.981,0.656,3.91,0.397,5.57,0
c5.946-5.438,14.387-14.965,14.387-14.965l-22.32-21.102C64.688,112.547,63.664,81.066,63.664,81.066L63.664,81.066z
M145.02,149.352c-16.164,12.082-23.109,29.276-23.215,29.16c0.055,0.198-0.082,0.906,0.93,0.348
c4.184-2.266,14.938-7.149,14.938-7.149c2.555-3.069,4.52-6.03,7.445-8.953c0,0,0.316,13.325,0.059,20.009
c2.637,1.961,8.898,8.09,8.898,8.09c0-0.004,1.73-94.66-2.004-97.063c-3.621,0.703-5.441,2.027-6.793-2.176
C144.32,110.891,145.266,130.227,145.02,149.352L145.02,149.352z M109.922,96.078c-3.898,3.188-17.301,16.332-17.273,16.469
c3.555,5.961,17.594,17.902,24.32,24.578l0.977,34.007c0.988-1.331,1.707-2.582,2.781-3.918c0,0-0.176-17.218-0.59-25.289
c-0.125-2.39-0.672-4.269-0.5-4.487c-1.895-9.797-2.68-20.621,0.004-31.129C113.281,100.836,111.262,97.195,109.922,96.078
L109.922,96.078z M110.965,134.921c-0.012,0.005-0.02,0.013-0.031,0.024c-3.289,4.687-9.582,14.859-10.035,14.836
c-0.133-0.305-6.5-0.02-7.707,3.988c-1.012,2.98-1.086,5.727-1.824,8.805c-12.777-0.418-22.132,3.621-31.984,12.699
c-2.805,0.113-5.258,0.34-6.98,0.979c-1.446,0.536-2.223,1.497-3.11,2.142c-2.5,1.813-3.176,3.358-3.054,5.254
c0.222,3.426,6.281,3.914,6.593,1.5c0.305,0,5.93,12.844,6.477,15.031c1.324,3.539,2.746,10.159,2.914,10.172
c2.266,0.145,14.973,3.707,15.019,2.414c1.2-0.513-4.418-18.895-4.418-18.895c9.817-8.234-1.007-17.036-3.55-16.715
c5.59-3.98,12.004-6.66,19.078-7.012c1.094,3.93,6.172,5.949,8.727,0.727c0,0,10.996,3.934,10.953,5.238
c-4.531-0.684-8.25-1.039-12.785-1.473c8.688,4.715,8.953,10.93,10.727,17.113c0.242-1.094,2.531-5.879,2.531-5.879
c2.949,6.531,8.551,2,6.238-3.277l6.973-3.23c0.801-0.41-10.422-13.035-20.629-14.824c0.512-0.938,0.715-1.825,1.246-2.59
c2.563-2.512,4.547-6.188,0.633-10.586c2.582-3.61,8.574-12.324,8.191-12.481C111.156,138.882,111.273,134.813,110.965,134.921
L110.965,134.921z M27.031,175.078c0,0-0.144,30.215-0.07,45.215c-0.25,0.621-0.414,3.938-0.414,3.938l9.297-8.73l0.277-11.286
c2.43-0.582,17.559,7.099,16.348,7.056c1.152-0.484-6.984-15.852-16.477-17.56c-0.175-8.707-0.265-18.562-0.515-21.21
C32.18,173.128,27.031,175.098,27.031,175.078L27.031,175.078z M109.563,193.253c-2.605,0.778-3.691,6.25-2.848,8.903
c0.156,0.492,0.059,0.597,0.473,0.117c1.012-1.488,0.695-4.453,2.484-6.021C114.406,197.68,113.938,191.527,109.563,193.253
L109.563,193.253z M109.563,193.253"/>
<path fill="#D40000" d="M158.711,241.934v-2.785h2.508v-15.021c0,0,0.012-3.612,0.176-4.065c1.934-6.586,12.629-6.129,13.164-0.254
c0.223,1,0.16,4.319,0.16,4.319h-2.828c0,0-0.02-1.058-0.059-1.839c0.367-6.239-7.203-4.941-7.582-0.754
c-0.156,0.75-0.172,2.593-0.172,2.593v15.021H167v2.785H158.711z M49.336,228.891l12.309-18.59
c14.691,4.909,29.688,4.999,44.848,2.577l13.547,16.013H114.5l-8.527-12.177c-3.09,0.716-6.301,1.028-9.5,1.466l3.988,10.711h-4.344
l-3.133-10.595c-7.355,0.286-12.364-0.371-17.469-0.968l-1.84,11.563h-4.418l2.981-11.938c-3.473-0.652-6.977-1.211-9.887-2.141
l-9.035,14.078H49.336z M63.43,217.953l5.109,1.382l-2.496,9.556h-9.344L63.43,217.953z M76.625,228.891l1.442-8.441
c3.433,0.676,7.91,0.813,12.628,0.765l2.219,7.677H76.625z M100.805,221.066l4.031-1.07l6.039,8.895h-7.34L100.805,221.066z
M132.703,227.41c-4.258-8.563-10.074-16.012-16.398-23.102c6.176-6.492,11.379-13.992,16.379-22.523
c4.961,8.609,10.68,16.586,16.984,22.855C142.734,211.539,137.422,219.046,132.703,227.41L132.703,227.41z M167.027,211.992
c-2.055-3.352-4.508-6.707-7.523-10.059c2.754-3.099,5.152-6.414,7.313-9.879c2.488,3.82,5.055,7.141,7.695,9.996
C171.723,205.168,169.383,208.585,167.027,211.992L167.027,211.992z M42.016,167.344c19.656-22.863,17.039-46.863,6.183-66.219
l2.309-2.375c12.555,20.633,15.231,49.973-7.914,72.71C42.352,170.089,42.016,167.344,42.016,167.344L42.016,167.344z
M120.398,141.703c2.824,4.804,4.551,9.672,7.535,14.507l-7.078,9.567L120.398,141.703z M35.828,156.844
c-0.183-15.082,0.047-45.648,0.047-45.648l6.633-5.074c7.934,9.633,12.266,35.023-1.984,51.922
C39.485,157.289,36.664,157.602,35.828,156.844L35.828,156.844z M129.992,153.801c-18.188-30.68-8.938-53.055,8.594-72.922
c0.051,1.531,0.164,3.059,0.305,4.582c-15.051,17.234-21.07,42.719-6.313,65.777L129.992,153.801z M97.055,149.344l8.285-11.289
c0,0,1.57-4.488,2.891-5.816l1.52-1.344c0.508,0.487,1.469,1.105,1.441,1.668c-0.031,0.531-0.813,3.332-0.813,3.332l-9.691,14.168
C100.688,150.063,97.75,149.546,97.055,149.344L97.055,149.344z M141.117,94.555c0.262-0.297,3.551,1.074,3.551,1.074l0.211,46.387
l-6.582,4.23C136.387,147.214,121.461,116.773,141.117,94.555L141.117,94.555z M71.766,114.094
c2.996-4.082,6.152-7.617,9.058-11.367c0.75,0.258,2.723,0.301,2.723,0.301c0.211,0.113-0.664,3.113-2.812,5.18
c-2.161,2.203-7.305,8.234-7.454,11.273c-0.046,0.938-2.152,2.012-2.152,2.012l-1.496-1.578
C70.094,117.602,70.809,115.832,71.766,114.094L71.766,114.094z M53.071,96.301l6.593-8.559l0.66,22.738L53.071,96.301z
M30.528,45.875c6.277-6.684,11.828-14.355,17.074-22.285c4.785,7.871,10.094,15.922,16.734,22.449
c-6.047,6.629-11.777,14.586-16.777,22.469C42.758,60.832,37.391,52.883,30.528,45.875L30.528,45.875z M5.465,47.879
c2.988-2.895,5.473-6.098,7.5-9.586c2.32,3.523,4.512,7.152,7.617,10.035c-2.867,3.07-3.785,4.047-7.688,9.777
C10.688,54.535,8.403,51.012,5.465,47.879L5.465,47.879z M74.66,38.625L61.598,22.301h6.324l7.781,11.551l9.317-1.063l-3.281-10.488
h3.859l2.726,10.32c5.715,0.133,11.301,0.578,16.723,1.121l2.785-11.441h3.934l-3.57,11.973l10.523,2.762l9.371-14.734h4.66
l-13.285,19.023C102.094,36.109,88.145,36.707,74.66,38.625L74.66,38.625z M4.817,30.285c-0.203-1.445-0.246-2.867,0.015-4.25h2.821
c0,0-0.02,1.039,0.023,1.922c0,5.59,6.688,4.871,7.676,1.352c0.347-1.246,0.297-3.234,0.297-3.234l0.011-14.871h-2.867V8.316h8.488
v2.887h-2.648v14.832c0,0-0.019,0.063-0.008,0.32c0.051,0.895,0.082,3.039-0.394,4.047C15.551,37.082,5.742,35.566,4.817,30.285
L4.817,30.285z M112.316,31.793l2.973-9.504l8.902,0.012l-6.813,10.852L112.316,31.793z M90.773,29.48l-1.883-7.18h15.695
l-2.027,8.027C98.414,29.629,94.629,29.492,90.773,29.48L90.773,29.48z M71.961,22.301h6.262l2.441,7.43l-3.613,0.41L71.961,22.301z
M71.961,22.301"/>
<path d="M59.551,21.246l15.125,18.098c3.152-1.129,19.035-2.941,28.563-0.766c1.66,6.504,3.418,13.07,5.273,18.992
c0,0-0.594,0.695-1.023,1.137c-6.086,7.012-1.777,13.785,3.789,15.992c-1.004,2.086-11.672,7.277-18.172,6.66
c0.012-0.063-1.996-4.766-6.063-3.176c-1.387,0.543-1.961,1.59-3.039,2.609c-3.879-1.168-9.008-3.723-11.672-6.527
c4.989,2.48,9.899,3.816,14.828,3.16c0,0-0.613-0.508-1.304-0.828c-0.418-0.191-1.422-0.793-2.235-1.34
c-2.289-1.547-3.812-3.406-5.382-6.59c-1.805-3.227-2.098-6.695-3.09-9.758c-0.524,1.57-0.75,5.711-2.118,6.57
c-0.355,0.234-0.417,0.164-0.683-0.715c-1.047-3.184-4.867-2.781-6.129-0.516c-0.641,1.953-0.547,2.809,0.262,4.617l-2.321,1.289
l-0.004,0.383l-1.425,0.68l-0.297-0.199c-6.633,3.203-13.137,6.535-19.903,9.605c0,0-3.593,5.961-6.882,8.336l-0.129-20.25
l-9.742-8.797l-0.043,4.816c0,0,0.464,0.488,0.699,0.734c0.133,33.898,0.019,67.249,0.043,98.023l0.043,28.332l-0.594,0.035
l-0.031,3.305l0.672,0.148l-0.094,4.668L26.125,200l-0.051,2.953l0.532,0.082l-0.012,16.675l-0.523,0.681l0.011,4.758l10.168-9.664
l0.227-10.988c8.023,1.516,16.406,7.277,16.406,7.277c-1.41-9.203-11.168-16.789-16.773-18.305l0.019-21.809
c0,0-4.164,1.734-6.223,2.004c-1.019,0.145-1.414-0.012-1.898-0.746c-0.355-0.54-0.363-1.027-0.043-2.137
c0.149-0.52,0.145-0.653-0.043-1.176c-0.262-0.73-0.266-1.063-0.008-2.355c0.27-0.758,0.149-1.165-0.133-1.868
c-0.3-0.75-0.324-0.89-0.195-1.323c0.34-1.145,0.36-1.328,0.18-1.836c-0.348-1-0.36-1.72-0.039-2.363
c1.5-2.521,4.863-1.899,6.687-1.81c0.926,1.032,1.477,1.606,1.563,0.114c0.644-1.777,3.156,0.043,4.328,0.8
c9.98-13.375,14.902-31.476,2.383-54.136l-6.965,5.574l0.019-6.977C44.973,97.492,55.364,84,59.864,73.363
c1.496,1.75,3.214,3.473,4.832,5.242l-1.059,1.77l-0.313-0.176C60.461,85.664,52.68,96,52.555,95.898
c2.879,5.336,5.445,10.723,7.625,16.176l0.57-0.258l0.512,1.645l-1.008,0.301c3.406,11.176,3.52,21.527,0.953,31.07l0.602,2.535
c0,0,3.605,3.492,4.578,4.52c2.543,2.457,5.371,5.202,5.371,5.202l3.293-3.222l-0.191-0.273l28.843-28.637l1.797,1.719
c-17.664,17.793-48.351,48.512-48.351,48.512l-1.063,0.151c-0.605,0.091-1.5,0.13-2.066,0.091c-0.942-0.066-1.055-0.043-1.809,0.313
c-0.847,0.402-1.547,1-2.484,2.125c-0.43,0.511-0.723,0.734-1.199,0.902c-6.016,3.586-0.579,10.809,4.539,7.008
c3.75,7.164,6.922,15.504,8.672,23.758c0,0.059-0.672,0.289-0.672,0.289l-13.481,19.988h5.188l0.539-0.922H49.43l12.398-17.91
c15.778,4.297,30.258,4.91,44.954,2.352l12.789,15.559h-5.07l0.723,0.922l6.566,0.105l-15.035-17.742
c-5.387,1.438-19.586,2.594-28.492,1.086c-1.363-6.617-3.609-13.809-5.27-19.531c8.5-6.652,2.118-15.438-3.128-16.66
c-0.254-0.481,10.64-7.102,18.398-6.646c2.223,5.337,7.09,4.548,8.836,0.575c3.219,1.184,7.395,2.363,10.707,5
c-4.418-0.969-9.543-1.5-13.758-1.563c8.02,3.108,10.27,9.66,11.258,15.84c0.172,1.027,0.723,2.348,0.723,2.348
c0.684-2.23,1.242-4.536,2.586-6.445c0.617,2.184,2.895,3.883,5.188,2.582c1.332-0.966,1.797-2.617,1.375-4.906
c-0.117-0.637-0.176-0.984-0.176-0.984l1.781-0.965l0.23,0.199c0,0,1.953-0.836,2.922-1.31c0.152-0.069-0.176-0.375-0.176-0.375
l18.016-8.496c-0.066-0.038,4.543-6.331,7.188-8.761c0.082,7.543,0.063,10.645,0.059,19.598l1.016,0.991
c0.902,0.884,2.871,2.711,7.305,6.786c1,0.914,1.695,1.367,1.695,1.367l-0.137-131.891h-0.148v-2.539l0.207-0.012l0.004-6.598
l-0.188-0.109V48.68l0.246-0.18l0.02-17.816l-0.289-0.051l-0.016-4.273L144.691,36.98L144.766,47
c-4.48-0.582-10.023-3.449-13.84-5.762c-1.234-0.754-1.922-0.953-1.883-0.523c0.535,5.965,9.168,15.082,15.801,17.469l0.012,22.434
c0,0.016,1.566-0.781,2.523-1.184l0.145,0.398l2.137-0.883l0.176-0.465l1.852-0.234c0.023,0.379,0.086,0.328,0.086,0.328
c1.652,0.461,2.383,1.59,1.719,2.855c-0.234,0.422-0.277,1.023-0.086,1.184c0.715,1.129,0.902,2.125,0.039,3.191
c-0.332,0.547-0.332,0.855,0.012,1.434c0.895,1.805,0.387,1.684-0.285,2.758c-0.152,0.813,0.734,1.34,0.441,2.105
c-0.137,0.504-0.668,1.094-1.027,1.359c-0.422,0.309-0.77-0.262-0.77-0.262s-1.34,0.574-2.301,0.758
c-0.945,0.305-2.574,0.855-3.141-0.418c-0.32-0.73-0.063-1.398-0.082-2.211l-1.391-0.152l-0.051,3.703
c-0.793,0.426-3.949-1.188-3.949-1.188c-13.551,17.559-13.172,37.035-3.121,53.351c0.098,0.263,7.078-4.772,7.078-4.772
s-0.012,4.129,0.047,6.367c-8.875,7.34-17.449,17.219-23.578,29.395l-3.797-4.5c0.652-0.578,0.676-1.492,0.664-2.184l2.758-4.113
l0.023-1.067l7.168-10.011c0.113,0.597-7.398-13.446-8.398-18.016l0.5-0.138c-3.371-12.745-2.68-21.675-0.246-32.073l-0.695-0.672
l-9.457-9.445c-0.77,0.711-1.535,1.422-2.297,2.137c-0.117,0.109-0.695,0.047-0.813,0.156c-4.977,4.664-9.762,9.352-14.5,14.219
c-0.121,0.125,0.086,0.645-0.035,0.77c-4.747,4.887-9.665,9.523-14.464,14.402l-1.754-1.672c17-16.996,49.027-48.566,49.027-48.566
s0.141-0.25,0.359-0.258c0.891-0.035,1.688-0.234,2.566-0.492c1.059-0.242,1.227-0.32,1.672-0.781
c0.273-0.277,0.719-0.672,0.992-0.871c0.461-0.34,1.523-1.234,3.18-2.676c1.016-0.883,1.641-2.168,1.617-3.316
c-0.039-2.039-1.391-3.781-3.133-4.031c-0.723-0.105-2.141,0.273-2.859,0.758c-0.551,0.371-0.809,0.539-1.043,0.375
c-3.469-7.039-6.848-15.887-8.277-23.188c-0.078-0.461-0.035-0.598,0.34-1.176c0.234-0.363,0.742-1.156,1.133-1.77
c3.102-4.484,6.699-9.93,10.074-14.848c0.559-0.816,1.648-2.391,1.648-2.391l0.82-1.352h-5.348l-0.66,1.055h4.402l-13.098,18.852
c-24.141-7.891-43.917-2.891-44.395-2.781l-13.047-16.07h5.965l-0.723-1.055H59.551z M71.301,21.246l0.664,1.055h6.258l-0.352-1.055
H71.301z M81.739,22.301h3.859l-0.219-1.055h-3.961L81.739,22.301z M88.645,21.246l0.246,1.055h15.691l0.281-1.055H88.645z
M107.832,22.301h3.934l0.293-1.055h-3.953L107.832,22.301z M115.613,21.246l-0.336,1.055h8.914l0.668-1.055H115.613z
M153.734,28.523l0.141,2.922l-6.426,6.773l0.008,9.457l-1.871-0.434l-0.074-9.773L153.734,28.523z M151.934,34.754
c0.055,2.895-0.414,5.672,0.352,8.625c0.375,1.453,1.141,3.156,1.238,4.875l-2.121-0.051c-0.27-0.867-0.375-1.824-0.691-2.891
c-0.781-2.633-1.418-5.406-0.84-8.199L151.934,34.754z M105.668,39.477c0.074,0.145,0.328,1.367,0.563,2.504
c1.113,6.23,2.605,10.852,4.125,15.559c1.938,5.93,4.797,13.391,7.582,16.852c0.367,0.43,0.551,0.922,0.418,1.137
c-0.227,0.363-1.363-0.145-2.125-0.949c-0.313-0.328-0.91-1.25-1.352-2.074c-0.973-1.82-2.281-4.469-2.41-4.887
c-0.055-0.172-0.566-1.48-1.141-2.91c-1.008-2.5-1.602-4.211-2.445-6.988c-0.664-2.207-1.281-4.516-2.023-6.84
c-1.219-3.797-1.922-6.82-2.602-10.316c-0.098-0.512-0.27-1.109-0.207-1.234C104.438,39.051,105.48,39.164,105.668,39.477
L105.668,39.477z M106.348,39.715c-0.121-0.102,1.105-0.121,1.496,0.207c0.117,0.117,0.324,0.848,0.504,1.785
c1.105,5.734,2.773,11.656,4.711,17.27c1.551,4.484,3.242,8.801,5.348,12.297c0.664,1.164,1.559,2.41,2.695,3.754
c0.641,0.754,0.691,0.859,0.52,1.07c-0.211,0.254-0.578,0.219-1.293-0.117c-0.66-0.316-1.379-1.004-2.055-1.98
c-0.23-0.332-0.582-0.836-0.781-1.113c-3.109-5.375-4.996-10.48-6.707-15.664c-1.75-5.316-3.328-10.695-4.398-16.891
C106.375,40.125,106.359,39.918,106.348,39.715L106.348,39.715z M110.254,40.52c0.27,0.277,0.426,0.809,0.664,1.914
c1.293,5.316,2.355,10.066,3.883,14.43c0.82,2.348,1.535,4.691,2.418,6.902c1.406,3.531,3.133,6.746,5.25,9.426
c0.699,0.883,1.965,1.969,3.031,2.602c0.738,0.441,0.848,0.551,0.801,0.805c-0.066,0.23-0.785,0.324-1.023,0.305
c-1.164-0.195-2.887-1.102-3.379-1.77c-3.563-3.852-6.109-10.152-7.965-15.32c-3.191-8.902-5.762-20.02-5.273-19.676
C108.629,39.879,109.938,40.176,110.254,40.52L110.254,40.52z M111.785,40.844c0.113,0,0.246,0.02,0.391,0.059
c0.664,0.184,0.75,0.277,0.91,1.012c1.141,5.082,2.348,9.563,3.695,13.828c1.367,4.336,2.777,8.43,4.977,12.719
c1.609,3.133,3.648,5.297,5.84,6.395c0.633,0.313,1.191,0.617,1.25,0.672s0.043,0.219-0.035,0.363
c-0.113,0.219-0.246,0.262-0.785,0.25c-0.992-0.016-1.691-0.324-2.758-1.043c-2.801-1.93-5.25-6.305-6.332-8.785
c-1.316-3.027-2.531-6.172-3.621-9.602c-1.965-6.152-3.188-10.223-4.082-15.418C111.234,40.996,111.438,40.836,111.785,40.844
L111.785,40.844z M153.754,49.148l-0.02,1.801c-7.051,0.469-14.281-2.512-20.094-5.195c4.379,5.805,9.051,10.961,20.094,12.023
l0.02,1.859c-14.383-0.203-24.512-14.77-23.98-18.398C135.691,45.059,146.375,49.48,153.754,49.148L153.754,49.148z M114.063,41.52
c0.344,0.016,0.813,0.16,0.992,0.344c1.176,4.387,2.031,9.258,3.977,14.148c2.387,6.008,3.711,11.309,8.141,16.262
c1.375,1.414,4.074,1.371,4.074,1.371s-0.34,0.766-0.801,0.895c-0.949,0.141-1.637,0.184-2.328-0.039
c-2.563-1.082-4.523-3.82-5.535-5.676c-0.949-1.395-3.266-7.125-5.172-12.969c-2.078-6.359-3.789-12.973-3.594-14.305
C113.891,41.523,113.945,41.516,114.063,41.52L114.063,41.52z M116.434,42.258c0.168,0,0.395,0.063,0.664,0.191
c0.289,0.141,0.414,0.227,0.563,0.766c0.098,0.355,0.082,0.902,0.258,1.793c1,4.582,2.379,8.301,3.746,11.926
c1.301,3.441,2.695,6.82,4.414,9.879c0.871,1.539,1.73,2.977,2.273,3.523c1.484,1.48,3.996,1.555,4.738,0.082
c0.41-0.836,0.328-2.16-0.484-2.844c-0.633-0.602-2.059-0.348-2.098,0.379c0,0.191,0.355,0.105,0.871,0.047
c1.438-0.168,1.887,2.379,0.035,2.801c-2.34,0.539-3.965-2.625-1.898-4.566c3.504-2.375,6.176,0.871,5.348,3.992
c-0.797,1.844-2.137,2.785-3.906,2.848c-2.285,0.074-3.23-0.633-5.574-4.035c-2.684-4.309-3.848-8.516-5.742-13.227
c-1.789-4.457-2.98-9.211-3.543-13.363C116.148,42.324,116.262,42.258,116.434,42.258L116.434,42.258z M118.652,42.992
c0.207,0.008,0.645,0.117,0.836,0.234c0.113,0.074,0.277,0.23,0.277,0.23c3.148,11.492,5.777,18.375,8.449,23.23
c0,0-0.043,0.895-0.223,1.148c-0.316,0.457-0.473,0.344-0.887-0.375c-1.684-3.254-3.285-6.852-4.777-10.555
c-1.754-4.363-3.313-8.875-3.973-13.172C118.387,43.18,118.266,43.027,118.652,42.992L118.652,42.992z M139.895,49.563
c0.445,0,0.809,0.359,0.809,0.805s-0.363,0.809-0.809,0.809s-0.809-0.363-0.809-0.809S139.449,49.563,139.895,49.563L139.895,49.563
z M74.461,49.414c-0.933,1.273-1.699,5.828-2.668,5.883c-1.07-0.016-2.371-0.629-3.207,0.336c-1.019,1.176-0.394,2.473,0.86,3.188
c0.578,0.285,1.808,0.352,2.554,0.137C75.055,57.934,76.215,52.977,74.461,49.414L74.461,49.414z M142.949,50.609
c0.645,0,1.164,0.523,1.164,1.168s-0.52,1.164-1.164,1.164c-0.641,0-1.164-0.52-1.164-1.164S142.309,50.609,142.949,50.609
L142.949,50.609z M74.516,51.164c1.047,2.625-0.11,5.766-1.383,6.824c-1.172,0.973-3.012,1.098-4.062,0.148
c-0.875-0.82-0.485-2.793,1.144-2.648c0.551,0.02,1.203,0.52,1.57,1.047C72.848,56.645,74.071,51.258,74.516,51.164L74.516,51.164z
M147.012,51.805c0.727,0,1.313,0.59,1.313,1.316c0,0.723-0.586,1.313-1.313,1.313s-1.316-0.59-1.316-1.313
C145.695,52.395,146.285,51.805,147.012,51.805L147.012,51.805z M151.668,52.734c0.738,0,1.34,0.598,1.34,1.34
s-0.602,1.344-1.34,1.344c-0.742,0-1.344-0.602-1.344-1.344S150.926,52.734,151.668,52.734L151.668,52.734z M108.34,58.836
c0.199-0.004,0.34,0.191,0.473,0.574c0.27,0.801,0.266,0.895-0.16,1.43c-4.129,5.715-0.363,11.555,5.613,12.191
c0.504,0.035,0.758,0.602,1.027,1.262c-0.039,0.313-0.039,0.313-1.398,0.336c-0.887,0.02-1.598-0.039-2.039-0.156
c-2.098-0.566-4.664-2.457-5.715-4.211c-1.207-2.023-1.41-4.113-0.664-6.898c0.48-1.789,1.086-2.973,2.027-3.945
C107.879,59.031,108.137,58.836,108.34,58.836L108.34,58.836z M147.465,59.469l0.066,19.602l-2.086,0.762l0.086-20.848
L147.465,59.469z M151.414,60.227c2.602,6.457,2.715,12.375,0.367,17.762l-2.371,0.344c3.254-7.59,1.867-13.02,0.031-18.262
L151.414,60.227z M26.656,61.301l8.446,7.969l0.293,88.785l-1.344-0.473l-0.539-87.328l-6.856-6.289V61.301z M109.129,61.559
c0.012,0,0.027,0,0.043,0.004c0.223,0.023,0.43,0.309,0.621,0.848c0.223,0.637,0.219,0.656-0.031,1.285
c-1.16,2.84-0.215,5.543,2.648,6.395c0.68,0.215,0.793,0.328,1.191,1.168c0.258,0.547,0.375,0.746,0.273,0.867
c-0.148,0.109-0.512,0.16-1.59-0.074c-4.258-1.453-5.801-6.109-3.863-9.805c0.238-0.422,0.461-0.652,0.664-0.684
C109.102,61.559,109.113,61.555,109.129,61.559L109.129,61.559z M75.223,61.203c0,0,0.891,3.145,0.805,3.855
c-0.227,1.379-2.184,3.578-3.895,4.383c-1.586,0.609-3.984,0.301-4.988-0.754c-3.645-4.266,3.156-8.547,4.867-4.105
c1.027,2.91-3.152,3.602-3.34,1.363c0-0.578,0.188-0.758,0.727-1.133c0.476-0.332,0.422-0.629,0.007-0.629
c-1.574,0.574-1.613,2.027-0.902,2.945c1.422,1.488,3.18,0.621,4.395-0.469C74.531,65.188,74.852,63.078,75.223,61.203
L75.223,61.203z M110.484,64.445c0.082,0,1.75,3.992,1.973,4.563c-0.055,0.398-0.492,0.371-1.238-0.152
c-0.754-0.527-0.98-0.898-1.301-2.125C109.82,66.297,109.656,64.711,110.484,64.445L110.484,64.445z M76.582,66.133
c0.367,0,0.75,1.348,0.574,2.039c-0.3,1.199-3.437,3.223-5.64,3.641c-0.442,0.082-0.914,0.172-1.051,0.195
c-0.457,0.082-0.988-0.172-1.543-0.738c-0.391-0.398-0.578-0.793-0.484-0.887c0.078-0.078,1.086,0.098,1.945,0.086
c2.402,0.027,4.254-1.695,5.68-3.75C76.281,66.395,76.512,66.133,76.582,66.133L76.582,66.133z M28.848,67.129
c0,0,1.625,1.473,2.48,2.316c-0.093,3.914-1.535,8.16-1.535,11.656c0.035,3.047,2.004,5.582,2.203,8.23
c0.121,1.715-0.382,4.258-1.23,6.188c-0.785,1.793-1.199,3.707-1.195,5.566c0.097,4.324,3.203,9.055,2.113,13.332
c-1.024,4.02-2.192,6.344-1.883,8.477c0.598,4.121,2.785,7.77,2.203,11.194c-0.543,3.192-1.98,6.375-1.828,9.255
c0.18,3.32,1.422,6.098,1.77,9.129c0.23,1.973-0.329,5.043-0.329,5.043l-2.277,0.188c1.254-4.664-0.613-8.883-1.328-13.371
c-0.609-3.816,1.102-6.855,1.609-10.113c0.321-2.023-0.039-3.953-1.043-6.527c-1.98-4.758-1.269-7.859,0.161-12.004
c1.765-4.414-0.665-7.906-1.27-12.133c-0.313-3.645-0.07-6.219,1.301-9.457c1.019-3.121,1.308-4.93-0.215-7.922
c-0.961-1.891-1.211-3.008-1.215-5.496C27.84,75.738,29.172,72.969,28.848,67.129L28.848,67.129z M77.668,69.102
c0.356,0,0.531,0.25,0.531,0.754c0,0.922-1.375,2.09-3.808,3.23c-1.258,0.594-1.992,0.684-2.727,0.336
c-0.691-0.328-0.656-0.613,0.098-0.832c1.902-0.555,3.25-1.313,4.785-2.691C77.035,69.461,77.539,69.102,77.668,69.102
L77.668,69.102z M66.672,69.738c6.27,6.711,12.414,10.164,17.117,11.777l-0.742,1.754c-6.172-2.391-12.473-5.719-17.812-12.871
L66.672,69.738z M78.75,70.832c0.168,0,0.809,0.809,0.809,1.027c0,0.125-0.235,0.531-0.52,0.895
c-0.414,0.531-0.781,0.805-1.816,1.375c-1.402,0.766-2.254,0.953-2.859,0.633c-0.606-0.32-0.403-0.59,1.109-1.477
c0.777-0.461,1.82-1.199,2.312-1.645C78.274,71.195,78.707,70.832,78.75,70.832L78.75,70.832z M62.141,71.824
c5.137,7.027,11.754,11.695,19.527,14.188l-1.222,1.652c-7.102-2.445-14.051-6.875-20.399-14.672L62.141,71.824z M80.082,72.688
c0.258,0,0.836,0.656,0.836,0.949c0,0.141-0.113,0.398-0.25,0.57c-0.273,0.352-1.707,1.43-2.32,1.746
c-0.477,0.246-0.836,0.242-1.356-0.016c-0.621-0.309-0.515-0.566,0.493-1.215c0.496-0.316,1.242-0.906,1.66-1.305
C79.563,73.016,79.985,72.688,80.082,72.688L80.082,72.688z M59.418,73.203c-0.148,0.184-7.562,17.168-23.273,29.211l-0.074-2.82
c8.703-6.902,15.027-16.352,19.8-24.605L59.418,73.203z M81.574,74.422c0.239-0.008,0.403,0.156,0.571,0.473
c0.199,0.379-0.016,0.715-0.895,1.379c-0.551,0.414-0.754,0.496-1.207,0.488c-1.172-0.023-1.14-0.305,0.141-1.449
C80.852,74.715,81.266,74.43,81.574,74.422L81.574,74.422z M111.914,75.262l3.277,0.25c0.883,0.613-12.801,9.57-22.289,8.766
l0.25-2.145C101.484,82.371,112.145,75.648,111.914,75.262L111.914,75.262z M83.821,76.098c0.753,0.422,1.691,0.922,1.457,1.086
c-0.348,0.215-2.571,0.074-3.082-0.199c-0.383-0.203-0.36-0.313,0.168-0.902C83.008,75.355,83.121,75.711,83.821,76.098
L83.821,76.098z M54.625,75.566c-5.191,9.156-11.371,17.512-18.527,22.957l-0.094-4.84c6.809-5.242,11.965-14.82,11.977-14.855
L54.625,75.566z M119.633,76.148l1.586,0.93c-9.898,9.16-20.586,13.105-30.859,12.117l0.828-1.855
C107.855,88.656,118.926,76.328,119.633,76.148L119.633,76.148z M122.035,76.473c0,0,0.535-0.066,0.477,0.043
c-3.285,3.223-7.797,6.66-10.75,8.578c-13.996,14.367-25.973,25.711-38.164,38.512l-1.949-2.039l1.765-1.867
c0.004-3.688,4.524-7.824,7.2-11.012c1.117-1.258,3.214-4.496,2.976-5.855c-0.078-0.313-0.09-0.43-0.09-0.43
c4.235-0.848,5.246-4.281,5.34-7.316c0.195-2.031,0.469-3.875,1.152-5.543C109.16,91.082,121.508,76.969,122.035,76.473
L122.035,76.473z M88.633,78.594c2.176-0.008,3.82,1.715,3.813,4.152c-0.016,1.02-0.375,1.797-1.758,4.492
c-1.34,2.309-1.516,3.711-2.043,6.375l-1.364-1.223l-2.476,2.234l0.035-3.254c0,0,0.856-1.086,2.238-2.641
c1.75-1.945,3.336-4.449,3.262-5.855c-0.047-1.406-1.531-2.551-3.051-1.633c-1.32,0.922-1.929,2.594-2.707,7.586
c-0.14,0.887-0.269,1.926-0.34,2.156c-0.195,0.613-2.105,2.422-2.105,2.422c-0.164,0-0.918-3.668-0.918-3.668l-1.93,0.32
c2.235-2.43,3.973-5.355,5.098-8.422C85.426,79.746,86.742,78.613,88.633,78.594L88.633,78.594z M46.637,79.371
c0,0-3.844,7.984-10.59,13.176l-0.043-3.125c3.918-3.043,6.906-8.281,6.902-8.27L46.637,79.371z M139.133,79.574
c-13.34,13.813-30.75,39.246-9.145,74.977l2.855-3.294c-17.398-32.315-5.07-49.065,6.383-65.87L139.133,79.574z M67,80.711
c3.906,2.777,7.981,5.535,13.254,7.289c-0.281,0.938-7.527,7.035-2.328,12.676c0.219,0.297-0.336,1.012-1.184,2.031
c-2.484,3.395-4.964,5.813-7.039,9.637l-0.086,7.18l-2.078-1.832L67,80.711z M138.621,81.375l0.086,4.094
c-19.82,24.09-17.586,45.777-6.383,65.758l-2.148,2.176C111.813,121.797,123.27,97.969,138.621,81.375L138.621,81.375z
M89.723,83.797c-0.875,2.309-4.699,6.262-4.699,6.262s0.507-3.852,0.824-5.066c0.246-0.926,0.793-2.18,1.336-2.777
C88.727,80.516,90.266,82.441,89.723,83.797L89.723,83.797z M63.426,81.633l0.371,32.273l-2.789-2.809l-0.41-24.68L63.426,81.633z
M59.66,87.945l0.555,21.914c-2.781-6.563-6.691-13.75-6.769-13.68C53.446,96.18,56.645,91.934,59.66,87.945L59.66,87.945z
M81.664,94.805c0,0,0.426-0.359,1.094-1.121c1.445-1.461,1.574-1.473,1.441,0.496c-0.05,0.758-0.007,1.73-0.007,1.73
c0.843-0.492,2.839-2.848,3.402-2.422c0.437,0.41,0.789,1.262,0.797,2.586c-0.051,2.598-1.52,4.977-3.844,5.754
c-6.422,1.992-10.73-5.418-6.269-10.113c0.441-0.465,1.707-1.332,2.312-1.16C81.34,91.926,81.317,93.449,81.664,94.805
L81.664,94.805z M145.387,92.477c0.375,1.02,0.852,2.031,2.152,2.488c-0.199,31.378-0.051,86.938-0.051,86.938l6.313,5.922
l-0.043,2.586l-8.363-7.657C145.395,182.753,144.945,117.238,145.387,92.477L145.387,92.477z M151.656,93.93
c0.223,3.035-0.289,6.23,0.23,9.352c0.516,2.152,1.293,4.098,1.355,6.219c0.059,1.941-0.066,3.047-0.895,5.754
c-0.578,1.891-0.637,2.191-0.77,4.086c-0.313,2.629,0.539,5.016,1.191,7.113c0.867,2.781,0.625,6.145-0.762,10.578
c-0.5,1.597-0.598,2.269-0.523,3.719c0.191,3.035,1.277,5.921,1.828,8.902c0.301,1.711-0.008,3.945-1.059,7.734
c-0.391,1.409-0.805,3.866-0.805,4.797c0,0.996,0.32,2.871,0.625,3.68c1.461,3.836,1.531,4.523,1.609,6.828
c0.008,1.729-0.492,3.479-1.105,5.004c-1.023,2.433-0.352,4.933,0,7.668l-2.516-2.149c-0.742-2.343-0.48-4.53,0.207-6.276
c0.98-2.734,1.223-2.988,1.211-4.56c-0.02-2.085-1.215-4.554-1.707-6.019c-0.879-2.606-0.883-5.16-0.008-7.914
c0.426-1.352,1.047-4.004,1.184-5.078c0.27-2.071,0.066-3.703-0.973-7.86c-0.508-2.026-0.613-2.808-0.648-4.823
c-0.035-1.871,0.238-3.813,0.836-6.063c0.867-3.582,0.855-5.73-0.27-9.051c-0.91-2.742-1.164-4.605-0.93-6.789
c0.133-1.266,0.48-2.457,1.063-3.641c1.078-2.691,1.242-5.266,0.441-7.836c-1.379-5.258-1.355-7.93-1.223-12.676L151.656,93.93z
M144.586,95.648c-0.219,21.508,0.004,46.125,0.004,46.125s-6.371,4.461-6.344,4.229c-8.211-13.534-11.34-33.476,3-51.46
C141.246,94.543,143.555,95.527,144.586,95.648L144.586,95.648z M47.696,100.777c11.621,21.691,13.128,43.604-6.079,66.086
c0.618,1.988,0.516,3.84,0.211,5.652c3.743-2.914,33.778-32.91,8.485-74.676L47.696,100.777z M106.902,99.012l5.703,0.332
l0.387,4.91l-1.848,1.828c0,0-0.031-1.016-0.055-1.922c-0.031-1.109-0.188-2.078-0.293-2.043c-0.094,0.031-0.199,1.324-0.281,2.734
l-0.086,2.109l-0.637,0.637c-0.852,0.852-1.023,0.785-1.055-0.414c-0.074-2.602-0.066-2.781-0.258-2.59
c-0.105,0.109-0.164,1-0.191,2.344c-0.02,1.066-0.098,2.094-0.168,2.273c-0.145,0.371-1.227,1.344-1.504,1.344
c-0.262,0-0.25-0.379-0.25-1.996c-0.004-1.367-0.145-2.117-0.363-1.613c-0.051,0.117-0.145,1.477-0.164,2.578
s-0.09,2.109-0.156,2.234c-0.238,0.445-1.359,1.391-1.555,1.316c-0.285-0.109-0.355-0.918-0.344-2.273
c0.004-0.664,0.105-1.223-0.148-1.402c-0.254-0.184-0.301,0.586-0.23,2.535l-0.02,2.117l-0.715,0.781
c-1.137,1.168-1.215,1.113-1.215-0.902c0.051-1.598-0.008-2.297-0.32-2.172c-0.316,0.129-0.191,0.898-0.129,2.473
c0.055,1.406,0.039,2.109-0.059,2.289c-0.074,0.141-0.445,0.559-0.816,0.922c-0.371,0.359-0.828,0.863-0.883,0.863
c-0.09-1.691-0.234-5.34-0.234-5.34l-5.949-0.262c0,0,1.219-1.445,1.734-1.727c0.27-0.145,0.691-0.16,2.18-0.094
c1.02,0.043,2.387-0.043,2.508-0.09c0.445-0.172-0.484-0.324-1.797-0.41c-0.879-0.063-1.105-0.039-2.078-0.184l0.867-0.891
l0.648-0.648l1.898,0.063c1.148,0.039,2.004,0.031,2.137-0.043c1.121-0.219,0.07-0.477-1.211-0.477
c-1.25-0.004-1.957-0.004-1.957-0.281s1.398-1.547,1.797-1.629c0.207-0.043,1.223-0.086,2.262-0.094
c1.785-0.016,2.434-0.039,2.332-0.336s-1.281-0.211-2.07-0.246c-2.184,0-2.285-0.086-0.789-1.391l0.723-0.633l1.367,0.039
c2.066,0.055,3.066-0.027,3.066-0.223c0-0.176-1.344-0.348-2.484-0.348c-0.684,0-1.238,0.012-1.238,0.012
c0.508-0.664,1.055-1.203,1.652-1.793l1.848-0.035c1.344,0.02,2.172,0.07,2.195-0.176s-0.484-0.242-1.102-0.246
c-0.84-0.004-1.832-0.078-1.965-0.211c-0.141-0.141,0.121-0.535,0.707-1.059L106.902,99.012z M50.406,99.074
c15.961,26.074,10.2,54.25-7.597,71.789l-0.524-3.422c16.805-20.435,19.739-41.531,6.145-66.355L50.406,99.074z M80.094,102.574
c-2.867,4.313-7.25,8.563-8.902,12.078c-0.34,0.398-0.45,1.289-0.977,1.469c-0.262,0-0.348-0.496-0.281-1.648
c0.051-0.867,0.129-1.156,0.551-2.004c2.261-4.125,4.882-7.094,7.773-11.016L80.094,102.574z M80.762,102.992l2.652,0.168
c-0.59,1.875-1.383,3.211-2.32,4.43c-1.203,1.559-2.648,3.129-4.332,5.047c-2.441,2.781-3.664,5.609-3.551,6.852
c-0.609,0.645-1.031,1.086-1.808,1.746l-1.543-1.422C71.004,113.938,76.551,108.539,80.762,102.992L80.762,102.992z
M113.172,105.379l0.859,0.051c2.938,0.172,4.77,0.352,4.875,0.48c0.066,0.078,0.152,0.527,0.195,1c0.063,0.715,0,1.191-0.375,2.898
c-0.25,1.125-0.527,2.121-0.621,2.215c-0.336,0.344-0.473,0-0.629-1.594c-0.094-0.961-0.133-1.664-0.258-1.586
c-0.063,0.039-0.195,1.07-0.156,1.84c0.098,2.008,0.086,2.496-0.539,3.102c-1.09,1.059-1.148,0.953-1.23-0.93
c-0.035-0.777-0.223-1.914-0.277-1.969c-0.234-0.238-0.313,0.844-0.316,2.672v1.949l-0.52,0.563
c-0.676,0.734-0.895,0.844-1.145,0.598c-0.152-0.156-0.094-0.488-0.094-1.602c0-1.305-0.23-2.059-0.477-1.809
c-0.047,0.047-0.059,1.313-0.063,2.41c-0.004,1.102-0.016,2.074-0.031,2.16c-0.039,0.266-1.277,1.512-1.5,1.512
c-0.258,0-0.469-1.438-0.469-2.613c0-0.781-0.164-0.922-0.332-0.488c-0.039,0.105-0.074,1.207-0.074,2.195v1.793l-0.727,0.75
c-0.973,1.008-1.129,0.949-1.133-0.43c0-1.184-0.082-1.813-0.32-1.813c-0.137,0-0.168,0.563-0.168,1.895
c0,0.914-0.063,1.82-0.133,2.012c-0.074,0.191-0.391,0.613-0.707,0.934c-0.316,0.324-0.645,0.59-0.723,0.59
c-0.137,0-0.328-1.125-0.277-1.609c0.012-0.102,0.012-0.809,0-1.574c-0.023-1.82,0.102-1.746-2.809-1.836
c-3.414-0.105-3.465-0.129-2.438-1.121c0.977-0.945,0.84-0.91,3.102-0.758c1.816,0.121,2.035,0.113,2.219-0.07
c0.113-0.109,0.176-0.23,0.141-0.266s-0.727-0.098-1.539-0.145c-2.25-0.125-2.445-0.285-1.492-1.238l0.535-0.539h2.301
c1.555,0,2.609-0.07,2.668-0.16c0.148-0.242-0.469-0.305-1.945-0.391c-0.793-0.047-1.539-0.109-1.656-0.145
c-0.375-0.113-0.238-0.492,0.398-1.082l0.609-0.574h2.031c1.883,0,2.805-0.121,2.805-0.371c0-0.176-0.371-0.246-1.34-0.258
c-1.367-0.02-2.281-0.152-2.344-0.336c0.336-0.648,0.797-1.008,1.336-1.547l2.063,0.07c2.078,0.074,2.73,0,2.73-0.363
c0-0.188-0.891-0.324-2.043-0.254c-0.738,0.043-1.637-0.133-1.637-0.395c0-0.113,0.297-0.504,0.664-0.867l0.668-0.656l2.023,0.082
c1.129,0.043,2.332,0.035,2.422-0.027c0.336-0.23-0.445-0.41-1.715-0.484c-1.957-0.113-2.086-0.266-1.051-1.246L113.172,105.379z
M42.656,106.461c10.477,18.762,8.911,36.438-2.25,51.48c-1.281-0.746-2.644-1.152-4.105-1.31l-0.281-45.3L42.656,106.461z
M117.594,113.793c0.207-0.031,0.203,0.313,0.145,1.039c-0.047,0.586-0.133,1.199-0.195,1.363c-0.121,0.316-0.215,0.328-1.234,0.184
c-1.16-0.164-1.141-0.375,0.133-1.625C117.055,114.145,117.406,113.82,117.594,113.793L117.594,113.793z M61.344,114.637
c0,0,1.379-0.008,2.066,0.016c0,0,0.11,3.512,0.391,5.535l4.492,0.215l-1.746,1.813l-3.402-0.105
C63.145,122.109,62.11,117.125,61.344,114.637L61.344,114.637z M114.855,116.758c0.633-0.008,2.293,0.273,2.484,0.469
c0.152,0.152,0.156,0.527,0.023,2.793c-0.047,0.816-0.098,2.57-0.109,3.898c-0.02,2.402-0.02,2.41-0.297,2.449
c-0.363,0.052-0.406-0.073-0.504-1.656c-0.059-0.895-0.18-1.672-0.285-1.707c-0.117-0.039-0.105,0.746-0.105,2.371v2.098
c-0.359,0.297-0.691,0.691-1.102,0.898c-0.25,0-0.383-0.395-0.508-1.493c-0.125-1.089-0.246-1.858-0.391-1.616
c-0.035,0.059-0.02,1.245,0.051,2.219l0.125,1.776l-0.789,0.794c-0.809,0.816-0.91,0.879-1.039,0.672
c-0.301-0.809,0.125-4.513-0.602-4.98c-0.117-0.063-1.086-0.09-2.211-0.137c-1.895-0.078-2.969-0.109-3.234-0.34
c-0.16-0.137,0.734-1.176,1.195-1.383c0.332-0.152,0.707-0.16,2.27-0.055c1.809,0.121,2.723,0.105,2.48-0.125
c-0.063-0.059-0.984-0.195-1.703-0.266c-1.457-0.145-1.969-0.293-1.969-0.563c0.34-0.602,0.754-0.953,1.254-1.469l0.703,0.074
c0.387,0.039,1.301,0.137,2.035,0.219c0.73,0.086,2.207,0.098,1.609,0.047c0.195-0.191-0.559-0.391-1.605-0.52
c-1.977-0.246-2.156-0.469-1.16-1.449l0.609-0.598c1.035,0.078,2.086,0.105,3.113,0.262c0.754,0.121,1.16,0.078,1.16-0.176
c0-0.18-0.375-0.172-1.285-0.352c-0.328-0.066-2.027-0.043-2.055-0.543C113.414,117.816,114.133,116.805,114.855,116.758
L114.855,116.758z M68.84,121.016c0.301-0.016,0.316,0.719,0.348,2.656c0.035,2.125,0.07,2.492,0.25,2.671
c0.176,0.177,0.609,0.235,2.476,0.328c2.856,0.146,2.93,0.188,1.922,1.157c-0.699,0.675-0.73,0.59-1.308,0.523
c-1.508-0.176-3.715-0.138-3.801,0.004c-0.149,0.242,0.012,0.289,1.394,0.395c1.676,0.128,2.137,0.188,2.137,0.473
c0,0.125-0.285,0.491-0.633,0.82l-0.636,0.589l-1.766-0.069c-1.859-0.074-2.817-0.103-2.817,0.151c0,0.153,1.063,0.321,2.747,0.489
c0.437,0.043,0.886,0.047,0.91,0.121c0.058,0.183-0.793,1.238-1.317,1.629c-0.425,0.316-0.57,0.141-2.433,0.102
c-1.907-0.043-2.071,0.03-1.715,0.383c0.086,0.082,0.398,0.094,1.109,0.141c1.164,0.082,1.727,0.257,1.727,0.547
c0,0.277-1.051,1.363-1.543,1.598c-0.434,0.202-0.621,0.215-1.582,0.082c-0.758-0.109-0.903-0.266-0.883-0.977
c0.008-0.321,0.066-2.395,0.125-4.614c0.113-4.28,0.148-4.499,0.715-4.417c0.242,0.035,0.297,0.324,0.363,1.777
c0.07,1.547,0.133,1.852,0.391,1.852c0.094,0,0.109-0.613,0.051-2.102c-0.094-2.313-0.098-2.656,0.605-3.328
c0.316-0.297,0.563-0.535,0.711-0.32c0.301,0.914,0.215,1.91,0.305,2.825c-0.012,0.92,0.347,1.112,0.429,0.233
c-0.039-1.391-0.05-2.637-0.058-4.125l0.855-0.852C68.371,121.309,68.66,121.027,68.84,121.016L68.84,121.016z M63.274,122.75
c0.343-0.059,2.254-0.027,2.531,0.039c-0.481,0.758-1.504,1.746-2.203,2.184C63.426,124.98,63.242,123.129,63.274,122.75
L63.274,122.75z M117.398,126.953l0.406,2.855l-3.121-0.211L117.398,126.953z M75.352,127.414c0.019,0,0.039,0.004,0.054,0.007
c0.223,0.091,0.29,0.642,0.379,3.293c0.043,1.25,0.129,2.228,0.204,2.321c0.089,0.109,0.48,0.16,1.203,0.16
c0.586,0,1.695,0.039,2.461,0.082c1.668,0.098,1.711,0.168,0.718,1.147l-0.672,0.664l-2.093-0.082c-2.145-0.089-2.5-0.054-2.5,0.243
c0,0.199,0.363,0.296,1.05,0.277c0.274-0.008,0.954,0.031,1.516,0.082c1.254,0.117,1.277,0.211,0.344,1.219l-0.672,0.723
l-0.656-0.091c-1.051-0.144-3.809-0.108-3.969,0.052c-0.258,0.258,0.078,0.366,1.332,0.445c1.949,0.117,2.289,0.175,2.289,0.398
c0,0.104-0.273,0.473-0.609,0.809l-0.606,0.605l-2.476-0.129c-1.735-0.027-2.328,0.004-2.368,0.112
c-0.066,0.196,0.219,0.259,2.008,0.442c1.719,0.18,1.969,0.355,1.317,1.168c-0.719,0.89-0.989,0.992-2.34,0.863
c-1.488-0.145-3.012-0.148-3.231-0.008c-0.343,0.215,0.008,0.359,1.067,0.441c1.601,0.117,2.539,0.289,2.539,0.523
c0,0.266-0.531,0.944-1.047,1.34l-0.422,0.32l-1.828-0.195c-1.82-0.191-2.754-0.099-2.492,0.164c0.074,0.074,0.754,0.18,1.504,0.233
c1.375,0.103,2.054,0.278,2.054,0.563c0,0.086-0.347,0.5-0.777,0.922c-0.43,0.429-0.918,0.715-0.918,0.715l-5.629-0.504
c0,0-0.289-1.004,0.278-3.735c0.507-2.461,0.718-3.015,0.96-2.558c0.071,0.129,0.133,0.726,0.18,1.133
c0.113,0.988,0.356,1.609,0.504,1.609c0.16,0,0.16-0.586-0.051-1.969c-0.297-1.923-0.332-2,0.403-2.773
c0.625-0.664,0.98-0.821,1.179-0.52c0.055,0.086,0.129,0.957,0.203,1.691c0.133,1.285,0.207,1.582,0.375,1.414
c0.11-0.109,0.188-0.477,0.071-2.387l-0.153-1.855l0.825-0.84c0.754-0.766,0.839-0.821,0.992-0.621
c0.101,0.132,0.219,0.934,0.273,1.882c0.082,1.407,0.192,1.868,0.399,1.664c0.097-0.097,0.047-3.289-0.055-4.026
c-0.066-0.48-0.035-0.556,0.574-1.238c0.727-0.813,1.11-1.153,1.309-1.156c0.262-0.004,0.406,0.796,0.406,1.859
c0,1.137,0.09,1.586,0.195,1.729c0.274,0.368,0.305-0.918,0.243-2.183l-0.075-2.313l0.75-0.75c0.711-0.712,0.766-0.742,0.969-0.544
c0.164,0.164,0.152,0.56,0.219,1.728c0.097,1.613,0.414,2.397,0.508,1.277c0.047-0.255,0.039-0.746-0.016-1.098
c-0.059-0.352-0.102-1.148-0.102-1.766c0.004-0.945,0.047-1.199,0.278-1.57C74.063,128.289,75.043,127.445,75.352,127.414
L75.352,127.414z M107.875,129.175c0,0,1.258,1.075,1.258,1.38c0,0.137-0.5,0.727-1.172,1.391c-1.242,1.219-1.359,1.426-1.504,2.734
c-0.055,0.488-0.301,1.137-0.875,2.289c-0.441,0.887-1.074,1.918-1.074,1.918c-1.984,2.37-3.855,4.543-7.332,9.547
c-0.199,0.457-0.211,0.918-0.414,1.301c-0.156,0.285-0.508,0.516-0.66,0.582c-0.23,0.094-0.688,0.379-1.023,0.633
c-1.297,0.992-2.133,2.297-2.512,3.922c-0.203,0.875-0.324,1.664-0.68,4.371c-0.148,1.113-0.637,3.051-0.637,3.051
c-7.469-0.105-14.465,1.188-20.699,4.707L107.875,129.175z M117.859,130.324l1.664,7.551l-1.715-0.036l-0.172-5.479l-5.344-0.512
l1.91-1.848L117.859,130.324z M109.75,131.016c0.457,0.465,1.027,0.977,1.441,1.484c-1.426,4.777-5.953,10.977-10.445,17.121
l-3.297-0.359c-0.059-0.134,4.563-6.578,6.777-9.02c0.84-1.02,1.414-1.989,2.164-3.492c0.273-0.543,0.746-1.95,1.113-3.418
C108.281,132.395,109.754,131.031,109.75,131.016L109.75,131.016z M111.523,132.691l2.492,2.522l0.609,35.755
c-3.844-3.016-8.367-5.246-13.195-6.945l0.84-1.922l0.93-1c3.285-3.551,2.551-7.375,0.055-10.078
c3.043-4.438,5.797-7.742,8.117-12.074l-0.031-2.969C111.313,133.242,111.523,132.691,111.523,132.691L111.523,132.691z
M81.731,134.184c0.261-0.027,0.293,0.633,0.359,2.508c0.063,1.754,0.137,2.582,0.254,2.766c0.156,0.246,0.305,0.266,2.371,0.328
c2.184,0.066,2.641,0.129,2.641,0.363c0,0.065-0.282,0.402-0.625,0.746l-0.621,0.625l-1.946-0.031
c-1.035,0.031-2.261,0.012-2.293,0.043c-0.172,0.156,0.477,0.375,1.422,0.379c0.59,0,1.528,0.105,1.637,0.145
c0.367,0.141,0.195,0.508-0.606,1.277l-0.8,0.773l-1.77-0.035c-0.969-0.02-2.152,0.012-2.305,0.062
c-0.535,0.177-0.269,0.325,0.622,0.337c1.484,0.02,2.511,0.145,2.554,0.375c0.02,0.113-0.254,0.523-0.617,0.918l-0.664,0.707
l-2.598-0.109c-2.457,0.019-2.789,0.199-0.738,0.406c0.781,0.078,2.016,0.27,2.063,0.277c0.043,0.008,0.113,0.102,0.152,0.207
c0.086,0.223-0.902,1.339-1.43,1.609c-0.273,0.141-0.461,0.152-0.933,0.043c-0.551-0.125-2.934-0.102-3.188,0.051
c-0.215,0.129,0.25,0.277,0.91,0.289c0.996,0.023,2.184,0.309,2.184,0.547c0,0.195-0.504,0.82-1.043,1.289
c-0.246,0.215-0.836,0.023-2.481,0.074c-1.125,0.039-1.875,0.144-1.875,0.219c0,0.066,0.559,0.289,1.274,0.339
c0.711,0.052,1.687,0.22,1.754,0.286c0.168,0.168-1.098,1.66-1.098,1.66l-5.402-0.074l-0.5-5.723l0.461-0.531
c1.035-1.191,1.258-1.02,1.465,1.121c0.152,1.57,0.265,2.051,0.492,1.824c0.082-0.086,0.047-0.98-0.035-2.297
c-0.071-1.086-0.129-2.074-0.129-2.199c0-0.297,1.23-1.586,1.468-1.543c0.239,0.047,0.372,0.582,0.497,2.047
c0.105,1.203,0.16,1.535,0.398,1.297c0.109-0.114,0.125-0.743,0.016-2.266l-0.149-1.992l0.524-0.617
c1.046-1.243,1.253-1.105,1.378,0.91c0.086,1.359,0.219,2.078,0.469,2.078c0.086,0,0.086-1.021,0.035-2.555l-0.078-2.305
l0.657-0.664c0.359-0.363,0.726-0.661,0.808-0.661c0.258,0,0.402,0.578,0.563,1.946c0.179,1.531,0.238,1.793,0.386,1.645
c0.063-0.063,0.051-0.988-0.035-2.18l-0.18-2.281l0.793-0.809c0.442-0.441,0.883-0.789,0.981-0.77
c0.238,0.047,0.394,0.737,0.414,1.715c0.016,0.91,0.172,1.695,0.375,1.897c0.102,0.099,0.129-0.461,0.105-2.089
c-0.039-2.504-0.105-2.695,1.024-3.872C81.399,134.398,81.594,134.195,81.731,134.184L81.731,134.184z M110.902,135.207l0.023,3.496
c-1.402,3-4.641,7.395-7.922,12.109l-1.715-0.926C105.398,144.503,108.832,139.484,110.902,135.207L110.902,135.207z
M64.008,136.305c0.074,0,0.16,0.004,0.258,0.008c0.887,0.051,0.91,0.358,0.086,1.129c-0.348,0.324-0.738,0.582-0.891,0.582
c-0.254,0-0.269-0.039-0.187-0.703C63.367,136.5,63.469,136.309,64.008,136.305L64.008,136.305z M117.527,138.828l2.418,2.379
l0.609,25.609l-2.547,4.152L117.527,138.828z M120.559,142.203c2.184,5.132,4.449,9.949,6.961,13.852l-6.473,9.137L120.559,142.203z
M98.789,150.184c2.973-0.043,5.715,2.313,6.059,4.707c0.648,2.746-0.766,5.707-3.086,6.612c-0.813,0.293-1.285,0.313-1.285,0.313
c-0.281-1.656-0.16-3.254-0.535-4.938c0,0-1.395,1.841-2.176,2.481c-0.406,0.226-0.59,0.285-0.539-0.246
c0.027-0.93,0.102-2.996,0.102-2.996l-3.438,3.559c0,0-0.281-0.387-0.613-1.273c-1.078-2.891,0.324-5.906,2.535-7.293
C96.781,150.473,97.797,150.195,98.789,150.184L98.789,150.184z M144.523,149.969l0.066,3.129
c-5.395,4.184-13.09,12.996-19.684,24.484L122,178.805C126.473,168.113,135.918,157.227,144.523,149.969L144.523,149.969z
M144.582,154.082l0.059,4.668c-4.762,4.574-8.898,9.305-12.496,15.387c-2.102,1.012-5.996,2.93-5.996,2.93
C125.66,176.945,136.754,159.68,144.582,154.082L144.582,154.082z M96.563,158.078c0.215-0.004,0.207,0.418,0.137,1.027
c-0.152,1.375-0.316,1.875-0.82,2.547c-1.742,2.058-4.512,4.859-4.891,7.461c-0.191,1.394,0.895,2.695,1.961,2.563
c3.316-0.414,3.672-6.305,3.953-9.212c0.117-0.718,0.168-1.323,0.289-1.55c0.699-0.891,1.449-1.762,2.391-2.465l0.406,4.504
l1.867-0.625c-5.266,7.156-3.754,7.605-6.531,10.539c-2.582,2.722-7.589-0.379-6.309-4.523c1.117-2.785,2.84-5.582,3.305-8.57
c0.125-0.887,0.199-1.5,0.199-1.5l1.199,2.496C94.328,160.168,96.105,158.184,96.563,158.078L96.563,158.078z M144.781,159.621
l-0.012,3.214c-2.457,2.767-4.578,4.892-7.086,8.711l-3.984,1.817C136.301,168.41,140.57,163.773,144.781,159.621L144.781,159.621z
M96.094,162.457c0,0,0.266,1.5-0.316,4.227c-0.277,1.293-1.52,5.063-3.488,4.176c-1.668-1.478,0.367-4.211,1.391-5.504
C94.473,164.43,95.332,163.426,96.094,162.457L96.094,162.457z M90.848,162.844l-1.086,2.324
c-9.762,0.035-19.242,3.527-27.68,10.656l-2.136-0.699C68.887,166.668,79.969,162.559,90.848,162.844L90.848,162.844z
M101.113,164.628c11,3.685,16.082,9.06,20.242,14.7l-1.738,0.891c-4.363-5.645-9.746-10.809-19.766-13.793L101.113,164.628z
M88.508,168.105l-0.469,1.992c-6.16,0.184-12.664,2.371-18.988,6.762l-2.281-0.363C73.137,171.5,80.406,168.648,88.508,168.105
L88.508,168.105z M116.664,181.559l-1.953,0.922c-5.832-7.563-11.105-9.719-17.094-11.646l0.645-1.679
C106.313,171.293,112.219,175.378,116.664,181.559L116.664,181.559z M35.356,172.641l0.168,20.184l-1.403-0.281l-0.203-19.52
L35.356,172.641z M32.102,173.734c-2.68,10.039-0.602,12.641,0.367,18.5l-2.219-0.356c-2.16-5.933-2.383-11.335-0.562-17.64
L32.102,173.734z M99.535,175.273c0.168,0.16-0.137,0.656-0.551,0.897c-0.398,0.239-0.313,0.2-0.949-0.03
c-0.625-0.223-1.418-0.813-1.418-1.035C97.074,175.113,99.137,175.089,99.535,175.273L99.535,175.273z M101.426,175.418
c0.367,0.042,1.43,0.023,1.496,0.355c0.023,0.199-0.395,0.52-1.246,1.102c-1.293,0.887-1.734,1.059-2.113,0.641
c-0.359-0.398-0.254-0.813,0.352-1.371C100.504,175.602,100.844,175.414,101.426,175.418L101.426,175.418z M57.231,175.637
c0.742,0,2.07,0.918,2.871,1.98c0.808,1.27,1.742,2.574,2.496,3.859c1.715,2.922,3.035,5.883,4.141,8.918
c2.902,7.211,4.601,14.207,6.015,21.155c-0.027,0.587-0.535,0.575-0.953,0.435c-0.215-0.066-0.43-0.211-0.477-0.324
c-0.597-1.7-0.804-3.441-1.261-5.148c-1.145-4.273-1.555-6.723-3.758-12.746c-1.145-3.125-2.801-7.477-4.609-10.824
c-1.161-2.141-2.504-4.125-4.243-5.875c-0.461-0.461-1.035-0.879-1.035-0.969C56.418,175.801,56.707,175.637,57.231,175.637
L57.231,175.637z M104.246,175.871c0.688,0.168,2.348,0.363,1.719,0.91c-2.332,0.898-3.086,1.871-4.324,2.859
c-0.188,0-0.922-0.914-0.922-1.138C101.719,177.27,102.984,176.746,104.246,175.871L104.246,175.871z M60.602,175.878
c0.976-0.034,1.929,1.224,2.379,2.021c3,4.41,5.566,10.699,7.675,16.863c2.274,6.637,3.715,13.02,4.344,17.547
c-0.054,0.141-0.336,0.191-0.66,0.188c-0.613-0.004-0.699-0.145-0.855-0.633c-1.563-7.488-3.664-15.219-6.204-21.781
c-1.363-3.5-2.914-7.008-5.089-10.536c-1.485-2.175-2.325-3.315-2.262-3.487c0.047-0.113,0.289-0.172,0.578-0.172
C60.539,175.882,60.571,175.878,60.602,175.878L60.602,175.878z M53.903,176.007c1.316-0.004,3.492,1.56,4.968,3.563
c3.133,4.293,4.926,9.312,6.785,14.18c2.137,5.578,3.68,11.777,4.598,16.66c0.156,0.699,0.414,1.004-0.246,1.222
c-1-0.284-0.977-0.257-1.262-1.472c-0.386-1.305-0.507-2.625-0.879-3.953c-2.109-7.602-4.476-16.036-8.406-22.898
c-4.719-7.556-6.09-5.453-6.851-6.785C52.668,176.223,53.196,176.012,53.903,176.007L53.903,176.007z M65.258,177.855
c4.059,7.055,5.844,11.391,7.078,15.651c1.871,6.457,4.086,11.618,5.059,19.161c0,0-1.067,0.02-1.492-0.156
c-0.18-0.177-0.368-0.93-0.477-1.548c-0.977-5.323-2.559-11.625-4.246-16.593c-1.816-5.523-3.981-10.782-7.172-15.859
c-0.84-1.367-1-1.906-0.484-1.93C64.438,176.645,64.84,177.348,65.258,177.855L65.258,177.855z M107.516,177.102
c0.188,0,0.262-0.027,0.605,0.09c0.539,0.187,0.711,0.305,0.738,0.516c0.047,0.309-0.285,0.41-1.324,0.652
c-0.816,0.191-2.41,1.043-3.516,1.961c-0.512,0.43-0.957,0.887-1.078,0.887c-0.254,0-0.863-0.668-0.863-0.95
C102.926,178.964,105.625,177.188,107.516,177.102L107.516,177.102z M51.629,177.273c3.434,0.104,6.121,4.094,7.527,6.781
c0.551,1.055,1.262,2.198,1.801,3.402c2.785,6.227,5.149,14.043,6.305,19.035c0.555,2.402,1.199,4.164,0.973,4.633
c-0.286,0.18-0.883,0.043-1.157-0.191c-0.179-0.148-0.273-0.699-0.586-1.699c-0.8-2.574-2.125-9.926-5.582-17.652
c-0.078-0.172-1.75-5.063-4.64-9.7c-1.176-1.886-3.082-3.073-4.817-3.461c-0.871-0.14-1.132-0.039-1.078-0.511
c0.035-0.297,0.129-0.379,0.598-0.528C51.18,177.316,51.399,177.281,51.629,177.273L51.629,177.273z M73.09,193.21
c-0.234,0-0.441-0.448-0.601-1.183c-0.075-0.363-0.18-0.621,0.496-1.047c4.261-4.527,0.597-11.181-4.754-11.758
c-0.5-0.074-1.137-0.078-1.325-0.148c-0.273-0.153-0.769-1.114-0.988-1.5C73.317,175.777,81.168,186.371,73.09,193.21L73.09,193.21z
M109.945,178.41c0.438,0.113,1.398,1,1.277,1.195c-0.145,0.233-0.973,0.242-2.168,0.453c-2.543,0.448-3.637,2.109-4.82,3.34
c-0.262,0.082-0.496-0.103-0.73-0.504c-0.172-0.293-0.313-0.648-0.313-0.785C104.516,180.184,108.055,178.234,109.945,178.41
L109.945,178.41z M49.887,178.98c2.164,0,4.324,1.047,5.543,2.758c4.441,6.644,9.43,21.414,10.617,28.703
c-0.121,0.234-0.433,0.258-1.051,0.078c-0.343-0.099-0.3-0.207-0.519-0.883c-1.395-5.309-2.922-10.466-4.719-15.191
c-0.93-2.434-2.019-4.817-3.043-6.957c-0.652-1.352-1.957-3.758-2.453-4.496c-1.168-2.191-3.527-2.836-5.012-2.129
c-1.539,0.836-1.734,2.82-0.562,3.703c0.972,0.68,2.508,0.57,3.07-0.484c0.191-0.372,0.129-0.832,0.008-0.95
c-0.121-0.112-0.34-0.081-0.383,0.043c0.078,1.289-1.57,1.376-2.289,0.864c-1.148-0.855-0.383-3.575,2.746-2.48
c1.211,0.637,1.613,1.836,1.043,3.112c-0.586,1.306-1.496,1.899-2.898,1.892c-1.704-0.031-3.633-1.228-3.645-3.371
c0.004-1.606,0.746-2.938,2.137-3.828C48.992,179.031,49.196,178.98,49.887,178.98L49.887,178.98z M68.207,179.977
c5.246,0.242,7.66,6.418,4.899,10.148c-0.703,0.891-1.149,0.727-1.45-0.422c-0.148-0.473-0.312-0.543,0.11-0.91
c2.461-2.355,0.441-6.934-3.61-7.118c0,0-0.757-1.101-0.832-1.687C67.594,179.891,67.957,179.977,68.207,179.977L68.207,179.977z
M111.973,180.402c0.398,0.098,1.242,0.906,1.242,1.191c0,0.336-0.164,0.273-1.098,0.113c-2.207-0.395-4.418,0.882-6.266,3.668
c-0.895,1.671-1.004,1.516-1.477,0.074c-0.242-0.742-0.246-0.723,0.691-2.09C106.82,181.113,109.406,180.085,111.973,180.402
L111.973,180.402z M114.027,183.238c1.848,1.676,0.984,5.371-1.512,5.754c-2.199,0.254-4.156-2.125-2.77-3.746
c0.902-0.977,2.027-1.075,2.723-0.234c0.719,0.866,0.414,2.051-0.605,2.172c-0.121,0.043-0.219,0.137-0.219,0.207
c0,0.215,0.906,0.155,1.215-0.095c0.621-0.683,0.633-1.729,0.078-2.479c-0.492-0.66-1.539-1.188-2.379-0.844
c-1.48,0.527-2.988,2.534-3.852,5.063c-0.242,0.711-0.383,1.379-0.488,1.535c-0.211,0.324-0.195,0.316-0.391,0.191
c-0.172-0.109-0.484-1.656-0.484-2.246c0-0.449,0.383-1.634,0.895-2.645C107.844,182.891,111.445,180.891,114.027,183.238
L114.027,183.238z M69.02,182.488c2.148,0.129,3.851,3.172,2.914,5.293c-0.289,0.39-0.703,0.652-0.899,0.41
c-0.07-0.09-0.398-1.086-0.859-2.141c-0.457-1.055-0.879-2.087-1.008-2.344C68.828,182.977,68.578,182.48,69.02,182.488
L69.02,182.488z M54.418,184.253c2.449,4.336,4.496,9.31,6.192,14.165c1.324,3.781,2.41,7.492,3.035,10.773
c0.058,0.332,0.14,0.504-0.004,0.647c-0.242,0.243-1.41-0.354-1.41-0.354c-2.047-7.059-3.703-14.129-8.578-23.113
c0,0-0.211-0.359-0.266-0.59c-0.066-0.563,0.098-1.278,0.441-1.676C53.965,183.96,54.153,183.949,54.418,184.253L54.418,184.253z
M26.942,192.445c11.582,0.777,20.539,5.656,25.32,18.543c-1.699-0.957-10.32-7.574-25.188-8.449l-0.023-1.789
c10.656-0.086,21.051,5.46,20.836,5.378c-3.965-8.171-13.926-11.483-20.977-11.698L26.942,192.445z M107.277,195.05
c-0.73,1.146-0.699,1.099-1.051,2.082c0.043,0.321,0.102,2.321,0.148,3.485c0.063,1.484,0.102,2.133,0.219,2.273
c0.199,0.237,0.602,0.277,0.777,0.063c0.07-0.086,0.191-0.407,0.273-0.711c0.953-3.61,1.402-4.961,1.789-5.41
c0.254-0.329,0.34-0.297,1.387-0.176c2.363,0.207,3.164-2.606,1.621-3.738C110.379,191.77,108.188,193.695,107.277,195.05
L107.277,195.05z M109.766,195.816c-1.684,1.387-1.734,3.387-2.246,5.227c-0.273,1.238-0.66,1.891-0.816,0.023
c-0.289-2.59,0.074-4.523,1.199-6.047c0.691-1.117,1.836-1.871,2.859-1.941c2.211-0.157,2.438,1.593,1.82,2.535
C112.137,196.293,110.898,196.589,109.766,195.816L109.766,195.816z M30.004,196.652c0.836,0,1.508,0.672,1.508,1.508
c0,0.832-0.672,1.508-1.508,1.508c-0.832,0-1.508-0.676-1.508-1.508C28.496,197.324,29.172,196.652,30.004,196.652L30.004,196.652z
M34.813,197.684c0.742,0,1.347,0.602,1.347,1.344c0,0.746-0.605,1.351-1.347,1.351c-0.746,0-1.348-0.604-1.348-1.351
C33.465,198.285,34.067,197.684,34.813,197.684L34.813,197.684z M39.192,199.16c0.609,0,1.097,0.492,1.097,1.097
c0,0.606-0.488,1.099-1.097,1.099c-0.606,0-1.098-0.492-1.098-1.099C38.094,199.652,38.586,199.16,39.192,199.16L39.192,199.16z
M42.301,201.128c0.469,0,0.848,0.384,0.848,0.853c0,0.465-0.379,0.844-0.848,0.844s-0.848-0.379-0.848-0.844
C41.453,201.512,41.832,201.128,42.301,201.128L42.301,201.128z M31.41,203.835c-0.324,1.634-0.07,3.317,0.305,4.474
c0.859,2.496,0.469,6.965,0.469,6.965l-2.516,2.516c0.18-2.344,0.461-4.805,0.332-6.777c-0.09-1.305-0.683-2.527-0.836-3.841
c-0.14-1.214,0.075-3.644,0.075-3.644L31.41,203.835z M35.481,204.585l0.09,10.661l-8.606,8.336l-0.012-2.2l7.336-7.272
l-0.152-9.875L35.481,204.585z M56.699,228.891l-0.566,0.922h9.707l0.203-0.922H56.699z M69.262,228.891l-0.231,0.922h4.497
l0.148-0.922C73.676,228.891,71.313,228.895,69.262,228.891L69.262,228.891z M76.625,228.891l-0.144,0.922H93.16l-0.246-0.922
H76.625z M96.121,228.891l0.266,0.922h4.441l-0.367-0.922H96.121z M103.547,228.891l0.324,0.922h7.637l-0.633-0.922H103.547z
M103.547,228.891"/>
</svg>
