<?xml version="1.0" encoding="utf-8"?>
<!DOCTYPE svg PUBLIC "-//W3C//DTD SVG 1.1//EN" "http://www.w3.org/Graphics/SVG/1.1/DTD/svg11.dtd" [
<!ENTITY ns_svg "http://www.w3.org/2000/svg">
<!ENTITY ns_xlink "http://www.w3.org/1999/xlink">
]>
<svg version="1.1" id="Layer_1" xmlns="&ns_svg;" xmlns:xlink="&ns_xlink;" width="179.379" height="250.246"
viewBox="0 0 179.379 250.246" overflow="visible" enable-background="new 0 0 179.379 250.246" xml:space="preserve">
<path fill="#FFFFFF" d="M8.903,0.398h161.574c4.711,0,8.504,3.793,8.504,8.504v232.441c0,4.711-3.793,8.504-8.504,8.504H8.903
c-4.711,0-8.504-3.793-8.504-8.504V8.902C0.399,4.191,4.192,0.398,8.903,0.398L8.903,0.398z M8.903,0.398"/>
<path fill="none" stroke="#000000" stroke-width="0.7974" d="M8.903,0.398h161.574c4.711,0,8.504,3.793,8.504,8.504v232.441
c0,4.711-3.793,8.504-8.504,8.504H8.903c-4.711,0-8.504-3.793-8.504-8.504V8.902C0.399,4.191,4.192,0.398,8.903,0.398L8.903,0.398z
M8.903,0.398"/>
<path fill="#E2CF00" d="M112.605,21.535c0,0,20.234,29.25,27.098,34.441c0.504,0.238,8.965-1.379,8.965-1.379
c-4.336-10.383-7.125-21.125-4.313-33.164L112.605,21.535z M123.848,67.793c-13.949,3.938-27.871,7.641-42.996,1.223L64.336,84.973
c-0.137,0.41,21.403,9.688,21.742,8.672l-5.3,16.926L93,113.262l5.609-18.004c0,0,16.875-1.617,24.707-4.305
c5.953-2.043,12.113-3.527,17.43-7.965C129.762,76.387,123.836,67.715,123.848,67.793L123.848,67.793z M39.946,72.512
c-5.29-3.242-9.422,3.434-5.551,6.77c-0.453,1.945-0.61,4.844,1.277,6.117c1.731,1.098,4.961-0.039,5.426-0.027
c0.035,0,0.086,3.508-0.184,3.496c-0.5-0.016-2.39-1.625-3.558-1.977c-3.942-1.18-9.485-1.762-9.387-1.559
c0.164,0.34-0.98,1.148,3.418,3.91c1.633,1.023,6.793-0.133,10.902,1.164c2.504,0.793,4.965,2.105,6.325,1.449
c1.718-0.719,3.726-2.984,4.371-4.832c0.183-2.02-10.313,2.348-9.672,2.418l-0.035-4.066c4.23,0.465,8.046-2.598,3.89-7.855
C50.262,74.445,45.934,67.113,39.946,72.512L39.946,72.512z M57.563,91.113c-10.403,10.484-31.66,30.16-31.66,30.16l0.226,14.684
l20.77,18.582c1.644-19.727,12.855-38.141,23.531-47.352C71.41,104.387,59.824,92.094,57.563,91.113L57.563,91.113z M131.66,94.738
c-1.566,12.133-2.988,28.676-23.57,47.063c3.566,6.074,8.105,12.254,14.641,15.206c0.461,1.043,18.879-19.058,30.211-28.562
l-0.063-12.875L131.66,94.738z M38.91,97.344c-0.043,0.266-0.804,3.449-1,3.367c0.016,0.172,2.106-0.777,2.344-1.652
c0.207-0.766,0.688-1.805,0.719-1.949C40.5,93.828,39.61,96.156,38.91,97.344L38.91,97.344z M31.328,105.848
c-0.07,0.004-0.269,0.184-0.3,0.203c-0.411,0.266-1.149,4.414-0.891,4.836c0.125,0.203-0.414,1.684-0.035,2.219
c0.371,0.52,2.562,0.273,2.887-0.602c0.402-1.086,1.773-5.516,0.722-5.961C33.117,106.293,31.836,105.832,31.328,105.848
L31.328,105.848z M144.992,141c-0.34,1.527-0.27,1.984,0.414,2.281c1.191,0.523,1.727-0.11,2.684-2.602
c0.57-1.48,1.078-3.716,0.621-4.602C146.449,134.503,145.254,139.844,144.992,141L144.992,141z M89.27,137.406
c-0.723,0.004-1.418,0.063-2.063,0.211c-6.082,1.39-5.621,12.02-6.652,16.254c-19.106,2.727-24.16,4.027-29.395,6.175
c-8.136,3.345-10.714,5.384-12.871,7.067c1.356-0.156,15.961,13.461,16.711,15.383c-0.926-2.637,28.258-9.051,43.801-2.609
c1.906,0.684,16.426-14.091,15.969-15.738c1.883-3.301-18.305-7.008-20.852-9.07c-2.086-11.243,14.105-17.402,2.891-17.075
C94.77,138.063,91.852,137.382,89.27,137.406L89.27,137.406z M140.082,150.035c-0.359,0.425-0.773,0.73-1.191,1.148l-1.066,1.405
l0.777,1.255l1.988-2.191L140.082,150.035z M125.836,164.176c2.098-0.945,9.535-4.555,9.855-3.719l-0.156,3.609
c-1.141-0.371-8.484,0.844-4.238,8.426c-2.676,6.023,3.289,9.133,7.465,5.148c8.754,3.004,7.582-5.759,5.777-7.172
c1.422-2.212-0.367-6.918-1.258-6.934c0,0,7.641,1.718,6.895,0.359c-0.344-0.621-0.77-1.691-2.469-2.824
c-1.953-1.305-5.391-0.832-8.176-1.414c-2.973-0.621-4.887-1.684-7.387-1.836C128.371,158.164,124.852,161.477,125.836,164.176
L125.836,164.176z M40.707,192.605l-10.527,2.813c0,0,3.406,7.898,4.582,14.945c1.441,8.617,0.289,17.984,0.289,17.984l30.551,0.155
L40.707,192.605z M40.707,192.605"/>
<path fill="#D40000" d="M164.969,241.375c-4.023-1.398-4.105-3.93-4.242-7.156c-0.238-4.891-0.195-10.039,0.508-14.023
c0.266-1.215,0.41-1.832-0.797-2.262c-0.668-0.23-1.336-0.138-2.004-0.238v-3.016c1.27-0.07,2.445-0.066,3.516,0.566
c0.48,0.293,1.02,0.617,1.02,0.617c1.574-1.488,5.715-1.711,7.68,0.129c1.305,1.316,1.727,2.414,1.809,5.375
c0.063,2.188,0,2.336,0,2.336l2.27-0.016v2.938h-2.27c0,0,0.051,1.457,0,4.617c-0.039,2.461-0.086,4.07-0.258,5.242
C171.426,240.566,167.789,242.293,164.969,241.375L164.969,241.375z M169.32,236.32c0.789-2.106,0.461-10.246,0.461-10.246
c-3.387-1.301-4.824-3.344-6.203-4.793c0,0-0.574,9.039,0.109,13.902C164.313,239.223,167.957,239.824,169.32,236.32L169.32,236.32z
M169.34,222.628c0.184,0.028,0.395,0.04,0.422-0.039c0.262-0.729-0.191-3.789-0.957-4.405c-2.059-1.652-3.941,0-3.883,0.078
c0.973,1.32,2.113,2.77,3.586,3.913C168.789,222.41,169.023,222.582,169.34,222.628L169.34,222.628z M68.137,228.398
c-13.406-19.133-25.824-37.328-42.313-57.387c0,0,0.012-7.75,0.071-15.441l50.656,72.637L68.137,228.398z M115.059,203.402
c6.641-7.207,11.672-14.887,16.137-22.734c5.09,9.035,10.977,16.398,17.48,22.477c-6.375,6.449-12.16,13.824-16.738,23.094
C128.215,219.152,123.387,211.762,115.059,203.402L115.059,203.402z M159.133,201.085c2.836-2.968,5.273-6.292,7.563-9.804
c2.547,3.613,4.082,6.313,7.504,10.121c-2.938,3.109-5.41,6.238-7.422,9.637C164.355,207.18,161.828,203.589,159.133,201.085
L159.133,201.085z M95.27,197.507c-0.43-3.632-1.172-7.979-2.234-11.722l9.25-8.723C101.285,184.855,99.754,190.835,95.27,197.507
L95.27,197.507z M139.473,170.023c2.07,2.75-1.422,4.272-2.742,3.051C134.059,170.594,137.977,168.031,139.473,170.023
L139.473,170.023z M47.766,152.707c-1.535,0.984,2.758-23.973,14.543-36.871C69.477,136.367,56.828,147.875,47.766,152.707
L47.766,152.707z M105.898,152.617l-7.824-2.114l3.895-10.944c0,0,7.348,1.723,6.723,3.996
C106.652,150.953,105.898,152.617,105.898,152.617L105.898,152.617z M69.672,148.41c2.117-3.485,3.727-7.325,5.207-11.258
l11.129-1.539l-6.449,12.508L69.672,148.41z M116.836,133.051c-6.055-12.059,1.082-31.148,14.258-36.402
C130.621,108.879,126.824,121.266,116.836,133.051L116.836,133.051z M76.129,129.625c0.266-4.285-0.223-8.773-0.816-12.75
l27.546,3.672l0.961,11.542L76.129,129.625z M96.289,111.281c0.93-3.672,1.762-6.73,3.563-9.707
c2.008,0.063,10.141-1.273,9.105,0.309c-2.211,2.828-3.27,7.418-4.719,10.309C102.719,112.031,95.832,113.215,96.289,111.281
L96.289,111.281z M78.039,109.176c-2.785-0.98-6.593-1.258-8.074-3.41l2.899-9.184l8.582,2.633L78.039,109.176z M102.125,21.559
l6.727-0.063c0,0,32.32,41.352,44.434,57.441c-0.402,1.641,0.137,15.52,0.137,15.52C136.262,70.313,102.125,21.559,102.125,21.559
L102.125,21.559z M40.153,79.258c-1.809-1.941,1.066-3.66,2.261-1.926C43.465,78.859,41.106,80.281,40.153,79.258L40.153,79.258z
M76.414,72.477c0.106-9.582,6.899-20.957,6.828-20.664c-0.078-0.02,0.969,9.367,2.278,12.32
C85.164,64.652,76.735,73.078,76.414,72.477L76.414,72.477z M47.469,69.297c-5.27-10.07-11.602-17.703-17.113-23.051
c6.867-6.496,12.015-14.52,17.297-22.422c4.363,8.289,10.031,15.867,16.39,23.07C57.664,53.156,51.637,62.031,47.469,69.297
L47.469,69.297z M5.086,48.852c3.086-3.078,7.649-10.082,7.602-10.09c2.172,3.543,4.457,7.211,7.609,10.141
c-0.035-0.031-4.883,5.18-7.387,10.078C10.676,54.898,7.731,51.344,5.086,48.852L5.086,48.852z M4.649,26.574v-2.969h2.218
c0,0-0.023,0.242-0.007-3.805c0.027-5.66,0.308-7.398,1.441-8.844c3.047-3.895,8.641-2.699,10.109,2.156
c0.11,0.371,0.364,1.305,0.387,2.547c0.067,3.219,0.074,8.563-0.031,11.902c0.051,1.309-0.414,3.016-0.75,3.305
c0.16,1.191,2.031,1.43,3.203,1.336v3.105c0.008-0.016-1.188,0.113-2.598,0c-0.593-0.047-1.965-1.176-1.965-1.176
s-2.167,1.488-4.117,1.449c-6.371-0.133-5.664-8.09-5.644-8.996L4.649,26.574z M9.754,27.355c0,0,0.008,1.117,0.074,1.863
c0.227,2.469,1.836,3.746,3.438,3.309c0.801-0.25,1.269-0.734,1.269-0.734C13.172,29.77,11.551,28.066,9.754,27.355L9.754,27.355z
M15.68,15.012c-0.684-3.723-4.188-4.293-5.508-1.145c-0.238,0.566-0.433,5.051-0.433,5.051l0.027,5.297
c2.84,0.625,4.41,2.449,6.183,4.52C15.949,28.734,16.305,19.215,15.68,15.012L15.68,15.012z M15.68,15.012"/>
<path fill="#131F67" d="M24.567,19.805l-0.254,209.664l130.453,0.023l-0.043-209.348L24.567,19.805z M143.785,21.445
c-1.063,11.602-1.246,20.691,4.773,32.723c-1.09,1.141-9.281,1.465-11.859,2.813c-0.047,0.324,0.66,0.887,0.66,0.887
c2.703-1.254,13.23-2.398,13.23-2.398c-4.41-7.684-8.035-22.469-5.305-33.809l7.598,0.023l-0.047,55.863
c0,0,0.598,10.785,0.824,16.859c-4.047-5.23-9.414-12.531-12.918-17.957c-4.25-5.98-8.984-12.996-13.844-19.578
c-1.434-2.07-3.477-4.762-5.145-7.184c-2.617-3.742-4.781-6.645-7.496-10.676c-2.898-4.168-5.676-7.953-9.121-12.797
c-2.922-4.121-3.059-4.609-3.059-4.609L143.785,21.445z M93.867,21.66c4.93,8.563,13.746,11.461,15.965,12.039l1.293,1.887
c-10.398-2.039-15.969-8.715-18.582-12.84c-0.203-0.324-0.18-1.063-0.18-1.063L93.867,21.66z M88.992,21.66
c-1.363,3.234-3.269,5.09-5.078,7.051l0.063-2.082c0.058,0.133,2.707-2.809,3.621-4.969H88.992z M91.379,21.66
c0,0,0.039,0.555-0.125,1.008c-1.047,3.371-7.527,9.77-7.34,8.809l-0.066-1.648c-0.027,0.07,4.871-4.664,6.152-8.168H91.379z
M86.664,21.66c-0.504,0.941-2.39,3.785-2.558,2.996l0.164-2.996H86.664z M101.473,21.66c0.816,1.184,1.559,2.047,2.418,3.258
c0.16,0.23,0.258,0.504,0.219,0.605c-0.133,0.336-0.52,0.086-1.594-0.863c-1.758-1.563-2.957-3-2.957-3H101.473z M94.918,21.66
l1.594,0.004c3.297,5.477,9.211,8.391,11.258,9.027c0.547,0.602,1.137,1.703,1.367,1.949C103.613,31.145,97.426,26.477,94.918,21.66
L94.918,21.66z M98.789,21.637c1.758,2.535,4.508,4.313,6.059,5.523c0.832,0.652,1.934,1.988,1.832,2.254
c-3.453-1.09-7.488-4.918-9.344-7.754L98.789,21.637z M92.023,23.207l0.957,1.527c-2.324,3.832-5.239,7.285-9.125,10.008
l-0.024-2.004C88.246,29.563,90.153,26.367,92.023,23.207L92.023,23.207z M93.578,25.418c2.773,3.734,8.746,9.512,18.324,11.238
c0,0,0.543,0.492,1.336,1.574c1.008,1.371,1.023,1.422,1.156,3.668c0.09,4.113,1.426,9.691,2.75,13.199
c-0.164,0.875-0.316,1.32-1.961,3.539c-6.855,9.262-21.465,18.02-28.66,6.066c-2.399-3.828-2.633-11.172-2.785-15.75
c0,0,0.042-0.324,0.062-0.41c0.172-0.832,0.41-0.699,1.711-0.344c1.316,0.563,2.687,0.109,4.082-0.273
c1.586-0.641,1.719-0.145,0.187,1.285c-0.527,0.492-1.175,1.246-1.109,1.211c0.07-0.035,0.961-0.398,1.352-0.699
c1.222-0.93,1.511-0.574,1.058,0.449c-1.922,4.348-2.261,4.52,0.441,5.727c0.563,0.254,0.949,0.531,1.266,0.809
c1.848,1.742,1.184,0.805,0.668,0.004c-0.797-1.25-0.078-1.91,1.266-1.137c0.898,0.516,2.078,0.934,2.719,0.738
c1.242-0.406,1.621-1.77,1.254-3.27c-0.297-0.828-1.996-2.293-1.605-0.762c1.023-0.047,1.906,1.402,1.02,2.387
c-0.672,0.902-1.867,0.414-3.699-0.797c-1.012-0.762-2.242-0.371-2.195,0.563c0.031,0.629-0.859,0.484-1.438-0.316
c-0.321-0.445-0.102-1.727,0.5-2.938c3.801-7.641,0.598-15.047-5.98-12.957c-0.726,0.227-1.379,0.414-1.379,0.414l-0.035-2.922
C87.66,33.082,91.668,28.883,93.578,25.418L93.578,25.418z M97.422,39.133c-0.992,1.199-0.641,2.266,1.535,1.191
c1.773-0.875,2.02-0.977,3.953-1.047c2.746-0.102,5.207,0.773,8.254,2.641c2.02,1.238,2.313,1.332,1.766,0.559
C111.297,39.355,101.656,34.613,97.422,39.133L97.422,39.133z M88.102,39.492c1.906,0.477,3.734,1.734,3.414,2.258
c-0.113,0.188-0.227,0.223-0.469,0.098c-1.391-0.691-3.613-1.816-6.82-0.441c-0.356,0.152-0.551-0.086-0.551-0.512
c0.004-0.828,1.398-1.488,2.871-1.543C87.071,39.352,87.641,39.379,88.102,39.492L88.102,39.492z M99.164,41.914
c-1.137,0.59-1.523,0.902-2.008,0.641c-1.152-0.633-0.906-0.137-0.191,1.129c0.504,0.895,0.5,1.078,0.426,1.629
c-0.082,0.594-0.07,0.617,0.508,1.254c1.086,1.426,2.16,2.797,3.785,3.879c0.504,0.336,1.18,0.719,1.23,0.719
c0.16,0.008,0.102-0.121-0.188-0.402c-2.078-2-3.715-3.789-1.602-3.031c2.461,0.805,4.805-0.195,6.727-0.848
c0.781-0.242,1.605-0.445,1.809-0.445c1.773,0,2.195-0.738,1.059-1.863C106.883,40.27,103.699,39.258,99.164,41.914L99.164,41.914z
M108.27,42.719c0.793,0.734,1.211,1.133,1.133,1.32c-0.086,0.207-0.695-0.141-1.719-0.688c-2.059-1.098-4.395-1.355-7.313-0.512
c-2.262,0.652-1.594-0.387,0.93-1.359C103.32,40.547,106.105,40.824,108.27,42.719L108.27,42.719z M87.125,41.238
c1.727-0.027,3.531,0.539,4.734,1.578c0.84,0.723,0.227,0.891-1.141,0.328c-2.066-0.855-3.805-0.992-5.5-0.199
c-0.531,0.25-1.148,0.547-1.316,0.531c-0.282-0.191-0.403-0.75-0.157-1.145C84.426,41.664,85.778,41.258,87.125,41.238
L87.125,41.238z M115.633,41.832c0.129,0.004,0.32,0.207,0.605,0.605c0.516,0.727,0.535,1.086,0.105,2.355
c-0.523,1.555-0.73,1.301-0.863-0.863C115.395,42.523,115.391,41.82,115.633,41.832L115.633,41.832z M117.352,44.172
c0.195-0.027,0.426,0.32,0.793,1.039c0.258,0.504,0.199,0.652-0.605,3.004c-0.336,0.98-0.652,1.766-0.66,1.773
c-0.246,0.195-0.215,0.176-0.32,0.043c-0.574-0.734-0.531-2.16-0.039-3.871C116.895,44.867,117.098,44.207,117.352,44.172
L117.352,44.172z M101.762,44.352c0.063-0.008,0.449,0.078,0.449,0.078c-0.043,3.48,2.648,2.777,3.008,0.305
c0,0,0.664-0.066,0.766,0.098c0.316,0.52-0.422,2.008-1.531,2.496c-0.809,0.359-1.906,0.27-2.563-0.332
c-0.184-0.34-0.742-1.637-0.637-2.172C101.383,44.512,101.574,44.367,101.762,44.352L101.762,44.352z M100.16,44.758
c0.027-0.004,0.051-0.004,0.082,0c0.262,0.012,0.453,0.082,0.559,0.402l0.578,1.77c-0.426,0.508-2.039-0.52-2.035-1.293
C99.348,45.105,99.746,44.777,100.16,44.758L100.16,44.758z M89.215,44.754c0.406-0.039,0.551,0.004,0.598,0.383
c0.136,1.152-1.012,2.398-2.504,2.469c-1.442,0.16-2.219-0.961-2.176-2.051c0.004-0.828,0.719-0.934,0.797-0.277
c0.226,1.895,1.844,2.004,2.586,0.957C88.793,45.824,88.731,44.816,89.215,44.754L89.215,44.754z M106.926,45.137
c0.113-0.004,0.27,0.039,0.492,0.117c1.488,0.477,1.531,0.703,0.258,1.164c-1.52,0.547-1.617,0.617-1.262-0.441
C106.613,45.387,106.672,45.148,106.926,45.137L106.926,45.137z M91.156,45.305c1.102,0.066,1.195,1,0.223,1.313
c-1.441,0.637-1.93,0.598-1.371-0.344C90.313,45.605,90.586,45.316,91.156,45.305L91.156,45.305z M84.254,45.641
c0.133,0,0.285,0.051,0.445,0.168c0.168,0.5,0.45,0.887,0.668,1.402c-0.226,0.227-0.765,0.223-1.109-0.051
C83.567,46.613,83.684,45.645,84.254,45.641L84.254,45.641z M118.93,46.719c0.43,0.004,0.863,0.68,1.008,1.188
c-1.496,1.922-1.262,5.512-1.609,6.594c-0.301,0.883-0.398,0.121-1.23-2.164c-0.336-0.922,1.355-5.504,1.746-5.605
C118.875,46.723,118.902,46.719,118.93,46.719L118.93,46.719z M120.461,48.688c0.332,0.191,0.785,0.629,0.863,1.316
c0.047,0.398-0.148,0.926-0.277,1.453c-0.301,1.246-0.711,3.598-0.855,5.773c-0.063,0.926-0.063,1.762-0.102,1.84
c-0.449,0.883-1.398-1.492-1.32-3.379C119.066,54.18,119.23,48.895,120.461,48.688L120.461,48.688z M122.574,51.402
c0.211,0.293,0.344,0.52,0.41,0.77c0.113,0.441,0.02,0.969-0.238,2.09c-0.688,2.969-0.59,6.172-0.141,9.461
c0.094,0.691-0.387,0.348-1.113-0.844c-0.402-0.664-0.66-1.566-0.785-2.637c-0.254-2.336,0.234-5.508,0.652-8.004
C121.543,51.129,121.668,50.156,122.574,51.402L122.574,51.402z M123.715,53.211l1.199,1.449c0,0-0.512,3.328-0.508,5.105
c-0.086,0.668,0.598,7.906,0.82,8.488c-0.738-0.824-1.086-1.313-1.895-2.352c-0.094,0.016-0.793-7.133-0.309-9.863
C123.316,54.383,123.715,53.211,123.715,53.211L123.715,53.211z M125.598,56.09c0.203-0.008,0.461,0.219,0.781,0.672
c0.293,0.406,0.434,0.742,0.449,1.25c0.012,0.371-0.172,0.656-0.176,1.316c-0.035,3.938,0.496,7.656,1.168,11.238
c0.234,1.281-0.227,0.758-0.984-0.055c-0.699-0.742-0.711-1.023-1.082-2.078c-0.074-0.211-0.816-7.473-0.809-8.02
c0.023-2.258,0.09-3.516,0.348-4.055C125.379,56.184,125.48,56.094,125.598,56.09L125.598,56.09z M121.23,64
c0,0-1.398,0.719-1.762,0.469c-0.594-1.613-2.723-5.926-2.762-6.691c0.039-0.25,0.875-1.383,0.875-1.383
C118.758,58.949,119.82,61.563,121.23,64L121.23,64z M94.902,58.82c-0.422,0.496-0.922,0.289-1.941-0.16
c-0.52-0.16-0.441,0.055-1.301,0.504c-0.668,0.348-0.902,0.355-1.347,0.352c-0.582-0.004-0.793-0.207-0.797,0.203
c0,0.227-0.035,1.254-0.172,1.781c-0.188,0.723-0.352,1.043-0.246,1.168c0.297,0.273,0.543,0.105,1.172-0.5
c1.039-1.004,1.738-0.715,2.895-0.34c1.316,0.422,1.59,0.578,2.793,0.16c1.703-0.598,2.73-0.598,3.41-0.164
c1.172,0.742,1.523,0.699,1.043-1.34c-0.156-0.656-0.168-1.672-0.262-1.852c-0.109-0.199-0.406,0.371-0.719,0.582
c-0.594,0.398-0.902,0.391-2.246-0.047C96.391,58.906,95.5,58.055,94.902,58.82L94.902,58.82z M116.484,59.086
c0.52,1.223,2.586,5.313,2.523,5.77c-0.402,0.359-0.941,0.625-1.258,0.301c-1.035-1.887-1.344-2.902-2.184-5.02
C115.316,59.633,116.063,58.344,116.484,59.086L116.484,59.086z M127.586,58.934c0.148-0.02,0.453,0.285,0.68,0.59
c0.707,0.945,0.75,1.063,0.773,2.078c0.082,3.68,0.543,8.008,1.578,11.348c0.207,0.66,0.594,1.457,0.551,1.566
c-0.348,0.508-1.961-0.852-2.445-2.914c-0.672-2.621-1.066-5.355-1.277-7.133C127.176,61.34,127.176,59.098,127.586,58.934
L127.586,58.934z M115.188,60.965c0.594,1.148,1.344,3.129,1.848,4.316c0.23,0.516-0.945,0.926-1.215,0.75
c-0.473-0.352-0.695-1.34-1.004-1.934c-0.98-2.148-1.16-2.191-0.613-2.863C114.539,60.77,114.938,60.199,115.188,60.965
L115.188,60.965z M129.918,62.281c0.09,0,0.199,0.086,0.34,0.266c0.621,0.734,1.043,1.297,1.207,1.84
c0.117,0.395,0.023,0.691,0.066,1.406c0.109,1.875,0.602,4.434,1.996,9.668c0.137,0.512,0.32,1.117,0.297,1.281
c-0.133,0.961-1.543-0.598-1.953-2.207c-0.477-1.828-1.344-4.16-1.602-6.316C129.746,64.793,129.453,62.281,129.918,62.281
L129.918,62.281z M113.945,63.668c1.172,2.734,1.266,2.73,0.527,2.945c-0.781,0.23-0.828,0.152-1.746-1.707
c-0.668-1.359-0.801-1.531-0.238-2.02C113.348,61.875,113.574,62.84,113.945,63.668L113.945,63.668z M97.617,63.016
c-0.133,0-0.527,0.297-0.922,0.453c-0.969,0.387-2.688,0.41-3.734,0.094c-1.859-0.742-1.336,0.223,0.309,0.813
c1.273,0.43,3.801,0.098,4.191-0.695C97.703,63.422,97.789,63.012,97.617,63.016L97.617,63.016z M111.742,64.453
c1.047,1.617,1.359,2.262,1.184,2.387c-0.168,0.168-0.996,0.48-1.336,0.316c-0.43-0.211-0.801-1.211-0.988-1.992
C110.73,64.781,111.418,64.094,111.742,64.453L111.742,64.453z M85.528,65.133c0.468,0.004,1.683,1.637,1.437,1.934
c-0.07,0.152-0.523,0.008-1.59-0.289c-0.355-0.129-1.16-0.234-0.906-0.75C84.594,65.793,85.34,65.133,85.528,65.133L85.528,65.133z
M110.621,67.375c-0.105,0.277-0.895,0.344-1.23,0.324c-0.289-0.598-0.363-0.887-0.445-1.281c0.109-0.238,0.648-0.855,0.918-0.734
C110.023,65.824,110.539,67.078,110.621,67.375L110.621,67.375z M132.391,65.797c0.168,0.008,0.457,0.301,0.887,0.914
c0.813,1.16,0.699,1.074,1.281,3.844c0.66,3.141,1.453,5.379,2.25,8.586c0.012,0.531-0.203,0.391-0.797,0.031
c-0.965-0.59-1.281-1.242-1.586-2.945c-0.52-2.813-1.617-5.414-2.039-8.734C132.168,66.391,132.148,65.789,132.391,65.797
L132.391,65.797z M108.055,66.922c0.57-0.02,0.492,0.859,0.328,1c-0.418,0.363-1.566,0.254-1.762,0.273
C106.18,67.504,107.68,66.945,108.055,66.922L108.055,66.922z M135.289,69.91c0.168,0.023,0.621,0.66,1.461,1.844
c0.809,1.137,0.633,0.949,1.117,2.824c0.688,2.586,1.82,4.453,2.484,6.836c0,0.27-0.328,0.234-0.645,0.105
c-0.613-0.258-1.16-0.691-1.68-1.117c-0.355-0.383-0.355-0.871-1.402-4.48c-0.379-1.305-0.48-1.641-0.953-3.621
C135.277,70.645,135.102,69.883,135.289,69.91L135.289,69.91z M47.516,77.641c2.754,5.066,1.734,7.313-4.188,8.012
c-0.425-0.059-0.023,2.598-0.035,3.781c2.969-1.695,6.555-2.094,9.86-3.156c-0.899,2.883-2.481,6.148-7.266,5.645
c-5.004-3.863-10.891-1.543-14.883-3.113C28.828,88,28,85.586,27.973,85.172c2.605,0.262,5.547,0.82,8.074,0.637
c-2.758-2.125-1.953-5.063-1.562-6.406c-3.227-4.07-0.536-8.648,4.152-7.586c0.484,0.113,1.441,0.582,1.441,0.582
C44.602,68.352,49.844,72.152,47.516,77.641L47.516,77.641z M139.004,75.176c0.188-0.02,0.602,0.473,1.43,1.629
c2.457,3.441,4.586,6.641,4.555,6.82c-0.105,0.594-2.668-0.445-3.316-1.293c-0.734-0.965-2.809-5.945-2.805-6.734
C138.871,75.332,138.906,75.184,139.004,75.176L139.004,75.176z M38.867,89.91c1.278,0.188,1.637,0.297,1.622,0.797
c0.109,0.422-3.102,0.48-3.54,0.164c-0.347-0.25,0.102-0.801,0.446-0.934C37.891,89.785,38.387,89.84,38.867,89.91L38.867,89.91z
M127.441,90.363c-17.949,8.48-25.293,31.031-16.234,48.313l-1.246,0.902c-8.883-18.273-2.277-37.852,12.16-47.738
c0.582-0.418,1.875-0.738,2.477-1.137c0,0-5.887,1.344-7.883,2.125c-0.402-0.016-1.59,0.402-2.867,1.785
c-1.113,1.035-4.602,5.844-4.492,6.012l-9.266,0.371l0.008,0.344l9.094-0.211c-9.367,15.426-7.066,30.098-1.281,40.367l0.145,0.098
c0.336,0.227,1.219-0.423,3.055-2.16c0.758-0.715,1.707-1.605,2.117-1.98c1.137-1.039,2.75-2.832,3.859-4.125
c-6.297-12.836-0.086-29.688,14.652-37.309c0.023-0.406-0.156-1.699-0.156-1.699s-0.555-0.5-0.883-0.449
c-16.422,7.23-23,25.195-16.324,41.527l-1.102,1.199c-8.387-16.914,0.617-38.059,16.316-44.047c-0.008-0.383-0.348-0.871-0.77-0.574
c-16.949,7.867-24.336,27.965-16.035,45.094l-1.043,0.926c-9.449-18.758,0.504-39.773,16.109-46.953
C128.313,90.934,127.441,90.363,127.441,90.363L127.441,90.363z M36.074,90.539c0,0-0.117,1,0.235,1.34
c0.16,0.715-0.098,0.637-0.703,0.492c-1.492-0.355-0.328,0.492,0.89,1.18c1.203,0.672,1.043,0.652-0.007,1.316
c-0.704,0.445-0.629,0.613-0.536,0.953c0.141,0.504,0.239,0.168,0.528-0.102c0.617-0.563,1.105-0.703,1.652-0.703
c0.82,0.004,0.902,0.66,0.758,1.172c-0.328,1.074-1.434,1.016-2.34,0.75c-1.48-0.438-3.902-3.008-3.867-4.523
C32.582,91.059,34.438,90.477,36.074,90.539L36.074,90.539z M42.742,90.871c0.575,0.211,1.297,0.492,2.094,0.828
c1.098,0.348,2.215,0.918,2.93,1.395c2.187,1.457,2.055,4.375,1.898,4.664l-11.3,10.711c0,0-0.641-0.313-1.239-0.621
c-1.902-0.969-2.359-1.477-1.304-2.016c0.511-0.262,0.675-0.82,0.75-1.367c0.097-0.734,0.058-0.609,0.5-0.941
c0.761-0.582,0.8-0.824,0.804-1.789c0-0.641,0.067-0.938,0.301-1.34c0.184-0.316,0.379-0.984,0.508-1.75
c0.023-0.125,0.027-0.438,0.055-0.551c0.132-0.598,0.32-0.773,0.449-0.91c0.125-0.133,0.328-0.594,0.472-0.996
c0.313-0.891,0.254-0.758,0.762-0.66c0.742,0.145,0.637,0.574,0.555,1.258c-0.039,0.336-0.262,0.566-0.188,0.492
c0.102-0.102,0.555-0.316,0.653-0.336c0.234-0.055,0.468,0.027,0.531,0.398c0.035,0.207-0.055,0.586-0.051,0.879
c0.016,0.766,0.047,1.676,0.223,2.277c0.836,2.895,0.672,2.496,0.383,0.086c-0.067-0.578-0.149-1.426-0.063-2.129
c0.059-0.496,0.199-1.113,0.395-1.449c0.496-0.863,0.519-1.035-0.555-1.461c-0.399-0.16-1.078-0.434-1.219-0.711
c-0.176-0.34-0.687-0.797-1.355-0.953c-1.621-0.383-2.567-1.953-2.332-2.184c0.152-0.152,0.808,0.047,1.218,0.063
c1.485,0.051,1.797-0.023,2.457-0.59c0.348-0.301,0.504-0.566,0.782-0.586C42.153,90.578,42.524,90.793,42.742,90.871L42.742,90.871
z M119.66,92.605c-15.184,12.281-17.844,32.148-10.27,47.479l-1.313,1.032c-9.516-17.984-3.125-37.383,8.57-47.992L119.66,92.605z
M32.016,94.07c0.269-0.023,0.562,0.367,1.625,1.508c0.719,0.766,1.469,1.434,1.859,1.656c0.891,0.426,0.699,0.25-0.047,0.957
c-0.757,0.871-0.339,1.586-1.246,1.148c-2.363-1.109-4.02-4.375-2.484-5.16C31.836,94.121,31.926,94.078,32.016,94.07L32.016,94.07z
M30.84,97.504c0.059-0.004,0.121,0.008,0.184,0.02c0.289,0.074,0.644,0.621,1.023,1.004c1.051,1.055,1.535,1.523,2.375,1.895
c0.824,0.367,0.848,0.453,0.266,1.098c-0.211,0.234-0.336,0.516-0.383,0.672c-0.051,0.156-0.063,0.355-0.242,0.391
c-0.918,0.176-3.977-1.676-4.094-2.957C30.067,98.43,30.367,97.543,30.84,97.504L30.84,97.504z M37.317,97.859
c0.531-0.012,0.839,0.461,0.839,1.227c-0.003,0.531-0.3,0.746-0.91,0.973c-1.297,0.488-2.097-0.441-1.187-1.469
C36.438,98.16,36.953,97.871,37.317,97.859L37.317,97.859z M36.524,100.98c0.98,0.004,1.265,0.828,0.547,1.539
c-0.676,0.672-2.036,0.672-2.036-0.059C35.039,101.883,35.903,100.977,36.524,100.98L36.524,100.98z M30.453,101.969
c0.664,0.195,2.278,1.355,2.985,1.492c0.039,0.391-0.434,0.5,0.234,1.234c0.305,0.336,0.332,0.563,0.067,0.703
c-0.809,0.434-3.61-0.93-3.797-2.332C29.848,102.383,30.078,101.992,30.453,101.969L30.453,101.969z M34.11,103.645
c0.964,0.043,2.054,0.07,1.941,0.531c-0.086,0.332-0.43,1.215-0.871,1.051c-0.215-0.082-0.422-0.293-0.57-0.438
C34.094,104.297,33.957,103.641,34.11,103.645L34.11,103.645z M70.563,107.637c2.808,2.543,13.011,29.098-8.25,48.445l-4.512,1.352
c20.414-16.027,17.02-38.781,11.512-48.594c0-0.289-0.082-0.258-0.59,0.203c-0.445,0.402-0.492,0.488-0.313,0.563
c6.223,9.582,8.551,36.633-15.972,49.688c-0.414,0.43,0.422,0.363,0.422,0.363c0.043-0.352,11.043-3.024,10.265-3.094
c10.25-9.06,19.176-30.672,8.067-49.508C70.922,106.879,70.563,107.637,70.563,107.637L70.563,107.637z M67.024,110.645
l-0.145,0.598c8.899,17.468,0.406,38.871-16.137,46.793c0.274,0.199,0.575,0.336,0.879,0.48
c18.766-10.105,24.176-31.488,15.989-48.051L67.024,110.645z M65.535,111.883l-0.105,0.633c7.367,14.866,1.519,35.5-16.063,43.866
c-0.164,0.903,0.004,0.638,0.829,0.595c20.339-10.906,22.253-31.652,15.886-45.125L65.535,111.883z M64.27,113.664
c-0.574,0.762-1.625,1.152-1.973,2.129c5.098,16.023-2.004,30.792-14.66,36.992c-0.008,0.785-0.574,2.73,0.797,2.422
c15.972-7.238,22.922-26.473,15.937-41.613C64.371,113.594,64.281,113.66,64.27,113.664L64.27,113.664z M144.512,143.863
c0.586,0.039,1.113,0.219,1.66,0.289c1.984,0.258,3.27,1.707,2.383,2.586c-0.289,0.289-0.695,0.121-1.984-0.508
c-0.594-0.289-0.688-0.563-0.813-1.215c-0.145-0.785-0.301-0.863-0.5-0.254c-0.203,0.613-0.418,0.991-1.098,0.84
C142.258,145.156,142.977,143.848,144.512,143.863L144.512,143.863z M123.285,157.16c-4.766-2.703-10.648-7.578-14.012-13.117
c-1.672,3.137-3.637,8.848-3.637,8.848l-7.488-2.035l-0.078,0.102l7.391,2.128l-0.723,2.466c-0.074,0.27-1.219,3.074-1.219,3.074
l11.543,5.391c-0.715,1.116-1.496,1.84-2.488,2.887c-0.559,0.586-0.574,1.351-0.574,1.351l16.008-15.269
c0,0,2.063,3.062,2.832,3.758c0.719,0.648,0.945,0.809,0.105,1.004c-3.762,0.55-6.684,3.398-5.664,7.218
c0.164,0.423,0.496,0.267,1.211-0.179c2.496-2.262,8.598-4.355,8.809-3.825l0.023,2.431c-6.57,0.098-5.898,4.926-5.418,7.52
c0,0.054-1.898,1.715-1.898,1.715c0.672,0.355,1.328,0.719,1.949,1.152c-0.578,3.223,2.168,7.894,7.563,5.504
c0.465,0.476,0.906,0.957,1.422,1.558c0.551-0.64,1.188-2.144,1.188-2.144c2.68,1.211,8.238-1.5,5.395-7.719l1.566-1.492
l-1.504-0.949c-0.039-1.582-0.285-2.992-1.227-4.371c0,0,2.527,0.645,4.398,0.754c1.156,0.105,2.133,0.133,2.035-0.566
c-0.027-0.203-0.203-1.211-0.316-1.539c-0.555-1.629-3.453-2.824-6.266-2.98c-0.457-0.027-0.953-0.012-1.051-0.133
c-0.184-0.223,0.148-0.539,0.449-0.489c1.539,0.271,3.02-0.866,3.289-2.315c0.051-0.254,0.367-0.72,0.82-1.215
c0.801-0.875,0.863-0.852,0.848-2.121c-0.012-0.879,0.145-1.074,0.551-1.664c0.523-0.84,0.766-1.938,0.504-3.074
c-0.086-0.36-0.426-0.867-0.137-1.766c0.473-1.457-0.563-2.789-1.926-3.552c-0.109-0.03-0.074,0.079-0.164,0.185
c-1.234,0.387-2.738-0.5-2.738-0.5c-0.309-0.152,1.051-8.063,3.871-7.355c0.148,0.082,0.66,1.441,0.66,1.441
c0.266-0.008,0.164-2.355-1.48-2.047c-0.652,0.125-1.406,0.987-1.746,1.422c-1.316,1.68-1.332,2.754-1.773,4.539
c-0.211,0.844-0.234,0.797-1.402-0.117c-0.84-0.656-1.246-0.867-0.953-1.25c0.129-0.172,0.676-0.719,0.676-0.719l10.207-9.824
v98.379H94.98l0.406-12.641c1.082-8.891-0.824-27.559-2.266-29.313c1.113-1.25,4.563-4.262,4.371-4.398l-0.457-0.273l-1.824,1.679
l-4.504-1.362c-1.926-1.328-3.886-2.555-5.922-3.078c-3.32-0.852-9.722,1.862-9.726,1.895c-10.227,0.754-18.414,4.906-18.297,4.875
c-0.445-0.411-1.035-1.715-1.051-1.707C50.442,176,45.258,171.891,38.18,166.878l8.969-4.952l-21.246-22.199l-0.188-18.023
l30.777-29.426c0.18-0.508,9.817,6.809,13.407,12.762c0.687-2.91,1.968-5.555,3.039-8.41c0.109-0.262,6.121,2.223,7.906,2.328
c0.266,0.016,0.48-0.266,0.48-0.266l-7.933-2.582l1.621-4.645c0,0,0.566-1.266-0.07-1.473c-3.618-1.172-7.012-3.234-10.473-4.988
c0,0,1.617-1.797,1.641-1.875c0.023-0.078,0.679-1.039,0.523-1.371c-1.762,1.707-16.121,15.023-16.121,15.023
c-0.406-2.285-1.051-3.086-2.445-4.496c0.761-0.035,1.953-0.789,2.64-1.289c2.102-1.535,3.25-4.27,2.973-5.867
c-2.02,0.641-3.844,1.395-6.375,1.855c-1.422,0.258-2.77,0.898-3.586,1.59l-0.129-2.551c0.008,0.027,3.406,0.598,4.981-1.684
c1.355-1.969,0.8-4.219,0.488-5.367c0.035-0.254-0.039-0.223,0.547-0.762c0.429-0.398,1.105-0.914,1.105-0.914
c0.028-0.145-1.758-0.805-2.058-1.41c0.476-4.727-3.301-6.551-6.497-5.711c-0.597,0.18-0.882,0.293-1.593-0.5
c-0.105-0.117-0.961-1.016-0.961-1.016s-0.375,0.867-0.567,1.246c-0.629,1.238-0.8,0.863-2.152,0.93
c-3.422,0.168-4.949,2.934-4.164,6.324c0.184,0.797,0.102,0.676-0.422,1.684c-0.266,0.512-0.703,1.168-0.703,1.168
s0.629,0.352,1.051,0.539c0.629,0.281,0.66,0.609,0.656,1.234c0.09,1.375,0.391,2.297,1.184,3.48
c-2.684,0.063-4.739-0.188-7.168-0.996c0.371,3.734,3.125,5.125,6.496,5.672c0,0-0.356,0.332-0.727,0.477
c-0.789,0.23-1.281,0.922-1.273,1.543c-0.117,0.594-0.5,1.188-0.852,1.504c-0.523,0.453-0.957,1.094-0.75,2.332
c-0.055,0.898-0.269,1.156-0.535,1.5c-0.527,0.688-0.707,1.371-0.574,2.277c0.062,0.418,0.191,1.32,0.105,2.25
c-0.145,1.555,0.41,2.137,1.117,3.227c0.457,0.707,0.36,0.727,0.254,1.242c-0.254,1.23-0.519,1.867-0.793,2.805
c-0.613,2.098-0.636,3.691-0.132,4.098c0.753,0.617,1.609,0.434,2.007,0.309c2.985-0.918,2.465-3.848,2.625-5.813
c0.082-0.508,0.258-0.75,0.422-0.727c0.844,0.988,1.739,1.559,2.887,2.18c-3.973,4.043-6.563,6.512-11.582,10.922l0.137-98.406
h57.246c0,0,0.058,0.73-0.078,4.289c-0.246,7.238-0.551,14.816-0.078,22.195c0.082,2.551,0.027,5.074,0.394,7.602
c0.359,2.461,0.516,5.113,1.668,7.406c0.461,1.242,0.477,1.145-1.285,2.773c-0.863,0.797-1.598,1.648-1.567,1.797
c0.012,0.051-0.039,0.238,0.094,0.133c0.09-0.07,0.727-0.703,0.797-0.785c0.477-0.563,1.277,0.16,4,0.926
c0.535,0.152,1.285,0.652,1.863,1.07c4.071,3.43,9.797,2.363,14.079,0.492c1.215-0.531,1.512-0.586,3.465-0.82
c7.234-0.855,14.961-4.016,14.945-4.004l0.941,1.543c0,0,0.355-0.063,0.609,0.324c4.16,7.855,17.738,16.832,17.496,16.418
l-8.875,4.914c6.461,7.984,21.238,21.527,21.238,21.527l-0.34,19.469c-3.965,3.176-7.457,6.813-10.945,10.363
c-1,0.992-1.711,1.559-1.328,1.578c0.906-0.137,1.688,0.754,2.422,1.375c0.469,0.52,0.355,0.473-0.184,1.184
c-0.379,0.5-0.516,0.645-0.516,1.004c0.012,0.698,0.008,1.168-0.613,1.691c-0.387,0.484-0.609,0.796-0.68,1.371
c-0.07,0.57-0.063,0.941-0.457,1.449c-0.668,0.14-0.734,1.113-0.613,1.551c0.699,0.691,0.379,1.445,0.445,1.285
c-1.34,1.453-2.742,2.711-1.848,0.679c0.406-0.753,0.543-1.378,0.543-1.378s-0.641,0.664-0.977,0.98
c-0.516,0.477-0.703,0.194-0.719-1.285c-0.066-1.121-0.539-2.684-0.727-2.984c-0.105-0.168-0.125,0.121-0.074,1.203
c0.066,1.418,0.234,1.832-0.266,3.25c-0.676,1.914-1.156,2.184-0.059,2.117c1.039-0.063,1.918-0.07,2.371,0.547
c0.152,0.211,0.352,0.566,0.77,0.781c0.855,0.465,1.535,0.984,2.012,1.5c1.535,1.672,1.094,3.164-1.875,2.152
c-1.566-0.535-0.543-1.203,1.141-1.051c1.031,0.098,1.207-0.286,0.313-0.559c-1.664-0.305-1.93-0.492-3.027,0.809
c-4.605-0.454-7.191-3.027-8.434-5.125c-0.52-0.879-0.68-1.047-0.316-1.543c0.141-0.195,0.055-0.137-0.191,0.137
c-0.246,0.27-0.914,0.495-1.137,0.691C126.246,154.246,124.68,155.906,123.285,157.16L123.285,157.16z M143.332,146.348
c0.781,0.098,0.766,0.754,0.066,1.387c-0.656,0.496-1.105,0.59-1.473,0.219C141.277,147.301,142.113,146.344,143.332,146.348
L143.332,146.348z M145.609,146.805c0.629-0.005,1.434,0.284,2.387,1.082c1.141,0.945,1.398,3.238,0.355,3.637
c-0.441,0.164-0.508,0.004-1.441-0.887c-0.633-0.598-1.313-1.141-1.988-1.457c-1.371-0.656-1.547-0.902-0.621-1.348
c0.195-0.102,0.449-0.336,0.566-0.523C145.105,146.93,145.176,146.805,145.609,146.805L145.609,146.805z M144.125,149.859
c0.18,0.004,0.426,0.113,0.805,0.32c2.316,1.262,3.449,3.246,2.664,4.363c-0.512,0.734-1.348,0.457-1.988-0.586
c-0.359-0.586-1.313-1.336-2.395-1.887c-1.238-0.625-1.266-0.719-0.371-1.146c0.367-0.175,0.645-0.425,0.824-0.741
C143.871,149.816,143.891,149.852,144.125,149.859L144.125,149.859z M144.867,154.582c1.746,1.742,1.547,2.688,0.41,3.398
c-0.773,0.483-2.02,0.604-2.426,0.203c-0.66-0.574-0.645-1.234,0.086-1.449c0.68-0.146,0.426-0.418-0.211-0.578
c-2.27-0.645-3.664-1.848-1.195-1.586c0.707,0.074,1.391-0.477,1.762-0.914C143.828,153.007,144.551,154.27,144.867,154.582
L144.867,154.582z M25.571,155.253l51.054,73.091l-41.273-0.082c0,0-0.156-0.535,0.179-4.914c0.497-5.945-0.265-11.102-1.671-16.902
c0.175-0.021-1.977-7.043-3.653-10.477c-0.304-0.719-0.254-0.789,0.735-0.914c2.922-0.47,6.07-1.177,8.988-2.41
c1.355-0.121,3.348,0.406,3.242,0.242c-0.051-0.078-1.766-1.652-1.766-1.652c-4.765,1.902-9.164,2.601-13.304,3.074
c5.496,9.352,7.457,22.082,5.808,33.52L26,227.805l-0.023-56.285L25.571,155.253z M34.696,166.078
c0.722-0.027,2.519,1.242,2.738,2.195c0.043,0.195,0.512,1.367,1.035,2.457c0.012,0.203,1.781,3.397,1.004,3.117
c-1.551-2.102-4.313-5.68-5.008-7.427C34.465,166.191,34.492,166.085,34.696,166.078L34.696,166.078z M40.211,169.277
c0.098,0.527,0.633,1.906,1.055,2.816c1.101,2.37,2.808,6.09,2.461,7.148c-0.235,0.715,0.008,0.676-0.617-0.203
c-0.305-0.434-1.258-1.762-1.489-2.066c-0.558-0.75-0.183-0.063-0.5-1.281c-0.761-3.449-1.988-5.262-2.789-7.277
C38.051,167.469,39.844,168.895,40.211,169.277L40.211,169.277z M41.192,169.801c0.148,0.105,2.172,1.527,2.379,1.73
c0.714,2.551,3.582,10.722,2.839,12.183c-0.257-0.202-1.351-1.519-1.504-2.198c-0.328-3.906-1.57-6.72-2.898-9.629
C41.633,171.007,41.34,170.128,41.192,169.801L41.192,169.801z M45,172.671c0.641,0.313,1.301,1.028,1.676,1.668
c0.254,0.435,0.383,0.942,0.617,2.017c0.735,3.336,2.133,6.715,1.504,10.272c-0.394,0.532-1.246-0.675-1.367-1.862
c-0.406-3.941-0.754-5.828-2.137-10.461C45.024,173.406,44.821,172.703,45,172.671L45,172.671z M48.246,175.727
c0.137,0.008,0.418,0.262,0.887,0.698c0.91,0.856,1.039,1.169,1.043,2.587c0.031,2.082,0.723,4.457,0.832,6.559
c0.063,1.215,0.281,4.351,0.094,4.539c-0.262,0.363-1.438-0.965-1.348-3.004c0.149-2.449,0.027-4.293-1.015-8.531
c-0.485-1.957-0.727-2.797-0.52-2.844C48.227,175.73,48.239,175.727,48.246,175.727L48.246,175.727z M142.508,163.352
c3.648,2.344,2.363,6.664,1.582,7.194c5.035,6.368-2.793,9.625-5.277,7.336c-3.68,3.657-9.992,0.595-7.563-5.433
c0,0-4.617-8.824,4.492-8.235c0,0,0.156-3.562-0.102-3.726c-3.25-0.219-7.672,2.91-8.926,3.777
c-0.691,0.422-0.844,0.219-0.844,0.219c-0.176-1.848-0.18-2.695,0.574-3.731c1.313-1.8,3.48-2.405,6.332-3.034
c3.527,1.086,6.883,2.793,10.152,2.527c1.801,0.011,3.641,0.3,5.383,1.238c1.18,0.555,1.789,2.637,1.789,2.637
C148.258,165.085,142.508,163.352,142.508,163.352L142.508,163.352z M140.773,150.266c0.016-0.629,0.73-1.336,1.43-1.254
c0.969,0.07,1.094,1.215,0.234,1.637c-0.246,0.199-1.047-0.099-1.094,0.125c0.059,0.391-0.332,0.227-0.406,0.086
C140.805,150.695,140.773,150.457,140.773,150.266L140.773,150.266z M140.188,152.757c0.355-0.245,0.652-0.269,1.008-0.315
c0.547-0.066,1.25,0.016,1.402,0.59c0.152,0.566-0.926,0.894-1.801,0.91c-0.445,0.008-0.961,0.094-1.094-0.219
C139.578,153.43,140.008,152.891,140.188,152.757L140.188,152.757z M29.778,112.512c0.703-2.445,0.265-3.816,1.437-6.828
l2.856,0.949c0,0,0.121,2.957-0.454,4.605C33.039,112.883,31.145,114.195,29.778,112.512L29.778,112.512z M51.051,178.675
c0.336,0.039,1.164,1.22,1.535,2.294c0.344,1,0.231,2.27,0.481,3.344c0.558,3.688,0.527,7.379,0.379,8.496
c-0.075,0.559-0.434,0.328-0.926-0.199c-0.711-0.774-0.614-0.789-0.606-2.93c0.008-1.836-0.398-6.371-0.586-7.293
c-0.347-1.703-0.492-3.328-0.41-3.605C50.942,178.699,50.989,178.668,51.051,178.675L51.051,178.675z M84.446,179.117
c3.679,0.586,6.617,3.093,8.304,7.227c1.625,4.202,2.023,9.938,2.277,15.206c-0.016,1.263-0.539,0.946-1.898,0.16
c-1.488-0.726-1.805-0.515-3.976-0.019c-1.356,0.312-1.235-0.609,0.996-2.142c0.757-0.495,1.64-1.155,1.351-1.254
c-0.148-0.05-0.824,0.134-1.316,0.528c-2.188,1.77-2.781,2.199-2.153,0.48c0.161-0.434,0.668-1.641,0.879-2.22
c0.793-2.159-0.121-3.082-2.812-4.448c-0.672-0.344-1.117-0.914-0.442,0.281c0.547,0.977-0.589,1.766-1.996,0.621
c-0.976-0.793-2.941-0.266-3.578,0.727c-0.613,0.961-0.285,2.754,0.926,3.332c1.066,0.461,1.465,0.129,0.434-0.586
c-1.328-0.918-1.071-2.473,0.422-2.469c0.367,0.003,1.019,0.414,2.664,1.309c1.175,0.637,2.011,0.367,2.015-0.586
c0-0.634,0.363-0.582,1.137-0.199c1.043,0.516,0.93,0.979,0.379,2.422c-0.371,1.004-0.559,2.148-0.899,3.199
c-0.875,3.535-0.992,7.543-0.023,8.793c2.582,3.319,5.324,2.969,7.672,0.772l-0.102,3.638c-2.395,1.922-5.191,3.23-9.508,10.352
c-1.503-1.891-7.964-9.621-18.324-11.367l-2.332-3.191c0.043-0.195-1.738-11.859-2.906-15.832c0,0,1.281-1.945,2.445-3.379
C68.735,184.742,76.598,178.184,84.446,179.117L84.446,179.117z M70.938,182.425c-0.399,0.13-0.528-0.668-0.313-0.815
c0.481-0.043,0.649-0.027,1.129,0.008C72.117,181.641,72.11,182.055,70.938,182.425L70.938,182.425z M53.457,181.832
c0.516,0.367,1.149,1.359,1.766,2.266c0.34,0.5,0.148,1.327,0.199,2.148c0.078,1.16,0.207,3.074,0.285,4.25
c0.16,2.293-0.054,4.211-0.386,4.902c-0.344,0.828-1.04,0.254-1.211-0.879c-0.043-0.27,0.183-3.082,0.183-4.629
C54.293,187.234,53.617,183.957,53.457,181.832L53.457,181.832z M69.137,181.816c0.184-0.012,0.32-0.004,0.441,0.147
c0.559,0.716,0.786,1.149,0.278,1.539c-0.676,0.563-1.285,0.422-1.66-0.647C67.953,182.098,68.524,181.855,69.137,181.816
L69.137,181.816z M67.059,182.445c0.601,0.402,1.199,1.465,1.262,2.229c-0.04,0.207-0.223,0.388-0.629,0.716
c-0.399,0.362-0.524,0.34-0.973-0.363c-0.699-1.094-1.027-1.817-0.891-2.192C66.18,182.473,66.633,182.324,67.059,182.445
L67.059,182.445z M91.547,182.582c1.004,0.086,1.992,0.546,2.973,0.777l-1.492,1.441C92.586,184.063,92.078,183.32,91.547,182.582
L91.547,182.582z M64.832,183.335c0.551,0.716,1.512,2.591,1.457,3.286c-0.136,0.238-0.355,0.449-0.586,0.582
c-0.183,0.05-0.347-0.27-0.968-1.371c-1.082-1.911-1.399-2.445-0.836-2.676C64.192,183.121,64.641,183.137,64.832,183.335
L64.832,183.335z M62.656,183.777c0.598,0.535,2.04,3.383,2.083,4.183c-0.016,0.228-0.086,0.422-0.219,0.571
c-0.906,0.976-0.676,0.82-2.024-1.957c-1.14-2.285-1.441-2.508-0.687-2.766C61.977,183.75,62.391,183.676,62.656,183.777
L62.656,183.777z M60.489,184.523c0.394-0.008,0.507,0.652,1.277,2.16c1.289,2.848,1.773,3.241,1.484,3.547
c-0.363,0.453-0.57,0.772-0.914,0.223c-0.777-1.266-1.551-2.879-2.273-4.297c-0.582-1.059-0.633-1.188-0.262-1.446
C60.016,184.563,60.332,184.523,60.489,184.523L60.489,184.523z M83.52,185.332c-0.485,0.137-2.434,0.753-1.239,0.863
c0.243,0.023,0.852-0.129,1.282-0.16c1.207-0.082,3.718,0.145,3.629-0.086C86.965,185.082,84.18,185.16,83.52,185.332L83.52,185.332
z M58.801,185.598c0,0.047,0.313,0.602,0.625,1.145c1.832,3.547,2.852,4.836,2.527,5.395c-0.269,0.34-0.683,0.766-0.925,0.664
c-0.395-0.164-0.922-1.324-2.235-3.949c-1.355-2.711-1.496-2.914-0.801-3.267C58.278,185.453,58.625,185.355,58.801,185.598
L58.801,185.598z M56.969,186.848c0.844,1.371,0.73,1.191,0.723,5.648c-0.008,2.773-0.364,4.547-0.828,5.227
c-0.243,0.359-0.672,0.148-0.883-0.552c-0.098-0.319,0.179-0.796,0.23-1.3c0.328-3.34,0.098-6.68,0.106-9.84
C56.574,186.007,56.832,186.625,56.969,186.848L56.969,186.848z M78.711,187.941c0.391,0.559,0.297,1.012,0.293,1.766
c-0.004,1.066,0.074,1.145,0.809,0.605c0.652-0.478,0.707-0.508,1.871,0.281c0.687,0.469,1.558,0.523,2.125,0.004
c0.394-0.363,0.535-0.199,1.066-0.063c0.578,0.324,0.742,0.371,1.985-0.23c0.839-0.371,0.875-0.427,1.371-0.16
c0.879,0.773,1.008,0.492,0.89-0.52c0-0.352,0.106-1.012,0.207-1.441c0.438-1.797-0.269-1.816-1.203-0.672
c-0.363,0.445-1.172,0.637-1.933,0.277c-1.094-0.512-2.797-0.305-4.059-0.094c-1.492,0.25-2.18-0.16-2.781-0.672
c-0.34-0.289-1.113-0.547-1.199-0.324C78.067,186.921,78.242,187.27,78.711,187.941L78.711,187.941z M58.711,190.464
c0.188-0.043,0.473,0.513,0.895,1.685c0.539,1.512-0.407,6.77-0.977,7.633c-0.301,0.449-0.492,0.726-1.113-0.11
c-0.246-0.366-0.055-0.483,0.191-1.519c0.371-1.57,0.684-4.117,0.703-5.301C58.414,191.316,58.5,190.507,58.711,190.464
L58.711,190.464z M60.614,195.563c0.132,0.012,0.289,0.313,0.503,0.914c0.305,0.823,0.157,2.41-0.242,3.625
c-0.23,0.707-0.453,1.461-0.847,2.094c-0.133,0.354-0.821,0.23-1.012-0.559c-0.121-0.496,0.297-1.113,0.496-1.906
c0.199-0.797,0.43-1.81,0.543-2.32C60.266,196.168,60.414,195.55,60.614,195.563L60.614,195.563z M75.324,197.895
c-0.015-0.004-0.031,0-0.039,0.004c0-0.004-0.007,0.008-0.011,0.012c-0.032,0.031,1.433,1.629,1.828,2.074
c0.203,0.176,1.969,2.32,0.871,1.828c-2.77-1.148-6.012-0.586-8.008,1.34c-0.254,0.242-0.457-0.004-1.215-0.063
c-1.551-0.112-2.113,0.5-1.172,1.267c0.145,0.117,0.446,0.168,0.582,0.354c0.125,0.172,0.09,0.481,0.153,0.567
c3,3.984,8.554,4.758,12.039,2.156c0.441-0.328,0.687-0.441,1.094-0.32c0.812,0.242,0.882-0.438,0.168-1.387
c-0.313-0.414-0.7-0.892-0.473-1.027c0.441-0.383,0.66-1.004-0.11-1.239c-0.531-0.16-1.125-0.75-1.425-1.573
C79.258,200.921,75.844,197.964,75.324,197.895L75.324,197.895z M61.715,199.637c0.649-0.016,0.68,3.836-0.039,5.004
c-0.371,0.441-1.219-0.379-1.09-1.227c0.098-0.641,0.789-3.536,0.945-3.684C61.598,199.668,61.66,199.637,61.715,199.637
L61.715,199.637z M75,202.039c0.547-0.004,1.297,0.242,1.895,0.777c0.32,0.293,0.883,1.551,0.648,2.043
c-0.066,0.254-0.742,0.238-0.801,0.055c-0.371-2.543-2.433-2.911-3.086-0.539c0,0-0.425,0.359-0.48-0.332
C73.324,202.695,73.957,202.051,75,202.039L75,202.039z M91.59,202.262c0.652-0.012,1.277,0.316,1.598,1.016
c0.227,0.488,0.25,0.897,0.16,1.109c-0.066,0.159-0.285,0.094-0.285,0.094c-1.047-2.867-2.469-1.543-2.985,0.043
c0,0-0.539,0.164-0.605-0.004c-0.067-0.172-0.027-0.496,0.187-0.941C90.071,202.727,90.848,202.273,91.59,202.262L91.59,202.262z
M77.602,202.438c0.371-0.02,1.004,0.281,1.476,0.758c0.485,0.488,0.532,0.777,0.141,1.137c-0.234,0.214-1.063,0.43-1.223,0.055
l-0.703-1.637C77.227,202.598,77.434,202.449,77.602,202.438L77.602,202.438z M72.563,202.516c0.414,0,0.504,0.094-0.149,1.609
c-0.136,0.324-1.808-0.145-1.492-0.77C71.403,202.855,72.149,202.516,72.563,202.516L72.563,202.516z M89.289,202.637
c0.168-0.009,0.305,0.016,0.36,0.09c-0.149,0.055-0.778,1.651-0.778,1.651c-0.597-0.073-1.308,0.013-1.437-0.476
c-0.125-0.461,0.117-0.742,0.957-1.063C88.645,202.746,89.012,202.648,89.289,202.637L89.289,202.637z M94.176,203.043
c0.633,0.234,0.781,0.77,0.699,1.046c-0.059,0.207-0.359,0.212-0.57,0.048c-0.199-0.23-0.496-0.63-0.477-0.898
C93.895,202.973,93.977,202.969,94.176,203.043L94.176,203.043z M62.676,204.52c0.195,0.367,0.547,2.438,0.137,2.387
c-0.399-0.106-0.586-0.73-0.657-1.293C62.145,205.5,62.496,204.531,62.676,204.52L62.676,204.52z M69.633,205.625
c0.188-0.023,0.648,0.137,1.34,0.527c2.266,1.094,4.59,1.25,7.058,0.699c1.426-0.371,1.79-0.586,1.989-0.345
c0.344,0.419-0.196,0.832-2.207,1.509c-2.207,0.741-4.492,0.616-7.5-1.509C69.504,205.938,69.399,205.66,69.633,205.625
L69.633,205.625z M94.797,206.199c0.371,0.695-0.898,1.355-1.543,1.543c-1.367,0.395-3.441,0.211-4.609-0.492
c-0.098-0.063-0.192-0.125-0.281-0.191c-0.954-0.707-0.559-1.215,0.5-0.668c1.14,0.59,3.46,0.694,4.691,0.102
C94.172,206.195,94.594,205.824,94.797,206.199L94.797,206.199z M66.641,207.496c-0.129,0.027,0.086,0.348,0.527,0.828
c3.102,3.48,10.504,5.367,14.664,1.781c1.301-1.224,1.102-1.773-0.953-0.797c-2.269,0.746-5.5,0.848-8.293,0.434
c-1.371-0.188-3.609-0.715-4.746-1.543C67.125,207.676,66.75,207.473,66.641,207.496L66.641,207.496z M88.028,207.602
c0.187,0.016,0.519,0.086,1.242,0.457c1.051,0.547,3.438,0.359,4.219,0.073c1.645-0.608,1.984,0.164,0.422,1.024
c-1.738,1.054-4.136,0.64-5.535-0.715c-0.433-0.387-0.668-0.871-0.476-0.91C87.914,207.527,88,207.598,88.028,207.602
L88.028,207.602z M67.465,213.757c6.106,0.56,15.324,6.621,18.918,13.899h-2.066c-3.614-5.727-9.168-10.34-15.762-12.059
C68.293,215.395,67.324,214.012,67.465,213.757L67.465,213.757z M94.574,215.089l-0.281,2.017c-1.023,0.84-4.773,3.944-7.558,8.813
c-0.579-0.027-0.86-0.723-0.762-1.199C88.199,220.324,90.863,217.898,94.574,215.089L94.574,215.089z M69.891,216.668
c1.402-0.098,10.519,4.801,13.59,10.988h-1.684c-3.453-4.496-7.289-7.43-10.699-8.606C70.27,218.176,69.364,216.707,69.891,216.668
L69.891,216.668z M94.293,218.066l-0.016,2.723c-2.18,2.121-3.773,4.257-5.023,6.867h-1.691c0,0-0.379-0.746-0.246-1.211
C89.242,222.984,91.086,220.46,94.293,218.066L94.293,218.066z M80.446,227.656h-1.641c-1.383-1.953-3.438-3.836-5.324-4.957
c-0.774-0.957-1.641-2.141-1.293-2.332C72.211,219.66,79.465,224.563,80.446,227.656L80.446,227.656z M94.328,222.125l-0.035,1.574
c-1.109,1.418-2.039,2.605-2.926,3.957h-1.398C91.242,224.91,94.445,221.382,94.328,222.125L94.328,222.125z M75.516,225.171
c0.508,0.134,2.355,1.896,2.293,2.485l-0.828-0.024c-0.469-0.586-1.02-1.198-1.348-1.804
C75.426,225.449,75.293,225.094,75.516,225.171L75.516,225.171z M94.008,225.656c0.008,0,0.008,0,0.012,0s-0.016,2-0.016,2h-1.402
C92.449,227.628,93.281,226.148,94.008,225.656L94.008,225.656z M94.008,225.656"/>
<path d="M123.18,21.176c-6.871,0-13.82,0.039-21.551,0.121l52.199,74.063l0.039-16.453l-16.75-21.617
c3.813-1.176,8.469-1.988,12.133-2.313c-4.707-10.438-7.063-20.238-4.988-33.672C136.848,21.219,130.055,21.18,123.18,21.176
L123.18,21.176z M143.395,21.648c-0.41,4.742-0.945,10.031-0.086,15.906c-2.719-0.992-3.355,0.699-3.805,0.879
c-0.512-1.141-2.406-3.109-4.547-0.793c-1.117,1.203-0.574,3.469,2.012,4.492c-2.961,0.227-4.5-2.305-5.02-4.914
c-1.602-1.027-3.285-2.039-3.445-5.633l0.82,0.137c-0.273,2.508,2.332,3.785,3.855,2.586c0.988-0.754,1.094-1.918,0.703-3.73
c0.793-0.16,2.648-0.938,2.156-3.32c-0.676-3.289-4.055-2.902-5.598-0.738c-1.285-1.59-3.637-1.883-4.578,0.582
c-0.527,1.375,0.672,2.914,2.031,3.215c-3.02,0.578-4.543-3.586-4.715-6.406l-1.25-2.223
C130.098,21.641,133.668,21.648,143.395,21.648L143.395,21.648z M102.477,21.73l6.063,0.004l44.246,57.254l0.094,14.254
L102.477,21.73z M117.805,21.734l0.969,0.012c0.758,5.039,3.652,8.688,8.609,10.465c0.258,4.117,2.246,9.707,9.777,11.598
c-0.223,4.648,2.766,9.09,5.961,11.223c0,0-0.863,0.211-1.535,0.277c-4.301-3.41-5.359-8.43-5.785-10.5
c-0.145-0.297-0.555-0.371-0.883-0.445c-3.676-1.297-6.773-4.32-8.039-8.008l-0.797-3.621c0.004-0.465-0.094-0.246-1.188-0.648
c-2.836-1.047-5.461-4.113-6.637-7.781C117.641,22.375,117.805,21.734,117.805,21.734L117.805,21.734z M113.906,21.746l3.398,0.004
c0,0,0.02,0.598,0.07,0.988c0.457,3.609,3.695,8.141,7.004,9.645c0.469,0.211,1.117,0.512,1.27,0.652
c0.926,5.918,3.609,9.484,9.27,11.926c0.09,0.094,0.348,0.152,0.422,0.27c0.773,3.66,2.461,7.902,5.668,10.234l-1.387,0.145
L113.906,21.746z M130.5,27.957c0.766,0,1.391,0.625,1.391,1.391c0,0.77-0.625,1.387-1.391,1.387c-0.77,0-1.395-0.617-1.395-1.387
C129.105,28.582,129.73,27.957,130.5,27.957L130.5,27.957z M83.621,35.547c0.082,0.203-18.996,16.34-17.14,46.699l-0.551,0.617
l0.148,0.219c-0.629,0.715-1.234,1.289-1.922,1.984c3.958,2.523,10.852,5.273,10.872,5.203l-1.317,3.051l8.242,2.664l-1.105,2.902
c0,0-5.734-1.902-8.109-2.695c-1.172,2.602-1.883,5.344-2.739,8.051c-0.078,0.215-0.265,0.113-0.558-0.313
c-4.282-7.301-13.075-12.566-12.778-12.047l-31.183,29.586l-0.211,18.284l21.578,22.243c0,0-6.242,3.07-9.199,5.086
c2.297,1.875,4.898,3.32,7.183,5.094c4.727,3.331,7.914,8.23,10.977,11.551c14.445-7.164,28.992-6.767,41.555-2.418
c-1.465,1.543-3.098,2.875-4.605,4.547c3.648,9.578,2.48,28.608,2.297,29.125c7.602-7.767,18.914-24.418,17.402-47.867l3.199-3.207
c-0.059-0.164-8-4.418-11.313-5.344l0.918-2.914l-7.93-2.478l0.883-2.312l7.898,2.285c1.496-3.668,3.082-8.813,3.082-8.813
c3.152,4.718,6.629,9.012,13.785,13.378l31.004-29.664l-0.203-19.073l-21.105-21.109l8.785-4.578
c-0.844-0.68-2.066-1.324-2.938-2.008c-0.063-0.051,0.176-0.195,0.113-0.242c-0.223-0.172-0.383-0.309-0.605-0.465
c-0.051-0.035-0.211,0.191-0.262,0.156c-2.98-2.09-5.961-4.145-8.309-6.648c-0.059-0.063,0.027-0.324-0.031-0.387
c-1.223-1.301-2.434-2.516-3.676-3.797c-0.574-0.582-1.527-1.961-1.527-1.961l-0.055-0.453l-1.332-1.68
c-4.293,2.535-22.594,8.887-40.305,1.852l3.368-3.363c-0.899-2.164-1.477-4.574-1.707-6.551
C83.27,49.816,83.621,35.547,83.621,35.547L83.621,35.547z M139.449,40.035c0.809,0,1.469,0.656,1.469,1.465
c0,0.813-0.66,1.469-1.469,1.469c-0.813,0-1.465-0.656-1.465-1.469C137.984,40.691,138.637,40.035,139.449,40.035L139.449,40.035z
M144.039,41.781c0.75,3.648,2.391,8.945,4.027,12.52l-1.949,0.215c-1.586-1.031-3.266-2.535-3.441-4.672
c-4.297,0.031-5.551-6.703-3.98-5.895c-0.203,2.301,1.449,3.207,3.07,2.98c1.395-0.191,2.598-2.117,0.938-4.242
C143.441,42.398,143.801,42.184,144.039,41.781L144.039,41.781z M83.18,52.57c0.285,4.668,1.203,8.07,2.059,11.598l-8.489,8.004
C77.414,64.867,79.559,58.336,83.18,52.57L83.18,52.57z M123.875,67.941l1.078,1.547c-12.262,7.199-33.191,7.711-45.941,1.637
l1.691-1.609C91.918,74.578,110.172,74.953,123.875,67.941L123.875,67.941z M44.239,70.348c-1.239-0.016-2.665,0.453-4.176,1.605
c-5.625-2.563-9.309,3.43-5.828,7.395c-0.516,2.855-0.907,3.391,1.242,6.281c-2.281,0.289-5.164-0.309-7.613-0.684
c0.414,4.227,6.468,5.211,8.988,4.746c2.722-0.59,5.293,0.758,5.402,0.789c1.602,0.449,2.594,1.219,4.176,1.59
c2.601,0.617,6.414-2.434,6.965-5.328c0.051-0.391,0.172-0.742-0.043-0.801c-1.778,0.453-3.735,1.098-5.469,1.477
c-1.695,0.414-2.977,0.828-4.269,1.84l-0.106-3.496c8.813,0.422,4.977-7.957,4.477-8.316C49.621,74.137,47.653,70.387,44.239,70.348
L44.239,70.348z M124.336,70.609l1.918,4.609l-5.094,1.727l-1.301-4.512L124.336,70.609z M43.871,70.746
c2.996,0.031,5.672,3.184,2.797,6.719c5.574,4.918-1.57,10.188-4.972,6.527c-4.532,4.148-9.344-0.184-6.813-4.699
c-4.832-4.324,1.125-10.125,5.195-6.391C41.078,71.367,42.508,70.734,43.871,70.746L43.871,70.746z M78.645,72.438
c0.719,0,1.301,0.582,1.301,1.297c0,0.719-0.582,1.297-1.301,1.297c-0.715,0-1.297-0.578-1.297-1.297
C77.348,73.02,77.93,72.438,78.645,72.438L78.645,72.438z M45.465,72.531c-0.074,0.004-0.16,0.035-0.258,0.121
c-0.145,0.016-0.461,0.555-1.254,1.473c-1.375,1.594-1.523,1.609-1.523,1.609c-1.465-0.48-2.445-0.223-3.41,0.391
c0,0-1.098-0.211-2.617-1.477c-0.696-0.582-1.067-0.707-1.188-0.395c-0.129,0.328,0.188,0.656,1.516,1.559
c1.84,1.254,1.722,1.156,1.722,1.156c-0.113,1.102,0.067,1.992,0.481,2.824c0,0-0.324,0.781-1.629,2.492
c-0.367,0.484-0.672,1.008-0.672,1.168c-0.004,0.664,0.578,0.219,1.914-1.469c0.524-0.66,1.238-1.609,1.238-1.609
c1.571,0.543,2.118,0.215,3.102-0.133c0,0,0.336,0.25,1.191,0.93c1.563,1.246,1.903,1.379,2.094,1.223
c0.258-0.215,0.227-0.285-0.367-0.711c-1.762-1.277-2.371-2.016-2.371-2.016c0.359-1.398-0.031-2.555-0.418-3.281
c0,0,0.027-0.18,1.023-1.293c0.731-0.816,1.735-2.105,1.672-2.289C45.727,72.688,45.629,72.531,45.465,72.531L45.465,72.531z
M81.574,72.816l4.586,1.426l-1.011,4.766l-4.887-1.574L81.574,72.816z M114.766,73.984l1.277,4.652l-4.77,1.27l-0.781-4.938
L114.766,73.984z M118.113,74.063c0.719,0,1.301,0.582,1.301,1.301c0,0.715-0.582,1.297-1.301,1.297
c-0.715,0-1.297-0.582-1.297-1.297C116.816,74.645,117.398,74.063,118.113,74.063L118.113,74.063z M128.961,74.23l4.012,3.57
l-4.453,2.246l-2.145-4.652L128.961,74.23z M91.141,75.262l4.66,0.547l-0.188,5.008l-5.348-0.715L91.141,75.262z M74.973,75.316
l5.187,2.273l-1.871,5.227l-5.308-2.281L74.973,75.316z M88.34,75.723c1.91,0.297,1.399,2.551,0,2.594
c-0.719,0-1.297-0.582-1.297-1.297C87.043,76.301,87.621,75.723,88.34,75.723L88.34,75.723z M105.105,75.727l0.637,5.008
l-4.836,0.297l-0.105-5.094L105.105,75.727z M108.434,76.297c0.715,0,1.297,0.582,1.297,1.297c0,0.719-0.582,1.301-1.297,1.301
c-0.719,0-1.301-0.582-1.301-1.301C107.133,76.879,107.715,76.297,108.434,76.297L108.434,76.297z M41.086,76.766
c0.738,0,1.34,0.598,1.34,1.34c0,0.738-0.602,1.34-1.34,1.34c-0.742,0-1.34-0.602-1.34-1.34
C39.746,77.363,40.344,76.766,41.086,76.766L41.086,76.766z M98.371,76.719c0.715,0,1.297,0.582,1.297,1.297
c0,0.719-0.582,1.297-1.297,1.297c-0.719,0-1.301-0.578-1.301-1.297C97.07,77.301,97.652,76.719,98.371,76.719L98.371,76.719z
M121.156,77.039l1.887,5.148l-5.289,1.707l-1.492-5.293L121.156,77.039z M124.867,77.176c0.715,0,1.297,0.582,1.297,1.301
c0,0.715-0.582,1.297-1.297,1.297c-0.719,0-1.301-0.582-1.301-1.297C123.566,77.758,124.148,77.176,124.867,77.176L124.867,77.176z
M134.004,78.637l3.414,2.418l-1.691,0.941C135.285,80.934,134.5,79.676,134.004,78.637L134.004,78.637z M85.18,79.105l5.043,1.094
l-0.77,5.281l-5.504-1.098L85.18,79.105z M70.184,79.395l2.676,1.262l-1.766,4.398l-4.332-2.305L70.184,79.395z M82.153,79.68
c0.718,0,1.3,0.582,1.3,1.301c0,0.715-0.582,1.297-1.3,1.297c-0.715,0-1.297-0.582-1.297-1.297
C80.856,80.262,81.438,79.68,82.153,79.68L82.153,79.68z M111.277,79.973l0.898,5.281l-5.688,0.801l-0.352-5.387L111.277,79.973z
M132.57,80.07c0.719,0,1.297,0.582,1.297,1.301c0,0.715-0.578,1.297-1.297,1.297s-1.297-0.582-1.297-1.297
C131.273,80.652,131.852,80.07,132.57,80.07L132.57,80.07z M128.535,80.109l1.883,4.656l-5.563,2.328l-1.648-4.66L128.535,80.109z
M114.348,80.445c0.719,0,1.297,0.582,1.297,1.301c0,0.715-0.578,1.297-1.297,1.297s-1.297-0.582-1.297-1.297
C113.051,81.027,113.629,80.445,114.348,80.445L114.348,80.445z M95.559,80.977l5.324,0.098l-0.063,5.34l-5.832-0.164L95.559,80.977
z M138.141,81.348l2.094,1.453c-21.551,13.859-51.829,15.578-75.457,1.934c0,0,0.964-0.961,1.515-1.523
C87.594,95.957,118.688,94.168,138.141,81.348L138.141,81.348z M92.672,81.949c0.715,0,1.297,0.582,1.297,1.297
c0,0.719-0.582,1.301-1.297,1.301c-0.719,0-1.301-0.582-1.301-1.301C91.371,82.531,91.953,81.949,92.672,81.949L92.672,81.949z
M103.602,82.242c0.719,0,1.301,0.582,1.301,1.301c0,0.715-0.582,1.297-1.301,1.297c-0.715,0-1.297-0.582-1.297-1.297
C102.305,82.824,102.887,82.242,103.602,82.242L103.602,82.242z M78.242,82.957l5.563,1.609l-0.949,4.387l-6.098-1.754
L78.242,82.957z M74.567,82.988c0.714,0,1.297,0.582,1.297,1.301c0,0.715-0.583,1.297-1.297,1.297c-0.719,0-1.301-0.582-1.301-1.297
C73.266,83.57,73.848,82.988,74.567,82.988L74.567,82.988z M117.754,83.926l1.328,4.926l-6.148,1.313l-0.742-4.844L117.754,83.926z
M121.285,84.641c0.715,0,1.297,0.578,1.297,1.297c0,0.715-0.582,1.297-1.297,1.297c-0.719,0-1.301-0.582-1.301-1.297
C119.984,85.219,120.566,84.641,121.285,84.641L121.285,84.641z M40.973,85.402l-0.012,3.457c-1.019-0.84-2.172-1.734-3.351-2.641
C38.813,86.281,39.93,85.949,40.973,85.402L40.973,85.402z M28.309,85.488c0.281-0.004,0.937,0.227,1.722,0.227
c2.5-0.012,7.176,0.77,8.559,1.906c0.461,0.379,1.152,0.711,1.527,1.32c0,0.293-0.41,0.301-1.015-0.074
c-1.16-0.723-3.086-1.363-5.668-1.723c-0.465-0.063-0.524-0.043-0.528,0.176c0,0.27,0.43,0.43,1.79,0.652
c1.761,0.289,2.136,0.461,2.523,0.57c1.047,0.285,0.379,0.668-0.695,0.77c-4.391,0.41-7.676-1.477-8.336-3.633
C28.133,85.535,28.184,85.488,28.309,85.488L28.309,85.488z M89.449,85.566l5.52,0.715l-0.25,4.621l-6.043-0.691L89.449,85.566z
M42.496,85.969c0.961,0.758,0.301,3.051-0.226,3.727c-0.34,0.379-1.137,0.18-1.133-0.355c0.121-0.477-0.047-2.762,0.055-3.469
C41.578,85.652,42.145,85.715,42.496,85.969L42.496,85.969z M106.48,86.172l0.285,4.766l-6.023,0.273l0.047-4.68L106.48,86.172z
M86.156,86.492c0.719,0,1.297,0.582,1.297,1.301c0,0.715-0.578,1.297-1.297,1.297c-0.714,0-1.296-0.582-1.296-1.297
C84.86,87.074,85.442,86.492,86.156,86.492L86.156,86.492z M52.59,86.559c0.223,3.496-5.144,5.867-7.156,4.797
c-0.887-0.477-0.52-0.77,1.246-1.125c2.281-0.605,3.785-1.191,3.785-1.621c0.004-0.262-0.344-0.23-1.273,0.117
c-1.434,0.48-2.922,0.688-4.289,1.301c-1.024,0.465-1.422,0.629-1.653,0.348c-0.48-0.582,1.793-2.059,4.149-2.453
C49.164,87.629,50.949,86.688,52.59,86.559L52.59,86.559z M109.805,86.996c0.715,0,1.297,0.582,1.297,1.297
c0,0.719-0.582,1.301-1.297,1.301c-0.719,0-1.301-0.582-1.301-1.301C108.504,87.578,109.086,86.996,109.805,86.996L109.805,86.996z
M97.73,87.945c0.715,0,1.297,0.582,1.297,1.301c0,0.715-0.582,1.297-1.297,1.297c-0.719,0-1.301-0.582-1.301-1.297
C96.43,88.527,97.012,87.945,97.73,87.945L97.73,87.945z M126.66,90.152c8.688,8.273,18.211,17.797,26.066,25.633
c-0.008,4.102-0.031,12.3-0.031,12.3l-30,28.513c-5.434-3.316-10.031-7.466-14.266-14.828c0.477-0.41,0.895-0.672,1.258-1.125
l-1.563,0.938c-5.535-8.852-7.883-26.484,1.516-40.621l-9.496,0.348l1.551-3.234l10.34-0.566l4.18-4.484c0,0,1.324-0.246,2.422-0.5
c1.09-0.25,3.313-0.887,4.941-1.414S126.598,90.152,126.66,90.152L126.66,90.152z M56.524,92.445c0,0,8.929,4.852,13.886,14.57
c-16.027,13.785-22.066,29.84-23.429,46.547c-8.723-8.156-13.129-12.672-21.012-20.594l0.285-11.824L56.524,92.445z M90.235,93.984
c-2.313,4.941-4.301,10.352-6.079,16.148l-2.484-0.734c0,0,1.606-0.672,2.32-1.098l-1.289-2.078l2.446-1.004l-1.446-1.762
l2.481-1.438l-1.238-1.559l2.269-1.137l-1.41-1.621l2.383-1.328l-1.242-1.555L90.235,93.984z M90.996,93.996
c0,0,0.316,0.063,0.695,0.137c0.09-0.035-0.449,1.293-0.391,1.34c0.867,0.18,0.918,0.133,1.176,0.211l0.664-1.371l1.082,0.207
c-2.188,4.941-4.531,10.352-5.875,16.203l-1.277-0.266c0,0,0.371-1.234,0.375-1.398c-0.153-0.031-0.872-0.336-1.094-0.426
c-0.078,0.195-0.535,1.625-0.535,1.625l-1.012-0.027C86.461,103.836,89.352,96.75,90.996,93.996L90.996,93.996z M95.156,94.188
l2.27,1.875l-2.574,1.004l1.332,1.773l-2.727,0.984l1.563,1.844l-2.699,0.996l1.609,2.23l-2.809,0.945l1.773,1.961l-2.535,1.184
l1.519,1.504c0,0-1.582,0.523-1.672,0.543c-0.254,0.066-1.32-0.195-1.32-0.195C90.492,105.133,92.469,99.348,95.156,94.188
L95.156,94.188z M39.977,95.137c-0.629,0.406-0.27,1.293-1.055,2.047c-0.129,0.137-0.137,0.449-0.187,0.719
c-0.036,0.207-0.657,2.676-0.657,2.676s0.157-0.188,0.403-0.977c0.215-0.672,0.398-1.945,0.511-2.16
c0.582-0.176,0.668-2.066,1.254-1.805c0.34,0.148,0.278,0.457,0.086,1.18c-0.418,1.449-0.582,2.059,0.133,1.07
c1.074-1.289,1.176-2.453-0.031-2.699C40.309,95.164,40.051,95.141,39.977,95.137L39.977,95.137z M56.18,95.676l-28.031,26.32
l-0.086,9.82l9.758,9.887l6.921,6.715c2.516-15.031,8.282-29.371,22.477-41.781C65.043,103.137,61.317,98.73,56.18,95.676
L56.18,95.676z M131.742,95.945c-16.469,7.742-20.258,23.617-15.156,37.988C124.434,123.84,130.594,114.355,131.742,95.945
L131.742,95.945z M73.121,96.75l7.481,2.406l-2.817,9.605l-6.738-2.043l-0.687-1.703L73.121,96.75z M130.918,97
c-0.719,12.844-5.563,25.391-13.988,35.234C112.668,121.723,115.23,104.914,130.918,97L130.918,97z M90.629,97.07l-0.473,1.191
l1.036,0.293l0.441-1.211L90.629,97.07z M89.59,99.891l-0.422,1.211l1.063,0.359l0.398-1.23L89.59,99.891z M133.719,100.109
c-2.309,17.816-11.934,34.031-22.102,42.297c3.238,5.254,7.051,8.637,10.922,11.457l28.648-27.442l-0.113-9.151L133.719,100.109z
M58.016,104.84c-0.176,0.652-0.238,0.98-0.238,0.98s0.328-0.305,1.199-0.781c5.629-2.805,3.812,1.465,1.16,3.043
c-0.59,0.316-1.199,0.691-1.199,0.691s0.563,0.125,1.172,0.238c3.418,0.711,2.691,2.707-0.871,2.398
c-0.528-0.047-1.149-0.145-1.149-0.117c0,0.031,0.215,0.781,0.461,1.402c1.199,3.023-1.039,3.258-2.512,1.336
c-0.207-0.266-0.672-1.008-0.672-1.008s-0.144,0.559-0.234,1.102c-1.273,4.742-4.414,4.621-3.242-0.191
c0.148-0.496,0.328-1.387,0.328-1.387s-0.707,0.43-1.477,0.77c-4.066,1.816-4.73-0.051-1.035-2.785
c1.055-0.777,1.41-1.082,1.41-1.082c-0.656-0.051-1.257-0.152-1.793-0.285c-2.945-0.738-3.73-2.5,0.993-2.418
c0.695,0.012,1.406,0.059,1.406,0.059s-0.231-1.012-0.477-1.777c-1.14-3.531,1.157-3.953,3.094-0.785
c0.41,0.672,0.531,0.676,0.531,0.676c-0.062,0.004,0.121-1.207,0.59-2.324C57.805,98.25,58.723,102.215,58.016,104.84L58.016,104.84
z M108.68,101.324c-1.969,3.477-3.684,6.934-4.5,10.535l-7.656-0.129c0.531-3.199,1.883-6.52,3.496-10.035
C103.137,101.609,105.945,101.473,108.68,101.324L108.68,101.324z M88.473,102.863l-0.442,1.281l1.11,0.34l0.402-1.246
L88.473,102.863z M31.231,105.266c-0.821,2.129-1.094,4.504-1.551,6.406c-0.191,1.102,0.004,1.563,0.668,1.809
c0.937,0.348,2.297-0.129,3.055-1.215c0.429-0.613,0.738-1.879,0.804-4.109l0.074-1.992
C33.117,105.949,32.321,105.637,31.231,105.266L31.231,105.266z M87.438,105.543l-0.367,1.176l1.07,0.395l0.406-1.184
L87.438,105.543z M137.008,105.984c1.305,0.031,1.547,0.148,2.727,0.844l2.273,2.344c-0.594,0.57-0.969,1.371-0.969,2.262
c0,1.734,1.406,3.141,3.137,3.141c0.859,0,2.203-0.906,2.203-0.906l3.609,3.734c-2.598,1.141-5.125-2.359-5.254-2.359
c0.566-0.594-1.508,7.148-3.465,6.82c-1.77-0.293,0.031-7.313,0.051-7.148c-1.215,1.281-7.133,2.648-6.719,1.215
c0.824-2.848,5.25-3.945,5.832-4.438C138.078,110.074,135.094,106.148,137.008,105.984L137.008,105.984z M31.516,106.074
c0.75,0.055,1.265,0.145,1.773,0.355c0.239,0.066,0.25,0.262,0.278,0.449c0.004,0.84,0.214,3.309-0.567,3.336
c-0.863-0.02-1.679,0.168-2.25,0.602c-0.457,0.352-0.609,0.098-0.484-0.801c0.121-0.867,0.551-2.695,0.738-3.434
C31.031,106.277,31.274,106.063,31.516,106.074L31.516,106.074z M54.906,106.105c-1.734,0-3.136,1.406-3.136,3.141
c0,1.73,1.402,3.137,3.136,3.137c1.731,0,3.137-1.406,3.137-3.137C58.043,107.512,56.637,106.105,54.906,106.105L54.906,106.105z
M54.906,107.203c1.125,0,2.04,0.914,2.04,2.043c0,1.125-0.915,2.035-2.04,2.035s-2.042-0.91-2.042-2.035
C52.864,108.117,53.781,107.203,54.906,107.203L54.906,107.203z M71.094,107.242c7.191,12.414,6.359,29.453-2.121,41.847
l9.117-0.636l-1.199,2.332l-9.719,0.945c-1.484,1.358-2.836,2.914-4.297,4.367l-0.015,0.516c-3.329,0.773-6.664,1.664-10.059,2.887
c-1.793-1.762-5.164-5.277-5.145-5.368l0.219-1.14c23.11-11.789,16.348-35.438,14.723-37.383
C65.078,112.633,68.035,109.832,71.094,107.242L71.094,107.242z M135.234,109.5c0.938,0,1.695,0.758,1.695,1.695
s-0.758,1.695-1.695,1.695c-0.934,0-1.695-0.758-1.695-1.695S134.301,109.5,135.234,109.5L135.234,109.5z M142.77,109.957
l2.84,2.922c-0.367,0.363-0.871,0.594-1.434,0.594c-1.125,0-2.039-0.91-2.039-2.039C142.137,110.855,142.379,110.328,142.77,109.957
L142.77,109.957z M45.227,110.32c0.937,0,1.691,0.754,1.691,1.691c0,0.934-0.754,1.695-1.691,1.695
c-0.938,0-1.696-0.762-1.696-1.695C43.531,111.074,44.289,110.32,45.227,110.32L45.227,110.32z M32.614,111.031
c0.792,0.262,0.609,1.004-0.415,1.656c-0.664,0.422-1.273,0.516-1.855,0.203C29.235,112.301,31.531,110.645,32.614,111.031
L32.614,111.031z M45.719,115.18l-10.215,9.879c0.645-1.641,0.668-3.277,0.715-4.918c3.074,0.316,4.359-1.242,3.91-4.453
C42.114,115.809,44.172,115.598,45.719,115.18L45.719,115.18z M62.082,116.309c4.735,13.5,0.621,27.789-14.191,36.066
C48.504,139.434,53.934,127.066,62.082,116.309L62.082,116.309z M75.571,117.488c8.128,2.129,17.378,3.121,26.984,3.129
c0.074,3.652,0.25,7.52,0.996,11.25c-8.18-2.141-17.32-3.137-27.305-2.961C76.66,125.043,75.996,120.664,75.571,117.488
L75.571,117.488z M135.84,119.488l-8.656,10.117l0.363-5.523c2.914,0.371,3.953-1.168,3.523-4.203
C132.66,120.074,134.25,119.797,135.84,119.488L135.84,119.488z M51.739,120.047l-0.684,4.043c-1.731,0.047-3.426,0.66-3.402,4.516
l-5.161-0.063L51.739,120.047z M146.992,120.793c0.934,0,1.691,0.762,1.691,1.695c0,0.938-0.758,1.699-1.691,1.699
c-0.938,0-1.699-0.762-1.699-1.699C145.293,121.555,146.055,120.793,146.992,120.793L146.992,120.793z M43.887,121.309
c0.934,0,1.695,0.758,1.695,1.695s-0.761,1.691-1.695,1.691c-0.938,0-1.699-0.754-1.699-1.691S42.949,121.309,43.887,121.309
L43.887,121.309z M143.207,123.047l-0.902,6.121c-2.359-0.208-4.328,0.156-3.723,4.305c-1.996-0.195-4.766,0.273-6.621,0.434
L143.207,123.047z M134.758,124.156c0.934,0,1.695,0.758,1.695,1.695s-0.762,1.691-1.695,1.691c-0.938,0-1.695-0.754-1.695-1.691
S133.82,124.156,134.758,124.156L134.758,124.156z M31.461,125.469c0.934,0,1.695,0.762,1.695,1.695
c0,0.938-0.761,1.695-1.695,1.695c-0.937,0-1.695-0.758-1.695-1.695C29.766,126.23,30.524,125.469,31.461,125.469L31.461,125.469z
M37.082,127.473c2.164,0.487,1.164,5.534,0.676,6.905c-0.039,0.04,6.039-3.183,6.402-1.761c0.239,2.852-5.031,4.836-5.031,4.836
s3.551,3.086,3.652,5.023c0.008,1.254-1.484,1.023-3.425-0.566c-0.828-0.816-1.469-1.426-2.039-1.992
c0.668-0.574,1.086-1.426,1.086-2.375c0-1.73-1.407-3.137-3.137-3.137c-0.957,0-1.813,0.429-2.387,1.105
c-0.453-0.434-0.961-0.938-1.644-1.586c-1.121-1.048-1.907-1.88-1.793-2.255c1.476-1.043,4.418,1.755,4.679,2.009
C33.903,133.132,35.528,127.766,37.082,127.473L37.082,127.473z M34.121,133.68c0.012,0.027,0.028,0.047,0.051,0.047
C34.172,133.727,34.133,133.691,34.121,133.68L34.121,133.68z M126.414,131.414c1.031-0.012,0.965,2.332,0.602,3.546
c-0.254,0.931-0.5,1.692-0.5,1.692s0.867-0.68,1.25-0.859c2.805-1.313,3.848,0.176,2.438,1.898c-0.68,0.887-1.605,1.082-2.359,1.828
c1.07,0.047,2.301,0.285,3.227,0.828c0.719,0.43,1.285,0.953,1.285,1.277c-0.004,0.723-1.785,1.113-3.449,0.926
c-0.707,0.016-2.039-0.363-2.039-0.363s0.551,0.93,0.754,1.483c0.621,1.724,0.402,3.743-0.496,3.739
c-1.504-0.398-2.234-2.071-2.824-3.27c-0.48,1.336-0.949,2.77-2.023,3.762c-1.066,0.984-1.613,0.168-1.559-1.504
c0.023-0.664,0.512-2.646,0.512-2.646c-6.313,2.129-5.844-0.753-0.918-3.276c-3.035-1.449-4.879-2.75,0.285-3.047
c-0.137-0.121-1.039-2.887-0.074-3.535c0.895-0.602,2.805,1.465,2.898,1.565c-0.039-0.203,0.5-1.823,1.41-2.94
C125.527,131.734,126.043,131.421,126.414,131.414L126.414,131.414z M120.598,137.43c0.004,0.008,0.012,0.008,0.012,0H120.598
L120.598,137.43z M148.23,135.605c-1.098,0.102-1.781,1.074-2.293,1.926c-0.102,0.172-0.293,0.234-0.363,0.461
c-0.453,1.468-0.852,3.227-1.098,5.41c0.699,0.289,2.27,0.769,2.965,0.512c0.195-0.082,0.133-0.586,0.199-0.754
C149.621,138.175,149.793,135.464,148.23,135.605L148.23,135.605z M35.274,135.48c1.125,0,2.039,0.914,2.039,2.039
c0,0.648-0.301,1.223-0.774,1.598c-1.312-1.313-1.984-1.996-2.867-2.86C34.047,135.785,34.625,135.48,35.274,135.48L35.274,135.48z
M148.621,136.453c0.273,0.668-0.613,1.395-1.758,1.391c-0.684-0.005-0.902,0.094-0.602-0.5
C146.625,136.625,148.094,135.171,148.621,136.453L148.621,136.453z M133.238,135.98c0.938,0,1.695,0.758,1.695,1.695
c0,0.934-0.758,1.691-1.695,1.691s-1.695-0.758-1.695-1.691C131.543,136.738,132.301,135.98,133.238,135.98L133.238,135.98z
M43.824,136.098c0.934,0,1.696,0.758,1.696,1.691c0,0.938-0.762,1.699-1.696,1.699c-0.937,0-1.691-0.762-1.691-1.699
C42.133,136.855,42.887,136.098,43.824,136.098L43.824,136.098z M124.016,136.785c-1.734,0-3.137,1.406-3.137,3.136
c0,1.735,1.402,3.142,3.137,3.142c1.73,0,3.137-1.406,3.137-3.142C127.152,138.191,125.746,136.785,124.016,136.785L124.016,136.785
z M82.086,137.207c-0.828,3.617-2.097,7.07-3.699,10.492c-3.023,0.179-6.293,0.32-8.449,0.629c3.59-6.289,3.676-7.77,5.008-11.102
L82.086,137.207z M87.281,137.719c0.848,0.098,1.782,0.227,2.622,0.391c-1.547,5.434-3.586,11.012-6.223,16.383l-1.594-0.25
l-0.758-0.934l2.536-1.013l-1.977-2.019l3.273-0.988l-2.011-1.984l3.23-0.809l-1.73-2.102l2.902-1.133l-1.844-2.38l3.094-0.851
L87.281,137.719z M124.016,137.882c1.125,0,2.039,0.914,2.039,2.039c0,1.13-0.914,2.039-2.039,2.039s-2.039-0.909-2.039-2.039
C121.977,138.796,122.891,137.882,124.016,137.882L124.016,137.882z M90.481,138.191l1.078,0.176l-0.332,1.156l1.227,0.262
l0.398-1.25c0,0,0.988,0.093,1.094,0.172c-1.285,5.246-5.835,16.223-5.895,16.168l-1.172-0.176l0.309-1.11l-1.09-0.151v-0.012
l-0.524,1.202l-1.164-0.093C87.227,148.102,89.145,143.168,90.481,138.191L90.481,138.191z M147.75,138.609
c0.867-0.004,0.813,0.441,0.188,2.07c-0.59,1.53-0.809,2.145-1.094,2.344c-0.684,0.483-2.148,0.078-2.031-0.625
c0.387-2.289,0.523-3.267,1.113-3.574C146.543,138.703,147.141,138.613,147.75,138.609L147.75,138.609z M94.816,138.801l2.813,0.543
l-2.352,1.398l1.492,1.746l-2.891,1.234l1.758,1.816l-2.793,1.141l1.699,1.995l-2.895,1.224l1.969,1.707l-3.253,1.026l1.234,1.896
l-1.227,0.683l-1.507-0.237C91.371,149.125,92.98,144.313,94.816,138.801L94.816,138.801z M101.727,140.199l5.512,1.5l1.102,1.965
l-2.586,8.73l-7.34-2.156L101.727,140.199z M90.777,141.039l-0.523,1.434l1.211,0.254l0.469-1.477L90.777,141.039z M89.711,144.332
l-0.523,1.434l1.136,0.223l0.54-1.445L89.711,144.332z M88.637,147.227l-0.535,1.426l1.109,0.226l0.528-1.429L88.637,147.227z
M140.406,149.852c0,0-0.648,0.48-0.656,0.68c0.125,0.324,0.422,0.738,0.371,1.066c-0.051,0.25-0.328,0.448-0.742,0.891
c-1.039,1.207-1.402,1.078-0.801-0.211c0.199-0.406,0.285-0.781,0.285-0.781c-0.238,0.336-0.418,0.734-0.582,1.05
c-0.344,0.657-0.66,1.282-0.66,1.282c0.66,0.227,1.098,0.718,1.523,1.035c0,0,0.219-0.582,0.367-1.141
c0.211-0.781,0.625-1.102,1.129-1.367c0.32-0.172,0.625-0.48,0.625-0.48C140.707,151.309,140.645,150.496,140.406,149.852
L140.406,149.852z M87.489,150.203l-0.567,1.516l1.106,0.273l0.613-1.551L87.489,150.203z M25.149,154.02
c-0.102,6.047,0.101,10.026-0.11,16.551l16.371,21.215l-2.554,0.859c0,0-0.028,0.293-0.168,0.332
c-3.496,0.961-9.172,1.918-9.172,1.918c4.219,9.637,6.957,21.688,5.07,33.727l42.371-0.114L25.149,154.02z M114.762,164.266
l-1.461,1.465c-21.547-11.66-51.227-11.617-72.887,2.504l-1.765-1.293C62.289,151.796,91.367,151.891,114.762,164.266
L114.762,164.266z M25.942,156.141l49.871,71.641l-5.855,0.086l-43.972-57.523L25.942,156.141z M132.969,157.434
c0,0-1.441,0.375-2.652,0.762c-3.465,1.109-5.086,3.113-4.766,5.898c0.094,0.82,0.305,0.809,1.719-0.082
c3.305-2.086,3.512-2.18,7.625-3.387c0.32-0.09,0.781-0.023,0.781-0.023l-0.18,3.25c-6.863-0.023-6.488,5.426-4.516,8.258
c-0.688,1.312-2.199,5.883,2.777,7.625c2.48,0.492,5.109-1.524,5.031-1.629c4.578,2.168,9.891-1.465,5.746-7.754
c1.559-2.742,0.461-4.777-1.027-6.531c0,0,0.254,0.023,2.418,0.422c3.289,0.609,4.547,0.5,4.547,0.5
c0.004-2.961-2.449-4.282-7.559-4.684C139.293,160.57,132.969,157.41,132.969,157.434L132.969,157.434z M77.762,157.777
c0.246,0,0.492,0,0.738,0.004l-0.242,5.054l-5.566,0.259l-0.364-5.035C74.246,157.926,76.028,157.785,77.762,157.777L77.762,157.777
z M84.434,157.902l5.972,0.726l-0.902,4.728L84,162.762L84.434,157.902z M132.758,157.957c0.617-0.016,0.48,0.625-0.238,0.766
c-1.074,0.211-3.828,1.813-3.828,2.23c0,0.266,0.137,0.227,1.145-0.313c0.504-0.27,1.555-0.727,2.332-1.023s1.668-0.653,1.98-0.793
c0.926-0.414,1.383-0.129,1.051,0.664c-0.223,0.519-0.309,0.563-2.457,1.242c-1.941,0.617-2.297,0.776-3.531,1.565
c-0.457,0.293-1.273,0.767-1.813,1.043c-1.266,0.657-1.523,0.661-1.52-0.226c-0.07-2.617,2.824-4.582,6.75-5.145
C132.676,157.96,132.719,157.957,132.758,157.957L132.758,157.957z M81.184,158.57c0.746,0,1.351,0.604,1.351,1.351
c0,0.75-0.605,1.356-1.351,1.356c-0.746,0-1.352-0.606-1.352-1.356C79.832,159.175,80.438,158.57,81.184,158.57L81.184,158.57z
M66.406,158.93l0.442,4.586l-5.473,1.405l-1.254-4.733C62.215,159.671,64.309,159.313,66.406,158.93L66.406,158.93z
M136.938,159.277c1.5,0.229,1.379,3.668,0.613,4.262c-1.18,0.852-1.906-0.926-1.379-3.289
C136.32,159.543,136.594,159.293,136.938,159.277L136.938,159.277z M69.512,159.464c0.746,0,1.352,0.606,1.352,1.353
s-0.606,1.352-1.352,1.352s-1.352-0.605-1.352-1.352S68.766,159.464,69.512,159.464L69.512,159.464z M96.258,159.859l6.188,1.687
l-1.512,4.789l-5.809-1.632L96.258,159.859z M92.887,159.949c0.746,0,1.352,0.605,1.352,1.355c0,0.746-0.605,1.352-1.352,1.352
s-1.352-0.605-1.352-1.352C91.535,160.555,92.141,159.949,92.887,159.949L92.887,159.949z M143.523,160.352
c2.668,0.026,6.184,1.367,6.191,3.43c-0.055,0.586-5.586-0.196-8.141-1.223c-0.906-0.363-2.012-1.477-2.012-1.941
c0.004-0.273,0.543-0.254,0.762,0.011c0.359,0.438,1.633,0.896,4.559,1.634c2.25,0.566,2.473,0.586,2.473,0.245
c0.004-0.308-1.324-0.737-2.766-0.976c-0.723-0.117-1.398-0.336-2.512-0.434c-0.516,0-0.645-0.328-0.211-0.547
C142.336,160.41,142.91,160.348,143.523,160.352L143.523,160.352z M138.813,161.418c0.676,0.316,0.918,0.945,1.289,1.277
c-0.461,0.219-0.668,0.437-1.414,0.492C138.699,162.695,138.566,162.105,138.813,161.418L138.813,161.418z M57.754,161.789
c0.746,0,1.352,0.605,1.352,1.352c0,0.75-0.606,1.355-1.352,1.355s-1.351-0.605-1.351-1.355
C56.403,162.395,57.008,161.789,57.754,161.789L57.754,161.789z M54.114,162.171l1.46,4.685l-5.23,2.276l-1.855-4.64
C50.297,163.539,52.274,162.848,54.114,162.171L54.114,162.171z M78.305,162.938c0,0,4.168,0.004,5.605,0.022l-0.336,5.286
l-5.199,0.039L78.305,162.938z M72.739,163.227l0.289,5.276l-5.008,0.673l-0.989-5.309L72.739,163.227z M104.398,163.273
c0.746,0,1.352,0.604,1.352,1.352c0,0.746-0.605,1.352-1.352,1.352s-1.352-0.605-1.352-1.352
C103.047,163.878,103.652,163.273,104.398,163.273L104.398,163.273z M140.629,163.398c3.051,0.012,5.957,3.52,2.945,7.19
c4.941,3.806-0.43,10.196-4.797,6.47c-6.246,6.137-9.738-2.195-7.152-4.402c-3.82-6.274,0.871-10.238,5.711-7.469
C138.227,163.921,139.438,163.391,140.629,163.398L140.629,163.398z M89.59,163.546l5.496,1.224l-1.105,5.219l-5.367-1.09
L89.59,163.546z M107.773,163.675l5.023,2.496l-3.895,3.747l-2.895-1.441L107.773,163.675z M75.571,164.266
c0.746,0,1.351,0.605,1.351,1.352c0,0.75-0.605,1.355-1.351,1.355c-0.747,0-1.352-0.605-1.352-1.355
C74.219,164.871,74.824,164.266,75.571,164.266L75.571,164.266z M86.422,164.438c0.75,0,1.356,0.605,1.356,1.352
s-0.606,1.352-1.356,1.352C84.434,166.828,84.969,164.48,86.422,164.438L86.422,164.438z M61.406,165.199l1.223,5.219l-5.09,1.719
l-1.82-5.087L61.406,165.199z M64.903,165.57c0.746,0,1.351,0.605,1.351,1.351c0,0.747-0.605,1.353-1.351,1.353
c-0.747,0-1.352-0.605-1.352-1.353C63.551,166.176,64.156,165.57,64.903,165.57L64.903,165.57z M140.227,167.977
c-0.383,0.477-0.883,1.035-0.883,1.035c-1.266-0.523-2.496-0.313-3.316,0.25c0,0-0.871-0.695-1.668-1.341
c-1.383-1.116-1.84-1.37-1.844-0.905c0,0.098,0.469,0.573,1.039,1.066c1.559,1.332,1.875,1.813,1.875,1.813
c-0.371,1.207-0.367,2.156,0.348,3.172c0,0,0.027,0.133-0.52,0.707c-0.992,1.047-2.016,2.664-1.777,2.902
c0.293,0.293,1.121-0.414,2.16-1.82c0.742-1,0.965-1.023,0.965-1.023c1.266,0.343,1.965,0.652,3.23-0.391c0,0,0.477,0.144,1.43,0.93
c1.484,1.227,2.016,1.488,2.18,1.074c0.129-0.34-0.066-0.567-1.324-1.524c-0.816-0.62-1.727-1.351-1.727-1.351
c0.266-0.442,0.457-2-0.461-3.07c0,0,0.039,0.07,1.391-1.684c0.902-1.168,1.059-1.313,0.758-1.563
C141.684,165.73,140.363,167.809,140.227,167.977L140.227,167.977z M100.984,166.48l4.957,2.082l-1.773,5.184l-4.789-1.957
L100.984,166.48z M46.438,166.828c0.746,0,1.351,0.605,1.351,1.352c0,0.745-0.605,1.352-1.351,1.352
c-0.75,0-1.356-0.606-1.356-1.352C45.082,167.434,45.688,166.828,46.438,166.828L46.438,166.828z M97.148,166.969
c0.746,0,1.352,0.605,1.352,1.352s-0.605,1.351-1.352,1.351s-1.352-0.604-1.352-1.351S96.402,166.969,97.148,166.969L97.148,166.969
z M42.973,167.339l1.625,4.017l-3.692-2.75L42.973,167.339z M83.656,168.375l4.938,0.582l-0.781,4.707l-4.258-0.387L83.656,168.375z
M78.266,168.387l-0.051,4.836l-4.687,0.202l-0.399-4.831L78.266,168.387z M54.133,169.266c0.746,0,1.352,0.605,1.352,1.352
c0,0.75-0.606,1.355-1.352,1.355s-1.352-0.605-1.352-1.355C52.781,169.871,53.387,169.266,54.133,169.266L54.133,169.266z
M50.391,169.363l1.91,4.859l-2.961,1.43l-3.969-3.754L50.391,169.363z M68.047,169.426l0.766,4.625l-4.895,1.206l-1.183-4.702
L68.047,169.426z M137.965,169.473c1.063,0,1.926,0.862,1.926,1.926c0,1.065-0.863,1.93-1.926,1.93c-1.066,0-1.93-0.864-1.93-1.93
C136.035,170.335,136.898,169.473,137.965,169.473L137.965,169.473z M80.727,169.617c0.75,0,1.355,0.605,1.355,1.352
c0,0.75-0.605,1.355-1.355,1.355c-0.746,0-1.352-0.605-1.352-1.355C79.375,170.223,79.981,169.617,80.727,169.617L80.727,169.617z
M94.051,170.117l5.215,1.688l-1.754,4.176l-4.504-1.219L94.051,170.117z M70.934,170.289c0.746,0,1.351,0.605,1.351,1.355
c0,0.746-0.605,1.352-1.351,1.352s-1.352-0.605-1.352-1.352C69.582,170.895,70.188,170.289,70.934,170.289L70.934,170.289z
M90.766,170.789c0.746,0,1.352,0.605,1.352,1.352s-0.605,1.352-1.352,1.352s-1.352-0.605-1.352-1.352S90.02,170.789,90.766,170.789
L90.766,170.789z M57.645,172.371l1.797,4.136l-4.907,2.121l-2.136-4.214L57.645,172.371z M61.121,172.621
c0.746,0,1.356,0.605,1.356,1.352s-0.61,1.352-1.356,1.352c-0.746,0-1.351-0.605-1.351-1.352S60.375,172.621,61.121,172.621
L61.121,172.621z M79.203,173.867c8.055-0.016,15.329,1.668,21.165,4.086l-1.738,1.629c-18.933-6.508-31.316-3.575-44.015,1.996
l-1.286-1.586C62.305,175.602,71.145,173.887,79.203,173.867L79.203,173.867z M100.625,173.918c0.746,0,1.352,0.605,1.352,1.352
c0,0.75-0.605,1.355-1.352,1.355c-0.75,0-1.355-0.605-1.355-1.355C99.27,174.523,99.875,173.918,100.625,173.918L100.625,173.918z
M51.278,176.887c1.086,0.063,1.191,2.09,0.683,1.508l-1.211-1.398C50.949,176.91,51.121,176.875,51.278,176.887L51.278,176.887z
M101.898,177.723c-0.039,1.539-1.496,11.844-6.41,18.926c-0.297-3.582-1.164-7.867-2.129-10.728
C93.359,185.921,98.648,181.039,101.898,177.723L101.898,177.723z M39.035,193.339L64.61,227.82l-2.688-0.021
c-0.562-2.53-1.371-5.12-2.969-7.058c-1.293-1.574-2.453-2.758-4.773-3.813c-1.399-0.637-1.578-0.5-1.668-1.574
c-0.422-6.031-5.305-9.824-9.043-11.267c-0.363-3.647-2.008-7.233-6.133-10.254L39.035,193.339z M36.547,194.164
c2.336,1.605,4.895,3,6.277,9.328c0.102,1.324,0.184,1.184,1.223,1.574c4.074,1.195,7.621,6.094,7.938,10.375
c-0.004,1.289,0.418,1.406,2.007,2.074c1.957,0.819,3.985,2.555,5.133,4.266c1.707,2.457,2.313,6.176,2.164,6l-1.406,0.008
c-1.004-6.309-4.973-8.825-9.172-10.004c0.328-8.903-6.597-11.684-9.015-12.102c0.144-6.414-4.008-9.059-6.684-11.211
C35.508,194.273,36.547,194.164,36.547,194.164L36.547,194.164z M32.41,195.05c2.09,0.685,3.676,3.599,3.516,4.938
c2.758,0.347,5.656,3.015,5.02,5.793c-0.204,0.117-0.524,0.14-0.844-0.18c0.738-5.388-7.305-2.72-4.09,1.18l-1.438,0.938
c-1.156-5.391-2.582-8.449-4.125-12.344C31.012,195.227,32.41,195.05,32.41,195.05L32.41,195.05z M39.071,206.348
c0.714,0,1.293,0.582,1.293,1.297s-0.579,1.293-1.293,1.293c-0.715,0-1.293-0.578-1.293-1.293S38.356,206.348,39.071,206.348
L39.071,206.348z M45.977,212.164c3.074,0.871,4.066,3.98,3.965,5.113l-0.672-0.016c-1.078-4.93-6.696-2.246-4.352,1.68
c-3,1.109-2.762,3.883-1.879,4.977c1.219,1.512,4.328,1.464,5.278-0.863c2.918,3.777,6.945-0.461,3.394-3.977
c2.91,1.07,3.375,4.968,2.938,6.184c1.351,0.461,2.906,2.605,2.699,2.594l-21.801,0.004c0,0,1.055-8.797-0.066-15.438
c1.453,0.349,2.425,0.7,4.093-1.257c2.7,2.234,4.641,0.546,4.5-1.383c-0.207-1.352-0.906-2.024-2.062-2.738
C44.375,206.46,46.164,210.55,45.977,212.164L45.977,212.164z M48.41,218.363c0.735,0,1.332,0.597,1.332,1.332
c0,0.738-0.597,1.332-1.332,1.332c-0.734,0-1.332-0.594-1.332-1.332C47.078,218.96,47.676,218.363,48.41,218.363L48.41,218.363z
M48.41,218.363"/>
</svg>
