<?xml version="1.0" encoding="utf-8"?>
<!DOCTYPE svg PUBLIC "-//W3C//DTD SVG 1.1//EN" "http://www.w3.org/Graphics/SVG/1.1/DTD/svg11.dtd" [
<!ENTITY ns_svg "http://www.w3.org/2000/svg">
<!ENTITY ns_xlink "http://www.w3.org/1999/xlink">
]>
<svg version="1.1" id="Layer_1" xmlns="&ns_svg;" xmlns:xlink="&ns_xlink;" width="179.379" height="250.246"
viewBox="0 0 179.379 250.246" overflow="visible" enable-background="new 0 0 179.379 250.246" xml:space="preserve">
<path fill="#FFFFFF" d="M8.903,0.398h161.574c4.711,0,8.504,3.793,8.504,8.504v232.441c0,4.711-3.793,8.504-8.504,8.504H8.903
c-4.711,0-8.504-3.793-8.504-8.504V8.902C0.399,4.191,4.192,0.398,8.903,0.398L8.903,0.398z M8.903,0.398"/>
<path fill="none" stroke="#000000" stroke-width="0.7974" d="M8.903,0.398h161.574c4.711,0,8.504,3.793,8.504,8.504v232.441
c0,4.711-3.793,8.504-8.504,8.504H8.903c-4.711,0-8.504-3.793-8.504-8.504V8.902C0.399,4.191,4.192,0.398,8.903,0.398L8.903,0.398z
M8.903,0.398"/>
<path fill="#D40000" d="M71.856,46.574c7.937-7.742,13.148-16.188,18.136-24.309c4.372,8.934,10.645,16.754,17.426,24.309
c-7.258,7.496-12.883,15.512-17.406,23.934C84.996,61.875,79.719,54.051,71.856,46.574L71.856,46.574z M71.856,46.574"/>
<path fill="#D40000" d="M71.856,204.257c7.937-7.745,13.148-16.19,18.133-24.312c4.375,8.937,10.648,16.754,17.429,24.312
c-7.258,7.496-12.883,15.509-17.406,23.935C84.996,219.555,79.719,211.734,71.856,204.257L71.856,204.257z M71.856,204.257"/>
<path fill="#D40000" d="M71.856,125.348c7.937-7.742,13.148-16.188,18.133-24.309c4.375,8.934,10.648,16.754,17.429,24.309
c-7.258,7.496-12.883,15.512-17.406,23.938C84.996,140.648,79.719,132.828,71.856,125.348L71.856,125.348z M71.856,125.348"/>
<path fill="#D40000" d="M157.434,199.977c3.254-3.172,5.387-6.629,7.43-9.957c1.789,3.66,4.359,6.862,7.141,9.957
c-2.973,3.069-5.277,6.355-7.133,9.805C162.816,206.246,160.656,203.043,157.434,199.977L157.434,199.977z M157.434,199.977"/>
<path fill="#D40000" d="M7.844,51.008c3.254-3.172,5.387-6.633,7.43-9.957c1.793,3.66,4.359,6.863,7.14,9.957
c-2.972,3.07-5.277,6.355-7.133,9.805C13.231,57.277,11.067,54.07,7.844,51.008L7.844,51.008z M7.844,51.008"/>
<path fill="#D40000" d="M7.156,31.77l2.04-1.469c1.769,2.824,3.746,4.688,6.769,4.367c4.539-0.305,6.422-4.977,5.469-8.496
c-0.918-3.156-4.676-4.695-7.66-3.012c-0.707,0.398-1.52,0.887-1.52,0.887l-1.062-1.73l7.011-8.156h-7.609v3.375H7.672v-6.051
h14.875v2.055c0,0-3.984,4.055-5.305,6.277c3.247,0.117,5.86,2.133,6.793,5.324c0.551,1.68,0.305,5.523-0.41,7.176
c-1.195,2.762-4.469,5-7.457,5.129C11.149,37.777,8.485,34.324,7.156,31.77L7.156,31.77z M7.156,31.77"/>
<path fill="#D40000" d="M172.223,218.477l-2.039,1.473c-1.773-2.824-3.75-4.692-6.773-4.367c-4.539,0.305-6.418,4.973-5.469,8.496
c0.918,3.156,4.676,4.695,7.664,3.011c0.703-0.397,1.52-0.812,1.52-0.812l1.258,1.625l-7.207,8.187h7.609v-3.375h2.918v6.052
h-14.871v-2.056c0,0,3.984-4.054,5.301-6.276c-3.242-0.117-5.855-2.138-6.793-5.328c-0.547-1.676-0.301-5.521,0.414-7.172
c1.195-2.763,4.469-5,7.457-5.129C168.227,212.473,170.891,215.926,172.223,218.477L172.223,218.477z M172.223,218.477"/>
</svg>
