<?xml version="1.0" encoding="utf-8"?>
<!DOCTYPE svg PUBLIC "-//W3C//DTD SVG 1.1//EN" "http://www.w3.org/Graphics/SVG/1.1/DTD/svg11.dtd" [
<!ENTITY ns_svg "http://www.w3.org/2000/svg">
<!ENTITY ns_xlink "http://www.w3.org/1999/xlink">
]>
<svg version="1.1" id="Layer_1" xmlns="&ns_svg;" xmlns:xlink="&ns_xlink;" width="179.379" height="250.246"
viewBox="0 0 179.379 250.246" overflow="visible" enable-background="new 0 0 179.379 250.246" xml:space="preserve">
<path fill="#FFFFFF" d="M8.903,0.398h161.574c4.711,0,8.504,3.793,8.504,8.504v232.441c0,4.711-3.793,8.504-8.504,8.504H8.903
c-4.711,0-8.504-3.793-8.504-8.504V8.902C0.399,4.191,4.192,0.398,8.903,0.398L8.903,0.398z M8.903,0.398"/>
<path fill="none" stroke="#000000" stroke-width="0.7974" d="M8.903,0.398h161.574c4.711,0,8.504,3.793,8.504,8.504v232.441
c0,4.711-3.793,8.504-8.504,8.504H8.903c-4.711,0-8.504-3.793-8.504-8.504V8.902C0.399,4.191,4.192,0.398,8.903,0.398L8.903,0.398z
M8.903,0.398"/>
<path fill="#D40000" d="M28.254,44.438c7.938-7.746,13.149-16.191,18.133-24.313c4.371,8.938,10.644,16.754,17.43,24.313
c-7.258,7.496-12.883,15.508-17.407,23.934C41.395,59.734,36.117,51.914,28.254,44.438L28.254,44.438z M28.254,44.438"/>
<path fill="#D40000" d="M28.254,203.516c7.938-7.746,13.149-16.191,18.133-24.313c4.371,8.938,10.644,16.754,17.43,24.313
c-7.258,7.496-12.883,15.508-17.407,23.934C41.395,218.813,36.117,210.992,28.254,203.516L28.254,203.516z M28.254,203.516"/>
<path fill="#D40000" d="M117.48,44.438c7.938-7.746,13.148-16.191,18.133-24.313c4.371,8.938,10.645,16.754,17.43,24.313
c-7.258,7.496-12.883,15.508-17.406,23.934C130.621,59.734,125.344,51.914,117.48,44.438L117.48,44.438z M117.48,44.438"/>
<path fill="#D40000" d="M117.48,203.516c7.938-7.746,13.148-16.191,18.133-24.313c4.371,8.938,10.645,16.754,17.43,24.313
c-7.258,7.496-12.883,15.508-17.406,23.934C130.621,218.813,125.344,210.992,117.48,203.516L117.48,203.516z M117.48,203.516"/>
<path fill="#D40000" d="M156.832,199.363c3.25-3.172,5.387-6.633,7.426-9.957c1.793,3.66,4.363,6.859,7.141,9.957
c-2.973,3.07-5.277,6.351-7.129,9.805C162.215,205.628,160.051,202.426,156.832,199.363L156.832,199.363z M156.832,199.363"/>
<path fill="#D40000" d="M7.055,51.273c3.254-3.172,5.387-6.633,7.43-9.961c1.789,3.664,4.359,6.863,7.14,9.961
c-2.972,3.07-5.277,6.352-7.133,9.805C12.438,57.539,10.278,54.336,7.055,51.273L7.055,51.273z M7.055,51.273"/>
<path fill="#D40000" d="M14.664,37.5v-2.25h2.071v-3.711H6.395v-2.617l11.188-16.879l1.828,0.008v16.871h3.164v2.617H19.41
l-0.062,3.711h1.734v2.25H14.664z M16.735,18.223L9.629,28.922h7.106V18.223z M16.735,18.223"/>
<path fill="#D40000" d="M164.711,212.75V215h-2.066v3.71h10.34v2.614l-11.188,16.879l-1.828-0.004v-16.875h-3.164v-2.614h3.164
l0.059-3.71h-1.734v-2.25H164.711z M162.645,232.027l7.102-10.703h-7.102V232.027z M162.645,232.027"/>
</svg>
