<?xml version="1.0" encoding="utf-8"?>
<!DOCTYPE svg PUBLIC "-//W3C//DTD SVG 1.1//EN" "http://www.w3.org/Graphics/SVG/1.1/DTD/svg11.dtd" [
<!ENTITY ns_svg "http://www.w3.org/2000/svg">
<!ENTITY ns_xlink "http://www.w3.org/1999/xlink">
]>
<svg version="1.1" id="Layer_1" xmlns="&ns_svg;" xmlns:xlink="&ns_xlink;" width="179.379" height="250.246"
viewBox="0 0 179.379 250.246" overflow="visible" enable-background="new 0 0 179.379 250.246" xml:space="preserve">
<path fill="#FFFFFF" d="M8.903,0.398h161.574c4.711,0,8.504,3.793,8.504,8.504v232.441c0,4.711-3.793,8.504-8.504,8.504H8.903
c-4.711,0-8.504-3.793-8.504-8.504V8.902C0.399,4.191,4.192,0.398,8.903,0.398L8.903,0.398z M8.903,0.398"/>
<path fill="none" stroke="#000000" stroke-width="0.7974" d="M8.903,0.398h161.574c4.711,0,8.504,3.793,8.504,8.504v232.441
c0,4.711-3.793,8.504-8.504,8.504H8.903c-4.711,0-8.504-3.793-8.504-8.504V8.902C0.399,4.191,4.192,0.398,8.903,0.398L8.903,0.398z
M8.903,0.398"/>
<path fill="#D40000" d="M27.5,45.922c7.938-7.742,13.149-16.188,18.133-24.309c4.371,8.934,10.645,16.754,17.43,24.309
c-7.258,7.496-12.883,15.512-17.407,23.938C40.641,61.223,35.364,53.402,27.5,45.922L27.5,45.922z M27.5,45.922"/>
<path fill="#D40000" d="M27.5,203.246c7.938-7.746,13.149-16.191,18.133-24.313c4.371,8.938,10.645,16.754,17.43,24.313
c-7.258,7.492-12.883,15.507-17.407,23.934C40.641,218.543,35.364,210.723,27.5,203.246L27.5,203.246z M27.5,203.246"/>
<path fill="#D40000" d="M116.047,45.922c7.934-7.742,13.148-16.188,18.133-24.309c4.371,8.934,10.645,16.754,17.43,24.309
c-7.262,7.496-12.887,15.512-17.41,23.938C129.188,61.223,123.906,53.402,116.047,45.922L116.047,45.922z M116.047,45.922"/>
<path fill="#D40000" d="M71.852,125.332c7.937-7.742,13.148-16.188,18.133-24.309c4.371,8.934,10.644,16.754,17.429,24.309
c-7.258,7.496-12.887,15.512-17.406,23.938C84.992,140.632,79.715,132.809,71.852,125.332L71.852,125.332z M71.852,125.332"/>
<path fill="#D40000" d="M116.047,203.246c7.934-7.746,13.148-16.191,18.133-24.313c4.371,8.938,10.645,16.754,17.43,24.313
c-7.262,7.492-12.887,15.507-17.41,23.934C129.188,218.543,123.906,210.723,116.047,203.246L116.047,203.246z M116.047,203.246"/>
<path fill="#D40000" d="M157.027,199.641c3.25-3.172,5.387-6.634,7.43-9.957c1.789,3.66,4.359,6.862,7.137,9.957
c-2.973,3.069-5.277,6.355-7.129,9.805C162.41,205.906,160.246,202.703,157.027,199.641L157.027,199.641z M157.027,199.641"/>
<path fill="#D40000" d="M7.66,50.957c3.25-3.176,5.387-6.633,7.43-9.961c1.789,3.66,4.359,6.863,7.141,9.961
c-2.977,3.066-5.282,6.352-7.133,9.801C13.043,57.223,10.883,54.02,7.66,50.957L7.66,50.957z M7.66,50.957"/>
<path fill="#D40000" d="M6.942,30.43l2.574-0.023c0.492,1.559,1.578,3.141,3.055,3.582c4.168,0.977,6.855-1.352,7.738-4.039
c1.07-3.258-0.024-7.836-2.895-9.461c-2.379-1.352-5.914-0.211-7.539,2.668l-1.804-1.102l0.968-10.738h11.785v2.539h-9.55
l-0.149,4.473c2.051-1.441,5.215-1.43,7.27-0.418c3.89,1.855,5.699,6.074,4.941,11.051c-1.051,4.945-3.359,7.746-8.574,8.152
C8.965,37.16,6.918,33.176,6.942,30.43L6.942,30.43z M6.942,30.43"/>
<path fill="#D40000" d="M172.438,219.82l-2.578,0.019c-0.488-1.554-1.578-3.14-3.051-3.577c-4.172-0.977-6.855,1.352-7.738,4.038
c-1.074,3.259,0.023,7.837,2.895,9.462c2.379,1.348,5.914,0.211,7.535-2.673l1.805,1.106l-0.969,10.738h-11.781v-2.539h9.547
l0.152-4.474c-2.055,1.442-5.215,1.431-7.27,0.418c-3.891-1.854-5.699-6.073-4.941-11.05c1.047-4.945,3.359-7.75,8.574-8.152
C170.414,213.085,172.461,217.07,172.438,219.82L172.438,219.82z M172.438,219.82"/>
</svg>
