<?xml version="1.0" encoding="utf-8"?>
<!DOCTYPE svg PUBLIC "-//W3C//DTD SVG 1.1//EN" "http://www.w3.org/Graphics/SVG/1.1/DTD/svg11.dtd" [
<!ENTITY ns_svg "http://www.w3.org/2000/svg">
<!ENTITY ns_xlink "http://www.w3.org/1999/xlink">
]>
<svg version="1.1" id="Layer_1" xmlns="&ns_svg;" xmlns:xlink="&ns_xlink;" width="179.379" height="250.246"
viewBox="0 0 179.379 250.246" overflow="visible" enable-background="new 0 0 179.379 250.246" xml:space="preserve">
<path fill="#FFFFFF" d="M8.903,0.398h161.574c4.711,0,8.504,3.793,8.504,8.504v232.441c0,4.711-3.793,8.504-8.504,8.504H8.903
c-4.711,0-8.504-3.793-8.504-8.504V8.902C0.399,4.191,4.192,0.398,8.903,0.398L8.903,0.398z M8.903,0.398"/>
<path fill="none" stroke="#000000" stroke-width="0.7974" d="M8.903,0.398h161.574c4.711,0,8.504,3.793,8.504,8.504v232.441
c0,4.711-3.793,8.504-8.504,8.504H8.903c-4.711,0-8.504-3.793-8.504-8.504V8.902C0.399,4.191,4.192,0.398,8.903,0.398L8.903,0.398z
M8.903,0.398"/>
<path fill="#D40000" d="M27.406,46.277c7.938-7.746,13.149-16.191,18.133-24.313c4.371,8.938,10.645,16.754,17.43,24.313
c-7.258,7.492-12.883,15.508-17.406,23.934C40.547,61.574,35.27,53.754,27.406,46.277L27.406,46.277z M27.406,46.277"/>
<path fill="#D40000" d="M27.406,125.391c7.938-7.746,13.149-16.188,18.133-24.313c4.371,8.938,10.645,16.754,17.43,24.313
c-7.258,7.496-12.883,15.508-17.406,23.934C40.547,140.688,35.27,132.867,27.406,125.391L27.406,125.391z M27.406,125.391"/>
<path fill="#D40000" d="M27.406,204.27c7.938-7.746,13.149-16.188,18.133-24.313c4.371,8.938,10.645,16.753,17.43,24.313
c-7.258,7.496-12.883,15.508-17.406,23.934C40.547,219.566,35.27,211.746,27.406,204.27L27.406,204.27z M27.406,204.27"/>
<path fill="#D40000" d="M116.633,46.277c7.938-7.746,13.148-16.191,18.133-24.313c4.371,8.938,10.645,16.754,17.43,24.313
c-7.258,7.492-12.883,15.508-17.406,23.934C129.773,61.574,124.496,53.754,116.633,46.277L116.633,46.277z M116.633,46.277"/>
<path fill="#D40000" d="M116.633,125.391c7.938-7.746,13.148-16.188,18.133-24.313c4.371,8.938,10.645,16.754,17.43,24.313
c-7.258,7.496-12.883,15.508-17.406,23.934C129.773,140.688,124.496,132.867,116.633,125.391L116.633,125.391z M116.633,125.391"/>
<path fill="#D40000" d="M116.633,204.27c7.938-7.746,13.148-16.188,18.133-24.313c4.371,8.938,10.645,16.753,17.43,24.313
c-7.258,7.496-12.883,15.508-17.406,23.934C129.773,219.566,124.496,211.746,116.633,204.27L116.633,204.27z M116.633,204.27"/>
<path fill="#D40000" d="M158.023,198.664c3.25-3.176,5.387-6.633,7.43-9.961c1.789,3.66,4.359,6.863,7.137,9.961
c-2.973,3.07-5.277,6.352-7.129,9.805C163.406,204.93,161.246,201.727,158.023,198.664L158.023,198.664z M158.023,198.664"/>
<path fill="#D40000" d="M6.973,49.977c3.25-3.172,5.387-6.633,7.426-9.957c1.793,3.66,4.363,6.859,7.14,9.957
c-2.972,3.07-5.277,6.352-7.129,9.805C12.356,56.242,10.192,53.039,6.973,49.977L6.973,49.977z M6.973,49.977"/>
<path fill="#D40000" d="M6.989,29.199c-0.325-2.195-0.321-7.875-0.051-9.551c0.82-5.145,2.824-7.496,6.176-8.27
c3.257-0.746,7.832,0.086,8.835,4.387l-2.726,0.051c-1.469-2.906-5.195-2.129-7.289-0.867c-1.676,1.012-2.434,5.219-2.11,5.477
c-0.003,0,3.168-2.301,5.661-2.133c5.336,0.547,7.535,5.086,7.347,9.375c-0.168,5.16-1.836,9.281-7.488,9.559
C9.969,37.023,7.504,34.145,6.989,29.199L6.989,29.199z M20.246,27.836c0.028-3.578-1.629-6.258-4.761-6.555
c-3.133-0.293-6.289,2.707-6.071,6.355c0.219,3.66,1.664,6.746,5.461,6.727C18.961,34.348,20.223,30.383,20.246,27.836
L20.246,27.836z M20.246,27.836"/>
<path fill="#D40000" d="M172.387,221.046c0.328,2.2,0.324,7.879,0.055,9.556c-0.824,5.145-2.828,7.496-6.18,8.266
c-3.254,0.75-7.832-0.082-8.836-4.383l2.727-0.051c1.473,2.905,5.195,2.129,7.293,0.862c1.676-1.007,2.43-5.214,2.105-5.472
c0.004,0-3.164,2.301-5.66,2.133c-5.332-0.547-7.531-5.086-7.348-9.375c0.168-5.161,1.836-9.286,7.488-9.559
C169.406,213.227,171.871,216.105,172.387,221.046L172.387,221.046z M159.133,222.414c-0.031,3.578,1.625,6.257,4.758,6.55
c3.133,0.298,6.293-2.702,6.074-6.351c-0.223-3.66-1.664-6.746-5.461-6.731C160.418,215.902,159.152,219.867,159.133,222.414
L159.133,222.414z M159.133,222.414"/>
</svg>
