<?xml version="1.0" encoding="utf-8"?>
<!DOCTYPE svg PUBLIC "-//W3C//DTD SVG 1.1//EN" "http://www.w3.org/Graphics/SVG/1.1/DTD/svg11.dtd" [
<!ENTITY ns_svg "http://www.w3.org/2000/svg">
<!ENTITY ns_xlink "http://www.w3.org/1999/xlink">
]>
<svg version="1.1" id="Layer_1" xmlns="&ns_svg;" xmlns:xlink="&ns_xlink;" width="179.379" height="250.246"
viewBox="0 0 179.379 250.246" overflow="visible" enable-background="new 0 0 179.379 250.246" xml:space="preserve">
<path fill="#FFFFFF" d="M8.903,0.398h161.574c4.711,0,8.504,3.793,8.504,8.504v232.441c0,4.711-3.793,8.504-8.504,8.504H8.903
c-4.711,0-8.504-3.793-8.504-8.504V8.902C0.399,4.191,4.192,0.398,8.903,0.398L8.903,0.398z M8.903,0.398"/>
<path fill="none" stroke="#000000" stroke-width="0.7974" d="M8.903,0.398h161.574c4.711,0,8.504,3.793,8.504,8.504v232.441
c0,4.711-3.793,8.504-8.504,8.504H8.903c-4.711,0-8.504-3.793-8.504-8.504V8.902C0.399,4.191,4.192,0.398,8.903,0.398L8.903,0.398z
M8.903,0.398"/>
<path fill="#D40000" d="M26.802,47.432c7.937-7.746,13.148-16.191,18.133-24.313c4.371,8.938,10.644,16.754,17.429,24.313
c-7.257,7.492-12.882,15.508-17.406,23.934C39.943,62.729,34.665,54.908,26.802,47.432L26.802,47.432z M26.802,47.432"/>
<path fill="#D40000" d="M26.802,127.626c7.937-7.741,13.148-16.187,18.133-24.308c4.371,8.934,10.644,16.754,17.429,24.308
c-7.257,7.497-12.882,15.513-17.406,23.938C39.943,142.928,34.665,135.107,26.802,127.626L26.802,127.626z M26.802,127.626"/>
<path fill="#D40000" d="M26.802,206.505c7.937-7.741,13.148-16.187,18.133-24.308c4.371,8.933,10.644,16.754,17.429,24.308
c-7.257,7.496-12.882,15.513-17.406,23.938C39.943,221.807,34.665,213.986,26.802,206.505L26.802,206.505z M26.802,206.505"/>
<path fill="#D40000" d="M71.95,87.529c7.938-7.746,13.149-16.191,18.133-24.313c4.371,8.938,10.645,16.754,17.43,24.313
c-7.258,7.496-12.883,15.508-17.406,23.934C85.091,102.826,79.814,95.006,71.95,87.529L71.95,87.529z M71.95,87.529"/>
<path fill="#D40000" d="M116.028,47.432c7.938-7.746,13.148-16.191,18.133-24.313c4.371,8.938,10.645,16.754,17.43,24.313
c-7.258,7.492-12.883,15.508-17.406,23.934C129.169,62.729,123.892,54.908,116.028,47.432L116.028,47.432z M116.028,47.432"/>
<path fill="#D40000" d="M116.028,127.626c7.938-7.741,13.148-16.187,18.133-24.308c4.371,8.934,10.645,16.754,17.43,24.308
c-7.258,7.497-12.883,15.513-17.406,23.938C129.169,142.928,123.892,135.107,116.028,127.626L116.028,127.626z M116.028,127.626"/>
<path fill="#D40000" d="M116.028,206.505c7.938-7.741,13.148-16.187,18.133-24.308c4.371,8.933,10.645,16.754,17.43,24.308
c-7.258,7.496-12.883,15.513-17.406,23.938C129.169,221.807,123.892,213.986,116.028,206.505L116.028,206.505z M116.028,206.505"/>
<path fill="#D40000" d="M158.161,200.729c3.254-3.172,5.387-6.633,7.43-9.957c1.793,3.66,4.359,6.863,7.141,9.957
c-2.973,3.069-5.277,6.354-7.133,9.805C163.548,206.998,161.384,203.791,158.161,200.729L158.161,200.729z M158.161,200.729"/>
<path fill="#D40000" d="M7.111,52.045c3.25-3.176,5.386-6.633,7.429-9.961c1.789,3.66,4.36,6.863,7.137,9.961
c-2.973,3.07-5.277,6.352-7.129,9.805C12.493,58.311,10.333,55.107,7.111,52.045L7.111,52.045z M7.111,52.045"/>
<path fill="#D40000" d="M10.267,37.607c1.707-8.871,3.527-15.527,8.304-22.758H8.864v3.109H6.282v-5.863h14.207l1.75,2.754
c-5.074,5.438-9.718,23.012-8.898,22.758H10.267z M10.267,37.607"/>
<path fill="#D40000" d="M169.103,212.639c-1.707,8.871-3.527,15.527-8.305,22.758h9.707v-3.113h2.582v5.867h-14.203l-1.75-2.754
c5.074-5.438,9.719-23.017,8.895-22.758H169.103z M169.103,212.639"/>
</svg>
