<?xml version="1.0" encoding="utf-8"?>
<!DOCTYPE svg PUBLIC "-//W3C//DTD SVG 1.1//EN" "http://www.w3.org/Graphics/SVG/1.1/DTD/svg11.dtd" [
<!ENTITY ns_svg "http://www.w3.org/2000/svg">
<!ENTITY ns_xlink "http://www.w3.org/1999/xlink">
]>
<svg version="1.1" id="Layer_1" xmlns="&ns_svg;" xmlns:xlink="&ns_xlink;" width="179.379" height="250.246"
viewBox="0 0 179.379 250.246" overflow="visible" enable-background="new 0 0 179.379 250.246" xml:space="preserve">
<path fill="#FFFFFF" d="M8.903,0.398h161.574c4.711,0,8.504,3.793,8.504,8.504v232.441c0,4.711-3.793,8.504-8.504,8.504H8.903
c-4.711,0-8.504-3.793-8.504-8.504V8.902C0.399,4.191,4.192,0.398,8.903,0.398L8.903,0.398z M8.903,0.398"/>
<path fill="none" stroke="#000000" stroke-width="0.7974" d="M8.903,0.398h161.574c4.711,0,8.504,3.793,8.504,8.504v232.441
c0,4.711-3.793,8.504-8.504,8.504H8.903c-4.711,0-8.504-3.793-8.504-8.504V8.902C0.399,4.191,4.192,0.398,8.903,0.398L8.903,0.398z
M8.903,0.398"/>
<path fill="#D40000" d="M26.305,45.695c7.937-7.746,13.148-16.191,18.133-24.313c4.371,8.938,10.645,16.754,17.429,24.313
c-7.257,7.496-12.882,15.508-17.406,23.934C39.446,60.992,34.168,53.172,26.305,45.695L26.305,45.695z M26.305,45.695"/>
<path fill="#D40000" d="M26.305,125.895c7.937-7.746,13.148-16.191,18.133-24.313c4.371,8.938,10.645,16.754,17.429,24.313
c-7.257,7.496-12.882,15.508-17.406,23.934C39.446,141.191,34.168,133.371,26.305,125.895L26.305,125.895z M26.305,125.895"/>
<path fill="#D40000" d="M26.305,204.773c7.937-7.746,13.148-16.191,18.133-24.313c4.371,8.938,10.645,16.754,17.429,24.313
c-7.257,7.496-12.882,15.508-17.406,23.934C39.446,220.07,34.168,212.25,26.305,204.773L26.305,204.773z M26.305,204.773"/>
<path fill="#D40000" d="M71.25,85.793c7.938-7.742,13.149-16.188,18.133-24.309c4.371,8.934,10.645,16.754,17.43,24.309
c-7.258,7.496-12.883,15.512-17.407,23.938C84.391,101.094,79.114,93.273,71.25,85.793L71.25,85.793z M71.25,85.793"/>
<path fill="#D40000" d="M115.531,45.695c7.934-7.746,13.148-16.191,18.133-24.313c4.371,8.938,10.645,16.754,17.43,24.313
c-7.258,7.496-12.887,15.508-17.406,23.934C128.672,60.992,123.395,53.172,115.531,45.695L115.531,45.695z M115.531,45.695"/>
<path fill="#D40000" d="M115.531,125.895c7.934-7.746,13.148-16.191,18.133-24.313c4.371,8.938,10.645,16.754,17.43,24.313
c-7.258,7.496-12.887,15.508-17.406,23.934C128.672,141.191,123.395,133.371,115.531,125.895L115.531,125.895z M115.531,125.895"/>
<path fill="#D40000" d="M115.531,204.773c7.934-7.746,13.148-16.191,18.133-24.313c4.371,8.938,10.645,16.754,17.43,24.313
c-7.258,7.496-12.887,15.508-17.406,23.934C128.672,220.07,123.395,212.25,115.531,204.773L115.531,204.773z M115.531,204.773"/>
<path fill="#D40000" d="M71.25,165.332c7.938-7.743,13.149-16.188,18.133-24.309c4.371,8.934,10.645,16.754,17.43,24.309
c-7.258,7.496-12.883,15.512-17.407,23.938C84.391,180.632,79.114,172.813,71.25,165.332L71.25,165.332z M71.25,165.332"/>
<path fill="#D40000" d="M158.77,201.492c3.25-3.172,5.387-6.633,7.43-9.961c1.789,3.66,4.359,6.863,7.137,9.961
c-2.973,3.07-5.277,6.352-7.129,9.804C164.152,207.757,161.988,204.555,158.77,201.492L158.77,201.492z M158.77,201.492"/>
<path fill="#D40000" d="M7.715,52.805c3.254-3.172,5.387-6.633,7.43-9.957c1.793,3.66,4.359,6.863,7.14,9.957
c-2.972,3.07-5.277,6.355-7.132,9.805C13.102,59.07,10.938,55.867,7.715,52.805L7.715,52.805z M7.715,52.805"/>
<path fill="#D40000" d="M5.871,30.441c0.129-3.5,1.418-4.816,3.957-6.648c-2.027-1.438-2.879-3.551-2.707-5.352
c0.418-4.355,3.848-6.535,7.59-6.441c3.738,0.094,6.961,3.012,7.215,6.18c0.219,2.754-0.617,4.082-2.605,5.531
c2.359,1.953,3.871,3.238,3.812,6.688c-0.055,3.449-3.043,7.551-8.25,7.676C9.676,38.203,5.746,33.941,5.871,30.441L5.871,30.441z
M20.41,30.453c0.223-3.172-2.629-5.309-5.851-5.344c-3.137-0.031-5.945,2.598-5.945,5.445c0,3.055,3.652,4.715,6.007,4.727
C17.489,35.289,20.219,33.184,20.41,30.453L20.41,30.453z M19.379,19.113c0.063-2.672-2.445-4.582-5.031-4.508
c-2.301,0.07-4.734,1.793-4.738,4.027c0,2.789,2.769,4.184,5.136,4.238C16.891,22.918,19.332,21.129,19.379,19.113L19.379,19.113z
M19.379,19.113"/>
<path fill="#D40000" d="M173.504,219.809c-0.129,3.5-1.414,4.816-3.953,6.648c2.023,1.434,2.879,3.546,2.703,5.348
c-0.414,4.359-3.848,6.539-7.586,6.445c-3.742-0.098-6.965-3.012-7.215-6.18c-0.219-2.754,0.617-4.082,2.605-5.531
c-2.363-1.954-3.871-3.239-3.816-6.688c0.059-3.449,3.047-7.552,8.254-7.681C169.703,212.046,173.633,216.309,173.504,219.809
L173.504,219.809z M158.969,219.796c-0.227,3.173,2.629,5.31,5.848,5.345c3.141,0.03,5.945-2.598,5.945-5.445
c0-3.055-3.648-4.719-6.008-4.727C161.887,214.957,159.16,217.066,158.969,219.796L158.969,219.796z M159.996,231.137
c-0.063,2.668,2.445,4.582,5.031,4.504c2.301-0.066,4.738-1.789,4.738-4.023c0.004-2.793-2.77-4.184-5.133-4.239
C162.488,227.332,160.043,229.117,159.996,231.137L159.996,231.137z M159.996,231.137"/>
</svg>
