<?xml version="1.0" encoding="utf-8"?>
<!DOCTYPE svg PUBLIC "-//W3C//DTD SVG 1.1//EN" "http://www.w3.org/Graphics/SVG/1.1/DTD/svg11.dtd" [
<!ENTITY ns_svg "http://www.w3.org/2000/svg">
<!ENTITY ns_xlink "http://www.w3.org/1999/xlink">
]>
<svg version="1.1" id="Layer_1" xmlns="&ns_svg;" xmlns:xlink="&ns_xlink;" width="179.379" height="250.246"
viewBox="0 0 179.379 250.246" overflow="visible" enable-background="new 0 0 179.379 250.246" xml:space="preserve">
<path fill="#FFFFFF" d="M8.903,0.398h161.574c4.711,0,8.504,3.793,8.504,8.504v232.441c0,4.711-3.793,8.504-8.504,8.504H8.903
c-4.711,0-8.504-3.793-8.504-8.504V8.902C0.399,4.191,4.192,0.398,8.903,0.398L8.903,0.398z M8.903,0.398"/>
<path fill="none" stroke="#000000" stroke-width="0.7974" d="M8.903,0.398h161.574c4.711,0,8.504,3.793,8.504,8.504v232.441
c0,4.711-3.793,8.504-8.504,8.504H8.903c-4.711,0-8.504-3.793-8.504-8.504V8.902C0.399,4.191,4.192,0.398,8.903,0.398L8.903,0.398z
M8.903,0.398"/>
<path fill="#D40000" d="M26.539,46.527c7.934-7.746,13.149-16.191,18.133-24.313c4.371,8.938,10.645,16.754,17.43,24.313
c-7.262,7.492-12.887,15.508-17.41,23.934C39.68,61.824,34.399,54.004,26.539,46.527L26.539,46.527z M26.539,46.527"/>
<path fill="#D40000" d="M26.539,98.789c7.934-7.742,13.149-16.188,18.133-24.309c4.371,8.934,10.645,16.754,17.43,24.309
c-7.262,7.496-12.887,15.512-17.41,23.938C39.68,114.09,34.399,106.27,26.539,98.789L26.539,98.789z M26.539,98.789"/>
<path fill="#D40000" d="M26.539,152.309c7.934-7.746,13.149-16.191,18.133-24.313c4.371,8.938,10.645,16.754,17.43,24.313
c-7.262,7.496-12.887,15.508-17.41,23.934C39.68,167.605,34.399,159.785,26.539,152.309L26.539,152.309z M26.539,152.309"/>
<path fill="#D40000" d="M26.539,204.395c7.934-7.746,13.149-16.191,18.133-24.313c4.371,8.934,10.645,16.753,17.43,24.313
c-7.262,7.492-12.887,15.508-17.41,23.934C39.68,219.691,34.399,211.871,26.539,204.395L26.539,204.395z M26.539,204.395"/>
<path fill="#D40000" d="M71.692,125.301c7.937-7.746,13.148-16.191,18.136-24.313c4.372,8.938,10.645,16.754,17.426,24.313
c-7.258,7.495-12.883,15.508-17.406,23.934C84.832,140.598,79.555,132.777,71.692,125.301L71.692,125.301z M71.692,125.301"/>
<path fill="#D40000" d="M115.762,46.527c7.938-7.746,13.152-16.191,18.137-24.313c4.371,8.938,10.645,16.754,17.426,24.313
c-7.258,7.492-12.883,15.508-17.406,23.934C128.906,61.824,123.625,54.004,115.762,46.527L115.762,46.527z M115.762,46.527"/>
<path fill="#D40000" d="M115.762,98.789c7.938-7.742,13.152-16.188,18.137-24.309c4.371,8.934,10.645,16.754,17.426,24.309
c-7.258,7.496-12.883,15.512-17.406,23.938C128.906,114.09,123.625,106.27,115.762,98.789L115.762,98.789z M115.762,98.789"/>
<path fill="#D40000" d="M115.762,152.309c7.938-7.746,13.152-16.191,18.137-24.313c4.371,8.938,10.645,16.754,17.426,24.313
c-7.258,7.496-12.883,15.508-17.406,23.934C128.906,167.605,123.625,159.785,115.762,152.309L115.762,152.309z M115.762,152.309"/>
<path fill="#D40000" d="M115.762,204.395c7.938-7.746,13.152-16.191,18.137-24.313c4.371,8.934,10.645,16.753,17.426,24.313
c-7.258,7.492-12.883,15.508-17.406,23.934C128.906,219.691,123.625,211.871,115.762,204.395L115.762,204.395z M115.762,204.395"/>
<path fill="#D40000" d="M157.969,197.824c3.254-3.172,5.387-6.633,7.43-9.961c1.789,3.66,4.359,6.863,7.141,9.961
c-2.973,3.07-5.277,6.351-7.133,9.804C163.352,204.089,161.191,200.887,157.969,197.824L157.969,197.824z M157.969,197.824"/>
<path fill="#D40000" d="M6.918,49.137c3.25-3.172,5.387-6.633,7.43-9.957c1.789,3.66,4.359,6.863,7.137,9.957
c-2.973,3.07-5.278,6.355-7.129,9.805C12.301,55.402,10.141,52.199,6.918,49.137L6.918,49.137z M6.918,49.137"/>
<path fill="#D40000" d="M7.02,31.879l2.418-0.75c0.914,2.395,2.761,3.102,4.715,2.949c3.503-0.273,4.668-4.117,4.933-7.52
c-1.367,1.418-3.422,2.141-5.168,2.07c-5.586-0.297-7.015-4.684-7.07-9.281c-0.152-3.875,1.48-6.684,4.281-7.969
c1.481-0.656,4.875-0.656,6.367,0.117c3.426,1.773,4.692,4.84,4.461,12.152c0.004,6.02-1.297,13.031-7.867,13.18
C10.289,37.344,7.406,34.445,7.02,31.879L7.02,31.879z M16.528,25.285c1.14-0.707,1.785-1.371,2.293-2.367
c0.421-0.82,0.562-1.246,0.441-2.938c-0.305-4.363-2.637-6.84-6.02-6.348c-1.882,0.273-2.914,1.313-3.503,3.238
c-1.094,3.559,0.292,7.727,2.886,8.688C13.793,25.988,15.598,25.863,16.528,25.285L16.528,25.285z M16.528,25.285"/>
<path fill="#D40000" d="M171.848,218.367l-2.422,0.754c-0.914-2.395-2.762-3.102-4.715-2.95c-3.504,0.274-4.668,4.118-4.93,7.521
c1.363-1.422,3.418-2.141,5.168-2.07c5.586,0.293,7.016,4.684,7.066,9.281c0.156,3.875-1.48,6.683-4.277,7.969
c-1.484,0.652-4.879,0.652-6.371-0.118c-3.426-1.772-4.691-4.839-4.461-12.151c-0.004-6.02,1.297-13.031,7.867-13.181
C168.574,212.906,171.457,215.805,171.848,218.367L171.848,218.367z M162.336,224.964c-1.141,0.707-1.781,1.371-2.293,2.368
c-0.418,0.82-0.563,1.242-0.441,2.938c0.309,4.362,2.641,6.84,6.02,6.348c1.883-0.273,2.914-1.313,3.504-3.239
c1.094-3.558-0.289-7.726-2.887-8.687C165.07,224.257,163.27,224.382,162.336,224.964L162.336,224.964z M162.336,224.964"/>
</svg>
