<?xml version="1.0" encoding="utf-8"?>
<!DOCTYPE svg PUBLIC "-//W3C//DTD SVG 1.1//EN" "http://www.w3.org/Graphics/SVG/1.1/DTD/svg11.dtd" [
<!ENTITY ns_svg "http://www.w3.org/2000/svg">
<!ENTITY ns_xlink "http://www.w3.org/1999/xlink">
]>
<svg version="1.1" id="Layer_1" xmlns="&ns_svg;" xmlns:xlink="&ns_xlink;" width="179.379" height="250.246"
viewBox="0 0 179.379 250.246" overflow="visible" enable-background="new 0 0 179.379 250.246" xml:space="preserve">
<path fill="#FFFFFF" d="M8.903,0.398h161.574c4.711,0,8.504,3.793,8.504,8.504v232.441c0,4.711-3.793,8.504-8.504,8.504H8.903
c-4.711,0-8.504-3.793-8.504-8.504V8.902C0.399,4.191,4.192,0.398,8.903,0.398L8.903,0.398z M8.903,0.398"/>
<path fill="none" stroke="#000000" stroke-width="0.7974" d="M8.903,0.398h161.574c4.711,0,8.504,3.793,8.504,8.504v232.441
c0,4.711-3.793,8.504-8.504,8.504H8.903c-4.711,0-8.504-3.793-8.504-8.504V8.902C0.399,4.191,4.192,0.398,8.903,0.398L8.903,0.398z
M8.903,0.398"/>
<path fill="#D40000" d="M6.184,37.254v-2.191h2.129l4.531-23.418h2.582l4.992,23.418h1.719v2.191h-5.856v-2.191h1.583l-0.629-3.59
h-5.911l-0.457,3.59h1.582v2.191H6.184z M16.727,28.922L14.16,16.383l-2.406,12.539H16.727z M16.727,28.922"/>
<path fill="#D40000" d="M173.191,212.996v2.191h-2.129l-4.531,23.414h-2.578l-4.996-23.414h-1.715v-2.191h5.852v2.191h-1.582
l0.633,3.586h5.906l0.457-3.586h-1.582v-2.191H173.191z M162.648,221.328l2.566,12.539l2.406-12.539H162.648z M162.648,221.328"/>
<path fill="#D40000" d="M7.024,49.004c-1.27-2.777-1.407-7.523,2.375-8.168c2.851-0.367,4.011,0.961,4.242,2.996
c0.113,0.594,0.449,0.629,0.555-0.047c0.164-2.09,2.23-3.309,3.843-3c4.422,0.754,4.164,5.621,2.719,8.922
c-2.184,4.387-4.48,7.152-6.594,11.563C11.731,56.676,8.957,52.945,7.024,49.004L7.024,49.004z M7.024,49.004"/>
<path fill="#D40000" d="M80.047,102.129c5.719-0.383,8.695,4.5,9.277,8.348c0.348,0.609,0.54,0.438,0.672-0.035
c0.278-4.938,4.7-8.977,8.793-8.422c6.66,0.086,10.711,7.5,9.574,13.773c-1.391,7.664-5.52,12.281-8.648,17.035
c-3.535,4.922-8.297,12.031-9.832,15.453c0,0-4.84-7.363-11.133-16.024c-4.211-5.789-7.578-12.065-7.89-17.468
C70.5,108.617,73.031,103.086,80.047,102.129L80.047,102.129z M80.047,102.129"/>
<path fill="#D40000" d="M157.727,201.555c-1.266,2.777-1.406,7.523,2.375,8.164c2.852,0.366,4.012-0.957,4.242-2.992
c0.113-0.595,0.449-0.633,0.555,0.047c0.164,2.086,2.23,3.305,3.844,3c4.422-0.758,4.164-5.625,2.719-8.926
c-2.184-4.384-4.48-7.148-6.594-11.563C162.438,193.878,159.66,197.609,157.727,201.555L157.727,201.555z M157.727,201.555"/>
</svg>
