<?xml version="1.0" encoding="utf-8"?>
<!DOCTYPE svg PUBLIC "-//W3C//DTD SVG 1.1//EN" "http://www.w3.org/Graphics/SVG/1.1/DTD/svg11.dtd" [
<!ENTITY ns_svg "http://www.w3.org/2000/svg">
<!ENTITY ns_xlink "http://www.w3.org/1999/xlink">
]>
<svg version="1.1" id="Layer_1" xmlns="&ns_svg;" xmlns:xlink="&ns_xlink;" width="179.379" height="250.246"
viewBox="0 0 179.379 250.246" overflow="visible" enable-background="new 0 0 179.379 250.246" xml:space="preserve">
<path fill="#FFFFFF" d="M8.903,0.398h161.574c4.711,0,8.504,3.793,8.504,8.504v232.441c0,4.711-3.793,8.504-8.504,8.504H8.903
c-4.711,0-8.504-3.793-8.504-8.504V8.902C0.399,4.191,4.192,0.398,8.903,0.398L8.903,0.398z M8.903,0.398"/>
<path fill="none" stroke="#000000" stroke-width="0.7974" d="M8.903,0.398h161.574c4.711,0,8.504,3.793,8.504,8.504v232.441
c0,4.711-3.793,8.504-8.504,8.504H8.903c-4.711,0-8.504-3.793-8.504-8.504V8.902C0.399,4.191,4.192,0.398,8.903,0.398L8.903,0.398z
M8.903,0.398"/>
<path fill="#D40000" d="M6.5,36.676V11.469h2.489v25.207H6.5z M6.5,36.676"/>
<path fill="#D40000" d="M16.364,11.469c-2.395,0-4.321,2.152-4.321,4.82v15.57c0,2.668,1.926,4.816,4.321,4.816h1.394
c2.398,0,4.328-2.148,4.328-4.816v-15.57c0-2.668-1.93-4.82-4.328-4.82H16.364z M17.086,13.852c1.414,0,2.551,1.07,2.551,2.402
v15.777c0,1.332-1.137,2.406-2.551,2.406c-1.418,0-2.555-1.074-2.555-2.406V16.254C14.531,14.922,15.668,13.852,17.086,13.852
L17.086,13.852z M17.086,13.852"/>
<path fill="#D40000" d="M172.879,213.574v25.203h-2.492v-25.203H172.879z M172.879,213.574"/>
<path fill="#D40000" d="M163.012,238.777c2.398,0,4.324-2.149,4.324-4.817v-15.569c0-2.668-1.926-4.816-4.324-4.816h-1.395
c-2.395,0-4.324,2.148-4.324,4.816v15.569c0,2.668,1.93,4.817,4.324,4.817H163.012z M162.293,236.395
c-1.414,0-2.555-1.066-2.555-2.398v-15.777c0-1.332,1.141-2.406,2.555-2.406s2.555,1.074,2.555,2.406v15.777
C164.848,235.328,163.707,236.395,162.293,236.395L162.293,236.395z M162.293,236.395"/>
<path fill="#D40000" d="M7.215,48.512c-1.266-2.777-1.402-7.523,2.379-8.168c2.848-0.363,4.008,0.961,4.238,2.996
c0.114,0.594,0.449,0.629,0.559-0.047c0.16-2.09,2.226-3.309,3.844-3c4.421,0.754,4.164,5.621,2.718,8.922
c-2.183,4.387-4.48,7.152-6.597,11.563C11.926,56.184,9.153,52.453,7.215,48.512L7.215,48.512z M7.215,48.512"/>
<path fill="#D40000" d="M34.821,23.059c5.714-0.379,8.691,4.504,9.273,8.348c0.348,0.613,0.539,0.441,0.672-0.031
c0.277-4.941,4.699-8.977,8.793-8.426c6.66,0.086,10.711,7.5,9.574,13.777c-1.391,7.664-5.519,12.277-8.648,17.031
c-3.536,4.922-8.297,12.031-9.832,15.453c0,0-4.836-7.363-11.133-16.023c-4.211-5.789-7.578-12.063-7.891-17.465
C25.27,29.547,27.801,24.016,34.821,23.059L34.821,23.059z M34.821,23.059"/>
<path fill="#D40000" d="M79.766,49.191c5.715-0.379,8.695,4.5,9.277,8.348c0.344,0.613,0.535,0.441,0.668-0.031
c0.278-4.941,4.699-8.977,8.793-8.426c6.664,0.086,10.711,7.5,9.574,13.773c-1.391,7.668-5.52,12.281-8.645,17.035
c-3.539,4.922-8.301,12.031-9.832,15.453c0,0-4.84-7.363-11.137-16.023c-4.207-5.789-7.578-12.066-7.891-17.469
C70.215,55.68,72.75,50.148,79.766,49.191L79.766,49.191z M79.766,49.191"/>
<path fill="#D40000" d="M124.043,23.059c5.719-0.379,8.695,4.504,9.277,8.348c0.348,0.613,0.539,0.441,0.672-0.031
c0.277-4.941,4.699-8.977,8.793-8.426c6.66,0.086,10.711,7.5,9.574,13.777c-1.391,7.664-5.52,12.277-8.648,17.031
c-3.535,4.922-8.297,12.031-9.832,15.453c0,0-4.84-7.363-11.133-16.023c-4.211-5.789-7.578-12.063-7.895-17.465
C114.496,29.547,117.027,24.016,124.043,23.059L124.043,23.059z M124.043,23.059"/>
<path fill="#D40000" d="M124.043,75.324c5.719-0.379,8.695,4.5,9.277,8.348c0.348,0.613,0.539,0.438,0.672-0.035
c0.277-4.938,4.699-8.973,8.793-8.422c6.66,0.086,10.711,7.5,9.574,13.773c-1.391,7.668-5.52,12.281-8.648,17.035
c-3.535,4.922-8.297,12.031-9.832,15.453c0,0-4.84-7.363-11.133-16.023c-4.211-5.789-7.578-12.066-7.895-17.469
C114.496,81.813,117.027,76.281,124.043,75.324L124.043,75.324z M124.043,75.324"/>
<path fill="#D40000" d="M34.821,75.324c5.714-0.379,8.691,4.5,9.273,8.348c0.348,0.613,0.539,0.438,0.672-0.035
c0.277-4.938,4.699-8.973,8.793-8.422c6.66,0.086,10.711,7.5,9.574,13.773c-1.391,7.668-5.519,12.281-8.648,17.035
c-3.536,4.922-8.297,12.031-9.832,15.453c0,0-4.836-7.363-11.133-16.023c-4.211-5.789-7.578-12.066-7.891-17.469
C25.27,81.813,27.801,76.281,34.821,75.324L34.821,75.324z M34.821,75.324"/>
<path fill="#D40000" d="M124.043,174.835c5.719,0.379,8.695-4.503,9.277-8.351c0.348-0.609,0.539-0.438,0.672,0.035
c0.277,4.94,4.699,8.977,8.793,8.426c6.66-0.086,10.711-7.5,9.574-13.777c-1.391-7.665-5.52-12.281-8.648-17.036
c-3.535-4.922-8.297-12.03-9.832-15.452c0,0-4.84,7.363-11.133,16.023c-4.211,5.793-7.578,12.066-7.895,17.468
C114.496,168.344,117.027,173.878,124.043,174.835L124.043,174.835z M124.043,174.835"/>
<path fill="#D40000" d="M124.043,226.918c5.719,0.382,8.695-4.5,9.277-8.348c0.348-0.61,0.539-0.438,0.672,0.035
c0.277,4.938,4.699,8.977,8.793,8.422c6.66-0.086,10.711-7.5,9.574-13.774c-1.391-7.664-5.52-12.28-8.648-17.034
c-3.535-4.923-8.297-12.031-9.832-15.453c0,0-4.84,7.362-11.133,16.023c-4.211,5.789-7.578,12.066-7.895,17.468
C114.496,220.43,117.027,225.964,124.043,226.918L124.043,226.918z M124.043,226.918"/>
<path fill="#D40000" d="M79.391,200.878c5.715,0.379,8.695-4.503,9.277-8.351c0.348-0.609,0.535-0.438,0.668,0.035
c0.281,4.938,4.699,8.977,8.793,8.426c6.664-0.09,10.715-7.504,9.574-13.778c-1.391-7.664-5.52-12.28-8.645-17.034
c-3.539-4.923-8.301-12.031-9.832-15.453c0,0-4.84,7.362-11.133,16.023c-4.211,5.793-7.582,12.066-7.895,17.468
C69.84,194.387,72.375,199.921,79.391,200.878L79.391,200.878z M79.391,200.878"/>
<path fill="#D40000" d="M34.821,174.835c5.714,0.379,8.691-4.503,9.273-8.351c0.348-0.609,0.539-0.438,0.672,0.035
c0.277,4.94,4.699,8.977,8.793,8.426c6.66-0.086,10.711-7.5,9.574-13.777c-1.391-7.665-5.519-12.281-8.648-17.036
c-3.536-4.922-8.297-12.03-9.832-15.452c0,0-4.836,7.363-11.133,16.023c-4.211,5.793-7.578,12.066-7.891,17.468
C25.27,168.344,27.801,173.878,34.821,174.835L34.821,174.835z M34.821,174.835"/>
<path fill="#D40000" d="M34.821,226.918c5.714,0.382,8.691-4.5,9.273-8.348c0.348-0.61,0.539-0.438,0.672,0.035
c0.277,4.938,4.699,8.977,8.793,8.422c6.66-0.086,10.711-7.5,9.574-13.774c-1.391-7.664-5.519-12.28-8.648-17.034
c-3.536-4.923-8.297-12.031-9.832-15.453c0,0-4.836,7.362-11.133,16.023c-4.211,5.789-7.578,12.066-7.891,17.468
C25.27,220.43,27.801,225.964,34.821,226.918L34.821,226.918z M34.821,226.918"/>
<path fill="#D40000" d="M158.27,201.199c-1.266,2.777-1.406,7.523,2.375,8.164c2.852,0.367,4.012-0.957,4.242-2.992
c0.113-0.594,0.449-0.633,0.555,0.047c0.164,2.085,2.23,3.305,3.844,3c4.422-0.758,4.164-5.625,2.719-8.926
c-2.184-4.383-4.48-7.148-6.594-11.563C162.98,193.523,160.203,197.253,158.27,201.199L158.27,201.199z M158.27,201.199"/>
</svg>
