<?xml version="1.0" encoding="utf-8"?>
<!DOCTYPE svg PUBLIC "-//W3C//DTD SVG 1.1//EN" "http://www.w3.org/Graphics/SVG/1.1/DTD/svg11.dtd" [
<!ENTITY ns_svg "http://www.w3.org/2000/svg">
<!ENTITY ns_xlink "http://www.w3.org/1999/xlink">
]>
<svg version="1.1" id="Layer_1" xmlns="&ns_svg;" xmlns:xlink="&ns_xlink;" width="179.379" height="250.246"
viewBox="0 0 179.379 250.246" overflow="visible" enable-background="new 0 0 179.379 250.246" xml:space="preserve">
<path fill="#FFFFFF" d="M8.903,0.398h161.574c4.711,0,8.504,3.793,8.504,8.504v232.441c0,4.711-3.793,8.504-8.504,8.504H8.903
c-4.711,0-8.504-3.793-8.504-8.504V8.902C0.399,4.191,4.192,0.398,8.903,0.398L8.903,0.398z M8.903,0.398"/>
<path fill="none" stroke="#000000" stroke-width="0.7974" d="M8.903,0.398h161.574c4.711,0,8.504,3.793,8.504,8.504v232.441
c0,4.711-3.793,8.504-8.504,8.504H8.903c-4.711,0-8.504-3.793-8.504-8.504V8.902C0.399,4.191,4.192,0.398,8.903,0.398L8.903,0.398z
M8.903,0.398"/>
<path fill="#E2CF00" d="M154.066,29.379l-9.223,5.965l-0.129,7.012c-5.465-2.625-7.844-6.922-8.703-11.957
c-1.547,1.953-1.188,11.121-1.188,11.121l-2.871,3.219c0.883,1.453,2.133,2.773,3.379,4.094c0,0.004-1.137,9.906,0.328,11.039
c-0.711-3.164,8.906-14.023,8.906-12.77c0,0,0.09,16.352-0.301,32.145c-2.582-1.777-8.047-4.973-11.578-8.242
c4.543-6.109-0.02-13.516-6.918-8.484c-4.43-2.398-5.109-13.715-6.203-19.645c-0.211-1.191-1.332-4.633-1.332-4.633
s-14.5-4.078-20.766-3.75c2.973,8.227,4.961,18.887-1.984,25.531c-5.52,7.199-17.368,8.676-17.059,8.02
C67.27,73.145,54.379,78.832,41.852,89.457c-2.309,15.82-10.469,23.609-16.231,27.918c0.039,6.41-0.043,12.757,0.219,19.227
c-0.004,0.039,5.262-3.453,6.086-2.813c4.402,28.593,20.512,34.262,18.898,35.055c-0.257,0.129-5.277,5.288-5.277,5.288
L25.883,161.18c-0.672,19.77-0.281,39.93,0,59.73c3.473-1.961,9.856-6.657,9.856-6.657l0.093-6.722
c-0.027-0.641,8.942,5.601,8.965,13.039c0.699,0.473,2.231-10.703,0.836-11.91l3.676-3.797l-3.961-3.813
c0,0,1.008-6.327-1.047-9.972c-1.328,8.343-8.258,10.945-8.258,10.945s-0.133-30.504-0.312-30.531l12.355,7.824
c-0.918,0.19-3.273,4.565-0.816,8.109c1.496,2.156,6.871,2.016,7.285-0.469c7.598,7.082,4.672,15.546,7.996,25.598l21.57,3.952
c-8.89-16.487,0.754-35.276,18.211-33.937c3.27-1.36,6.23-3.328,6.23-3.328s-2.172-3.547-4.914-6.836l-37.355-0.617l17.414-32.652
l-11.453-0.367c0,0,9.309-19.742,7.297-21.332c-0.707-0.559-0.414-6.926-0.414-6.926l10.234,0.383
c0.403-4.559-4.949-21.922-12.5-33.277l41.989,0.379l-23.637,32.965l12.695,0.367l-7.578,15.563l1.215,12.137l-11.266,0.363
c1.946,16.828,14.446,34.555,18.84,40.03c7.262-1.722,20.824-12.101,29.242-18.554c1.09-11.293,4.98-20.907,15.145-28.074
l0.137-18.824c0,0-5.906,3.98-5.906,3.719c0.023-4.023-2.176-12.344-5.941-19.863c-4.082-8.148-10.441-15.402-12.5-15.578
c3.605-5.453,5.109-6.086,5.055-6.172l19.637,12.59L154.066,29.379z M55.102,68.973c0,0-3.821,1.453-7.137,1.406
c-3.859-0.027-10.43,0.777-12.894,5.664c-0.493,1.484,0.582,2.031,1.371,2.422c0.464,0.227,1.203-2.273,6.523-2.484
c2.844,0.777,8.492-0.855,9.895-2.207C55.305,71.418,55.102,68.973,55.102,68.973L55.102,68.973z M28.703,94.512
c0,0.785,0.879,2.07,1.321,0.738c0.382-0.953,0.461-2.496,0.031-3.445C28.86,91.133,28.719,93.742,28.703,94.512L28.703,94.512z
M93.098,121.441l-5.805,0.023l-0.035,6.816l5.914,0.281L93.098,121.441z M150.141,155.367c-0.129,0.679-0.754,3.722,0.664,3.195
C152.477,157.273,151.051,151.355,150.141,155.367L150.141,155.367z M144.672,172.477c-0.684-0.996-2.809,1.457-4.547,1.578
c-7.773,0.559-13.445-0.586-14.398,7.473c4.461-2.848,10.711-1.547,14.738-2.469C143.375,178.089,146.715,175.457,144.672,172.477
L144.672,172.477z M144.672,172.477"/>
<path fill="#131F67" d="M24.852,230.168c-0.867-70.961-0.449-141.008-0.207-211.176l130.973,0.734
c-0.469,70.031-0.559,140.273,0.371,211L24.852,230.168z M30.453,93.648c0.114-2.031-0.722-2.871-1.445-1.477
c-0.172,0.332-0.734,3.859,0.602,3.977C30.485,96.227,30.406,94.52,30.453,93.648L30.453,93.648z M28.332,96.027
c-0.008-0.477-0.301-0.688,0.352-4.859c-1.246-0.48-2.328-2.504-1.418-3.785c0.351-0.5,0.25-0.609,0.105-1.027
c-0.359-1.039-0.168-1.883,0.793-2.543c0.617-0.426,0.641-0.535,0.446-1.094c-0.508-1.434-0.032-2.832,1.339-3.309
c0.95-0.328,0.766-0.375,0.868-0.977c0.222-1.348,0.964-2.164,2.32-2.027c1.254,0.125,1.34,0.125,1.445-0.488
c0.301-1.699,2.36-3.555,5.051-4.816c1.336-0.625,3.551-1.07,7.793-1.059c2.43-0.043,5.457-0.367,7.16-1.859
c0.278-0.262,0.668-0.949,0.805-0.855c0.316,0.215,0.238,1.91-0.383,3.453c-1.809,4.496-4.258,5.734-11.176,5.691
c-2.066-0.098-5.105,0.184-6.395,1.496c-0.383,0.406-0.641,0.789-0.496,0.996c2.867,0.41,5.812,1.703,7.527,7.359
c5.199-3.684,13.484-9.332,23.766-14.434c-1.235-6.762,4.629-7.805,7.914-6.461c0,0,0.086-0.441-0.043-0.953
c-0.125-0.496-0.305-1.148-0.91-1.988c-0.157-0.305-1.079-0.887-0.895-1.348c0.297-0.75,0.164-0.957-0.465-1.652
c-0.41-0.449-0.137-1.414-0.039-1.801c0.129-0.723,0.606-1.758,0.184-2.148c-0.649-0.602-2.867-1.621-4.012-2.434
c-1.262-0.918-1.285-1.742,0.566-4.766c0.84-1.754,1.637-3.641,2.309-4.902c1.02-1.906,1.121-3.164,0.508-4.258
c-0.805-1.43-0.672-3.125-0.653-3.082c0,0-7.597-10.805-10.726-15.055l-35.535-0.117l-0.348,81.246l6.332-5.844l-1.66-1.965
c-0.234,1.141-0.023,2.258-1.43,2.324C28.852,96.703,28.41,96.5,28.332,96.027L28.332,96.027z M49.449,204.355
c0.204-3.215-1.335-8.474-3.648-12.117c0.098,2.765,0.297,6.152-0.258,8.855L49.449,204.355z M105.527,212.738
c-0.281-0.09-2.613-0.235-4.078-0.313c-4.859-0.257-8.012-2.586-10.117-5.808c-0.516-0.793-0.301-0.758,0.844,0.14
c3.227,2.521,6.246,4.028,8.895,3.649c3.758-0.535,5.785,0.84,5.262,2.445C106.242,213.132,106.211,212.957,105.527,212.738
L105.527,212.738z M92.805,205.57c-0.754-0.652-0.809-0.945,0.082-0.352c2.727,1.816,6.02,4.777,10.09,3.043
c0.844-0.539,0.066-0.469-1.348-0.32c-2.156,0.229-4.789-0.867-8.023-3.098c-1.582-1.094-0.883-2.012,0.895-1.16
c0.551,0.266,1.105,0.461,1.461,0.48c1.75-1.161,5.434-1.148,5.348-1.141c0.418-0.359-0.957-0.935-3.004-1.707
c-1.328-0.504-1.648-0.707-0.66-0.746c0.863-0.035,2.223,0.394,3.203,1.031c1.641,1.051,2.465,1.637,2.953,1.703
c0.801,0.063,1.621,0.18,0.242,0.816c-0.625,0.293-0.57,0.367-0.5,1.07c0.113,1.098,0.18,1.086,0.688,1.707
c0.855,0.94,1.227,2.695,0.008,1.598c-0.266-0.121-0.289,0.113-1.008,0.402C99.012,210.089,95.871,208.23,92.805,205.57
L92.805,205.57z M100.586,205.882c0.234-0.308,0.59-1.097,0.637-1.319c-0.082-0.513-0.535-0.353-0.766-0.063
c-0.395,0.484-0.945,1.191-0.492,1.434C100.18,206.05,100.387,206.145,100.586,205.882L100.586,205.882z M99.145,205.55l0.938-1.668
c-0.23-0.108-3.406,0.548-2.906,1C97.617,205.289,99.145,205.55,99.145,205.55L99.145,205.55z M102.719,199.945
c-1.445-0.774-1.867-2.442-0.785-3.547c0.906-0.93,2.449-0.853,4.289,0.281c0.648,0.402,1.047,0.602,1.492,0.441
c0.742-0.273,1.023,0.141,0.965,0.723c-0.137,1.281-2.133,1.598-3.391,0.133c-1.664-1.934-3.477-0.582-2.945,0.816
c0.273,0.71,0.797,0.82,1.398,1.089C103.742,200.02,103.141,200.171,102.719,199.945L102.719,199.945z M96.129,191.332
c2.395-0.648,5.957,1.887,7.887,1.543c0.84-0.18,0.723,1.027-0.148,1.46c-1.016,0.513-2.461,0.168-5.523-1.429
c-2.527-1.363-4.566,0.898-2.883,2.582c0.363,0.344,0.891,0.547,1.539,0.515c0.852-0.039,1.102,0.196,0.004,0.478
c-0.633,0.164-1.809-0.094-2.379-0.668C93.266,194.438,93.602,191.789,96.129,191.332L96.129,191.332z M45.43,183.93
c-0.07-2.848,1.449-4.43,1.488-4.441l-10.765-7.305l0.16,29.176c5.332-3.387,7.086-7.656,7.39-13.164
c10.532,11.797,7.246,26.156,0.668,34.336c-0.273-5.008-1.765-10.922-7.847-13.953l-0.012,5.972l-10.09,7.157l0.059,6.594
l23.746,0.074l11.484-16.766c-2.078-7.606-1.765-13.935-3.172-17.414c-1.054-2.86-3.058-6.555-4.351-5.985
C49.813,191.676,45.516,187.632,45.43,183.93L45.43,183.93z M54.489,187.296c3.73,2.688,4.726,7.075,5.492,10.978
c0.023,0.031,1.957,13.223,2.019,13.397c0.25,0.724,0.164,1.446-0.472,1.997c-3.446,4.723-10.18,14.855-10.18,14.855l65.992,0.387
c-3.52-5.121-6.27-10.184-9.617-14.395c0.141-0.227-0.258-3.102-0.816-4.031c-0.574-0.957-0.707-1.461-0.316-2.336
c0.965-2.16,1.953-4.5,2.848-6.48c1.707-3.793,1.902-3.824-0.43-5.055c-2.766-1.61-3.258-2.133-2.676-3.973
c0.211-0.668,0.238-0.934-0.621-1.109c-0.395-0.078-1.359-0.309-2.004-0.488c-1.867-0.59-1.328-0.223-2.008,0.258
c-0.52,0.258-0.969-0.727-1.578-1.891c-0.699-1.34-0.875-1.371,0.281-0.684c2.148,1.276,5.957,0.78,4.613-0.695
c-0.656-0.719-1.262-1.09-1.191-2.723c0.066-1.617,0.094-2.09-1.008-2.316c-2.199-0.449-4.586-0.262-6.637,0.25
c-6.227,1.554-11.223,6.957-13.117,10.972c-0.43,0.7,0.551,0.664,0.972,0.664c2.043-0.179,3.493,3.071,2.157,4.532
c-0.618,0.648-1.235,0.25-0.575-0.594c0.75-1.398-0.371-3.25-2.011-2.777c-2.071,0.589-2.129,3.266-2.387,5.129
c-0.703,5.371,2.023,12.546,2.691,14.012c0,0,0.145,0.219,0.098,0.219c-0.051,0-0.379,0.301-0.519,0.145
c-0.477-0.543-1.688-4.938-2.344-8.074c-1.27-8.68,0.976-16.66,8.199-21.191c6.395-4.617,9.617-3.621,13.25-3.836
c1.238-0.445,2.961-1.121,4.262-1.762c6.398-3.492,11.582-6.473,17.016-9.434c5.277-2.871,8.813-6.973,13.637-9.536
c0.219-0.116,0.445-0.386,0.672-0.496c6-5.214,11.93-10.332,15.508-13.897c0.434-0.438,0.793-1.027,0.793-1.027l-0.609-30.082
c0,0-0.602-0.5-0.598-0.98c0.004-1.043-0.383-0.844-2.527,0.668c-2.699,1.895-2.883,1.801-2.883,1.801
c-1.426-13.801-8.891-27.371-17.938-35.309l0.375-0.508c0,0,3.023,2,4.535,2.949v-1.926l-3.645-2.281c0,0-0.324-0.262,0.031-0.742
c0.195-0.266,0.695-0.07,0.695-0.07l2.918,2.152v-1.758l-2.359-1.504l0.754-0.953l1.266,0.82c-0.535-1.391,0.223-1.34,1-0.418
c0.324,0.422,0.742,0.961,0.918,1.477c0.066,0.195,0.27,0.672,0.27,0.672l2.07,1.539c0,0-0.082-0.75-0.008-0.977
c0.352-1.094,2.848,2.43,2.535,2.512l2.117,1.527c0.504-0.766,2.391,0.758,2.469,1.508c0.168,0.328,7.305,4.922,7.305,4.922
l0.078-2.539l0.77-1l0.348-58.594l-9.48,6.059l-0.102,7.094c-4.477-1.449-8.355-7.934-8.922-11.98
c-0.293-0.156-1.59,7.98-0.902,11.543c-1.184,0.879-3.18,2.941-3.164,2.949l3.59,3.93c0,0-0.715,6.016-0.547,9.004
c0.145,1.418,0.172,1.563,0.598,1.566c0.344,0,0.652-0.371,0.652-0.695c0.844-3.578,3.617-9.16,8.41-11.063
c0.316-0.012-0.027,31.922-0.027,31.922l-11.895-8.117c-0.594-0.508,0.777-0.477,1.613-3.18c2.145-6.938-5.379-9.246-8.211-5.395
c-0.473-0.004-2.461-2.457-2.758-3.48c-2.199-4.434-2.621-9.457-3.047-13.484c-0.258-1.836-0.93-4.84-1.488-6.648
c-0.297-0.965-0.328-1.66,0.316-2.563c2.945-3.977,5.797-8.16,8.281-12.238c2.266-2.977,1.82-3.125,1.82-3.125l-66.164-0.215
L73.52,35.012l1.07,0.418c-1.828,0.234-1.207,1.836-0.496,3.555c0.871,2.117,0.777,2.551-1.441,6.91
c-3.247,6.387-3.422,5.828-0.18,7.805c2,1.281,2.363,1.563,2.07,3.301c-0.293,1.742-0.375,1.203,1.278,1.344
c0.882,0.078,1.585,0.238,1.984,0.418c0.453,0.203,0.789,0.488,1.371,0.297c0.977-0.32,1-0.082,1.039,0.633
c0.02,0.309,0.481,0.938,0.625,1.172c0.375,0.617,0.199,0.723-0.492,0.285c-2.125-1.34-5.684-0.766-4.375,0.691
c0.539,0.598,1.082,2.594,1.129,3.586c0.082,1.777,1.234,2.406,3.656,2.039c4.648-0.348,15.133-6.117,17.574-12.602
c-5.371,1.832-4.266-4.758-2.352-4.551c0,0-0.516,1.168-0.531,1.836c-0.059,2.355,1.914,2.539,3.273,0.867
c0.594-0.875,1.313-4.133,0.957-7.809c-0.426-4.453-2.23-9.434-2.559-10.672c7.68,18.332,0.629,26.391-10.164,31.652
c-4.133,1.727-4.699,1.715-7.133,1.828c-1.668,0.133-3.171,0.961-4.769,1.488c-9.234,4.406-20.578,9.902-30.731,18.098
C37.043,93,31.258,97.848,25.508,104.078l-0.023,32.343c0,0,0,0.513,0.656,0.114c1.656-0.594,3.398-2.105,4.973-2.7
c0.488,0.004,0.578-0.366,0.746,0.954c0.535,2.516,0.82,5.16,1.593,7.605c3.071,9.762,7.75,16.578,14.551,23.676
c0.766,0.793,1.902,2.23,1.902,2.23c-0.003-0.005-0.058,0.086-0.066,0.081c-1.465-0.972-2.93-1.94-4.348-2.687l-0.074,1.539
l3.461,2.383c0.094,0.371-0.594,0.886-0.594,0.886l-2.859-1.976l-0.02,1.57l2.211,1.409c0.598,0.599-0.722,0.911-0.722,0.911
l-1.313-0.949c0,0,0.094,0.762,0.055,0.895c-0.34,1.156-2.234-1.399-2.578-2.672l-1.863-1.106c0.265,0.759-0.403,0.86-0.93,0.672
c-1.399-0.711-1.32-1.901-1.613-2.608l-2.477-1.57c-0.426,2.359-2.945-0.965-2.547-1.762l-3.18-2.164
c0.176,0.066-1.214,0.354-1.683,0.047c-0.539-0.352-0.731-1.793-0.731-1.793l-1.906-1.18v2.066l19.606,13.684l-0.286,0.535
L25.004,160.52l0.828,60.719l9.969-6.895c-0.191-2.273,0.227-4.301,0.039-6.891c5.125,3.188,6.848,5.355,9.106,12.05
c1.46-3.812,1.207-7.468,0.55-10.851c1.309-1.07,2.582-2.113,3.243-3.728c-1.235-1.698-2.438-2.172-3.735-3.745
c-0.101-1.918,1.02-7.634-0.488-9.516c0,0-2.754,8.296-8.684,10.793c-0.183-8.762,0.024-30.793,0.024-30.793
s6.097,4.207,9.207,5.918c1.461,0.781,2.476,1.27,2.496,1.824c0.012,0.281-0.574,0.645-0.832,1.039
c-0.16,0.246-0.836,2.617-0.574,4.473c0.121,1.367,0.761,2.23,1.378,2.883C49.489,189.878,53.071,188.898,54.489,187.296
L54.489,187.296z M66.293,171.789l23.5-32.68c2.793,12.074,7.449,23.004,13.594,33.022L66.293,171.789z M77.887,137.309
c0,0,1.637-3.246,2.387-4.965h-2.871l1.718-1.93h4.278l-2.289,4.875h1.816l2.508-4.875h6.664l-2.328,4.875h1.535l2.492-4.875h6.195
l-2.18,4.875h1.453l1.273-2.457l0.309,4.477h-6.156l2.434-4.965h-1.984l-2.746,4.965h-5.766l2.5-4.965h-2.191l-2.746,4.965H77.887z
M96.879,119.84l2.484-5.254h-1.965l-2.75,5.141H88.5l2.422-5.082l-1.531,0.004c-1.039,1.605-2.695,4.859-2.695,4.859h-6.52
c0,0,1.844-3.453,2.57-5.141h-1.605l-1.309,2.086c-0.461-0.777-0.16-2.848-0.234-3.727h6.141l-2.469,5.039h1.961l2.691-5.039h6.488
l-2.645,5.039h1.539l2.617-4.762h6.602l-2.313,4.762h2.035l-0.898,2.074H96.879z M90.805,110.684l-1.242,0.234
C87.969,97.309,80.438,83.43,77.25,77.699l37.48,0.527L90.805,110.684z M134.813,32.094c0,0-3.574,4.598-3.813,12.305l3.406-2.719
C134.188,33.859,134.813,32.094,134.813,32.094L134.813,32.094z M131.039,44.98c-0.059,5.734,1.445,9.395,3.348,12.258
c0.035-3.695,0.406-7.438,0.625-8.418L131.039,44.98z M38.25,154.746l-12.121-8.348v1.828l14.406,9.785L38.25,154.746z
M36.067,150.266c-3.246-1.634-9.938-6.677-9.938-6.677v1.668l10.649,7.481c0.211,0.207,0.492,0.156,0.589-0.074
C36.949,151.957,36.446,150.992,36.067,150.266L36.067,150.266z M33.09,143.016l-6.961-4.855v1.511
c1.785,1.599,7.66,5.403,7.66,5.403L33.09,143.016z M26.129,137.055l6.551,4.234l-0.406-1.875l-4.653-3.161L26.129,137.055z
M143.828,78.371l0.352-30.168c-6.824,3.227-8.18,12.641-7.953,12.93c-6.793-7-9.352-22.094,0.176-32.246
c0.719,3.258,0.957,7.98,7.699,12.297l0.172-6.391l9.441-6.031l-0.078-7.262l-22.648-0.176c-3.516,4.449-7.027,9.516-10.504,14.238
c-1.305,1.773-1.629,2.605-1.379,3.531c2.285,8.211,1.828,18.324,6.625,23.105c6.434-6.051,12.461,3.059,7.461,8.676L143.828,78.371
z M45.957,208.816c0.871,2.746,0.274,8.289,0.215,8.289c1.039-0.566,3.867-8.59,3.16-11.605 M82.114,58.176
c-1.602-0.457-2.809-1.145-4.5-0.98c-1.333,0.137-1.786-0.305-0.973-1.031c1.062-0.898,2.094-1.27,4.062-0.238
c5.922,3.098,6.106-1.426,3.438-1.746c-0.758-0.094-0.723-0.574,0.031-0.453C88.313,53.891,87.051,59.375,82.114,58.176
L82.114,58.176z M75.192,53.656c-0.786-0.285-1.731-0.762-2.078-0.668c-0.879,0.234-0.911-0.25-0.805-0.82
c0.25-1.383,1.664-1.133,3.531,0.059c2.676,1.699,3.699-0.746,1.266-2.07c-0.817-0.441-0.567-0.566-0.086-0.586
c1.265-0.051,2.461,1.676,2.125,3.086C78.293,54.922,76.223,54.035,75.192,53.656L75.192,53.656z M83.028,49.477
c-1.731-0.301-4.239-2.629-5.403-2.789c-0.652-0.074-1.422,0.008-1.629-0.258c-0.64-0.801,1.172-0.801,1.293-1.094
c0.004-0.68,0.047-1.102,0.02-1.336c-0.32-0.43-1.578-2.164-1.535-3c0.031-0.055,0.66,0.461,0.984,0.465
c3.094-1.629,5.203-0.906,7.813,0.242c1.078,0.477,3.859,2.633,3.894,2.977c0.059,0.578-1.18-0.508-2.148-1.156
c-2.383-1.66-4.532-2.836-7.528-1.855c-0.465,0.16-0.383,0.246,1.149,0.152c1.5-0.09,2.73,0.371,4.645,1.621
c0.477,0.309,1.051,0.84,1.395,1c2.406,1.148,2.933,2.277,1.398,1.973c-0.328-0.066-0.965-0.406-1.59-0.629
c-1.101-0.387-0.711-0.27-1.769,0.223c-0.371,0.172-1.27,0.539-2.004,0.625c-0.563,0.094-2.391,0.078-1.582,0.852
c0.855,0.859,2.281,1.492,3.258,1.883C84.391,49.688,83.852,49.617,83.028,49.477L83.028,49.477z M83.235,45.734
c1.129-0.418,0.246-1.363-1.192-1.574c-0.332-0.047-1.035,1.508-1.051,1.836C80.981,46.238,82.617,45.965,83.235,45.734
L83.235,45.734z M80.121,45.902c0.258-0.164,1.125-1.418,1.125-1.617c0.004-0.805-1.023-0.578-1.261,0.258
C79.696,45.563,79.668,46.188,80.121,45.902L80.121,45.902z M76.516,39.422c-0.93-0.41-2.188-2.207-0.746-1.902
c0.308,0.07,1.929,0.156,2.972,0.16c3.559,0.016,7.102,1.625,9.356,3.969c1.254,1.305,1.336,2.27,0.062,1.371
C83.653,38.973,80.883,39.727,76.516,39.422L76.516,39.422z M111.641,178.953l-1.258,0.672c0.004,0.695,0.254,0.585,0.813,1.082
c0,0-0.773,0.125-1.34,0.086c-0.918-0.059-1.129-0.043-0.723,0.602c0.188,0.301,0.445,0.742,0.445,0.742s-0.5,0.109-1.25-0.098
c-1.137-0.313-1.719-0.157-1.289,0.477c0.117,0.176,0.348,0.504,0.348,0.504c-0.832-0.191-2.355-0.931-2.355-0.931l-1.074,0.325
C106.102,186.605,113.73,183.96,111.641,178.953L111.641,178.953z M148.855,172.977c1.18-0.992,0.605-2.203-1.117-3.095
c-0.715-0.37-0.645-0.375-1.809,0.31c-1.434,0.84-1.535,0.883-0.512,1.965C146.648,173.464,147.988,173.703,148.855,172.977
L148.855,172.977z M144.477,170.176c1.086-0.48,0.684-0.398,0.609-1.531c-0.316-1.31,0.422-1.398,0.789-2.617
c0.152-0.668-0.414-0.422-1.508,0.598c-0.906,0.762-1.172,0.945-1.172,0.574c0.102-0.305-0.621-1.098-1.266-1.207
c-0.551-0.09-0.496-0.215,0.039-0.907c0.926-1.203,1.309-2.718,0.688-4.054c-0.789-1.684-1.047-1.934-2.789-0.461
c-0.891,0.82-2.148,1.453-2.758,2.465c-0.438,0.746-0.184,1.468,0.504,2.938C139.332,169.637,141.988,171.281,144.477,170.176
L144.477,170.176z M150.574,170.21c1.91-0.75,1.141-2.815-1.848-4.894c-1.805-1.258-2.313-1.242-0.785,0.117
c0.98,0.866,1.133,1.176,0.715,1.801c-0.352,0.522-0.719,1.137-0.371,1.613C148.832,169.598,149.766,170.523,150.574,170.21
L150.574,170.21z M42.895,166.777l-2.086-1.317v1.802l2.086,1.241V166.777z M147.078,168.402c0.414-0.289,0.77-1.106,0.773-1.469
c0.094-0.836-1.27-0.638-1.922,0.289C145.195,168.266,146.063,169.117,147.078,168.402L147.078,168.402z M151.746,165.57
c0.949-0.996,0.488-2.059-1.461-3.32c-0.754-0.493-1.137-0.816-1.047,0.164c0.031,0.296-0.297,0.691-0.508,0.925
c-0.676,0.759-0.375,0.896,1.551,2.114C151.262,166.078,151.211,166.128,151.746,165.57L151.746,165.57z M42.895,163.656
l-2.086-1.262v1.637l2.086,1.406V163.656z M38.336,165.285l0.028-1.637l-2.704-1.797l-0.035,1.828L38.336,165.285z M144.547,164.625
c-0.348,0.938,1.051,0.512,1.133,0.414c0.242-0.473,0.027-0.516-0.09-0.566C145.344,164.367,144.391,164.531,144.547,164.625
L144.547,164.625z M145.156,163.438c0.48-0.152,0.539-0.094,0.473-0.957c-0.102-1.31,0.094-1.41,0.961-1.988
c0.695-0.457,0.699-0.387,0.688-1.191c-0.012-0.966,0.055-1.383,1.324-1.578c0.523-0.082,0.82-0.207,0.863-0.621
c0.074-0.688-1.039-1.855-2.418-2.527c-0.203,0-3.289,2.683-4.148,3.609l-0.527,0.566l0.629,1.18c0.98,1.84,0.82,2.516,0.242,4.957
c-0.117,0.652,0.387,0.559,0.52-0.23C143.934,163.926,144.035,163.656,145.156,163.438L145.156,163.438z M149.859,156.934
c-0.238,1.48,0.531,2.391,1.254,1.655c0.395-0.401,0.727-3.671,0.453-4.19C150.078,152.805,149.918,156.574,149.859,156.934
L149.859,156.934z M125.891,181.464c5.531-3.237,12.641-0.589,16.648-3.25c1.867-2.058,3.645-3.718,2.586-5.14
c-0.824-1.105-1.098-1.25-1.887-0.551c-1.434,1.276-2.797,1.602-6.637,1.656C129.938,173.934,126.031,176.168,125.891,181.464
L125.891,181.464z M135.344,173.75c3.523,0.125,6.387-0.488,7.699-1.508c0.813-0.637,0.934-0.746-0.34-0.852
c-2.738-0.22-5.508-3.391-6.375-6.47c-0.176-0.632-0.387-1.319-0.387-1.319c-7.289,5.816-23.336,14.983-23.336,14.983
c1.063,4.954-2.523,7.907-7.383,6.149c-0.848-0.078-0.738,1.012-0.578,1.457c0.266,0.733,0.852,1.348,0.969,1.445
c0.723,0.62,0.855,1.031,0.75,1.625c-0.109,0.586-0.098,0.566,0.313,0.784c0.73,0.392,0.691,0.95,0.293,2.099
c-0.43,1.617-0.457,2.023,0.703,2.793c1.496,0.961,4.43,2.012,4,3.457c-0.984,3.273-2.598,6.094-4.016,9.155
c-0.523,0.853-0.414,2.25,0.004,2.907c0.512,1,0.453,2.199,1.121,3.117c3.684,5.472,6.859,10.285,10.215,15.226l35.129,0.332
l-0.875-81.015c0,0-5.414,5.332-5.398,5.707c0.02,0.449,1.273,1.152,1.809,1.242c0.023-0.242,0-1.203,0.066-1.539
c0.051-0.488,1.613-0.363,2.133,0.062c0.359,0.298,0.25,2.235-0.117,3.813c-0.301,1.293-0.258,1.308,0.297,2.055
c0.672,0.91,0.906,1.68,0.82,2.707c-0.051,0.566-0.047,1.007,0.113,1.382c0.375,0.875,0.266,2.11-0.148,2.685
c-0.598,0.832-0.609,0.957-0.477,1.401c0.488,1.544,0.305,2.856-1.414,3.524c-0.219,0.086-0.461,0.465-0.602,0.793
c-0.75,2.469-2.156,2.465-4.078,1.754c-1.363,5.313-6.902,6.645-10.895,6.488c-4.156-0.164-8.387,0.147-10.266,2.867
C125.531,176.617,128.414,173.512,135.344,173.75L135.344,173.75z M147.891,163.055c0.707-0.262,0.793-1,0.199-1.473
c-0.91-0.727-1.957,0.012-1.527,1.063C146.801,163.234,147.203,163.313,147.891,163.055L147.891,163.055z M38.453,160.719
l-2.769-1.919l0.015,1.716l2.758,1.773L38.453,160.719z M43.676,162.128l-1.961-2.351c-5.773-3.531-10.781-7.481-15.586-10.664
l-0.035,2.18l1.375,0.691c0,0,0.113-0.478,0.207-0.754c0.18-0.521,1.766,0.94,2.273,2.108c0.125,0.293,0.399,0.946,0.399,0.946
l1.851,1.02c0,0,0.028-0.523,0.028-0.668c0.008-1.117,1.988,0.418,2.89,2.238c0.219,0.441,0.504,0.91,0.504,0.91l1.743,1.059
c0.687-0.938,2.437,0.348,2.886,1.488c0.567,1.445,1.571,1.57,1.61,1.574L43.676,162.128z M33.25,161.813l0.004-1.668l-2.887-1.898
l-0.039,1.691L33.25,161.813z M152.094,161.949c0.074-0.438-0.359-2.145-1.008-2.239c-0.402-0.058-1.039,0.556-1.039,0.985
C150.043,161.25,152.012,162.421,152.094,161.949L152.094,161.949z M149.742,159.925c0.633-0.69-0.164-1.586-1.129-1.276
c-1.145,0.371-0.746,1.41,0.535,1.43C149.434,160.082,149.605,160.074,149.742,159.925L149.742,159.925z M33.102,158.695l0.008-1.59
l-2.664-1.762l-0.055,1.555L33.102,158.695z M27.856,158.137l0.027-1.531l-1.754-1.224v1.832L27.856,158.137z M27.918,153.546
l-1.789-1.168v1.661l1.871,1.07L27.918,153.546z M35.188,148.5c-0.184-0.493-0.942-2.043-0.942-2.043l-8.117-5.668v1.746
l9.082,6.105L35.188,148.5z M31.391,135.035l-0.098-0.707l-0.722,0.382L31.391,135.035z M29.668,135.214l-1.133,0.614l3.43,2.23
l-0.277-1.586L29.668,135.214z M148.746,116.422l0.883-0.641l-1.563-1.055l-0.113,1.07L148.746,116.422z M150.328,115.406
l1.16-0.961l-3.883-2.738l0.273,1.703L150.328,115.406z M153.082,113.973v-1.172l-6.301-4.254l0.434,2.137
c1.113,0.641,2.469,1.582,3.891,2.578C152.004,113.895,152.008,114.141,153.082,113.973L153.082,113.973z M153.082,111.805v-1.859
l-7.289-4.84l0.59,2.18L153.082,111.805z M153.082,109.016l0.004-1.949l-8.824-5.828l0.965,2.574L153.082,109.016z M153.082,104.125
l-11.125-7.445l1.426,2.852l9.699,6.484V104.125z M153.082,101.281l-13.961-9.289l1.566,2.602l12.395,8.379V101.281z
M153.082,98.262l-0.523-0.004c-0.039,1.332-1.48,0.367-2.023-1.098c-0.41-0.98-0.5-1.227-0.5-1.227l-2.813-1.902
c0.059,0.387,0.219,1.492,0.219,1.492l-1.891-1.156c0,0-0.547-1.832-0.566-1.844l-3.234-2.199c0.066,0.375,0.121,0.992-0.09,1.035
c0,0-0.984-0.422-1.434-1.074c-0.469-0.684-0.539-1.367-0.539-1.367l-2.641-1.707l-0.656,0.07c0,0-0.355-0.242-0.691-0.512
c-0.625-1.121-1.359-1.289-2.234-1.746c0,0,1.859,2.168,2.852,3.449c0.91,1.184,2.016,2.027,2.016,2.027l14.75,9.844V98.262z
M153.082,95.227l-1.141-0.688l0.086,1.797l1.055,0.719V95.227z M38.098,91.27c0.07-0.113-0.223-0.242-0.543-0.945
c-0.793-1.746-0.871-2.355-0.445-4.188c0.203-0.875-0.594-1.25-0.957-0.316c-0.286,0.723-0.727,1.133-1.149,1.078
c-0.398-0.047-0.484,0.121-0.312,0.672c0.211,0.762-0.246,1.754-0.887,2.023c-0.645,0.168-0.762,0.574-0.582,1.168
c0.301,0.984-0.762,1.816-1.594,1.77c-1.289-0.074-0.785,1.098,0.77,2.215c0.574,0.414,0.832,0.637,1.285,0.43
C34.86,94.066,37.043,92.477,38.098,91.27L38.098,91.27z M149.918,94.871l-0.063-1.711l-3.242-2.191l0.398,2.293L149.918,94.871z
M153.082,94.152v-1.727l-1.332-0.855l0.066,1.832L153.082,94.152z M31.071,91.48c0.312,0.313,0.621,0.344,1.113,0.047
c0.57-0.297,0.351-0.746-0.242-1.039C31.383,90.195,30.606,91.086,31.071,91.48L31.071,91.48z M30.106,90.723
c-0.047-0.359,0.394-0.848,0.699-0.863c0.664-0.043,0.547-0.398-0.215-0.859c-0.355-0.215-0.988-0.719-1.219-0.887
c-1.14-0.828-2.242,0.449-1.394,1.527C28.684,90.543,29.731,91.078,30.106,90.723L30.106,90.723z M149.598,91.793l-0.25-1.906
l-2.93-1.945l0.23,2.098L149.598,91.793z M43.172,87.148c0.16-0.266,0.211-0.52,0.195-0.84c-0.062-1.199-0.679-2.609-1.546-3.785
c-0.645-0.879-1.43-1.629-2.223-2.07c-2.238-1.152-5.227-0.656-4.793,0.828c0.312,1,0.238,1.84-0.621,2.344
c-0.586,0.344-0.66,0.805-0.039,0.805c0.445,0,1.636-0.41,2.136-1.191c0.7-1.102,1.098-1.742,0.942,0.055
c-0.067,0.754,0.027,0.695,1.195,0.637c1.582-0.082,1.289,0.215,0.363,0.93c-1.343,1.035-1.613,2.793-0.933,4.285
c0.422,0.926,0.711,1.418,1.262,1.293C40.293,89.66,42.227,88.094,43.172,87.148L43.172,87.148z M144.426,89.371l-2.879-1.898
l0.113,2.031l3.109,1.836L144.426,89.371z M33.84,87.516c-1.055-1.332-2.297,0.367-1.492,1.113
C32.926,89.141,34.395,88.617,33.84,87.516L33.84,87.516z M31.344,87.699c-0.133-0.414,0.633-1.082,0.75-1.348
c0.352-0.77-2.777-2.918-3.75-1.645c-0.668,0.875-0.203,1.754,1.602,2.953C31.039,88.387,31.559,88.387,31.344,87.699L31.344,87.699
z M144.148,86.414l-2.664-1.66l0.047,1.754l2.828,1.707L144.148,86.414z M139.453,87.98v-1.789l-2.684-1.871l-0.047,1.855
L139.453,87.98z M35.129,85.867c0.488-0.48,0.324-0.637-0.617-0.59c-0.594,0.031-0.777-0.066-0.816,0.203
C33.606,86.086,34.629,86.363,35.129,85.867L35.129,85.867z M32.899,85.191c0.047-0.125-0.289-0.371-0.84-0.832
c-1.047-0.879-1.164-1.426-0.156-2.109c1.437-0.977-0.071-2.367-1.739-1.801c-1.347,0.457-1.351,1.813-0.55,2.688
C30.711,83.867,32.699,85.977,32.899,85.191L32.899,85.191z M139.453,83.402l-2.641-1.809v1.762l2.641,1.539V83.402z M33.395,83.516
c1.176-0.598,1.238-2.102,0.063-1.551c-0.488,0.227-1.121,0.844-1.125,1.121C32.328,83.629,32.793,83.824,33.395,83.516
L33.395,83.516z M34.258,80.066c1.523-0.816,1.289-1.578-0.227-2.527c-1.855-1.063-3.152,0.973-1.625,2.359
C33.203,80.625,33.391,80.535,34.258,80.066L34.258,80.066z M36.297,78.543c1.402-2.262,4.805-2.344,6.57-2.422
c7.793-0.348,9.051-0.98,11.082-4.477c0.836-1.984,0.758-2.555-0.449-1.961c-1.867,0.762-2.867,0.906-6.492,0.949
c-2.746,0.031-3.477,0.063-4.293,0.254c-4.187,0.992-7.051,2.895-7.723,5.254c-0.41,1.441-0.406,1.293,0.372,2.027
C36.02,78.785,36.293,78.914,36.297,78.543L36.297,78.543z M70.047,69.527c2.172,0.02,2.074,0.086,1.18-1.699
c2.117,0.289,2.969,1.301,2.273-0.805c1.121,0.402,1.793,0.711,2.953,1.09l0.735-0.426c-4.477-4.355-9.442-0.664-8.133,3.73
l1.664-0.797L70.047,69.527z M70.047,69.527"/>
<path fill="#D40000" d="M158.27,242.438v-2.871h2.586c0,0-0.023,1.004,0-9.316c0.02-8.997,0.09-9.066,0.348-9.938
c1.805-6.023,12.52-6.02,13.207,0.668c0.035,3.254,0.051,3.938,0.074,3.94h-2.867c0,0-0.004-0.815,0-1.284
c0.016-3.352-1.023-4.832-3.676-4.855c-2.016-0.016-3.141,0.711-3.777,2.363c-0.355,0.801-0.391,1.551-0.391,2.285
c0.004,3.711,0.004,16.141,0,16.137h2.883l0.039,2.852L158.27,242.438z M80.969,228.77l1.043-5.043l9.289,0.449
c0,0,1.07,3.168,1.508,4.594H80.969z M59.516,228.645l4.93-8.142l7,1.903l-1.614,6.363L59.516,228.645z M73.129,228.77l2.121-8.691
c-4.004-0.883-7.781-1.461-12.199-2.652l-7.18,11.344l-4.312-0.125c3.719-4.953,10.512-14.961,10.512-14.961
c15.578,5.359,31.285,6.266,47.097,3.434c0,0,5.824,7.688,7.914,11.852l-4.109-0.199l-5.105-8.551
c-3.555,0.387-7.051,0.859-10.758,1.016l2.539,7.535h-4.074l-2.32-7.517c-4.449-0.171-8.187,0.177-13.519-0.655l-1.879,8.168
L73.129,228.77z M102.531,228.77l-1.406-5.34l5.016-0.586c0,0,2.324,4.074,3.598,5.926H102.531z M117.219,212.757
c0.242-3.722,0.984-6.64,4.441-11.573c4.414-6.309,12.441-18.599,12.641-19.177c0,0,8.23,12.353,11.914,17.931
c3.141,4.781,5.055,10.112,5.16,13.313c0.199,6.141-3.668,9.98-8.859,10.617c-3.559,0.438-7.258-2.789-7.535-6.582
c-0.117-1.555-0.965-2.028-1.191-0.664c-0.297,4.734-4.043,7.535-8.34,7.117C119.066,223.113,116.949,216.832,117.219,212.757
L117.219,212.757z M161.922,212.195c-1.637-0.521-2.813-2.199-3.02-4.313c-0.234-2.413,0.637-4.882,3.586-9.397
c1.398-2.195,2.867-4.508,4.02-6.84c1.734,2.547,2.637,4.504,4.387,7.137c4.016,6.438,4.785,9.906,2.738,12.371
c-1.445,1.742-4.488,1.789-5.742,0.09c-0.379-0.512-0.469-0.746-0.734-1.871c-0.121-0.5-0.48-0.566-0.582-0.105
C166.051,211.641,164.078,212.882,161.922,212.195L161.922,212.195z M57.535,179.121c6.235-9.48,28.258-40.039,28.258-40.039
L89,139.387c0,0-19.535,27.254-29.035,41.094L57.535,179.121z M25.969,167.574c-0.344-0.348-0.344-2.446,0.266-2.442
c0.757,0.005,8.117,4.5,7.074,5.328c-0.211,0.168,0.461,42.396,0.461,42.396l-8.16,5.848
C25.61,218.703,26.039,167.645,25.969,167.574L25.969,167.574z M57.614,93.938l4.648,9.098c-19.75,18.715-15.875,40.675-5.293,56.34
c0,0-1.344,3.43-4.324,7.148c-14.266-9.57-18.59-34.164-18.59-34.164C49.832,118.285,51.961,113.805,57.614,93.938L57.614,93.938z
M138.508,160.832c0.902-13.309,7.43-21.914,15.414-29.305l0.188,15.129C149.137,151.426,144.059,156.175,138.508,160.832
L138.508,160.832z M117.707,147.051c6.531-5.055,13.059-18.16,13.871-26.801c0.629-11.531-1.766-20.141-8.586-29.137l5.156-7.203
c7.313,7.824,14.48,16.023,17.531,35.078c0,0-0.387,0.227-1.258,0.91c-19.012,16.733-21.953,36.395-21.953,36.395L117.707,147.051z
M93.945,128.305l-0.109-6.652l6.469-0.031l-0.184,6.589L93.945,128.305z M80.192,128.203l-0.348-6.883l6.852,0.402l-0.301,6.616
L80.192,128.203z M91.277,110.531c0,0,21.434-29.957,29.848-40.789l1.789,1.313l-28.516,39.699L91.277,110.531z M41.184,89.598
c-0.02,11.844-7.61,21.227-15.363,27.348l0.105-13.48L41.184,89.598z M45.703,68.051c0,0-15.433-20.648-17.082-29.633
c-0.55-5.465,2.555-11.203,7.922-11.938c4.168-0.508,8.192,2.484,8.696,6.746c0.093,0.836,0.285,1.063,0.722,0.867
c0.32-0.145,0.371-0.313,0.512-1.762c0.398-4.117,4.242-6.398,8.23-6.051c7.145,0.918,9.641,9.844,7.645,14.352
C58.129,50.145,44.832,68.398,45.703,68.051L45.703,68.051z M4.832,44.207c-0.597-2.418,0.317-5.535,2.051-6.32
c2.578-1.164,5.055,0.305,5.469,2.598c0.156,0.859,0.519,0.805,0.664-0.09c0.351-2.203,2.906-3.445,5.129-2.301
c2.75,1.414,3.297,5.078,1.246,9.156c-2.297,3.879-6.973,11.309-6.973,11.309C12.274,58.133,5.867,48.488,4.832,44.207L4.832,44.207
z M153.84,32.457l0.043,52.559l-7.246-4.363l0.617-44.074L153.84,32.457z M119.301,35.57c-16.355-4.254-31.258-5.527-46.926-2.168
c-2.039-2.438-8.902-12.578-8.902-12.578l3.976,0.102l5.59,8.93l10.676-1.398l-2.746-7.289l4.402,0.016l2.192,7.152
c-0.024-0.055,8.687,0.086,13.527,0.66c0.77-2.656,2.203-7.938,2.203-7.938l4.848-0.004c-0.621,2.539-2.297,8.574-2.297,8.574
c3.973,0.555,11.34,2.426,11.406,2.508c2.586-3.652,4.988-7.309,7.324-10.961l4.727-0.023
C127.91,23.512,119.563,35.688,119.301,35.57L119.301,35.57z M4.953,25.41h2.942c-0.098,2.145-0.067,4.695,1.91,5.613
c3.512,1.199,5.84-0.93,6.074-4.012c0.16-3.531,0.07-16.309,0.07-16.309h-2.793V7.813h8.579v2.891h-2.817
c0,0,0.199,10.945-0.015,16.402c-0.137,5.387-4.25,7.207-7.649,7.012C4.211,33.855,4.801,28.82,4.953,25.41L4.953,25.41z
M116.285,29.27l-7.227-1.684l1.887-6.371l10.102-0.004L116.285,29.27z M74.785,26.965l-3.359-5.91h6.465l2.14,5.207L74.785,26.965z
M89.465,25.762l-0.98-4.707h11.738l-1.199,5.016L89.465,25.762z M89.465,25.762"/>
<path d="M62.617,20.66l10.442,15.07c0.051-0.051,5.851-1.156,11.558-1.438c5.668-0.277,12.43,0.078,12.489,0.25
c0,0,1.785,5.387,2.391,8.031c0.797,3.535,0.715,7.605-0.129,10.305c-1.234,3.953-1.887,5.141-4.648,7.859
c-2.043,1.984-4.938,4.141-7.918,5.293c-4.133,1.727-4.555,1.719-6.992,1.832c-1.61,0.074-1.774,0.137-2.653,0.594
c-0.273,0.094-0.449,0.379-0.691,0.461c-0.203,0.066-0.59-0.012-0.59-0.012c-13.433,5.887-23.945,12.453-31.89,18.313
c-0.09,0.07-0.153,0.375-0.239,0.445c-0.652,0.531-1.25,0.938-1.882,1.422c-0.09,0.066-0.286-0.055-0.372,0.016
c-9.343,7.199-14.636,13.035-16.586,14.719l0.192,33.523c0,0,4.258-2.188,6.437-3.52c1.532,12.98,8.008,25.59,18.227,34.344
l-4.434,6.113l-20.433-14.067l0.285,61.849l10.863-7.543v-6.523c3.238,2.179,6.399,3.027,8.696,12.957
c1.839-3.489,1.679-8.68,0.855-12.152c0.012,0,2.758-2.266,3.598-4.008l-4.036-3.579c0,0,1.043-8.671-0.859-10.418
c-1.504,3.935-2.707,8.106-8.336,11.146l-0.07-30.129c2.805,1.776,5.461,3.776,8.234,5.602l0.379-0.079l2.871,1.966
c0,0-0.304,0.617-0.582,1.038c-3.488,5.286,2.321,11.771,7.047,7.868c1.852-1.527,5.324,4.824,5.977,10.938
c0.668,3.944,1.027,8.848,2.097,12.276c0.332,1,0.203,1.56-0.504,2.168c-3.621,5.095-10.898,15.36-10.898,15.36h5.246l0.391-0.602
H52.27c3.328-4.43,6.508-9.595,9.961-13.918c12.871,4.844,33.953,5.965,46.687,3.027c2.629,3.688,5.188,7.55,7.715,11.309h-3.66
l0.504,0.789h4.953l-10.434-15.359c-7.195,2.137-24.727,1.305-24.41,1.129c0,0-0.047-0.121-0.652-1.864
c-3.012-9.718-3.289-18.343,4.262-25.315c4.011-3.566,8.492-5.918,13.496-5.474c2.234-0.043,2.277-0.164,3.211-0.586
c0.512-0.229,1.578-0.472,1.578-0.472l5.07-2.809l0.668-0.134l1.457-0.769l0.301-0.359l2.355-1.195l0.266,0.023l3.184-1.832
l0.043-0.262l1.254-0.771l0.297,0.313c0.348,0.031,12.484-7.934,17.547-12.371l0.313,0.113c5.91-4.781,13.949-12.32,16.332-15.185
l-0.129-14.351l-0.203-0.172l-0.082-15.891h-0.461l-0.02-1.957c-2.613,0.965-5.488,3.395-5.68,3.293
c-1.664-13.453-7.859-25.844-17.98-34.941l4.309-5.949l20.012,13.461l0.055-3.934h0.25c0.242-15.082,0.379-54.176,0.379-54.176
l-0.199-0.02l-0.004-3.121l-10.227,6.531l-0.145,6.598c-4.535-1.48-7.406-6.93-8.359-11.785c-1.32,0.531-1.934,5.645-1.445,12.117
c-1.402,0.836-2.301,1.754-3.16,2.859c1.113,1.398,2.344,2.547,3.703,3.719c-0.285,0.609-0.883,9.25-0.289,10.324
c0.273,0.789,1.219,0.676,1.223-0.152c1.379-6.742,7.77-11.164,8.129-10.754l-0.156,31.07l-11.355-7.961
c2.387-2.691,2.887-7.23-0.117-9.453c-3.012-2.227-5.957-0.34-6.656,1.078c-3.688-2.402-4.926-11.305-5.465-14.789
c-0.133-1.695-0.57-4-1.07-6.074c-0.313-1.305-0.688-2.547-0.738-3.715c-0.02-0.547,0.047-0.785,0.543-1.473l11.039-15.664
l-5.633-0.02l-0.055,0.098l4.434,0.012l-9.957,14.137c-14.98-4.703-30.512-5.844-47.129-2.855l-8.207-11.547l3.734-0.016
l-0.148-0.246H62.617z M71.281,20.793l0.157,0.281l6.453-0.02l-0.098-0.238C77.793,20.816,71.293,20.793,71.281,20.793
L71.281,20.793z M80.844,20.828l0.125,0.34l4.398,0.016l-0.128-0.332L80.844,20.828z M103.32,20.945l-0.039,0.156l4.844,0.008
l0.043-0.156L103.32,20.945z M88.457,20.949l0.047,0.199h11.699l0.043-0.188L88.457,20.949z M110.988,21.055l-0.047,0.164
l10.102-0.008l0.086-0.156H110.988z M153.605,29.672l0.031,2.125l-6.781,4.313c-0.172,9.094-0.434,44.07-0.434,44.07l-1.625-1.066
l0.32-43.797C145.117,35.316,151.117,31.457,153.605,29.672L153.605,29.672z M135.805,31.383h0.227l0.07,0.492h-0.395
L135.805,31.383z M136.285,32.664l0.176,0.668l-0.992-0.004l0.168-0.645L136.285,32.664z M153.41,33.012v1.387l-5.855,3.66V36.68
L153.41,33.012z M135.34,34.168l1.535,0.02l0.254,0.766h-1.926L135.34,34.168z M97.746,34.578l1.023,0.152
c2.348,5.598,2.953,10.406,3.359,15.406c0.938,6.492,2.824,12.996,4.137,15.762l-1.504-0.016c-0.172-0.02-3.34-9.418-4-14.969
c-0.18-1.098-0.109-2.117-0.164-3.137C100.262,43.488,99.676,40.262,97.746,34.578L97.746,34.578z M99.672,34.805l1.305,0.133
c0.914,3.973,2.246,7.727,2.785,11.719c0.867,6.387,1.328,12.91,4.406,19.207l-1.223-0.012c-1.867-4.258-3.023-8.695-3.77-13.496
c-0.582-2.754-0.586-4.82-0.895-7.309C101.906,42.059,100.754,38.262,99.672,34.805L99.672,34.805z M101.656,34.988l1.309,0.195
c0.859,3.945,2.336,8.289,2.727,11.855c0.793,7.266,1.934,14.039,4.227,18.844l-0.914-0.027c-3.543-6.859-3.598-12.969-4.59-19.398
C103.828,42.676,102.59,38.887,101.656,34.988L101.656,34.988z M103.738,35.297l1.156,0.176c0.805,3.926,2.246,8.371,2.578,12.355
c0.594,7.051,1.848,12.387,4.469,18.078l-1.082,0.02c-3.168-5.543-3.594-12.348-4.578-19.238
C105.734,42.883,104.508,39.051,103.738,35.297L103.738,35.297z M153.41,35.305v1.715l-5.855,3.762v-1.695L153.41,35.305z
M105.629,35.637l1.207,0.188c0.777,3.785,2.223,7.828,2.563,11.516c0.582,6.301,1.742,12.664,4.34,18.531l-1.113,0.066
c-2.746-5.918-3.945-11.309-4.465-18.113C107.871,44.008,106.402,39.355,105.629,35.637L105.629,35.637z M137.508,35.656l0.422,1.02
l-2.805,0.137l0.035-1.145L137.508,35.656z M107.613,36.012l1.438,0.281c1.52,6.039,1.918,11.762,2.953,17.504
c1.293,7.133,2.656,10.719,3.773,12.051l-1.188,0.035c-2.898-6.176-3.926-12.316-4.598-18.68
C109.594,43.449,108.363,39.75,107.613,36.012L107.613,36.012z M109.801,36.422l1.094,0.219c1.305,4.938,1.895,9.555,2.469,14.023
c1.043,8.488,3.871,14.945,4.473,15.242l-1.207-0.051c-2.617-3.617-3.586-9.773-4.871-18.461
C111.191,43.574,110.629,39.98,109.801,36.422L109.801,36.422z M111.563,36.773l1.227,0.301c0,0,1.105,4.344,1.938,10.109
c0.695,4.805,1.063,14.258,6.285,19.695c2.609,2.711,7.199,5.07,10.336,2.508c1.336-1.141,2.199-2.969,1.395-4.926
c-1.352-3.273-5.934-2.715-4.41,0.723c0.172,0.824-0.906,0.859-1.656,0.055c-0.789-0.859-0.594-1.84-0.031-2.742
c1.176-1.898,4.332-2.094,6.184-0.398c2.957,2.898,1.68,7.871-2.066,9.445c-4.316,1.836-9.879-1.949-12.082-5.563
c-3.641-6.289-4.207-12.262-5.063-18.613C113.184,43.938,112.348,40.336,111.563,36.773L111.563,36.773z M113.41,37.281l1.246,0.301
c0.004,0.02,1.363,6.125,1.813,9.742c0.559,4.469,1.176,9.738,3.09,13.805c1.188,2.531,2.922,4.656,4.672,5.895
c1.508,1.066,2.859,1.742,4.863,1.305c2.313-0.504,2.41-4.082,0.203-4.094c-1.125-0.004-0.391-1.09,0.543-1.121
c3.328-0.109,3.422,5.137,0.293,6.305c-3.586,1.34-7.465-1.184-9.867-4.355c-4.199-6.523-4.031-12.473-4.957-17.734
C115.063,44.559,113.504,37.41,113.41,37.281L113.41,37.281z M138.582,37.465l0.758,1.016l-4.223-0.02l0.02-0.965L138.582,37.465z
M115.262,37.801l1.191,0.414c0.035,0,1.195,4.742,1.918,10.344c0.855,5.398,1.137,9.895,3.934,13.797
c1.164,1.621,3.359,3.789,4.742,4.047c0.859,0.184,1.746-0.004,1.965-0.656c0.355-1.066,1.27-0.578,1.289,0.391
c-0.004,0.68-0.5,1.383-1.34,1.625c-4.113,0.711-7.875-4.449-9.016-7.066c-1.547-3.809-2.207-8.063-2.879-13.359
C116.785,45.094,115.426,37.945,115.262,37.801L115.262,37.801z M153.41,37.992l-0.02,1.711l-5.836,3.676v-1.664L153.41,37.992z
M117.055,38.324l1.336,0.363c0,0,1.113,4.172,1.777,9.32c0.672,5.219,2.117,11.285,4.82,14.426c0.246,0.301,0.414,0.512,0.52,0.688
c0.195,0.43-0.035,1.148-0.238,1.148c-4.813-2.504-5.949-12.57-6.363-15.973C118.297,43.035,117.055,38.324,117.055,38.324
L117.055,38.324z M135.777,39.133l4.246,0.117l1.012,1l-5.625-0.051C134.816,39.586,135.188,39.656,135.777,39.133L135.777,39.133z
M153.41,40.52v1.422l-5.855,3.707v-1.449L153.41,40.52z M135.922,40.969l6.215,0.109l2.18,1.297l-9.496-0.078L135.922,40.969z
M153.41,42.77v1.703l-5.855,3.668v-1.598L153.41,42.77z M133.621,43.094l10.559,0.109l0.027,1.145l-11.449-0.293L133.621,43.094z
M132.246,45.051l11.941,0.031l0.031,1.266l-10.859-0.105L132.246,45.051z M153.41,45.246v1.773l-5.855,3.629v-1.684L153.41,45.246z
M134.492,47.105l9.152,0.043l-0.992,1.059l-6.902-0.07L134.492,47.105z M153.41,47.73v1.676l-5.855,3.684v-1.652L153.41,47.73z
M141.379,49.012l-1.109,1.078l-4.742-0.066l0.164-0.98L141.379,49.012z M153.41,50.188v1.797l-5.855,3.574v-1.555L153.41,50.188z
M135.461,50.844l3.914,0.082l-0.598,0.824l-3.426,0.016L135.461,50.844z M100.262,52.273c0.594,4.52,3.871,13.625,3.871,13.621
l-1.293,0.012c0.063,0.09-2.344-5.734-3.211-11.223C99.523,54.16,99.879,52.395,100.262,52.273L100.262,52.273z M135.207,52.535
l3.012,0.051l-0.656,1.164l-2.453-0.004L135.207,52.535z M153.41,52.809v1.57l-5.855,3.602v-1.434L153.41,52.809z M135.109,54.398
l1.996,0.063l-0.473,1.078l-1.547-0.047L135.109,54.398z M153.41,55.246v1.676l-5.855,3.629v-1.617L153.41,55.246z M99.031,55.602
c0.586,3.289,3.082,9.898,3.273,10.332l-1.105,0.016c-0.051,0.152-2.598-5.926-2.867-8.523
C98.199,56.879,98.488,55.805,99.031,55.602L99.031,55.602z M135.09,56.301l1.184,0.055l-0.203,0.617l-0.957,0.023L135.09,56.301z
M135.195,57.781l0.613,0.016l-0.145,0.586h-0.387L135.195,57.781z M153.41,57.813v1.355l-5.855,3.703v-1.285L153.41,57.813z
M97.563,57.961c0.891,2.637,1.777,5.324,2.828,7.898l-1.309-0.031c-0.871-1.855-1.48-3.941-2.16-5.988
C96.738,58.988,97.137,58.258,97.563,57.961L97.563,57.961z M96.258,59.723l2.18,6.09h-1.238c-0.508-1.227-1.082-2.598-1.484-3.855
C95.305,60.648,95.344,60.605,96.258,59.723L96.258,59.723z M153.41,60.102v1.605l-5.855,3.621v-1.383L153.41,60.102z
M95.344,62.457l1.195,3.375l-1.527-0.039c-0.449-1.063-0.723-1.992-0.836-3.023c-0.039-0.5-0.133-1,0.219-1.211
C95.086,61.168,95.008,61.488,95.344,62.457L95.344,62.457z M93.723,63.84l0.633,1.977l-1.426-0.035
c-0.422-0.938-0.582-1.609-0.457-2.586C93.332,62.203,93.398,62.723,93.723,63.84L93.723,63.84z M153.41,62.676v1.68l-5.855,3.52
v-1.559L153.41,62.676z M91.695,63.883l0.598,1.949l-1.289-0.031c-0.215-0.457-0.078-1.016-0.086-1.531L91.695,63.883z
M90.008,64.879c0.02,0.004,0.035,0.008,0.043,0.016c0.184,0.863,0.004,0.918,0.016,0.91l-1.801-0.012
C88.266,65.793,89.727,64.867,90.008,64.879L90.008,64.879z M153.41,65.383v1.344l-5.855,3.648v-1.359L153.41,65.383z
M83.809,67.512l35.176,0.098l1.172,1.656c0,0-3.422,0.094-14.633,0.023c-9.438,0.125-28.398-0.199-28.398-0.199l1.848-0.871
C81.528,68.16,83.844,67.496,83.809,67.512L83.809,67.512z M153.41,67.707v1.48l-5.855,3.543v-1.43L153.41,67.707z M54.43,69.125
c-2.828,1.254-5.469,1.563-7.441,1.402c-4.247-0.344-10.743,1.434-12.051,5.512c-0.41,1.441-0.414,1.48,0.363,2.215
c0.387,0.363,0.766,0.641,0.836,0.613c0.684-0.605,1.59-1.73,2.559-2.059c1.277-0.387,1.968-0.438,4.062-0.531
c4.508-0.199,5.527-0.391,6.648-0.688c2.469-0.652,4.958-3.082,5.106-5.785C54.531,69.492,54.43,69.125,54.43,69.125L54.43,69.125z
M54.309,69.496c-0.477,5.645-6.59,6.379-9.274,6.219c-5.445-0.328-7.589,1.301-8.453,2.309c-0.281,0.27-0.449,0.207-0.402-0.039
c0.633-3.125,5.68-3.242,8.223-3.211c6.23,0.285,7.808-2.719,7.632-2.746c-0.472,0.211-0.824,0.398-1.304,0.625
c-0.207,0.086-0.16-0.039-0.7-0.352c-0.007,0.039-0.625,1.438-1.421,0.113c0.023,0.066-0.567,1.176-1.653,0.137
c0.008,0.113-0.656,1.066-1.715,0.09c-1,0.855-1.476,0.387-1.906-0.215c-0.312,0.188-1.238,1.438-2.012,0.094
c-0.82,0.523-1.164,1.09-1.871,0.746c-1.652,0.297-3.078,1.992-3.66,3.543c-0.183,0.531-0.551,0.617-0.594,0.031
c-0.195-1.621,2.469-4.426,5.141-5.199c2.082-0.602,3.5-1.035,8.07-0.863C51.008,70.879,54.309,69.496,54.309,69.496L54.309,69.496z
M121.039,69.922l1.648,1.117l-28.691,39.563l-2.535-0.066L121.039,69.922z M75.012,69.949h3.262v5.391h-2.813l-1.004-1.492
c0.258,0.152,0.563,0.246,0.883,0.246c0.965,0,1.75-0.785,1.75-1.75s-0.785-1.746-1.75-1.746s-1.75,0.781-1.75,1.746
c0,0.086,0.008,0.168,0.02,0.25l-1.051-1.559c0,0,0.449-0.266,1.515-0.738C74.348,70.172,75.012,69.949,75.012,69.949L75.012,69.949
z M85.067,69.949h5.527v5.391h-5.527V69.949z M97.176,69.949h5.723v5.426l-5.723-0.035V69.949z M109.531,69.949h5.715v5.391h-5.715
V69.949z M153.324,70.078l0.086,1.684l-5.855,3.559v-1.664L153.324,70.078z M112.18,70.637c-1.02,0-1.855,0.824-1.855,1.848
c0,1.02,0.836,1.848,1.855,1.848c1.023,0,1.852-0.828,1.852-1.848C114.031,71.461,113.203,70.637,112.18,70.637L112.18,70.637z
M87.844,70.734c-1.023,0-1.852,0.824-1.852,1.844c0,1.023,0.829,1.852,1.852,1.852c1.02,0,1.848-0.828,1.848-1.852
C89.692,71.559,88.864,70.734,87.844,70.734L87.844,70.734z M99.898,70.77c-1.02,0-1.852,0.824-1.852,1.844
c0,1.023,0.832,1.852,1.852,1.852c1.023,0,1.852-0.828,1.852-1.852C101.75,71.594,100.922,70.77,99.898,70.77L99.898,70.77z
M106.129,70.988c0.855,0,1.551,0.695,1.551,1.555c0,0.855-0.695,1.551-1.551,1.551s-1.551-0.695-1.551-1.551
C104.578,71.684,105.273,70.988,106.129,70.988L106.129,70.988z M81.602,71.012c0.859,0,1.551,0.695,1.551,1.551
c0,0.859-0.692,1.555-1.551,1.555c-0.856,0-1.551-0.695-1.551-1.555C80.051,71.707,80.746,71.012,81.602,71.012L81.602,71.012z
M118.367,71.066c0.367,0,0.703,0.141,0.957,0.371l-1.691,2.293c-0.418-0.25-0.699-0.703-0.699-1.227
C116.934,71.711,117.574,71.066,118.367,71.066L118.367,71.066z M94.078,71.074c0.855,0,1.551,0.695,1.551,1.551
c0,0.859-0.695,1.555-1.551,1.555c-0.859,0-1.555-0.695-1.555-1.555C92.523,71.77,93.219,71.074,94.078,71.074L94.078,71.074z
M75.34,71.188c0.641,0,1.156,0.516,1.156,1.156c0,0.637-0.515,1.16-1.156,1.16c-0.637,0-1.16-0.523-1.16-1.16
C74.18,71.703,74.703,71.188,75.34,71.188L75.34,71.188z M71.793,71.25c9.856,12.555,15.094,25.281,17.399,39.148l-1.653-0.074
c-2.738-15.086-8.906-28.023-17.269-38.465L71.793,71.25z M112.18,71.262c0.676,0,1.227,0.547,1.227,1.223s-0.551,1.223-1.227,1.223
s-1.227-0.547-1.227-1.223S111.504,71.262,112.18,71.262L112.18,71.262z M87.844,71.359c0.676,0,1.227,0.543,1.227,1.219
c0,0.68-0.551,1.227-1.227,1.227s-1.227-0.547-1.227-1.227C86.617,71.902,87.168,71.359,87.844,71.359L87.844,71.359z
M99.898,71.395c0.676,0,1.227,0.543,1.227,1.219s-0.551,1.227-1.227,1.227s-1.227-0.551-1.227-1.227S99.223,71.395,99.898,71.395
L99.898,71.395z M130.574,72.27c0.648,4.969-0.633,8.176-4.422,8.695c-4.832,0.664-5.457,1.027-5.484,5.602
c-0.031,5.422-0.836,6.988-4.676,7.418c-4.32,0.48-5.324,0.992-4.938,6.363c0.281,3.922-1.262,5.59-4.59,6.316
c-2.602,0.57-4.852,1.441-5.816,4.063l-2.379,0.031c0.617-4.129,4.77-6.102,7.43-6.238c2.867-0.68,3.465-1.641,3-6.668
c-0.348-3.785,1.039-4.934,5.484-5.801c3.555-0.699,4.426-1.719,4.234-4.625c-0.414-6.234-0.004-7.172,3.535-7.93
c1.805-0.426,4.746-0.617,5.867-1.996c1.273-1.57,0.949-2.906,0.832-4.832L130.574,72.27z M153.41,72.438v1.629l-5.855,3.609V76.09
L153.41,72.438z M67.379,73.402c-1.254,5.402,3.051,6.578,5.668,7.488c3.047,1.063,3.789,2.602,3.442,7.969
c-0.262,4.063,0.187,4.961,2.816,6.355c4.023,2.074,5.105,5.023,3.316,9.344c-1.101,2.66-0.523,3.41,0.176,5.734l-1.953-0.02
c-0.141,0.043-1.789-2.898-0.383-6.066c1.668-3.754,1.617-5.641-2.094-7.328c-2.875-1.309-3.753-2.539-3.933-5.23
c-0.074-1.133-0.067-1.695,0.199-4.156c0.332-3.105-0.773-4.441-5.363-6.145c-2.043-0.762-3.434-2.531-3.852-5.336
c-0.117-0.785-0.012-1.691-0.012-1.691L67.379,73.402z M136.004,73.988l17.453,11.609l-0.121,2.582L134.82,75.813L136.004,73.988z
M124.758,74.242c0.844,0,1.531,0.688,1.531,1.531s-0.688,1.527-1.531,1.527s-1.527-0.684-1.527-1.527
S123.914,74.242,124.758,74.242L124.758,74.242z M69.856,74.91c0.765,0,1.386,0.621,1.386,1.387s-0.621,1.387-1.386,1.387
c-0.766,0-1.387-0.621-1.387-1.387S69.09,74.91,69.856,74.91L69.856,74.91z M153.359,75.074l-0.059,1.555l-5.746,3.555v-1.555
L153.359,75.074z M62.289,76.16c5.278,6.879,10.465,13.965,14.465,27.32l-1.707,0.656c-3.305-10.75-8.383-19.68-14.371-27.066
L62.289,76.16z M76.071,76.094h39.757l-1.02,1.375l-37.981-0.391L76.071,76.094z M153.41,77.387v1.703l-4.402,2.68l-1.297-0.848
L153.41,77.387z M59.953,77.566l0.782,1.027c0,0-0.848,0.66-1.801,1.344c-2.606,1.863-2.942,2.074-3.117,3.285
c-0.411,2.879,2.55,4.301,5.523,2.637c1.063-0.488,3.399-1.969,3.399-1.969l0.671,0.988c0,0-3.347,2.508-5.312,3.078
c-4.313,1.25-7.531-4.211-4.344-7.457c0.485-0.496,1.516-1.16,2.332-1.691C58.926,78.266,59.953,77.566,59.953,77.566L59.953,77.566
z M77.699,78.246l36.633,0.219l-23.395,31.973l-1.039-0.059C88.086,98.422,83.586,87.973,77.699,78.246L77.699,78.246z
M61.727,79.602l2.14,2.988c0,0-1.394,1.336-3.699,2.598c-1.847,1.008-3.847-0.828-2.687-2.484
C58.676,81.059,61.727,79.602,61.727,79.602L61.727,79.602z M153.41,79.906v1.559l-2.539,1.559l-1.16-0.742L153.41,79.906z
M61.457,81.105c-1.015,0.055-2.699,1.207-3.273,2.199c-0.246,0.43-0.156,0.785,0.07,1.078c0.348,0.445,0.758,0.422,1.977-0.227
c2.484-1.328,2.953-2.113,1.855-2.891c-0.152-0.109-0.332-0.156-0.535-0.16C61.52,81.105,61.492,81.105,61.457,81.105L61.457,81.105
z M61.375,81.746c0.164-0.016,0.348,0.031,0.504,0.02c0.43,0.176,0.297,0.711-0.152,0.836c-0.098-0.156-0.848-0.176-0.797,0.582
c-0.18,0.43-0.172,0.398-0.719,0.461c-0.363-0.09-0.605,0.16-0.676,0.32c-0.379,0.203-0.839,0.137-0.929-0.09
c-0.082-0.219,0.226-0.859,0.492-0.855c0.125,0.008,0.348-0.18,0.582-0.336c-0.012-0.414,0.476-0.473,0.617-0.473
c0.141,0.031,0.606,0.035,0.832-0.344C61.192,81.785,61.281,81.754,61.375,81.746L61.375,81.746z M153.41,82.117v2.406l-1.84-1.176
L153.41,82.117z M51.766,82.422c6.672,7.875,11.476,16.262,14.535,27.867l-1.34,0.922c-2.019-8.137-5.133-16.734-14.34-27.91
L51.766,82.422z M129.82,82.555c3.02,2.563,15.398,14.215,17.758,34.895l-1.656,1.016c-1.328-10.914-5.621-23.43-17.172-34.52
L129.82,82.555z M123.852,83.27c0.844,0,1.527,0.684,1.527,1.527c0,0.848-0.684,1.531-1.527,1.531s-1.527-0.684-1.527-1.531
C122.324,83.953,123.008,83.27,123.852,83.27L123.852,83.27z M49.906,83.867c0,0,1.403,1.441,1.403,1.785
c-0.008,0.68-0.547,1.063-3.77,2.238c-0.543,0.199-2.922,0.746-2.922,0.746l-0.086-1.156c1.211-0.438,4.473-1.219,4.711-1.91
c0.118-0.273-0.464-0.961-0.339-0.961L49.906,83.867z M72.133,84.16c0.77,0,1.387,0.625,1.387,1.391s-0.617,1.387-1.387,1.387
c-0.766,0-1.387-0.621-1.387-1.387S71.367,84.16,72.133,84.16L72.133,84.16z M128.289,84.559
c10.086,9.852,15.637,22.023,16.934,34.594c-11.746,9.551-19.727,21.558-22.895,36.582c-1.566-2.613-2.898-5.613-4.348-8.551
c15.668-13.77,18.969-38.574,5.414-55.957L128.289,84.559z M66.614,86.438l0.707,1.094c0,0-0.149,0.133-2.344,1.496
c-3.211,1.992-3.742,3.293-2.668,5.332c1.094,2.086,2.316,2.199,5.765,0.527c1.219-0.59,2.254-1.211,2.254-1.211l0.551,1.145
c0,0-1.543,1.258-4.519,2.348c-2.797,1.027-5.442-0.723-5.938-3.953c-0.359-2.348,0.664-3.605,4.746-5.922
C65.625,87.051,66.614,86.438,66.614,86.438L66.614,86.438z M114.668,86.957c0.844,0,1.527,0.684,1.527,1.527
s-0.684,1.527-1.527,1.527c-0.848,0-1.531-0.684-1.531-1.527S113.82,86.957,114.668,86.957L114.668,86.957z M52.348,87.012
l0.922,0.871c0,0-0.399,0.586-2.672,1.953c-2.043,1.23-2.254,1.031-1.238,1.891c1.898,1.605,4.531,5.156,4.515,6.07
c-0.011,0.887-0.804,1.699-2.32,2.383c-0.832,0.375-4.121,1.547-4.602,1.629c-0.961,0.105-1.23,0.492-0.269,1.363
c1.629,1.871,3.023,5.875,2.461,7.098c-0.629,1.375-1.387,1.605-7.426,1.883c-0.688,0.031-1.016-0.164-0.645,0.719
c0.27,0.641,0.555,1.52,1.094,4.234c0.481,2.422,0.399,3.512-0.543,4.012c-0.539,0.289-4.742,0.188-6.476-0.156
c-1.989-0.391-2.203-0.414-1.883,0.879c0.418,1.785,0.676,6.574-0.676,7.495c-0.562,0.368-1.168,0.278-3.633-0.554
c-1.574-0.528-2.938-1.137-2.938-1.137l0.027-1.484c1.281,0.527,4.801,2.047,5.801,1.566c1.183-1.699-0.461-7.656-1.09-8.934
c-0.762-1.523,0.031-1.855,1.781-0.91c0.918,0.648,8.832,3.766,8.383,0.977c-0.484-2.648-1.344-5.664-3.012-7.555
c-1.543-1.75-0.777-2.469,0.942-1.699c3.039,1.355,9.32,1.023,9.008-0.383c-0.414-2.289-2.493-5.395-5.34-7.801
c-0.793-0.668-0.821-0.953,0.113-1.121c2.656-0.211,10.266-0.992,9.203-2.777c-0.914-1.461-2.133-3.078-3.172-3.949
c-1.703-1.43-3.422-2.051-4.183-2.348l0.047-1.094C47.992,89.844,49.793,88.801,52.348,87.012L52.348,87.012z M43.957,88.094
c-1.242,13.023-6.691,23.758-17.941,31.242l-0.063-1.457c9.891-7.43,14.637-17.984,15.926-28.199L43.957,88.094z M67.922,88.91
c0.004,0,0.004,0.004,0.008,0.004c0,0,1.809,3.254,1.805,3.551c-1.075,0.992-3.891,2.449-5.047,2.109
c-1.778-0.566-2.055-2.465-0.348-3.586c1.477-1.074,3.313-2.008,3.563-2.074C67.91,88.91,67.918,88.91,67.922,88.91L67.922,88.91z
M53.508,88.707l0.922,0.828c0,0-0.234,0.363-1.566,1.426c-1.036,0.797-0.676,0.484,0.031,1.434c0.625,0.75,1.746,2.266,1.746,2.266
l-0.336,2.012c-1.168-1.668-2.141-2.879-3.879-4.664c-0.883-0.906-0.832-0.934,0.426-1.59
C51.797,89.898,52.567,89.262,53.508,88.707L53.508,88.707z M78.758,90.004c0.766,0,1.387,0.621,1.387,1.387
s-0.621,1.387-1.387,1.387s-1.387-0.621-1.387-1.387S77.992,90.004,78.758,90.004L78.758,90.004z M67.539,90.121
c-1.32,0.348-2.613,1.527-3.343,2.047c-0.262,0.191-0.055,1.141,0.199,1.469c0.328,0.418,0.929,0.348,1.648-0.051
c0.301-0.168,0.848-0.441,1.211-0.609c1.016-0.469,1.442-0.82,1.402-1.211C68.496,91.238,68.078,90.082,67.539,90.121L67.539,90.121
z M67.614,90.723c0.371,0.016,0.64,0.492,0.519,0.773c-0.637,0.348-0.988,0.055-0.906,0.535c0,0,0.062,0.754-0.871,0.77
c-0.227-0.098-0.621-0.082-0.813,0.113c-0.652,0.27-1.219-0.301-0.512-0.625c0.192-0.086,0.665-0.234,0.793-0.527
c0.071-0.363,0.368-0.652,0.696-0.449c0.176,0.012,0.566,0.039,0.691-0.238c-0.047-0.309,0.172-0.336,0.328-0.348
C67.567,90.723,67.59,90.723,67.614,90.723L67.614,90.723z M40.953,90.625c0.286,1.461-0.597,4.031-1.097,5.477
c-2.957,3.871-7.246,5.848-11.325,7.199c-0.906,0.301-2.125,0.148-2.125,0.148C32.051,97.645,36.891,93.387,40.953,90.625
L40.953,90.625z M30.645,91.941c0.039-0.328-1.449-0.723-1.59-0.516c-0.277,0.254-0.715,4.289-0.43,4.578
c0.399,0.406,1.492,0.516,1.598,0.035C30.563,94.457,30.481,93.273,30.645,91.941L30.645,91.941z M55.938,91.82l0.968,1.199
c-2.046,19.434-15.929,36.25-30.753,42.914l-0.043-1.285C43.067,125.742,53.27,110.914,55.938,91.82L55.938,91.82z M123.027,91.902
l1.836,2.527l-2.633,0.082L123.027,91.902z M30.153,92.371c-0.016,0.664-0.09,2.043-0.348,2.816c-0.16,0.598-0.621,0.461-0.797-0.09
c-0.184-0.574-0.031-2.207,0.313-2.875C29.688,91.594,29.977,91.699,30.153,92.371L30.153,92.371z M44.184,92.723
c0.91,0,5.738,2.973,5.094,4.453c-0.516,1.18-4.559,1.273-6.411,1.109l0.282-1.137c0,0,0.562,0.199,2.715-0.031
c2.261-0.148,2.097-0.926-0.497-2.566c-1.113-0.699-1.371-0.871-1.371-0.871L44.184,92.723z M57.567,94.316
c1.496,2.523,2.914,5.367,4.246,8.551c-18.262,17.23-16.844,40.695-5.332,56.097l-4.961,6.696
c-9.918-9.465-15.321-21.11-17.145-33.477C48.856,121.766,55.66,106.223,57.567,94.316L57.567,94.316z M125.375,95.082l1.09,2.082
l-2.617-0.043L125.375,95.082z M114.07,96.125c0.844,0,1.527,0.684,1.527,1.527s-0.684,1.527-1.527,1.527
c-0.848,0-1.531-0.684-1.531-1.527S113.223,96.125,114.07,96.125L114.07,96.125z M71.582,96.535l0.52,1.184
c0.023,0.148-3.696,1.324-4.891,2.832c-1.105,1.395-1.004,2.848-0.379,3.852c1.059,1.43,1.809,1.633,3.598,1.082
c1.457-0.445,2.531-1.051,3.976-1.789l0.231,0.598c0-0.031-2.078,1.223-3.664,2.117c-0.594,0.332-1.309,0.477-1.93,0.461
c-3.609-0.09-5.519-4.742-2.547-7.492c0.438-0.402,1.91-1.211,3.153-1.848C70.473,97.102,71.582,96.535,71.582,96.535L71.582,96.535
z M119.336,97.27c11.91,17.18,3.758,36-3.934,42.66l-0.203-2.02c12.945-14.75,8.441-31.973,3.047-39.629L119.336,97.27z M127,98.043
l0.938,2.121l-2.766-0.293L127,98.043z M78.996,98.738c0.766,0,1.391,0.621,1.391,1.387s-0.625,1.387-1.391,1.387
c-0.765,0-1.382-0.621-1.382-1.387S78.231,98.738,78.996,98.738L78.996,98.738z M117.918,99.008
c10.438,15.164,4.617,39.344-15.297,46.711l-0.102-1.695c20.305-8.488,22.297-31.082,14.141-43.832L117.918,99.008z M72.668,99.102
l1.321,3.559c-1.661,1.113-2.313,1.301-4.172,1.754c-1.465,0.336-2.606-2.199-1.481-3.168
C69.621,100.137,71.004,99.66,72.668,99.102L72.668,99.102z M38.813,99.113c0.246-0.012-0.012,0.594-0.645,2.121
c-1.387,3.359-1.48,3.434-4.976,3.988c-1.821,0.289-3.176,0.359-4.469,0.234c-1.949-0.188-2.785-0.738-1.52-1.004
c3.664-0.805,7.719-2.703,10.352-4.543C38.242,99.418,38.645,99.121,38.813,99.113L38.813,99.113z M105.16,99.527
c0.949,0,1.719,0.77,1.719,1.719c0,0.945-0.77,1.711-1.719,1.711c-0.945,0-1.715-0.766-1.715-1.711
C103.445,100.297,104.215,99.527,105.16,99.527L105.16,99.527z M53.27,100l-0.145,1.324c0,0-2.121,1.117-3.121,1.539
c-0.765,0.313-0.82,0.379-0.574,1.09c0.496,1.418,1.449,3.176,1.449,3.176l-0.883,2.004c-0.539-1.801-1.109-3.707-2.101-5.387
c-0.942-1.313-1.117-1.477,0.347-1.75C50.133,101.359,51.61,100.898,53.27,100L53.27,100z M72.18,100.43
c-1.035,0.047-3.199,0.918-3.414,1.75c-0.121,0.473,0.015,1.129,0.41,1.277c1.078,0.398,3.242-0.488,3.813-1.297
c0.175-0.25-0.094-0.766-0.286-1.09C72.559,100.824,72.586,100.414,72.18,100.43L72.18,100.43z M72.235,101.141
c0.019,0,0.035,0,0.054,0c0.176-0.016,0.813,0.793,0.098,0.727c-0.25-0.023-0.473,0.066-0.676,0.277
c-0.027,0.391-0.582,0.535-0.851,0.406c-0.2-0.102-0.477,0.102-0.508,0.223c-0.403,0.289-0.91,0.277-0.977,0.07
c-0.136-0.145,0.27-0.738,0.625-0.719c0.074,0.004,0.328-0.164,0.563-0.367c0.113-0.406,0.539-0.336,0.808-0.313
C71.68,101.566,71.957,101.168,72.235,101.141L72.235,101.141z M128.313,101.203l0.766,2.125l-2.734-0.242L128.313,101.203z
M116.559,103.652c-0.566,0.723-1.086,0.73-1.914,0.691c0.676,0.801,0.977,1.906,0.316,2.633c-1,1.02-2.934-0.547-2.789-0.688
l3.465-4.617C116.555,101.934,117.066,102.793,116.559,103.652L116.559,103.652z M41.313,102.449c0,0,4.215,3.625,4.242,5.254
c0.012,0.617-0.188,0.82-0.68,0.984c-1.656,0.547-6.261-0.863-6.261-0.863l0.593-1.121c0.723,0.199,4.293,1.121,4.598,0.668
c0.32-0.473-2.981-3.691-2.988-3.695L41.313,102.449z M62.219,103.965l0.504,1.754L61,105.293L62.219,103.965z M129.477,104.277
l0.449,2.426l-2.758-0.645L129.477,104.277z M76.903,104.316l0.41,1.426c-18.297,8.48-23.637,27.965-14.098,44.039l-1.078,1.484
C49.367,130.57,62.301,109.57,76.903,104.316L76.903,104.316z M60.418,105.809l0.25,2.16l-2.125-0.125L60.418,105.809z
M35.242,105.75c0.36,0.004,0.43,0.199,0.43,0.414c-0.004,0.293-1.848,2.648-2.445,3.18c-1.301,0.523-6.305-1.566-7.051-3.188
c-0.148-0.473,0.344-0.266,1.453-0.039C30.438,106.918,33.285,105.82,35.242,105.75L35.242,105.75z M83.981,105.777
c0.765,0,1.39,0.621,1.39,1.387s-0.625,1.387-1.39,1.387c-0.766,0-1.383-0.621-1.383-1.387S83.215,105.777,83.981,105.777
L83.981,105.777z M26.356,107.484c1.39,1.254,3.437,2.289,5.25,2.648c1.133,0.25,0.804,0.367-0.242,1.445
c-0.981,1.027-0.903,1.156-1.899,0.648c-1.664-0.844-3.476-2.762-3.402-3.805C26.094,107.988,26.168,107.484,26.356,107.484
L26.356,107.484z M130.266,107.719l0.348,2.305l-2.605-0.902L130.266,107.719z M57.828,108.551l0.848,2.063l-2.312-0.066
L57.828,108.551z M116.578,110.52c0,0.289-0.07,0.777-0.07,0.777c1.359-0.867,3.164-0.156,3.113,1.242
c-0.078,1.973-1.039,1.988-2.617,1.727c0.863,1.43-0.16,2.809-1.781,2.281c-1.477-0.48-1.191-2.039-0.504-2.961
c-3.484,0.566-4.418,5.527-0.391,7c-0.809-1.254-1.012-2.75,0.746-3c1.633-0.234,2.32,1.004,1.617,2.492
c1.531-0.535,2.977,0.344,2.516,1.836c-0.559,1.805-2.16,1.68-3.105,0.582c0.68,1.633-0.891,2.809-2.078,2.176
c-1.867-0.996-0.945-2.777,0.309-3.25c-4.813-0.496-5.926,6.156-2.383,7.105c-0.91-0.57-1.012-3.191,1.066-2.832
c2.043,0.41,1.555,2.305,0.246,3.168c1.582-0.336,3.063,1.043,2.098,2.441c-1.133,1.645-2.695,0.473-3.277-0.648
c0.184,1.5-0.773,2.457-2.004,1.894c-2.109-0.968-0.551-3.386,1.102-3.233c-3.348-1.978-7.898,2.172-5.219,5.604
c-0.102-1.558,0.672-2.839,1.746-2.664c0.941,0.106,1.77,1.185,1.504,2.028c-0.246,0.722-1.07,1.273-1.93,1.449
c2.559,0.281,2.777,2.094,1.715,2.984c-1.801,1.516-2.637-0.234-3.055-1.255c-0.363,2.539-3.363,1.677-3.469-0.159
c-0.102-2.012,2.223-1.973,2.652-1.859c0.055-0.07-1.797-1.902-3.773-2.16l0.012-1.168c7.789-4.887,10.469-13.414,7.996-21.5
l0.469-0.539c1.27,0.969,2.547,3.051,4.895,2.289c0,0-0.547-0.387-0.816-0.652c-1.211-1.191-0.531-2.594,1.152-2.672
C116.148,108.992,116.57,109.832,116.578,110.52L116.578,110.52z M63.735,110.516l0.808,1.184
c-11.812,13.836-9.66,29.672-2.867,40.152l-0.988,1.194C54.676,145.339,49.766,126.652,63.735,110.516L63.735,110.516z
M73.801,112.43c-0.016,0.309,0.008,0.555,0.008,0.555s0.254-0.316,0.457-0.695c1.012-1.684,3.18-0.715,2.824,1.223
c-0.168,0.906-1.695,1.262-2.113,1.004c0.394,1.082,1.469,1.336,2.777,1.805c0.457,0.086,1.242,0.309,1.242,0.309l0.032,0.734
c-7.086,4.461-11.098,12.031-8.5,22.383l-0.786,1.059c-1.429-3.438-2.73-3.363-5.082-3.5c0,0,0.586,0.414,0.922,0.809
c0.711,0.844,0.395,2.312-0.59,2.465c-2.285,0.355-2.308-1.266-2.003-2.364c0,0-0.411,0.345-0.61,0.474
c-0.906,0.59-2.035-0.02-2.14-1.188c-0.102-1.102,0.273-1.813,1.406-1.95c0.379-0.047,0.965,0.052,0.965,0.052
s-0.223-0.434-0.348-0.676c-0.543-1.063,0.644-1.973,1.738-1.742c1.723,0.414,1.586,1.901,0.59,3.069
c2.668,0.2,4.07-1.546,3.871-3.28c-0.238-2.113-1.211-3.259-3.312-3.625c0,0,0.34,0.53,0.484,0.789
c0.535,0.952-0.234,2.125-1.367,2.116c-1.156-0.007-1.899-1.069-1.453-2.116c0.109-0.259,0.543-0.578,0.476-0.605
c-0.047-0.02-0.64,0.164-0.808,0.191c-1.391,0.215-2.285-1.009-1.7-2.23c0.411-0.867,1.657-1.103,2.559-0.676
c0.145,0.051,0.316,0.254,0.344,0.207c0.027-0.043-0.09-0.324-0.125-0.527c-0.289-1.117,0.25-1.719,1.465-1.641
c1.699,0.109,2.332,1.496,1.191,2.742c-0.297,0.323-0.75,0.801-0.75,0.801c0.059,0.246,2.426,0.426,3.637-0.84
c1.398-1.47,1.617-4.523,0.211-5.523c-0.231-0.164-0.699-0.492-0.699-0.492c0.671,1.344-0.563,2.891-1.649,2.602
c-2.176-0.523-1.988-2.305-0.559-2.867c0,0-1.449-0.543-1.867-1.125c-0.593-0.828-0.394-1.586,0.317-2.168
c0.89-0.719,2.16-0.246,2.773,0.641c0.371-1.129,0.891-1.891,2.434-1.277c1.078,0.516,1.066,1.953-0.117,2.738
c-0.383,0.25-1.059,0.484-1.059,0.484s1.019,0.578,2.262,0.594c2.394,0.027,4.289-2.797,3.324-4.953
c-0.195-0.438-0.688-1.004-0.688-1.004s-0.05,0.754-0.199,1.043c-0.555,1.078-1.828,1.098-2.578,0.418
c-0.684-0.617-0.484-1.441,0.047-2.004c0.402-0.426,0.766-0.512,1.324-0.773c-0.637-0.215-1.348-0.371-1.656-1.027
c-0.289-0.633-0.086-1.406,0.68-1.883C72.781,110.258,73.864,111.48,73.801,112.43L73.801,112.43z M26.301,110.688
c0.973,0.563,1.625,1.414,2.535,2.156c0.703,0.57,0.695,0.672,0.113,1.215c-1.308,1.262-2.043-0.566-2.464-1.313
C25.965,111.746,25.914,110.727,26.301,110.688L26.301,110.688z M130.879,111.035l0.164,2.441l-2.719-1.043L130.879,111.035z
M55.946,111.18l0.976,2.219l-2.523-0.012L55.946,111.18z M108.711,111.184c2.375,8.77-0.965,15.067-7.297,20l-0.699-0.918
c4.949-4.207,8.652-9.164,7.016-17.992L108.711,111.184z M79.621,111.223l27.84,0.512l-0.836,1.465l-2.168,0.012l-4.301,7.605
l-20.007-0.004L79.621,111.223z M38.887,117.566c-0.973,1.535-6.754-1.766-6.68-1.941l0.727-0.695
c0.918,0.371,3.777,1.949,4.41,1.699c0.219-1.434-1.465-3.293-2.102-4.527l0.707-0.891
C35.949,111.211,39.617,115.961,38.887,117.566L38.887,117.566z M48.375,111.988l-0.965,1.738c-0.898,0.277-3.617,0.324-3.836,0.504
c0.329,0.895,0.688,3.516,0.688,3.516l-1.07,1.371c-0.289-1.688-0.766-3.82-1.188-5.383c-0.359-1.324-0.258-1.031,2.567-1.25
C45.836,112.41,47.141,112.25,48.375,111.988L48.375,111.988z M54.086,114.086l1.145,2.031l-2.321,0.023L54.086,114.086z
M26.207,114.223c0.125-0.055,0.844,0.75,0.969,0.984c-0.055,0.527-0.875,0.816-1,0.629c-0.051-0.078-0.066-1.262,0.016-1.594
C26.196,114.23,26.199,114.223,26.207,114.223L26.207,114.223z M131.223,114.246l-0.023,2.547l-2.758-1.223L131.223,114.246z
M153.117,114.82l-0.039,1.648c-10,4.887-24.918,18-29.172,41.523l-0.875-0.965C127.285,134.57,141.965,121.293,153.117,114.82
L153.117,114.82z M52.516,117.09l1.246,1.875l-2.246,0.246L52.516,117.09z M131.277,117.809l-0.223,2.254l-2.715-1.504
L131.277,117.809z M79.031,118.277c0.008,0.535,0.055,0.922,0.09,1.457c-6.164,3.988-8.246,10.266-7.218,18.168l-0.856,1.262
C69.043,132,71.067,123.172,79.031,118.277L79.031,118.277z M150.48,118.742c0.629,0.371,2.664,0.969,2.664,0.969l-0.023,1.5
l-4.191-1.504L150.48,118.742z M30.004,125.117c-0.902,0.738-2.984-0.488-3.93-0.984l-0.027-1.266c0,0,0.723,0.371,1.445,0.66
c1.493,0.66,1.497-0.129,0.68-2.336c-0.285-0.777-0.57-1.676-0.57-1.676l0.98-0.93C28.582,118.586,30.93,123.875,30.004,125.117
L30.004,125.117z M51.055,120.375l1.605,1.68l-2.238,0.512L51.055,120.375z M148.941,120.578c1.422,0.004,4.16,1.156,4.16,1.156
l-0.016,1.66c-1.395-0.402-3.008-1.176-4.48-1.391c-1.16-0.16-1.094,0.488-1.102,2.133c-0.008,2.223,0.551,4.234,1.617,6.457
c0.879,1.844,0.422,2.336-1.02,1.512c-2.586-1.777-8.105-3.117-8.953-2.082c-0.875,1.062,0.844,6.358,2.832,8.883
c0.809,1.027,0.859,1.191,0.484,1.59c-0.309,0.324-0.801,0.343-1.672,0.066c-2.871-0.914-7.023-1.117-8.219-0.344
c-1.188,0.766,1.902,6.07,4.496,7.781c1.684,1.199,1.359,1.796-1.359,1.855c-4.441,0.022-7.855,1.012-7.668,2.223
c0.324,2.063,3.199,4.886,6.5,6.386c2.02,0.825,1.176,1.153-0.168,1.63c-2.246,0.758-4.402,1.973-6.516,3.105l-1.016-1.297
c0,0,2.125-1.352,4.438-2.652c0.539-0.301,0.512-0.415-0.246-1.051c-2.461-2.063-4.27-4.367-4.648-5.918
c-0.367-1.508,0.387-2.457,2.625-3.309c1.383-0.527,1.891-0.68,3.109-0.953c1.758-0.395,1.789-0.449,1.035-1.801
c-0.336-0.605-0.887-1.605-1.227-2.223c-2.617-4.48-1.234-6.094,4.844-6.188c1.492-0.078,1.777-0.082,1.695-0.599
c-0.324-2.108-1.258-4.53-1.125-6.319c0.277-2.695,3.051-3.348,7.922-2.134c1.129,0.282,1.207,0.228,1.012-0.683
C145.332,123.969,146.316,120.266,148.941,120.578L148.941,120.578z M131.059,120.867l-0.426,2.613l-2.598-1.727L131.059,120.867z
M34.012,121.48l7.156,0.473l-1.137,1.332l-4.324-0.082l-0.164,3.695l-1.387,1.187L34.012,121.48z M80.395,121.766h5.894
l-0.047,6.23h-5.875L80.395,121.766z M87.418,121.766h5.484v6.23l-5.438,0.059L87.418,121.766z M93.984,121.766h5.879l-0.055,6.23
h-5.82L93.984,121.766z M145.34,122.262c-0.137,1.602,0.199,4.5,0.332,5.741c-0.094,0.372-0.352,0.317-1.891-0.03
c-1.066-0.359-4.027-0.466-4.027-0.466l1.242-1.312c1.012,0.121,1.813,0.108,2.863,0.242c-0.016-1.047,0.027-3.051,0.027-3.051
L145.34,122.262z M50.121,123.496l1.645,1.656l-2.106,0.539L50.121,123.496z M130.488,124.035l-0.656,2.664l-2.379-2.141
L130.488,124.035z M153.047,125.449l0.008,1.359l-2.34-1.051c-0.027,1.551,1.344,4.352,1.344,4.352l-1.113,0.522
c-0.965-1.573-1.633-2.991-1.688-4.765c0.012-0.641-0.078-1.73,0.5-1.758C150.949,124.082,151.945,124.484,153.047,125.449
L153.047,125.449z M49.317,126.796l1.957,1.164l-2.168,0.875L49.317,126.796z M129.738,127.395l-0.957,2.742l-2.09-2.375
L129.738,127.395z M26.063,128.266l5.277,1.789l-0.941,0.995l-4.383-1.382L26.063,128.266z M100.078,128.992l0.434,9.715
l-27.875-0.227l0.969-1.375l1.812-0.017l4.774-8.043L100.078,128.992z M48.946,129.75l2.07,1.46l-2.152,0.95L48.946,129.75z
M153.172,130.605l0.004,1.59c-6.73,4.973-14.004,13.543-15.242,28.695l-1.816,1.551
C137.004,147.645,143.164,137.445,153.172,130.605L153.172,130.605z M128.617,130.664l-0.977,2.464l-1.934-2.293L128.617,130.664z
M147.582,134.02l-0.648,0.727c-0.18,0.059-2.746-1.316-4.766-1.637c0.66,1.305,0.973,2.281,2.438,4.351l-0.945,0.931
c-0.281-0.063-3.941-5.466-2.973-6.684C142.258,130.648,146.066,132.867,147.582,134.02L147.582,134.02z M136.637,131.117
c-0.039,1.468,1.148,6.02,1.148,6.02c-1.836,0.09-3.613-0.121-5.594,0.438l0.93-1.664c0,0,0.863-0.09,1.617-0.242
c1.563-0.309,1.398-0.122,1.039-1.477c-0.344-1.277-0.363-1.543-0.363-1.543S136.527,131.109,136.637,131.117L136.637,131.117z
M33.766,132.691c2.41,14.59,8.164,24.604,17.242,33.621l-0.922,1.207c-10.672-9.77-16.5-22.199-18.023-33.888L33.766,132.691z
M48.785,133.305l1.965,1.07l-2.019,1.175L48.785,133.305z M153.145,133.348l-0.012,2.141l-1.227-1.242
C152.234,133.949,152.641,133.648,153.145,133.348L153.145,133.348z M127.273,133.785l-1.34,2.457l-1.746-2.328L127.273,133.785z
M153.004,139.339c-0.277-0.429-2.727-1.957-3.84-2.593c-0.07-0.188,1.723-1.789,2.078-1.902
C153.023,135.094,153.594,138.648,153.004,139.339L153.004,139.339z M48.813,136.671l2.218,1.082l-2.011,1.423L48.813,136.671z
M122.629,136.671l2.848,0.271l-1.512,2.348L122.629,136.671z M148.988,137.714c0.367,0.005,0.785,0.157,1.301,0.446
c2.008,1.117,3.063,2.343,2.949,3.429c-0.051,0.5-0.332,0.603-0.656,0.239c-0.582-0.657-2.559-1.508-4.258-1.84
c-1.289-0.25-1.406-0.363-1.02-0.957C147.891,138.125,148.371,137.71,148.988,137.714L148.988,137.714z M114.68,138.746
c3.082,11.68,8.504,20.668,15.313,28.066l-1.41,1.203c-5.172-5.931-10.855-12.871-15.5-27.875L114.68,138.746z M120.836,139.371
l2.848,0.43l-1.668,2.129L120.836,139.371z M80.649,139.496c0.328,0.011-0.981,4.984-5.508,5.324
c-2.867,0.476-3.188,0.961-3.231,5.422c-0.062,6.047-1.035,7.461-5.98,7.836c-3.274,0.246-3.703,0.91-3.149,5.609
c0.528,4.477-1.164,6.754-5.332,6.75c-3.613,0.301-5.105,1.983-5.101,5.332c0,1.355,0.023,1.684,0.023,1.684l-2.336,0.179
c0,0,0.004-2.202,0.184-3.272c0.711-4.328,2.566-6.063,6.473-6.043c3.019-0.231,3.492-0.719,3.386-5.297
c-0.117-4.66-0.179-4.629,1.036-5.849c0.781-0.784,1.675-1.136,3.261-1.284c4.942-0.469,5.332-0.798,5.317-5.863
c-0.457-4.207,0.707-6.785,3.379-6.996c5.41-0.43,5.281-3.367,5.043-3.488l2.519-0.039
C80.637,139.496,80.641,139.496,80.649,139.496L80.649,139.496z M91.711,139.496c3.172,17.109,13.211,33.136,18.719,39.05
l-1.074,0.571c-8.031-9.973-15.328-21.426-18.938-39.594L91.711,139.496z M85.981,139.503l2.511,0.028l-28.91,40.688l-1.527-1.148
L85.981,139.503z M89.489,139.531c2.714,9.863,4.851,19.508,13.394,32.41l-36.23-0.238L89.489,139.531z M99.492,139.57
c0.211-0.098,1.063,4.988-0.207,7.34c-1.141,3.179-0.582,4.968,1.898,6.129c4.258,1.988,5.336,3.973,4.793,8.859
c-0.379,3.418,0.656,5.07,3.867,6.172c3.832,1.308,5.508,3.367,5.484,6.742c0,0.52-0.195,1.108-0.195,1.108l-2.137,1.259
c0,0,0.023-0.457,0.105-1.009c0.559-3.741-0.152-4.757-4.566-6.519c-4.172-1.668-5.207-3.594-4.496-8.399
c0.23-1.565-0.09-3.151-0.738-4.343c-1.094-1.946-3.504-1.926-5.242-3.703c-1.434-1.52-1.59-3.645-0.371-7.277
c0.758-2.254,0.871-3.109,0.285-4.988c-0.391-1.234-0.539-1.344-0.539-1.344L99.492,139.57z M49.172,140.113l2.461,0.68
l-1.852,1.917L49.172,140.113z M146.781,140.621c0.844-0.023,2.477,0.273,3.813,0.938c3.063,1.526,3.621,2.776,0.934,2.105
c-1.512-0.383-3.691-0.297-5.789,0.223c-2.223,0.551-2.176,0.573-1.41-0.77C145.297,141.421,145.551,140.656,146.781,140.621
L146.781,140.621z M141.219,142.426l-0.555,0.956c-1.219-0.202-2.5-0.8-4.355-0.651c0.762,1.457,1.664,2.207,2.871,3.492
l-0.449,0.961c-0.109,0.129-3.531-2.727-4.219-4.645c-0.313-0.868-0.031-1.246,1.219-1.277
C137.586,141.234,139.461,141.766,141.219,142.426L141.219,142.426z M95.457,141.484c0.918,0,1.66,0.742,1.66,1.66
s-0.742,1.664-1.66,1.664s-1.66-0.746-1.66-1.664S94.539,141.484,95.457,141.484L95.457,141.484z M118.855,141.934l2.805,0.504
l-1.871,2.094L118.855,141.934z M66.403,141.953c0.66-0.051,1.687,1.234,1.683,1.234l-3.398,4.699
c-1.617-0.328-1.274-2.777,0.207-2.852c0.344,0,0.969,0.059,0.969,0.059s-0.458-0.246-0.719-0.598
C64.153,143.296,65.09,142.059,66.403,141.953L66.403,141.953z M129.852,141.535c0,0,2.707,5.352,2.535,5.554
c-1.68,0.743-3.512,1.121-5.355,1.793l0.355-1.554c0,0,0.613-0.043,2.676-0.828c0.984-0.375-1.078-3.122-1.078-3.122
L129.852,141.535z M111.129,143.113c3.949,0.035,4,4.883,3.242,6.484c-0.551,1.098-1.387,1.707-3.914,2.852
c-2.191,0.988-2.434,0.922-2.434,0.922l-0.527-1.168c0,0,1.277-0.563,2.652-1.118c2.84-1.144,3.531-2.022,3.219-4.078
c-0.441-2.905-2.688-3.358-7.031-1.409c-0.508,0.227-1.141,0.452-1.141,0.452l-0.301-0.586c0.07-0.058,3.48-1.843,5.391-2.288
C110.586,143.132,110.867,143.113,111.129,143.113L111.129,143.113z M50.051,143.645l2.234,0.733l-1.629,1.603L50.051,143.645z
M149.582,144.266c1.973-0.004,3.598,0.328,3.594,1.034c0,0.332-0.078,0.364-1.852,0.606c-2.695,0.375-7.195,2.676-9.73,4.808
c-1.5,1.267-1.113,0.974-0.48-0.862c0.629-1.82,1.566-3.996,2.074-4.328C144.457,144.691,147.344,144.273,149.582,144.266
L149.582,144.266z M117.297,144.52l1.898,0.414l-1.234,1.198L117.297,144.52z M110.926,145.551c0.684-0.008,1.016,0.313,1.285,0.961
c0.578,1.409,0.008,2.234-2.195,3.18c-1,0.445-1.891,1.074-2.984,1.272l-1.383-3.714c0,0,0.438-0.161,1.875-0.758
C109.168,145.816,110.246,145.563,110.926,145.551L110.926,145.551z M104.504,146c4.395,12.438,9.777,20.516,15.469,27.207
l-1.379,0.863c-6.043-7.152-11.609-15.535-15.617-27.875L104.504,146z M110.602,146.445c-0.531,0.012-1.332,0.336-2.398,0.746
c-1.551,0.598-1.684,1.32-0.988,2.215c0.305,0.39,0.617,0.304,2.105-0.285c1.523-0.605,2.18-0.871,2.27-1.414
C111.723,146.918,111.285,146.425,110.602,146.445L110.602,146.445z M153.34,146.613c-0.004,0.519-7.91,8.015-12.43,11.832
c-2.059,1.738-1.988,1.723-2.164,1.508c-0.113-1.289,0.762-5.902,1.297-6.707c3.02-3.195,7.676-5.797,12.211-6.777
C152.965,146.328,153.406,146.344,153.34,146.613L153.34,146.613z M110.742,146.863c0.281,0.008,0.527,0.254,0.527,0.57
c-0.004,0.242-0.352,0.473-0.715,0.473c-0.129,0-0.441,0.07-0.641,0.273c-0.195,0.284-0.32,0.559-0.676,0.488
c-0.203-0.036-0.582-0.051-0.73,0.078c-0.695,0.605-1.387,0.105-1.063-0.504c0.078-0.153,0.359-0.23,0.586-0.227
c0.199,0,0.648-0.047,0.715-0.289c0.078-0.289,0.523-0.371,0.832-0.359c0.336,0.043,0.605-0.125,0.691-0.266
c0.125-0.109,0.273-0.224,0.414-0.234C110.703,146.863,110.723,146.863,110.742,146.863L110.742,146.863z M50.953,146.996
l2.52,0.339l-1.586,2.032L50.953,146.996z M74.985,146.96c0.918,0,1.664,0.743,1.664,1.661s-0.746,1.664-1.664,1.664
s-1.661-0.746-1.661-1.664S74.067,146.96,74.985,146.96L74.985,146.96z M101.207,148.277c0.914,0,1.66,0.742,1.66,1.66
c0,0.914-0.746,1.66-1.66,1.66c-0.918,0-1.66-0.746-1.66-1.66C99.547,149.02,100.289,148.277,101.207,148.277L101.207,148.277z
M52.078,150.152l2.731,0.176l-1.563,2.09L52.078,150.152z M66.496,150.55c0.918,0,1.66,0.743,1.66,1.66
c0,0.918-0.742,1.661-1.66,1.661s-1.66-0.743-1.66-1.661C64.836,151.293,65.578,150.55,66.496,150.55L66.496,150.55z
M134.719,151.585c1.141-0.015,2.461,0.099,2.461,0.099l-0.32,1.276c-1.387,0.134-3.172-0.253-4.66,0.372
c0.555,0.902,3.797,2.184,4.152,2.503c0.035,0.134-0.266,1.353-0.266,1.353c0.086,0.313-5.488-2.262-5.672-4.435
C130.418,152.02,132.824,151.617,134.719,151.585L134.719,151.585z M115.555,152.914c3.168,0.027,4.73,4.449,3.5,6.406
c-0.488,0.887-1.59,1.937-3.039,2.859c-0.695,0.445-2.543,1.352-2.543,1.352l-0.832-1.285c0,0,0.738-0.297,1.434-0.676
c1.742-0.985,5.281-3.082,3.57-5.942c-0.961-1.546-2.398-1.847-5.383-0.332c-2.23,1.13-2.734,1.235-2.734,1.235l-0.566-1.024
C109.109,155.594,113.41,153.003,115.555,152.914L115.555,152.914z M53.731,153.375l2.488,0.003l-1.063,2.243L53.731,153.375z
M125.758,153.082c1.512,2.921,4.098,5.132,4.805,5.664c0,0-2.578,1.656-4.117,2.707l-0.902-1.063l2.211-1.895l-2.492-3.473
L125.758,153.082z M150.016,153.785c-0.277,1.445-0.324,2.98-0.441,4.668c0.543,0.496,1.035,0.746,1.465,0.715
c0.48-1.516,0.824-3.238,0.598-5.016C151.18,153.796,150.582,153.835,150.016,153.785L150.016,153.785z M151.266,154.882
c-0.012,0.953,0.121,2.146-0.285,3.063c-0.234,0.523-0.762,0.328-0.781-0.383c-0.023-0.965,0.172-1.77,0.227-2.645
c0.031-0.5,0.25-0.801,0.547-0.684C151.281,154.382,151.258,154.605,151.266,154.882L151.266,154.882z M115.363,155.539
c1.633,0.121,2.262,1.488,1.66,2.468c-1.473,1.884-2.984,2.228-4.918,3.317l-1.93-3.614
C110.176,157.71,113.934,155.589,115.363,155.539L115.363,155.539z M115.32,156.348c-1.078,0.125-1.762,0.652-2.668,1.098
c-1.113,0.543-1.477,1.383-0.723,2.148c0.832,0.926,3.734-1.281,4.215-1.816c0.297-0.457,0.246-0.875-0.168-1.207
C115.797,156.43,115.574,156.348,115.32,156.348L115.32,156.348z M55.774,156.496l2.429,0.027l-1.312,1.858L55.774,156.496z
M115.543,156.878c0.414,0.293,0.379,0.821-0.207,0.97c-0.293,0.073-0.805,0.078-0.816,0.473c-0.008,0.293-0.453,0.402-0.711,0.359
c-0.262-0.043-0.703-0.063-0.789,0.262c-0.223,0.449-0.391,0.453-0.703,0.144c-0.336-0.339-0.18-0.769,0.477-0.843
c0.281-0.032,0.523-0.235,0.625-0.449c-0.016-0.277,0.18-0.441,0.488-0.375c0.438-0.004,0.723-0.168,1.031-0.574
C115.156,156.742,115.395,156.773,115.543,156.878L115.543,156.878z M101.313,156.925c0.918,0,1.66,0.743,1.66,1.66
c0,0.918-0.742,1.665-1.66,1.665s-1.66-0.747-1.66-1.665C99.652,157.668,100.395,156.925,101.313,156.925L101.313,156.925z
M65.852,159.98c0.918,0,1.664,0.746,1.664,1.664s-0.746,1.66-1.664,1.66s-1.66-0.742-1.66-1.66S64.934,159.98,65.852,159.98
L65.852,159.98z M26.121,161.453l19.02,13.007l-1.301,1.899l-17.664-12.016L26.121,161.453z M121.609,161.878
c1.238,0,2.191,0.711,3.113,2.149c1.836,2.851,0.914,5.098-2.879,7.398c-1.766,1.066-1.777,1.077-1.777,1.077l-0.898-1.104
c0,0,1.285-0.758,1.816-1.09c3.121-1.974,4-3.72,2.625-5.681c-1.32-1.894-2.707-1.741-6.563,0.707
c-0.777,0.497-1.711,0.888-1.711,0.888l-0.844-1.148c0,0,2.18-1.121,2.926-1.594C119.125,162.391,120.516,161.878,121.609,161.878
L121.609,161.878z M135.785,161.387l0.016,1.25c0.039,0.059-2.586,1.215-4.125,1.914c-0.5,0.27-0.305,0.801-0.273,1.348l-0.742,0.5
c0,0-1.023-0.746-1.16-1.228C129.125,163.656,133.945,161.844,135.785,161.387L135.785,161.387z M108.328,162.73
c0.918,0,1.664,0.742,1.664,1.66s-0.746,1.664-1.664,1.664s-1.66-0.746-1.66-1.664S107.41,162.73,108.328,162.73L108.328,162.73z
M56.805,163.199c0.918,0,1.66,0.742,1.66,1.66c0,0.914-0.742,1.66-1.66,1.66s-1.66-0.746-1.66-1.66
C55.145,163.941,55.887,163.199,56.805,163.199L56.805,163.199z M121.539,164.523c0.633-0.023,1.105,0.387,1.363,1.016
c0.66,1.605-0.238,2.796-3.488,4.617c-0.273,0.152-0.848,0.465-0.848,0.465l-2.395-3.305c0,0,0.84-0.578,1.637-1.055
C119.59,165.098,120.73,164.551,121.539,164.523L121.539,164.523z M121.223,165.316c-0.152,0.004-0.332,0.062-0.535,0.18
c-0.836,0.48-2.23,1.004-2.887,1.875c-0.387,0.531-0.211,1.063,0.52,1.746c0.617,0.406,3.809-1.941,3.887-2.625
C121.938,165.773,121.68,165.301,121.223,165.316L121.223,165.316z M26.258,165.492l0.531,0.359l-0.531,0.418V165.492z
M121.727,166.07c0.238,0.289,0.098,0.777-0.402,0.863c-0.254,0.043-0.625,0.109-0.746,0.484c-0.102,0.246-0.445,0.453-0.785,0.445
c-0.391-0.09-0.598,0.144-0.617,0.32c-0.191,0.328-0.668,0.379-0.961,0.069c-0.227-0.237,0.18-0.933,0.445-0.921
c0.051,0.02,0.344,0.086,0.699-0.387c0.07-0.348,0.473-0.559,0.766-0.547c0.297,0.102,0.469-0.228,0.59-0.406
C120.984,165.848,121.539,165.848,121.727,166.07L121.727,166.07z M27.52,166.324l0.765,0.515l-2.027,1.438v-1.16L27.52,166.324z
M29.004,167.293l1.039,0.695l-3.785,2.711v-1.473L29.004,167.293z M30.942,168.531l1.097,0.722l-5.781,3.907v-1.504L30.942,168.531
z M33.024,169.585v1.259l-6.766,4.723v-1.273L33.024,169.585z M33.789,170.488l1.457,0.996l0.368,42.594l-9.122,6.266l0.008-1.863
l7.656-5.535L33.789,170.488z M143.801,171.641c-2.043,2.336-4.789,2.491-7.18,2.43c-6.445,0.09-10.449,0.433-11.277,8.121
c2.625-1.965,5.41-2.219,8.637-2.125c4.082-0.004,5.918-0.273,7.578-1.103c2.668-1.332,4.352-3.714,4.031-5.382
C145.273,173.219,144.445,171.73,143.801,171.641L143.801,171.641z M33.024,172.012v1.477l-6.766,4.535v-1.5L33.024,172.012z
M110.316,172.148c0.918,0,1.664,0.746,1.664,1.66c0,0.918-0.746,1.66-1.664,1.66s-1.66-0.742-1.66-1.66
C108.656,172.895,109.398,172.148,110.316,172.148L110.316,172.148z M66.129,172.32c11.961,0.371,37.359,0.23,37.359,0.23
l1.352,1.949l-39.934-0.418L66.129,172.32z M143.734,173.602c-1.43,1.401-2.914,2.09-7.617,2.004
c-4.969-0.09-6.906,0.695-8.191,2.91c-0.375,0.641-0.367,0.895,0.172,0.405c0.457-0.539,1.488-1.577,1.914-0.593
c0.844-0.555,1.574-1.395,2.016-0.332c0.246-0.055,1.68-1.489,2.016-0.219c0.688-0.766,1.273-1.004,1.594,0.082
c0.973-0.461,1.488-1.336,2.043-0.129c0.781-0.56,1.379-1.262,1.836-0.191c0.668-0.2,1.348-1.426,1.734-0.445
c0.07,0.023,2.488-1.43,3.172-2.867c0.563-1.27,1.074-0.431,0.438,0.867c-1.637,3.172-4.438,4.331-10.867,4.34
c-3.902,0.004-5.52,0.387-6.742,1.102c-1.969,1.148-0.91-1.742,0.469-3.496c1.738-2.207,3.723-2.859,9.152-2.664
c2.965,0.02,4.863-0.391,5.664-1.04c0.684-0.546,1.176-0.921,1.539-0.944C144.441,172.367,144.492,172.859,143.734,173.602
L143.734,173.602z M55.864,173.063c0.917,0,1.664,0.746,1.664,1.664s-0.747,1.66-1.664,1.66c-0.918,0-1.661-0.742-1.661-1.66
S54.946,173.063,55.864,173.063L55.864,173.063z M33.024,174.293v1.5l-6.766,4.617v-1.532L33.024,174.293z M65.754,175.012h5.25
v5.543h-5.25V175.012z M77.52,175.012h5.652v5.543H77.52V175.012z M90.102,175.191h5.453v5.363h-5.453V175.191z M101.914,175.3
l3.633,0.121c0,0,2.016,2.567,2.867,3.75l-2.684,1.375l-3.816,0.009V175.3z M68.278,175.675c-1.02,0-1.852,0.825-1.852,1.849
c0,1.02,0.832,1.848,1.852,1.848c1.023,0,1.851-0.828,1.851-1.848C70.129,176.5,69.301,175.675,68.278,175.675L68.278,175.675z
M80.356,175.859c-1.024,0-1.852,0.824-1.852,1.844c0,1.023,0.828,1.852,1.852,1.852c1.019,0,1.847-0.828,1.847-1.852
C82.203,176.684,81.375,175.859,80.356,175.859L80.356,175.859z M92.703,175.906c-1.02,0-1.848,0.824-1.848,1.847
c0,1.021,0.828,1.849,1.848,1.849c1.023,0,1.852-0.828,1.852-1.849C94.555,176.73,93.727,175.906,92.703,175.906L92.703,175.906z
M63.227,176.281c0.363,0.258,0.605,0.679,0.605,1.164c0,0.789-0.644,1.433-1.433,1.433c-0.282,0-0.543-0.077-0.762-0.214
L63.227,176.281z M68.278,176.301c0.675,0,1.226,0.547,1.226,1.223s-0.551,1.223-1.226,1.223c-0.676,0-1.227-0.547-1.227-1.223
S67.602,176.301,68.278,176.301L68.278,176.301z M105,176.352c-1.023,0-1.852,0.823-1.852,1.844c0,1.023,0.828,1.851,1.852,1.851
s1.852-0.827,1.852-1.851C106.852,177.175,106.023,176.352,105,176.352L105,176.352z M74.27,176.406c0.82,0,1.488,0.664,1.488,1.484
c0,0.819-0.668,1.484-1.488,1.484c-0.821,0-1.481-0.665-1.481-1.484C72.789,177.07,73.449,176.406,74.27,176.406L74.27,176.406z
M98.742,176.348c0.82,0,1.488,0.664,1.488,1.484s-0.668,1.484-1.488,1.484s-1.48-0.664-1.48-1.484S97.922,176.348,98.742,176.348
L98.742,176.348z M33.024,176.503v1.493l-6.766,4.727v-1.466L33.024,176.503z M80.356,176.48c0.675,0,1.222,0.547,1.222,1.223
c0,0.675-0.547,1.227-1.222,1.227c-0.676,0-1.227-0.552-1.227-1.227C79.129,177.027,79.68,176.48,80.356,176.48L80.356,176.48z
M92.703,176.531c0.68,0,1.227,0.543,1.227,1.222c0,0.677-0.547,1.224-1.227,1.224c-0.676,0-1.223-0.547-1.223-1.224
C91.48,177.074,92.027,176.531,92.703,176.531L92.703,176.531z M86.512,176.684c0.82,0,1.488,0.664,1.488,1.484
s-0.668,1.488-1.488,1.488c-0.82,0-1.484-0.668-1.484-1.488S85.692,176.684,86.512,176.684L86.512,176.684z M105,176.977
c0.676,0,1.227,0.543,1.227,1.219s-0.551,1.226-1.227,1.226s-1.227-0.55-1.227-1.226S104.324,176.977,105,176.977L105,176.977z
M52.356,178.257c3.152-0.034,6.562,1.567,8.484,4.224c2.914,3.891,4.859,8.854,5.742,15.371c0.438,3.227,1.942,12.918,2.797,15.207
l-1.176-0.227c-0.156,0.074-1.668-6.094-2.617-14.243c-0.351-3.019-0.996-6.913-2.746-10.472c-2-4.059-5.398-8.36-9.93-8.703
c-2.644-0.2-5.125,1.457-5.394,3.789c-0.379,1.843,0.703,3.563,2.121,4.136c1.391,0.563,3.055,0.146,3.242-1.754
c0.031-0.312,0-0.625-0.117-0.914c0.644-0.104,1.133,0.185,1.394,0.728c0.137,0.02,0.008,2.754-2.144,3.289
c-2.594,0.852-5.59-1.719-5.82-4.336c-0.18-2.203,1.5-4.931,3.613-5.668C50.61,178.406,51.473,178.27,52.356,178.257L52.356,178.257
z M33.024,179.109v1.519l-6.766,4.673v-1.535L33.024,179.109z M52.5,180.074c3.789-0.11,7.477,4.113,9.035,6.895
c1.629,2.898,2.918,7.508,3.364,11.844c0.757,7.375,2.168,13.406,2.468,13.684l-1.031-0.227c-0.219,0.145-1.64-6.513-2.508-13.926
c-0.484-4.156-2.027-8.277-3.863-11.453c-1.695-2.934-3.976-5.121-6.68-5.441c-1.695-0.168-3.437,0.32-3.777,2.105
c-0.184,1.047,0.367,2.073,1.609,2.164c0.293,0.02,0.575,0.043,0.625,0.055c0.657,0.117-0.375,1.184-1.054,1.09
c-2.43-0.34-3.547-3.582-1.633-5.309C50.172,180.546,51.344,180.105,52.5,180.074L52.5,180.074z M60.61,181.156l42.515,0.429
c0,0,0.035,0.763-2.609,0.638c-2.25-0.105-3.703,0.207-5.195,0.688l-33.407-0.075L60.61,181.156z M33.024,181.648v1.414
l-6.766,4.733v-1.558L33.024,181.648z M52.785,182.246c0.817-0.012,1.649,0.199,2.278,0.563c5.265,3.051,7.277,10.621,7.968,15.387
c0.95,7.058,2.04,13.617,2.344,13.781l-1.148-0.263c-0.153,0.005-1.406-6.112-2.192-12.972c-0.632-5.543-2.527-11.11-6.285-13.449
c-2.414-1.645-2.886-1.809-4.004-0.852c-0.965,0.828-1.945-0.418-1.136-1.43C51.164,182.488,51.969,182.257,52.785,182.246
L52.785,182.246z M33.024,184.16v1.16l-6.766,4.711v-1.371L33.024,184.16z M63.973,184.191c0.086-0.082,3.656,5.979,4.785,15.539
c0.594,5.031,2.297,13.608,2.57,13.68l-1.238-0.133c-1.266-5.059-1.965-9.848-2.641-14.164c-0.765-4.883-1.382-9.223-4.425-14.887
l0.945-0.027C63.969,184.191,63.969,184.191,63.973,184.191L63.973,184.191z M64.781,184.238l1.106,0.015
c1.891,3.603,3.902,9.196,4.598,14.802c0.601,4.84,1.207,9.766,2.941,14.895l-1.187-0.324c-1.489-4.165-2.016-9.195-2.817-14.406
C68.535,193.453,67.149,188.438,64.781,184.238L64.781,184.238z M71.606,184.246c1.933,5.011,3.191,7.402,4.078,13.566
c0.683,4.785,1.652,10.77,3.859,17.108l-1.121-0.046c-1.633-4.375-2.883-10.238-3.457-15.868
c-0.777-7.647-4.211-14.784-4.242-14.741L71.606,184.246z M69.699,184.266c0.106-0.152,3.692,7.016,4.52,14.898
c0.555,5.242,1.781,10.43,3.465,15.441l-1.145-0.027c-1.32-1.528-2.312-8.77-3.402-15.527c-1.113-6.898-2.68-11.145-4.422-14.773
h0.981C69.696,184.273,69.699,184.27,69.699,184.266L69.699,184.266z M66.813,184.273l1.015,0.004
c2.657,5.812,3.762,9.269,4.582,14.887c1.036,7.102,2.028,13.511,3.129,15.18l-1.242-0.082c-1.711-5.117-2.484-10.234-3.09-15.355
C70.547,193.363,68.953,188.613,66.813,184.273L66.813,184.273z M72.422,184.32l1.203,0.019c2.082,4.216,3.813,9.336,4.418,15.196
c0.336,3.175,0.922,8.05,3.309,15.574l-0.969-0.063c-1.953-5.043-3.129-10.979-3.828-16.159
C75.848,193.664,74.602,189.355,72.422,184.32L72.422,184.32z M79.852,184.355c1.14,2.922,2.082,5.824,2.695,8.809l-0.68,1.332
c-1.07-3.941-2.277-7.012-3.472-10.121L79.852,184.355z M74.348,184.359l1.469,0.035c2.527,5.862,3.824,12.059,4.179,14.141
c0,0,0.348,1.84,0.371,2.441c-0.082,5.125,0.801,8.776,2.707,14.285l-0.871-0.063c-2.214-6.403-2.808-10.949-3.375-15.293
C78.36,194.445,76.582,188.82,74.348,184.359L74.348,184.359z M77.742,184.406c1.504,3.758,2.653,7.379,3.696,11.004
c-0.047,0.824-0.125,1.727-0.66,2.39c-1.231-4.433-2.266-9.043-4.161-13.386L77.742,184.406z M80.52,184.438l1.164,0.02l2.32,6.645
l-0.91,1.004C82.414,189.906,81.715,187.488,80.52,184.438L80.52,184.438z M87.313,184.484l0.847,1.996l-0.914,0.776
c0,0-0.933-1.87-1.179-2.75L87.313,184.484z M89.039,184.484l0.426,1.152l-0.769,0.586l-0.598-1.716L89.039,184.484z
M82.375,184.507l1.199,0.009c0.481,1.395,1.77,4.813,1.77,4.813l-0.859,0.906C84.485,190.234,82.86,185.914,82.375,184.507
L82.375,184.507z M84.231,184.507l1.062,0.013c0.321,0.905,1.317,3.418,1.317,3.418l-0.735,0.699L84.231,184.507z M89.789,184.555
l1.051,0.051l-0.121,0.258l-0.656,0.328L89.789,184.555z M55.313,186.031c4.406,2.32,5.617,9.273,6.093,13.097
c0.836,6.668,1.77,12.095,1.969,12.243l-0.976-0.157c0,0-0.723-3.425-1.223-6.687c-0.418-2.711-0.738-4.984-0.852-6.024
c-0.07-0.647-0.179-1.405-0.238-1.679c-0.617-2.742-0.812-3.367-1.605-5.035c-0.762-1.602-1.032-2.004-2.297-3.43
c-0.488-0.547-0.961-0.949-1.125-1.301C54.821,186.559,55.313,186.031,55.313,186.031L55.313,186.031z M33.024,186.391v1.309
l-6.766,4.781v-1.5L33.024,186.391z M33.024,188.688v1.512l-6.766,4.465v-1.34L33.024,188.688z M33.024,191.262v1.398l-6.766,4.718
v-1.448L33.024,191.262z M44.328,192.676h0.598l0.043,0.984l-0.922-0.059L44.328,192.676z M33.024,193.887v1.495l-6.766,4.47v-1.395
L33.024,193.887z M43.629,194.457l1.434,0.016l-0.016,1.027l-1.84-0.063L43.629,194.457z M42.801,196.105l2.352,0.043v0.977
l-2.914-0.047L42.801,196.105z M33.024,196.32v1.57l-6.766,4.5v-1.578L33.024,196.32z M41.602,197.953l3.441,0.039l-0.019,0.816
l-4.11-0.027L41.602,197.953z M33.024,198.863v1.535l-6.766,4.336v-1.383L33.024,198.863z M40.168,199.594l4.723,0.066l-0.117,0.789
l-5.387-0.024L40.168,199.594z M33.024,201.266v1.477l-6.766,4.406v-1.418L33.024,201.266z M38.395,201.266l6.219,0.145l1.308,1.188
l-9.676,0.059L38.395,201.266z M36.512,203.445l10.691,0.133l0.746,0.688l-11.472,0.043L36.512,203.445z M33.024,203.781v1.566
l-6.766,4.438v-1.434L33.024,203.781z M36.524,205.16l11.847,0.054l-0.859,0.95l-11.004,0.031L36.524,205.16z M33.024,206.348v1.434
l-6.766,4.594v-1.648L33.024,206.348z M36.231,207.094l10.238,0.034l-1.203,0.946l-7.074,0.16L36.231,207.094z M33.024,208.867
v1.371l-6.766,4.847v-1.535L33.024,208.867z M39.223,209.043l6.016,0.027l0.109,0.805l-5.168-0.012L39.223,209.043z M40.887,210.707
l4.617,0.046l0.219,1.043l-4.109-0.054L40.887,210.707z M33.024,211.438v1.27l-6.766,4.727v-1.41L33.024,211.438z M45.821,212.48
l0.054,0.992l-2.754,0.105l-0.773-1.039L45.821,212.48z M45.797,214.238l-0.019,1.047l-1.922,0.031l-0.43-1.008L45.797,214.238z
M44.094,216.098l1.512,0.012l-0.129,0.805l-1.172,0.016L44.094,216.098z M44.547,218.027h0.734l-0.121,0.629h-0.379L44.547,218.027
z M59.52,228.648l-0.356,0.453h10.582l0.118-0.453H59.52z M73.16,228.648l-0.183,0.608h4.773l0.133-0.608H73.16z M80.961,228.766
l-0.148,0.578h12.21l-0.203-0.578H80.961z M95.566,228.766l0.246,0.703h4.109l-0.27-0.703H95.566z M109.742,228.766l-7.215,0.004
l0.262,0.785h7.457L109.742,228.766z M109.742,228.766"/>
</svg>
