<?xml version="1.0" encoding="utf-8"?>
<!DOCTYPE svg PUBLIC "-//W3C//DTD SVG 1.1//EN" "http://www.w3.org/Graphics/SVG/1.1/DTD/svg11.dtd" [
<!ENTITY ns_svg "http://www.w3.org/2000/svg">
<!ENTITY ns_xlink "http://www.w3.org/1999/xlink">
]>
<svg version="1.1" id="Layer_1" xmlns="&ns_svg;" xmlns:xlink="&ns_xlink;" width="179.379" height="250.246"
viewBox="0 0 179.379 250.246" overflow="visible" enable-background="new 0 0 179.379 250.246" xml:space="preserve">
<path fill="#FFFFFF" d="M8.903,0.398h161.574c4.711,0,8.504,3.793,8.504,8.504v232.441c0,4.711-3.793,8.504-8.504,8.504H8.903
c-4.711,0-8.504-3.793-8.504-8.504V8.902C0.399,4.191,4.192,0.398,8.903,0.398L8.903,0.398z M8.903,0.398"/>
<path fill="none" stroke="#000000" stroke-width="0.7974" d="M8.903,0.398h161.574c4.711,0,8.504,3.793,8.504,8.504v232.441
c0,4.711-3.793,8.504-8.504,8.504H8.903c-4.711,0-8.504-3.793-8.504-8.504V8.902C0.399,4.191,4.192,0.398,8.903,0.398L8.903,0.398z
M8.903,0.398"/>
<path fill="#131F67" d="M154.563,19.949L24.008,20.016l0.785,209.612l131.023-0.272C154.801,159.469,154.703,89.715,154.563,19.949
L154.563,19.949z M139.16,21.715l13.77,0.07v80.656c0,0-0.859-0.023-0.777-0.59c0.105-0.754-0.012-2.168-0.539-2.766
c-0.223-0.25-0.59-0.645-0.734-0.93c-0.359-0.723-0.957-1.469-1.434-1.668c-0.234-0.102-0.508-0.156-0.547-0.32
c-0.031-0.152-0.109-0.656-0.211-1.117c-0.254-1.16-0.477-1.121,0.258-2.273c2.555-3.992,3.535-7.664,3.215-11.305
c-0.102-1.137-0.387-2.609-0.523-2.813c-2.465,2.473-4.25,5.527-5.93,7.785c-0.375-3.227-0.32-5.66-0.375-8.242
c1.316-0.375,2.113-1.078,2.684-2.871c0,0,1.41,1.105,2.273,0.949l-0.566-2.086c3.777-1.156,4.293-6.086-0.168-7.129l0.402-2.594
c0,0-1.348,0.449-1.938,0.738c-0.297,0.125-0.371,0.027-0.574-0.402c-2.082-3.234-5.313-2.547-6.734,0.645l-1.742-0.738
c0.188,0.883,0.414,1.777,0.254,2.66c-3.656,1.629-2.754,6.082,0.164,6.668l-0.254,2.078l2.195-0.707
c0.32,0.977,0.156,1.543,1.914,2.641c-0.043,4.359-0.117,7.086,0.02,10.961c-2.285-2.34-4.492-3.969-8.363-5.16
c0,0-0.035,0.938,0.191,2.363c0.074,0.473,0.059,0.402-0.164,0.402c-0.504-0.012-2.77-3.656-2.77-3.656s-0.262,0.004-0.492,0.23
c-0.27,0.266,0.348,0.762,1.215,2.051c1.012,1.504,0.914,1.441,0.117,2.117c-4.531,3.844-11.074,18.477-9.973,19.898
c-2.867,0.172-14.027,5.645-16.055,16.93c-0.121,0.508-0.359,1.168-0.359,1.168l-3.227-0.805c1.945-9.242,6.34-28.035,6.34-28.035
s3.09-0.875,4.898-1.07l-0.02-0.727l-4.254,0.988l0.203-1.609l4.016-0.789l-0.012-0.383l-4.25,0.57L111,90.82
c0,0-9.543,1.398-12.957,1.297c0,0-0.004,6.137,0.008,13.555c-0.688,5.484-1.004,16.164-1.004,16.164l-3.832-2.219
c-0.414-7.824-0.539-27.586-0.539-27.586l-12.879-2.02l0.43,3.102c-10.676-4.23-21.387-8.121-29.27-16.395
c4.852-3.727,12.953-7.422,12.953-7.422l-0.265-0.59c-19.918,10.27-27.317,17.402-37.328,26.254l-0.27-73.176l54.371-0.027
l-0.183,13.344c0,0-0.071,0.348-0.172,0.469c-0.664,3.23,1.242,8.969,0.859,11.766c0.176,0.863,0.113,2.465,0.113,2.465
c-3.246,4.445-4.964,8.668-6.41,13.836c-0.558,0.219-1.383,0.676-1.965,0.836l-0.164,0.703c1.274-0.699,4.883-1.84,4.883-1.84
c16.09,7.844,27.914,5.922,40.566,0.094c-2.02,7.082,2.367,16.09,9.586,17.98c0.824,0.219,2.238,0.402,3.047,0.191
c0.809-0.234-1.82-6.246-2.984-6.469c-3.484-1.512-4.922-5.059-4.547-9.129l-0.578-0.969c-1.191,4.941,1.668,9.961,5.598,11.188
l1.055,2.305c-7.117-2.137-10.148-8.801-7.777-15.391c0.039-4.109-2.625-5.93-3.848-7.699c-6.188-2.363-7.336-8.094-6.254-12.727
c2.879,1.227-1.941-4.066-1.941-4.066c-2.125,4.594-3.012,10.406,1.844,16.297c-3.141,4.16-7.188,7.449-11.715,10.262
c-6.617,3.453-11.578,1.125-14.777-6.52c-1.918-4.59-2.606-9.164-2.594-13.957c0.008-2.969,0.043-3.059,1.156-2.555
c1.043,0.473,3.309,0.539,4.66-0.156c1.844-0.953,1.754-0.371-0.25,1.691c-0.547,0.559-1.129,1.066-1.129,1.172
c-0.004,0.609,0.856,0.098,2.078-1.117c0.45-0.441,0.778-0.867,0.918-0.859c0.161,0.004,0.145,0.578-0.039,1.191
c-0.07,0.238-0.293,1.238-0.5,2.219c-0.203,0.984-0.488,2.137-0.625,2.566c-0.543,1.703-0.394,2.496,1.239,3.281
c0.863,0.414,2.335,1.828,2.324,1.828c0,0-0.352-1.551-0.223-2.047c0.156-0.598,0.867-0.176,1.594,0.172
c1.605,0.766,2.535,0.785,3.398,0.066c1.188-0.988,0.848-3.215-0.621-3.797c-1.078-0.426-1.266-0.031-0.191,0.719
c1.613,1.125-0.207,2.863-1.574,1.785c-1.07-0.844-2.93-0.938-3.141-0.238c-0.195,0.664-0.398,0.543-1.141,0.113
c-1.152-0.676-1.16-0.793-0.195-4.508c1.828-7.039,1.648-9.621-0.773-11.758c-1.793-1.586-4.758-2.32-7.832-0.559v-2.398
c4.511-1.805,7.797-4.785,10.445-9.781h0.516c2.637,5.707,6.895,9.809,14.914,12.813c3.129,3.094-3.973-8.883-1.703-3.98
c-4.254-1.645-8.047-4.84-10.133-8.832h1.16c1.219,1.766,3.695,4.988,8.105,7.211c0.398,0.336,0.785-0.012,0.785-0.012
s-3.699-5.793-4.305-7.172l36.949-0.262c-1.172,9-2.82,18.777,3.676,36.305c-3.047-1.602-15.27,1.809-13.117,2.48
c1.082-1.246,8.867-3.082,14.629-1.723C142.637,58.172,134.328,38.891,139.16,21.715L139.16,21.715z M143.113,58.586
c0.012,0.008,0.02,0.012,0.023,0.004C143.129,58.586,143.121,58.586,143.113,58.586L143.113,58.586z M114.566,93.313l0.035,1.41
l0.293-0.07l-0.172-1.371L114.566,93.313z M81.207,21.758h1.621c-0.355,0.73-0.875,1.281-1.668,1.734L81.207,21.758z M83.996,21.758
h1.746c-1.363,2.164-2.808,3.473-4.55,4.5l0.031-1.695C82.231,23.68,83.192,22.766,83.996,21.758L83.996,21.758z M86.879,21.758
h1.613c-2.187,3.355-4.429,5.613-7.3,7.039v-1.371C82.965,26.047,85.481,24.02,86.879,21.758L86.879,21.758z M89.34,21.758h1.301
c-2.238,4.266-5.36,7.211-9.449,8.848v-1.023C85.668,27.195,87.629,24.531,89.34,21.758L89.34,21.758z M92.898,21.758h1.563
c2.148,4.266,6.605,8.297,11.5,10.066l0.75,1.73C100.258,31.238,95.984,27.855,92.898,21.758L92.898,21.758z M97.426,21.758h1.117
c1.176,1.637,2.598,2.965,4.262,4.07l1.012,1.961C101.57,26.281,99.066,24.445,97.426,21.758L97.426,21.758z M99.465,21.758
l1.246,0.066l1.652,2.754C101.262,23.957,100.43,22.699,99.465,21.758L99.465,21.758z M98.031,32.828
c-1.711-0.008-3.27,0.465-4.398,1.387c-1.188,0.969-0.313,2.027,1.398,1.23c2.918-1.355,6.273-0.742,9.891,1.238
c3.047,1.668,1.98-0.07-0.863-1.926C102.109,33.469,99.969,32.84,98.031,32.828L98.031,32.828z M84.27,35.016
c2.453,0.02,5.265,1.105,5.336,2.547c-1.629-1.363-4.903-2.023-8.043-0.625c-0.239-0.051-0.274-0.906-0.129-1.219
C82.11,35.219,83.153,35.004,84.27,35.016L84.27,35.016z M99.137,35.941c-1.555,0-2.973,0.406-3.629,1.281
c-0.336,0.414-0.426,0.457-0.793,0.395c-0.723-0.117-0.684,0.301,0.141,1.441c0.398,0.555,0.336,1.188-0.199,1.938
c-0.613,0.863-0.496,0.898,1.332,1.773c1.398,0.68,2.52,1.645,3.789,2.438c0.906,0.512,1.086,0.063,0.25-0.609
c-0.289-0.234-1.141-0.84-1.906-1.34c-1.293-0.844-2.246-1.695-1.215-1.316c0.473,0.148,0.594,0.211,1.113,0.301
c1.336,0.289,2.652,0.449,3.773,0.223c0.805-0.16,1.852-0.691,2.715-1.438c0.219-0.102,0.438,0.008,0.969,0.027
c2.043,0.078,1.59-0.52-1.34-2.117c-2.902-1.582-5.176-1.871-7.031-1.004c-0.785,0.367-1.234,0.461-1.121,0.227
c0.117-0.242,0.336-0.523,0.691-0.727c2.996-1.793,5.406-0.309,8.051,1.039c1.133,0.676,1.441,0.852,1.574,0.637
c0.172-0.277-1.266-1.297-3.191-2.266C101.977,36.258,100.504,35.941,99.137,35.941L99.137,35.941z M89.551,38.02
c0.504,0.199,0.277,0.781-0.184,0.598c-2.769-1.242-3.328-1.852-6.628-0.699c-1.09,0.379-1.52,0.043-0.184-0.531
C85.473,36.168,87.586,36.992,89.551,38.02L89.551,38.02z M87.653,39.484c-0.75,3.809-4.543,2.633-4.118,0.02l0.7,0.004
c0.054,2.301,2.359,2.285,2.754,0.023L87.653,39.484z M109.707,39.492l1.02,2.184c-2.23,5.5,0.801,12.906,7.395,14.684
c0,0,1.063,1.633,0.855,1.84C106.598,55.461,107.551,43.656,109.707,39.492L109.707,39.492z M97.98,39.633l0.348,0.02
c1.066,2.656,2.621,1.129,2.922,0.008l0.789,0.02C101.801,42.43,97.629,42.898,97.98,39.633L97.98,39.633z M88.438,39.711
c0.5-0.059,0.672,0.691,0.531,0.832c-0.039,0.039-0.953,0.93-1.066,0.406C87.739,40.18,88.231,39.75,88.438,39.711L88.438,39.711z
M82.664,39.789c0.039,0,0.082,0,0.129,0.008c0.313,0.234,0.43,0.945,0.266,1.309c-0.184,0.191-0.926-0.07-1.07-0.355
C81.766,40.336,82.028,39.785,82.664,39.789L82.664,39.789z M102.742,40.043c0.246,0.008,0.918,0.301,0.852,0.625
c-0.016,0.082-0.953,0.77-1.164,0.656c-0.406-0.215,0.156-1.207,0.234-1.266C102.68,40.047,102.707,40.039,102.742,40.043
L102.742,40.043z M97.27,40.16c0.008,0,0.016,0,0.016,0c0.074,0.055,0.672,0.426,0.164,1.113c-0.035,0.051-0.715-0.191-0.727-0.273
C96.668,40.602,97.18,40.191,97.27,40.16L97.27,40.16z M112.273,44.984c-0.152,3.164,0.672,6.23,4.125,8.203l-0.742-1.355
c-0.887-0.707-2.738-2.719-2.508-5.113L112.273,44.984z M81.27,50.637l0.386,2.082c-1.898,3.156-3.343,6.258-4.539,9.883
l-1.793,0.656C76.75,58.684,78.067,55.063,81.27,50.637L81.27,50.637z M82.024,53.875l0.507,1.789
c-0.933,1.719-1.929,3.66-2.531,5.922l-1.984,0.73C78.91,59.324,80.215,56.414,82.024,53.875L82.024,53.875z M88.313,54.617
c-0.028,0-0.059,0.004-0.086,0.012c-0.024,0.352-0.02,1.324,0.054,2.93c0.016,0.305,0.317,0.176,1.157-0.254
c0.738-0.375,0.66-0.434,1.371-0.195c1.973,0.676,2.871,0.383,3.645,0.184c1.172-0.305,1.652-0.18,2.336,0.227
c0.375,0.227,0.891,0.391,0.992,0.43c0.539,0.195,0.332-0.043-0.035-1.504c-0.418-1.641-0.238-1.824-0.898-1.395
c-0.145,0.094-0.563,0.324-0.789,0.352c-0.574,0.066-1.531-0.637-2.105-0.414c-1.383,0.543-1.371,0.402-2.656,0.086
c-0.641-0.156-1.258,0.234-1.816,0.344C89.164,55.457,88.758,54.613,88.313,54.617L88.313,54.617z M111.859,55.469
c2.34,2.145,4.746,2.879,7.352,3.691c-0.313,1.066-0.941,2.266-1.234,3.66c-13.574,7.172-27.215,6.945-40.078,0.434l6.675-2.551
c3.649,6.316,8.325,8.004,13.579,5.938C104.027,63.906,108.379,60.105,111.859,55.469L111.859,55.469z M82.86,56.73l0.578,1.551
l-0.86,2.332l-1.636,0.664C81.254,59.688,81.86,58.379,82.86,56.73L82.86,56.73z M95.125,58.527c-0.406,0.02-1.02,0.293-2.418,0.301
c-0.758,0.004-1.352-0.063-1.645-0.004c-0.61,0.121,0.102,0.395,1.465,0.785c1.367,0.387,3.035-0.199,3.242-0.789
C95.82,58.676,95.641,58.504,95.125,58.527L95.125,58.527z M83.817,59.289l0.359,0.785l-0.613,0.223L83.817,59.289z M119.906,59.734
l1.012,2.305c-1.754,3.801-2.922,14.215,8.801,17.453l0.512,1.492C122.254,81.141,114.258,71,119.906,59.734L119.906,59.734z
M93.066,60.52c-1.145-0.012-2.344,0.273-3.114,0.887c-0.699,0.551,0.153,0.898,1.063,0.457c1.176-0.574,3.137-0.523,4.289,0.195
c0.883,0.602,1.344,0.496,0.754-0.418C95.594,60.922,94.367,60.531,93.066,60.52L93.066,60.52z M144.242,63.113
c3.063-0.051,3.383,4.332,2.785,4.711c0.172-0.059,0.695-0.215,1.441-0.195c2.246,0.059,3.414,1.301,3.543,3.105
c0.133,1.82-1.25,2.832-3.266,2.734c-0.75-0.039-1.262-0.113-1.23,0.02c0.375,1.453-0.078,3.645-2.004,4.191
c-0.219,0.063-0.535,0.371-0.543,0.48c-0.145,2.305,0.516,10.223,0.516,10.223s3.609-6.066,4.422-6.988
c1.59-2.168,1.875-1.973,1.879,1.633c-0.262,5-1.066,6.145-4.012,10.344c-1.258,1.805-4.246,0.855-3.973,2.078
c0.059,0.27,0.543,0.754,1.027,1.215c0.309,0.293,0.629,0.477,1.355,0.453c1.273-0.043,1.77-0.301,1.008,0.809
c-0.602,0.875-2.715,1.055-2.953,1.512c-0.555,1.059-0.176,0.824-1.125,1.758c-0.727,0.793-0.473,0.391-0.141,1.043
c0.516,0.844,0.301,2.527-0.215,3.664c-0.418,0.926-0.371,1.586-0.371,1.586c0.008,0.074,1.18-1.211,1.531-2.695
c0.293-1.234,0.641-1.855,0.637-1.164c-0.004,0.875,0.148,2.059,0.938,2.512c0.621,0.359,0.711,0.715,0.605,1.156
c-0.105,0.453,0.379,0.855,0.859,1.238c0.113,0.109,0.492,0.258,0.453,0.5c-0.129,0.758,0.18,1.652,0.734,1.797
c0.246,0.121,1.816-0.012,2.078-0.895c-0.027-0.285-0.004-1.445-0.629-1.512c-0.441-0.203-0.395-0.324,0.273-0.723
c1-0.598,1.727-1.027,2.223-1.117c0.664-0.09,1.297-0.813,1.297-0.813l0.129,47.733l-21.039,18.082
c-4.988-4.159-10.441-8.366-16.23-11.519l-2-1.184l0.715-0.918l-3.469-4.574l3.906-3.145l0.988,1.25l-1.848,1.796l2.773,3.067
l6.234-6.078l-4.109-3.93l2.141-4.004l1.367,0.672l-1.031,2.539l3.121,1.977l3.914-7.77l-4.961-2.258l1.258-5.216l1.527,0.161
l-0.508,3.757l3.863,0.767l1.574-8.855l-5.672-1.016l0.48-5.051l1.586,0.02l-0.234,2.793l4.008,0.57l0.754-7.719l-5.559-0.922
l0.719-5.961l1.27,0.184l-0.246,3.676l4.078,0.695c0.449-2.492,0.816-5.621,1.48-8.066l-5.254-1.957l1.859-5.004l1.184,0.41
l-1.031,2.715l3.879,1.648l3.27-6.453l-4.566-3.234c1.023-1.699,2.043-3.313,3.508-4.688l0.898,0.781c0,0-0.328,0.297-0.836,1
c-0.617,0.848-0.809,1.281-0.727,1.5c0.086,0.219,2.906,2.305,3.121,2.305c0.25,0,1.188-0.852,1.668-1.426
c0.52-0.613,0.789-0.672,1.324-0.289c0.105,0.078,0.258,0.227,0.367,0.359c0.129,0.152,0.18,0.281,0.195,0.379
c0.012,0.098-0.016,0.164-0.039,0.203c0.043-0.043,0.145-0.117,0.352-0.234c0.387-0.215-0.742-1.207-1.664-1.719
c-2.754-1.547-5.996-4.461-6.746-8.105c-0.273-1.637,3.961,0.332,6.875,3.234c0.441,0.441,2.086,2.031,2.086,2.031
c-0.242-4.215-0.586-8.496-0.398-12.762l-0.645-0.445c-0.898-0.629-1.246-1.656-1.328-2.688c-0.055-0.715,0.555-1.078-0.84-1.031
c-2.902,0.027-4.578-2.703-2.82-5.039c0.629-0.871,3.305-1.301,3.301-1.277C140.676,64.75,142.73,63.254,144.242,63.113
L144.242,63.113z M143.188,95.578C143.133,95.629,143.156,95.629,143.188,95.578L143.188,95.578z M147.027,67.824
c-0.039,0.012-0.082,0.027-0.082,0.027C146.973,67.848,147.004,67.84,147.027,67.824L147.027,67.824z M50.434,76.941
c8.105,6.82,13.273,11.41,29.762,16.547l0.41,2.441c-9.485-2.188-19.828-6.617-32.125-17.637L50.434,76.941z M47.996,78.52
c5.129,4.789,10.391,8.434,15.711,11.496l1.867,1.125l-0.96,0.984l3.132,4.516l-4.031,3.285l-0.957-0.953l2.102-2.063l-2.993-2.945
l-6.101,6.172l4.183,3.707l-2.425,3.727l-0.879-0.398l1.289-2.594l-3.883-2.121l-4.344,7.98l5.528,2.516l-1.246,4.895l-1.293-0.063
l0.437-3.84l-4.156-0.734l-1.399,8.965l5.348,0.84l-0.129,5.164l-1.426-0.023l0.102-2.918l-4.223-0.195l-0.379,7.523l5.2,0.672
l-0.52,6.109l-1.277-0.328l0.14-3.965l-3.957-0.391l-1.367,8.43l5.344,1.527l-1.887,5.254l-1.16-0.637l0.762-2.711
c-0.977-0.426-3.715-1.563-3.715-1.563l-3.492,6.543l4.527,3.082l-2.785,4.896l-1.074-0.723l1.921-2.852l-3.761-2.364l-2.141,2.927
c-0.91-0.793-2.543-1.888-3.168-2.621c-0.664-0.605-1.172-0.699-2.027-0.496c-0.68,0.16-1.328,0.281-1.18,0.043
c0.074-0.121,1.36-0.984,3.32-2.228c0.547-0.351,0.981-0.651,0.973-0.964c-0.004-0.23,0.301-0.602,0.695-0.84
c0.438-0.266,0.34-0.512,0.27-0.785c-0.379-1.473-0.141-3.77,0.602-5.313c0.496-1.035,0.652-1.224,0.328-1.224
c-0.957,0.122-2.121,3.582-2.344,4.56c-0.074-0.078-0.18-0.992-0.246-1.34c-0.121-0.638-0.211-1.027-0.719-1.148
c-0.609-0.145-0.418-0.438-0.48-0.895c-0.102-0.742-0.45-1.216-1.086-1.477c-0.61-0.254-0.676-0.355-0.653-0.961
c0-0.48-0.5-1.289-0.867-1.547l-2.121,0.746c-0.168,0.562,0.055,1.285,0.406,1.551c1.063,1-0.496,1.016-1.563,1.668
c-0.289,0.188-0.633,0.593-0.867,0.457c-0.676-0.219-0.622,1.804-1.289,1.55l0.16-48.554C31.453,90.777,47.996,78.52,47.996,78.52
L47.996,78.52z M133.809,87.105l0.816,0.906c-2.531,2.848-4.371,5.785-6.395,9.367c-1.727,3.059-3.219,7.34-4.004,12.012
c-0.602,2.855-0.695,5.766-1.07,8.691c-0.379,3.145-0.453,7.383-1.055,10.703c-1.113,9.113-3.672,13.965-9.234,19.133
c-2.445,2.273-10.051,6.566-10.262,6.523l-1.801-0.449c15.598-7.985,19.496-13.489,21.184-32.391
C122.32,97.887,133.105,88.703,133.809,87.105L133.809,87.105z M135.344,88.691l0.836,0.805l-4.555,6.434l4.488,3.16l-1.781,4.156
l-1.359-0.504l0.969-2.836l-3.777-1.59l-3.051,8.262l5.379,1.695l-0.887,5.379l-1.086-0.293l0.004-3.668l-3.992-0.813l-1.16,9.227
l5.879,0.82l-0.43,4.762l-1.391-0.098l-0.055-2.836l-4.078-0.215l-0.934,7.996l5.789,0.984l-1.047,5.68l-1.234-0.289l0.277-3.75
l-3.883-0.512l-2.246,7.672l4.879,2.461l-2.402,4.918l-1.027-0.715l1.328-2.91l-3.793-1.871l-3.664,6.348l3.977,3.909l-3.883,4.071
l-0.867-1.11l2.004-2.159l-2.996-2.962l-6.227,4.95l3.18,4.188l-0.375,0.526l-3.281-1.315l-1.57-2.078l-1.883,0.824l-1.48-0.563
c9.195-4.825,15.176-10.414,17.648-18.844c1.355-4.664,1.758-9.75,2.199-14.875c0.227-2.664,0.465-5.336,0.852-7.969
c0.453-4.297,1.109-7.902,2.855-12.047C129.605,96.07,132.176,92.527,135.344,88.691L135.344,88.691z M85.86,91.871l6.316,3.328
l-0.094,2.211l-5.836-2.922L85.86,91.871z M87.637,91.934l4.5,0.617l0.02,1.813L87.637,91.934z M67.352,91.992l2.629,1.18
l2.226,2.57l1.668-1.094l1.809,0.68c-5.719,2.938-10.797,6.457-14.75,12.527c-4.406,6.766-4.895,15.621-5.461,24.168
c-0.938,11.789-2.961,20.07-10.797,29.629l-1.156-0.727l4.23-6.719l-4.769-3.082l2.172-3.973l1.097,0.379l-0.851,2.367l3.945,2.082
l3.027-8.469l-5.566-1.734l0.934-5.297l1.398,0.121l-0.371,3.797l3.976,0.629l1.141-8.953l-5.359-0.821l0.121-4.733l1.312,0.129
l-0.008,2.879l4.227,0.226l0.328-8.167l-5.254-0.582l0.645-5.766l1.472,0.148l-0.339,3.461l4.046,0.578l1.918-7.469l-5.253-2.371
l2.835-5.043l1.274,0.586l-1.301,2.793l3.645,1.773l3.82-5.84l-4.059-3.898l3.985-4.172l0.98,0.961l-2.164,2.488l3,2.773
l5.942-4.984l-2.903-4.363L67.352,91.992z M105.141,92.27l-0.184,2.09l-6.328,3.594l-0.004-2.047L105.141,92.27z M139.113,92.34
l1.398,0.867L139.5,94.41l-1.223-0.77L139.113,92.34z M102.48,92.637l-3.793,2.188v-2.176L102.48,92.637z M147.184,94.68
c0.199,0.004,0.383,0.047,0.523,0.137c0.379,0.25,0.324,0.863-0.105,1.164c-0.563,0.395-2.098,0.367-2.25-0.039
C145.133,95.359,146.328,94.66,147.184,94.68L147.184,94.68z M86.68,95.543l5.441,2.934l-0.02,2.07l-5.235-2.879L86.68,95.543z
M104.402,95.609l-0.32,2.695l-5.602,2.969l-0.047-2.336L104.402,95.609z M77.289,95.656l2.231,0.566
c-8.258,3.688-16.422,9.027-19.594,18.352c-0.992,2.789-1.66,5.895-2.098,9.871c-0.203,4.191-0.746,8.316-0.941,11.812
c-0.406,7.121-2.75,16.763-10.844,27.005l-0.773-0.605c4.965-6.121,7.547-11.668,9.14-17.531c2.528-9.329,1.274-19.621,3.969-29.008
c1.645-5.715,5.055-10.82,10.168-15.238C72.102,98.113,77.289,95.656,77.289,95.656L77.289,95.656z M81.035,96.441
c0.028-0.004,0.036-0.004,0.039,0.008c2.004,6.746,4.481,19.051,4.481,19.051c-5.301-2.566-14.129-2.098-14.129-2.098
s-4.969-6.406-5.93-6.934C69.469,101.109,80.278,96.477,81.035,96.441L81.035,96.441z M149.32,97.504
c1.223-0.039,1.133,1.816-0.414,3.078c-0.789,0.645-1.152,0.555-1.734,0.039c-0.172-0.23-0.672-0.395-1.035-0.352
c-0.867-0.004,0.848-1.793,2.371-2.535C148.82,97.582,149.094,97.512,149.32,97.504L149.32,97.504z M87.321,99.016l4.851,2.488
l0.043,2.047l-4.488-2.434L87.321,99.016z M103.762,99.293l-0.262,2.25l-5.051,2.629l0.027-2.074L103.762,99.293z M151.027,100.133
c0.168-0.016,0.297,0.047,0.418,0.184c0.691,0.766-0.617,3.09-2.102,3.785c-0.57,0.27-0.922,0.227-1.395-0.184
c-0.23-0.199-0.57-0.461-0.766-0.438c-0.852,0.086-0.383-0.867,0.301-0.922c0.191-0.016,1.379-0.906,2.277-1.652
C150.367,100.402,150.746,100.156,151.027,100.133L151.027,100.133z M145.895,101.035c1.074-0.023,1.461,0.867,0.191,1.258
c-0.902,0.277-1.406,0.078-1.406-0.527C144.871,101.141,145.418,101.066,145.895,101.035L145.895,101.035z M87.989,102.242
l4.3,2.156l0.02,2.211l-3.953-2.059L87.989,102.242z M103.387,102.547l-0.301,2.09l-4.637,2.383l0.012-1.73L103.387,102.547z
M151.961,103.426c0.293,0.016,0.383,0.344,0.379,0.922c-0.004,0.961-0.641,1.848-1.594,2.281c-0.699,0.32-1.195,0.293-1.543-0.078
c-0.156-0.172-0.379-0.309-0.492-0.313c-1.496-0.059-1.254-0.445,0.176-1.047c0.508-0.211,1.496-0.895,1.965-1.23
C151.383,103.582,151.734,103.41,151.961,103.426L151.961,103.426z M146.469,104.105c0.734,0.004,1.383,0.523,0.977,0.855
c-0.316,0.262-1.5,0.387-1.734,0.152C145.266,104.664,145.66,104.105,146.469,104.105L146.469,104.105z M88.699,105.594l3.668,1.977
l-0.02,2.105l-3.504-1.98L88.699,105.594z M102.77,105.754l-0.086,2.156l-4.211,2.074l-0.027-2.051L102.77,105.754z
M148.074,106.648c0.715,0.051,0.625,0.742,0.047,1.074c-0.43,0.301-0.984,0.145-1.215-0.207
C146.395,106.543,147.559,106.66,148.074,106.648L148.074,106.648z M149.504,108.859c0.117,0.238,0.055,0.664-0.18,0.797
c-0.313,0.133-1.125-0.004-1.25-0.242c-0.102-0.191-0.078-0.293,0.121-0.492C148.527,108.66,149.27,108.465,149.504,108.859
L149.504,108.859z M89.231,108.898l3.132,1.711l-0.02,2.066l-2.879-1.672L89.231,108.898z M102.258,108.953l-0.156,1.988
l-3.645,1.809l0.051-1.941L102.258,108.953z M64.102,110.207c0.781,0.008,1.383,0.527,0.922,1.418
c-0.285,0.555-0.5,0.758-1.75,1.641c-0.512,0.359-0.953,0.688-0.989,0.73c-0.035,0.043-0.359,0.27-0.574,0.418
c-1.117,0.773-0.73-0.844,0.668-3.23C62.778,110.5,63.492,110.199,64.102,110.207L64.102,110.207z M101.98,111.977l-0.289,2.188
l-3.262,1.668v-2.109L101.98,111.977z M89.723,112.184l2.637,1.305l0.039,2.129l-2.395-1.254L89.723,112.184z M121.379,112.348
c0.086-0.004,0.16,0.027,0.215,0.102c0.215,0.301,0.25,1.605,0.039,2.344c-0.371,0.871-1.086-1.324-1.008-1.879
C120.777,112.66,121.125,112.359,121.379,112.348L121.379,112.348z M65.985,112.746c1.066-0.02,1.836,0.707,1.476,1.785
c-0.418,1.043-2.824,1.699-3.906,2.418c-0.711,0.352-0.883-0.031-0.664-0.645c0.101-0.285,0.18-0.508-0.363-0.586
c-1.313-0.195-0.512-0.832,1.898-2.445C64.953,112.918,65.5,112.754,65.985,112.746L65.985,112.746z M118.836,113.426
c0.375-0.004,0.844,0.219,1.324,0.738c0.828,0.902,1.426,2.793,0.973,3.285c-0.344-0.039-0.516,0.469-0.535,0.676
c-0.051,0.598-1.141-0.492-2.168-2.207C117.602,114.535,118.004,113.434,118.836,113.426L118.836,113.426z M74.449,113.746
c3.247-0.023,9.45,0.648,18.04,6.023c1.094,0.684,2.188,1.441,3.426,2.051c3.258,1.758,5.945,2.949,10.145,3.73l-0.117,2.172
c-0.039,0.688,1.09,4.655,0.57,6.891c-0.77-0.016,0.746,0.656,0.746,0.656l0.984,2.02c0,0-5.152-0.043-7.496-0.504
c-3.773-0.614-10.665-3.813-13.992-6.332c-3.457-2.535-8.683-4.645-13.16-5.461l-0.063-1.867c0,0-0.445-6.398-0.8-7.277l-0.825-2.02
C72.11,113.906,72.973,113.758,74.449,113.746L74.449,113.746z M101.551,115.148l-0.25,2.145l-2.859,1.344v-1.84L101.551,115.148z
M115.797,115.246c0.801,0,2.012,0.938,3.395,2.809c0.313,0.422,0.555,0.785,0.598,1.039c0.043,0.234-0.102,0.367-0.332,0.34
c-0.543-0.102-0.742-0.297-0.895,0.379c-0.039,0.168,0.059,0.473-0.129,0.418c-0.969-0.285-3.746-3.086-3.574-3.98
C114.988,115.578,115.32,115.242,115.797,115.246L115.797,115.246z M90.34,115.387l2.086,1.109l0.09,2.117l-1.852-0.801
L90.34,115.387z M67.942,116.031c0.64-0.02,1.039,0.23,1.242,0.727c0.488,1.199-0.379,1.918-2.957,2.457
c-2.238,0.535-2.192,0.566-1.879-0.266c0.207-0.551-0.484-0.609-0.871-0.758c-0.653-0.246-0.117-0.324,1.762-1.258
C66.418,116.344,67.301,116.051,67.942,116.031L67.942,116.031z M60.492,116.598c0.063-0.008,0.137,0.055,0.25,0.191
c3.254,3.945,2.418,9.691-1.703,12.527c-0.468,0.312-0.484,0.022-0.433-0.59l0.082-1.172c0.019-0.234,4.734-3.125,1.25-9.563
l0.293-0.91C60.321,116.793,60.383,116.605,60.492,116.598L60.492,116.598z M113.676,117.82c1.285,0.008,4.891,3.277,3.355,3.395
c-0.18,0.016-0.117,0.25-0.121,0.398c0,0.148-0.008,0.434-0.047,0.539c-0.113,0.285-0.531,0.23-1.18-0.152
c-1.641-0.973-2.016-1.281-2.582-1.82C111.984,119.125,112.301,117.816,113.676,117.82L113.676,117.82z M100.973,118.383
l-0.023,1.766l-2.57,1.246l0.016-1.598L100.973,118.383z M68.406,119.652c1.731-0.059,2.704,1.664,0.977,2.57
c-0.691,0.359-2.965,0.105-4.023,0.016c-1.192-0.105-0.489-0.461-0.422-0.566c0.164-0.27,0.289-0.313-0.332-0.684
c-0.496-0.52-0.778-0.648,0.457-0.809c0.601-0.078,2.058-0.219,2.562-0.387C67.899,119.707,68.16,119.66,68.406,119.652
L68.406,119.652z M121.055,120.07c0.125-0.004,0.113,0.207,0.059,0.758l-0.082,1.18c-0.789,0.125-4.703,4.988-1.523,10.648
l-0.266,1.004c-0.121,0.496-0.16,0.57-0.574,0.261c-2.383-1.644-3.156-10.026,1.781-13.495
C120.77,120.215,120.953,120.078,121.055,120.07L121.055,120.07z M111.762,121.055c0.461,0.008,1.023,0.137,1.668,0.43
c1.504,0.688,2.5,1.238,2.734,1.605c0.145,0.223-0.082,0.414-0.387,0.5c-0.363,0.105-0.41,0.258-0.309,0.688
c-0.004,0.25,0.063,0.527-0.254,0.543c-0.578,0.031-1.875-0.375-3.184-1.082C109.816,122.551,110.117,121.023,111.762,121.055
L111.762,121.055z M100.52,121.082v2.145l-2.113-0.973L100.52,121.082z M65.129,122.926c0.223,0.008,0.52,0.047,0.91,0.109
c0.477,0.074,1.215,0.148,1.594,0.141c2.406-0.039,3.402,1.637,1.418,2.488c-0.543,0.23-0.77,0.207-2.254-0.227
c-0.711-0.207-1.582-0.422-1.937-0.523c-0.715-0.203-0.961-0.426-0.489-0.59c0.442-0.148,0.477-0.453,0.203-0.859
C64.508,123.063,64.637,122.914,65.129,122.926L65.129,122.926z M121.043,122.926c-0.344,3.325-0.621,5.913-1.121,9.168
C119.555,131.949,116.957,125.82,121.043,122.926L121.043,122.926z M110.918,124.52c0.781,0.012,2.105,0.313,3.391,0.82
c1.121,0.414,1.266,0.523,0.488,0.855c-0.469,0.199-0.41,0.379-0.273,0.683c0.215,0.231,0.617,0.692-0.02,0.599
c-0.754,0.059-2.742-0.056-3.348-0.16c-1.813-0.32-2.309-1.953-0.82-2.715C110.457,124.543,110.656,124.512,110.918,124.52
L110.918,124.52z M64.328,125.359c0.168-0.004,0.473,0.09,1.032,0.266c3.257,1.027,4.578,2.27,2.984,3.477
c-0.465,0.352-1.184,0.203-2.535-0.556c-1.387-0.772-2.082-1.194-2.34-1.472c-0.258-0.27-0.117-0.582,0.277-0.56
c0.539,0.039,0.461-0.233,0.414-0.687C64.133,125.508,64.114,125.359,64.328,125.359L64.328,125.359z M73.114,125.66l2.496,0.562
l-6.235,27.263c0.031,0.324-2.043,0.219-4.758,1.351c-0.136,0.165-0.093,0.333-0.093,0.333l4.312-0.742l-0.375,1.949l-3.914,0.734
l-0.09,0.582l4.485-0.81c0,0-0.157,1.864-0.313,2.582c0,0,8.317-1.202,11.465-1.519c0.457-0.063,1.344-0.047,1.344-0.047
s0.105-21.517,0.09-23.859c-0.02-2.536,0.003-5.566,0.003-5.566l4.313,2.438l0.715,27.113l13.512,2.195
c-1.043-5.074,28.66,13.77,28.66,13.77l-4.996,2.621c-0.727,0.559-7.156,4.09-7.156,4.09l-0.59,0.847
c10.309-4.815,25.98-14.827,37.297-25.89l0.25,71.695l-54.164,0.215c0,0-0.004-3.453-0.004-6.707l0.031-5.996
c-0.219-3.844,0.449-8.078-0.73-11.301l-0.23-3.379c3.34-3.884,5.145-8.777,6.734-13.781c0,0,1.609-0.621,2.391-0.899l0.27-0.979
c-1.555,0.793-5.117,2.121-5.117,2.121c0.383-0.301-7.578-3.652-12.492-4.438c-8.113-1.301-19.027,0.039-27.731,4.352
c-0.425,0.301-0.605,0.293-0.5-0.095c2.02-7.347-2.234-14.722-9.703-16.858c-1.586-0.453-2.883-0.453-2.883-0.453l0.137,0.644
c12.203,1.375,15.067,14.274,10.367,20.267c-1.23,1.977-1.418,2.555,1.168,2.487c10.45-0.086,14.082,11.591,9.321,18.056
c0.011-0.051,0.386,0.75,0.386,0.75c2.969-3.922,3.762-11.371-1.504-16.605c3.891-4.336,11.364-11.281,17.825-10.875
c2.351,0.148,4.671,2.996,6.218,5.266c3.27,4.813,4.113,11.53,4.344,15.359c0.059,1.003,0.191,1.734,0.191,2.262
c0.008,1.534-0.285,1.352-1.277,1.094c-1.246-0.32-2.949-0.332-4.211,0.051c-2.027,0.617-1.699,0.265,0.105-1.969
c1.063-1.316,1.203-1.724,0.766-1.81c-0.137-0.026-0.586,0.427-1.176,1.332c-1.778,2.735-1.641,1.614-0.355-2.655
c0.836-2.773,0.754-2.966-1.523-4.691c-0.754-0.57-1.68-1.125-1.762-1.297c-0.43-0.91-0.609,0.229-0.223,0.979
c0.375,0.735-0.422,1.071-1.82,0.313c-3.289-1.824-5.434,1.867-2.496,3.469c0.691,0.375,1.078,0.066,0.543-0.43
c-1.805-1.668-0.551-3.078,1.894-1.599c1.415,0.856,1.954,0.582,2.426-0.487c0.262-0.438,2.457,1.133,2.453,1.746
c0,0.398-0.254,1.68-0.504,2.539c-0.704,2.418-0.895,3.172-1.199,4.741c-0.551,2.845-0.535,4.306,0.055,5.556
c1.324,2.801,4.66,4.125,7.551,2.996c0.422-0.164,1.227-0.302,1.227-0.302l0.035,2.06c-5.703,2.16-9.824,8.897-9.636,9.129
l-2.035,0.004c-2.7-5.36-7.45-9.395-13.489-11.625c0,0-0.726-1.211-0.074,0.996c0.039,0.887,0.969,2.133,1.723,2.57
c2.871,1.457,6.664,4.043,8.758,8.055l-1.442,0.023c-1.754-2.676-4.031-4.484-6.191-6.063c-0.508-0.106,0.371,4.855,2.445,6.387
l-37.18,0.648c2.539-9.926,3.024-20.941-2.918-35.379c4.926,0.301,9.301-0.754,13.305-2.504l-0.363-1.027
c-4.563,2.176-9.571,2.605-14.586,2.094c3.805,7.039,7.133,21.793,3.894,35.984l-13.648,0.07l-0.188-77.352
c0,0,0.532,0.488,0.7,0.656c0.429,0.43,0.718,1.07,0.839,1.535c0.157,0.598,0.325,0.633,1.172,1.27
c0.411,0.305,0.645,0.574,0.645,0.73c-0.024,0.176-0.031,0.719,0.246,1.055c0.75,0.902,0.617,1.484,0.055,2.07
c-2.618,2.723-4.254,8.441-2.934,14.477c3.106-2.09,6.301-7.551,6.402-7.559l0.297,7.457c-0.273-0.063-2.168,1.059-2.191,2.526
c-0.856,0.254-1.902-0.171-2.774-0.429l0.629,2.199c-3.187,1.27-3.355,5.625,0.332,6.871c0,0-0.336,1.703-0.625,2.617l2.395-0.367
c1.394,4.16,6.738,2.828,6.711-0.074c0,0,1.629,0.613,2.242,0.883l-0.598-2.832c6.075-3.032,1.532-7.004,0.141-6.945
c0.02-0.794,0.383-1.044,0.719-1.966l-2.457,0.157c-0.449-1.465-2.098-2.664-2.16-2.504l-0.34-10.676
c1.855,1.621,3.683,3.281,6.14,4.565c2.274,1.188,2.504,0.927,2.168-1.128c-0.152-0.926-0.14-1.531-0.14-1.531
c0.851,0.199,3,2.991,2.898,4.366c0.785,1.024,1.496-1.729-0.527-4.073c5.387-5.645,9.492-14.996,10.371-21.371l7.164-2.852
l0.082-0.934C69.227,135.339,71.77,130.796,73.114,125.66L73.114,125.66z M79.074,127.328l1.649,0.734l-1.871,0.93L79.074,127.328z
M63.188,127.777c0.316,0.144,0.797,0.461,1.461,0.949c1.402,1.026,2.218,1.733,2.246,2.355c0.011,0.309-0.215,0.707-0.567,0.895
c-0.847,0.449-1.656,0.082-3.488-1.793c-0.59-0.605-0.988-0.927-1.168-1.195c-0.207-0.317-0.055-0.61,0.293-0.485
C63.453,129.175,62.164,127.313,63.188,127.777L63.188,127.777z M113.684,128.164c0.305,0,0.547,0.007,0.695,0.035
c0.398,0.082,0.512,0.304,0.27,0.527c-0.383,0.34-0.273,0.684,0.109,0.862c0.266,0.13,0.156,0.396-0.16,0.575
c-0.188,0.109-0.473,0.223-0.859,0.343c-2.25,0.703-3.91,0.496-4.344-0.554c-0.496-1.203,0.457-1.789,3.207-1.785
C113.008,128.168,113.379,128.16,113.684,128.164L113.684,128.164z M80.926,128.878l-0.02,1.614l-2.335,1.121l0.253-1.637
L80.926,128.878z M61.078,129.382c0.207,0.013,0.543,0.328,1.032,0.927c2.25,2.758,2.554,3.289,1.816,4.023
c-0.871,0.867-2.098,0.027-3.418-2.391c-0.18-0.324-0.394-0.742-0.527-0.896c-0.485-0.565-0.27-0.741,0.343-0.694
c0.336,0.023,0.497-0.095,0.504-0.441C60.84,129.546,60.922,129.375,61.078,129.382L61.078,129.382z M115.047,130.777
c0.41,0,0.379,0.141,0.195,0.617c-0.141,0.422-0.371,0.559,0.227,0.824c0.098,0.047,0.316,0.32,0.117,0.438
c-0.469,0.316-2.566,1.273-3.328,1.523c-1.477,0.491-2.383-0.711-1.52-1.906c0.363-0.5,2.859-1.406,4.105-1.488
C114.922,130.781,114.988,130.777,115.047,130.777L115.047,130.777z M59.903,132.378c1.496,2.231,1.683,3.274,0.695,3.927
c-0.625,0.473-1.953-0.211-2.258-1.652c-0.23-1.102-0.34-2.258,0.02-3.172C58.906,130.094,59.746,132.145,59.903,132.378
L59.903,132.378z M80.914,131.453l0.012,1.746l-2.84,1.426l0.262-1.926L80.914,131.453z M86.699,131.523l2.672,1.727l0.153,1.488
l-2.758-1.516L86.699,131.523z M116.484,133.238c0.07,0.004,0.109,0.035,0.109,0.117c-0.004,0.207-0.055,0.938,0.344,1.004
c0.785,0.129,0.609,0.375-0.078,0.965c-0.746,0.66-1.426,1.441-2.324,1.922c-2.316,0.855-3.043-1.59-0.852-2.864
c0.758-0.437,1.441-0.741,1.953-0.882C116.02,133.391,116.328,133.238,116.484,133.238L116.484,133.238z M86.774,134.137
l3.093,1.823l0.106,1.833l-3.074-1.563L86.774,134.137z M80.805,134.309l0.012,1.594l-3.02,1.729l0.25-1.784L80.805,134.309z
M93.309,135.609c0.855,0.397,11.832,3.449,15.465,2.406c0,0,3.113,4.487,5.414,6.094c-3.563,5.226-15.629,10.354-15.629,10.354
L93.309,135.609z M118.016,135.723c0.203-0.009,0.25,0.191,0.25,0.566c-0.051,1.082-1.832,5.078-3.254,3.031
c-0.391-0.762,0.008-1.551,1.254-2.492C117.254,136.082,117.762,135.73,118.016,135.723L118.016,135.723z M58.246,136.352
c0.27,0.293,0.149,1.203-0.437,1.145c-0.168-0.02-0.192-0.941-0.078-1.441C57.899,135.973,58.153,136.253,58.246,136.352
L58.246,136.352z M80.844,136.859l-0.02,2.022l-3.582,1.95l0.383-2.254L80.844,136.859z M86.77,137.145l3.547,1.891l0.417,2.238
l-3.934-2.039L86.77,137.145z M80.836,139.898v2.039l-4.027,2.065l0.273-2.015L80.836,139.898z M86.84,140.074l3.965,2.258
l0.523,2.125l-4.434-2.286L86.84,140.074z M30.59,140.141c0.652-0.009,0.887,0.684,0.395,1.125c-0.325,0.301-1.246,0.237-1.329,0
C29.242,140.863,29.813,140.152,30.59,140.141L30.59,140.141z M31.805,142.3c0.094-0.007,0.187,0,0.266,0.021
c0.468,0.121,0.761,0.797,0.472,1.183c-0.527,0.711-1.926,0.22-1.722-0.683C30.875,142.582,31.387,142.328,31.805,142.3
L31.805,142.3z M80.766,142.984v1.824l-4.379,2.313l0.277-2.043L80.766,142.984z M86.961,143.238l4.52,2.426l0.348,2.046
l-4.859-2.526L86.961,143.238z M29.656,143.293c0.219-0.012,0.395,0.046,0.489,0.21c0.082,0.146,0.183,0.521,0.496,0.7
c0.586,0.34,0.644,0.414-0.465,0.898c-0.469,0.207-1.391,0.832-1.711,1.047c-0.984,0.664-1.387,0.44-1.457-0.34
C26.918,144.82,28.715,143.344,29.656,143.293L29.656,143.293z M33.047,144.785c0.231-0.012,0.453,0.031,0.609,0.136
c0.379,0.247,0.399,0.747,0.036,0.997c-0.828,0.531-2.121-0.195-1.434-0.829C32.453,144.914,32.754,144.805,33.047,144.785
L33.047,144.785z M80.758,145.777l0.023,2.367l-4.882,2.578l0.32-2.402L80.758,145.777z M30.633,146.055
c0.32-0.02,0.625,0.055,0.895,0.254c0.289,0.367,0.636,0.477,0.839,0.484c0.836,0.031,0.571,0.339-0.308,0.742
c-1.211,0.55-2.063,1.254-2.938,2.063c-0.906,0.844-0.972,1.023-1.269,0.68C26.742,148.992,28.903,146.152,30.633,146.055
L30.633,146.055z M87.035,146.082l5.122,2.8l0.438,2.364l-5.559-3.094V146.082z M33.996,147.75c0.207-0.004,0.403,0.043,0.555,0.168
c0.363,0.296,0.152,0.871-0.352,1.128c-0.425,0.22-1.132,0.125-1.335-0.077C32.379,148.484,33.258,147.766,33.996,147.75
L33.996,147.75z M31.524,148.941c0.312-0.031,0.593,0.367,0.847,0.797c0.086,0.105,0.438,0.058,0.688,0.058
c0.961,0.009,1.094,0.414,0.164,0.931c-0.274,0.151-1.164,0.836-1.762,1.34c-1.605,1.535-2.476,1.176-2.273-0.396
C29.387,150.168,30.692,149.02,31.524,148.941L31.524,148.941z M87.035,149.085l5.649,3.099l0.551,2.547l-6.2-3.34V149.085z
M80.801,149.132l-0.023,2.345l-5.317,2.813l0.414-2.379L80.801,149.132z M87.121,152.117l6.325,3.832l0.23,2.492l-6.555-3.777
V152.117z M80.797,152.535l0.012,2.3l-5.879,2.981l0.297-2.172L80.797,152.535z M33.071,154.055c0.152-0.004,0.293,0.02,0.41,0.073
c0.687,0.317,0.508,0.864-0.528,1.431c-1.058,0.573-1.418,0.477-1.644-0.168C31.117,154.844,32.262,154.074,33.071,154.055
L33.071,154.055z M99.125,154.367c11,2.52,21.77,7.961,32.223,17.468l-2.184,1.543c0,0-9.164-10.444-29.523-16.573L99.125,154.367z
M87.184,155.46l3.055,1.802l0.003,0.457l-3.058-0.25V155.46z M35.203,155.48c0.231,0.012,0.434,0.147,1.524,0.668
c4.379,3.16,6.133,5.065,7.222,8.531c0.649,2.077,0.637,1.991-1.503,0.863c-2.016-1.066-4.778-2.844-6.559-5.137
c-0.293,5.398,0.336,12.109,0.336,12.109c2.734,1.352,1.851,4.859,1.844,4.84c7.039-1.922,5.496,7.367,0.25,5.363
c1.25,6.969-6.731,6.402-5.911,0.43c-6.351-0.246-5.23-7.168,0.043-6.211c-0.546-2.137,0.207-3.586,2.153-4.5l-0.297-9.125
c0,0-5.176,7.43-6.043,7.313c-0.508-0.066-1.27-0.922,0.016-7.434c0.671-3.396,4.269-7.523,6.281-7.656
C34.914,155.512,35.063,155.473,35.203,155.48L35.203,155.48z M40.266,155.551l0.926,0.637l-0.875,1.559l-0.965-0.7L40.266,155.551z
M80.766,155.996l-0.031,1.367l-2.848,0.172L80.766,155.996z M49.508,171.438c-0.43,0.012,0.723,0.281,1.449,0.934
c6.707,1.039,10.813,9.246,7.707,15.188c-0.375,0.266,0.203,1.559,0.582,1.073c3.274-4.636,0.836-16.038-8.711-17.125
C49.969,171.46,49.649,171.434,49.508,171.438L49.508,171.438z M52.043,174.555c-0.539,1.48-0.683,1.832,0.699,1.23
c2.442,0.902,5.079,4.879,4.235,8.871c-0.27,0.465,0.203-0.305,0.523,1.012C58.707,182.742,57.504,176.438,52.043,174.555
L52.043,174.555z M83.051,181.996c6.867-0.02,13.664,1.48,19.07,4.586c-1.836,1.023-7.699,2.449-7.699,2.449
c-3.297-3.699-4.976-7.399-10.933-5.508c-6.243,1.613-11.864,7.012-15.024,10.598c-3.172-1.891-4.891-2.352-7.699-2.508
c-0.164-0.004-0.406,0.711-0.207-0.442c0.805-1.237,1.359-2.644,1.898-4.062C68.348,183.762,75.742,182.016,83.051,181.996
L83.051,181.996z M104.398,186.742c-1.367,4.422-3.133,8.781-6.129,12.621l-0.371-1.918c2.816-4.328,4.152-8.262,4.754-9.985
L104.398,186.742z M101.742,187.891c0.176,0.28-2.734,7.207-4.168,8.465l-0.563-1.785c1.172-1.77,2.902-6.027,2.852-6.07
L101.742,187.891z M84.012,187.898c-0.09,0.008-0.125,0.086-0.125,0.262c0,0.633,0.66,1.136,1.871,1.41
c1.629,0.367,3.918-0.195,3.922-0.969c0-0.445-0.32-0.477-1.254-0.047c-1.172,0.543-2.207,0.438-3.738-0.371
C84.34,187.996,84.129,187.887,84.012,187.898L84.012,187.898z M98.547,189.003c-0.453,1.677-1.129,2.915-1.988,4.196l-0.277-0.883
c0.594-0.961,0.988-2.063,1.492-3.129L98.547,189.003z M96.84,189.546c-0.219,0.582-0.465,1.259-0.969,1.778l-0.652-1.387
L96.84,189.546z M86.508,190.832c-1.105,0.02-2.199,0.375-2.297,0.964c-0.043,0.282,0.379,0.173,2.438-0.077
c1.086-0.134,1.601,0.512,2.597,0.441c0.508-0.059,0.032-0.528-0.125-0.66C88.571,191.027,87.485,190.813,86.508,190.832
L86.508,190.832z M81.789,192.113c-0.113,0.019,0.012,0.305,0.426,1.023c0.227,0.391,0.281,1.184,0.324,1.676
c-0.054,1.223-0.05,1.188,0.555,0.477c0.379-0.375,1.121-0.293,2.293,0.023c0.754,0.203,0.937,0.276,1.461-0.051
c0.609-0.38,0.75-0.188,1.273-0.082c0.504,0.102,0.965-0.102,1.52-0.254c0.676-0.188,0.805-0.145,1.395,0
c0.898,0.426,0.766,0.387,0.844-1.137c0.074-1.504-0.008-1.609-0.875-1.102c-0.844,0.488-1.422,0.711-2.715,0.262
c-1.406-0.492-1.605-0.367-2.601-0.067c-1.207,0.364-1.758,0.489-2.719-0.101C82.34,192.395,81.914,192.085,81.789,192.113
L81.789,192.113z M62.129,194.378l0.539,0.875c4.863,1.743,8.16,5.72,6.215,12.418l0.461,0.739
C71.778,201.66,69,196.078,62.129,194.378L62.129,194.378z M63.633,197.234l0.664,1.359c3.66,1.77,3.442,6.641,3.234,6.445
l0.575,1.27C69.024,203.156,67.356,198.503,63.633,197.234L63.633,197.234z M78.922,204.496c-0.144,0.004-0.238,0.05-0.277,0.152
c-0.094,0.242,0.187,0.387,1.859,1.543c1.438,0.996,2.547,1.729,2.461,1.875c-0.055,0.094-0.949-0.125-1.586-0.313
c-1.672-0.496-4.133,0.103-5.515,1.075c-0.352,0.234-0.934-0.023-1.442-0.153c-0.203-0.058-0.652-0.112-0.871-0.054
c-1.043,0.273-0.035,1.27,2.523,2.566c3.137,1.586,4.836,1.73,6.743,0.77c1.265-0.657,1.718-0.168,0.336,0.578
c-2.418,1.304-4.735,0.898-8.555-1.727c-1.77-1.22-2.477-1.016-0.953,0.145c2.668,2.09,7.804,4.632,10.961,1.523
c0.121-0.043,0.406-0.023,0.547-0.023c0.656,0.004,0.683-0.203,0-1.285c-0.414-0.652-1.247-1.34-0.235-2.141
c0.77-0.606,0.715-0.891-0.215-1.172c-0.246-0.066-0.218,0.094-0.589-0.203C81.883,205.852,79.699,204.492,78.922,204.496
L78.922,204.496z M79.887,208.055c0.937,0.023,1.883,0.746,2.18,2.043c0.023,0.116,0.047,0.234,0.062,0.359l-0.797,0.031
c-0.66-2.645-2.656-1.77-2.855-0.219l-0.719-0.099C78.024,208.699,78.949,208.027,79.887,208.055L79.887,208.055z M96.426,210.313
l-0.531,0.078c-0.348-0.977-1.922-2.285-2.672,0.09l-0.672-0.027C93.02,207.238,95.938,207.738,96.426,210.313L96.426,210.313z
M92.352,208.977c0.219,0.309-0.164,0.828-0.387,1.066c-0.211,0.227-0.684,0.035-0.879-0.191c-0.176-0.22-0.047-0.66,0.242-0.809
C91.625,208.891,92.133,208.753,92.352,208.977L92.352,208.977z M83.004,209.07c0.223,0.5-0.398,0.871-0.476,0.703
c-0.137-0.047-0.301-0.871-0.223-0.926C82.508,208.844,82.922,208.91,83.004,209.07L83.004,209.07z M97.055,208.988
c0.336,0.027,0.703,0.188,0.77,0.566c0.004,0.254-0.285,0.527-0.617,0.539c-0.148,0.008-0.707-0.402-0.602-0.992
C96.723,208.895,96.859,208.973,97.055,208.988L97.055,208.988z M77.524,209.148c0.117,0.18-0.106,0.719-0.157,0.793
c-0.023,0.039-0.742,0.008-0.726-0.047c0.015-0.051-0.067-0.457,0.109-0.754C76.949,209.012,77.379,208.945,77.524,209.148
L77.524,209.148z M90.551,210.891c0.094,0,0.211,0.039,0.352,0.125c2.008,1.309,4.586,1.891,6.445,0.957
c0.414-0.211,0.688-0.199,0.688,0.004c-0.004,0.219-0.461,0.672-1.32,0.926c-1.914,0.578-5.074-0.184-6.168-1.356
C90.227,211.203,90.274,210.882,90.551,210.891L90.551,210.891z M72.957,212.257c-0.191-0.007-0.254,0.106-0.215,0.341
c0.125,0.777,5.493,3.855,7.735,4.27c1.844,0.343,3.273,0.191,4.402-0.465c2.735-1.59,2.031-3.738-0.644-2.117
c-1.801,1.086-6.36,0.586-9.071-0.98C73.961,212.609,73.278,212.266,72.957,212.257L72.957,212.257z M97.133,213.382
c0.676-0.284,0.969-0.382,1.117-0.257c0.691,0.574-0.441,1.477-2.5,1.828c-1.648,0.27-2.641,0.32-4.523-1.071
c-1.457-1.077-0.77-1.597,0.066-1.108C93.52,214.074,95.172,214.113,97.133,213.382L97.133,213.382z M73.434,216.75
c4.75,1.699,10.148,5.8,12.547,10.777l-1.465-0.012c-1.629-2.841-4.856-6.453-10.172-8.992
C73.875,218.137,73.629,217.445,73.434,216.75L73.434,216.75z M98.367,219.078v1.559c-2.934,1.477-5.395,3.754-7.25,6.891
l-1.66-0.024C91.359,224.137,94.211,220.984,98.367,219.078L98.367,219.078z M98.367,221.453v1.91
c-1.855,1.09-3.406,2.523-4.488,4.164h-1.965C93.488,224.867,95.648,222.746,98.367,221.453L98.367,221.453z M76.633,222.921
c1.414,0.813,3.754,2.978,4.606,4.646l-0.758,0.035c-0.77-0.98-2-2.105-3-2.992C76.84,223.855,76.633,222.921,76.633,222.921
L76.633,222.921z M98.367,224.145c0.023,0,0.023,0.016,0,0.047v1.519c0,0.04-1.41,0.961-2.008,1.817h-1.598
C95.859,225.546,98.137,224.141,98.367,224.145L98.367,224.145z M98.371,226.668l-0.004,0.859l-1.004,0.004
C97.43,227.434,97.988,226.824,98.371,226.668L98.371,226.668z M78.821,226.887c0.3,0.156,0.531,0.719,0.531,0.719l-0.27,0.031
L78.821,226.887z M78.821,226.887"/>
<path fill="#E2CF00" d="M38.242,193.27c3.301,0.09,10.27-1.145,10.157-1.02c0,0,21.617,35.918,20.738,35.563
c-0.281,0.444-27.691,0.43-27.691,0.43C40.852,228.246,47.262,214.934,38.242,193.27L38.242,193.27z M48.047,167.964
c10.531-8.726,21.567-8.793,33.414-9.991l0.274-29.664l4.285,2.566l0.094,27.18c15.636,1.172,29.132,6.898,40.722,16.926
c0.148,0.215-16.77,9.262-24.18,11.656c-5.75-4.223-20.925-6.884-30.993-3.641c-2.761,0.895-6.156,2.32-9.457,3.375
c2.391-14.32-8.793-16.434-12.722-17.094C48.989,169.195,48.403,168.132,48.047,167.964L48.047,167.964z M34.524,172.594
c0.183-3.051-0.016-6.105-0.243-9.223c-0.058-0.715-6.16,9.281-6.5,6.855c-0.855-6.066,2.161-13.781,6.895-14.73
c0.473-0.637,9.852,5.168,9.422,10.184c-0.141,1.633-8.367-5.52-8.402-5.095c-0.192,0.84,0.246,12.032,0.5,12.013
c2.367,1.332,1.851,3.043,2.109,4.461c1.617-0.434,4.285,0.109,4.621,2.073c-0.121,4.056-4.609,3.813-4.609,3.813
c0.609,1.973-0.211,5.055-3.078,4.851c-1.993,0.099-3.575-2.944-2.758-4.722c-0.262,0.438-5.16-0.664-4.418-3.567
c0.39-1.511,1.133-3.187,4.343-2.468C32.176,175.203,32.629,173.293,34.524,172.594L34.524,172.594z M43.449,137.301
c-0.445-0.18-16.597-1.005-16.597-1.005l0.844-39.323c8.246-18.93,39.277-10.078,34.339-6.051
C47.207,100.633,44.949,118.348,43.449,137.301L43.449,137.301z M73.239,121.145l-0.493-4.367
c-1.269-2.711,33.02,13.121,33.407,13.457l0.996,4.66C107.348,136.941,85.34,126.602,73.239,121.145L73.239,121.145z
M135.605,113.434c-0.504,17.645-3.227,29.598-13.48,44.016c-0.285,0.472-3.184,1.676-3.406,2.082
c1.465,2.316,9.832,5.715,13.695,7.543l20.102-11.969c0.234,0.016-0.688-41.938-0.688-41.938L135.605,113.434z M143.215,94.27
c-2.699-0.41-8.984-6.926-7.684-8.898c0.039-1.477,7.82,4.184,8.629,5.707c-0.398-0.453-0.453-13.828-0.582-13.293
c-0.293,0.156-2.375-1.332-1.832-4.121c-3.621,0.504-4.676-1.773-4.566-2.867c0.227-2.27,2.613-2.938,4.141-3.246
c-0.504-3.121,1.527-4.141,2.379-4.277c1.422-0.227,3.863,0.531,3.27,4.539c1.707-0.266,4.816-0.273,4.992,2.813
c0.152,2.727-1.738,3.473-4.465,2.754c0.473,3.137-0.82,4.004-2.633,4.633c0.117,1.313,0.609,10.082,0.609,10.082
s5.449-8.344,5.84-7.625C152.402,83,150.418,96.387,143.215,94.27L143.215,94.27z M117.965,63.488
c-2.668,7.719,4.742,19.902,10.641,18.125c1.281-0.203,3.734,0.488,2.887,1.176c-10.039,8.133-33.469,9.82-33.477,9.469
c0.246,9.98-0.215,19.965-0.453,29.945l-4.273-2.574c-0.137-9.105-0.371-18.328-0.578-27.43
c-15.012-1.957-28.508-6.801-39.168-17.098c7.078-5.242,15.539-8.52,23.66-11.832C87.434,68.582,101.676,71.652,117.965,63.488
L117.965,63.488z M110.555,23.234c-0.469-0.207,1.621-1.758,1.621-1.758s17.441,0.23,26.094,0.113
c-3.152,12.934-0.922,24.523,3.148,35.652c0,0-9.641,0.883-9.871,1.113C131.266,58.637,110.777,23.551,110.555,23.234
L110.555,23.234z M110.555,23.234"/>
<path fill="#D40000" d="M161.227,237.723c-0.281-0.793-0.285-0.891-0.348-8.138c-0.063-7.323-0.031-8.128,0.363-9.647
c0.758-1.895-1.457-1.902-2.859-2.129v-2.996c1.645-0.228,3.629,0.25,4.355,1.215c1.711-1.184,2.816-1.383,4-1.336
c3.977,0.016,5.723,2.473,5.617,7.211c-0.02,0.773,0.121,1.762,0.121,1.762h2.137v3.031h-2.25c0,0,0.367,7.515-0.141,10.172
C170.676,242.781,163.332,243.168,161.227,237.723L161.227,237.723z M169.324,236.656c0.383-0.903,0.324-0.524,0.34-7.422
l-0.012-3.149c-3.148-0.729-5.938-4.507-5.918-4.507c0,0-0.039-0.359-0.066,6.793c-0.031,8.113,0.254,8.582,1.973,9.895
C167.309,239.207,168.68,238.137,169.324,236.656L169.324,236.656z M164.922,218.418c0.961,1.348,2.152,2.727,3.57,3.839
c0.527,0.414,1.273,0.582,1.273,0.582s-0.039-0.913-0.043-1.379C169.703,218.628,167.664,216.402,164.922,218.418L164.922,218.418z
M68.875,227.742l-20.539-35.614l3.445-1.339l22.094,36.863L68.875,227.742z M124.805,222.824
c-7.918-1.246-10.145-11.199-4.328-20.563c2.754-4.539,14.281-21.438,13.605-20.875c-0.363-0.316,8.859,13.082,13.465,19.952
c4.363,7.246,6.688,19.087-4.039,21.263c-4.105,0.832-8.375-1.642-8.566-6.434c-0.023-0.676-0.301-1.223-0.695-1.223
c-0.328,0-0.559,0.469-0.559,0.933C133.574,220.46,129.465,223.585,124.805,222.824L124.805,222.824z M161.926,211.113
c-3.523-1.176-4.156-5.403-1.527-10.238c2.152-3.84,3.277-4.829,5.262-8.645c0.813-1.574,0.902-1.609,1.516-0.531
c1.473,2.438,3.086,5.09,4.406,7.152c3.453,5.383,4.059,9.137,1.844,11.401c-2.012,2.056-6.266,0.86-6.289-1.765
c0-0.125-0.063-0.336-0.133-0.473c-0.164-0.306-0.484-0.102-0.488,0.309C166.5,210.234,163.945,211.785,161.926,211.113
L161.926,211.113z M32.082,180.02l3.297-3.06l2.953,3.418l-3.093,2.668L32.082,180.02z M99.84,160.207l-0.426-2.547
c12.148,2.977,22.094,9.218,29.246,16.02l-1.703,1.245C127.488,174.781,109.695,161.441,99.84,160.207L99.84,160.207z
M64.551,157.699l3.852-0.559l-0.11,2.141l-3.66,0.832L64.551,157.699z M135.672,156.219l-2.098-1.902l1.352-1.789l2.25,1.43
L135.672,156.219z M64.309,138.762c5.219-2.469,9.289-12.429,8.777-13.094l2.844,0.675l-6.566,27.285l-4.946,0.892
C64.399,149.301,64.309,143.977,64.309,138.762L64.309,138.762z M98.637,154.199c-1.77-5.746-5.25-18.739-5.25-18.739
c0.125,0.427,11.313,3.606,15.301,2.446c1.707,2.332,3.578,4.383,5.555,6.262C110.102,148.219,104.957,151.602,98.637,154.199
L98.637,154.199z M145.523,133.289l-1.844-1.637l1.395-2.516l2.605,2.034L145.523,133.289z M119.781,132.148
c-1.605-2.887-1.719-6.145,1.262-9.363L119.781,132.148z M58.571,126.558c-0.129-0.297,0.675-7.132,0.863-7.437
c0.332-0.531,0.98,1.387,1.289,2.852C61.106,123.809,59.035,127.648,58.571,126.558L58.571,126.558z M103.586,124.434
c0,0,4.332-20.07,6.211-27.934l5.285-1.332l-0.715,16.477c-4.344,3.883-7.957,13.137-7.957,13.137L103.586,124.434z M33.348,120.938
c-0.742-0.605-2.207-1.715-1.563-2.254c0.352-0.293,1.7-1.453,2.071-1.316c0.707,0.258,2.09,1.184,1.543,1.871
C34.973,119.773,33.789,121.301,33.348,120.938L33.348,120.938z M71.434,113.273l-5.75-6.723c3.562-4.949,9.469-7.813,15.73-10.063
l4.239,18.859C80.864,113.902,75.696,112.34,71.434,113.273L71.434,113.273z M42.18,96.828c-0.762-0.566,0.422-1.563,1.113-2.23
c0.805-0.781,2.656,1.004,2.133,1.969c-0.324,0.598-1.086,1.961-1.574,1.922C43.567,98.465,42.477,97.047,42.18,96.828L42.18,96.828
z M111.238,90.797l3.699-0.527l-0.277,2.539l-3.914,0.621L111.238,90.797z M51.016,76.539l2.273-1.414
c7.992,7.172,16.821,12.121,26.446,14.934l0.648,3.098C69.528,89.813,59.274,84.742,51.016,76.539L51.016,76.539z M144.398,73.676
l-2.961-2.918l2.668-2.961l3.164,2.734C146.223,72.105,144.398,73.676,144.398,73.676L144.398,73.676z M45.063,68.281
c-3.668-5.664-7.895-11.68-11.219-16.633c-5.512-8.246-7-13.832-5.266-18.891c2.844-8.285,14.985-7.848,15.868,0.57
c0.179,1.719,0.996,1.574,1.214-0.199c1.176-9.363,15.414-8.141,16.27,1.836c0.898,8.473-4.957,15.047-8.191,19.531
C50.867,59.066,47.528,63.418,45.063,68.281L45.063,68.281z M9.977,54.859c-2.403-4.016-8.969-13.09-2.672-15.883
c2.234-0.992,5.09,0.777,5.086,2.668c-0.004,0.855,0.469,0.902,0.578,0.016c0.461-3.711,5.668-3.977,7.332-0.387
c1.422,4.27-1.148,8.164-4.75,13.648c-0.824,1.262-2.734,4.688-2.734,4.688L9.977,54.859z M127.609,59.727l-22.223-37.941h4.172
l21.57,36.453L127.609,59.727z M7.071,26.488H4.809v-3.035h2.262c0,0,0.019-1.629,0.082-4.512c0.14-6.145,0.3-7.098,2.105-8.789
c3.578-3.34,9.57-0.617,9.496,4.406c-0.101,7.09-0.027,13.852-0.238,14.809c-0.371,1.688-0.41,1.781-0.258,2.09
c0.313,0.621,3.02,0.887,3.02,0.711v2.988c-2.067,0.16-2.926-0.031-4.579-1.191c-1.035,0.98-4.175,1.957-6.675,0.805
C8.125,33.891,6.68,31.621,7.071,26.488L7.071,26.488z M14.727,31.781c-1.121-1.598-3.008-3.77-4.793-4.539
c-0.106,1.828,0.051,3.367,0.707,4.191C11.688,32.75,13.371,33.051,14.727,31.781L14.727,31.781z M15.66,14.266
c-0.832-2.32-2.972-3.102-4.539-1.656c-0.976,0.906-1.132,1.852-1.152,7.008c-0.016,3.184-0.016,4.52-0.016,4.52
c3.047,0.969,5.891,4.453,5.864,4.406l0.078-9.617C15.949,17.367,15.875,15.805,15.66,14.266L15.66,14.266z M15.66,14.266"/>
<path fill="#0E0C07" d="M105.645,21.051l-5.297,0.02l30.047,60.426c0,0-0.813,0.137-2.406-0.281
c-7.219-1.895-11.664-9.516-10.031-16.992c0.164-0.582,0.207-1.082,0.207-1.082c-18.602,8.422-30.121,5.32-40.859-0.039
l-4.582,1.754c0.305-2.766,3.726-13.152,8.844-18.043l-0.008-5.242l-0.121-2.473l-0.407-4.488
c-7.613,7.172-16.5,18.457-17.613,34.484c0,0-6.933,3.563-12.851,7.5c0.328-0.043,9.218,10.875,30.578,17.004l-0.942-3.484
c3.176,0.891,7.692,1.598,12.184,2.168l0.602,27.355l5.102,3.02l0.172-30.289c0.156,0.125,8.137-0.281,12.434-1.305l-0.605,2.918
l4.246-0.836v2.133l-4.656,1.098l-6.625,28.313l3.859,0.859c1.129-5.703,3.984-10.316,8.117-13.145l-0.043-1.086
c2.652-1.902,8.164-3.414,8.199-3.379c1.879-9.184,6.254-15.547,10.906-21.598l-2.215-3.012l8.496-3.113l-11.793-20.063
c4.535-3.129,13.535-1.965,13.535-1.965c-3.859-10.41-7.246-21.148-3.438-36.902l-32.801,0.027L105.645,21.051z M116.402,21.707
c-0.008,2.629-3.445,2.359-3.863-0.016L116.402,21.707z M137.477,21.621c-2.086,12.066-1.395,23.82,3.445,34.988
c0,0-0.707,0.039-0.793,0.023c-0.066-0.016,0.082-0.605,0.043-0.762c-0.094-0.418-0.789-0.223-1.375,0.172
c-0.254,0.168-0.547,0.363-0.73,0.457c-0.598,0.301-3.641,0.277-3.641,0.277c0.992-0.672,2.387-2.563,1.578-3.664
c-0.184-0.234-0.293-0.133-0.473,0.184c-0.863,1.535-1.293,1.777-2.445,1.762c-1.813-0.023-3.105-1.145-2.961-2.836
c0.145-1.641,2.563-2.512,2.203-0.914c-0.098,1.418,1.313,1.695,1.574,0.281c0.098-0.531,0.02-0.285,0.133-0.906
c2.82-1.496,1.266-4.539-1.367-3.902c-0.617,0.164-0.695,0.219-1.133-0.004c-0.809-0.418-1.484-0.289-1.789,0.301
c-0.27,0.516,0.141,0.93,0.742,0.93c0.625,0.004,0.746,0.305,0.742,0.68c-0.004,0.871-1.508,1.289-2.504,0.781
c-2.629-1.34-1.656-4.832,1.398-4.82c0.93,0.004,1.316,0.063,1.355-0.137c0.113-0.563-1.305-1.539-2.105-1.395
c-0.68,0.133-1.09,0.309-0.73-0.594c0.219-0.93,0.211-1.355,0.027-2.055c-0.492-1-0.477-0.488-0.781,0.324
c-1.004,1.668-2.523,2.039-3.828,1.125c-1.211-0.848-1.176-2.457-0.023-3.602c0.801-0.797,1.66-0.254,1.18,0.637
c-0.199,0.367-0.043,0.824,0.316,0.914c0.723,0.188,1.172-0.238,1.176-1.117c-0.016-0.48-0.152-0.59,0.719-1.086
c2.25-1.285,0.566-4.797-1.973-3.668c-0.559,0.25-0.688,0.492-0.941,0.375c-1.059-1.004-2.582,0.266-1.684,0.938
c0.391,0.188,0.867,0.262,0.992,0.273c0.219,0.125,0.145,0.438-0.176,0.828c-1.051,1.238-3.438,0.625-4-1.121
c-0.652-2.027,1.418-4.156,3.004-2.977c0.469,0.352,0.875,0.387,0.879-0.129c0-0.805-1.012-1.73-2.305-1.637
c-1.313,0.09-1.168,0.262-0.453-0.926c0.527-1.059,0.453-2.086-0.004-2.707c-0.355-0.48-0.719-0.582-0.684-0.074
c0.289,1.57-1.547,3.063-3.055,2.402c-1.449-0.648-2.168-2.27-1.457-3.68c0.656-1.297,2.25-1.434,1.984-0.043
c-0.125,0.883,0.547,1.348,1.199,0.828c0.234-0.191,0.293-0.359,0.309-0.93c0.016-0.637-0.242-0.824,0.168-1.195
c1.074-0.141,1.141-2.426,0.98-2.52L137.477,21.621z M118.234,21.699c0.68,0,1.246,0.23,1.246,0.914c0,0.68-0.551,1.23-1.23,1.23
c-0.684,0-1.238-0.551-1.238-1.23C117.012,21.93,117.551,21.699,118.234,21.699L118.234,21.699z M106.137,21.789h2.742
l21.672,36.117l-2.566,1.246L106.137,21.789z M110.641,23.051c1.316,0.75,2.527,1.367,4.176,1.527
c-0.484,0.98-0.922,2.047-1.004,3.875L110.641,23.051z M115.055,30.324c1.34,0.48,2.5,1.203,4.703,0.473
c-1.176,1.039-1.84,2.281-2.34,3.59L115.055,30.324z M126.332,34.688c0.633,0,1.145,0.512,1.145,1.145
c0,0.629-0.512,1.141-1.145,1.141s-1.145-0.512-1.145-1.141C125.188,35.199,125.699,34.688,126.332,34.688L126.332,34.688z
M119.313,37.539c0.965,0.355,1.977,0.59,3.102,0.539c-0.555,0.766-0.746,1.93-0.781,3.258L119.313,37.539z M122.629,43.23
c0.895,0.438,1.953,1.074,3.832,0.867c-1.246,2.113-0.977,2.695-1.105,3.617L122.629,43.23z M133.488,47.422
c0.664,0,1.199,0.539,1.199,1.199c0,0.664-0.535,1.199-1.199,1.199c-0.66,0-1.195-0.535-1.195-1.199
C132.293,47.961,132.828,47.422,133.488,47.422L133.488,47.422z M126.758,50.113c0.82,0.465,2.438,0.727,2.453,0.602
c-0.102-0.078-0.465,1.563-0.527,2.59L126.758,50.113z M130.531,56.266c1.164,0.688,2.453,0.621,3.207,0.703
c-0.809,0.16-1.57,0.363-2.441,0.707L130.531,56.266z M144.262,63.02c-2.805,0.184-3.453,2.332-3.121,4.512
c-2.141-0.34-4.535,1.688-3.863,4.164c0.633,2.352,2.82,2.434,4.328,2.277c-0.117,0.574-0.434,2.492,1.887,4.117l0.309,12.207
c0,0-1.02-0.938-1.688-1.605c-2.918-2.902-7.305-5.008-7.027-3.371c0.039,0.242,0.133,0.852,0.203,1.355
c0.465,2.766,4.176,5.754,6.707,7.258c0.902,0.504,1.465,1.043,1.465,1.043c-4.734,5.063-7.281,10.461-7.914,15.82
c-0.59,4.98-1.066,9.469-1.535,14.039c-1.93,22.941-11.773,28.71-12.242,29.832l-0.184,3.059l-2.746-0.203l-3.168,2.738
c10.371,5.359,16.422,11.827,16.34,11.952c8.281-5.425,15.43-11.448,22.18-17.683l-0.133-51.074c0,0-0.559,0.203-0.703,0.203
c-0.516-0.004-0.578,0.227-0.758,1.207c-0.094,0.523-0.406,1.004-0.648,1.348c-0.465,0.652-0.301,0.32,0.285,0.559
c1.328,0.535-0.398,2.973-2.285,3.27c-1.359,0.215-2.121,0.465-2.352,0.777c-2.863,2.504-5.715,2.902-7.871,1.98
c-1.063-0.453-2.215-1.113-2.605-2.219c-0.883-2.508,0.961-6.117,2.043-8.203c1.984-3.828,5.281-6.703,5.281-6.703l-0.539-0.586
c0,0,0.648,0.012,0.77-0.031c2.848-1.035,3.023-1.051,3.547-1.805s1.844-2.906,2.113-3.613c1.465-3.805,1.66-4.051,1.656-6.547
c0-2.02-0.137-3.371-0.527-3.477c-2.242,1.719-4.504,5.73-5.828,8.098c-0.457-3.504-0.594-9.625-0.594-9.625
c0.477-0.523,3.168-0.23,2.57-4.617c2.371,1.066,4.867-0.566,4.762-2.852c-0.164-3.551-2.898-3.445-5.129-2.996
C148.309,65.477,146.289,62.891,144.262,63.02L144.262,63.02z M144.219,63.32c2.93,0.09,3.508,3.324,1.715,5.156
c0,0-1.16-0.895-1.777-1.402c-0.586,0.457-0.758,0.855-1.398,1.332c-0.766-0.566-1.223-1.563-1.23-2.523
C141.563,64.383,143.074,63.285,144.219,63.32L144.219,63.32z M77.332,63.418c11.848,6.621,26.704,7.098,40.301,0.348l-0.168,1.121
l-1.488,0.84l0.844,1.547l0.465-0.227l0.012,1.023c-11.211,6.055-29.988,7.309-44.687-2.746l1.281-0.594
c0,0,0.289,0.199,0.566,0.371c0.535,0.332,1.418,0.867,2.004,1.125l0.887-1.281c0,0-1.356-0.828-1.223-0.883L77.332,63.418z
M78.375,65.449l-0.679,1.543l1.699,0.902l0.648-1.551L78.375,65.449z M71.93,65.625c18.242,11.449,35.227,8.043,45.426,3.359
l0.129,1.219c-13.16,5.602-30.473,7.105-46.946-3.973L71.93,65.625z M114.875,66.359l-1.625,0.648l0.645,1.484l1.668-0.711
L114.875,66.359z M69.75,66.637c14.824,9.559,30.727,11.43,47.863,4.426l0.656,1.832c-16.691,6.699-34.305,5.93-50.399-5.465
L69.75,66.637z M81.141,66.691l-0.664,1.602l1.84,0.699l0.535-1.574L81.141,66.691z M112.32,67.352l-1.605,0.523l0.5,1.531
l1.664-0.566L112.32,67.352z M83.949,67.793l-0.398,1.609l1.879,0.527l0.328-1.617L83.949,67.793z M151.848,70.441
c0.254,2.742-3.809,4.063-5.328,1.508l1.34-1.629l-1.199-1.117C148.289,66.633,151.609,67.871,151.848,70.441L151.848,70.441z
M67.465,67.879l4.422,3.043l-3.215,4.992l-4.762-3.199L67.465,67.879z M144.117,68.02l2.809,2.434l-2.574,3.02l-2.637-2.66
L144.117,68.02z M142.371,68.844l-1.578,1.836l1.711,1.82c-2.027,2.152-5.051,0.824-5.023-1.813
C137.504,68.672,140.586,66.715,142.371,68.844L142.371,68.844z M109.629,68.141l-1.688,0.504l0.387,1.48l1.746-0.457
L109.629,68.141z M86.871,68.605l-0.312,1.59l1.937,0.418l0.328-1.586L86.871,68.605z M106.844,68.875l-1.793,0.391l0.309,1.582
l1.797-0.379L106.844,68.875z M144.309,69.25l-1.48,1.449l1.48,1.535l1.488-1.535L144.309,69.25z M89.977,69.293l-0.227,1.605
l2.031,0.273l0.156-1.621L89.977,69.293z M103.652,69.516l-1.828,0.207l0.188,1.57l1.895-0.238L103.652,69.516z M92.871,69.699
l-0.023,1.645l1.781,0.145l0.004-1.633L92.871,69.699z M100.723,69.852l-1.785,0.066l0.008,1.594l1.828-0.117L100.723,69.852z
M68.106,69.867c-1.051,0-1.903,0.852-1.903,1.906c0,1.051,0.852,1.902,1.903,1.902c1.054,0,1.906-0.852,1.906-1.902
C70.012,70.719,69.16,69.867,68.106,69.867L68.106,69.867z M97.727,69.922l-1.758,0.016l0.008,1.609l1.813,0.008L97.727,69.922z
M144.309,69.93l0.77,0.77l-0.77,0.762l-0.789-0.762L144.309,69.93z M68.102,70.539c0.691,0,1.25,0.559,1.25,1.25
c0,0.688-0.559,1.25-1.25,1.25c-0.688,0-1.25-0.563-1.25-1.25C66.852,71.098,67.414,70.539,68.102,70.539L68.102,70.539z
M61.336,70.633l2.531,2.059c-0.808,1.543-3.355,4.797-3.355,4.797l-4.68-3.746l2.446-1.383c-0.133,0.254-0.207,0.543-0.207,0.852
c0,1.035,0.839,1.871,1.875,1.871c1.031,0,1.871-0.836,1.871-1.871c0-0.988-0.774-1.797-1.75-1.863L61.336,70.633z M59.922,71.957
c0.692,0,1.254,0.563,1.254,1.254c0,0.695-0.562,1.254-1.254,1.254c-0.695,0-1.258-0.559-1.258-1.254
C58.664,72.52,59.227,71.957,59.922,71.957L59.922,71.957z M145.949,72.551c0,0,0.691,0.262,0.859,0.52
c1.355,2.082-0.059,4.563-2.332,4.512c-2.66-0.055-3.359-3.387-1.531-4.746l1.488,1.402L145.949,72.551z M76.844,73.398l5.242,2.012
l-1.988,5.691l-5.731-2.348L76.844,73.398z M55.309,73.992c21.375,19.258,51.742,20.645,73.816,7.859l1.344-0.027l0.715,0.73
c-25.148,14.871-56.406,11.637-77.508-7.504L55.309,73.992z M114.168,75.141l1.688,5.629l-5.793,1.523l-1.297-5.703L114.168,75.141z
M53.117,75.344c6.489,6.25,15.661,11.73,26.434,14.836l0.266,2.309c-11.438-3.434-20.075-8.02-28.489-15.98L53.117,75.344z
M78.231,75.434c-1.032,0-1.871,0.836-1.871,1.871c0,1.031,0.839,1.867,1.871,1.867c1.035,0,1.875-0.836,1.875-1.867
C80.106,76.27,79.266,75.434,78.231,75.434L78.231,75.434z M68.914,75.852l5.403,2.859l-2.692,5.391l-5.742-3.078L68.914,75.852z
M78.207,76.047c0.696,0,1.258,0.563,1.258,1.258c0,0.691-0.562,1.25-1.258,1.25c-0.691,0-1.254-0.559-1.254-1.25
C76.953,76.609,77.516,76.047,78.207,76.047L78.207,76.047z M87.16,76.816l5.192,0.754l-0.238,5.754l-6.063-0.727
C86.285,80.57,87.16,76.816,87.16,76.816L87.16,76.816z M112.242,76.957c-1.031,0-1.871,0.84-1.871,1.871
c0,1.035,0.84,1.871,1.871,1.871c1.035,0,1.871-0.836,1.871-1.871C114.113,77.797,113.277,76.957,112.242,76.957L112.242,76.957z
M112.219,77.574c0.695,0,1.258,0.563,1.258,1.254c0,0.695-0.563,1.254-1.258,1.254c-0.691,0-1.254-0.559-1.254-1.254
C110.965,78.137,111.527,77.574,112.219,77.574L112.219,77.574z M69.996,77.656c-1.035,0-1.875,0.836-1.875,1.871
s0.84,1.867,1.875,1.867c1.032,0,1.871-0.832,1.871-1.867S71.028,77.656,69.996,77.656L69.996,77.656z M103.195,77.664l0.746,5.781
l-5.672,0.281l-0.336-5.766L103.195,77.664z M143.84,78.18h0.809c0.074,4.977,0.465,10.738,1.043,14.996
c0.086,0.637,0.125,0.824,0.063,0.938c-0.559,0.984-1.207-0.254-1.457-3.086c-0.07-0.781-0.16-1.914-0.254-2.664
C143.75,86.109,143.84,78.18,143.84,78.18L143.84,78.18z M47.992,78.266c-8.527,5.32-22.711,18.027-22.625,18.324l0.059,48.828
l1.109,0.055l0.914-1.797c-1.418-0.355-1.019-3.02,1.696-3.555c0.465-0.09,1.883-0.566,2.226-0.832
c2.063-1.575,5.414-2.5,7.766-1.879c3.426,0.875,4.129,3.395,2.48,7.777c-1.3,3.453-3.875,7.871-6.296,9.129
c-0.196,0.104-0.622,0.312-0.622,0.312s0.559,0.513,0.766,0.646c6.664-3.853,10.027-17.664,9.848-26.254
c0.265-8.805,1.785-17.637,5.34-24.063C56.524,94.34,64.289,90.074,64.25,90.035C64.25,90.035,53.781,83.676,47.992,78.266
L47.992,78.266z M69.973,78.27c0.691,0,1.254,0.566,1.254,1.258s-0.563,1.254-1.254,1.254c-0.695,0-1.258-0.563-1.258-1.254
S69.278,78.27,69.973,78.27L69.973,78.27z M121.77,78.473l2.023,5.375l-5.621,2.297l-2.027-5.645L121.77,78.473z M89.438,78.5
c-1.032,0-1.871,0.836-1.871,1.871s0.839,1.867,1.871,1.867c1.035,0,1.875-0.832,1.875-1.867S90.473,78.5,89.438,78.5L89.438,78.5z
M100.867,78.965c-1.035,0-1.875,0.84-1.875,1.871c0,1.035,0.84,1.871,1.875,1.871c1.031,0,1.871-0.836,1.871-1.871
C102.738,79.805,101.898,78.965,100.867,78.965L100.867,78.965z M89.414,79.113c0.696,0,1.258,0.566,1.258,1.258
s-0.562,1.254-1.258,1.254c-0.691,0-1.254-0.563-1.254-1.254S88.723,79.113,89.414,79.113L89.414,79.113z M100.844,79.582
c0.691,0,1.254,0.563,1.254,1.254c0,0.695-0.563,1.254-1.254,1.254c-0.695,0-1.258-0.559-1.258-1.254
C99.586,80.145,100.148,79.582,100.844,79.582L100.844,79.582z M119.961,80.223c-1.035,0-1.875,0.836-1.875,1.871
c0,1.031,0.84,1.867,1.875,1.867c1.031,0,1.871-0.836,1.871-1.867C121.832,81.059,120.992,80.223,119.961,80.223L119.961,80.223z
M119.938,80.836c0.691,0,1.254,0.563,1.254,1.258c0,0.691-0.563,1.25-1.254,1.25c-0.695,0-1.258-0.559-1.258-1.25
C118.68,81.398,119.242,80.836,119.938,80.836L119.938,80.836z M80.235,80.934l5.617,1.438l-1.305,5.891l-6.34-1.684L80.235,80.934z
M151.293,80.781c0.918,2.879-0.766,6.57-0.852,6.809c-1.02,2.895-2.25,5.262-2.695,5.398c-0.383,0.145-0.551,0.051-0.551-0.305
c0.004-0.547,1.258-4.254,2.242-6.637c0.242-0.586,0.801-2.352,0.805-2.648c0-0.445-0.434,0.281-0.898,1.395
c-0.906,2.227-2.223,4.609-2.508,6.77c-0.207,1.766-0.543,1.516-0.785-0.586c-0.344-2.914,0.297-4.414,3.574-8.477
C150.41,81.531,151.215,80.531,151.293,80.781L151.293,80.781z M110.027,82.277l1.625,5.77l-6.629,1.133l-1.035-5.852
L110.027,82.277z M82.266,82.859c-1.035,0-1.871,0.84-1.871,1.871c0,1.035,0.836,1.871,1.871,1.871c1.031,0,1.871-0.836,1.871-1.871
C84.137,83.699,83.297,82.859,82.266,82.859L82.266,82.859z M92.18,83.234l6.004,0.344l0.055,5.992l-6.52-0.281L92.18,83.234z
M82.242,83.477c0.692,0,1.258,0.563,1.258,1.254c0,0.695-0.566,1.254-1.258,1.254c-0.691,0-1.257-0.559-1.253-1.254
C80.989,84.039,81.551,83.477,82.242,83.477L82.242,83.477z M107.449,84.008c-1.031,0-1.871,0.84-1.871,1.871
c0,1.035,0.84,1.871,1.871,1.871c1.035,0,1.871-0.836,1.871-1.871C109.32,84.848,108.484,84.008,107.449,84.008L107.449,84.008z
M95,84.488c-1.035,0-1.875,0.84-1.875,1.875c0,1.031,0.84,1.867,1.875,1.867c1.031,0,1.871-0.836,1.871-1.867
C96.871,85.328,96.031,84.488,95,84.488L95,84.488z M107.426,84.625c0.695,0,1.258,0.563,1.258,1.254
c0,0.695-0.563,1.254-1.258,1.254c-0.691,0-1.254-0.559-1.254-1.254C106.172,85.188,106.734,84.625,107.426,84.625L107.426,84.625z
M94.977,85.105c0.691,0,1.254,0.563,1.254,1.258c0,0.691-0.563,1.25-1.254,1.25c-0.695,0-1.258-0.559-1.258-1.25
C93.719,85.668,94.281,85.105,94.977,85.105L94.977,85.105z M135.934,85.465c0.098-0.004,0.227,0.016,0.313,0.016
c1.344-0.016,5.867,3.234,7.023,5.199c0.965,1.738,0.465,2.426-0.641,0.875c-1.527-1.699-4.348-4.223-4.707-4.227
c-0.387,0,0.145,0.551,1.941,2.301c1.781,1.738,3.66,4,3.66,4.402c0,0.266-0.355,0.234-0.863-0.078
c-1.113-0.688-2.078-1.379-2.57-1.844c-0.297-0.281-0.867-0.793-1.27-1.148c-1.66-1.457-3.555-4.813-3.02-5.457
C135.824,85.473,135.871,85.465,135.934,85.465L135.934,85.465z M52.129,85.941c1.16-0.035,2.465,0.703,2.516,2.051
c0.039,0.949,0.105,1.023,0.965,1.039c0.82,0.016,3.195,0.297,3.195,0.297l0.016,2.668c0,0-1.149-0.008-2.469-0.07
c-2.246-0.105-2.238-0.109-2.524,0.879c-0.113,0.398-0.273,0.594-0.722,0.887c-2.02,1.328-3.965-1.078-2.711-3.352
c0.429-0.777,0.453-1.043,0.156-1.512C49.946,87.473,50.75,86.008,52.129,85.941L52.129,85.941z M52.625,87.305
c-0.25,0-0.523,0.109-0.773,0.355c-0.332,0.328-0.336,1.27-0.004,1.816c0.316,0.527,0.308,0.668-0.059,1.012
c-0.652,0.609-0.672,1.813-0.035,2.266c0.578,0.414,1.195-0.133,1.195-0.969c0.004-0.914,0.649-0.898,0.649-0.898l4.223,0.074
l0.011-0.688l-3.062-0.156c-0.426,0-0.871-0.043-1.203-0.266c-0.348-0.238-0.746-0.656-0.364-1.168
C53.735,87.973,53.258,87.301,52.625,87.305L52.625,87.305z M43.469,88.883l2.004,3.402l2.336,0.086l0.203,2.074l2.84,1.828
l-2.91,1.699l-0.141,2.086l-2.203,0.277l-2.047,2.563l-1.961-2.559l-2.16,0.012l-0.031-2.141l-2.977-1.914l3.258-1.828l-0.035-2.445
l2.308-0.152L43.469,88.883z M114.234,90.43l0.098,2.059l-3.281,0.582l0.43-2.098L114.234,90.43z M93.223,92.504l4.418,0.133
l-0.254,28.875c0,0-0.871-0.004-1.035-0.008l-0.02-1.125l-1.414,0.047l-1.438-0.871L93.223,92.504z M43.469,93.234l-2.59,3.281
l3.137,2.746l2.765-3.211L43.469,93.234z M94.547,93.676v1.328h1.855v-1.328H94.547z M43.528,94.809l1.828,1.34l-1.395,1.836
l-1.758-1.523L43.528,94.809z M114.328,95.566l-0.059,15.801c-6.074,4.766-7.965,13.156-7.965,13.156l-2.469-0.148l6.277-27.84
L114.328,95.566z M81.414,95.918c-5.465,2.598-10.968,4.566-16.39,10.766c2.101,1.891,4.316,3.813,6.289,7.031
c4.511-0.672,9.531,0.137,15.004,2.289L81.414,95.918z M94.547,96.27v1.375h1.855V96.27H94.547z M33.133,98.254
c0.137,0.422,0.176,0.871,0.176,0.871c4.008-0.336,2.988,4.313,0.433,4.473c-0.3,0.039,0.247,0.824,0.844,1.074
c1.516,0.641,2.606,0.23,3.602-1.098c0.761-1.016,0.808-1.164,0.808-1.164l2.473,1.313c0,0,0.074-0.035-0.363,1.098
c-0.797,2.063,0.363,4.594,1.258,2.75c0.476-0.984,1.878-1.543,2.851-1.137c1.137,0.477,1.527,2.504,0.731,3.781
c-0.239,0.383-0.247,0.465-0.098,0.824c0.223,0.535,0.359,1.922,0.125,2.367c-0.301,0.582-0.649,0.711-1.332,0.238
c-0.934-0.645-1.453-0.914-3.078-1.367c-2.852-0.535-3.41-1.539-4.543-3.883c-3.375,1.012-8.426-1.105-7.754-6.117
c0.305-1.105,0.39-3.23-0.172-3.664c-1.105-0.852,0.105-2.078,1.766-2.277C32.227,96.199,32.883,97.492,33.133,98.254L33.133,98.254
z M80.899,96.801l4.39,18.395c-4.82-1.766-9.55-3.145-13.738-2.121c-1.918-3.059-3.551-4.563-5.68-6.551
C70.016,101.527,75.285,98.73,80.899,96.801L80.899,96.801z M31.207,97.703c-0.285-0.004-0.605,0.121-0.941,0.418
c0,0,0.297,0.246,0.461,0.586c0.258,0.539,0.262,0.539-0.031,1.73c-1.34,4.793,1.835,7.961,6.355,6.578
c1.109-0.344,1.066-0.305,1.387,0.996c0.527,2.148,2.043,3.254,5.058,3.66c0.188,0.027,0.496,0.086,0.743,0.238
c1.324,0.844,0.781-0.281,0.417-0.719c-0.257-0.34-0.73-0.68-0.73-0.68s0.402-0.266,0.594-0.363
c0.847-0.453,1.168-2.219,0.465-2.598c-0.641-0.344-1.731,0.176-1.735,0.832c-0.004,1.199-1.515,1.324-2.84,0.328
c-1.699-1.277-0.195-4.5-0.183-4.496l-0.957-0.418c0.125,0.113-2.02,3.156-4.656,2.094c-1.84-0.742-3.141-2.875-2.286-3.484
c0.621-0.164,1.368,0.176,1.84-0.188c0.946-0.738,0.184-2.035-1.16-1.988c-0.285,0.012-0.926,0.137-0.926,0.137
c0.071-0.605,0.227-1.031,0.149-1.613C32.153,98.172,31.75,97.711,31.207,97.703L31.207,97.703z M94.566,99.102v1.133l1.836,0.012
v-1.133L94.566,99.102z M94.547,101.438v1.168h1.855v-1.168H94.547z M94.547,103.953v1.195h1.855v-1.195H94.547z M94.547,106.301
v1.262h1.855v-1.262H94.547z M94.547,108.652v1.18h1.855v-1.18H94.547z M94.547,111.055v1.188h1.855v-1.188H94.547z M34.301,112.215
l1.559,2.637l1.855,0.082l0.074,1.809l3.149,2.41l-2.754,1.969l-0.199,1.953l-2.184,0.066l-1.77,2.985l-2.175-2.618l-1.75-0.281
l-0.2-2.379l-2.695-2.016l2.531-2.023l0.204-2.113l2.062,0.18L34.301,112.215z M136.844,113.477
c0.172,0.004,0.355,0.051,0.551,0.148c0.656,0.332,0.863,0.371,2.563,0.457c1.973,0.098,2.672,0.273,3.648,0.926
c0.59,0.395,0.625,0.395,1.258-0.023c2.77-1.836,5.934-0.168,6.164,3.25c0.059,0.898,0.148,1.262,0.504,2.016
c0.242,0.523,0.492,0.934,0.348,1.266c-0.445,1.02-2.578,1.086-3.742-0.426c-0.207-0.23-0.418-0.328-0.707-0.328
c-0.578,0.215-2.055-0.949-2.039-0.996c-0.137,0.809-0.207,1.449-0.352,2.625l-2.586-0.039c0,0-0.055-0.473-0.176-2.125
c-0.137-1.902-0.609-2.457-1.219-1.43c-1.043,1.766-3.82,0.992-3.98-1.113c-0.055-0.715-0.098-0.805-0.488-1.105
C135.281,115.57,135.664,113.453,136.844,113.477L136.844,113.477z M94.547,113.582v1.055h1.855v-1.055H94.547z M137.141,114.711
c-0.512,0.035-0.219,0.945,0.629,1.426c0.48,0.273,0.484,0.273,0.422,1.109c-0.117,1.52,1.348,2.266,1.996,1.02
c0.113-0.215,0.164-0.492,0.117-0.676c-0.273-1.102,2.113-0.801,2.688,0.34c0.133,0.262,0.281,0.961,0.352,1.664
c0.07,0.668,0.086,1.441,0.086,1.441h0.762c0,0-0.008-0.461,0.035-0.902c0.188-1.887,1.023-3.078,2.148-3.074
c0.48,0.004,0.5,0.09,0.164,0.711c-0.57,1.051-0.023,1.813,1.305,1.82c0.844,0.008,0.84,0.008,1.152,0.605
c0.344,0.656,0.605,0.863,0.926,0.742c0.227-0.086,0.23,0.043-0.066-2.199c-0.441-3.34-2.383-4.238-5.066-2.344
c-0.758,0.535-0.926,0.52-1.598-0.133c-1.012-0.973-1.648-1.199-3.621-1.27c-0.941-0.035-1.867-0.129-2.059-0.207
C137.359,114.727,137.238,114.703,137.141,114.711L137.141,114.711z M73.477,115.664c-0.438,0.008-0.946,0.102-1.387,0.137
c0.488,2.582,0.719,5.16,0.941,7.742c2.258-0.391,5.184-0.027,9.047,1.773c2.368,1.103,5.262,2.988,8.293,5.117
c3.282,2.309,7.133,3.668,10.411,4.379c3.988,0.867,7.195,0.793,7.109,0.605c-0.18,0.027-1.441-6.333-1.273-7.691
c-5.523-0.508-10.852-2.551-14.93-5.32C86.293,118.742,80.059,115.551,73.477,115.664L73.477,115.664z M94.547,115.879v1.074h1.855
v-1.074H94.547z M33.739,116.094l-2.934,3.055l3.191,3.02l2.707-3.078L33.739,116.094z M33.656,117.48l1.661,1.59l-1.34,1.699
l-1.867-1.609L33.656,117.48z M74.996,117.73c0.391,0.004,0.774,0.277,2.067,1c1.082,0.75,1.945,1.215,1.633,0.043
c0.246-0.336,1.445,0.762,2.859,1.453c1.707,1.367,1.715,1.035,1.937,0.359c0.227-0.496,0.543-0.16,1.907,1.102
c1.789,1.656,1.629,1.66,1.988,1.246c0.406-0.773,0.543-0.766,2.004,0.91c1.516,1.691,1.836,2.055,2.16,1.328
c0.5-0.375,0.758-0.012,2.816,1.922c1.012,1.012,1.25,0.855,1.441,0.176c0.195-0.699,0.25-0.543,1.961,0.813
c1.977,1.586,2.176,1.699,2.258,1.152c0.129-0.871,0.742-0.563,2.781,0.902c1.234,0.879,1.699,1.125,1.965,0.906
c0.27-0.473-0.672-1.387,1.32-0.527l0.547,2.891l-0.688-0.196c-0.426-0.121-1.352-0.437-1.004,0.465
c0.203,0.521-0.301,0.457-1.844-0.461c-2.215-1.319-2.625-1.625-2.789-1.354c-0.293,0.988-0.258,1.055-1.75-0.117
c-1.738-1.321-2.09-1.684-2.332-1.235c-0.031,0.996-0.516,0.794-2.137-0.604c-1.371-1.195-1.664-1.824-2.277-0.906
c-0.168,0.32-0.336,0.238-0.566,0.074c-0.797-0.59-2.398-2.281-2.851-2.771c-0.356-0.386-0.559-0.261-0.852,0.06
c-0.273,0.301-0.293,0.207-1.18-0.605c-2.113-1.938-2.504-2.422-2.8-2.156c-0.239,0.453-0.008,1.07-1.633-0.207
c-2.035-1.469-2.918-2.117-2.782-1.156c-0.347,0.43-0.105,0.512-2.14-0.613c-1.938-1.07-2.184-1.395-2.465-1.023
c-0.187,0.582-0.84,0.371-0.84,0.336l-0.39-2.938l0.695,0.008C74.016,118.004,74.688,117.73,74.996,117.73L74.996,117.73z
M59.457,117.977c-0.152,0.453-1.222,3.074-1.234,9.75c0.125,0.155,2.644-2.41,2.769-4.805
C61.11,120.656,59.465,117.969,59.457,117.977L59.457,117.977z M94.543,118.16v1.219h1.855v-1.219H94.543z M59.59,119.125
c2.356,3.734-0.238,7.257-0.887,7.503C58.703,123.824,59.117,121.184,59.59,119.125L59.59,119.125z M121.406,122.262
c-3.871,2.441-3.242,9.043-1.344,10.738C120.203,133,121.422,125.867,121.406,122.262L121.406,122.262z M120.879,123.074l-1.043,8.5
C118.48,130.074,118.242,125.605,120.879,123.074L120.879,123.074z M145.297,124.512l2.047,2.57l1.816,0.137l0.406,1.855
l2.656,2.164l-2.66,1.801l-0.234,2.059l-1.977,0.198l-1.957,3.079l-1.914-3.016l-1.836-0.195l-0.059-1.98l-2.879-2.129l2.75-1.652
l0.055-2.238l2.152,0.007L145.297,124.512z M72.852,125.316c-1.301,6.18-4.406,10.41-8.785,13.25l0.023,0.625l-7.379,2.961
c-1.617,7.539-4.523,14.894-10.613,21.793l1.699,3.453l-8.242,2.832l11.797,20.227c0.812,0-5.715,3.089-13.594,2.285
c4.984,12.211,6.016,24.852,3.254,35.922l38.613-0.161l-29.508-57.909l-0.484-0.941c-0.41-0.758,15.688,2.262,12.273,17.191
c-0.05,0.348,0.071,0.391,0.266,0.245c3.129-2.687,23.91-10.14,40.508-0.296l4.934-2.043c-2.348,8.214-5.016,13.867-9.516,18.82
l0.766,11.691c7.957-6.516,16.594-18.48,17.75-34.38c3.586-1.745,6.703-3.729,10.043-5.597l0.441,0.141l2.16-1.298
c-6.93-7.585-21.082-14.832-30.152-16.737l0.535,2.569c-5.004-1.343-8.746-1.636-12.641-2.05l-0.597-27.207l-5.039-2.973
l-0.157,30.012c-3.769,0.047-12.433,1.535-12.433,1.535l0.39-2.567l-3.968,0.817l-0.071-2.5l4.485-1.289l6.504-27.567
L72.852,125.316z M73.395,125.93l2.07,0.417l-6.437,27.031c0,0-3.61,0.997-3.832,0.86c-0.29-5.07-0.399-15.399-0.399-15.399
C71.153,133.543,72.145,129.793,73.395,125.93L73.395,125.93z M29.207,127.91c0.969-0.012,2.016,0.695,2.082,1.332
c0.164,0.39,0.305,0.559,0.567,0.597c1.621,0.224,1.675,0.653,1.722,1.591c-0.23,1.797,0.973,0.289,1.313-1.496
c0.035-0.184,0.015-1.547,0.015-1.547l1.989-0.02c0,0,0.066,1.422,0.094,1.648c0.175,1.379,0.765,2.496,1.171,1.766
c1.399-2.512,4.602-1.23,4.098,1.188c-0.125,0.574-0.117,0.609,0.273,1.047c0.637,0.707,0.872,1.461,0.661,2.112
c-0.203,0.642-0.653,0.739-1.614,0.353c-0.453-0.181-1-0.246-2.464-0.289c-2.075-0.063-2.204-0.103-3.008-0.883l-0.512-0.492
l-0.879,0.516c-1.461,0.859-2.789,0.891-4.336,0.102c-1.008-0.516-1.594-1.754-1.75-3.681c-0.027-1.022-0.316-1.765-0.949-2.011
c-0.344-0.324,0.039-0.965,0.621-1.551C28.571,128,28.883,127.918,29.207,127.91L29.207,127.91z M145.129,128.203l-2.73,3.406
l3.246,2.906l3.023-3.556L145.129,128.203z M81.856,128.695l3.785,2.164l0.484,26.82l-4.277-0.117L81.856,128.695z M29.313,129.066
c-0.289,0.031-0.11,0.492,0.101,1.195c0.192,0.629,0.239,1.023,0.18,1.461c-0.402,2.938,2.969,4.434,5.398,2.395
c0.649-0.739,0.754-0.691,1.297,0.102c0.668,0.836,1.637,1.109,3.676,0.984c0.93-0.055,1.547,0.441,1.949,0.113
c0.289-0.211,0.008-0.771-0.554-1.098c-0.348-0.199-0.36-0.23-0.289-0.923c0.171-1.737-1.262-2.198-2.282-0.729
c-0.84,1.211-2.109,0.41-2.519-1.59c-0.242-1.543-0.438-1.52-0.621-0.176c-0.2,1.633-2.348,3.406-3.207,2.602
c-0.239-0.238-0.235-0.18,0.007-1c0.309-1.051,0.059-1.442-1.089-1.715c-0.188-0.047-0.403-0.203-0.477-0.349
C30.274,129.398,30.301,129.066,29.313,129.066L29.313,129.066z M145.402,129.691l1.734,1.496l-1.512,1.781l-1.844-1.414
L145.402,129.691z M83.043,130.648v1.266h1.617v-1.266H83.043z M83.043,133.203v1.332h1.617v-1.332H83.043z M92.789,134.734
c1.816,6.734,3.645,13.465,5.465,20.195c1.727-0.688,11.691-5.109,16.391-10.77c-0.18,0.011-4.273-3.989-5.707-6.586
C104.238,138.348,98.84,137.363,92.789,134.734L92.789,134.734z M83.043,135.535v1.246h1.617v-1.246H83.043z M93.813,135.875
c4.281,1.277,9.77,3.039,14.82,2.141c1.305,2.344,3.188,4.27,5.316,6.047c-3.824,4.16-9.352,7.332-15.07,9.772L93.813,135.875z
M134.465,136.359c0.215,0.004,0.434,0.086,0.645,0.269c0.676,0.606,1.199,0.813,2.582,1.04c2.23,0.363,3.934,1.753,4.418,3.613
c0.203,0.781,0.313,0.82,1.426,0.543c4.207-1.059,7.453,2.429,6.453,7.09c-0.352,1.625-0.461,1.82,0.027,2.464
c1.07,1.153,1.305,1.168,0.133,2.185c-1.066,0.957-3.184,0.496-3.633-1.06c-0.43-0.851-0.422-0.918-1.129-1.03
c-2.746-0.438-2.633-4.234-0.047-4.677c0.215-0.034,0.375,0.009,0.484-0.043c0.734-0.332-0.801-2.065-2.066-1.8
c-1.559,0.324-2.332,1.324-2.945,2.886l-2.449-1.397c0.613-1.271,1.066-2.906,0.531-3.922c-0.43-0.852-0.977-0.888-1.145-0.066
c-0.391,1.922-2.785,2.496-4.352,0.929c-0.879-0.875-0.98-1.812-0.336-3.081c0.418-0.82,0.426-0.88,0.25-1.223
C132.695,137.871,133.531,136.355,134.465,136.359L134.465,136.359z M83.043,137.926v1.297l1.621-0.009l-0.004-1.288H83.043z
M134.766,138.031c-0.5,0.004-0.496,0.492-0.035,1.082c0.41,0.414,0.488,0.605-0.078,0.961c-0.707,0.656-0.863,1.648-0.371,2.402
c0.734,1.129,2.43,0.5,2.238-0.832c-0.137-0.938,0.598-1.355,1.766-1.004c1.699,0.512,2.512,2.414,1.844,4.328
c-0.129,0.359-0.379,1.202-0.379,1.202l0.504,0.302c0,0,0.594-0.949,0.828-1.238c1.93-2.375,6.496-1.172,5.988,1.797
c-0.078,0.933-0.074,1.058-1.09,0.77c-0.676-0.348-1.328,0.37-1.309,1.273c0.035,0.813,0.738,1.465,1.715,1.332
c0.777-0.145,0.969-0.117,0.914,0.926c0.078,0.727,0.352,1.207,0.824,1.453c1.152,0.477,1.746-0.18,0.824-1.145
c-0.559-0.586-0.523-1.488-0.172-2.336c0.418-1.012,0.199-3.238-0.445-4.496c-0.926-1.809-3.52-2.566-5.691-1.664
c-0.996,0.531-1.102,0.651-1.199-0.277c-0.543-2.309-2.281-4.051-4.445-4.207C136.164,138.602,135.297,138.148,134.766,138.031
L134.766,138.031z M83.043,140.391v1.198h1.621v-1.198H83.043z M83.043,142.734v1.32h1.617v-1.32H83.043z M83.043,145.309v1.323
c0,0,0.887-0.026,1.617,0v-1.323H83.043z M135.887,147.43l1.77,2.621l1.961,0.129l0.234,2.116l2.973,1.853l-2.578,1.613l-0.02,2.047
l-2.457,0.207l-2.172,2.883l-1.852-2.543l-1.848,0.008l-0.434-2.27l-3.277-1.66l3.359-1.914l-0.09-2.388l2.281-0.015L135.887,147.43
z M83.043,147.742v1.355h1.617v-1.355H83.043z M83.043,150.227v1.34h1.617v-1.34H83.043z M134.891,151.223l-2.539,3.379l3.422,2.828
l2.719-3.418L134.891,151.223z M83.043,152.578v1.465h1.617v-1.465H83.043z M135.152,152.753l1.766,1.364l-1.258,1.597l-1.754-1.336
L135.152,152.753z M83.043,155.289v1.227h1.617v-1.227H83.043z M34.887,155.445c-3.121,0.015-6.07,5.066-6.777,7.461
c-0.836,3.063-0.961,8.609-0.164,8.762c2.793-2.012,4.121-5.418,6.218-7.973c0.328,2.953,0.278,8.644,0.278,8.644
s-1.246,0.657-1.914,1.688c-0.485,0.859-0.637,1.887-0.227,2.844c-1.555-0.504-4.371,0.066-4.531,2.934
c0.101,4.043,4.515,3.473,4.531,3.418c-0.094-0.023-0.867,4.301,3.047,4.758c1.406,0.164,3.879-0.859,3.144-4.793
c2.473,0.41,4.606-0.953,4.629-3.332c0.035-1.629-1.203-3.031-3.34-3.039c-0.441,0-1.382,0.199-1.382,0.199
c0.031-0.234,0.855-2.763-2.012-4.598l-0.453-11.699c0,0,0.992,1.077,1.433,1.484c1.907,1.757,3.153,2.641,5.352,3.8
c2.141,1.129,1.875,0.849,1.508-1.296c-1.012-3.219-3.129-5.656-7.602-8.7C36.047,155.617,35.465,155.445,34.887,155.445
L34.887,155.445z M35.196,155.695l0.628,16.551l-0.929-0.004l-0.797-16.532L35.196,155.695z M126.992,156.242
c0.086,0,0.168,0,0.258,0.008c2.016,0.171,2.535,2.43,1.629,3.43c-0.359,0.398-0.484,0.484-0.297,0.727
c0.867,1.097,0.383,2.828-0.473,3.097c-2.727,0.845-3.137-0.644-3.129-2.397l-4.207-0.156l0.027-2.453l4.637,0.093
C125.09,157.477,125.758,156.293,126.992,156.242L126.992,156.242z M33.246,156.27c0.016,0,0.035,0,0.051,0
c0.434,0.039-0.016,1.203-1.23,2.98c-0.825,1.199-1.965,3.316-2.309,4.171c-0.75,1.872-1.254,5.224-0.75,4.606
c0.453-1.399,0.496-1.984,0.887-2.992c0.511-1.313,2.902-5.633,3.379-6.059c0.402-0.363,0.507-0.142,0.5,1.074
c-0.024,2.738-1.321,5.617-4.41,8.988c-0.516,0.563-1.204,1.175-1.254,1.175c-0.297-0.004-0.289-0.62-0.286-1.921
c0.02-5.172,1.942-9.79,4.895-11.777C32.949,156.363,33.121,156.281,33.246,156.27L33.246,156.27z M36.379,156.512
c1.356,0.395,3.793,2.573,4.793,3.691c1.164,1.257,2.723,4.73,2.449,5.266c-0.093,0.234-0.289,0.195-0.968-0.188
c-4.317-2.43-7.411-5.426-6.598-6.395c0.226-0.27,1.152,0.288,2.394,1.441c0.844,0.75,1.711,1.507,2.481,2.27
c1.215,1.195,1.488,1.371,0.758,0.043c-0.66-1.195-2.52-3.195-4.77-4.895C36,157.055,35.793,156.5,36.379,156.512L36.379,156.512z
M127.262,157.207c-0.059,0-0.113,0.012-0.152,0.027c-0.848,0.359-0.504,1.457-0.586,2.305l-4.668-0.164l-0.027,0.648l4.379,0.238
c0.078,0.659-0.266,2.086,0.297,2.327c1.227,0.509,1.895-1.069,0.855-2.019c-0.371-0.328-0.77-0.477,0.258-0.942
c0.68-0.577,0.785-1.71,0.207-2.214C127.66,157.277,127.434,157.203,127.262,157.207L127.262,157.207z M68.184,157.398l-0.235,1.729
l-2.707,0.685l-0.07-1.853L68.184,157.398z M100.125,158.012c10,2.695,21.113,8.809,28.332,15.715l-1.445,0.949
c-7.5-6.93-17.391-12.188-26.48-14.798L100.125,158.012z M82.899,158.277c16.464-0.043,31.472,6.354,43.585,16.695l-1.98,1.246
c-11.047-9.134-23.289-15.223-39.758-15.949c-10.765-0.474-23.047,2.285-35.156,8.944l-0.898-1.636
C60.449,161.168,71.992,158.309,82.899,158.277L82.899,158.277z M81.602,160.757l6.476,0.192l-0.398,6.011l-5.887-0.19
L81.602,160.757z M74.637,161.188l0.914,5.801l-5.637,1.051l-1.597-5.816L74.637,161.188z M95.137,161.953l6.434,1.715l-2.121,5.914
l-5.648-1.609L95.137,161.953z M84.832,162.039c-1.023,0-1.851,0.828-1.851,1.848c0,1.023,0.828,1.852,1.851,1.852
c1.02,0,1.848-0.828,1.848-1.852C86.68,162.867,85.852,162.039,84.832,162.039L84.832,162.039z M84.832,162.68
c0.68,0,1.231,0.539,1.231,1.207c0,0.672-0.551,1.215-1.231,1.215c-0.683,0-1.234-0.543-1.234-1.215
C83.598,163.219,84.149,162.68,84.832,162.68L84.832,162.68z M72.055,162.691c-1.02,0-1.848,0.824-1.848,1.848
c0,1.02,0.828,1.848,1.848,1.848c1.023,0,1.851-0.828,1.851-1.848C73.906,163.516,73.078,162.691,72.055,162.691L72.055,162.691z
M72.055,163.328c0.684,0,1.234,0.543,1.234,1.211s-0.55,1.214-1.234,1.214c-0.68,0-1.231-0.546-1.231-1.214
S71.375,163.328,72.055,163.328L72.055,163.328z M97.527,164.074c-1.023,0-1.852,0.828-1.852,1.847c0,1.021,0.828,1.849,1.852,1.849
c1.02,0,1.848-0.828,1.848-1.849C99.375,164.902,98.547,164.074,97.527,164.074L97.527,164.074z M61.672,164.289l1.91,5.66
l-5.461,2.211l-2.047-5.59L61.672,164.289z M97.527,164.71c0.68,0,1.23,0.543,1.23,1.211s-0.551,1.216-1.23,1.216
c-0.684,0-1.234-0.548-1.234-1.216S96.844,164.71,97.527,164.71L97.527,164.71z M108.219,166.066l5.793,3.062l-2.996,5.407
l-5.395-2.813L108.219,166.066z M59.739,166.559c-1.02,0-1.848,0.828-1.848,1.848c0,1.023,0.828,1.851,1.848,1.851
c1.023,0,1.851-0.827,1.851-1.851C61.59,167.387,60.762,166.559,59.739,166.559L59.739,166.559z M81.614,166.734l0.269,5.715
l-5.125,0.359l-0.934-5.677L81.614,166.734z M87.766,167.035l5.844,0.809l-1.375,5.504l-5.289-0.852L87.766,167.035z
M59.739,167.195c0.683,0,1.234,0.543,1.234,1.211c0,0.672-0.551,1.215-1.234,1.215c-0.68,0-1.231-0.543-1.231-1.215
C58.508,167.738,59.059,167.195,59.739,167.195L59.739,167.195z M78.887,167.938c-1.02,0-1.848,0.828-1.848,1.848
c0,1.023,0.828,1.852,1.848,1.852c1.019,0,1.848-0.828,1.848-1.852C80.735,168.766,79.906,167.938,78.887,167.938L78.887,167.938z
M69.547,168.168l1.516,5.559l-5.637,1.612l-1.73-5.347L69.547,168.168z M90.008,168.257c-1.019,0-1.848,0.828-1.848,1.849
c0,1.022,0.829,1.848,1.848,1.848c1.023,0,1.852-0.825,1.852-1.848C91.859,169.085,91.031,168.257,90.008,168.257L90.008,168.257z
M78.887,168.578c0.68,0,1.234,0.539,1.234,1.207c0,0.672-0.554,1.215-1.234,1.215c-0.68,0-1.234-0.543-1.234-1.215
C77.653,169.117,78.207,168.578,78.887,168.578L78.887,168.578z M90.008,168.895c0.684,0,1.234,0.543,1.234,1.211
s-0.551,1.215-1.234,1.215c-0.68,0-1.23-0.547-1.23-1.215S89.328,168.895,90.008,168.895L90.008,168.895z M109.789,168.906
c-1.023,0-1.852,0.828-1.852,1.851c0,1.021,0.828,1.849,1.852,1.849c1.02,0,1.848-0.828,1.848-1.849
C111.637,169.734,110.809,168.906,109.789,168.906L109.789,168.906z M99.781,169.445l5.648,1.933l-2.254,5.278l-5.402-2.059
L99.781,169.445z M109.789,169.546c0.68,0,1.23,0.539,1.23,1.211c0,0.669-0.551,1.212-1.23,1.212c-0.684,0-1.234-0.543-1.234-1.212
C108.555,170.085,109.105,169.546,109.789,169.546L109.789,169.546z M67.301,169.742c-1.02,0-1.848,0.828-1.848,1.852
c0,1.02,0.828,1.848,1.848,1.848c1.023,0,1.852-0.828,1.852-1.848C69.153,170.57,68.324,169.742,67.301,169.742L67.301,169.742z
M67.301,170.382c0.684,0,1.234,0.539,1.234,1.212c0,0.668-0.55,1.211-1.234,1.211c-0.68,0-1.23-0.543-1.23-1.211
C66.071,170.921,66.621,170.382,67.301,170.382L67.301,170.382z M101.52,171.46c-1.02,0-1.848,0.829-1.848,1.853
c0,1.02,0.828,1.848,1.848,1.848c1.023,0,1.852-0.828,1.852-1.848C103.371,172.289,102.543,171.46,101.52,171.46L101.52,171.46z
M101.52,172.102c0.684,0,1.234,0.539,1.234,1.211c0,0.668-0.551,1.211-1.234,1.211c-0.68,0-1.23-0.543-1.23-1.211
C100.289,172.641,100.84,172.102,101.52,172.102L101.52,172.102z M35.364,172.746c1.476,0.063,2.585,1.386,2.656,2.77
c0.051,1.051-1.289,2.426-1.289,2.426l-1.559-1.445l-1.496,1.379c-0.254,0.085-1.418-1.891-1.062-2.915
C33.078,173.628,34.028,172.688,35.364,172.746L35.364,172.746z M119.336,172.746l4.473,3.66c0,0-1.965,1.191-2.328,1.406
c0.047-0.16,0.066-0.328,0.066-0.504c0-1.02-0.828-1.849-1.852-1.849c-1.02,0-1.848,0.829-1.848,1.849
c0,0.879,0.613,1.612,1.43,1.805c-0.461,0.265-1.07,0.605-1.07,0.605l-2.363-1.98L119.336,172.746z M112.254,182.527l-1.98,0.812
c-12.18-8-28.84-12.379-47.887-4.323l-0.656-1.578C75.871,171.55,93.711,169.714,112.254,182.527L112.254,182.527z M111.172,174.531
l4.793,2.941l-3.043,4.672l-4.684-2.992L111.172,174.531z M109.723,183.594l-2.012,0.754c-14.867-9.552-30.711-9.043-44.871-3.316
l-0.219-1.34C79.293,172.473,96.027,174.77,109.723,183.594L109.723,183.594z M119.695,176.102c0.684,0,1.234,0.539,1.234,1.207
c0,0.672-0.551,1.215-1.234,1.215c-0.68,0-1.23-0.543-1.23-1.215C118.465,176.641,119.016,176.102,119.695,176.102L119.695,176.102z
M33.196,178.293l-1.657,1.667l1.512,1.696c0,0-0.48,0.402-0.828,0.594c-1.977,1.074-4.141-0.625-4.039-2.461
C28.336,177.113,31.559,175.835,33.196,178.293L33.196,178.293z M111.859,177.012c-1.02,0-1.848,0.827-1.848,1.852
c0,1.019,0.828,1.847,1.848,1.847c1.023,0,1.852-0.828,1.852-1.847C113.711,177.839,112.883,177.012,111.859,177.012
L111.859,177.012z M39.887,177.089c1.469,0.013,2.613,1.142,2.754,2.438c0.113,1.039-0.426,2.035-1.586,2.738
c-1.578,0.957-3.41-0.595-3.379-0.688l1.332-1.313l-1.602-1.638C37.364,178.598,38.461,177.078,39.887,177.089L39.887,177.089z
M35.281,177.406l2.727,2.715l-2.883,2.688l-2.668-2.684L35.281,177.406z M107.113,184.632l-1.527,0.703l-2.086-1.257l-0.617,1.184
l1.16,0.734l-1.203,0.453c-13.891-7.805-29.586-5.543-40.019-0.364c0,0,0.089-0.804,0.093-0.804l1.137-0.578l-0.426-1.438
l-0.605,0.18l-0.047-1.594C77.867,175.145,94.773,176.68,107.113,184.632L107.113,184.632z M111.859,177.652
c0.684,0,1.234,0.539,1.234,1.211c0,0.668-0.551,1.215-1.234,1.215c-0.68-0.004-1.23-0.547-1.23-1.215
C110.629,178.191,111.18,177.652,111.859,177.652L111.859,177.652z M35.227,178.625l-1.453,1.445l1.445,1.539l1.41-1.492
L35.227,178.625z M80.696,178.945l-1.907,0.082l0.102,1.555l1.855-0.047L80.696,178.945z M81.992,178.953l0.036,1.55l1.726-0.007
l-0.008-1.532L81.992,178.953z M85.055,178.977l-0.086,1.547l1.715,0.078l0.125-1.539L85.055,178.977z M77.656,179.176l-1.949,0.211
l0.219,1.559l1.844-0.215L77.656,179.176z M88.25,179.199l-0.14,1.594l1.761,0.199l0.239-1.523L88.25,179.199z M35.235,179.207
l0.847,0.898l-0.843,0.84l-0.899-0.875L35.235,179.207z M74.371,179.68l-1.879,0.297l0.2,1.605l1.836-0.363L74.371,179.68z
M91.426,179.68l-0.313,1.488l1.75,0.417l0.285-1.515L91.426,179.68z M71.289,180.332l-1.578,0.418l0.34,1.566l1.672-0.41
L71.289,180.332z M94.43,180.391l-0.332,1.512l1.781,0.484l0.359-1.449L94.43,180.391z M68.68,181.145l-1.652,0.586l0.429,1.444
l1.68-0.565L68.68,181.145z M97.5,181.309l-0.551,1.453l1.543,0.62l0.684-1.319L97.5,181.309z M65.953,182.16l-1.566,0.645
l0.644,1.438l1.489-0.68L65.953,182.16z M33.633,182.207l1.59,1.582l1.883-1.7c1.648,1.454,1.621,4.856-1.293,5.427
C33.27,188.012,30.942,184.203,33.633,182.207L33.633,182.207z M100.332,182.512l-0.605,1.332l1.707,0.75l0.59-1.281
L100.332,182.512z M51.649,191.063l21.535,36.605l-3.406-0.066l-20.84-35.371L51.649,191.063z M48.114,192.457l1.191,1.852
c-2.332-1.855-5.762-0.297-5.617,2.043c0.117,1.047,1,1.684,1.004,0.676c-0.106-1.051,1.382-1.969,2.464-1.918
c1.997,0.027,3.215,2.59,1.84,3.867c-0.906,0.836-2.132,0.797-1.718-0.349c0.062-0.394,0.031-0.539-0.157-0.707
c-0.57-0.522-1.629,0.157-1.371,0.907c0.168,0.488,0.219,0.609-0.371,1.016c-2.281,1.605-0.691,4.766,2.074,3.324
c0.567-0.204,0.797-0.234,1.051-0.133c1.152,0.441,1.938-0.559,0.844-1.075c-0.633-0.304-0.649-0.819-0.039-1.226
c1.308-0.871,3.34,0.492,3.336,2.234c-0.008,1.234-1.637,2.145-3.196,1.788c-0.929-0.214-1.039,0.414-0.187,1.067
c1.644,1.261,4.113,0.215,4.848-2.059c0.234-0.716,0.199-0.863,0.199-0.863l2.199,3.629c0,0-0.684-0.324-1.094-0.449
c-2.07-0.633-4.39,0.711-4.398,2.543c-0.004,0.863,0.508,1.195,0.797,0.52c0.664-1.578,2.113-2.191,3.601-1.527
c1.375,0.617,2.004,2.011,1.465,3.254c-0.562,1.3-2.449,1.684-2.238,0.453c0.105-0.586-0.254-0.946-0.883-0.887
c-0.238,0.022-0.547,0.715-0.465,1.051c0.078,0.308,0.024,0.387-0.785,1.015c-1.918,1.497-0.441,3.942,1.953,3.231
c0.403-0.117,0.555-0.106,0.914,0.065c0.867,0.419,1.778,0.157,1.778-0.507c0.003-0.458-0.204-0.633-0.747-0.637
c-0.82-0.004-0.644-0.93,0.266-1.387c2.281-1.138,4.609,1.737,3.223,3.98c-0.598,0.964-0.977,1.063-3.106,0.828
c-0.343-0.039-0.5,0.199-0.297,0.477c0.633,0.895,2.508,1.18,3.602,0.684c1.18-0.535,1.898-1.883,1.98-3.32l2.411,4.207
c-1.875-1.957-5.11-1.207-5.629,1.598c0,0.711,0.648,1.082,0.871,0.496c0.976-2.531,4.679-1.755,4.672,0.98
c-0.004,0.438-0.09,0.688-0.371,1.074c-0.68,1.312-2.418,1.637-2.106,0.457c0.141-0.363-0.137-0.758-0.613-0.875
c-0.473-0.109-0.774,0.281-0.762,1c0.012,0.535,0.016,0.699,0.016,0.699c-0.867,0.366-1.422,1.082-1.614,2.141l-16.871,0.039
c2.008-11.695,1.536-22.25-2.3-32.234c-0.329-0.868-0.805-2.125-0.805-2.125l2.976,0.078c0.719,0.621,3.434,0.379,4.493-0.582
L48.114,192.457z M50.977,197.05l1.742,3.13c-0.719-0.414-1.453-0.688-2.578-0.781C50.727,198.527,50.774,197.75,50.977,197.05
L50.977,197.05z M46.399,200.375c0.632,0,1.148,0.516,1.148,1.148c0,0.637-0.516,1.147-1.148,1.147
c-0.637,0-1.153-0.511-1.153-1.147C45.246,200.891,45.762,200.375,46.399,200.375L46.399,200.375z M58.41,209.727l1.68,2.983
c-0.816-0.347-1.508-0.687-2.785-0.718C57.77,211.449,58.172,210.539,58.41,209.727L58.41,209.727z M53.571,212.921
c0.601,0,1.089,0.489,1.089,1.095c0,0.602-0.488,1.086-1.089,1.086c-0.602,0-1.086-0.484-1.086-1.086
C52.485,213.41,52.969,212.921,53.571,212.921L53.571,212.921z M65.731,222.234l2.476,4.391c-0.976-0.555-2.023-1.262-3.34-1.129
C65.492,224.16,65.836,223.43,65.731,222.234L65.731,222.234z M62.434,227.714l-2.656,0.009
C60.309,225.402,62.453,226.003,62.434,227.714L62.434,227.714z M64.949,226.594c0.903,0.047,1.68,0.355,2.168,1.145l-3.343,0.008
C63.774,227.746,63.797,226.589,64.949,226.594L64.949,226.594z M64.949,226.594"/>
</svg>
