<?xml version="1.0" encoding="utf-8"?>
<!DOCTYPE svg PUBLIC "-//W3C//DTD SVG 1.1//EN" "http://www.w3.org/Graphics/SVG/1.1/DTD/svg11.dtd" [
<!ENTITY ns_svg "http://www.w3.org/2000/svg">
<!ENTITY ns_xlink "http://www.w3.org/1999/xlink">
]>
<svg version="1.1" id="Layer_1" xmlns="&ns_svg;" xmlns:xlink="&ns_xlink;" width="179.379" height="250.246"
viewBox="0 0 179.379 250.246" overflow="visible" enable-background="new 0 0 179.379 250.246" xml:space="preserve">
<path fill="#FFFFFF" d="M8.903,0.398h161.574c4.711,0,8.504,3.793,8.504,8.504v232.441c0,4.711-3.793,8.504-8.504,8.504H8.903
c-4.711,0-8.504-3.793-8.504-8.504V8.902C0.399,4.191,4.192,0.398,8.903,0.398L8.903,0.398z M8.903,0.398"/>
<path fill="none" stroke="#000000" stroke-width="0.7974" d="M8.903,0.398h161.574c4.711,0,8.504,3.793,8.504,8.504v232.441
c0,4.711-3.793,8.504-8.504,8.504H8.903c-4.711,0-8.504-3.793-8.504-8.504V8.902C0.399,4.191,4.192,0.398,8.903,0.398L8.903,0.398z
M8.903,0.398"/>
<path fill="#E2CF00" d="M65.383,209.253l42.73,0.915c3.785,5.195,11.387,15.789,11.387,15.789l-69.039,0.906L65.383,209.253z
M47.5,212.871c1.848-3.7,2.203-7.27,1.852-12.411c-0.278-3.944,2.207-7.019,4.769-5.839c1.981,0.91,1.067,4.645-0.984,3.852
c-0.781-0.302-1.469-0.027-1.367,1.746c0.183,4.37,1.355,9.293,0.347,13.48C51.418,217.77,45.785,215.895,47.5,212.871L47.5,212.871
z M30.199,207.164c-2.175-3.243,1.723-6.286,4.165-4.786c1.156,0.536,0.992,1.707-0.465,1.082c-2.035-0.871-4.227,2.215-2.457,3.454
c0.816,0.57,1.129,0.492,0.507-0.223c-1.652-1.906,2.571-2.75,2.45-1.492c-0.289,1.531-0.325,2.176-0.465,2.477
C33.074,209.012,31.418,208.328,30.199,207.164L30.199,207.164z M36.266,193.523c-0.266-0.781-0.914-1.728-0.988-2.781
c0.691-1.926,1.636-2.461,0.488-4.668c-1.34-4.895-4.836-9.813-3.957-9.98c7.953-0.841,15.953-0.391,23.918-0.145
c0,0-4.758,7.465-5.942,11.351c-0.48,1.591,0.914,3.298,0.254,4.423c-1.047,1.78-1.769,2.461-1.488,2.801
c0.59,0.715-0.492,2.062-0.566,2.008c-3.586-0.461-7.133-1.051-11.114-0.258C36.578,196.273,36.547,194.609,36.266,193.523
L36.266,193.523z M70.688,112.449c3.918,21.047-1.934,42.097-15.5,56.156c-1.918-1.832-3.387-5.31-5.301-7.574
c-5.309-1.586-9.133,0.277-12.856,2.105c-3.308-1.895-7.035-3.012-10.667-2.961l-0.118-3.148c3.676-0.078,7.559,0.262,10.832,2.273
l5.121-2.066l-15.968-16.469l0.215-2.813l14.226,14.684c6.899-14.207,5.969-30.395,29.477-40.398
C70.149,112.238,70.535,112.352,70.688,112.449L70.688,112.449z M97.703,137.992l2.801,13.285c0,0-14.808,15.854-23.965,23.387
l-6.902-0.625c0,0,9.426-16.664,7.699-15.391L97.703,137.992z M153.383,156.21c-6.578,7.321-14.438,11.978-23.164,17.106
c-3.492-3.875-7.727-8.137-10.172-11.957c-0.121-0.199,5.543-2.703,11.168-6.188c5.75-3.562,11.367-8.136,11.16-8.069
c-0.406,0.457-9.512,3.526-9.48,3.176l-0.594,2.566l-1.02,0.273c-1.754-2.434-3.449-4.41-6.211-5.5
c-1.16,0.105-2.703-0.657-2.699-0.657c0.773-0.16,0.43-9.5,0-9.608c0,0,0.227-0.277,2.254-0.234c3.617-0.25,5.953-4.598,8.195-6.086
c7.016-0.574,13.227,0.113,20.133-0.074C152.902,139.273,153.383,147.895,153.383,156.21L153.383,156.21z M108.852,135.148
c-0.176-0.353-1.945-14.129-0.266-22.77c0.309-2.027,3.523-2.715,4.137-4.223c1.023-3.285-0.512-7.336,0.297-11.016
c0.824-3.742,2.605-5.848,4.16-8.633c1.688-3.012,4.102-6.773,6.777-9.023c0.785-0.762,3.527,1.699,5.578,5.957
c0.727,1.035,5.246,1.746,8.211,1.336c4.16-0.781,5.277-3.77,7.637-0.969c2.813,1.781,7.406,2.27,7.406,2.27l-0.215,2.887
c0,0-9.43-1.703-9.5-2.402c0,0-5.148,1.664-5.148,2.004c0,1.449,14.777,15.07,14.777,15.07l0.086,3.359
c-2.215-3.066-19.551-17.816-19.551-17.816C137.082,113.617,127.902,127.594,108.852,135.148L108.852,135.148z M84.055,130.757
l-0.332-13.214l12.629,0.148l0.52,13.354L84.055,130.757z M26.262,116.473c0.34-0.469-0.488-24.629-0.438-24.629
c8.04-7.953,15.899-12.402,23.782-17.238c3.562,3.512,6.531,6.395,9.156,10.648L48.047,92.09c-0.676,1.082,3.516,7,6.274,7.703
c0.293,0.074,1.367-0.355,1.871-0.34c0.679,0.023,0.988,0.832,0.941,1.285c-0.949,4.066,0.422,7.52,0.602,9.703
c0.031,0.402-0.715,0.297-0.883,0.641c-0.262,0.527-1.496-0.5-2.43-0.695c-1.512-0.32-3.109,1.191-3.797,1.82
c-1.832,1.664-0.66,4.727-4.347,4.59C39.516,116.547,25.883,117,26.262,116.473L26.262,116.473z M102.348,73.391
c0.086-0.086,6.871,0.055,6.781,0.297c-1.234,3.297-4.305,9.152-7.113,15.906c-3.234,5.758-7.727,9.152-11.559,12.926
c-3.062,3.016-5.793,7.77-7.886,6.535c-1.278-4.086-1.575-7.711-2.985-12.238C78.942,94.133,82.86,92.387,102.348,73.391
L102.348,73.391z M132.039,50.738c2.488,1.055,9.469,0.504,10.578,0.027c1.422,0.961,0.535,2.238,0.355,2.949
c1.457,1.836,2.254,2.488,0.602,5.449c-0.121,0.016,4.262,10.391,4.262,10.391c-0.418,0.234-1.012,0.48-1.738,0.723
c-1.047,0.352-4.605-2.996-4.605-2.996c-0.199-0.934-4.484,4.852-4.484,4.852l-4.633-5.957c-0.016,0.535-8.922,6.418-9.031,6.133
c-0.277-0.277,8.133-9.293,6.465-14.586c-0.402-1.277,0.52-2.574,1.148-3.695C131.387,53.254,130.809,51.766,132.039,50.738
L132.039,50.738z M126.375,53.281c-1.727-0.863-1.809-3.516,0.438-3.387c0.836,0.047,0.836-0.313,0.406-4.547
c-0.598-5.84-0.234-10.266,0.789-11.691c1.164-1.629,3.273-1.711,4.152-0.379c0.672,1.852-1.332,4.43-1.734,5.688
c-1.305,3.508,0.555,8.137-0.391,11.449C129.32,52.668,127.73,53.957,126.375,53.281L126.375,53.281z M146.262,44.719
c-1.531-0.195-0.48-4.578-0.207-5.645c-0.004-0.254,2.73-0.887,3.719,0.859C151.367,42.539,149.453,45.832,146.262,44.719
L146.262,44.719z M128.469,22.34l-14.055,17.02c-14.211-1.629-28.472-2.664-43.004-0.449L59.727,22.68L128.469,22.34z
M128.469,22.34"/>
<path fill="#131F67" d="M153.973,21.094L23.946,21.496l1.425,206.41l129.731-0.766L153.973,21.094z M124.055,22.359
c1.426,0,2.852,0.004,4.277,0.008l-15.566,19.066l-0.383,0.125c1.039,3.027,2.52,6.801,3.934,9.664
c2.25,4.629,7.91,13.137,4.379,19.945c-0.344,0.582-0.668,0.867-1.102,0.863c-0.598-0.004-0.586-0.352-0.23-1.035
c0.789-1.504,1.32-5.07,1.008-6.953c-0.203-1.207-0.875-3.063-2.148-5.867c-5.918-10.875-7.766-16.676-7.43-16.676
c-0.078-0.047-0.211-0.113-0.426-0.164l-0.582-0.195c2.051,6.879,5.383,12.66,8.02,18.012c2.16,4.977,2.395,6.906,1.262,10.527
c-0.438,1.402-1.227,2.301-2.008,2.297c-0.582-0.004-0.547-0.121-0.152-0.832c2.074-3.707,1.594-7.75-0.98-12.453
c-3.742-7.766-5.988-12.68-7.32-17.664c-0.031-0.004-0.684-0.219-0.914-0.273c1.109,5.184,4.207,11.168,7.094,17.289
c2.387,4.715,3.074,8.152,2.215,10.863c-0.281,1.18-1.184,2.93-2.32,2.98c-0.445,0-0.516-0.23-0.094-0.836
c1.766-3.02,2.082-5.805-1.082-12.145c-2.91-5.828-5.828-12.352-6.824-18.051c-0.066-0.469-1.328-1.02-1.059-0.246
c1.563,6.73,4.672,13.621,7.977,20.344c1.859,4.168,2.051,6.84,0.656,9.172c-0.781,1.305-0.977,1.602-1.563,1.617
c-0.691,0.012-0.68,0.039-0.297-0.754c1.688-3.508,1.41-6.598-0.848-11.668c-3.09-6.953-5.695-12.707-6.809-18.824
c-0.199-0.059-1.246-0.461-1.098-0.156c1.547,5.828,3.527,11.238,6.078,16.711c0.887,1.898,2.328,5.59,2.793,7.438
c0.883,3.523-1.105,8.359-3.707,8.602c-0.973,0.094-0.852-0.391,0.23-1.391c1.859-1.727,2.223-4.48,1.59-7.672
c-0.473-2.461-1.289-5.098-2.414-7.777c-2.27-5.422-4.742-11.098-5.523-16.102c0.027-0.445-1.016-0.449-0.719,0.02
c0.559,3.52,1.902,7.527,3.367,11.25c1.609,4.07,4,8.633,4.781,13.629c0.641,4.09-1.918,7.949-5.023,8.18
c-3.742,0.277-4.477-3.414-3.578-5.141c1.469-2.586,5.73-1.109,4.465,1.531c-0.73,1.52-2.957,1.121-2.863-0.547
c-0.027-0.152,0.215-0.609,0.172-0.633c-0.078-0.047-0.406,0.254-0.508,0.441c-0.758,1.348,1.516,3.16,3.094,2.074
c5.297-2.859,1.723-11.582-0.586-16.91c-2.234-4.965-3.875-9.449-4.586-14.047c-0.195-0.133-1.066-0.352-0.945-0.195
c0.641,2.453,0.938,4.52,1.574,6.582c1,3.23,2.797,6.848,4.262,10.473c1.328,3.566,2.664,6.598,2.055,10.313
c-0.055,0.344-0.195,0.758-0.43,1.008c-0.238,0.25-0.438,0.211-0.508-0.738c-0.023-0.129-0.191-0.297-0.215-0.461
c0.129-1.398,0.035-2.781-0.328-4.098c-0.309-1.098-0.898-2.223-2.145-4.359c-0.488-0.797-1.773-3.23-1.324-1.551
c0.258,0.953,1.141,3.066,2.059,4.598c0.57,0.949,1.168,3.547,0.988,4.047c-0.184,0.488-0.621,0.52-0.82,0.348
c-0.184-0.152-0.184-0.844-0.23-1.273c-0.191-1.762-2-4.84-3.258-6.047c-0.898-1.004,2.125,4.266,2.348,5.672
c0.094,0.594,0.281,1.078,0.074,1.367c-0.133,0.195-0.402,0.195-0.672,0.129c-0.254-0.066-0.242-0.242-0.516-1.148
c-0.465-1.547-1.035-2.328-2.227-3.723c-0.41-0.48-0.68,0.117-0.031,0.895c0.898,1.414,1.574,2.32,1.805,4.141
c-0.582,0.824-0.871,0.664-2.09-1.422c-0.805-1.379-1.289-1.734-1.5-1.723c-0.531,0.023-0.027,0.684,1.469,3.039
c0.777,1.258,0.797,2.039-0.086,2.035c-0.297,0-1.977-1.84-2.395-2.637c-0.348-0.664-0.781-1.172-0.781-0.363
c0,0.32,1.035,2.016,1.75,2.836c1.121,1.297,1.441,1.555,1.586,2.129c0.066,0.273,0.203,0.754,0.301,1.063
c0.285,0.934,0.141,1.199-0.441,0.707c-0.262-0.691-0.477-0.762-1.199-1.293c-0.609-0.449-1.453-1.609-2.008-2.43
c-0.211-0.309-0.391-0.703-0.602-1.02c-0.547-1.012-1.27-1.098-0.746-0.078c0.25,0.477,0.648,1.254,1.07,1.828
c0.703,1.004,0.559,1.523-0.277,1.52c-0.359,0-1.359-1.309-1.984-2.336c-0.41-0.664-1.047-1.137-0.969-0.477
c0.02,0.164,0.512,1.336,1.254,2.254c0.801,0.996,0.906,1.527,0.129,1.523c-0.535-0.004-0.992-0.508-1.672-1.543
c-0.645-0.98-1.047-1.324-1.23-1.215c-0.23,0.145,0.926,2.086,1.875,3.148c0.898,1.004,0.242,1.574-0.793,0.684
c-0.559-0.484-1.68-1.93-1.996-2.617c-0.562-1.227-0.926-0.891-0.562,0.082c0.402,1.07,1.027,2.242,1.781,3.004
c0.395,0.402,1.211,0.715,1.609,1.059c1.129,0.973,1.844,1.867,1.75,2.027c-3.215,0.184-5.855-3.238-6.578-5.309
c-0.512-1.363-1.098-1.563-0.543,0.359c1.566,4.777,6.457,7.258,9.836,5.117c2.039-1.293,0.238-4.656-1.434-3.57
c-0.453,0.293-0.473,1.129,0.105,0.684c1.082-0.84,2.172,1.23,0.988,1.844c-1.66,0.863-3.508-0.824-2.375-2.871
c1.117-2.098,5.598-0.895,4.723,2.496c-0.531,1.523-2.859,3.422-4.852,3.461c-3.707,0.07-6.265-2.762-7.691-5.559
c-0.34-0.668-1.184-2.547-1.227-2.539c0.414,3.395,3.672,7.625,6.586,8.316c4.844,1.137,6.168-1.742,9.336-4.715
c0,0,2.313,0.301,2.395,0.254c0.215-0.133,4.504-0.324,4.633-0.203c-17.332,31.32-16.016,68.504-1.109,96.727
c0.984,2.063,1.156,1.671-0.477,1.25c-1.684-0.438-3.215,0.238-4.586-0.079c-2.832-0.577-3.434,1.353-5.613,2.379
c-2.715,1.024-2.102,2.907-2.746,4.724c-0.207,0.281-0.359,0.496-0.25,0.461c0.18-0.063,0.766-0.578,0.809-1.051
c0.113-1.203,0.543-2.152,1.035-2.634c0.465-0.456,0.793-0.687,0.906-0.487c0.09,0.151,0.023,0.69-0.207,1.125
c-0.66,1.242,0.215,5.391,0.27,2.438c0.043-2.344,1.465-4.957,3.461-6.023c1.594-0.781,2.09-0.699,0.793,0.496
c-1.477,1.57-2.48,3.398-2.543,5.672c-0.023,0.94,0.352,1.73,0.488,0.883c-0.059-4.328,4.285-9.152,8.941-6.754
c0.23,0.164,0.426,0.479,0.359,0.656c-4.512-0.754-8.434,1.698-7.855,7.516c0,0,0.406-1.141,0.633-2.277
c0.711-3.559,4.75-5.118,7.582-4.141c0.535,0.223,0.953,0.973,0.879,1.074c-3.465-1.086-7.27,2.18-7.488,5.715
c-0.074,1.152-0.047,2.137,0.543,0.062c2.238-7.858,9.145-4.296,8.293-3.651c-5.34-0.638-7.273,2.948-7.152,7.09
c0.078,0.379,0.273,0.508,0.434,0.859c0.711,1.559,1.035,2.898,1.094,5.73c-0.055,0.73,0.551,5.375-0.063,5.179
c-1.938-0.714-3.414-1.558-6.777-0.05c-0.301,0.016-0.402-0.153-0.297-0.414c0.141-0.352,0.664-1.047,1.582-2.075
c2.066-2.19,0.879-1.604-0.82-0.082c-1.098,0.981-0.859,0.31,0.176-3.046c0.418-1.359,0.156-1.523-1.645-2.438
c-1.855-0.938-3.137-1.082-1.563-0.099c0.617,0.375,1.273,0.771,1.977,1.048c0.82,0.448,0.727,0.637,0.121,2.598
c-1.18,3.808-1.586,5.203-1.527,7.766c0.152,6.23,6.113,5.613,9.504,4.21l0.141,4.106l12.781,17.937c0,0-44.671-0.046-68.566,0.345
c1.363-3.266,15.809-17.098,16.672-19.57c0.082,0.012-1.602-5.059-2.488-7.262c-4.18-10.414-9.672-14.789-6.489-21.633
c0.684-1.355,0.801-1.813,1.321-1.809c0.707,0.004,0.933,0.468,0.14,1.797c-3.414,5.707,3.871,15.555,6.332,21.832
c0.395,1.007,2.043,5.718,2.332,7.309c0.028,0.484,1.184,0.648,0.864,0.082c-0.91-3.207-2.047-6.716-2.578-7.977
c-1.946-4.637-3.993-7.801-5.887-12.332c-1.063-2.864-1.625-6.172,0.019-9.141c0.598-1.082,0.77-1.681,1.164-1.738
c0.34,0.004,0.54,0.117,0.563,0.395c0.023,0.305-0.164,0.801-0.613,1.563c-2.871,4.867,2.23,12.738,4.761,18.347
c1.649,3.661,3.114,7.504,3.633,10.978c0.008,0.238,0.324,0.871,0.957,0.44c-1.093-6.483-4.308-12.765-7.125-18.819
c-2.406-4.73-3.308-8.855-0.093-12.75c0.281-0.27,0.878-0.224,0.921,0.176c0.024,0.269-0.183,0.781-0.683,1.82
c-2.832,5.902,1.551,10.695,3.609,16.323c2.004,4.704,3.871,8.657,4.621,13.668c0.571,0.216,0.852,0.485,0.91-0.226
c-1.468-7.082-4.632-13.449-7.378-19.586c-1.266-2.664-1.715-3.942-1.801-5.728c-0.117-2.452,1.121-5.558,2.23-6.379
c0.289-0.214,0.469-0.25,0.735-0.108c0.359,0.194,0.289,0.328-0.426,1.672c-1.363,2.57-1.481,5.453-0.215,8.508
c2.18,4.688,4.019,8.531,5.32,11.98c1.426,3.77,2.227,7.039,2.551,9.996c0,0,0.973,0.43,0.828-0.216
c-0.605-4.132-1.976-8.421-3.457-12.05c-1.394-3.426-3.144-6.723-4.562-10.118c-1.719-4.073-0.293-8.526,3.23-10.75l1.625,0.036
c-0.098-0.043-3.699,1.382-3.891,6.52c-0.179,4.891,2.145,7.898,3.829,12.043c2.05,5,3.882,9.383,4.32,14.727
c0.16,0.184,1.047,0.227,1.031,0.145c-0.433-3.595-1.488-7.009-2.992-11.207c-1.598-4.461-3.188-6.441-4.668-11.125
c-1.004-3.172-0.867-7.466,1.367-9.427c3.344-3.366,8.008-0.968,6.84,2.884c-0.902,2.715-4.629,2.176-4.609-0.367
c-0.004-1.642,2.023-2.086,2.691-0.849c0.156,0.243,0.262,1.298,0.332,1.341c0.07,0.039,0.277-0.832,0.281-1.027
c0.004-1.348-1.832-2.484-3.199-1.797c-1.871,0.934-3.086,3.09-2.965,5.977c0.133,3.07,0.692,5.055,3.211,9.867
c2.934,5.609,3.91,11.679,4.535,15.773c0.27-0.113,0.598,0.03,0.704,0c-0.43-5.578-2.27-11.309-4.563-16.07
c-2.777-5.771-3.555-9.301-2.629-11.887c0.137-0.379,0.266-0.664,0.434-0.691c0.308-0.043,0.406,0.449,0.695,1.484
c0.086,0.319-0.023,0.819-0.09,1.203c-0.242,2.366,1.422,7.289,2.969,9.477c0.453,0.625,1.031,0.601,0.531-0.504
c-1.594-2.859-2.562-5.453-2.691-8.93c-0.035-1.02,1.156-0.563,1.183-0.052c0.086,1.661,0.254,3.618,1.051,5.009
c1.613,2.754,2.516,2.875,0.86-0.199c-0.368-0.715-1.418-3.73-0.993-4.77c0.235-0.211,0.524-0.25,0.664-0.036
c0.469,1.703,1.114,3.392,2.258,4.707c0.602,0.685,0.699,0.371,0.383-0.479c-0.527-0.988-2.176-4.289-1.414-5.031
c0.242-0.203,0.102-0.094,0.766,0.988c0.925,1.508,1.433,2.098,1.882,2.539c0.598,0.586,0.746,0.19,0.125-0.84
c-1.238-2.056-1.941-3.766-1.504-4.199c0.426-0.422,0.532-0.228,1.508,1.43c0.434,0.738,1.063,1.824,1.282,2.082
c0.21,0.254,0.406,0.32,0.41,0.109c-0.227-2-1.95-4.281-2.645-4.676c-0.097-0.188-0.062-1.766-0.062-1.766
c2.59,1.328,2.695,2.828,4.41,5.136c0.176,0.169,0.426-0.038,0.351-0.358c-0.058-0.435-1.074-2.353-1.711-3.195
c-0.5-0.664-0.523-1.043-0.097-1.234c0.683-0.309,1.644,0.707,2.664,2.52c0.473,0.844,1.105,1.332,1.109,0.89
c0-0.241-0.883-2.414-1.488-3.043c-1.016-1.042-0.512-1.772,0.66-0.808c0.531,0.441,1.254,0.769,1.996,2.367
c0.434,0.93,0.805,1.051,0.809,0.309c0-0.836-1.41-2.879-2.36-3.446c-0.734-0.437-1.148-0.925-0.945-1.254
c0.645-0.94,3.25,1.466,4.141,3.7c0.261,0.66,0.722,0.996,0.832,0.707c0.203-0.148-0.324-1.762-0.867-2.508
c-0.895-1.703-3.008-3.353-4.258-3.152c-0.242,0.039-0.91-1.359-0.91-1.359c3.195-0.516,6.296,3.293,6.847,4.719
c1.051,2.703,1.582,2.387,0.664,0.016c-1.79-4.637-7.347-7.23-10.434-4.988c-1.758,1.277-0.707,4.327,1.101,3.813
c0.719-0.27,1.414-1,0.153-0.758c-1.407,0.141-1.856-1.992-0.422-2.418c2.304-0.688,2.832,2.969,0.972,3.785
c-1.933,0.823-3.855-0.406-3.675-2.516c0.343-3.992,5.269-5.148,10.132-1.918c1.368,0.906,3.051,3.867,3.629,5.742
c0.191,0.621,0.832,0.836,0.914,0.758c0.184-0.184-1.352-3.477-1.855-4.313c-2.117-4.828-9.773-5.066-9.773-4.816
c0,0-3,1.879-5.665,4.973l-6.843-0.625c17.433-27.867,18.804-68.84,0.922-97.844c0.23,0.148,3.437,0.973,4.546,0.105
c0.817-0.391,1.051-0.523,1.95-0.199c1.015,0.363,2.086,0.039,3.187-0.965c0.836-0.758,0.852-0.992,1.387-0.922
c1.59,0.203,2.641-0.723,2.969-3c0.129-0.895,0.218-1.824,0.086-1.691c-0.075,0.082-0.258,0.855-0.375,1.344
c-0.321,1.336-0.618,1.828-1.141,2.266c-0.863,0.719-1.363,0.316-1.004-0.777c0.34-0.703,0.625-2.516,0.156-3.34
c-0.082-0.148-0.101,0.414-0.218,0.863c-0.946,3.57-1.93,5.383-3.641,5.801c-0.801,0.195-1.172,0.074-0.91-0.383
c3.011-3.195,2.808-6.738,2.582-6.438c-0.641,2.051-1.828,5.105-3.785,6.359c-1.688,1.086-4.157,1.188-5.532,0.277
c-0.781-0.516,0.399-0.668,2.164-0.691c2.977-0.043,5.758-3.996,5.297-7.332c-0.109-0.617-0.277,0.043-0.519,1.059
c-1.098,3.609-2.981,6.145-7.285,5.391c-0.336-0.059-0.559-0.281-0.743-0.406c-0.703-0.484-0.445-0.816,0.95-0.633
c3.109,0.402,5.82-2.5,5.8-6.012c-0.007-1.684-0.25-1.664-0.519-0.41c-0.379,1.77-1.762,7.191-6.793,5.422
c-0.906-0.488-1.402-1.117-1.078-1.207c2.933,0.59,5.625-0.055,6.672-3.891c0.449-1.656,0.343-3.277-0.117-4.633
c-0.145-0.918-0.458-1.621-0.563-2.559c-0.281-2.504-0.68-5.273-0.562-8.016c0.242-0.238,0.285-0.188,1.128,0.371
c1.661,1.098,2.914,0.844,4.602,0.195c2.168-0.781,1.973-0.641-0.297,1.914c-0.473,0.531-0.953,1.18-1.004,1.281
c-0.578,1.078,0.504,0.285,1.317-0.73c1.125-1.41,1.363-1.734,1.586-1.734c0.074,1.527-0.477,3.379-0.762,4.629
c-0.375,1.387-0.371,1.707,0.515,2.063c0.383,0.152,1.125,0.457,1.536,0.652c1.859,0.883,1.687,0.164,0.207-0.668
c-2-1.125-2.016-1.07-1.442-2.938c0.668-2.188,0.996-4.082,1.36-6.25c0.898-5.359-3.161-8.305-8.555-6.434
c-0.309,0.152-0.664-2.816-0.613-3.602c0.047-0.285-0.817-0.223-1.524-1.086c0.215-0.191-7.953-10.379-11.758-16.559
C81.239,22.711,102.664,22.352,124.055,22.359L124.055,22.359z M110.793,41.5c0.051,0.035,0.082,0.063,0.082,0.063
C110.84,41.52,110.813,41.5,110.793,41.5L110.793,41.5z M129.277,22.844h22.875l0.332,49.273l-2.027,0.047
c0,0-3.82-6.539-4.824-9.629c-0.254-0.773-0.691-1.836-0.863-2.25c-0.387-0.945-0.66-1.063-0.145-1.641
c1.035-1.156,0.832-3.496-0.172-4.625c-0.313-0.367-0.473-0.242-0.457-1.129c0.012-0.766,0.086-1.254-0.117-1.648
c-0.34-0.66-0.57-0.707-0.086-1.434c0.512-0.758,1.188-1.992,1.473-2.957c0.457-1.566,0.133-1.859,1.16-1.488
c2.574,0.813,4.73-1.016,4.66-3.598c-0.055-2.176-2.098-4.117-4.477-3.52c-0.547,0.137-0.652,0.09-1.496-0.438
c-0.242-0.152-0.613-0.473-0.922-0.59c-0.395-0.148-0.715-0.137-0.879-0.414c-0.32-0.547-1.313-1.414-2.523-1.359
c-0.742,0.035-1.699-0.23-1.957-0.363c-0.422-0.219-1.605-0.039-3.113-0.266c-0.668-0.102-1.207,0.16-1.531,0.164
c-0.926,0.012-0.551-0.105-0.727-0.805c-1.16-3.66-4.555-3.223-6.109-0.473c-0.57,1.082-0.984,2.684-1.199,4.336l-9.141-0.137
L129.277,22.844z M58.539,22.949c3.414,4.328,6.68,9.176,10.121,13.59c4.239,5.348,4.375,5.965,3.239,11.348
c-0.637,3.043-0.907,3.746-2.196,3.516c-1.211-0.219-2.234,0.73-2.402,1.93c-0.309,2.254,1.871,3.641,4.063,2.516
c1.156-0.598,1.195-0.66,0.808,1.305c-0.551,2.813-1.656,5.238-2.367,5.16c-1.836-3.883-6.305-1.121-4.82,2.914
c-0.465,0.703,0.144,1.598,0.379,2.336c0,0,0.007,0.086-2.543,0.93c-12.532,3.691-28.055,13.336-36.532,22.391l-0.574-67.746
L58.539,22.949z M130.449,32.195c0.523-0.016,1.031,0.152,1.449,0.527c1.094,0.977,0.836,2.344-0.676,4.914
c-1.586,3.582-1.152,6.406-0.789,10.168c-0.012,2.188-0.754,4.262-1.934,5.16c-1.914,1.453-4.273-0.492-3.277-2.469
c0.508-0.98,1.586-0.406,1.84-1.336c0.09-0.555,0.082-1.426,0.141-1.84c-0.227-1.648-0.699-6.68-0.703-8.426
c0.02-1.504,0.516-3.395,1.199-4.813C128.367,32.902,129.445,32.219,130.449,32.195L130.449,32.195z M133.461,38.039
c-0.434,0.359-1.156,0.367-1.242-0.082c0.004-0.469,0.371-1.973,0.629-2.137C134.414,35.453,133.914,37.652,133.461,38.039
L133.461,38.039z M135.805,35.695c1.293-0.047,2.148,3.254,1.023,5.184c-0.211,0.039-1.781,0.031-1.789,0.059
c-0.027-0.344,0.074-1.031,0.191-1.691c0.102-0.563,0.16-0.992-0.012-1.598C134.793,36.137,134.52,35.852,135.805,35.695
L135.805,35.695z M138.273,35.742c0.047,0,0.098,0,0.148,0c1.316,0.008,2.066,2.539,1.652,5.305
c-0.059,0.395-0.094,0.813-0.238,0.906c-0.551-0.148-2.074,0.395-2.102,0.391c-0.145-0.148-0.086-0.934,0.109-1.645
c0.359-1.313,0.461-2.184,0.035-3.539C137.578,35.984,137.566,35.762,138.273,35.742L138.273,35.742z M141.547,36.473
c1.445,0.242,1.539,4.23,0.945,5.527c-0.141,0.191-0.688,0.145-0.879,0.215c-1.23,0.352-0.957,0.535-0.813-1.414
c0.098-1.34,0.121-2.379-0.082-3.484c-0.098-0.484-0.137-0.82,0.219-0.852C141.141,36.422,141.359,36.43,141.547,36.473
L141.547,36.473z M134.34,38.031c0.574,0.785,0.113,2.605-0.328,3.281c-0.5,0.746-0.703,0.809-0.43,1.133
c0.117,0.141,0.359,0.844,0.211,1.141c-0.277,0.547,0.43,0.645,1.074,0.98c1.043,0.543,1.547,1.543,2.324,3.367
c0.273,0.637,0.828,0.438,0.559-0.246c-0.23-0.586-0.32-1.449-0.48-2.027c-0.168-0.59,0.016-0.887,0.699-0.711
c1.031,0.258,0.887,0.016,1.262-0.121c0.828-0.457,1.379,0.188,0.883,0.543c-0.285,0.207-0.898,0.332-1.574,0.516
c-0.57,0.16-0.438,0.711,0.137,0.707c0.535-0.004,2.063-0.43,3.059-0.73c2.855-0.863,2.949-1.32,2.684,0.301
c-0.352,2.145-1.523,3.75-3.461,4.297c-1.688,0.473-5.582,0.383-7.316-0.172c-1.648-0.746-1.758-1.266-2.254-2.715
c-0.684-1.98-1.086-5.336-0.301-7.289c0.691-1.645,0.621-1.473,1.281-1.391c0.59,0.207,1.383-0.023,1.559-0.383
C134.016,38.34,134.238,38.027,134.34,38.031L134.34,38.031z M145.273,39.219c0.164,0.883,0.18,1.789-0.129,2.473
c-0.176,0.32-1.176,0.301-1.563,0.309c-0.23,0.051-0.211-2.98,0.035-3.313C144.199,37.816,144.949,38.516,145.273,39.219
L145.273,39.219z M116.301,38.695l2.828,0.035v0.688l-3.336-0.023L116.301,38.695z M126.195,38.813l0.004,0.895l-4.258,0.008v5.586
l4.766,0.016l0.023,1.16l-6.375-0.023l0.02-7.637L126.195,38.813z M147.844,38.637c4.367,0.957,2.418,5.781,0.781,6.07
c-2.039,0.367-3.766,0.137-3.203-1.656c0.57-1.215,0.176-2.73,0.336-3.836C146.152,38.852,147.18,38.488,147.844,38.637
L147.844,38.637z M114.926,40.328l4.203,0.043v0.922l-4.801-0.012L114.926,40.328z M124.262,41.18c0.668,0,1.215,0.543,1.215,1.215
c0,0.668-0.547,1.215-1.215,1.215c-0.672,0-1.215-0.547-1.215-1.215C123.047,41.723,123.59,41.18,124.262,41.18L124.262,41.18z
M136.117,41.66c0.781,0.086,0.848,1.281,0.527,1.629c-0.406,0.406-1.172,0.234-1.406-0.387
C135.027,42.34,135.5,41.637,136.117,41.66L136.117,41.66z M113.754,42.18l5.375,0.016v0.75l-5.43,0.043l-0.145-0.48L113.754,42.18z
M144.012,42.504c0.746-0.02,1.203,0.609,0.734,1.141C144.047,44.426,142.613,43.234,144.012,42.504L144.012,42.504z M86.735,44.137
c-1.204,1.016-0.239,2.012,1.359,1.051c3.438-2.066,8.508-0.43,11.813,1.293c0.648,0.332,0.734-0.441,0.098-0.973
C96.953,42.82,90.446,41.277,86.735,44.137L86.735,44.137z M138.82,42.723c0.84,0.004,0.828,1.051,0.289,1.426
c-0.539,0.234-0.633,0.168-0.992,0.027C137.625,43.984,137.992,42.727,138.82,42.723L138.82,42.723z M141.793,42.738
c0.996,0.051,0.883,2.051-0.617,1.332C140.629,43.484,140.984,42.734,141.793,42.738L141.793,42.738z M114.012,43.77l5.223,0.047
v0.852l-4.887-0.051L114.012,43.77z M80.254,45.773c1.426,1.129,0.985,1.199-1.383,0.367c-1.547-0.344-3.086-0.125-4.054,0.258
c-1.145,0.453-1.411,0.32-0.914-0.445C75.235,44.461,78.906,44.762,80.254,45.773L80.254,45.773z M87.117,47.648
c-0.144,0.352-0.632-0.285-1.293-0.16c-0.945,0.176-0.671,0.219,0.325,1.355c1,1.133,1.324,1.402,1.265,1.84
c-0.09,0.645,0.09,0.996,0.731,0.926c0.308-0.035,0.676,0.324,1.148,0.754c1.633,1.484,2.461,2.223,2.992,2.449
c2.164,0.934,1.188-0.117-0.195-1.074c-2.305-1.59-3.105-2.652-1.469-2.082c1.742,0.602,4.508,0.262,5.871-0.563
c0.672-0.402,1.098-1.023,2.043-0.723c1.328,0.426,1.84-0.355,1.469-0.797c-0.602-0.387-1.98-0.848-3.285-1.727
c-2.801-1.418-5.742-1.375-7.699-0.234c-1.156,0.672-1.559,0.199-0.426-0.469c4.543-2.445,8.137-0.102,11.043,1.656
c0.504,0.305,0.855,0.281,0.859,0.066c-0.078-0.711-1.371-1.148-1.895-1.469C94.551,44.934,90.293,44.148,87.117,47.648
L87.117,47.648z M114.695,45.48l4.539,0.004v0.895l-4.207-0.02L114.695,45.48z M77.758,46.621c1.258-0.004,3.992,1.125,3.945,2.059
c-0.05,0.355-0.738,0.035-1.332-0.328c-1.148-0.699-2.914-0.891-4.578-0.578c-1.273,0.238-1.679,0.445-1.863,0.293
C73.489,47.078,76.59,46.629,77.758,46.621L77.758,46.621z M126.848,47.289l0.004,1.605c-2.461,0.18-2.969,2.918-1.391,4.445
c1.297,1.25,3.441,0.754,4.516-1.016c0.188-0.316,0.211-0.508,0.328-0.352c0.07,0.098,0.133,0.398,0.191,0.688
c0.172,0.844-0.07,1.059-0.629,1.781c-0.902,1.168-1.023,2.637-0.461,3.73c0.156,0.301,0.484,0.734,0.426,0.93
c0.316-0.008-2.797,8.707-7.348,13.098c-0.758,0.504-1.313-0.09-0.918-0.906c3.703-8.469-3.383-16.332-6.137-23.902l11.414-0.102
H126.848z M93.906,48.75l0.652,0.059c-0.523,3.902-4.309,3.273-4.457,0.094l0.547-0.02C91.387,51.84,93.918,50.629,93.906,48.75
L93.906,48.75z M72.528,48.832c0,0,0.269,0.434,0.273,0.68c0,0.906-0.016,2.219-0.039,2.617c-0.219,3.754-4.984,4.449-4.621,1.238
c0.285-1.363,2.008-1.516,2.43-0.281c0.617,1.551,0.73-0.375,0.738-0.977C71.813,51.164,72.18,50.016,72.528,48.832L72.528,48.832z
M95.477,49.098c0.195,0.004,0.543,0.176,0.82,0.469c0.313,0.336,0.195,0.504-0.535,0.883c-0.793,0.406-1.152,0.371-0.867-0.453
C95.07,49.484,95.227,49.09,95.477,49.098L95.477,49.098z M131.105,49.293c0.105,0.008,0.383,0.148,0.316,0.555
c-0.105,0.684-0.695,1.07-0.848,0.906C130.672,50.398,130.789,49.438,131.105,49.293L131.105,49.293z M89.789,50.613
c-0.093,0.273-0.254,0.152-0.672-0.199c-0.457-0.391-0.433-0.637,0.039-0.918C89.836,49.086,89.875,50.359,89.789,50.613
L89.789,50.613z M75.367,49.594c0.797,2.512,2.418,2.191,3.141,0.121l0.695-0.012c-0.152,3.234-4.246,3.176-4.281,0.051
L75.367,49.594z M73.934,49.906c0.242-0.039,0.07,0.801,0.07,0.801s-0.676-0.348-0.277-0.715
C73.774,49.945,73.899,49.91,73.934,49.906L73.934,49.906z M79.946,50.117c0.085-0.004,0.242,0.059,0.41,0.172
c0.398,0.262,0.332,0.418-0.125,0.797c-0.7,0.582-1.016,0.258-0.637-0.523C79.735,50.27,79.84,50.125,79.946,50.117L79.946,50.117z
M132.227,50.664c0.297-0.02,0.711,0.117,1.594,0.352c2.422,0.641,5.664,0.617,8.422-0.141c0.871-0.242,1.52,1.285,1.047,2.398
c-0.207,0.488-0.172,0.551,0.465,1.211c0.898,0.934,1.043,2.441,0.359,3.813c-0.496,1-0.465,0.91,0.125,2.617
c0.27,0.781,0.617,1.578,0.68,1.793c0.746,2.512,2.582,5.48,3.707,7.965c1.117,1.746-2.012,0.02-2.012,0.02s0.844,1.129,1.961,1.973
c1.082,0.82,3.215,0.266,4.191,1.266c0.227,0.316-0.223,6.98-0.453,7.168C142.684,80.648,126.617,81,126.617,81l3.012,4.695
c4.734,1.891,9.262,1.418,13.594-1.309c-0.109,0.395,5.27,3.023,9.684,3.309l0.023,3.156c-3.273-0.367-6.594-0.441-9.637-2.355
c0,0-2.797,1.168-5.598,2.047l15.691,16.23l0.008,2.715c0,0-6.699-6.254-13.594-13.301l0.148,34.66l13.578,0.266
c-0.426,9.019-0.254,14.754-0.164,25.086c-6.414,6.582-15.242,13.168-23.402,17.125c-3.848-3.711-7.027-7.735-9.813-12.035
c-0.059-0.09,0.281-0.262,0.223-0.355c-0.086-0.133-0.566-0.181-0.652-0.313c-1.699-2.523-5.641-9.532-5.016-9.696
c1.207,0.087,6.797-0.604,7.91-3.956c0.008-0.216-0.121-0.813,0.031-1.512c0.391-1.816,0.594-4.575-0.074-6.329
c-1.199-3.159,2.414-2.147,2.535-1.933l-0.004-11.941c-4.703,3.773-9.449,7.484-15.734,9.035
c-3.914-19.715,2.289-44.234,19.973-60.859l-0.969-0.082c-18.168,18.797-22.934,39.469-19.832,61.237c0,0,0.113,0.681,0.133,0.911
c0.043,0.543-0.09,0.75-0.57,1.141c-0.461,0.301-0.875,0.625-0.836,0.995c0.078,0.7-0.594,0.724-1.473,0.72
c-0.406-0.355-0.949,0.094-1.273,0.254c-0.457,0.065-0.684-1.793-1.266-0.431c-0.223,0.864-0.641,0.927-1.613,0.501
c-0.609-0.18-0.625,0.12-0.039,0.827c0.813,0.872,1.496,2.177,1.363,2.567c-0.297,0.879-0.168,1.762,1.07,2.262
c-0.07,0.007-0.746,2.675,1.172,2.598c0.613,0.008,2.16,0.32,2.16,0.32c0.102,0.507-0.063,0.796-0.301,1.023l-1.336-0.668
l-0.352,1.59l-1.781-0.125l4.332,5.348l0.504-4.172l5.066,0.645c0.813,2.109,5.93,13.84,15.707,22.569c0,0-5.344,2.325-6.844,3.056
l-0.93-3.324l-0.84,1.207l-1.496-0.383l-0.176,1.362l-1.332,0.431l2.324,1.754l-5.973,1.815
c-17.055-27.511-24.773-65.729-3.531-106.144l5.367,0.07l-1.047,1.789l1.523-0.242l0.434,1.305l1.117-0.527l1.129,1.414l1.281-3.773
c0,0,3.805,0.086,4.277,0.039c0.371-0.043,8.039-6.473,7.871-6.719c-0.117-0.18-8.348,5.836-8.621,5.605
c0,0-0.828,0.195-0.184-0.574c1.156-1.383,1.969-2.434,3.145-4.418c1.938-2.637,2.805-5.852,3.262-8.031
c0.008-0.152,0.051-0.504-0.078-0.758c-0.738-1.469-0.578-2.426,0.75-4.156c0.465-0.605,0.496-0.754,0.363-1.125
c-0.301-0.84-0.012-1.559,0.598-2.121C131.84,50.785,132,50.68,132.227,50.664L132.227,50.664z M87,56.52
c3.371,1.383,0.664,4.445-1.836,1.773c-1.312-1.398-2.347-1.309-3.062-0.285c-0.321,0.461,0.148,1.27,0.562,1.012
c0.387-0.238,0.782-0.52,1.344-0.004c4.262,3.922,7.32-1.57,3.648-2.934C87.203,55.871,86.555,56.336,87,56.52L87,56.52z
M73.125,56.387c0.031-0.004,0.071,0.012,0.117,0.043c0.161,0.102,0.172,1.488,0.012,2.07c-0.531,2.953-2.637,9.816-6.957,6.457
c-1.715-1.336-0.156-4.684,1.899-3.547c1.601,0.891,0.519,3.012-1.215,1.793c-0.844-0.59-0.575,0.629,0.136,0.977
c1.207,0.629,3.391-0.453,4.414-2.379c0.411-0.766,0.793-2.125,1.223-4.078C72.969,56.738,72.989,56.391,73.125,56.387
L73.125,56.387z M73.489,61.5c0.355,2.133-1.27,5.871-3.583,6.426c-1.769,0.422-3.96-0.73-3.804-1.801
c0.047-0.309,0.172,0.102,1.777,0.363c2.242,0.371,3.668-0.836,4.957-3.625C73.246,61.984,73.418,61.52,73.489,61.5L73.489,61.5z
M79.067,62.52c0,0.242-0.118,0.875-0.215,1.297c-0.242,1.004-0.391,1.383,0.703,0.887c0.723-0.336,1.781-0.664,2.879-0.059
c1.207,0.672,2.359,0.547,3.785-0.055c1.234-0.414,1.836-0.418,2.527-0.02c1.258,0.723,0.828,0.262,0.664-1.566
c-0.113-1.285-0.464-1.113-0.914-0.629c-0.297,0.32-0.898,0.391-1.566,0.031c-0.793-0.43-1.902-0.227-2.277,0.078
c-0.372,0.305-0.911,0.348-1.641-0.148c-0.484-0.324-0.754-0.156-1.348,0.109c-0.98,0.441-1.355,0.203-1.883-0.207
C79.297,61.887,79.071,61.996,79.067,62.52L79.067,62.52z M74.215,64.055c0.129-0.004,0.141,0.488,0.055,1.484
c-0.41,3.66-3.278,5.699-6.653,3.926c-1.476-0.844-1.277-1.438,0.18-0.91c2.32,0.84,4.664-0.336,5.809-3.344
C73.903,64.438,74.102,64.055,74.215,64.055L74.215,64.055z M82.453,66.664c1.668,0.691,3.52,0.473,3.989-0.141
c0.531-0.688-0.282-0.574-0.707-0.469c-1.461,0.348-2.465,0.223-3.055-0.043C80.949,65.344,81.059,66.066,82.453,66.664
L82.453,66.664z M65.039,68.719c2.164,2.648,2.45,3.164,4.313,6.176c13.625,23.125,17.988,52.355,9.031,78.891
c-2.457,7.324-5.926,14.785-9.812,20.781l-4.665,0.047l1.602-1.824l-2.172,0.16l-0.133-1.207l-1.648,0.531l-0.793-1.824
l-1.492,4.172l-8.649,0.023c20.254-19.681,24.243-43.531,20.465-62.68c0,0,1.695-1.059,1.93-1.676
c0.058-0.152,0.183-0.789,0.301-0.887c0.75-0.492,1.25-0.969,1.625-0.875c0.211,0.055,0.32,0.152,0.476,0.379
c0.715,1.047,0.867,1.207,1.258,0.156c0.277-0.758,0.16-1.031,1.078-0.887c0.535,0.285,1.25,0.277,1.188,0.172
c-0.051-0.078-0.813-0.977-1.172-1.484c-0.856-1.203-1.102-1.418-1.024-1.945c0.121-0.805-0.519-1.672-0.918-1.887
c0.114-2.164-0.714-2.379-3.066-2.863c-0.012-0.375,0.051-0.676,0.215-1.012l1.383,1.102l0.5-2.043l1.875,0.105l-5.434-5.262
c0.027,1.484,0.098,2.984-0.039,4.414c-2.547-0.141-5.063-0.961-5.102-0.805c-3.742-8.809-9.441-16.262-15.461-22.074l6.012-2.887
l1.703,3.246l0.418-1.84l1.492,0.262l0.25-1.18l1.649-0.23l-1.817-1.727L65.039,68.719z M100.848,72.52
c0.23,0.289,0.414,0.309,0.723,0.57l-0.617,0.438C100.984,73.113,100.945,72.902,100.848,72.52L100.848,72.52z M60.84,73.605
c-0.508,0-0.926,0.414-0.926,0.926c0,0.508,0.418,0.922,0.926,0.922c0.512,0,0.926-0.414,0.926-0.922
C61.766,74.02,61.352,73.605,60.84,73.605L60.84,73.605z M65.86,73.75c-0.512,0-0.926,0.414-0.926,0.926s0.414,0.926,0.926,0.926
c0.511,0,0.925-0.414,0.925-0.926S66.371,73.75,65.86,73.75L65.86,73.75z M49.696,74.426c2.98,2.477,5.714,5.699,9.035,10.742
l-0.067,0.68l1.012,0.379c0,0,5.523,7.27,5.23,10.5c-1.894,0.395-3.363-0.305-6.753,2.863l-2.176-0.473l-2.293,0.559
c0,0,0.027,0.719,0.597,0.957c0.25,0.105,0.661-0.898,0.926-0.867c1.117,0.129,2.239,0.145,2.032,0.496
c-0.235,0.102-0.833,7.324,0.332,8.859c0.648,1.566,0.183,1.555-0.399,1.844c-0.633,0.414-2.625-0.461-2.625-0.461l0.461,11.469
c5.254-5.992,16.348-9.988,15.559-9.555c5.57,29.41-7.668,49.031-21.528,63.414l7.262,0.043c0,0-6.262,10.043-6.727,12.816
c0.356,0.926,1.34,2.836-0.32,4.176c-0.562,0.617-0.625,3.418-0.625,3.418c-3.816,0.133-7.129-1.196-11.531,0.347
c-0.457,0.157-0.555-2.394-0.578-2.854c-1.352-1.266-1.567-3.844-0.399-5.18c0.434-0.492,0.25-0.23-0.113-1.898
c-0.578-2.66-2.512-6.305-3.98-8.645c-0.485-0.77-0.965-1.664-1.082-1.941c-1.051-1.246-3.813-0.672-4.149-1
c-0.308-0.254-0.504-7.055-0.195-7.219c10.883,0.862,27.914-0.125,27.914-0.125l-4.57-6.383c-5.629-2.195-13.364,1.551-12.993,1.75
c0.02,0.02-6.179-3.384-10.484-2.898l0.145-3.336c3.82-0.016,7.343,0.695,10.421,2.512l5.231-1.945l-16.027-16.813l0.183-2.774
c0,0,4.094,4.384,8.547,9.067c3.816,4.015,5.246,4.691,5.246,4.691l0.012-34.871l-13.781-0.031l-0.368-7.125l-0.355-0.625
l-0.164-5.113l0.383-0.52l-0.133-2.188l-0.129-0.309l-0.176-5.223l0.297-0.441l0.047-3.289
C32.504,85.391,49.696,74.426,49.696,74.426L49.696,74.426z M61.469,75.418l1.605,7.039l1.079-1.336l1.656,0.52l0.113-1.621
l1.504-0.523L61.469,75.418z M116.227,76.59c-0.512,0-0.926,0.414-0.926,0.926s0.414,0.926,0.926,0.926s0.926-0.414,0.926-0.926
S116.738,76.59,116.227,76.59L116.227,76.59z M111.891,77.168c-0.512,0-0.926,0.414-0.926,0.926s0.414,0.926,0.926,0.926
s0.926-0.414,0.926-0.926S112.402,77.168,111.891,77.168L111.891,77.168z M58.797,77.988c-0.512,0-0.926,0.414-0.926,0.926
s0.414,0.926,0.926,0.926c0.512,0,0.926-0.414,0.926-0.926S59.309,77.988,58.797,77.988L58.797,77.988z M115.215,78.547
l-6.445,6.063l1.809-0.078l0.32,1.77l1.617-0.738l1.309,1.207L115.215,78.547z M117.957,80.582c-0.512,0-0.926,0.414-0.926,0.926
s0.414,0.926,0.926,0.926s0.926-0.414,0.926-0.926S118.469,80.582,117.957,80.582L117.957,80.582z M66.699,81.777
c-0.511,0-0.925,0.414-0.925,0.926s0.414,0.926,0.925,0.926c0.512,0,0.926-0.414,0.926-0.926S67.211,81.777,66.699,81.777
L66.699,81.777z M70.707,82.551c-0.511,0-0.926,0.414-0.926,0.926s0.415,0.926,0.926,0.926c0.512,0,0.926-0.414,0.926-0.926
S71.219,82.551,70.707,82.551L70.707,82.551z M67.071,83.93c0.175,2.477,0.468,5.414,0.531,7.895l1.222-1.203l1.415,0.574l0.5-1.523
l1.535-0.074L67.071,83.93z M106.758,85.996c-0.512,0-0.926,0.414-0.926,0.926s0.414,0.926,0.926,0.926s0.926-0.414,0.926-0.926
S107.27,85.996,106.758,85.996L106.758,85.996z M64.414,86.156c-0.511,0-0.925,0.414-0.925,0.926s0.414,0.926,0.925,0.926
c0.512,0,0.926-0.414,0.926-0.926S64.926,86.156,64.414,86.156L64.414,86.156z M110.43,86.383c-0.512,0-0.926,0.414-0.926,0.926
s0.488,0.926,0.926,0.926s0.926-0.414,0.926-0.926S110.941,86.383,110.43,86.383L110.43,86.383z M109.879,88.383l-5.344,5.496
l1.75,0.16l0.551,1.563l1.121-0.949l1.359,0.996L109.879,88.383z M112.813,89.559c-0.508,0-0.926,0.418-0.926,0.93
s0.418,0.926,0.926,0.926c0.512,0,0.93-0.414,0.93-0.926S113.324,89.559,112.813,89.559L112.813,89.559z M70.684,91.273
c-0.512,0-0.926,0.414-0.926,0.926s0.414,0.926,0.926,0.926c0.512,0,0.926-0.488,0.926-0.926S71.196,91.273,70.684,91.273
L70.684,91.273z M47.989,91.84l-1.739,1.332l0.43-0.066c0,0,1.051,1.227,1.051,1.313s0.644-0.023,0.644-0.023L47.989,91.84z
M75.067,92.648c-0.512,0-0.926,0.414-0.926,0.926s0.414,0.926,0.926,0.926c0.511,0,0.925-0.414,0.925-0.926
S75.578,92.648,75.067,92.648L75.067,92.648z M68.43,93.969c-0.512,0-0.926,0.414-0.926,0.926s0.414,0.926,0.926,0.926
c0.512,0,0.926-0.414,0.926-0.926S68.942,93.969,68.43,93.969L68.43,93.969z M106.691,95.836c-0.512,0-0.926,0.414-0.926,0.926
s0.414,0.926,0.926,0.926s0.926-0.414,0.926-0.926S107.203,95.836,106.691,95.836L106.691,95.836z M103.039,97.195
c-0.512,0-0.93,0.414-0.93,0.926s0.418,0.926,0.93,0.926s0.926-0.414,0.926-0.926S103.551,97.195,103.039,97.195L103.039,97.195z
M140.352,97.422l1.926,2.094v30.602l-1.879,0.039L140.352,97.422z M65.43,97.641c1.57,0,3.316,0.227,3.875,1.18
c0.863,1.07-0.977,0.656-2.527,0.887c-1.43,0.176-0.602,0.469,1.421,0.586c2.786,0.164,3.879,0.238,4.293,0.879
c0.235,0.598,0.063,1,0.114,1.645l-3.164-0.148c-1.637,0.004-2.602-0.027-3.09,0.098c-0.387,0.098-0.274,0.406-0.141,0.543
c0.067,0.066,1.324,0.086,2.797,0.125c3.957,0.102,4.832,0.234,5.113,1.508c0.211,1.168-0.742,0.992-4.808,0.547
c-1.809-0.145-2.782,0.277-3.043,0.406c-0.446,0.219,1.293,0.434,1.859,0.344c0.356-0.059,2.965,0.227,3.926,0.406
c0.809,0.121,0.098,0.098-0.313,0.59c-0.269,0.41-0.183,0.875-0.605,1.105c-0.52,0.273-1.547,0.27-3.391,0.27
c-2.109,0-3.09,0.512-0.195,0.637c1.867,0.082,1.973,0.051,2.133,0.59c0.422,1.332-0.481,1.566-2.387,1.867
c-0.91,0.156-2.262,0.07-3.281-0.004c-4.031-0.285-5.43-1.246-5.977-3.023c-2.031-6.633,0.477-10.68,6.352-11.004
C64.719,97.652,65.071,97.641,65.43,97.641L65.43,97.641z M106.188,97.934l-4.551,6.625l1.754-0.684l0.836,1.797l1.402-1.004
l1.402,0.867L106.188,97.934z M72.121,98.742c0.235,0.285,0.129,0.504-0.261,0.715c-0.329,0.18-0.891,0.047-1.262-0.113
c-0.488-0.211-0.539-1.086-0.137-1.18C71.039,98.047,71.758,98.316,72.121,98.742L72.121,98.742z M39.137,98.402l-2.492,2.383
l0.078,0.094L40,99.586L39.137,98.402z M109.027,99.418c-0.512,0-0.926,0.418-0.926,0.93s0.414,0.926,0.926,0.926
s0.926-0.414,0.926-0.926S109.539,99.418,109.027,99.418L109.027,99.418z M142.934,100.223c0,0,2.32,2.289,3.273,3.25l-0.863-0.004
l0.023,1.809l2.742,0.031l1.508,1.477l-4.191-0.02v1.844l5.191,0.004l-0.027-0.789l2.051,1.855l0.242,20.523l-9.891-0.032
C142.957,120.066,142.984,110.324,142.934,100.223L142.934,100.223z M75.094,102.445c-0.141,0.445-0.457,0.445-1,0.223
c-0.805-0.324-0.688-1.211-0.082-1.305C75.16,101.234,75.375,101.762,75.094,102.445L75.094,102.445z M78.207,102.832
c-0.511,0-0.926,0.414-0.926,0.926s0.415,0.926,0.926,0.926c0.512,0,0.926-0.414,0.926-0.926S78.719,102.832,78.207,102.832
L78.207,102.832z M74.949,103.543c0.36,0.023,0.719,0.207,0.926,0.41c0.504,0.512,0.324,0.988-0.242,1.281
c-0.633,0.332-1.082-0.117-1.266-0.871C74.242,103.855,74.539,103.559,74.949,103.543L74.949,103.543z M104.023,105.973
c-0.516,0-0.93,0.414-0.93,0.93c0,0.512,0.414,0.93,0.93,0.93c0.512,0,0.93-0.418,0.93-0.93
C104.953,106.387,104.535,105.973,104.023,105.973L104.023,105.973z M73.414,107.098c0.797,0.027,1.039,0.844,0.621,1.281
c-0.597,0.59-1.527,0.34-1.656-0.227C72.336,107.512,72.856,107.098,73.414,107.098L73.414,107.098z M100.703,107.477
c-0.512,0-0.926,0.414-0.926,0.926s0.414,0.926,0.926,0.926s0.926-0.414,0.926-0.926S101.215,107.477,100.703,107.477
L100.703,107.477z M103.992,108.09l-4.145,6.953l1.68-0.664l1.016,1.34l1.047-0.914l1.586,0.773L103.992,108.09z M71.465,109.25
c0.742,0.004,0.949,0.586,0.41,1.121c-0.363,0.363-0.777,0.375-1.203,0.039C70.031,109.898,70.524,109.246,71.465,109.25
L71.465,109.25z M106.898,109.336c-0.512,0-0.926,0.418-0.926,0.926c0,0.512,0.414,0.93,0.926,0.93s0.926-0.418,0.926-0.93
C107.824,109.754,107.41,109.336,106.898,109.336L106.898,109.336z M76.719,110.066c-0.512,0-0.887,0.414-0.887,0.926
s0.414,0.93,0.926,0.93c0.512,0,0.926-0.418,0.926-0.93S77.231,110.066,76.719,110.066L76.719,110.066z M145.395,110.273v1.965
l5.223,0.004v-1.965L145.395,110.273z M76.789,112.02l-2,7.305l1.672-0.949l1.043,1.066l0.973-1.199l1.746,0.457L76.789,112.02z
M80.344,112.813c-0.512,0-0.926,0.414-0.926,0.926s0.414,0.926,0.926,0.926c0.512,0,0.926-0.414,0.926-0.926
S80.856,112.813,80.344,112.813L80.344,112.813z M73.824,113.184c-0.511,0-0.925,0.414-0.925,0.926s0.414,0.926,0.925,0.926
c0.512,0,0.926-0.414,0.926-0.926S74.336,113.184,73.824,113.184L73.824,113.184z M145.391,113.762l0.004,1.766h5.223l-0.004-1.754
L145.391,113.762z M102.406,116.07c-0.512,0-0.926,0.414-0.926,0.926s0.414,0.926,0.926,0.926s0.926-0.414,0.926-0.926
S102.918,116.07,102.406,116.07L102.406,116.07z M145.395,117.055v1.902h5.223v-1.902H145.395z M37.696,117.289l1.835,0.031
l0.032,33.152l-1.793-1.895L37.696,117.289z M36.926,117.352l-0.09,30.301l-3.48-3.66l0.925-0.012v-2.066l-3.015-0.02l-1.285-1.254
l4.297,0.004v-2.027l-5.098-0.02v1.227l-2.504-2.672l0.039-19.785L36.926,117.352z M102.543,118.277l-2.789,7.211l1.754-1
l0.906,0.891l0.938-0.844l1.594,0.777L102.543,118.277z M29.192,118.625l-0.028,1.938h5.149v-1.938H29.192z M105.699,119.016
c-0.512,0-0.926,0.414-0.926,0.926s0.414,0.926,0.926,0.926s0.93-0.414,0.93-0.926S106.211,119.016,105.699,119.016L105.699,119.016
z M99.398,119.117c-0.512,0-0.926,0.414-0.926,0.926s0.414,0.926,0.926,0.926s0.926-0.414,0.926-0.926S99.91,119.117,99.398,119.117
L99.398,119.117z M77.602,119.461c-0.512,0-0.926,0.418-0.926,0.93c0,0.508,0.414,0.926,0.926,0.926
c0.512,0,0.926-0.418,0.926-0.926C78.528,119.879,78.114,119.461,77.602,119.461L77.602,119.461z M145.395,120.211v2.039h5.223
v-2.039H145.395z M77.489,121.359l-0.778,1.195l-1.769-0.602l2.418,7.313l3.031-7.629l-1.742,0.996L77.489,121.359z M29.192,121.891
v1.938h5.121v-1.938H29.192z M145.395,123.625v2.02h5.219l0.004-2.02H145.395z M29.192,125.316v1.937h5.121v-1.937H29.192z
M102.477,125.68c-0.516,0-0.93,0.417-0.93,0.93c0,0.516,0.414,0.93,0.93,0.93c0.512,0,0.93-0.414,0.93-0.93
C103.406,126.097,102.988,125.68,102.477,125.68L102.477,125.68z M74.59,126.648c-0.512,0-0.93,0.418-0.93,0.93
c0,0.516,0.418,0.929,0.93,0.929c0.516,0,0.93-0.413,0.93-0.929C75.52,127.066,75.106,126.648,74.59,126.648L74.59,126.648z
M80.535,126.824c-0.515,0-0.929,0.414-0.929,0.929c0,0.513,0.414,0.931,0.929,0.931c0.512,0,0.93-0.418,0.93-0.931
C81.465,127.238,81.047,126.824,80.535,126.824L80.535,126.824z M145.395,126.953v1.82h5.219l0.004-1.82H145.395z M102.469,127.801
l-1.109,1.168l-1.59-0.453l3.605,6.727l1.824-7.235l-1.594,1.013L102.469,127.801z M29.192,128.484v2.203h5.121v-2.203H29.192z
M77.52,129.484c-0.512,0-0.93,0.414-0.93,0.93c0,0.512,0.418,0.93,0.93,0.93c0.515,0,0.929-0.418,0.929-0.93
C78.449,129.898,78.035,129.484,77.52,129.484L77.52,129.484z M77.461,131.402c-0.398,0.281-0.57,0.772-0.984,1.027l-1.692-0.723
l1.016,9.16l4.699-8.653l-2.148,0.36L77.461,131.402z M29.192,131.699v2.289h5.121v-2.289H29.192z M106.102,132.762
c-0.512,0-0.93,0.418-0.93,0.93c0,0.516,0.418,0.93,0.93,0.93c0.516,0,0.93-0.414,0.93-0.93
C107.031,133.18,106.617,132.762,106.102,132.762L106.102,132.762z M100.09,132.867c-0.516,0-0.93,0.418-0.93,0.929
c0,0.517,0.414,0.935,0.93,0.935c0.512,0,0.93-0.418,0.93-0.935C101.02,133.285,100.602,132.867,100.09,132.867L100.09,132.867z
M29.192,135.023v2.293h5.121v-2.293H29.192z M103.445,135.535c-0.516,0-0.934,0.414-0.934,0.929c0,0.513,0.418,0.931,0.934,0.931
c0.512,0,0.93-0.418,0.93-0.931C104.375,135.949,103.957,135.535,103.445,135.535L103.445,135.535z M116.57,135.605
c4.98,0.16,5.711,1.762,5.742,7.293c0.023,4.414-1.293,6.141-4.508,6.992c-1.172,0.309-5.551,0.023-6.789-0.375
c-0.02-0.379-0.641-1.259-0.781-1.931c0.316-0.089,1.316,0.047,3.211,0.231c1.535,0.144,1.934-0.103,1.445-0.402
c-2.887-0.684-4.855-0.5-7.633-1.032c-0.039-0.827-0.711-1.797-0.711-1.797c0.152-0.058,4.281,0.388,6.461,0.317
c0.957-0.039,0.379-0.492-0.008-0.574c-2.539-0.364-4.191-0.305-6.875-0.645c0.07-0.688-0.277-1.313-0.711-1.836
c0,0,1.359-0.013,4.16,0.03c1.473,0.021,2.758,0.082,3.402,0.063c1.082-0.004,0.984-0.508,0.047-0.578
c-1.145-0.125-5.652-0.153-5.652-0.153c0.336-0.155,0.773-2.171,0.602-2.194c0,0,1.168,0.023,1.91-0.004
c3.609-0.137,4.23-0.078,4.301-0.211c0.473-0.434-0.809-0.605-2.141-0.602c-0.578,0-1.414,0.129-1.41-0.188
c0.008-0.285-0.008-0.875-0.301-1.484C112.547,135.676,114.582,135.543,116.57,135.605L116.57,135.605z M73.633,136.742
c-0.512,0-0.93,0.414-0.93,0.929c0,0.513,0.418,0.931,0.93,0.931c0.516,0,0.93-0.418,0.93-0.931
C74.563,137.156,74.149,136.742,73.633,136.742L73.633,136.742z M109.16,136.934c0.613,0.004,0.809,1.109,0.23,1.28
c-0.883,0.267-1.367,0.056-1.336-0.468C108.074,137.453,108.762,136.934,109.16,136.934L109.16,136.934z M79.707,137.895
c-0.511,0-0.929,0.418-0.929,0.93c0,0.515,0.418,0.929,0.929,0.929c0.516,0,0.93-0.414,0.93-0.929
C80.637,138.313,80.223,137.895,79.707,137.895L79.707,137.895z M106.191,138.941c2.105-0.021,1.016,2.84-0.602,1.809
C104.785,140.238,105.352,138.945,106.191,138.941L106.191,138.941z M72.91,141.23c-0.043-0.008-0.066,0.039-0.062,0.141
l0.488,8.703l5.063-8.129l-2.012,0.75l-0.867-1.317l-1.086,0.856C73.989,142.585,73.141,141.25,72.91,141.23L72.91,141.23z
M104.242,142.121c0.941,0.129,1.574,1.074,0.918,1.527C103.684,144.296,102.895,142.184,104.242,142.121L104.242,142.121z
M101.973,144.027c-0.512,0-0.93,0.418-0.93,0.93c0,0.516,0.418,0.934,0.93,0.934c0.516,0,0.93-0.418,0.93-0.934
C102.902,144.445,102.488,144.027,101.973,144.027L101.973,144.027z M105.551,144.816c0.805-0.012,1.184,1.156,0.387,1.522
c-0.168,0.079-0.672,0.134-0.895-0.03C104.102,145.613,104.59,144.891,105.551,144.816L105.551,144.816z M70.731,146.25
c-0.516,0-0.934,0.418-0.934,0.93c0,0.516,0.418,0.93,0.934,0.93c0.511,0,0.929-0.414,0.929-0.93
C71.66,146.668,71.242,146.25,70.731,146.25L70.731,146.25z M141.77,147.414l-3.449,1.16v1.629
C139.824,149.727,140.684,148.503,141.77,147.414L141.77,147.414z M109.469,148.203c0.598,0.25,0.758,1.059,0.246,1.332
c-0.406,0.215-1.504,0.179-1.773-0.172C107.246,148.246,108.742,147.93,109.469,148.203L109.469,148.203z M76.973,148.523
c-0.512,0-0.93,0.418-0.93,0.93c0,0.516,0.418,0.929,0.93,0.929c0.516,0,0.933-0.413,0.933-0.929
C77.906,148.941,77.489,148.523,76.973,148.523L76.973,148.523z M73.164,150.132c-0.453,0-0.82,0.368-0.82,0.821
c0,0.449,0.367,0.816,0.82,0.816c0.453,0,0.821-0.367,0.821-0.816C73.985,150.5,73.617,150.132,73.164,150.132L73.164,150.132z
M111.824,151.516c-0.516,0-0.93,0.414-0.93,0.93c0,0.512,0.414,0.93,0.93,0.93c0.512,0,0.93-0.418,0.93-0.93
C112.754,151.93,112.336,151.516,111.824,151.516L111.824,151.516z M70.168,151.566l-0.047,8.219l5.485-6.727l-1.903,0.41
l-0.812-1.664l-1.172,0.762L70.168,151.566z M104.961,153.457c-0.516,0-0.93,0.418-0.93,0.93c0,0.516,0.414,0.93,0.93,0.93
c0.512,0,0.93-0.414,0.93-0.93C105.891,153.875,105.473,153.457,104.961,153.457L104.961,153.457z M132.391,153.488l-0.898,1.535
l2.551-1.418L132.391,153.488z M108.672,154.582c-0.512,0-0.93,0.414-0.93,0.93c0,0.512,0.418,0.93,0.93,0.93
c0.516,0,0.93-0.418,0.93-0.93C109.602,154.996,109.188,154.582,108.672,154.582L108.672,154.582z M111.805,155.585l-1.109,1.586
l-1.465-0.472l-0.434,1.511l-1.758-0.062l5.711,4.973L111.805,155.585z M67.278,156.219c-0.512,0-0.93,0.418-0.93,0.93
c0,0.516,0.418,0.93,0.93,0.93c0.515,0,0.929-0.414,0.929-0.93C68.207,156.637,67.793,156.219,67.278,156.219L67.278,156.219z
M152.941,157.555l0.465,68.145l-32.48,0.07l-13.375-18.263c-0.277-2.976-0.117-6.026,1.137-10.019
c1.309,0.902,4.172,0.41,4.074-3.102c-0.063-2.302-3.605-3.477-5.371-1.746c0.09-2.223,0.992-5.563,2.293-6.547
c0.891,0.813,1.09,2.012,3.105,1.676c1.434-0.238,2.57-1.84,1.949-3.707c-0.16-0.474-0.246-1.051-0.246-1.435
c0.004-0.386,0.039-1.069-0.035-1.457c-0.102-0.503-0.137-1.054-0.137-1.054C131.625,174.688,143.996,165.996,152.941,157.555
L152.941,157.555z M73.789,158.727c-0.511,0-0.929,0.414-0.929,0.93c0,0.512,0.418,0.929,0.929,0.929c0.516,0,0.93-0.417,0.93-0.929
C74.719,159.141,74.305,158.727,73.789,158.727L73.789,158.727z M69.403,159.632c-0.512,0-0.93,0.419-0.93,0.931
c0,0.516,0.418,0.93,0.93,0.93c0.515,0,0.929-0.414,0.929-0.93C70.332,160.051,69.918,159.632,69.403,159.632L69.403,159.632z
M115.422,160.082c-0.512,0-0.93,0.418-0.93,0.93s0.418,0.93,0.93,0.93c0.516,0,0.934-0.418,0.934-0.93
S115.938,160.082,115.422,160.082L115.422,160.082z M66.071,161.074l-1.454,8.66l6.332-6.473l-1.718-0.039l-0.34-1.477l-1.61,0.52
L66.071,161.074z M109.117,162.921c-0.512,0-0.93,0.414-0.93,0.931c0,0.512,0.418,0.93,0.93,0.93c0.516,0,0.93-0.418,0.93-0.93
C110.047,163.335,109.633,162.921,109.117,162.921L109.117,162.921z M113.223,163.93c-0.516,0-0.93,0.418-0.93,0.93
c0,0.516,0.414,0.93,0.93,0.93c0.512,0,0.93-0.414,0.93-0.93C114.152,164.348,113.734,163.93,113.223,163.93L113.223,163.93z
M62.125,165.059c-0.515,0-0.929,0.418-0.929,0.93c0,0.515,0.414,0.93,0.929,0.93c0.512,0,0.93-0.415,0.93-0.93
C63.055,165.477,62.637,165.059,62.125,165.059L62.125,165.059z M116.922,165.762l-1.512,1.148l-1.395-0.852l-0.328,1.84
l-1.188,0.625l4.984,3.492L116.922,165.762z M120.605,168.238c-0.512,0-0.93,0.418-0.93,0.93c0,0.516,0.418,0.93,0.93,0.93
c0.516,0,0.93-0.418,0.93-0.93S121.121,168.238,120.605,168.238L120.605,168.238z M68.016,168.55c-0.512,0-0.93,0.419-0.93,0.931
c0,0.516,0.418,0.93,0.93,0.93c0.515,0,0.93-0.414,0.93-0.93C68.946,168.969,68.531,168.55,68.016,168.55L68.016,168.55z
M63.887,169.766c-0.516,0-0.93,0.418-0.93,0.93c0,0.515,0.414,0.93,0.93,0.93c0.512,0,0.93-0.415,0.93-0.93
C64.817,170.184,64.399,169.766,63.887,169.766L63.887,169.766z M118.223,172.227c-0.512,0-0.93,0.414-0.93,0.93
c0,0.512,0.418,0.929,0.93,0.929c0.516,0,0.93-0.417,0.93-0.929C119.152,172.641,118.738,172.227,118.223,172.227L118.223,172.227z
M114.324,173.059c-0.512,0-0.93,0.414-0.93,0.93c0,0.512,0.418,0.93,0.93,0.93c0.516,0,0.93-0.418,0.93-0.93
C115.254,173.473,114.84,173.059,114.324,173.059L114.324,173.059z M78.321,174.382c0.007,0,0.011,0.005,0.015,0.009
c0.106,0.109,0.426,0.957,0.141,1.387c-0.149-0.07-0.817-0.692-0.645-0.902C77.91,174.777,78.235,174.378,78.321,174.382
L78.321,174.382z M57.215,175.839c0,0,0.902,0.048,1.098,0.134c0,0.23-0.215,0.73-0.457,1.293c-1.215,2.813-1.403,5.961-0.168,9
c1.933,4.121,7.398,13.866,6.992,14.762l-12.07,0.047l0.05-1.836c3.391-0.133,3.926-2.207,3.079-3.922
c-0.586-1.188-2.227-1.863-3.731-1.242c-2.168,0.902-2.305,1.972-3.078,3.633l-0.344-0.438c0.653-0.867,0.867-1.695,0.817-2.645
c-0.055-0.934-0.082-0.676,0.242-1.184c1.89-2.031,0.652-4.672,0.652-4.672C50.071,187.145,55.949,176.789,57.215,175.839
L57.215,175.839z M29.614,176.105c3.433,2.729,6.402,11.934,6.222,12.074c-0.156-0.13-2.765,2.957,0.043,5.832
c0,0-0.172,1.727,0.367,2.613c-1.238,2.574-1.457,2.77-1.562,4.882c-0.024-0.007-0.215-0.022-1.367-0.03
c-5.688-0.027-5.953,7.207-0.27,7.605c0.777,0.055,1.047-0.122,1.516,0.339c0.476,0.591,0.902,1.185,1.715,0.88
c0.195,0,0.507,0.18,0.832,0.484c0.546,0.738,1.339,1.265,2.472,1.063c0.399,0.039,0.809,0.155,1.242,0.313
c0.5,0.391,1.364,0.691,2.04,0.395c0.203-0.086,0.589-0.117,0.902,0.027c0.824,0.375,1.66,0.141,1.969-0.098
c0.761-0.396,0.929,0.242,0.894,0.824c-0.387,1.34,0.465,2.594,1.762,3.086c2.73,0.844,4.109-0.836,4.695-4.168
c0.145-0.73,0.274-1.599,0.274-1.599l9.144,0.243l-13.129,15.214l-22.351,0.274l-0.118-50.277
C27.887,176.023,28.629,176.105,29.614,176.105L29.614,176.105z M111.836,178.82c1.668,0.64,1.801,1.82,0.141,1.308
c-2.699-0.827-5.602,0.821-6.207,3.177c-0.109,0.434-0.23,0.762-0.301,0.844c-0.375,0.457-0.355,0.043-0.246-1.267
c0.219-2.538,2.016-4.379,4.355-4.452C110.344,178.43,111.172,178.589,111.836,178.82L111.836,178.82z M111.008,180.617
c0.699,0,1.438,0.203,1.988,0.683c0.625,0.685,0.441,1.142-0.039,1.118c-2.262-0.945-5.133,0.199-6.258,3.051
c-0.691,1.75-0.816,0.813-0.512-0.543C106.754,182.473,108.621,180.66,111.008,180.617L111.008,180.617z M95.293,181.293
c-0.984,0.003-1.922,0.195-2.398,0.648c-0.906,0.854-0.152,0.867,1.488,0.297c0.797-0.274,2.332-0.149,3.313,0.191
c0.824,0.284,1.113,0.405,1.066,0.148C98.719,181.809,96.938,181.285,95.293,181.293L95.293,181.293z M113.715,184.156
c0.418,0.949,0.148,2.625-1.305,2.797c-1.715,0.199-2.598-2.672,0.531-2.168c-0.406-1.148-1.809-0.832-2.5-0.539
c-1.414,0.613-2.375,2-3.238,4.55c-0.258,0.754-0.445,1.149-0.543,1.075c-0.164-0.129-0.242-1.301,0.137-2.715
c0.68-2.551,2.336-4.09,4.094-4.137C112.031,182.844,113.355,183.332,113.715,184.156L113.715,184.156z M89.215,183.046
c-0.152,0.036,0.113,0.571,0.531,1.403c0.231,0.461,0.387,1.054,0.387,1.172c-0.004,0.453,0.344,0.563,0.855,0.273
c0.586-0.332,0.68-0.586,1.512-0.215c0.785,0.409,1.559,0.672,2.273,0.254c0.391-0.227,0.648-0.22,1.398-0.02
c0.898,0.238,1.016,0.273,1.684-0.008c0.855-0.355,1.875-0.113,2.09,0.129c0.207,0.23,0.086-0.09,0.551-1.168
c0.215-0.496,0.523-1.105,0.441-1.278c-0.117-0.229-0.895,0.028-1.746,0.25c-0.457,0.118-0.895,0.082-1.773-0.163
c-1.855-0.523-3.027-0.375-4.188,0.176c-0.648,0.309-2.277-0.117-3.922-0.785C89.27,183.051,89.235,183.043,89.215,183.046
L89.215,183.046z M92.863,188.016c-0.836-0.013-1.594,0.516-1.941,1.237c-0.406,1.004,0.281,2.817,1.328,2.974
c0.93,0.141,0.895-0.431,0.426-0.582c-0.707-0.234-1.543-1.25-1.004-2.129c0.371-0.609,1.492-0.605,2.27,0.145
c1.57,1.504,3.371,1.605,3.711,0.297c0.102-0.523-0.293-1.219-0.91-1.027c-0.473,0.145-1.57,0.191-2.488-0.434
C93.777,188.171,93.305,188.023,92.863,188.016L92.863,188.016z M109.441,192.801c4.008-0.242,2.285,5.234-0.031,3.827
c-0.824-0.503-0.457-2.347,1.738-2.312c-2.152-1.676-3.621,0.367-3.094,2.656c-0.484,0.75-0.621,2.176-0.938,2.98
c-0.484,0.922-0.867-1.493-0.375-3.821C107.215,193.875,108.023,192.887,109.441,192.801L109.441,192.801z M86.778,192.992
c-0.829,0.008,0.023,0.898,0.148,1.004c2.496,1.957,3.719,3.168,1.711,2.523c-3.262-0.773-4.102,0.148-6.586,1.242
c-0.457,0.219-0.586,0.082-1.137-0.078c-2.183-0.648-2.023,0.723,0.258,1.957c3.445,1.862,6.289,2.284,8.965,0.887
c1.719-0.899,1.805-0.309,0.207,0.683c-2.738,1.599-5.621,1.356-10.043-1.397c-1.43-0.892-1.629-0.297-0.168,0.641
c3.34,2.02,7.84,3.848,11.512,0.871c0.723-0.645,0.867-0.977,1.426-0.699c1.469,0.73,0.984-0.543-0.016-1.747
c-0.355-0.425-0.617-0.769-0.594-1.058c0.082-1.047-0.492-1.039-1.02-1.016c-0.629,0.03-0.563-0.18-1.332-1.027
C88.981,194.539,87.606,193.21,86.778,192.992L86.778,192.992z M53.43,198.539c-1.387,0.109-1.707,0.171-1.367,3.016
c0.062,0.534,0.301,2.133,0.367,2.734c0.824,7.445,0.156,10.738-1.918,11.648c-0.746,0.328-1.481,0.207-2.027-0.012
c-1.313-0.523-1.852-2.117-0.899-4.016c0.258-0.512,0.567-1.301,0.692-1.758s0.402-1.457,0.617-2.228
c0.523-1.862,0.804-4.702,0.5-7.413c-0.211-1.844-0.164-1.996,0.293-3.238c1.008-1.836,1.66-2.777,3.781-2.801
C55.84,194.723,56.504,198.313,53.43,198.539L53.43,198.539z M104.418,198.375l-0.648,0.031c-0.781-2.602-2.414-1.758-2.684,0.066
l-0.551-0.004C100.629,194.996,104.973,195.938,104.418,198.375L104.418,198.375z M43.469,196.434
c4.43,0.438,5.234,1.539,5.586,6.891c0.031,2.586-0.141,4.152-0.539,4.738c-0.664,0.319-1.297-0.277-2.242,0.324
c-0.52,0.316-0.422,0.352-0.645,0.004c-0.211-0.324,0.035-1.688,0.375-2.781c0.324-1.039-0.23-1.646-1.699-2.978
c-0.395-0.362-0.742-0.862-1.098-1.577c-0.765-2.052-1.152-1.148-0.515,0.616c0.312,0.763,0.386,1.138-0.567,0.81
c-0.562-0.195-1.054,0.035-1.488,0.266c-1.215,0.309-2.262-0.355-1.207-0.754c0.641-0.242,1.793-0.598,2.148-0.594
c0.258,0,0.383-0.06,0.383-0.18c0.004-0.512-2.344-0.457-4.129,0.159c-2.199,1.013-2.324,0.832-2.121-0.741
C36.227,196.648,39.938,196.164,43.469,196.434L43.469,196.434z M86.785,196.781c1.133-0.051,2.176,1.25,1.969,2.351l-0.539-0.034
c-0.254-2.074-2.215-2.164-2.738,0.159l-0.778,0.021C85.196,197.484,86.012,196.816,86.785,196.781L86.785,196.781z M99.957,196.824
c0.445,0.265,0.137,0.984-0.34,1.129c-0.18,0.043-0.75-0.355-0.613-0.598C99.262,197.066,99.648,196.914,99.957,196.824
L99.957,196.824z M105.031,197.176c0.313,0,0.719,0.159,0.773,0.577c0.016,0.614-0.449,0.489-0.605,0.435
C104.891,197.898,104.773,197.199,105.031,197.176L105.031,197.176z M89.504,197.668c0.832,0.098,1.133,1.141,0.192,1.207
C89.274,198.96,89.254,197.918,89.504,197.668L89.504,197.668z M84.453,197.781c0.098,0-0.054,0.855-0.261,0.984
c-0.411,0.246-0.934-0.023-0.914-0.281C83.321,197.867,84.071,197.777,84.453,197.781L84.453,197.781z M98.941,199.859
c1.582,0.601,3.637,1.184,5.574,0.508c0.703-0.27,1.27-0.586,1.266-0.285c0,0.313-0.559,0.789-1.57,1.074
c-2.082,0.582-3.59,0.355-5.023-0.719C98.785,200.137,98.645,199.855,98.941,199.859L98.941,199.859z M98.289,200.753
c2.566,1.497,4.883,1.646,6.965,0.556c0.844-0.293,0.871-0.023,0.871,0.516C102.367,205.125,97.672,201.699,98.289,200.753
L98.289,200.753z M35.313,203.035c-0.637,1.281-0.977,4.441-2.016,5.379C26.207,208.007,30.77,198.656,35.313,203.035
L35.313,203.035z M79.242,201.988c-0.402,0.207-0.046,1.215,0.582,1.488c5.422,2.332,8.204,2.608,11.286,1.535
c1.277-0.445,1.977-1.488,2.039-1.996c0.074-0.605-0.75-0.664-2.195-0.023c-4.395,1.722-7.152,0.379-10.703-0.957
C79.922,201.914,79.586,201.871,79.242,201.988L79.242,201.988z M58.481,202.059l-0.02,7.901l-5.16-0.089l0.059-1.168l3.863,0.113
l-0.059-5.646l-4.484-0.043l-0.008-1.046L58.481,202.059z M59.68,202.078l5.152,0.007l0.258,0.806h-5.41V202.078z M38.899,204.585
c-0.34,0.306-0.93,0.372-1.176,0.125c-0.543-0.546,0.008-1.562,0.879-1.554C39.473,203.164,39.547,204.003,38.899,204.585
L38.899,204.585z M41.27,203.3c0.781,0.005,1.039,0.731,0.445,1.321c-0.402,0.363-0.605,0.386-0.969,0.121
C40.293,204.339,40.528,203.328,41.27,203.3L41.27,203.3z M36.188,203.496c0.203-0.004,0.383,0.016,0.515,0.218
c0.473,0.97-1.082,1.642-1.406,0.918C35.059,204.046,35.664,203.516,36.188,203.496L36.188,203.496z M65.317,203.605l0.3,1.016
l-5.937,0.027v-1.021L65.317,203.605z M44.067,203.895c0.882,0.108,0.75,1,0.336,1.395c-0.704,0.652-1.391,0.441-1.211-0.438
C43.305,204.305,43.66,203.906,44.067,203.895L44.067,203.895z M39.293,206.813c-0.312,1.112,0.352,3.362,0.153,3.598
c-0.43,0.515-1.129,0.25-1.438,0.074c-1.07-0.688-1.141-4.728-0.102-4.969c0.668,0.336,1.114-0.263,1.422-0.352
C39.633,205.078,39.426,205.628,39.293,206.813L39.293,206.813z M54.985,205.152c0.586,0,1.058,0.473,1.058,1.058
c0,0.586-0.472,1.06-1.058,1.06s-1.059-0.474-1.059-1.06C53.926,205.625,54.399,205.152,54.985,205.152L54.985,205.152z
M59.68,205.289h6.074c0.363,0.507,0.324,0.848,0.223,1.199l-6.297,0.008V205.289z M41.844,205.426
c0.277-0.005,0.418,0.59,0.23,1.27c-0.335,1.223-0.316,2.89-0.085,3.613c0.152,0.496,0.304,0.84,0.214,0.98
c-0.312,0.496-1.277,0.16-1.683-0.496c-1-1.848-0.84-5.301,0.351-5.031C41.321,205.984,41.574,205.632,41.844,205.426
L41.844,205.426z M36.492,205.895c-0.296,0.465-0.086,3.094-0.117,3.313c-0.035,0.273-0.785,0.132-1.207-0.059
c-1.031-0.48-0.75-1.711-0.551-2.703c0.227-0.777,0.723-0.836,1.336-0.906C36.289,205.5,36.735,205.531,36.492,205.895
L36.492,205.895z M44.75,206.039c0.328-0.012,0.375,0.227,0.301,1.203c-0.059,0.761-0.086,1.41,0.035,2.129
c0.266,1.527,0.297,1.941-0.086,2.238c-0.453,0.354-1.07,0.246-1.543-0.172c-0.976-0.77-1.039-4.56-0.273-4.887
C43.895,206.727,44.344,206.164,44.75,206.039L44.75,206.039z M65.727,207.184l-0.871,1.198h-5.18l0.004-1.194L65.727,207.184z
M47.266,208.789c0.805,0.007,0.672,1.438,0.238,2.332c-0.367,0.543-0.64,0.598-1.191,0.089
C45.684,210.632,46.43,208.785,47.266,208.789L47.266,208.789z M64.215,209.188l-0.726,0.668l-3.797,0.004v-0.664L64.215,209.188z
M64.215,209.188"/>
<path fill="#D40000" d="M157.844,238.835v-2.366h2.422l5.121-7.859l-5.52-12.215h-2.023v-2.582h7.805v2.582h-2.512l3.859,9.539
l2.809-3.699v-5.84h-2.063v-2.582h6.984v2.582h-2.43v20.074h2.43v2.366h-6.984v-2.366h1.977v-9.285l-6.535,9.285h2.465v2.366
H157.844z M123.719,220.434c-5.738-2.07-8.078-9.224-4.824-16.285c4.359-9.465,10.867-15.539,15.199-24.469
c-0.051,0,8.504,12.566,11.918,17.227c7.328,10.578,6.961,19.281-0.137,22.715c-5.098,2.468-10.324-0.368-10.926-5.7
c-0.094-0.832-0.148-0.94-0.535-0.944c-0.43,0-0.508,0.297-0.613,1.526C133.391,219.25,128.246,222.066,123.719,220.434
L123.719,220.434z M159.016,202.012c2.223-5.23,4.809-8.031,7.523-13.578c2.188,4.289,6.234,8.922,7.594,13.258
c1.02,3.348,0.227,6.074-1.961,6.887c-2.543,0.945-4.445-0.121-4.953-2.504c-0.203-0.957-0.684-0.864-0.711-0.141
c-0.086,2.336-2.777,3.359-4.934,2.737C160.336,208.32,158.117,205.793,159.016,202.012L159.016,202.012z M38.801,180.671
l-6.293-4.937c7.484-0.16,14.969,0.012,22.453,0.141l-7.476,5.324c-1.528-1.672-2.434-3.918-4.606-5.004
C41.262,176.863,40.156,179.168,38.801,180.671L38.801,180.671z M94.008,178.953c-0.129-0.02-0.23-0.032-0.309-0.078
c-0.172-0.109-0.281-0.348-0.41-1.141c-1.867-8.715-11.05-8.098-10.988-7.844c-0.07-0.34,11.414-10.707,18.164-18.845
c2.039,6.216,8.223,20.418,7.965,20.368c0,0-1.684-0.02-6.324-0.137c-4.219,1.906-7.262,3.797-7.125,6.484
c-0.023,0.948-0.254,1.344-0.566,1.262C94.367,179.012,94.184,178.98,94.008,178.953L94.008,178.953z M114.625,150.906
c5.973-0.09,7.102-3.008,7.781-3.36c0.746,0.204,1.48,0.207,2.07-0.003c1.215-0.43,4.398,2.102,5.996,4.645
c0.066,0.105,1.777,0.75,1.777,0.75l0.598-2.711l5.469-1.602l-0.008,1.742c-1.688,0.91-4.191,3.238-4.191,3.238l-1.664-0.099
l-0.953,1.271c-3.797,2.055-7.523,4.504-11.527,6.09C119.973,160.867,115.176,154.664,114.625,150.906L114.625,150.906z
M40.305,151.632l-0.043-34.659c2.473-0.176,6.426,0.605,7.496-1.16c1.785-2.906,6.57-5.844,6.57-5.844
c0.375,4.246,0.516,8.305,0.434,12.551c-7.082,8.641-11.012,19.276-6.648,35.168l-2.618-0.289L40.305,151.632z M79.317,153.387
c2.015-7.188,3.582-14.477,4.23-22.005l13.477-0.198l0.27,4.612L79.317,153.387z M125.207,137.699l-0.25-12.887
c9.832-11.75,10.414-22,6.77-34.953c3.246,0.746,4.918,3.281,8.016,6.77v33.609c-2.148,0.32-7.484,0.633-7.484,0.633
C132.098,132.445,127.59,136.21,125.207,137.699L125.207,137.699z M83.559,117.387l-0.598-5.684l17.324-16.523
c-1.445,7.246-3.207,14.738-3.719,22.453L83.559,117.387z M56.656,99.363c-0.707-0.379-1.582-0.074-2.152,0.273
c-1.25,0.82-5.855-3.969-6.609-7.188c1.156-1.563,11.293-6.527,11.293-6.527s5.926,7.605,5.683,10.777
c-2.629,0.699-4.722,0.645-6.722,2.793C57.864,99.809,57.34,99.73,56.656,99.363L56.656,99.363z M46.508,93.203l0.699,0.516
l-0.41,3.008l-7.469,2.215C41.891,96.758,43.723,94.891,46.508,93.203L46.508,93.203z M70.77,76.391
c1.535-0.047,3.129,0.582,4.312,0.109c0.442-0.172,1.324-0.441,2.289-0.258c2.227,0.691,3.008-1.766,4.43-1.773
c1.836,0.004,2.855-1.281,2.867-3.855c0.008-1.113,0.102-1.238,0.309-1.352c0.625-0.328,1.297,0.137,1.379,0.746
c1.32,4.742,4.644,9.004,9.894,8.664c-4.18,4.258-16.89,17.352-16.89,17.352C77.071,89.047,74.031,82.555,70.77,76.391L70.77,76.391
z M124.84,72.305l7.656-5.559l4.582,5.578l3.961-5.309c2.328,1.668,7.625,5.387,7.625,5.387S132.785,72.637,124.84,72.305
L124.84,72.305z M45.016,69.469c1.609,1.137-15.34-19.434-17.297-26.707c-1.465-4.285-0.363-9.523,2.828-11.77
c5.406-3.801,11.75-2.281,12.953,4.121c0.34,1.813,0.906,1.598,1.106,0.004c0.722-8.152,10.734-8.75,14.59-3.063
c2.636,3.895,2.656,10.082-1.165,16.281C57.11,50.305,44.934,68.902,45.016,69.469L45.016,69.469z M12.649,61.629
c-2.27-4.434-5.645-8.898-7.43-13.031c-1.34-3.383-0.207-6.883,2.293-7.531c2.465-0.641,4.254,0.375,4.719,2.68
c0.16,0.781,0.468,0.84,0.625,0.117c0.925-4.355,7.07-3.414,7.492,1.148c0.269,2.906-0.488,4.828-4.074,10.332
C15.406,57.129,13.063,59.711,12.649,61.629L12.649,61.629z M13.848,33.648h2.558l-3.761-9.223L9.77,28.32l0.019,5.328h2.02v2.75
h-7.11v-2.75h2.34v-19.84l-2.34,0.004v-2.398h7.215v2.48H9.922l-0.043,9.672l6.297-9.754h-2.223v-2.398h7.676v2.398h-2.023
l-5.188,7.973l5.074,11.863h2.258l0.008,2.75h-7.891L13.848,33.648z M13.848,33.648"/>
<path d="M129.184,21.938l-70.375,0.449l13.676,18.27c14.527-2.961,27.175-1.039,40.304,1.254L129.184,21.938z M127.383,22.863
l-4.684,5.82c-1.293-1.172-4.188-0.75-3.777,1.813c-3.59-1.863-4.352,3.258-1.305,3.047c-0.383,1.008-3.457,1.273-4.328-0.551
c-3.16,1.77-4.125,0.051-4.961-1.063c4.016,2.723,5.969-2.879,1.551-3.195c1.734-3.512-4.457-5.105-4.094-0.535
c-4.086-0.926-3.148,4.824-0.148,3.645c-1.949,2.93-5.145,0.961-5.793,0.391c-1.641,1.234-4.75,1.273-5.621-0.699
c4.547,0.914,4.051-5.07,0.012-3.691c2.152-4.598-5.008-3.98-3.27-0.215c-4.07-0.152-3.168,4.867,0.406,4.016
c-3.175,2.992-5.558,0.203-6.063,0.145c-1.879,2.074-5.184,0.938-5.641-0.289c3.242,1.281,4.309-4.168,0.219-3.84
c1.047-3.508-4.832-3.934-3.535,0.051c-3.242-0.734-3.418,4.457,0.215,3.648c0.222,1.422-2.633,2.781-4.391,1.406
c-1.289,0.707-2.699,1.805-4.375,0.18c2.555-0.41,2.973-4.73-1.152-3.797c0.199-2.648-1.325-2.793-3.203-2.121l-3.012-4.082
L127.383,22.863z M78.836,29.375c-0.226,0.492-0.601,0.828-0.515,1.203c0.074,0.309,0.39,0.738,0.832,1.32
c3.523,4.59,10.66,4.434,12.808-0.297c0.438-0.879,0.348-1.078-0.18-1.824c-0.637-0.906,0.082-1.867,0.863-1.785
c1.164,0.121,1.363,1.133,0.805,1.855c-1.215,1.531,2.121,4.992,5.453,5.535c4.273,0.695,8.324-2.309,7.758-5
c-0.031-0.152-0.109-0.297-0.141-0.461c-0.457-2.254,3.117-1.172,1.832,0.262c-0.484,0.52-0.746,0.676-0.68,1.246
c1.039,4.77,6.84,5.27,9.602,3.801c-3.566,5.813-9.211,1.332-10.203-2.73c-5.008,7.227-11.02,5.723-14.371-0.625
c0.398,0.395-6.598,11.383-14.54,0.117c-3.363,9.066-9.492,2.938-9.074,2.566c2.817,1.57,7.93,1,8.422-3.848
c0.07-0.602-0.383-0.637-0.648-1.109C75.528,27.203,79.824,27.188,78.836,29.375L78.836,29.375z M65.602,29.969
c0.637,0.059,0.742,0.324,0.637,0.973L65.602,29.969z M120.215,31.672l-0.922,1.16C119.07,32.266,119.066,31.746,120.215,31.672
L120.215,31.672z M130.246,32.059c-2.188,0.09-3.879,3.117-3.77,7.148c0.055,1.957,0.398,6.867,0.531,7.598
c0.188,1.02-0.016,2.402-0.375,2.551c-0.945,0.383-1.305,0.633-1.559,1.086c-0.668,1.176-0.117,2.5,1.285,3.098
c1,0.422,2.27-0.164,3.129-1.445c0.477-0.711,0.59-1.027,1.008-2.816c0.195-0.82,0.176-2.188-0.043-3.441
c-0.504-2.852-0.129-6.398,0.848-8.066c1.758-2.988,1.727-4.945-0.09-5.566C130.883,32.094,130.559,32.043,130.246,32.059
L130.246,32.059z M130.133,32.512c2.547,0.012,2.48,2.551,1.066,3.332c-0.547,0.246-1.215,0.305-1.887-0.137
c-0.75-0.434-0.648,0.063,0.129,0.629c0.914,0.664,1.305,0.621,0.813,2.18c-0.457,1.449-0.699,4.582-0.449,6.359
c0.688,4.871,0.109,7.297-1.941,8.145c-1.012,0.414-1.992-0.188-2.383-0.984c-0.48-1.77,0.504-2.199,2.273-2.055
c0,0,0.137-0.402-0.367-4.629c-0.695-5.883-0.422-9.984,0.66-11.418C128.621,33.164,129.367,32.508,130.133,32.512L130.133,32.512z
M147.418,38.574c-0.598,0.004-1.238,0.168-1.891,0.535c0,0-0.07,2.645-0.148,3.043c-0.434,2.238-0.309,2.504,0.734,2.82
c2.531,0.773,4.605-0.906,4.516-3.535C150.574,39.957,149.203,38.559,147.418,38.574L147.418,38.574z M147.758,38.926
c1.383-0.039,2.637,1.574,2.5,3.098c-0.07,1.824-1.813,2.816-3.379,2.5c-0.461-0.07-0.938-0.16-1.086-0.504
c-0.316-0.484,0.188-0.66,1.238-0.656c1.152,0.008,1.367-0.152,1.746-0.797c0.758-1.277-0.211-2.895-1.445-2.59
c-0.422,0.102-0.48,0.293,0.012,0.43c1.512,0.684,0.949,1.637,0.426,2.02c-0.625,0.461-1.656-0.168-1.832-0.551l0.105-2.465
C146.043,39.41,146.543,38.941,147.758,38.926L147.758,38.926z M132.172,50.359c0,0-0.578,0.277-0.855,0.531
c-0.609,0.566-0.738,1.422-0.438,2.262c0.129,0.371,0.109,0.434-0.355,1.039c-1.324,1.723-1.492,2.586-0.816,4.141
c0.309,0.707,0.313,0.707,0.02,1.641c-1.246,4.004-3.711,8.543-6.34,11.688c-0.406,0.484-0.57,0.984-0.57,0.984
s0.617-0.031,0.957-0.203c2.719-1.352,5.586-3.969,8.254-5.688c-4.219,3.422-8.711,6.484-8.711,6.484l5.738,0.309
c-1.441,1.477-26.609,22.801-19.926,61.051c7.855-1.953,11.512-5.195,15.699-8.945c0.043,3.082,0.109,11.379,0.137,11.379
c0.078-0.137-3.637-1.403-2.754,1.656c0.527,1.68,0.793,5.926-0.141,8.324c-0.039,0.098,0.402,0.262,0.355,0.355
c-0.051,0.109-0.594,0.109-0.594,0.109c-1.426,2.66-5.102,3.242-6.91,3.164c-0.672-0.063-0.398,0.852-0.313,1.184
c0.336,1.367,1.914,4.304,4.863,9.015l0.777,0.103l-0.449,0.414c0.348,0.633,1.277,1.828,1.277,1.828l0.039,0.401
c0,0,1.621,2.25,2.488,3.31c0.059,0.074,0.195-0.099,0.254-0.027c0.48,0.578,1.059,1.227,1.547,1.804
c0.039,0.048-0.074,0.211-0.035,0.254c0.922,1.005,2.734,3.035,2.734,3.035l0.359-0.085l1.426,1.605
c11.824-5.379,24.18-17.273,24.051-17.246l0.102-25.598l-14-0.043l-0.059-33.91l13.984,13.824l-0.094-3.965
c-3.172-3.02-15.918-15.879-15.918-15.879c1.855-0.262,3.652-0.863,5.395-1.809c3.039,1.672,6.293,2.68,10.016,2.184l-0.016-3.762
c-4.227-0.008-6.852-1.41-8.75-3.102l-2.609-0.086c-4.824,3.668-8.234,1.965-11.906,1.242l-2.535-3.652l25.977-0.133l-0.188-8.863
l-3.941,0.09l-2.563-1.895l2.973,1.254c0,0-0.047-0.488-0.645-1.414c-1.598-2.617-3.633-6.465-4.848-9.824
c-0.59-1.707-0.59-1.637-0.094-2.633c0.684-1.375,0.535-3.035-0.363-3.973c-0.633-0.66-0.613-0.801-0.406-1.289
c0.844-1.945-1.191-2.66-1.199-2.535C137.902,52.141,132.066,50.414,132.172,50.359L132.172,50.359z M142.293,51.066
c0.867-0.008,0.961,0.375,0.957,1.023c-0.07,1.184-1.617,1.613-2.313,1.777c-3.34,0.766-9.156,0.313-9.535-1.242
c-0.281-1.145,0.434-1.781,2.805-1.211C138.016,52.23,140.371,51.352,142.293,51.066L142.293,51.066z M131.52,54.371
c0.344-0.004,0.762,0.348,0.879,0.926c0.102,0.492-0.41,1.938-0.84,2.273c-1.059,0.824-2.016-0.461-1.309-1.855
C130.66,54.906,131.074,54.371,131.52,54.371L131.52,54.371z M142.906,54.531c0.16,0.004,0.441,0.039,0.625,0.168
c0.844,0.594,0.922,2.652,0.133,2.949c-0.801,0.305-1.543-0.531-1.535-1.84C142.133,55.008,142.43,54.52,142.906,54.531
L142.906,54.531z M140.238,54.957c0.172-0.008,0.352,0.027,0.539,0.113c0.699,0.324,1.039,2.48,0.344,3.172
c-0.539,0.531-1.695,0.504-2.035-0.605C138.684,56.313,139.313,55.004,140.238,54.957L140.238,54.957z M134.32,55.02
c1.023,0.008,1.258,2.285,0.254,3.227c-0.84,0.785-2.121,0.012-1.719-1.547C133.055,55.922,133.516,55.074,134.32,55.02
L134.32,55.02z M137.234,55.383c1.5,0.258,1.375,3.93-0.59,3.566C135.523,58.168,135.555,55.438,137.234,55.383L137.234,55.383z
M130.672,59.32l2.121,0.195c0,0-2.746,5.945-5.258,8.215c-0.938,0.953-1.48,0.992-0.766-0.023
C128.344,65.762,130.672,59.32,130.672,59.32L130.672,59.32z M143.391,59.355c1.242,3.305,2.512,6.66,4.203,10.039
c-2.57-2.477-4.848-6.289-6.945-9.863L143.391,59.355z M133.418,59.676l1.402,0.016c0.469,2.141,1.277,3.504,2.23,4.676
c0.82-1.391,1.34-2.918,1.848-4.547l1.117-0.016c0.426,0.254-1.316,6.707-3.02,7.488C135.191,65.828,133.668,61.867,133.418,59.676
L133.418,59.676z M132.824,61.203c-0.117,0.152,2.18,5.68,4.125,7.449c1.836-1.777,3.004-4.121,3.789-6.914l6.031,8.465
l-5.879-4.023c-1.176,1.949-2.422,3.809-3.918,5.359c-1.613-1.746-3.012-3.816-4.477-5.785c-2.266,1.68-3.859,3.477-6.805,5.043
C125.703,70.863,131.465,64.586,132.824,61.203L132.824,61.203z M132.258,67.219l4.105,5.016l-10.926-0.156L132.258,67.219z
M141.145,67.297l6.895,4.746l-10.273,0.105L141.145,67.297z M86.223,69.633c0,0,0.055,0.301,0.125,0.48
c1.223,4.992,4.598,9.141,9.676,8.648L79.332,95.445c0,0-2.758-9.352-8.34-18.938c0,0,1.02,0.211,1.813,0.363
c0.746,0.113,1.312,0.078,1.875-0.066c0.426-0.063,0.75-0.344,1.133-0.426c0.645-0.137,1.453,0.098,1.879,0.246
c1.148,0.219,1.929-0.426,3.363-1.691c0.383-0.34,0.527-0.258,1.012-0.254c1.797,0.004,2.945-1.539,2.742-3.934l-0.09-1.063
l-0.227,1.195c-0.429,2.254-0.73,3.227-2.961,3.32c-0.542,0.023-0.746,0.387-1.601,1.121c-1.195,1.027-2.039,1.113-2.887,0.711
c-0.863-0.406-0.945-0.168-1.762,0.223c-0.933,0.445-2.296,0.391-3.523,0.039c-1.711-0.488-1.504-0.324-1.504-0.324
c9.922,17.652,13.406,34.586,13.184,49.625c-0.313,21.43-7.809,38.727-14.387,49.152c0,0,1.129-0.114,2.137-0.262
c0.484-0.133,0.855-0.004,1.336,0.164c0.445,0.156,0.781,0.147,1.218,0.098c0.344-0.039,1.18,0.007,1.719,0.086
c1.219,0.171,1.301,0.012,2.629-1.277c3.774-3.664,3.527-3.527,6.262-3.438c4.097,0.133,7.379,2.836,8.746,7.222
c0.172,0.556,0.398,1.332,0.43,1.332l-0.27-1.159c-1.199-5.884-6.227-8.031-10.426-7.953l17.719-17.766
c-0.09,0.016,4.105,13.516,7.762,19.535c0.008,0.039-1.109-0.48-3.145-0.219c-1.109,0.144-2.352,0-3.047-0.121
c-0.895-0.02-1.441,0.242-2.559,1.164c-0.461,0.394-0.879,0.828-1.785,1.211c-2.156,0.91-3.016,1.851-3.027,4.215
c0,0.429-0.066,0.98-0.059,1.191c0,0.059-0.004,0.133,0.012,0.133c0.035,0,0.086-0.063,0.129-0.125
c0.105-0.156,0.324-0.586,0.492-1.574c0.297-1.766,0.668-2.383,2.344-3.168c0.5-0.235,1.559-0.875,2.027-1.25
c1.543-1.23,2.055-1.512,3.309-1.219c0.711,0.168,1.316,0.25,2.273,0.137c1.137-0.137,1.203-0.196,2.418,0.117
c0.824,0.211,1.848,0.418,1.848,0.418c-17.176-34.485-16.609-66.457,0.344-98.895c0,0-5.02,0.063-5.23,0.191
c-0.082,0.051-0.691-0.004-1.355-0.125c-1.367-0.246-1.066-0.082-4.289,3.156c-3.984,4.008-10.359,0.813-12.277-5.91
c-0.102-0.352-0.188-0.563-0.34-0.813C86.348,69.766,86.223,69.633,86.223,69.633L86.223,69.633z M102.457,73.578
c0.738,0.078,1.289,0.273,1.195,0.961L80,97.699l-0.367-1.492L102.457,73.578z M107.445,73.719c-0.293,0.574-1.082,1.293-1.43,1.836
l1.289,1.602l-0.715,1.289l-1.977-1.66l-3.766,3.715l3.141,3.523l-2.973,3l-0.992-1.121l1.57-1.645l-2.441-2.285l-4.301,4.18
l3.504,3.563l-2.566,2.461l-1.027-0.969l1.348-1.488l-2.285-2.363l-4.003,4.086l3.167,3.527l-2.445,2.43l-1.086-1.102l1.176-1.227
l-2.266-2.375l-4.082,4.027l3.309,3.59l-2.43,2.176l-0.859-0.91l1.176-1.262l-2.223-2.379l-2.531,2.293l-0.422-1.574l25.043-24.879
L107.445,73.719z M108.887,74.086l-1.055,2.117l-0.816-0.895l1.063-1.094L108.887,74.086z M49.813,74.223
c-0.649,0.156-15.559,8.465-24.051,17.582l-0.023,3.398l-0.317,0.406l0.152,5.258l0.211,0.281l0.075,2.145l-0.34,0.563l-0.004,5.891
l0.453,0.074l0.07,7.207l13.95,0.035l-0.016,34.422c0,0-8.192-9-14.09-14.313l0.023,4.024l15.602,16.117
c-1.07,0.147-2.469,0.41-4.574,1.569c-5.063-3.159-10.914-2.19-10.914-2.19l0.023,4.098c3.723-0.359,7.078,0.148,10.992,2.781
c3.219-2.18,7.098-3.508,12.883-1.774c1.274,2.017,2.543,4.095,3.817,5.446l-27.621,0.203l0.035,8.305c1.222,0.023,4.289,0,4.289,0
c1.551,3.043,4.605,7.199,5.875,12.426c-1.742,2.09-1.602,3.773,0.09,5.879c-0.016,0.948-0.301,2,0.765,3.055
c3.516-1.715,7.485-0.953,10.438-0.078c1,0.297,1.379-0.84,1.343-2.278c-0.089-0.819-0.085-1.171,0.547-1.718
c1.504-1.301,0.5-4.278,0.332-4.039c-0.086-2.348,7.438-14.102,7.442-13.887l-1.5,0.543l-6.43,0.027
c16.914-16.305,23.984-34.91,22.504-55.914c-0.332-5.293-1.156-7.715-1.156-7.715c-5.957,2.645-10.852,4.57-15.61,9.664
l-0.312-10.949c0.262,0.52,2.027,0.996,2.82,0.336c0.539-0.355,0.594-0.734,0.094-2.063c-0.727-1.93-0.899-6.066-0.356-7.469
c0.063-0.168,0.118-0.602,0.161-1.031c0.062-0.574-0.063-0.609-0.118-0.598c0.141-0.035,0.723,0.082,0.789,0.02
c2.036-1.785,4.215-2.902,6.887-3.02l0.071-1.305c-1.985-5.008-3.665-6.973-5.461-9.773c0,0-0.508-0.168-0.832-0.102l0.414-0.438
c-2.52-3.996-6.106-7.637-9.403-11.09C49.844,74.223,49.836,74.219,49.813,74.223L49.813,74.223z M49.703,74.902l1.789,1.652
c-8.531,4.098-16.949,10.109-25.238,18.258l0.113-2.996C35.735,83.004,42.805,78.773,49.703,74.902L49.703,74.902z M104.5,77.898
l1.074,1.07l-1.488,1.727l0.969,0.984L104.516,83l-2.477-2.57L104.5,77.898z M51.235,78.035c0.562,0,1.015,0.453,1.015,1.016
s-0.453,1.016-1.015,1.016c-0.563,0-1.02-0.453-1.02-1.016S50.672,78.035,51.235,78.035L51.235,78.035z M124.246,79.438
c17.391,19.359,8.461,47.492-14.754,54.25l-0.258-1.594c23.422-7.887,28.914-34.281,13.715-50.875L124.246,79.438z M54.246,79.566
l1.11,1.285c-9.914,4.73-19.586,11.828-28.938,22.063l-0.09-2.582C35.11,91.102,44.496,84.426,54.246,79.566L54.246,79.566z
M47.852,79.961c0.562,0,1.019,0.457,1.019,1.02c0,0.559-0.457,1.016-1.019,1.016c-0.563,0-1.016-0.457-1.016-1.016
C46.836,80.418,47.289,79.961,47.852,79.961L47.852,79.961z M44.754,81.875c0.563,0,1.02,0.457,1.02,1.016
c0,0.563-0.457,1.02-1.02,1.02c-0.562,0-1.015-0.457-1.015-1.02C43.739,82.332,44.192,81.875,44.754,81.875L44.754,81.875z
M55.067,82.543c0.562,0,1.019,0.457,1.019,1.016c0,0.563-0.457,1.02-1.019,1.02c-0.559,0-1.016-0.457-1.016-1.02
C54.051,83,54.508,82.543,55.067,82.543L55.067,82.543z M99.25,83.246l1.016,1.074l-1.613,1.617l2.297,2.398l2.211-2.125
l-1.109,3.164L82.574,108.84l-0.406-2.039l1.531-1.543l-2.347-2.344l-0.414-1.566l2.312-2.164l0.969,0.996l-1.352,1.559l2.172,2.141
l3.953-3.637l-3.261-3.578l2.691-2.605l0.93,0.91l-1.285,1.324l2.265,2.453l4.055-3.883l-3.328-3.516l2.676-2.641l1.012,0.969
l-1.348,1.617l2.305,2.227l3.973-3.918l-3.266-3.434L99.25,83.246z M41.719,83.93c0.562,0,1.016,0.453,1.016,1.016
s-0.454,1.02-1.016,1.02c-0.563,0-1.02-0.457-1.02-1.02S41.156,83.93,41.719,83.93L41.719,83.93z M57.758,84.125l0.777,1.289
c-11.804,5.961-19.968,11.934-32.05,25.66v-1.727C35.813,97.895,45.508,90.512,57.758,84.125L57.758,84.125z M51.828,84.277
c0.563,0,1.02,0.457,1.02,1.02c0,0.559-0.457,1.016-1.02,1.016c-0.558,0-1.015-0.457-1.015-1.016
C50.813,84.734,51.27,84.277,51.828,84.277L51.828,84.277z M143.164,84.668c2.082,1.855,6.457,3.699,9.273,3.504l0.078,2.23
c-4.918,0.465-9.211-2.68-9.211-2.68c-3.785,2.305-7.641,2.598-11.656,1.598l-1.547-3.313
C136.063,88.77,141.648,86.137,143.164,84.668L143.164,84.668z M119.641,85.273c0.219,0.402,0.953,0.867,0.953,0.867
c4.586-1.191,6.016,3.535,3.875,6.234l0.613,1.98c0.816,0.148,1.535,0.438,2.117,0.84c1.117,0.773,1.73,2.113,1.59,3.52
c0.156,1.523-2.125,2.941-2.246,2.836l-0.031,2.176c0.641,0.535,1.414,1.055,1.906,1.809c1.094,1.84,0.66,3.691-1.031,4.859
c-1.004,0.68-2.094,0.77-2.141,0.699l-1.059,2.473c0.934,0.527,1.195,1.422,1.34,2.063c0.316,1.387-0.656,3.191-1.879,3.859
c-1.543,0.844-3.645,0.094-3.645,0.098l-1.5,1.5c0.387,1.305,0.492,2.082,0.285,2.844c-0.504,1.891-2.488,2.633-4.078,2.491
c-1.25-0.112-2.191-1.026-2.191-1.026l-1.668,0.641c0.047,0,0.027,2.109-0.813,2.754c-0.266,0.273-1.207,0.879-1.207,0.879
l-0.219-1.454c0.66-0.472,1.07-1.625,0.938-2.468l3.598-1.762c0,0.129,0.988,1.086,1.66,1.223c1.383,0.281,2.824-0.797,2.828-2.066
c0-0.738-0.426-1.242-0.547-1.84l3.055-3.164c1.266,0.438,2.152,0.508,2.719,0.184c1.07-0.617,1.355-1.887,1.152-2.652
c-0.246-0.906-1.051-1.492-1.105-1.578l1.703-4.309c0.793-0.004,1.285-0.129,1.906-0.531c1.262-0.828,1.102-2.441,0.563-3.207
c-0.656-0.93-1.609-1.102-1.684-1.082l0.125-4.473c0,0.035,1.727-0.828,1.91-1.828c0.273-1.469-0.348-2.402-2.152-2.82
c-1-0.23-0.949-0.039-0.949-0.039l-1.426-4.047c2.262-1.383,1.543-3.574,0.398-4.309c-1.211-0.777-2.914-0.059-2.914-0.059
s-0.777-0.773-1.367-1.395L119.641,85.273z M59.11,86.094c1.488,1.996,4.004,6,5.41,9.582c0.062,0.156,0.031,0.949,0.031,0.949
c-4.012,0.352-5.391,1.922-6.816,3.031c-1.11-0.57-1.575-1.234-3.575,0.02c-0.007,0.059-5.097-3.082-6.074-7.344
C51.727,90.09,55.196,87.953,59.11,86.094L59.11,86.094z M38.739,86.117c0.562,0,1.015,0.457,1.015,1.02s-0.453,1.016-1.015,1.016
c-0.563,0-1.02-0.453-1.02-1.016S38.176,86.117,38.739,86.117L38.739,86.117z M48.383,86.32c0.563,0,1.02,0.457,1.02,1.016
c0,0.563-0.457,1.02-1.02,1.02c-0.562,0-1.016-0.457-1.016-1.02C47.367,86.777,47.821,86.32,48.383,86.32L48.383,86.32z M118,87.57
c1.754,2.305,4.398,6.672,5.027,10.535c0.883,5.438,0.297,11.141-2.199,15.129c-4.523,8.516-12.363,10.332-12.371,10.629
l-0.078-1.746c0.074,0.391,5.992-2.102,10.023-7.734c2.488-3.816,3.902-9.27,3.422-13.523c-0.301-6.133-4.652-11.789-4.688-11.809
L118,87.57z M35.563,88.398c0.563,0,1.02,0.457,1.02,1.02s-0.457,1.016-1.02,1.016c-0.559,0-1.016-0.453-1.016-1.016
S35.004,88.398,35.563,88.398L35.563,88.398z M45.199,88.414c0.563,0,1.016,0.457,1.016,1.02s-0.453,1.016-1.016,1.016
c-0.562,0-1.019-0.453-1.019-1.016S44.637,88.414,45.199,88.414L45.199,88.414z M132.059,90.133
c2.258,0.242,5.016,4.336,7.531,6.672l0.027,33.366l-7.508,0.153c-0.977,2.347-3.242,4.668-6.855,6.957l-0.004-12.504
C137.566,111.586,134.215,97.145,132.059,90.133L132.059,90.133z M32.801,90.512c0.563,0,1.016,0.453,1.016,1.016
s-0.453,1.02-1.016,1.02c-0.562,0-1.016-0.457-1.016-1.02S32.239,90.512,32.801,90.512L32.801,90.512z M42.074,90.691
c0.563,0,1.016,0.457,1.016,1.02s-0.453,1.016-1.016,1.016c-0.562,0-1.015-0.453-1.015-1.016S41.512,90.691,42.074,90.691
L42.074,90.691z M137.348,90.773l15.344,15.469l-0.051,2.27l-17.293-17.566L137.348,90.773z M47.699,92.227l0.407,1.945
c-0.496-0.781-0.516-1.07-1.375-1.207L47.699,92.227z M39.395,92.793c0.563,0,1.015,0.453,1.015,1.016s-0.453,1.02-1.015,1.02
s-1.016-0.457-1.016-1.02S38.832,92.793,39.395,92.793L39.395,92.793z M30.203,93.078c0.563,0,1.02,0.453,1.02,1.016
s-0.457,1.02-1.02,1.02c-0.562,0-1.015-0.457-1.015-1.02S29.641,93.078,30.203,93.078L30.203,93.078z M116.527,93.078l3.031,2.145
l-0.988,3.867l-3.102-2.785L116.527,93.078z M46.528,93.391l0.539,0.32l-0.625,2.645l-6.977,2.52
C41.707,96.961,44.012,94.871,46.528,93.391L46.528,93.391z M47.668,94.621c0.496,1.961,1.574,4.863,2.891,7.316
c-0.895,0.465-4.113,2.285-4.106,3.129c0.457,1.535,3.856,2.945,3.856,2.945c-1.289,2.086-2.512,4.547-3.516,7.383
c-0.582-0.988-0.648-4.891,0.602-6.512c-1.235-0.484-2.922-1.598-4.203-2.746c0.828-2.93,4.355-4.68,4.507-4.703
C47.637,101.582,46.66,95.316,47.668,94.621L47.668,94.621z M36.352,95.117c0.558,0,1.015,0.453,1.015,1.016
s-0.457,1.016-1.015,1.016c-0.563,0-1.02-0.453-1.02-1.016S35.789,95.117,36.352,95.117L36.352,95.117z M114.016,95.199
c4.527,8.434,1.836,15.758-5.387,21.008l0.168-1.992c4.98-3.613,8.207-10.727,4.57-17.512L114.016,95.199z M27.758,95.441
c0.559,0,1.016,0.457,1.016,1.02c0,0.559-0.457,1.016-1.016,1.016c-0.562,0-1.019-0.457-1.019-1.016
C26.739,95.898,27.196,95.441,27.758,95.441L27.758,95.441z M100.164,95.496c-3.32,12.379-3.238,18.055-3.625,21.41l-12.895,0.113
l-0.5-4.465L100.164,95.496z M48.649,95.836c0,0,2.797,2.598,5.308,4.863l-0.301,0.594l-2.441,0.324
C49.348,97.941,48.649,95.836,48.649,95.836L48.649,95.836z M46.332,97.195l0.02,0.004l0.156,1.844
c-0.836-0.031-9.906,3.758-16.871,9.805c1.035-1.828,2.789-3.582,4.48-5.078C37.719,100.234,46.332,97.195,46.332,97.195
L46.332,97.195z M33.442,97.617c0.562,0,1.019,0.457,1.019,1.016c0,0.563-0.457,1.02-1.019,1.02c-0.563,0-1.016-0.457-1.016-1.02
C32.426,98.074,32.879,97.617,33.442,97.617L33.442,97.617z M39.153,98.773l0.515,0.531l-2.406,1.246L39.153,98.773z M55.93,99.316
c0.031,0,0.066,0,0.101,0.004c0.375,0.047,0.528,0.223,0.743,0.402c-0.473-0.098-0.934-0.152-1.375-0.129
C55.508,99.461,55.699,99.328,55.93,99.316L55.93,99.316z M46.719,99.699l0.223,1.379c-5.219,2.969-11.426,5.77-20.457,14.309v-2.84
C32.153,107.297,38.762,102.891,46.719,99.699L46.719,99.699z M53.739,99.828c0.328,0.082,0.617,0.086,0.914,0.012
c0,0-0.192,0.375-0.414,0.387C54,100.234,53.739,99.828,53.739,99.828L53.739,99.828z M55.953,99.91
c0.657-0.043,1.102,0.559,0.973,1.332c-0.504,2.617-0.484,5.27,0.055,7.125c0.422,1.445,0.527,1.953,0.179,2.195
c-3.078,2.121-4.761-7.441-2.195-10.156C55.313,100.078,55.656,99.93,55.953,99.91L55.953,99.91z M30.836,100.242
c0.559,0,1.016,0.457,1.016,1.02s-0.457,1.016-1.016,1.016c-0.562,0-1.019-0.453-1.019-1.016S30.274,100.242,30.836,100.242
L30.836,100.242z M119.23,100.48l1.914,3.207l-2.664,2.984l-1.621-3.469L119.23,100.48z M53.395,102.223l-0.102,1.105
c-1.371,0.418-2.57,1.008-3.601,1.883c-0.2,0.172,3.183,1.699,3.539,1.344l-0.008,1.184c-0.047,0.387-5.59-1.375-5.965-2.688
C47.883,104.176,51.395,102.141,53.395,102.223L53.395,102.223z M28.16,102.809c0.559,0,1.016,0.457,1.016,1.02
s-0.457,1.016-1.016,1.016c-0.562,0-1.019-0.453-1.019-1.016S27.598,102.809,28.16,102.809L28.16,102.809z M43.281,103.977
c-0.39,0.75-0.976,1.742-1.085,2.828c-3.805,2.305-7.707,4.461-12.454,9.754l-2.558-0.016l-0.059-0.672
C32.313,110.926,37.934,106.66,43.281,103.977L43.281,103.977z M53.082,104.297l0.028,1.395c-0.883,0.012-1.368-0.277-2.028-0.613
C51.637,104.73,52.067,104.379,53.082,104.297L53.082,104.297z M81.707,104.445l0.715,0.75l-0.445,0.414L81.707,104.445z
M43.164,107.344l1.407,0.875c-3.625,1.891-7.442,4.688-10.747,8.34h-2.789C34.559,112.738,38.356,109.313,43.164,107.344
L43.164,107.344z M118.293,108.348l0.281,3.789l-3.539,1.938l0.07-3.996L118.293,108.348z M51.016,108.363l2.43,0.266l0.253,1.027
c-2.043,1.301-3.816,2.824-5.515,4.406C48.832,112.027,49.852,110.012,51.016,108.363L51.016,108.363z M45.18,108.77l1.043,0.48
l-0.414,1.781c-2.981,1.324-5.356,3.113-7.899,5.527h-2.863C37.555,113.871,41.723,110.492,45.18,108.77L45.18,108.77z
M54.235,110.441c0.007,0,0.011,0,0.011,0.004l0.379,11.68c-10.511,12.3-9.941,24.199-6.875,34.988l-2.004-0.09
c-2.332-2.896-5.429-5.844-5.429-5.844l-0.008-33.965l7.246,0.027C49.266,113.289,53.965,110.477,54.235,110.441L54.235,110.441z
M45.676,112.082l0.09,1.559c-1.5,0.887-2.774,1.867-3.867,2.918H39.18C41.059,114.809,42.926,113.047,45.676,112.082
L45.676,112.082z M70.383,112.848l0.402,1.836c-24.394,8.824-28.804,34.477-14.406,52.086l-0.98,1.09
C38.867,150.109,46.121,121.109,70.383,112.848L70.383,112.848z M45.871,114.684c0,0,0.133,1.406,0.176,1.875h-2.734
C43.926,115.84,44.473,115.09,45.871,114.684L45.871,114.684z M114.516,115.273l-1.57,3.66L108.75,119l1.906-3.664L114.516,115.273z
M87.965,117.781h3.82v3.652h-3.82V117.781z M71.422,118.141l0.063,1.605c-1.696,0.867-1.27,2.238-1.696,2.219
c-1.043,0.262-3.797,1.723-3.797,1.723c-0.976-0.887-2.293-0.66-2.902-0.23c-0.848,0.555-1.035,1.848-0.793,2.941l-2.922,3.41
c-1.41-0.602-2.785-0.563-3.469,0.379c-0.773,1.059-0.48,2.375,0.797,3.852l-1.589,4.082c-0.184-0.246-2.844,0.535-2.883,2.117
c-0.035,1.672,2.203,2.765,2.199,2.89l-0.106,4.504c-0.101-0.218-2.285,0.677-1.988,2.832c0.27,1.985,2.977,1.743,3.031,1.911
l1.469,4.309c-0.097-0.134-1.988,1.719-0.832,3.473c0.969,1.461,3.777,0.515,3.754,0.422l0.777,1.093l-0.863,0.935
c0,0-0.371-0.445-0.582-0.402c-1.633,0.309-3.457-0.063-4.332-1.368c-1.191-1.839,0.137-4.718,0.563-4.69l-1.012-2.484
c-1.84-0.035-3.399-1.68-3.481-3.055c-0.175-2.883,2.192-4.09,2.2-4.07l0.066-2.688c-0.145,0.159-2.336-1.395-2.285-3.18
c0.039-1.305,1.137-2.84,2.492-3.461c0.391-0.184,1-0.473,1-0.473l0.914-2.203c0,0-1.293-1.871-0.961-3.758
c0.625-2.855,4.348-2.66,4.938-2.383l1.726-2.164c-0.851-1.973,0.617-4.266,2.539-4.637c0.856-0.137,3.246,0.426,3.246,0.426
l2.211-1.141C68.879,119.664,70.199,118.879,71.422,118.141L71.422,118.141z M84.004,122.141h3.277v3.648h-3.277V122.141z
M92.73,122.141h3.695v3.648H92.73V122.141z M71.688,123.055l-0.043,1.395c-21.149,10.254-12.5,31.484-9.481,33.957l-0.679,1.5
C57.774,157.648,48.203,133.148,71.688,123.055L71.688,123.055z M87.965,126.75h3.973l0.035,3.753h-3.977L87.965,126.75z
M70.77,128.578l-1.262,3.418l-3.883,0.328l1.434-3.414L70.77,128.578z M150.117,131.078l2.66,0.016
c-4.969,5.809-10.332,9.77-15.621,11.938c0,0-0.02-0.516,0.145-0.926c0.129-0.324-0.082-1.146-0.082-1.146
C143.102,138.066,147.141,134.703,150.117,131.078L150.117,131.078z M136.504,131.128c-0.684,0.821-1.465,1.543-2.434,2.082
l-0.383-2.116C134.5,131.082,136.504,131.128,136.504,131.128L136.504,131.128z M141.18,131.082c0.27,0.675-6.973,4.586-7,4.253
l0.02-1.3l3.906-2.898L141.18,131.082z M142.742,131.082h0.016l2.039,0.012c-1.84,2.902-11.578,8.176-11.176,7.434l0.395-2.125
C137.152,135.023,140.004,133.145,142.742,131.082L142.742,131.082z M146.18,131.082l2.68,0.012
c-4.035,5.125-8.129,6.995-12.055,9.199c-0.234-0.036-0.129-0.122-0.863-0.102l-1.344-1.047
C134.848,139.375,143.621,134.23,146.18,131.082L146.18,131.082z M71.129,131.266l-0.09,1.547
c-5.648,4.855-7.91,11.059-4.972,18.258l-0.7,1.539C62.207,144.925,63.141,137.46,71.129,131.266L71.129,131.266z M96.836,131.507
l0.297,4.181L79.61,152.746c2.668-9.532,3.406-15.286,4.121-21.215L96.836,131.507z M152.957,132.492l0.008,2.316
c-6.91,7.612-13.871,11.023-19.891,12.401l-0.137-0.89l2.785-1.719C144.703,140.691,148.633,136.753,152.957,132.492
L152.957,132.492z M131.988,132.55c0.121,1.681-1.371,4.845-3.078,6.63l-2.922-0.009l-0.324-1.269
C128.09,136.598,130.332,134.828,131.988,132.55L131.988,132.55z M132.871,133.051c1.074,1.73-0.539,6.199-0.605,6.023
c-0.129,0.304,9.184,2.273-0.383,6.879c0.207,1.355,1.105,4.242,0.414,6.031c-0.215-0.688-1.879-5.32-3.164-6.508
c2.984-0.852,5.137-2.681,4.902-3.281c-0.484-0.856-1.824-1.906-4.074-2.68C131.879,136.859,132.445,134.863,132.871,133.051
L132.871,133.051z M64.485,133.898l0.3,3.522l-3.402,2.048l-0.262-3.871L64.485,133.898z M123.656,137.171
c0.266,0.005,0.516,0.071,0.637,0.204c1.684,0.68,1.805,8.875,0.277,9.71c-1.105,0.696-1.887-0.421-1.848-0.621
c0.734-3.772,0.277-6.104-0.031-8.737C122.727,137.339,123.215,137.164,123.656,137.171L123.656,137.171z M152.957,137.293v2.914
c-9.875,10.238-20.52,18.309-31.383,22.839l-0.992-1.679C133.777,155.266,144.813,146.559,152.957,137.293L152.957,137.293z
M151.223,137.559c-4.574,6.367-10.148,10.523-17.785,12.41l-0.141-1.805C142.805,146.003,151.469,137.559,151.223,137.559
L151.223,137.559z M26.715,138.589c5.961,6.091,12.066,12.13,18.129,18.38l-2.41,0.125L26.645,140.71L26.715,138.589z
M97.648,138.895l0.211,1.504l-1.734,1.901l2.742,2.946l0.141,0.691l-2.355,2.461l-1.063-1.051l1.301-1.461l-2.207-2.324
l-4.098,3.94l3.375,3.665l-2.547,2.421l-1-1.038l1.301-1.505l-2.262-2.386l-4.175,4.152l3.156,3.488l-2.106,2.331l-1-1.05
l1.082-1.243l-2.289-2.354l-4.011,3.863l3.304,3.652l-2.683,2.671l-1.043-1.011l1.508-1.637l-2.477-2.359l-1.984,1.875
c0,0,0.75-1.859,0.859-2.176c0.16-0.461,0.816-0.828,4.992-4.945C87.567,148.96,92.676,144.313,97.648,138.895L97.648,138.895z
M126.223,139.895c1.457,0.026,3.934,0.379,5.137,1.012c2.23,1.176,1.531,2.101,0.078,2.793c-1.73,0.828-3.152,1.23-5.113,1.289
l0.059-0.961c1.137-0.277,2.316-0.555,3.32-1.109c0.691-0.383,0.871-0.691,0.871-0.691s-0.676-0.684-1.746-1.074
c-0.785-0.285-1.906-0.281-2.52-0.383L126.223,139.895z M61.055,141.164l1.832,2.75l-2.172,3.636l-2.082-3.136L61.055,141.164z
M98.039,141.46c0.063,0.517,0.719,2.532,0.375,2.142l-1.219-1.371L98.039,141.46z M126.336,141.73
c1.016,0.086,2.082,0.113,2.82,0.473c-0.855,0.668-1.832,0.816-2.801,0.98L126.336,141.73z M151.773,143.105
c0.613,0,1.109,0.496,1.109,1.104c0,0.614-0.496,1.11-1.109,1.11s-1.109-0.496-1.109-1.11
C150.664,143.602,151.16,143.105,151.773,143.105L151.773,143.105z M94.57,145.023l0.945,0.914l-1.223,1.426l2.215,2.336
l2.746-2.571l0.363,1.629l-25.714,25.302l-1.426-0.102l1.637-1.934l-1.86-1.898l0.762-1.368l2.195,1.95l4.02-3.844l-3.258-3.43
l2.785-2.855l1.051,0.906l-1.598,1.729l2.328,2.375l4.207-4.136l-3.293-3.578l2.629-2.508l0.961,0.918l-1.219,1.293l2.399,2.496
l3.543-3.688l-3.227-3.555l2.867-2.789l0.879,0.878l-1.32,1.474l2.41,2.496l3.871-3.977l-3.188-3.454L94.57,145.023z
M149.199,145.684c0.613,0,1.109,0.496,1.109,1.109s-0.496,1.109-1.109,1.109c-0.609,0-1.109-0.496-1.109-1.109
S148.59,145.684,149.199,145.684L149.199,145.684z M128.301,145.734c1.746,2.051,2.797,4.332,3.004,6.789
c-1.395-2.117-3.168-3.996-5.496-5.629l0.398-1.027L128.301,145.734z M152.957,145.902v2.473
c-7.789,8.828-17.246,15.48-26.953,20.109l-1.652-2.008C135.836,161.348,144.145,154.984,152.957,145.902L152.957,145.902z
M141.5,147.628l-3.16,2.454l-0.004-1.063L141.5,147.628z M125.223,147.813c2.688,1.313,4.941,3.526,6.285,6.815
c-3.672,2.306-7.699,4.168-11.539,6.028c-1.844-2.969-3.699-5.75-5.156-9.571c5.922-0.046,7.547-3.28,7.59-3.304
C123.828,148.32,124.125,148.382,125.223,147.813L125.223,147.813z M146.496,148.293c0.555,0.012,1.105,0.434,1.125,1.066
c0,0.613-0.496,1.109-1.109,1.109c-0.609,0-1.109-0.496-1.109-1.109C145.523,148.594,146.012,148.285,146.496,148.293
L146.496,148.293z M138.301,149.023l0.008,1.07c-1.512,1.324-4.449,3.469-4.449,3.469l-1.215-0.066l0.395-3.036
C134.879,150.089,136.664,149.551,138.301,149.023L138.301,149.023z M60.953,149.148l2.899,2.383l-0.887,3.695l-2.855-2.164
L60.953,149.148z M99.898,149.844l0.27,1.07L76.34,174.469l-1.355-0.219L99.898,149.844z M143.855,150.757
c0.613,0,1.109,0.496,1.109,1.106c0,0.613-0.496,1.109-1.109,1.109s-1.109-0.496-1.109-1.109
C142.746,151.253,143.242,150.757,143.855,150.757L143.855,150.757z M152.656,150.75c0.129,0,0.281-0.012,0.281,0.113v2.039
c-0.113,0.039-0.238,0.062-0.371,0.062c-0.613,0-1.02-0.495-1.02-1.108C151.547,151.246,152.043,150.75,152.656,150.75
L152.656,150.75z M149.965,153.219c0.613,0,1.109,0.495,1.109,1.109c0,0.613-0.496,1.109-1.109,1.109s-1.109-0.496-1.109-1.109
C148.855,153.714,149.352,153.219,149.965,153.219L149.965,153.219z M140.652,153.23c0.613,0,1.109,0.496,1.109,1.108
c0,0.614-0.496,1.11-1.109,1.11s-1.109-0.496-1.109-1.11C139.543,153.727,140.039,153.23,140.652,153.23L140.652,153.23z
M132.637,153.574l1.141,0.035l-2.117,1.262C132.047,154.382,132.41,154.012,132.637,153.574L132.637,153.574z M152.953,154.089
l0.016,2.282c-5.449,5.445-12.332,11.098-22.855,16.547l-1.34-1.359C137.352,167.469,145.406,161.734,152.953,154.089
L152.953,154.089z M137.477,155.335c0.613,0,1.109,0.497,1.109,1.106c0,0.613-0.496,1.109-1.109,1.109
c-0.609,0-1.105-0.496-1.105-1.109C136.371,155.832,136.867,155.335,137.477,155.335L137.477,155.335z M147.332,155.418
c0.613,0,1.109,0.496,1.109,1.109c0,0.609-0.496,1.104-1.109,1.104s-1.109-0.495-1.109-1.104
C146.223,155.914,146.719,155.418,147.332,155.418L147.332,155.418z M36.946,159.867c3.761-2.184,6.785-2.438,11.093-1.782
l1.285,2.54c-4.195-0.743-8.613-0.676-12.394,2.242c-3.914-2.477-6.891-3.191-10.106-2.789l-0.058-2.676
C30.957,156.816,34.719,158.253,36.946,159.867L36.946,159.867z M134.422,157.453c0.613,0,1.109,0.496,1.109,1.109
c0,0.608-0.496,1.105-1.109,1.105s-1.109-0.497-1.109-1.105C133.313,157.949,133.809,157.453,134.422,157.453L134.422,157.453z
M144.559,157.906c0.609,0,1.105,0.496,1.105,1.109c0,0.612-0.496,1.109-1.105,1.109c-0.613,0-1.109-0.497-1.109-1.109
C143.449,158.402,143.945,157.906,144.559,157.906L144.559,157.906z M131.09,159.563c0.613,0,1.109,0.496,1.109,1.108
c0,0.614-0.496,1.11-1.109,1.11s-1.109-0.496-1.109-1.11C129.98,160.059,130.477,159.563,131.09,159.563L131.09,159.563z
M141.422,160.207c0.613,0,1.109,0.496,1.109,1.105c0,0.613-0.496,1.108-1.109,1.108c-0.609,0-1.105-0.495-1.105-1.108
C140.316,160.703,140.813,160.207,141.422,160.207L141.422,160.207z M127.672,161.523c0.621,0,1.125,0.5,1.125,1.121
s-0.504,1.125-1.125,1.125s-1.121-0.504-1.121-1.125S127.051,161.523,127.672,161.523L127.672,161.523z M138.461,162.453
c0.613,0,1.109,0.496,1.109,1.105c0,0.612-0.496,1.109-1.109,1.109s-1.109-0.497-1.109-1.109
C137.352,162.949,137.848,162.453,138.461,162.453L138.461,162.453z M124.391,163.219c0.609,0,1.109,0.495,1.109,1.109
c0,0.609-0.5,1.105-1.109,1.105c-0.613,0-1.109-0.496-1.109-1.105C123.281,163.714,123.777,163.219,124.391,163.219L124.391,163.219
z M75.387,164.219l2.758,2.527l-2.852,2.859l-1.043-1l1.586-1.66l-1.074-1.445L75.387,164.219z M135.402,164.464
c0.613,0,1.109,0.496,1.109,1.11c0,0.613-0.496,1.109-1.109,1.109s-1.109-0.496-1.109-1.109
C134.293,164.96,134.789,164.464,135.402,164.464L135.402,164.464z M132.211,166.344c0.613,0,1.109,0.495,1.109,1.105
c0,0.613-0.496,1.109-1.109,1.109c-0.609,0-1.109-0.496-1.109-1.109C131.102,166.839,131.602,166.344,132.211,166.344
L132.211,166.344z M128.742,168.227c0.613,0,1.109,0.496,1.109,1.105c0,0.613-0.496,1.109-1.109,1.109
c-0.609,0-1.105-0.496-1.105-1.109C127.637,168.723,128.133,168.227,128.742,168.227L128.742,168.227z M71.739,171.359l0.902,0.734
l-1.414,1.699l-1.078-0.016L71.739,171.359z M54.328,175.945c-3.14,1.555-4.632,2.539-6.824,4.445l-3.14-4.352L54.328,175.945z
M32.953,175.977l8.368,0.117l-2.786,3.938C36.703,178.098,34.84,176.785,32.953,175.977L32.953,175.977z M42.918,176.406
c0.906,0.289,3.278,3.668,4.395,5.515c2.379-1.894,4.711-4.007,7.25-5.144c-3.02,3.191-5.672,6.492-7.563,9.683
c-0.535-1.437-2.023-5.558-3.91-7.347c-2.973,2.773-4.148,6.125-4.148,6.125c-1.598-2.723-3.524-5.457-5.754-8.008
c-0.367-0.5,2.711,1.414,5.761,4.383C39.809,179.449,42.11,176.492,42.918,176.406L42.918,176.406z M32.871,178.531
c1.434,1.14,5.34,6.152,5.789,9.168l-1.871,0.117C35.797,184.723,34.125,181.628,32.871,178.531L32.871,178.531z M53.676,179.043
c-1.414,2.902-3.172,5.867-4.43,9.078l-1.851-0.082C49.422,183.613,50.16,182.805,53.676,179.043L53.676,179.043z M43.074,180.335
c0.016-0.003,0.032,0,0.043,0.013c1.758,2.395,2.586,4.727,3.11,7.563l-1.36-0.051c0,0-0.945-2.848-1.597-3.856
c-0.422-0.612-0.758-0.534-1.055-0.022c-0.672,1.203-0.922,2.406-1.297,3.719l-1.566-0.114
C39.063,185.434,42.524,180.391,43.074,180.335L43.074,180.335z M42.824,188.598c0.637,0.008,1.301,0.698,1.297,1.905
c0.047,0.567-0.39,1.825-0.871,1.892c-0.886,0.469-1.933-0.992-1.668-2.211C41.805,189.145,42.266,188.589,42.824,188.598
L42.824,188.598z M39.75,188.828c1.254,0.109,1.524,2.925,1.016,3.504c-0.586,0.578-2.129,0.168-2.277-0.836
C37.985,190.219,38.906,188.839,39.75,188.828L39.75,188.828z M45.938,188.813c1.367,0.19,1.023,3.281,0.316,3.733
c-1.098,0.582-1.937-0.39-1.566-1.843C44.989,189.535,45.434,188.839,45.938,188.813L45.938,188.813z M49.102,189.324
c1.566,0.176,0.66,2.895-0.024,3.449c-0.992,0.777-1.953-0.383-1.476-1.767C47.973,189.938,48.586,189.316,49.102,189.324
L49.102,189.324z M36.457,189.406c1.141,0.183,1.801,2.762,1.121,3.496c-0.351,0.426-1.382-0.192-1.855-0.899
C35.16,191.156,35.688,189.402,36.457,189.406L36.457,189.406z M48.586,195.023c0.137,1.352-0.887,1.352-3.828,0.69
c-1.484-0.332-4.121-0.12-5.465,0.121c-2.265,0.415-2.586,0.254-2.582-0.667c0.004-1.07,1.274-1.676,4.215-1.766
C43.028,193.335,48.262,193.316,48.586,195.023L48.586,195.023z M53.164,194.227c-3.508,0.332-4.437,4.723-4.05,6.344
c0.304,2.711,0.175,5.551-0.348,7.418c-0.375,1.34-0.707,2.765-1.309,3.98c-0.922,1.836-0.683,3.199,0.684,3.93
c1.121,0.602,2.504,0.395,3.371-0.535c1.566-1.684,1.75-5.254,0.793-13.356c-0.34-2.854-0.156-3.425,1.23-3.265
C56.446,198.719,56.328,194.23,53.164,194.227L53.164,194.227z M52.742,197.918c-0.785-0.305-1.316,0.41-1.211,2.184
c0.028,0.785,0.165,1.672,0.266,2.375c1.133,7.773,0.707,12.98-1.68,13.233c-2.078,0.336-3.484-1.194-2.468-2.776
c0.574-0.895,1.066-1.016,2.183-0.547c1.539,0.952,1.153-0.434-0.23-1.457c-0.887-0.629-0.953-0.629-0.477-2.591
c0.641-2.644,0.856-4.53,0.621-7.879c-0.332-2.366,0.461-5.507,3.473-5.69C56.266,194.675,55.348,199.003,52.742,197.918
L52.742,197.918z M31.231,208.156c0.992,0.476,1.957,0.394,2.898,0.008c0.367-1.652,0.391-3.027,1.504-5.277
c-1.852-1.852-4.973-1.125-5.848,0.82C28.906,205.648,29.723,207.43,31.231,208.156L31.231,208.156z M34.203,202.418
c1.121,0.238,0.953,1.417-0.105,1.035c-2.52-1.188-4.57,2.382-2.539,3.727c1.039,0.582,1.496,0.245,0.469-0.552
c-0.422-0.483-0.317-0.683-0.063-1.168c0.527-0.979,2.449-0.823,2.313-0.108c-0.438,2.258-0.727,2.91-1.407,2.918
C28.961,208.469,28.223,201.148,34.203,202.418L34.203,202.418z M67.434,206.484c0,0-11.653,13.176-17.266,19.926l70.359-0.328
l-13.391-18.469C95.652,210.262,82.156,209.496,67.434,206.484L67.434,206.484z M67.086,210.695
c1.758,0.019,3.758,1.297,5.485,5.551c0.093,0.039,7.738-11.609,14.355,0.449c1.082-2.707,7.316-9.77,14.52-0.707
c2.563-6.063,8.465-4.012,9.016-1.895c-0.121-0.457-5.621-1.762-8.004,2.258c-0.441,0.852-0.465,1.655,0.043,2.137
c1.188,1.129-0.105,2.746-1.461,1.824c-0.531-0.359-0.598-1.109-0.191-1.652c1.195-0.891-1.254-3.664-3.27-4.664
c-2.766-1.368-6.621-0.766-8.472,1.199c-1,1.058-1.61,2.008-1.754,2.765c-0.078,0.353-0.031,0.54,0.179,0.774
c0.805,0.969,0.274,2.297-0.816,2.137c-1.426-0.211-1.234-1.543-0.281-2.273c0.293-0.145,0.183-0.316,0.094-0.563
c-2.602-7.328-12.301-5.934-13.352-0.86c-0.035,0.185-0.121,0.38-0.078,0.567c0.109,0.488,0.391,0.895,0.285,1.277
c-0.445,1.559-2.398,1.112-2.484-0.181c-0.039-0.586,0.593-0.761,0.902-1.3c0.188-0.336,0.273-0.746,0.094-1.118
c-2.629-5.507-7.141-4.354-9.379-3.112C62.469,213.335,64.516,210.668,67.086,210.695L67.086,210.695z M64.172,213.887
c0.961-0.035,1.836,0.438,2.652,1.387c2.754-1.457,4.715,1.065,4.387,1.309c-3.898-2.531-5.168,3.367-1.324,3.145
c-1.688,3.492,4.344,4.992,3.668,0.523c3.723,1.301,4.336-3.813,0.566-3.734c1.219-2.109,4.383-1.527,5.719-0.207
c1.574-1.922,5.438-0.09,5.82,1.555c-4.332-2.223-4.769,4.562-0.574,3.117c-1.242,4.315,5.43,3.703,3.582-0.021
c4.156,1.368,3.59-4.839-0.492-3.582c-0.246-0.319,3.227-3.909,5.754-0.539c0.344-0.593,4.289-2.539,6.445,0.517
c-4.676-1.582-3.789,4.715-0.438,3.465c-0.898,4.168,5.148,3.492,3.605-0.063c4.684,1.185,2.609-5.952-0.684-3.315
c0.539-2.871,4.477-1.68,4.434-1.238c0-0.004,2.09-2.262,4.434-0.609c-3.66,0.309-2.414,5.245,1.043,3.84
c-0.035,1.676,1.355,2.785,3.238,2.215l2.957,4.137l-67.445,0.422l5.386-6.422c1.801,1.492,3.672,0.785,3.903-1.551
c3.922,2.406,4.941-3.31,1.258-3.555C62.817,214.171,63.512,213.91,64.172,213.887L64.172,213.887z M60.403,215.742
c0.23,0.164-0.086,0.961-0.602,0.73L60.403,215.742z M112.992,217.402c0.199,0.285,0.34,0.473,0.543,0.758
C113.629,218.418,112.48,218.023,112.992,217.402L112.992,217.402z M112.992,217.402"/>
</svg>
