<?xml version="1.0" encoding="utf-8"?>
<!DOCTYPE svg PUBLIC "-//W3C//DTD SVG 1.1//EN" "http://www.w3.org/Graphics/SVG/1.1/DTD/svg11.dtd" [
<!ENTITY ns_svg "http://www.w3.org/2000/svg">
<!ENTITY ns_xlink "http://www.w3.org/1999/xlink">
]>
<svg version="1.1" id="Layer_1" xmlns="&ns_svg;" xmlns:xlink="&ns_xlink;" width="179.379" height="250.246"
viewBox="0 0 179.379 250.246" overflow="visible" enable-background="new 0 0 179.379 250.246" xml:space="preserve">
<path fill="#FFFFFF" d="M8.903,0.398h161.574c4.711,0,8.504,3.793,8.504,8.504v232.441c0,4.711-3.793,8.504-8.504,8.504H8.903
c-4.711,0-8.504-3.793-8.504-8.504V8.902C0.399,4.191,4.192,0.398,8.903,0.398L8.903,0.398z M8.903,0.398"/>
<path fill="none" stroke="#000000" stroke-width="0.7974" d="M8.903,0.398h161.574c4.711,0,8.504,3.793,8.504,8.504v232.441
c0,4.711-3.793,8.504-8.504,8.504H8.903c-4.711,0-8.504-3.793-8.504-8.504V8.902C0.399,4.191,4.192,0.398,8.903,0.398L8.903,0.398z
M8.903,0.398"/>
<path fill="#D40000" d="M7.66,48.586c-1.265-2.777-1.406-7.523,2.379-8.168c2.848-0.367,4.008,0.961,4.239,2.996
c0.113,0.594,0.449,0.629,0.554-0.047c0.164-2.09,2.23-3.309,3.848-3c4.422,0.754,4.164,5.621,2.719,8.922
c-2.184,4.387-4.481,7.152-6.598,11.563C12.371,56.258,9.598,52.527,7.66,48.586L7.66,48.586z M7.66,48.586"/>
<path fill="#D40000" d="M157.84,201.602c-1.266,2.776-1.406,7.526,2.379,8.168c2.848,0.367,4.008-0.961,4.238-2.992
c0.113-0.598,0.449-0.633,0.555,0.043c0.164,2.09,2.23,3.308,3.848,3c4.418-0.754,4.16-5.621,2.719-8.922
c-2.188-4.383-4.48-7.152-6.598-11.563C162.551,193.93,159.773,197.66,157.84,201.602L157.84,201.602z M157.84,201.602"/>
<path fill="#D40000" d="M6.938,37.711l0.129-1.617c0.41-4.992,1.5-6.676,7.699-11.883c3.008-2.527,3.996-3.773,4.133-5.223
c0.394-3.406-2.68-4.473-4.684-4.488c-2.594-0.027-5.527,1.527-4.129,5.129L7.18,20.484c-0.59-3.359,0.012-6.516,2.738-7.914
c3.637-1.824,8.305-1.109,10.66,1.766c1.582,1.93,1.942,4.598,1.094,6.684c-2.48,5.336-10.898,7.684-11.594,13.855h9.305v-3.438
h2.742v6.328L6.938,37.711z M6.938,37.711"/>
<path fill="#D40000" d="M172.223,212.539l-0.133,1.617c-0.406,4.988-1.5,6.676-7.695,11.883c-3.008,2.527-3.996,3.773-4.137,5.218
c-0.391,3.411,2.684,4.474,4.684,4.493c2.594,0.023,5.531-1.527,4.129-5.129l2.91-0.855c0.59,3.359-0.012,6.512-2.738,7.914
c-3.637,1.823-8.305,1.109-10.66-1.766c-1.582-1.93-1.941-4.598-1.094-6.684c2.48-5.34,10.898-7.688,11.594-13.855h-9.305v3.434
h-2.742v-6.324L172.223,212.539z M172.223,212.539"/>
<path fill="#D40000" d="M80.02,22.773c5.715-0.379,8.695,4.5,9.277,8.348c0.348,0.613,0.535,0.441,0.668-0.031
c0.281-4.941,4.703-8.977,8.797-8.426c6.66,0.086,10.711,7.5,9.57,13.773c-1.391,7.668-5.52,12.281-8.645,17.035
c-3.539,4.922-8.297,12.031-9.832,15.453c0,0-4.84-7.363-11.133-16.023c-4.211-5.789-7.578-12.066-7.895-17.469
C70.473,29.262,73.004,23.73,80.02,22.773L80.02,22.773z M80.02,22.773"/>
<path fill="#D40000" d="M80.02,227.813c5.715,0.379,8.695-4.5,9.277-8.349c0.348-0.612,0.535-0.437,0.668,0.036
c0.281,4.938,4.703,8.973,8.797,8.421c6.66-0.086,10.711-7.5,9.57-13.772c-1.391-7.668-5.52-12.281-8.645-17.035
c-3.539-4.922-8.297-12.031-9.832-15.453c0,0-4.84,7.363-11.133,16.023c-4.211,5.789-7.578,12.066-7.895,17.469
C70.473,221.324,73.004,226.855,80.02,227.813L80.02,227.813z M80.02,227.813"/>
</svg>
