<?xml version="1.0" encoding="utf-8"?>
<!DOCTYPE svg PUBLIC "-//W3C//DTD SVG 1.1//EN" "http://www.w3.org/Graphics/SVG/1.1/DTD/svg11.dtd" [
<!ENTITY ns_svg "http://www.w3.org/2000/svg">
<!ENTITY ns_xlink "http://www.w3.org/1999/xlink">
]>
<svg version="1.1" id="Layer_1" xmlns="&ns_svg;" xmlns:xlink="&ns_xlink;" width="179.379" height="250.246"
viewBox="0 0 179.379 250.246" overflow="visible" enable-background="new 0 0 179.379 250.246" xml:space="preserve">
<path fill="#FFFFFF" d="M8.903,0.398h161.574c4.711,0,8.504,3.793,8.504,8.504v232.441c0,4.711-3.793,8.504-8.504,8.504H8.903
c-4.711,0-8.504-3.793-8.504-8.504V8.902C0.399,4.191,4.192,0.398,8.903,0.398L8.903,0.398z M8.903,0.398"/>
<path fill="none" stroke="#000000" stroke-width="0.7974" d="M8.903,0.398h161.574c4.711,0,8.504,3.793,8.504,8.504v232.441
c0,4.711-3.793,8.504-8.504,8.504H8.903c-4.711,0-8.504-3.793-8.504-8.504V8.902C0.399,4.191,4.192,0.398,8.903,0.398L8.903,0.398z
M8.903,0.398"/>
<path fill="#D40000" d="M7.156,31.77l2.04-1.469c1.769,2.824,3.746,4.688,6.769,4.367c4.539-0.305,6.422-4.977,5.469-8.496
c-0.918-3.156-4.676-4.695-7.66-3.012c-0.707,0.398-1.52,0.887-1.52,0.887l-1.062-1.73l7.011-8.156h-7.609v3.375H7.672v-6.051
h14.875v2.055c0,0-3.984,4.055-5.305,6.277c3.247,0.117,5.86,2.133,6.793,5.324c0.551,1.68,0.305,5.523-0.41,7.176
c-1.195,2.762-4.469,5-7.457,5.129C11.149,37.777,8.485,34.324,7.156,31.77L7.156,31.77z M7.156,31.77"/>
<path fill="#D40000" d="M172.223,218.477l-2.039,1.473c-1.773-2.824-3.75-4.692-6.773-4.367c-4.539,0.305-6.418,4.973-5.469,8.496
c0.918,3.156,4.676,4.695,7.664,3.011c0.703-0.397,1.52-0.812,1.52-0.812l1.258,1.625l-7.207,8.187h7.609v-3.375h2.918v6.052
h-14.871v-2.056c0,0,3.984-4.054,5.301-6.276c-3.242-0.117-5.855-2.138-6.793-5.328c-0.547-1.676-0.301-5.521,0.414-7.172
c1.195-2.763,4.469-5,7.457-5.129C168.227,212.473,170.891,215.926,172.223,218.477L172.223,218.477z M172.223,218.477"/>
<path fill="#D40000" d="M8.192,48.934c-1.266-2.781-1.407-7.527,2.379-8.168c2.847-0.367,4.007,0.957,4.238,2.992
c0.113,0.594,0.449,0.633,0.555-0.047c0.164-2.086,2.23-3.305,3.847-3c4.418,0.758,4.16,5.625,2.719,8.926
c-2.188,4.383-4.481,7.148-6.598,11.563C12.903,56.605,10.125,52.875,8.192,48.934L8.192,48.934z M8.192,48.934"/>
<path fill="#D40000" d="M80,23.391c5.715-0.379,8.692,4.5,9.274,8.348c0.347,0.613,0.539,0.441,0.672-0.035
c0.277-4.938,4.699-8.973,8.792-8.422c6.66,0.086,10.711,7.5,9.574,13.773c-1.391,7.668-5.52,12.281-8.648,17.035
c-3.535,4.922-8.297,12.031-9.832,15.453c0,0-4.84-7.363-11.133-16.023c-4.21-5.789-7.578-12.066-7.89-17.469
C70.449,29.879,72.981,24.348,80,23.391L80,23.391z M80,23.391"/>
<path fill="#D40000" d="M80.047,102.129c5.719-0.383,8.695,4.5,9.277,8.348c0.348,0.609,0.54,0.438,0.672-0.035
c0.278-4.938,4.7-8.977,8.793-8.422c6.66,0.086,10.711,7.5,9.574,13.773c-1.391,7.664-5.52,12.281-8.648,17.035
c-3.535,4.922-8.297,12.031-9.832,15.453c0,0-4.84-7.363-11.133-16.024c-4.211-5.789-7.578-12.065-7.89-17.468
C70.5,108.617,73.031,103.086,80.047,102.129L80.047,102.129z M80.047,102.129"/>
<path fill="#D40000" d="M157.781,201.902c-1.266,2.777-1.406,7.522,2.375,8.164c2.852,0.367,4.012-0.957,4.242-2.992
c0.113-0.594,0.449-0.629,0.555,0.047c0.164,2.086,2.23,3.304,3.844,3c4.422-0.758,4.164-5.621,2.719-8.926
c-2.184-4.383-4.48-7.149-6.594-11.559C162.492,194.227,159.715,197.957,157.781,201.902L157.781,201.902z M157.781,201.902"/>
<path fill="#D40000" d="M80,227.066c5.715,0.379,8.692-4.5,9.274-8.348c0.347-0.613,0.539-0.441,0.672,0.031
c0.277,4.941,4.699,8.977,8.792,8.426c6.66-0.087,10.711-7.5,9.574-13.773c-1.391-7.668-5.52-12.281-8.648-17.035
c-3.535-4.922-8.297-12.032-9.832-15.453c0,0-4.84,7.363-11.133,16.023c-4.21,5.789-7.578,12.065-7.89,17.469
C70.449,220.578,72.981,226.109,80,227.066L80,227.066z M80,227.066"/>
</svg>
