<?xml version="1.0" encoding="utf-8"?>
<!DOCTYPE svg PUBLIC "-//W3C//DTD SVG 1.1//EN" "http://www.w3.org/Graphics/SVG/1.1/DTD/svg11.dtd" [
<!ENTITY ns_svg "http://www.w3.org/2000/svg">
<!ENTITY ns_xlink "http://www.w3.org/1999/xlink">
]>
<svg version="1.1" id="Layer_1" xmlns="&ns_svg;" xmlns:xlink="&ns_xlink;" width="179.379" height="250.246"
viewBox="0 0 179.379 250.246" overflow="visible" enable-background="new 0 0 179.379 250.246" xml:space="preserve">
<path fill="#FFFFFF" d="M8.903,0.398h161.574c4.711,0,8.504,3.793,8.504,8.504v232.441c0,4.711-3.793,8.504-8.504,8.504H8.903
c-4.711,0-8.504-3.793-8.504-8.504V8.902C0.399,4.191,4.192,0.398,8.903,0.398L8.903,0.398z M8.903,0.398"/>
<path fill="none" stroke="#000000" stroke-width="0.7974" d="M8.903,0.398h161.574c4.711,0,8.504,3.793,8.504,8.504v232.441
c0,4.711-3.793,8.504-8.504,8.504H8.903c-4.711,0-8.504-3.793-8.504-8.504V8.902C0.399,4.191,4.192,0.398,8.903,0.398L8.903,0.398z
M8.903,0.398"/>
<path fill="#D40000" d="M6.989,29.199c-0.325-2.195-0.321-7.875-0.051-9.551c0.82-5.145,2.824-7.496,6.176-8.27
c3.257-0.746,7.832,0.086,8.835,4.387l-2.726,0.051c-1.469-2.906-5.195-2.129-7.289-0.867c-1.676,1.012-2.434,5.219-2.11,5.477
c-0.003,0,3.168-2.301,5.661-2.133c5.336,0.547,7.535,5.086,7.347,9.375c-0.168,5.16-1.836,9.281-7.488,9.559
C9.969,37.023,7.504,34.145,6.989,29.199L6.989,29.199z M20.246,27.836c0.028-3.578-1.629-6.258-4.761-6.555
c-3.133-0.293-6.289,2.707-6.071,6.355c0.219,3.66,1.664,6.746,5.461,6.727C18.961,34.348,20.223,30.383,20.246,27.836
L20.246,27.836z M20.246,27.836"/>
<path fill="#D40000" d="M172.387,221.046c0.328,2.2,0.324,7.879,0.055,9.556c-0.824,5.145-2.828,7.496-6.18,8.266
c-3.254,0.75-7.832-0.082-8.836-4.383l2.727-0.051c1.473,2.905,5.195,2.129,7.293,0.862c1.676-1.007,2.43-5.214,2.105-5.472
c0.004,0-3.164,2.301-5.66,2.133c-5.332-0.547-7.531-5.086-7.348-9.375c0.168-5.161,1.836-9.286,7.488-9.559
C169.406,213.227,171.871,216.105,172.387,221.046L172.387,221.046z M159.133,222.414c-0.031,3.578,1.625,6.257,4.758,6.55
c3.133,0.298,6.293-2.702,6.074-6.351c-0.223-3.66-1.664-6.746-5.461-6.731C160.418,215.902,159.152,219.867,159.133,222.414
L159.133,222.414z M159.133,222.414"/>
<path fill="#D40000" d="M7.317,47.898c-1.266-2.777-1.403-7.523,2.379-8.164c2.847-0.367,4.007,0.957,4.238,2.992
c0.113,0.594,0.449,0.629,0.555-0.047c0.164-2.086,2.23-3.305,3.847-3c4.422,0.758,4.164,5.621,2.719,8.926
c-2.184,4.383-4.481,7.148-6.598,11.559C12.028,55.574,9.254,51.84,7.317,47.898L7.317,47.898z M7.317,47.898"/>
<path fill="#D40000" d="M35.547,23.09c5.715-0.379,8.695,4.504,9.277,8.352c0.348,0.609,0.536,0.438,0.668-0.035
c0.282-4.941,4.704-8.977,8.797-8.426c6.66,0.086,10.711,7.5,9.571,13.777c-1.391,7.664-5.52,12.281-8.645,17.035
c-3.539,4.922-8.297,12.031-9.832,15.453c0,0-4.84-7.363-11.133-16.023c-4.211-5.793-7.578-12.066-7.894-17.469
C26,29.582,28.531,24.047,35.547,23.09L35.547,23.09z M35.547,23.09"/>
<path fill="#D40000" d="M124.773,23.09c5.715-0.379,8.695,4.504,9.277,8.352c0.348,0.609,0.535,0.438,0.668-0.035
c0.281-4.941,4.699-8.977,8.797-8.426c6.66,0.086,10.711,7.5,9.57,13.777c-1.391,7.664-5.52,12.281-8.645,17.035
c-3.539,4.922-8.297,12.031-9.832,15.453c0,0-4.84-7.363-11.133-16.023c-4.211-5.793-7.582-12.066-7.895-17.469
C115.223,29.582,117.758,24.047,124.773,23.09L124.773,23.09z M124.773,23.09"/>
<path fill="#D40000" d="M124.773,102.207c5.715-0.383,8.695,4.5,9.277,8.348c0.348,0.609,0.535,0.438,0.668-0.035
c0.281-4.938,4.699-8.977,8.797-8.422c6.66,0.086,10.711,7.5,9.57,13.773c-1.391,7.664-5.52,12.281-8.645,17.035
c-3.539,4.922-8.297,12.031-9.832,15.453c0,0-4.84-7.363-11.133-16.024c-4.211-5.789-7.582-12.065-7.895-17.468
C115.223,108.695,117.758,103.164,124.773,102.207L124.773,102.207z M124.773,102.207"/>
<path fill="#D40000" d="M35.547,102.207c5.715-0.383,8.695,4.5,9.277,8.348c0.348,0.609,0.536,0.438,0.668-0.035
c0.282-4.938,4.704-8.977,8.797-8.422c6.66,0.086,10.711,7.5,9.571,13.773c-1.391,7.664-5.52,12.281-8.645,17.035
c-3.539,4.922-8.297,12.031-9.832,15.453c0,0-4.84-7.363-11.133-16.024c-4.211-5.789-7.578-12.065-7.894-17.468
C26,108.695,28.531,103.164,35.547,102.207L35.547,102.207z M35.547,102.207"/>
<path fill="#D40000" d="M35.547,227.078c5.715,0.379,8.695-4.5,9.277-8.348c0.348-0.613,0.536-0.441,0.668,0.031
c0.282,4.941,4.704,8.977,8.797,8.426c6.66-0.086,10.711-7.5,9.571-13.773c-1.391-7.668-5.52-12.282-8.645-17.036
c-3.539-4.921-8.297-12.03-9.832-15.453c0,0-4.84,7.364-11.133,16.024c-4.211,5.789-7.578,12.066-7.894,17.469
C26,220.589,28.531,226.121,35.547,227.078L35.547,227.078z M35.547,227.078"/>
<path fill="#D40000" d="M124.773,227.078c5.715,0.379,8.695-4.5,9.277-8.348c0.348-0.613,0.535-0.441,0.668,0.031
c0.281,4.941,4.699,8.977,8.797,8.426c6.66-0.086,10.711-7.5,9.57-13.773c-1.391-7.668-5.52-12.282-8.645-17.036
c-3.539-4.921-8.297-12.03-9.832-15.453c0,0-4.84,7.364-11.133,16.024c-4.211,5.789-7.582,12.066-7.895,17.469
C115.223,220.589,117.758,226.121,124.773,227.078L124.773,227.078z M124.773,227.078"/>
<path fill="#D40000" d="M158.371,200.585c-1.27,2.778-1.406,7.524,2.375,8.165c2.852,0.367,4.012-0.957,4.242-2.993
c0.113-0.593,0.449-0.629,0.555,0.048c0.164,2.086,2.23,3.305,3.844,3c4.422-0.759,4.164-5.621,2.719-8.927
c-2.184-4.382-4.48-7.147-6.594-11.558C163.078,192.91,160.305,196.645,158.371,200.585L158.371,200.585z M158.371,200.585"/>
</svg>
