<?xml version="1.0" encoding="utf-8"?>
<!DOCTYPE svg PUBLIC "-//W3C//DTD SVG 1.1//EN" "http://www.w3.org/Graphics/SVG/1.1/DTD/svg11.dtd" [
<!ENTITY ns_svg "http://www.w3.org/2000/svg">
<!ENTITY ns_xlink "http://www.w3.org/1999/xlink">
]>
<svg version="1.1" id="Layer_1" xmlns="&ns_svg;" xmlns:xlink="&ns_xlink;" width="179.379" height="250.246"
viewBox="0 0 179.379 250.246" overflow="visible" enable-background="new 0 0 179.379 250.246" xml:space="preserve">
<path fill="#FFFFFF" d="M8.903,0.398h161.574c4.711,0,8.504,3.793,8.504,8.504v232.441c0,4.711-3.793,8.504-8.504,8.504H8.903
c-4.711,0-8.504-3.793-8.504-8.504V8.902C0.399,4.191,4.192,0.398,8.903,0.398L8.903,0.398z M8.903,0.398"/>
<path fill="none" stroke="#000000" stroke-width="0.7974" d="M8.903,0.398h161.574c4.711,0,8.504,3.793,8.504,8.504v232.441
c0,4.711-3.793,8.504-8.504,8.504H8.903c-4.711,0-8.504-3.793-8.504-8.504V8.902C0.399,4.191,4.192,0.398,8.903,0.398L8.903,0.398z
M8.903,0.398"/>
<path fill="#D40000" d="M5.871,30.441c0.129-3.5,1.418-4.816,3.957-6.648c-2.027-1.438-2.879-3.551-2.707-5.352
c0.418-4.355,3.848-6.535,7.59-6.441c3.738,0.094,6.961,3.012,7.215,6.18c0.219,2.754-0.617,4.082-2.605,5.531
c2.359,1.953,3.871,3.238,3.812,6.688c-0.055,3.449-3.043,7.551-8.25,7.676C9.676,38.203,5.746,33.941,5.871,30.441L5.871,30.441z
M20.41,30.453c0.223-3.172-2.629-5.309-5.851-5.344c-3.137-0.031-5.945,2.598-5.945,5.445c0,3.055,3.652,4.715,6.007,4.727
C17.489,35.289,20.219,33.184,20.41,30.453L20.41,30.453z M19.379,19.113c0.063-2.672-2.445-4.582-5.031-4.508
c-2.301,0.07-4.734,1.793-4.738,4.027c0,2.789,2.769,4.184,5.136,4.238C16.891,22.918,19.332,21.129,19.379,19.113L19.379,19.113z
M19.379,19.113"/>
<path fill="#D40000" d="M173.504,219.809c-0.129,3.5-1.414,4.816-3.953,6.648c2.023,1.434,2.879,3.546,2.703,5.348
c-0.414,4.359-3.848,6.539-7.586,6.445c-3.742-0.098-6.965-3.012-7.215-6.18c-0.219-2.754,0.617-4.082,2.605-5.531
c-2.363-1.954-3.871-3.239-3.816-6.688c0.059-3.449,3.047-7.552,8.254-7.681C169.703,212.046,173.633,216.309,173.504,219.809
L173.504,219.809z M158.969,219.796c-0.227,3.173,2.629,5.31,5.848,5.341c3.141,0.034,5.945-2.594,5.945-5.441
c0-3.055-3.648-4.719-6.008-4.727C161.887,214.957,159.16,217.066,158.969,219.796L158.969,219.796z M159.996,231.137
c-0.063,2.668,2.445,4.582,5.031,4.504c2.301-0.066,4.738-1.789,4.738-4.023c0.004-2.793-2.77-4.184-5.133-4.239
C162.488,227.332,160.043,229.117,159.996,231.137L159.996,231.137z M159.996,231.137"/>
<path fill="#D40000" d="M8.063,50.727c-1.266-2.777-1.407-7.523,2.379-8.164c2.847-0.367,4.007,0.957,4.238,2.992
c0.113,0.594,0.449,0.633,0.555-0.047c0.164-2.086,2.23-3.305,3.847-3c4.418,0.758,4.16,5.625,2.719,8.926
c-2.187,4.383-4.48,7.148-6.598,11.563C12.774,58.402,9.996,54.672,8.063,50.727L8.063,50.727z M8.063,50.727"/>
<path fill="#D40000" d="M36.047,22.508c5.715-0.379,8.692,4.504,9.274,8.352c0.347,0.609,0.539,0.438,0.671-0.035
c0.278-4.938,4.7-8.977,8.793-8.422c6.664,0.086,10.711,7.5,9.575,13.773c-1.391,7.664-5.52,12.281-8.649,17.035
c-3.535,4.922-8.297,12.031-9.832,15.453c0,0-4.836-7.363-11.133-16.023c-4.211-5.793-7.578-12.066-7.89-17.469
c-0.36-6.172,2.175-11.707,9.191-12.66V22.508z M36.047,22.508"/>
<path fill="#D40000" d="M123.672,22.508c5.715-0.379,8.695,4.504,9.277,8.352c0.344,0.609,0.535,0.438,0.668-0.035
c0.281-4.938,4.699-8.977,8.793-8.422c6.664,0.086,10.715,7.5,9.574,13.773c-1.391,7.664-5.52,12.281-8.645,17.035
c-3.539,4.922-8.301,12.031-9.832,15.453c0,0-4.84-7.363-11.137-16.023c-4.207-5.793-7.578-12.066-7.891-17.469
c-0.359-6.172,2.176-11.707,9.191-12.66V22.508z M123.672,22.508"/>
<path fill="#D40000" d="M79.391,62.609c5.715-0.379,8.695,4.5,9.277,8.348c0.348,0.613,0.535,0.441,0.668-0.031
c0.281-4.941,4.703-8.977,8.797-8.426c6.66,0.086,10.711,7.5,9.57,13.773c-1.391,7.668-5.52,12.281-8.645,17.035
c-3.535,4.922-8.297,12.031-9.832,15.453c0,0-4.84-7.363-11.133-16.023c-4.211-5.789-7.578-12.066-7.895-17.469
C69.844,69.098,72.375,63.566,79.391,62.609L79.391,62.609z M79.391,62.609"/>
<path fill="#D40000" d="M36.047,102.707c5.715-0.379,8.692,4.504,9.274,8.352c0.347,0.609,0.539,0.438,0.671-0.035
c0.278-4.938,4.7-8.977,8.793-8.422c6.664,0.086,10.711,7.5,9.575,13.773c-1.391,7.664-5.52,12.281-8.649,17.035
c-3.535,4.922-8.297,12.031-9.832,15.453c0,0-4.836-7.363-11.133-16.024c-4.211-5.793-7.578-12.065-7.89-17.468
C26.496,109.199,29.031,103.664,36.047,102.707L36.047,102.707z M36.047,102.707"/>
<path fill="#D40000" d="M123.672,102.707c5.715-0.379,8.695,4.504,9.277,8.352c0.344,0.609,0.535,0.438,0.668-0.035
c0.281-4.938,4.699-8.977,8.793-8.422c6.664,0.086,10.715,7.5,9.574,13.773c-1.391,7.664-5.52,12.281-8.645,17.035
c-3.539,4.922-8.301,12.031-9.832,15.453c0,0-4.84-7.363-11.137-16.024c-4.207-5.793-7.578-12.065-7.891-17.468
C114.121,109.199,116.656,103.664,123.672,102.707L123.672,102.707z M123.672,102.707"/>
<path fill="#D40000" d="M123.672,227.582c5.715,0.378,8.695-4.5,9.277-8.348c0.344-0.613,0.535-0.441,0.668,0.031
c0.281,4.941,4.699,8.977,8.793,8.426c6.664-0.086,10.715-7.5,9.574-13.777c-1.391-7.664-5.52-12.277-8.645-17.032
c-3.539-4.922-8.301-12.03-9.832-15.452c0,0-4.84,7.363-11.137,16.023c-4.207,5.789-7.578,12.063-7.891,17.465
C114.121,221.094,116.656,226.625,123.672,227.582L123.672,227.582z M123.672,227.582"/>
<path fill="#D40000" d="M79.391,188.145c5.715,0.379,8.695-4.504,9.277-8.352c0.348-0.609,0.535-0.438,0.668,0.035
c0.281,4.938,4.703,8.977,8.797,8.422c6.66-0.086,10.711-7.5,9.57-13.773c-1.391-7.664-5.52-12.281-8.645-17.035
c-3.535-4.922-8.297-12.031-9.832-15.453c0,0-4.84,7.363-11.133,16.023c-4.211,5.793-7.578,12.066-7.895,17.469
c-0.355,6.172,2.176,11.707,9.192,12.66V188.145z M79.391,188.145"/>
<path fill="#D40000" d="M36.047,227.582c5.715,0.378,8.692-4.5,9.274-8.348c0.347-0.613,0.539-0.441,0.671,0.031
c0.278,4.941,4.7,8.977,8.793,8.426c6.664-0.086,10.711-7.5,9.575-13.777c-1.391-7.664-5.52-12.277-8.649-17.032
c-3.535-4.922-8.297-12.03-9.832-15.452c0,0-4.836,7.363-11.133,16.023c-4.211,5.789-7.578,12.063-7.89,17.465
C26.496,221.094,29.031,226.625,36.047,227.582L36.047,227.582z M36.047,227.582"/>
<path fill="#D40000" d="M159.113,203.414c-1.266,2.777-1.402,7.523,2.379,8.168c2.848,0.367,4.008-0.961,4.238-2.997
c0.113-0.593,0.449-0.628,0.559,0.047c0.16,2.091,2.227,3.31,3.844,3c4.422-0.754,4.164-5.62,2.719-8.922
c-2.184-4.386-4.48-7.151-6.598-11.562C163.824,195.742,161.051,199.473,159.113,203.414L159.113,203.414z M159.113,203.414"/>
</svg>
