<?xml version="1.0" encoding="utf-8"?>
<!DOCTYPE svg PUBLIC "-//W3C//DTD SVG 1.1//EN" "http://www.w3.org/Graphics/SVG/1.1/DTD/svg11.dtd" [
<!ENTITY ns_svg "http://www.w3.org/2000/svg">
<!ENTITY ns_xlink "http://www.w3.org/1999/xlink">
]>
<svg version="1.1" id="Layer_1" xmlns="&ns_svg;" xmlns:xlink="&ns_xlink;" width="179.379" height="250.246"
viewBox="0 0 179.379 250.246" overflow="visible" enable-background="new 0 0 179.379 250.246" xml:space="preserve">
<path fill="#FFFFFF" d="M8.903,0.398h161.574c4.711,0,8.504,3.793,8.504,8.504v232.441c0,4.711-3.793,8.504-8.504,8.504H8.903
c-4.711,0-8.504-3.793-8.504-8.504V8.902C0.399,4.191,4.192,0.398,8.903,0.398L8.903,0.398z M8.903,0.398"/>
<path fill="none" stroke="#000000" stroke-width="0.7974" d="M8.903,0.398h161.574c4.711,0,8.504,3.793,8.504,8.504v232.441
c0,4.711-3.793,8.504-8.504,8.504H8.903c-4.711,0-8.504-3.793-8.504-8.504V8.902C0.399,4.191,4.192,0.398,8.903,0.398L8.903,0.398z
M8.903,0.398"/>
<path fill="#D40000" d="M7.02,31.879l2.418-0.75c0.914,2.395,2.761,3.102,4.715,2.949c3.503-0.273,4.668-4.117,4.933-7.52
c-1.367,1.418-3.422,2.141-5.168,2.07c-5.586-0.297-7.015-4.684-7.07-9.281c-0.152-3.875,1.48-6.684,4.281-7.969
c1.481-0.656,4.875-0.656,6.367,0.117c3.426,1.773,4.692,4.84,4.461,12.152c0.004,6.02-1.297,13.031-7.867,13.18
C10.289,37.344,7.406,34.445,7.02,31.879L7.02,31.879z M16.528,25.285c1.14-0.707,1.785-1.371,2.293-2.367
c0.421-0.82,0.562-1.246,0.441-2.938c-0.305-4.363-2.637-6.84-6.02-6.348c-1.882,0.273-2.914,1.313-3.503,3.238
c-1.094,3.559,0.292,7.727,2.886,8.688C13.793,25.988,15.598,25.863,16.528,25.285L16.528,25.285z M16.528,25.285"/>
<path fill="#D40000" d="M171.848,218.367l-2.422,0.754c-0.914-2.395-2.762-3.102-4.715-2.95c-3.504,0.274-4.668,4.118-4.93,7.521
c1.363-1.422,3.418-2.141,5.168-2.07c5.586,0.293,7.016,4.684,7.066,9.281c0.156,3.875-1.48,6.683-4.277,7.969
c-1.484,0.652-4.879,0.652-6.371-0.118c-3.426-1.772-4.691-4.839-4.461-12.151c-0.004-6.02,1.297-13.031,7.867-13.181
C168.574,212.906,171.457,215.805,171.848,218.367L171.848,218.367z M162.336,224.964c-1.141,0.707-1.781,1.371-2.293,2.368
c-0.418,0.82-0.563,1.242-0.441,2.938c0.309,4.362,2.641,6.84,6.02,6.348c1.883-0.273,2.914-1.313,3.504-3.239
c1.094-3.558-0.289-7.726-2.887-8.687C165.07,224.257,163.27,224.382,162.336,224.964L162.336,224.964z M162.336,224.964"/>
<path fill="#D40000" d="M7.266,47.059c-1.27-2.777-1.406-7.523,2.375-8.164c2.851-0.367,4.008,0.957,4.238,2.992
c0.117,0.594,0.453,0.633,0.559-0.047c0.164-2.086,2.23-3.305,3.843-3c4.422,0.758,4.165,5.625,2.719,8.926
c-2.183,4.383-4.48,7.148-6.594,11.563C11.973,54.734,9.199,51.004,7.266,47.059L7.266,47.059z M7.266,47.059"/>
<path fill="#D40000" d="M36.278,23.34c5.714-0.379,8.695,4.504,9.277,8.352c0.348,0.609,0.535,0.438,0.668-0.035
c0.281-4.941,4.703-8.977,8.797-8.426c6.66,0.086,10.711,7.5,9.57,13.777c-1.391,7.664-5.519,12.281-8.644,17.035
c-3.536,4.922-8.297,12.031-9.832,15.453c0,0-4.84-7.363-11.133-16.023c-4.211-5.793-7.578-12.066-7.895-17.469
C26.731,29.832,29.262,24.297,36.278,23.34L36.278,23.34z M36.278,23.34"/>
<path fill="#D40000" d="M123.906,23.34c5.715-0.379,8.691,4.504,9.273,8.352c0.348,0.609,0.539,0.438,0.672-0.035
c0.277-4.941,4.699-8.977,8.793-8.426c6.664,0.086,10.711,7.5,9.574,13.777c-1.391,7.664-5.52,12.281-8.648,17.035
c-3.535,4.922-8.297,12.031-9.832,15.453c0,0-4.836-7.363-11.133-16.023c-4.211-5.793-7.578-12.066-7.891-17.469
C114.355,29.832,116.891,24.297,123.906,23.34L123.906,23.34z M123.906,23.34"/>
<path fill="#D40000" d="M123.906,75.605c5.715-0.379,8.691,4.5,9.273,8.348c0.348,0.613,0.539,0.441,0.672-0.031
c0.277-4.941,4.699-8.977,8.793-8.426c6.664,0.086,10.711,7.5,9.574,13.773c-1.391,7.668-5.52,12.281-8.648,17.035
c-3.535,4.922-8.297,12.031-9.832,15.453c0,0-4.836-7.363-11.133-16.023c-4.211-5.789-7.578-12.066-7.891-17.469
C114.355,82.094,116.891,76.563,123.906,75.605L123.906,75.605z M123.906,75.605"/>
<path fill="#D40000" d="M80.051,102.129c5.715-0.383,8.691,4.5,9.273,8.348c0.348,0.609,0.54,0.438,0.672-0.035
c0.278-4.938,4.7-8.977,8.793-8.422c6.66,0.086,10.711,7.5,9.574,13.773c-1.391,7.664-5.52,12.281-8.648,17.035
c-3.535,4.922-8.297,12.031-9.832,15.453c0,0-4.84-7.363-11.133-16.024c-4.211-5.789-7.578-12.065-7.89-17.468
C70.5,108.617,73.031,103.082,80.051,102.129L80.051,102.129z M80.051,102.129"/>
<path fill="#D40000" d="M36.278,75.605c5.714-0.379,8.695,4.5,9.277,8.348c0.348,0.613,0.535,0.441,0.668-0.031
c0.281-4.941,4.703-8.977,8.797-8.426c6.66,0.086,10.711,7.5,9.57,13.773c-1.391,7.668-5.519,12.281-8.644,17.035
c-3.536,4.922-8.297,12.031-9.832,15.453c0,0-4.84-7.363-11.133-16.023c-4.211-5.789-7.578-12.066-7.895-17.469
C26.731,82.094,29.262,76.563,36.278,75.605L36.278,75.605z M36.278,75.605"/>
<path fill="#D40000" d="M123.906,175.117c5.715,0.379,8.691-4.5,9.273-8.348c0.348-0.613,0.539-0.441,0.672,0.031
c0.277,4.941,4.699,8.977,8.793,8.426c6.664-0.086,10.711-7.5,9.574-13.777c-1.391-7.664-5.52-12.278-8.648-17.031
c-3.535-4.922-8.297-12.031-9.832-15.454c0,0-4.836,7.364-11.133,16.024c-4.211,5.789-7.578,12.063-7.891,17.465
C114.355,168.628,116.891,174.16,123.906,175.117L123.906,175.117z M123.906,175.117"/>
<path fill="#D40000" d="M123.906,227.203c5.715,0.379,8.691-4.504,9.273-8.352c0.348-0.609,0.539-0.438,0.672,0.035
c0.277,4.938,4.699,8.977,8.793,8.422c6.664-0.086,10.711-7.5,9.574-13.773c-1.391-7.664-5.52-12.282-8.648-17.035
c-3.535-4.922-8.297-12.031-9.832-15.454c0,0-4.836,7.364-11.133,16.024c-4.211,5.793-7.578,12.066-7.891,17.469
C114.355,220.71,116.891,226.246,123.906,227.203L123.906,227.203z M123.906,227.203"/>
<path fill="#D40000" d="M36.278,227.203c5.714,0.379,8.695-4.504,9.277-8.352c0.348-0.609,0.535-0.438,0.668,0.035
c0.281,4.938,4.703,8.977,8.797,8.422c6.66-0.086,10.711-7.5,9.57-13.773c-1.391-7.664-5.519-12.282-8.644-17.035
c-3.536-4.922-8.297-12.031-9.832-15.454c0,0-4.84,7.364-11.133,16.024c-4.211,5.793-7.578,12.066-7.895,17.469
C26.731,220.71,29.262,226.246,36.278,227.203L36.278,227.203z M36.278,227.203"/>
<path fill="#D40000" d="M36.278,175.117c5.714,0.379,8.695-4.5,9.277-8.348c0.348-0.613,0.535-0.441,0.668,0.031
c0.281,4.941,4.703,8.977,8.797,8.426c6.66-0.086,10.711-7.5,9.57-13.777c-1.391-7.664-5.519-12.278-8.644-17.031
c-3.536-4.922-8.297-12.031-9.832-15.454c0,0-4.84,7.364-11.133,16.024c-4.211,5.789-7.578,12.063-7.895,17.465
C26.731,168.628,29.262,174.16,36.278,175.117L36.278,175.117z M36.278,175.117"/>
<path fill="#D40000" d="M158.316,199.746c-1.266,2.777-1.406,7.523,2.375,8.168c2.852,0.367,4.012-0.961,4.242-2.996
c0.113-0.594,0.449-0.629,0.555,0.046c0.164,2.091,2.23,3.31,3.844,3c4.422-0.754,4.164-5.62,2.719-8.921
c-2.184-4.387-4.48-7.152-6.594-11.563C163.027,192.074,160.25,195.805,158.316,199.746L158.316,199.746z M158.316,199.746"/>
</svg>
