<?xml version="1.0" encoding="utf-8"?>
<!DOCTYPE svg PUBLIC "-//W3C//DTD SVG 1.1//EN" "http://www.w3.org/Graphics/SVG/1.1/DTD/svg11.dtd" [
<!ENTITY ns_svg "http://www.w3.org/2000/svg">
<!ENTITY ns_xlink "http://www.w3.org/1999/xlink">
]>
<svg version="1.1" id="Layer_1" xmlns="&ns_svg;" xmlns:xlink="&ns_xlink;" width="179.379" height="250.246"
viewBox="0 0 179.379 250.246" overflow="visible" enable-background="new 0 0 179.379 250.246" xml:space="preserve">
<path fill="#FFFFFF" d="M8.903,0.398h161.574c4.711,0,8.504,3.793,8.504,8.504v232.441c0,4.711-3.793,8.504-8.504,8.504H8.903
c-4.711,0-8.504-3.793-8.504-8.504V8.902C0.399,4.191,4.192,0.398,8.903,0.398L8.903,0.398z M8.903,0.398"/>
<path fill="none" stroke="#000000" stroke-width="0.7974" d="M8.903,0.398h161.574c4.711,0,8.504,3.793,8.504,8.504v232.441
c0,4.711-3.793,8.504-8.504,8.504H8.903c-4.711,0-8.504-3.793-8.504-8.504V8.902C0.399,4.191,4.192,0.398,8.903,0.398L8.903,0.398z
M8.903,0.398"/>
<path d="M6.184,37.254v-2.191h2.129l4.531-23.418h2.582l4.992,23.418h1.719v2.191h-5.856v-2.191h1.583l-0.629-3.59h-5.911
l-0.457,3.59h1.582v2.191H6.184z M16.727,28.922L14.16,16.383l-2.406,12.539H16.727z M16.727,28.922"/>
<path d="M173.191,212.996v2.191h-2.129l-4.531,23.414h-2.578l-4.996-23.414h-1.715v-2.191h5.852v2.191h-1.582l0.633,3.586h5.906
l0.457-3.586h-1.582v-2.191H173.191z M162.648,221.328l2.566,12.539l2.406-12.539H162.648z M162.648,221.328"/>
<path d="M88.656,134.203c0.012-1.621-1.269-1.653-1.253-0.469c-0.106,5.94-5.133,8.867-8.786,8.172
c-5.628-1.071-7.425-6.656-7.371-9.946c0.168-10.159,10.391-17.647,19.618-30.667c6.758,11.75,17.918,20.984,18.578,30.066
c0.879,12.078-14.406,16.586-16.59,2.508c-0.141-0.996-1.313-1.441-1.223-0.051c0.332,3.854-0.137,5.465,4.215,14.973H84.465
C86.985,144.348,88.485,138.891,88.656,134.203L88.656,134.203z M88.656,134.203"/>
<path d="M14.414,56.25c0.012-0.699-0.715-0.375-0.812-0.152c-0.93,1.586-2.293,1.957-3.637,1.383
C8.629,56.914,7.879,55.656,8,53.863c0.25-2.75,2.43-5.758,3.485-7.461c1-1.543,2.101-3.379,3.261-5.723
c1.356,2.691,2.047,3.457,3.524,5.914c1.301,2.164,3.113,4.281,3.254,6.898c0,1.988-0.836,3.863-2.719,4.207
c-1.066,0.191-2.063-0.355-2.805-1.629c-0.222-0.328-0.679-0.156-0.672,0.289c0.133,1.672,0.766,3.184,2.266,4.969h-5.512
C13.211,60.066,14.364,58.363,14.414,56.25L14.414,56.25z M14.414,56.25"/>
<path d="M165.121,194.309c0.008,0.694-0.719,0.371-0.816,0.151c-0.93-1.589-2.289-1.957-3.637-1.386
c-1.336,0.57-2.086,1.824-1.965,3.617c0.25,2.75,2.43,5.762,3.484,7.461c1.004,1.547,2.102,3.379,3.262,5.726
c1.359-2.69,2.047-3.457,3.523-5.914c1.301-2.164,3.113-4.28,3.254-6.897c0-1.988-0.836-3.867-2.719-4.207
c-1.066-0.195-2.063,0.351-2.805,1.629c-0.223,0.324-0.676,0.156-0.668-0.289c0.129-1.676,0.762-3.188,2.262-4.969h-5.508
C163.914,190.488,165.066,192.191,165.121,194.309L165.121,194.309z M165.121,194.309"/>
</svg>
