<?xml version="1.0" encoding="utf-8"?>
<!DOCTYPE svg PUBLIC "-//W3C//DTD SVG 1.1//EN" "http://www.w3.org/Graphics/SVG/1.1/DTD/svg11.dtd" [
<!ENTITY ns_svg "http://www.w3.org/2000/svg">
<!ENTITY ns_xlink "http://www.w3.org/1999/xlink">
]>
<svg version="1.1" id="Layer_1" xmlns="&ns_svg;" xmlns:xlink="&ns_xlink;" width="179.379" height="250.246"
viewBox="0 0 179.379 250.246" overflow="visible" enable-background="new 0 0 179.379 250.246" xml:space="preserve">
<path fill="#FFFFFF" d="M8.903,0.398h161.574c4.711,0,8.504,3.793,8.504,8.504v232.441c0,4.711-3.793,8.504-8.504,8.504H8.903
c-4.711,0-8.504-3.793-8.504-8.504V8.902C0.399,4.191,4.192,0.398,8.903,0.398L8.903,0.398z M8.903,0.398"/>
<path fill="none" stroke="#000000" stroke-width="0.7974" d="M8.903,0.398h161.574c4.711,0,8.504,3.793,8.504,8.504v232.441
c0,4.711-3.793,8.504-8.504,8.504H8.903c-4.711,0-8.504-3.793-8.504-8.504V8.902C0.399,4.191,4.192,0.398,8.903,0.398L8.903,0.398z
M8.903,0.398"/>
<path d="M172.879,213.574v25.203h-2.492v-25.203H172.879z M172.879,213.574"/>
<path d="M163.016,238.777c2.395,0,4.32-2.149,4.32-4.817v-15.569c0-2.668-1.926-4.816-4.32-4.816h-1.398
c-2.395,0-4.324,2.148-4.324,4.816v15.569c0,2.668,1.93,4.817,4.324,4.817H163.016z M162.293,236.395
c-1.414,0-2.555-1.066-2.555-2.398v-15.777c0-1.332,1.141-2.406,2.555-2.406s2.555,1.074,2.555,2.406v15.777
C164.848,235.328,163.707,236.395,162.293,236.395L162.293,236.395z M162.293,236.395"/>
<path d="M6.5,36.676V11.469h2.489v25.207H6.5z M6.5,36.676"/>
<path d="M16.364,11.469c-2.395,0-4.321,2.152-4.321,4.82v15.57c0,2.668,1.926,4.816,4.321,4.816h1.394
c2.398,0,4.328-2.148,4.328-4.816v-15.57c0-2.668-1.93-4.82-4.328-4.82H16.364z M17.086,13.852c1.414,0,2.551,1.07,2.551,2.402
v15.777c0,1.332-1.137,2.406-2.551,2.406c-1.418,0-2.555-1.074-2.555-2.406V16.254C14.531,14.922,15.668,13.852,17.086,13.852
L17.086,13.852z M17.086,13.852"/>
<path d="M42.746,55.215c0.012-1.617-1.269-1.648-1.254-0.469c-0.109,5.945-5.132,8.871-8.785,8.176
c-5.629-1.07-7.426-6.656-7.371-9.949C25.5,42.816,35.727,35.328,44.949,22.309c6.762,11.75,17.918,20.98,18.582,30.066
c0.875,12.078-14.41,16.586-16.589,2.508c-0.141-0.996-1.313-1.441-1.223-0.055c0.332,3.859-0.141,5.465,4.211,14.977H38.555
C41.074,65.359,42.574,59.906,42.746,55.215L42.746,55.215z M42.746,55.215"/>
<path d="M87.321,81.348c0.011-1.621-1.27-1.652-1.258-0.469c-0.106,5.945-5.133,8.871-8.785,8.176
c-5.629-1.07-7.422-6.656-7.372-9.949c0.168-10.156,10.391-17.645,19.618-30.668c6.761,11.754,17.917,20.984,18.578,30.07
c0.879,12.078-14.406,16.582-16.59,2.508c-0.141-0.996-1.313-1.441-1.219-0.055c0.328,3.859-0.14,5.465,4.211,14.977H83.125
C85.645,91.492,87.149,86.039,87.321,81.348L87.321,81.348z M87.321,81.348"/>
<path d="M131.973,55.215c0.012-1.617-1.27-1.648-1.254-0.469c-0.109,5.945-5.133,8.871-8.785,8.176
c-5.629-1.07-7.426-6.656-7.371-9.949c0.164-10.156,10.391-17.645,19.613-30.664c6.762,11.75,17.918,20.98,18.578,30.066
c0.879,12.078-14.406,16.586-16.586,2.508c-0.145-0.996-1.313-1.441-1.223-0.055c0.332,3.859-0.141,5.465,4.211,14.977h-11.375
C130.301,65.359,131.801,59.906,131.973,55.215L131.973,55.215z M131.973,55.215"/>
<path d="M131.973,107.48c0.012-1.621-1.27-1.652-1.254-0.469c-0.109,5.945-5.133,8.871-8.785,8.176
c-5.629-1.07-7.426-6.656-7.371-9.949c0.164-10.156,10.391-17.645,19.613-30.668c6.762,11.754,17.918,20.984,18.578,30.07
c0.879,12.078-14.406,16.582-16.586,2.504c-0.145-0.992-1.313-1.438-1.223-0.051c0.332,3.859-0.141,5.465,4.211,14.977h-11.375
C130.301,117.625,131.801,112.168,131.973,107.48L131.973,107.48z M131.973,107.48"/>
<path d="M42.746,107.48c0.012-1.621-1.269-1.652-1.254-0.469c-0.109,5.945-5.132,8.871-8.785,8.176
c-5.629-1.07-7.426-6.656-7.371-9.949C25.5,95.082,35.727,87.594,44.949,74.57c6.762,11.754,17.918,20.984,18.582,30.07
c0.875,12.078-14.41,16.582-16.589,2.504c-0.141-0.992-1.313-1.438-1.223-0.051c0.332,3.859-0.141,5.465,4.211,14.977H38.555
C41.074,117.625,42.574,112.168,42.746,107.48L42.746,107.48z M42.746,107.48"/>
<path d="M131.98,142.789c0.012,1.621-1.27,1.652-1.254,0.468c-0.109-5.944-5.133-8.87-8.785-8.175
c-5.629,1.07-7.426,6.656-7.371,9.949c0.164,10.156,10.391,17.645,19.617,30.668c6.758-11.754,17.918-20.985,18.578-30.071
c0.875-12.077-14.41-16.582-16.59-2.503c-0.141,0.992-1.313,1.438-1.223,0.051c0.332-3.859-0.141-5.466,4.215-14.977h-11.379
C130.309,132.645,131.809,138.098,131.98,142.789L131.98,142.789z M131.98,142.789"/>
<path d="M131.98,195.055c0.012,1.616-1.27,1.648-1.254,0.465c-0.109-5.941-5.133-8.867-8.785-8.172
c-5.629,1.07-7.426,6.655-7.371,9.945c0.164,10.16,10.391,17.648,19.617,30.667c6.758-11.75,17.918-20.979,18.578-30.065
c0.875-12.078-14.41-16.586-16.59-2.508c-0.141,0.995-1.313,1.441-1.223,0.055c0.332-3.859-0.141-5.465,4.215-14.978h-11.379
C130.309,184.906,131.809,190.363,131.98,195.055L131.98,195.055z M131.98,195.055"/>
<path d="M87.703,168.921c0.012,1.622-1.269,1.649-1.257,0.47c-0.106-5.945-5.133-8.871-8.786-8.177
c-5.629,1.071-7.421,6.657-7.371,9.95c0.168,10.156,10.391,17.645,19.617,30.668c6.762-11.754,17.918-20.984,18.579-30.07
c0.879-12.078-14.406-16.582-16.59-2.509c-0.141,0.997-1.313,1.442-1.219,0.056c0.328-3.859-0.141-5.465,4.211-14.977H83.508
C86.028,158.777,87.531,164.23,87.703,168.921L87.703,168.921z M87.703,168.921"/>
<path d="M42.754,142.789c0.012,1.621-1.269,1.652-1.254,0.468c-0.109-5.944-5.133-8.87-8.785-8.175
c-5.629,1.07-7.426,6.656-7.371,9.949c0.164,10.156,10.391,17.645,19.617,30.668c6.758-11.754,17.918-20.985,18.578-30.071
c0.879-12.077-14.406-16.582-16.59-2.503c-0.14,0.992-1.312,1.438-1.222,0.051c0.332-3.859-0.141-5.466,4.215-14.977H38.563
C41.082,132.645,42.582,138.098,42.754,142.789L42.754,142.789z M42.754,142.789"/>
<path d="M42.754,195.055c0.012,1.616-1.269,1.648-1.254,0.465c-0.109-5.941-5.133-8.867-8.785-8.172
c-5.629,1.07-7.426,6.655-7.371,9.945c0.164,10.16,10.391,17.648,19.617,30.667c6.758-11.75,17.918-20.979,18.578-30.065
c0.879-12.078-14.406-16.586-16.59-2.508c-0.14,0.995-1.312,1.441-1.222,0.055c0.332-3.859-0.141-5.465,4.215-14.978H38.563
C41.082,184.906,42.582,190.363,42.754,195.055L42.754,195.055z M42.754,195.055"/>
<path d="M13.828,56.297c0.008-0.699-0.714-0.371-0.812-0.152c-0.934,1.586-2.293,1.957-3.641,1.383
c-1.332-0.566-2.082-1.824-1.961-3.617c0.246-2.75,2.426-5.758,3.485-7.461c1-1.543,2.101-3.375,3.261-5.723
c1.356,2.691,2.047,3.457,3.524,5.914c1.301,2.164,3.113,4.281,3.254,6.898c0,1.988-0.836,3.863-2.719,4.207
c-1.066,0.191-2.066-0.352-2.805-1.629c-0.226-0.324-0.679-0.156-0.672,0.289c0.133,1.676,0.766,3.188,2.266,4.969h-5.512
C12.625,60.113,13.778,58.414,13.828,56.297L13.828,56.297z M13.828,56.297"/>
<path d="M164.883,194.492c0.008,0.699-0.719,0.371-0.816,0.152c-0.93-1.59-2.293-1.957-3.637-1.388
c-1.336,0.571-2.086,1.825-1.965,3.621c0.25,2.75,2.43,5.759,3.484,7.461c1,1.543,2.102,3.375,3.262,5.724
c1.359-2.691,2.047-3.457,3.523-5.914c1.301-2.164,3.113-4.281,3.254-6.898c0-1.988-0.836-3.863-2.719-4.207
c-1.066-0.195-2.063,0.352-2.805,1.628c-0.223,0.325-0.676,0.157-0.672-0.289c0.133-1.675,0.766-3.187,2.266-4.968h-5.512
C163.676,190.675,164.828,192.375,164.883,194.492L164.883,194.492z M164.883,194.492"/>
</svg>
