<?xml version="1.0" encoding="utf-8"?>
<!DOCTYPE svg PUBLIC "-//W3C//DTD SVG 1.1//EN" "http://www.w3.org/Graphics/SVG/1.1/DTD/svg11.dtd" [
<!ENTITY ns_svg "http://www.w3.org/2000/svg">
<!ENTITY ns_xlink "http://www.w3.org/1999/xlink">
]>
<svg version="1.1" id="Layer_1" xmlns="&ns_svg;" xmlns:xlink="&ns_xlink;" width="179.379" height="250.246"
viewBox="0 0 179.379 250.246" overflow="visible" enable-background="new 0 0 179.379 250.246" xml:space="preserve">
<path fill="#FFFFFF" d="M8.903,0.398h161.574c4.711,0,8.504,3.793,8.504,8.504v232.441c0,4.711-3.793,8.504-8.504,8.504H8.903
c-4.711,0-8.504-3.793-8.504-8.504V8.902C0.399,4.191,4.192,0.398,8.903,0.398L8.903,0.398z M8.903,0.398"/>
<path fill="none" stroke="#000000" stroke-width="0.7974" d="M8.903,0.398h161.574c4.711,0,8.504,3.793,8.504,8.504v232.441
c0,4.711-3.793,8.504-8.504,8.504H8.903c-4.711,0-8.504-3.793-8.504-8.504V8.902C0.399,4.191,4.192,0.398,8.903,0.398L8.903,0.398z
M8.903,0.398"/>
<path fill="#131F67" d="M23.586,18.453l-0.031,212.711l131.707,0.285l0.078-212.844L23.586,18.453z M65.418,19.699l59.676,0.219
c0,0-6.836,8.844-8.25,12.871c-1.102,1.41-1.598,1.152-3.41,0.785c-4.852-1.266-13.023-1.242-17.082-1.316
c-7.668-0.344-14.551,2.031-22.227,2.422C71.473,30.242,67.629,24.676,65.418,19.699L65.418,19.699z M25.235,20.086l38.379,0.113
l8.996,16.418c0.328,0.457,0.015,1.398-0.18,1.93c-1.109,3.129-2.09,4.938-4.336,8.664c-2.129,3.531-2.891,6.766-2.137,8.938
c0.114,0.266,0.211,0.672,0.172,1.012c-0.125,1.086-1.035,2.34-2.273,3.199c-0.84,0.133-2.59,0.242-3.602,1.242
c-0.867,0.859-1.582,2.113-1.469,4.41c0.051,0.82,0.157,1.34,0.157,1.34C47.5,72.113,39.297,77.691,39.571,77.895
c-0.11-0.047-10.059-4.629-14.204-5.762L25.235,20.086z M127.223,20.375l26.309,0.023l0.156,75.074L143.59,88.93
c0.828-0.578,1.34-0.922,2.211-1.512c0.152-0.047,0.445-0.051,0.637-0.094c1.758-0.391,2.984-1.707,2.375-3.07
c-0.414-0.926,0.152-0.871,0.66-1.625c0.574-0.848,0.457-1.605,0.09-2.32c-0.18-0.352-0.082-0.492,0.223-1.148
c0.805-1,0.223-2.691-0.816-3.234c-0.109-0.164,0.113-0.41,0.164-0.645c0.293-1.352-0.246-2.539-1.418-2.844
c-0.602-0.156-0.801-0.258-0.59-0.797c0.379-0.953-0.117-1.309-0.902-1.621c-1.32-0.52-0.945-0.605,0.684-1.336
c3.336-1.5,4.121-5.961,1.828-10.008c-0.293-0.516-1.07-1.723-1.602-2.531c-0.617-0.945-1.215-1.762-1.215-1.762l4.414-6.156
c0,0-3.074-3.645-4.168-5.656c0.258-0.996,3.336-4.117,3.734-7.148c0.629-4.754-2.98-7.793-6.395-7.438
c-2.367,0.246-5.281,1.762-5.063,6.16c0.066,1.367,0.602,2.781,1.57,4.488c0.676,1.281,1.551,2.633,2.387,3.934l-4.441,6.074
l4.488,5.688c0,0-0.059,0.094-0.156,0.246c-0.445,0.711-1.746,2.805-2.309,4.031c-1.656,3.273-2.242,6.871,1.16,9.406
c0.594,0.363,1.055,0.676,1.305,0.926c0.336,0.332,0.129,0.582-0.41,0.707c-0.629,0.133-1.273,0.125-1.938,0.387
c-2.133,0.777-4.273,2.035-5.793,3.266c-0.852,0.688-2.227,2.871-3.066,4.645c-0.91,1.93-1.164,2.355-1.164,2.355l-15.621-10
c0,0-0.398-0.313-0.508-0.434c-0.289-0.324-0.184-0.516,0.016-0.875c0.172-0.305,0.18-1.207,0.102-1.891
c-0.02-1.309-0.008-1.316,0.746-2.52c0.266-0.422,0.375-0.848,0.223-1.5c-0.246-0.738-0.27-0.504,0.199-1.008
c0.184-0.223,0.402-0.336,0.438-0.578c0.047-0.324,0.02-0.895,0.023-1.957c0.012-2.125-0.016-1.953,1.18-2.887
c1.48-1.16,2.035-1.707,2.27-2.234c0.34-0.75,0-1.32-0.832-2.824c-0.379-0.688-0.969-1.613-1.254-2.133
c-0.535-0.93-1.305-2.156-1.672-3.328c-0.555-0.898-0.473-2.461,0.043-3.375c0.645-1.152,0.824-1.848,0.801-4.172
c-0.02-2.156-0.176-1.953,0.371-2.676C120.703,30.473,127.223,20.375,127.223,20.375L127.223,20.375z M143.941,28.32
c0.09,0,0.18,0.004,0.266,0.008c1.293,0.063,2.578,0.477,3.77,1.633c1.621,1.625,1.508,3.965,0.977,6.402
c-0.246,0.707-0.43,1.43-0.926,2.168c-0.277,0.414-0.508,0.793-0.508,0.844c0,0.055-0.398,0.695-0.887,1.434
c-0.477,0.719-1.023,1.727-1.023,1.727s0.762,1.367,2.113,3.082c1.023,1.516,1.684,2.84,1.762,2.762c0,0-0.258,0.656-0.613,1.121
c-1.074,1.41-3.051,4.352-3.129,4.66c-0.02,0.074-0.223,0.148-0.219,0.223c0.012,0.273,0.406,0.598,0.996,1.41
c3.566,4.898,4.074,9.031,1.395,11.461c-1.336,1.211-2.652,1.59-4.063,1.438c-2.586-0.277-4.973-2.484-4.695-5.703
c0.125-1.48,0.051-1.922,0.922-3.641c0.391-0.969,1.281-2.625,1.871-3.461c0.52-0.602,1.07-1.457,1.07-1.457
s-1.27-1.953-3.605-4.703c-0.418-0.5-0.68-1.18-0.68-1.18l4-5.922c0,0-0.465-1.148-1.246-2.313
c-1.598-2.387-2.629-4.922-2.621-6.348C138.891,30.41,141.219,28.328,143.941,28.32L143.941,28.32z M153.898,112.938
c-0.004,0-2.863,2.477-2.66,3.168c0.332,1.129,2.488-0.598,2.492-0.613l0.113,2.465c-2.336,3.316-6.906,0.883-5.742-2.551
c-3.156,0.41-3.648-2.793-3.488-4.316c-4.148-0.902-2.715-5.297-2.715-5.297c-2.398-2.004-2.816-4.102-0.875-6.316
c-1.965-1.219-2.52-2-4.676-2.887c1.656,14.711,9.598,22.352,17.953,29.164c0,0,0.184,4.738-0.77,3.863
c-11.934-8.914-19.605-19.113-20.926-35.605c-0.102,0.262-5.66-4.301-6.578-4.059c-1.926,26.707,19.336,44.261,28.18,47.723
c0,0,0.125,3.723-0.027,3.734c-13.402-5.848-28.301-23.004-31.172-43.414l-7.906,12.246l-2.961-1.27l12.785-20.141l-8.648-5.422
l-14.074,22.305c0,0-0.375,1.859,0.645,1.832c19.758,2.113,49.145,25.852,39.297,64.488c-0.852-0.34-2.211-1-2.281-0.973
c1.547-3.328,5.855-24.898-7.105-42.32c-5.938-7.984-15.148-16.477-29.926-18.984c1.223,2.52,0.688,8.234,0.688,8.234l3.445,0.695
c-1.164-1.227-2.133-2.238-2.594-3.57c-0.645-2.078,0.301-3.305,2.598-2.07c0.91,0.512,1.141,0.492,2.031-0.168
c1.848-1.375,3.961,0.039,3.473,2.328c-0.074,0.336,0.016,0.551,0.895,0.629c1.992,0.199,3.996,1.184,5.293,2.73
c0.637,0.816,0.781,0.695,1.348,0.203c1.387-1.207,3.688,0.465,3.277,2.332c-0.234,1.066-0.105,1.324,0.387,1.531
c2.715,1.141,3.383,1.859,4.227,4.234c0.309,0.871,0.563,1.156,0.723,1.109c0.113-0.035,0.559-0.184,0.949-0.332
c2.027-0.77,3.215,1.68,1.777,3.602c-0.293,0.395-0.074,0.77,0.445,1.055c1.688,0.922,2.832,3.117,3.035,5.422
c0.074,0.879,0.168,0.879,1.043,0.844c2.242-0.094,3.313,2.934,1.484,4.047c-0.633,0.39-0.516,0.89-0.023,1.476
c1.309,1.552,1.617,2.673,1.5,4.442c-0.152,2.351-0.004,2.304,0.746,2.594c2.18,0.828,1.773,4.313-0.363,4.3
c1.539,3.587-0.488,7.962-0.422,8.039c4.109,2.313,0.398,4.771-0.793,4.336c0,0-0.609,1.614,0.082,2.442
c-3.605,4.765-8.32,5.559-13.543,7.926l-0.168-16.781c2.176,1.745,4.328,3.379,6.48,5.008c0,0,0.547-0.164,0.047-0.625
c-0.957-0.883-3.363-2.441-4.039-3.063c-1.453-1.102-6.781-6.2-7.73-7.406c-0.422-0.805-1.063-0.337-1.047-0.289
c0.637,1.102,1.113,2.383,1.938,3.527c1.781,2.473,3.512,5.214,3.332,7.934c-0.004,1.52-0.609,3.09-0.945,3.852
c-0.25,1.043-1.914-0.176-1.496-1.055c0.738-2.41,1.352-4.379-1.289-8.25c-1.289-1.883-2.961-5.31-2.961-5.31l-1.066,0.263
l0.039,21.895c-0.895,0.035-3.168,0.625-2.699,0.64c7.078-1.413,9.246,8.716,2.41,9.048c-1.297,0.047-2.641,2.28-2.777,3.491
c0.059,2.942,0.488,6.043-1.664,8.868c-0.566,0.746-0.824,1.921-1.348,2.852c-2.629,4.652-3.801,7.316-3.535,8.52
c0.07,0.309,0.133,0.715,0.133,0.715c-8.395,2.059-15.332,1.71-23.075,2.824c-0.086-0.133,2.828-8.324,4.953-12.528
c1.575-3.101,2.383-5.226,1.942-5.866c-6.688,0.336-5.402-9.47,0.996-9.121c0,0,1.602-5.648,3.398-8.199
c1.699-0.945,5.121,0.344,7.043-0.926c4.52-1.388,7.477,3.961,7.477,3.961l1.219-5.086l-39.973-0.191c0,0-4.121,1.543-6.227,0.672
c-1.343-0.555-2.89-2.133-2.89-2.133s15.273-24.535,17.519-28.074c0.18-0.286-0.398-0.907-0.398-0.911
c-0.086-0.804-17.785,26.782-17.711,28c0,0-0.473,0.668-1.324,0.079c-10.008-6.906-33.93-21.758-33.93-21.758l-0.031-11
c0,0,0.726-1,1.32-1.141c1.199-0.813,2.117-1.691,3.352-2.47c0.672-0.401,1.09-0.968,0.926-1.233
c-0.145-0.238-0.973,0.008-2.153,0.828c-0.789,0.551-3.578,2.344-3.578,2.344c-0.105,0.094-0.164-4.129-0.164-4.129
c0.027,0.008,3.613-3.195,2.461-3.418c-0.227-0.043-0.754,0.062-1.344,0.574c-1.59,1.379-1.43,1.555-1.535-0.316
c-0.094-1.625,0.105-1.844,0.809-2.488c2.566-2.367,5.625-1.008,5.773,2.488c0.027,0.621,0.031,0.625,0.531,0.734
c1.797,0.395,2.774,1.684,2.836,3.487c0.031,0.989,0.149,1.177,0.852,1.368c1.601,0.434,2.676,2.867,2.043,4.586
c-0.309,0.839-0.141,0.781,0.347,1.253c3.106,2.997,0.68,5.935-0.062,5.825c0.453,0.304,4.918,3.297,5.301,3.188
c-0.387-15.691-17.668-30.672-18.149-29.887l0.367-3.383c0,0,21.598,13.813,21.407,35.977l6.886,4.094
c-0.613-22.742-10.769-38.094-28.132-47.855l-0.368-4.285c14.579,6.785,28.094,20.516,31.243,43.023l8.07-12.528l2.844,1.375
c-4.551,6.446-8.289,13.106-12.043,19.396c-0.496,0.863-1.215,1.098-1.215,1.098l8.39,5.621
c6.278-8.262,11.512-18.395,14.704-23.219c-0.082-0.438-0.258-1.07-0.258-1.07c-30.856-5.09-48.235-34.004-39.949-64.215l2.14,0.941
c-6.433,22.375,4.059,54.582,37.617,61.168c-0.066-2.379-0.484-8.23-0.484-8.23s-4.41-1.324-3.762-0.793
c1.082,0.922,3.508,4.902,2.481,6.316c-0.735,0.105-1.969-0.309-3.321-1.297c-0.507-0.375-0.523-0.298-1.093,0.316
c-1.586,1.691-3.895,0.722-3.914-1.605c-0.008-0.984-0.047-1.191-1.442-1.199c-2.113-0.017-3.062-0.379-4.328-2.074
c-0.898-1.203-0.816-1.207-1.875-0.848c-0.933,0.323-1.121,0.559-1.976,0.121c-1.274-0.656-1.536-1.591-1.032-2.852
c0.313-0.782-0.019-1.032-0.941-1.184c-1.797-0.297-3.828-2.551-4.199-4.391c-0.078-0.375-0.266-0.469-1.325-0.434
c-2.074,0.074-3.222-1.188-2.406-2.949c0.446-0.953,0.571-1.34-0.262-1.984c-1.015-0.789-1.589-1.34-2.039-2.301
c-0.359-0.758-0.414-1.246-0.66-2.867c-0.086-0.563-0.273-0.652-1.008-0.75c-2.148-0.281-2.992-2.477-1.418-3.902
c0.485-0.434,0.481-0.422-0.25-1.367c-1.402-1.816-1.929-4.191-1.316-5.77c0.164-0.43,0.004-0.953-0.496-1.078
c-1.957-0.488-1.992-2.656-0.117-3.875c0.543-0.355,0.57-0.59,0.16-1.305c-0.723-1.25-0.688-4.527,0.012-6.094
c0.449-1.016,0.445-1.039-0.25-1.484c-1.489-0.949-1.063-3.563,0.695-3.992c0.852-0.211,0.91-0.32,0.68-1.359
c-0.41-1.848-0.481-2.328,0.609-3.059c3-1.949,10.684-5.672,10.684-5.672l2.539-1.211c0,0,0.254,15.512,0.09,17.344
c-0.098,0.789,0.613,1.27,1.437,2.09c1.707,1.676,2.641,3.703,4.918,5.113c0,0,1.418-0.789,2.297-1.355l0.086-22.098
c0.18-0.504,0.305-0.559,0.887-0.625c0.484-0.094,1.703-0.23,2.109-0.352c0.98-0.285,1.133-0.68-0.152-0.551
c-0.387,0.039-0.969,0.207-1.622,0.336c-4.023,1.207-7-5.059-3.933-8.215c0.586-0.527,2.785-1.441,3.781-1.504
c0.289,0,1.149-1.055,1.735-2.031c0.589-0.98,0.832-1.711,0.496-2.691c-0.711-2.07-0.067-5.242,2.054-8.711
c1.176-1.922,2.125-3.238,2.157-3.289c1.043-1.773,2.98-7.496,2.882-7.52c6.551-1.012,13.141-2.574,19.629-2.633
c0.93-0.008,1.855,0.016,2.777,0.074c0.289,2.488-8.042,17.152-6.305,18.012c6.559,1.57,4.32,9.348-0.664,9.09
c-0.746-0.004-0.82,0.063-1.297,1.711c-0.902,2.414-1.488,4.254-2.461,6.496c0,0.578-0.406,0.52-3.133,0.5
c-2.492-0.367-4.211,0.988-6.023,1.07c-2.313,0.102-4.285-1.004-5.086-2.844c-0.36-0.816-0.692-0.277-0.699,1.664
c-0.012,1.547-0.071,2.449-0.071,2.449s9.551,0.027,20.438,0.047c22.008,0.039,19.816,0.375,21.563-0.496
c1.02-0.512,1.691-1.063,3.453,0.09c2.824,1.844,2.734,1.594,1.91,2.781c-5.531,8.203-17.758,27.941-17.758,27.941l0.855,0.836
c0,0,12.348-19.512,17.973-28.652c0.258-0.297,1.434,0.078,1.434,0.078l33.684,21.906c-0.285,3.313,0.047,10.934,0.047,10.934
c0-0.52-6.391,3.98-6.125,4.602c1.512,0.57,4.395-2.426,6.066-3.301L153.898,112.938z M37.555,150.035
c-0.024-0.016-0.156-0.105-0.156-0.105C37.434,149.992,37.485,150.027,37.555,150.035L37.555,150.035z M96.738,34.105
c0,0,9.77,0.082,14.668,0.867c4.293,0.688,4.07,0.559,4.055,3.676c-0.012,2.215-0.016,2.164-0.582,3.223
c-1.047,1.957-0.867,3.887,0.785,6.586c1.605,2.621,2.781,4.555,2.781,4.93c0,0.578-0.098,1.285-1.488,2.258
c-1.645,1.145-1.957,1.949-1.934,3.113c0.02,0.941-0.16,1.25-0.723,1.246c-0.227,0-1.027,0.371-1.883,0.777
c-1.508,0.711-1.512,0.711-2.918,0.699c-0.707-0.004-1.047-0.273-1.246-0.195c-0.379,0.176-0.723,1.445-0.711,1.816
c0.039,0.129,0.242,0.051,0.656-0.09c2.336-0.801,5.809-0.441,5.902-0.09c0.473,0.426,0.473,1.082-0.238,1.766
c-0.461,0.727-0.668,1.098-0.477,2.219c0.262,1.523,0.066,2.125-0.711,2.652c-2.375,1.605-5.543,1.809-10.609,0.832
c-5.34-1.023-8.992-3.063-12.032-6.707c-1.355-1.629-1.691-2.199-1.019-2.313c0.828-0.129,1.742-0.301,2.594-0.664
c3.754-1.617,3.688-8.488-1.371-9.207C88.176,51.426,94.5,41.703,96.738,34.105L96.738,34.105z M101.559,38.844
c-1.816,1.016-2.762,2.254-2.766,2.926c-0.004,0.277,0.059,0.227,0.926-0.344c2.516-1.652,9.145-4.043,11.508-2.664
c1.707,1.023,2.367,0.691,1.383-0.688C110.289,34.844,104.039,37.492,101.559,38.844L101.559,38.844z M108.039,39.926
c-0.266,0-0.547,0.031-0.824,0.09c-1.75,0.391-3.676,1.832-5.27,3.102c-0.789,0.625-1.898,1.867-2.074,2.191
c-0.395,0.734,0.477,1.543,1.66,0.895c0.688-0.375,0.746-0.293,1.41-0.199c1.527,0.461,3.27,1.172,5.961,0.945
c0.254,0.059,0.234,0.117,0.148,0.355c-0.16,0.43-1.117,1.25-2.359,2.172c-0.645,0.477-1.207,0.867-1.25,0.938
c-0.199,0.316,0.66,0.34,1.602-0.191c1.332-0.758,2.871-2.434,3.809-3.777c0.09-0.129,0.215-0.234,0.254-0.371
c0.094-0.313-0.469-0.184-0.77-0.266c-0.129-0.035-0.102-0.363-0.137-0.512c-0.09-0.395,0.066-1.047,0.137-1.609
c0.059-0.453,0.547-0.813,0.863-1.145c1.41-1.465,1.297-2.129-0.594-1.004c-0.316,0.191-0.57,0.305-0.879,0.328
c-2.793,0.09-4.406-0.02-6.734,1.941c-1.035,0.836-1.656,0.918-0.734,0.027c1.406-1.137,3.164-2.754,5.113-3.184
c1.176-0.293,2.293,0.605,2.809,0.375C110.184,40.383,109.203,39.914,108.039,39.926L108.039,39.926z M107.637,43.969
c0.316,0.211,0.633,1.305,0.602,1.672c-0.035,0.426-0.77,0.25-0.871,0.047l-0.398-1.215
C106.793,44.066,107.324,43.832,107.637,43.969L107.637,43.969z M106.211,44.215c0.344,0.34,0.422,1.07,0.617,1.672
c-0.125,0.434-2.875-0.152-3.219-0.641C104.023,44.711,105.438,44.07,106.211,44.215L106.211,44.215z M111.031,52.047
c-0.207-0.012-0.48,0.09-0.727,0.34c-1.238,1.27-0.84,3.426,0.648,4.125c0.727,0.34,1.824,0.09,3.441-0.406
c0.77-0.238,1.324-0.344,1.469-0.344c0.633,0.004,0.977-0.977,0.531-1.426c-0.512-0.52-1.723-0.441-3.031,0.566
c-0.66,0.512-1.133,0.758-1.664,0.754c-1.309-0.02-1.941-1.363-0.609-2.773C111.535,52.41,111.379,52.07,111.031,52.047
L111.031,52.047z M101.875,61.332c1.543,1.246,4.469,0.594,6.434-0.707c1.758-1.164,2.488-1.508,3.898-1.266
c1.727,0.297,1.664-0.383,0.914-1.234c-0.848-0.969-2.945-0.672-4.699,0.492c-3.887,2.578-5.293,3.008-6.422,1.613
c-1.211-1.496,0.23-3.422,1.656-2.371c1.172,0.797,1.156,0.199,0.672-0.348C101.508,55.133,99.473,59.395,101.875,61.332
L101.875,61.332z M88.207,62.555c1.965,2.488,3.844,4.547,6.665,6.063l0.031,0.469l-9.122-0.02
C86.418,67.953,88.227,62.629,88.207,62.555L88.207,62.555z M57.321,69.039c-0.196,3.75,0.476,5.953,2.675,8.574
c2.332,2.789,2.16,7.133,0.657,9.816c-0.664,1.188-2.016-0.273-1.379-1.031c0.906-1.141,0.961-3.922,0.535-5.664
c-0.965-2.871-3.145-4.281-4.028-7.316c-0.296-1.297-0.203-3.629-0.203-3.629L57.321,69.039z M60.176,69.355
c0.16-0.023,0.414,0.141,0.789,0.465c1.289,1.117,1.07,4.316-0.406,6.367c-0.453,0.621-0.828,0.445-1.262-0.133
c-0.582-0.578-0.379-0.637,0.109-1.648c0.512-1.055,0.68-2.246,0.575-3.633C59.906,69.836,59.942,69.391,60.176,69.355
L60.176,69.355z M143.859,70.449c1.141-0.016,2.563,0.227,2.691,0.641c0.125,0.5-0.148,0.902-0.781,1.172
c-1.668,0.703-3.871-0.281-3.316-1.48C142.594,70.566,143.176,70.461,143.859,70.449L143.859,70.449z M140.973,70.727
c0.328-0.008,0.582,0.07,0.781,0.164c0.547,0.281-0.313,2.203,2.406,2.164c0.648,0.098,1.129-0.051,1.043,0.242
c-0.137,0.441-1.305,1.105-2.566,1.293c-3.789,0.559-3.625,0.371-3.453,3.047c0.113,1.75,0,2.336-0.238,3.398
c-0.41,1.836-0.574,3.609-0.297,3.027c0.371-0.781,1.313-3.246,1.305-4.648c-0.008-2.066,0.73-2.477,1.027-0.977
c0.125,0.988-0.316,1.551,0.348,2.563c0.379,0.566,0.551,0.559,0.297,1.438c-0.223,0.777-0.066,1.008,0.203,1.402
c0.273,0.395,0.551,0.488,0.316,1.043c-0.496,1.199,0.285,2.332,1.422,2.43c0.523,0.043,0.672,0.273,0.512,0.473
c-0.277,0.348-0.832,0.512-1.289,0.609l-12.031-7.688c0,0,0.891-1.789,1.156-2.266c1.73-3.793,3.102-5.516,8.156-7.5
C140.418,70.789,140.719,70.73,140.973,70.727L140.973,70.727z M147.363,73.215c0.332-0.016,0.578,0.16,0.859,0.52
c0.738,0.949,0.094,2.133-1.723,3.156c-1.551,0.883-2.004,0.988-2.34-0.398c-0.078-0.25-0.285-0.559-0.418-0.68
c-0.359-0.332-0.277-0.605,0.18-0.848c0.219-0.117,0.918-0.402,1.477-0.77C146.367,73.555,146.938,73.23,147.363,73.215
L147.363,73.215z M142.242,75.969c0.383,0.004,0.773,0.098,1.063,0.285c0.48,0.313,0.484,1.098,0,1.41
c-0.965,0.395-2.492-0.133-2.363-1.02C141.008,76.191,141.609,75.957,142.242,75.969L142.242,75.969z M148.434,76.938
c0.34-0.008,0.598,0.152,0.813,0.48c0.566,0.875-0.098,1.754-2.008,2.688c-1.254,0.617-2.859,0.883-2.754,0.52
c0.086-0.289-0.363-1.727-0.563-1.953c-0.078-0.246,0.023-0.027,1.609-0.527c0.574-0.18,1.266-0.477,1.586-0.68
C147.664,77.125,148.09,76.945,148.434,76.938L148.434,76.938z M58.184,79.207c-0.883,2.121-1.024,3.059-0.602,5.289
c0.348,1.855,0.754,2.789,2.66,5.531c1.45,2.09,1.914,2.902,1.563,3.559c-0.246,0.355-0.801,0.688-1.145,0.348
c-0.707-0.926-1.132-2.051-1.824-3.086c-2.664-3.906-2.847-4.898-3.187-7.984c-0.157-1.41,0.656-4.41,1.347-4.859
C57.77,77.703,58.422,78.719,58.184,79.207L58.184,79.207z M119.715,78.227c-0.063,0.008-0.129,0.047-0.195,0.113
c-0.363,0.359-1.398,2.047-1.363,2.301c0.078,0.563,0.535,0.195,1.738-1.566C120.184,78.648,119.984,78.195,119.715,78.227
L119.715,78.227z M142.637,79.188c1.063,0.031,1.441,0.988,0.965,1.484c-0.695,0.73-1.949,0.18-1.949-0.84
C141.652,79.398,141.855,79.176,142.637,79.188L142.637,79.188z M148.547,80.547c0.609,0.027,0.691,0.637,0.367,1.516
c-0.406,0.816-0.895,0.957-2.359,1.41c-1.754,0.547-2.039,0.469-2.305-1.145c-0.102-0.621-0.051-0.48,1.566-0.91
c0.691-0.184,1.504-0.516,1.938-0.695C148.078,80.594,148.344,80.539,148.547,80.547L148.547,80.547z M44.942,81.27l0.429,3.262
l0.7-2.441L44.942,81.27z M142.848,82.367c0.863,0.004,1.324,0.777,0.887,1.242c-0.246,0.258-0.867,0.262-1.168,0.113
C141.883,83.219,142.008,82.363,142.848,82.367L142.848,82.367z M116.477,84.07l1.684,1.035l-13.664,21.574l-1.648-0.035
l-0.156-0.344L116.477,84.07z M147.484,84.277c1.012-0.016,1.098,0.938-0.125,1.813c-0.5,0.32-1.063,0.398-1.496,0.418
c-0.609,0.027-1.02-0.133-1.066-0.555c-0.262-1.027-0.414-1.285,0.527-1.223c0.184,0.012,0.695-0.016,1.105-0.191
C146.848,84.359,147.203,84.281,147.484,84.277L147.484,84.277z M143.309,85.219c0.695,0.004,1.141,0.762,0.672,1.133
c-0.578,0.457-1.297,0.172-1.293-0.52C142.688,85.391,142.809,85.215,143.309,85.219L143.309,85.219z M44.981,86.746l-3.719,3.293
c1.363,1.613,2.508,3.223,3.687,4.914L44.981,86.746z M120.156,86.957c1.613-0.066,2.141,0.715,1.375,1.238
c-1.039,0.695-1.93,0.664-3.109,0.504c-1.559-0.293-0.316-1.543,1.395-1.719C119.934,86.969,120.047,86.961,120.156,86.957
L120.156,86.957z M118.441,89.305c0.328-0.008,0.809,0.082,1.43,0.293c1.055,0.355,2.367,1.465,2.309,2.078
c-0.102,0.992-1.969,0.48-3.477-0.945C117.762,89.84,117.727,89.324,118.441,89.305L118.441,89.305z M117.016,89.32
c0.914,0.086,1.828,3.184,1.117,4.133c-0.695,0.934-1.922-1.074-1.699-2.652c0.09-0.625,0.246-1.449,0.492-1.477
C116.953,89.32,116.984,89.316,117.016,89.32L117.016,89.32z M57.262,90c0.512,0.125,1.172,0.836,1.031,1.379
c-0.105,0.215-0.32,0.152-0.554,0.098c-0.426-0.18-0.75-0.77-0.672-1.262C57.11,90.082,57.164,90.008,57.262,90L57.262,90z
M126.598,90.531l2.688,1.824l-2.688,0.105V90.531z M115.461,94.223c2.063,0.012,2.496,0.676,0.957,1.488
c-0.637,0.34-2.195,0.402-3.004,0.121C112.137,95.391,113.672,94.211,115.461,94.223L115.461,94.223z M132.141,95.609l0.145,1.871
l-5.176,0.453l-0.27-1.949L132.141,95.609z M114.25,96.543c0.355-0.023,0.93,0.141,1.676,0.527c1.41,0.723,2.211,1.938,1.484,2.324
c-0.66,0.348-1.832-0.066-2.66-0.938C113.652,97.305,113.563,96.586,114.25,96.543L114.25,96.543z M112.488,96.547
c0.941,0.055,1.754,2.633,1.133,3.906c-0.336,0.699-0.766,0.547-1.383-0.602c-0.598-1.109-0.629-3.07,0.059-3.281
C112.359,96.547,112.426,96.543,112.488,96.547L112.488,96.547z M45.168,97.273l-2.262,4.551l4.098,3.578L45.168,97.273z
M132.781,100.777l0.363,1.801l-4.969,1.223l-0.484-1.957L132.781,100.777z M111.082,101.129c0.605,0.012,1.176,0.156,1.504,0.441
c0.453,0.402,0.355,0.578-0.715,1.016c-1.906,0.777-4.254,0.305-2.891-0.852C109.461,101.324,110.305,101.117,111.082,101.129
L111.082,101.129z M143.484,101.148c-0.492,0-1.129,0.691-0.801,1.09c0.18,0.223,1.613,0.199,1.91-0.09
C144.492,101.82,143.883,101.156,143.484,101.148L143.484,101.148z M109.691,103.574c1.355,0.047,4.02,1.906,3.449,2.797
c-0.309,0.488-2.09,0.074-2.797-0.605c-0.93-0.891-1.422-2.082-0.906-2.176C109.516,103.578,109.602,103.574,109.691,103.574
L109.691,103.574z M107.977,103.66c0.699-0.129,1.82,3.137,0.977,3.973c-0.316,0.313-0.406,0.293-0.938-0.176
c-1.059-0.941-0.879-2.672-0.242-3.641C107.836,103.727,107.906,103.676,107.977,103.66L107.977,103.66z M144.723,107.574
c0.121,0.195,0.68,0.391,2.824-0.844c2.402-0.93,2.285-1.887,1.469-2.043C148.152,104.773,144.551,106.973,144.723,107.574
L144.723,107.574z M134.051,105.605l0.656,1.824l-5,1.984l-0.738-1.996L134.051,105.605z M48.465,109.055l-1.695,4.461
c1.844,0.012,3.504,0.883,5.183,1.656L48.465,109.055z M135.715,110.367l1.059,1.793l-4.707,2.547l-0.938-1.891L135.715,110.367z
M26.379,113.855l1.926,1.363l-2.832,3.52l-0.258-0.496l0.031-2.922L26.379,113.855z M138.285,114.965l1.137,1.641l-4.527,3.152
l-1.113-1.789L138.285,114.965z M31.235,117.074l2.082,1.605l-3.289,3.973l-1.993-1.523L31.235,117.074z M54.137,118.059
l-0.098,4.777l4.899,0.188L54.137,118.059z M110.75,120.211l5.566,3.207l-0.836-4.895
C114.023,118.809,112.16,119.754,110.75,120.211L110.75,120.211z M141.328,119.207l1.301,1.617l-4.188,3.516l-1.344-1.68
L141.328,119.207z M35.485,120.625l1.941,1.805l-3.418,3.691l-1.797-1.695L35.485,120.625z M144.902,123.246l1.508,1.527
l-3.813,3.969l-1.508-1.532L144.902,123.246z M39.895,125.191l1.5,1.75l-3.903,3.102l-1.449-1.758L39.895,125.191z M62.395,125.602
l1.094,4.68c-0.079-0.344,4.859-1.399,5.503-1.043L62.395,125.602z M119.906,125.996l4.664,4.922l0.523-4.743L119.906,125.996z
M148.742,126.77l1.688,1.319l-3.133,4.457l-1.906-1.496L148.742,126.77z M43.254,129.742l1.391,2.008l-4.094,2.438l-1.16-1.773
L43.254,129.742z M153.16,130.219l0.258,0.258l-0.004,3.184l-1.301,1.91l-1.77-1.047L153.16,130.219z M126.781,133.793l4.125,7.5
l1.164-5.594C130.543,135.68,128.129,134.699,126.781,133.793L126.781,133.793z M46.516,134.793l0.984,2.164l-4.324,1.973
l-0.984-2.152L46.516,134.793z M48.852,139.957l0.793,2.171l-4.598,1.528l-0.726-2.094L48.852,139.957z M33.852,141.098
l-5.738,2.594l1.371,1.164l4.726-2.539L33.852,141.098z M70.453,141.398c0.282-0.031,0.606,0.358,0.868,1.219
c0.394,1.301,0.187,2.914-0.696,2.89c-0.594-0.069-0.816-1.593-0.82-2.034C69.801,142.168,70.09,141.438,70.453,141.398
L70.453,141.398z M74.539,142.176l1.778,0.191l-0.008,0.5L62.16,165.328l-1.711-1.086L74.539,142.176z M66.922,142.695
c0.567,0.008,1.391,0.394,2.121,1.172c0.43,0.465,0.887,1.121,0.996,1.797c-0.011,0.218-0.39,0.137-0.758,0.086
c-0.937-0.133-2.32-0.786-2.761-1.586C65.981,143.18,66.285,142.691,66.922,142.695L66.922,142.695z M131.957,143.496l1.887,9.199
c0.586-2.305,1.82-3.629,2.73-5.438C134.172,146.148,133.184,144.835,131.957,143.496L131.957,143.496z M50.68,145.355l0.441,2.379
l-4.765,1.104l-0.492-2.308L50.68,145.355z M68.453,146.184c0.067-0.004,0.133,0,0.2,0.008c1.742,0.195,1.988,0.582,0.816,1.367
c-0.711,0.477-2.633,0.543-2.949,0.035C66.184,147.051,67.442,146.191,68.453,146.184L68.453,146.184z M35.656,146.688l-1.781,0.891
l1.481,0.867l1.039-1.137L35.656,146.688z M65.946,148.382c0.531,0.005,0.851,0.957,1.039,1.828c0.183,0.849,0.246,1.61-0.082,2.036
c-0.399,0.52-0.789,0.613-1.106,0.098C64.867,150.835,64.899,148.367,65.946,148.382L65.946,148.382z M62.016,149.762
c0.25-0.009,0.562,0.055,0.93,0.191c1.234,0.468,2.875,2.359,2.183,2.621c-1.023,0.386-3.258-0.735-3.68-1.871
C61.239,150.132,61.469,149.781,62.016,149.762L62.016,149.762z M51.821,151.289l0.113,2.352l-5.008,0.203l-0.152-2.341
L51.821,151.289z M64.098,153.266c0.496-0.013,0.988,0.055,1.387,0.227c0.714,0.309,0.195,0.871-1.039,1.297
c-0.813,0.281-1.973,0.355-2.379,0.031C61.117,154.07,62.617,153.309,64.098,153.266L64.098,153.266z M25.344,153.543
c3.434,2.082,10.508,6.727,10.508,6.727c-0.336,0.065-0.692,0.332-1.024,0.586c-0.257,0.211-0.535,0.406-0.773,0.508
c-0.383,0.152-0.731,0.176-1.051,0.246c-2.211,0.479-3.297,1.729-2.605,3.289c0.273,0.613,0.343,0.512-0.129,1.026
c-1.321,1.263-1.156,1.638-0.688,3.251c0.004,0.227-1.57,2.163-0.176,3.62c0.77,0.673,0.809,0.25,0.528,1.782
c-0.098,0.918,0.152,1.672,1.492,1.934c0.742,0.344,0.73,0.223,0.469,0.855c-0.18,0.902,0.078,1.277,0.711,1.605
c0.574,0.362,0.808,0.461,0.402,0.777c-4.453,2.281-5.824,6.25-1.621,12.094c0.492,0.691,1.738,2.637,1.738,2.637
c-1.414,2.102-2.765,3.832-4.211,5.711l4.203,5.879c-0.679,1.066-2.273,3.238-3.25,5.379c-1.468,3.215-0.5,7.722,3.727,9.07
c1.812,0.578,4.207,0.108,5.715-1.642c1.226-1.421,1.89-4.246,0.773-7.187c-1.41-3.297-3.105-4.91-3.652-5.848l4.5-5.652
c0,0-3.102-4.461-4.336-6.082c8.441-10.332,1.543-13.223,0.223-14.106c-0.207-0.136-0.157-0.8-0.157-0.8
c7.579-0.868,10.168-5.035,12.399-10.305c4.523,2.91,11,6.828,15.535,9.891c0.437,0.406,0.727,0.656,0.66,0.882
c-0.055,0.181-0.23,1.021-0.238,1.88c0.211,1.37,0.109,1.992-0.445,2.516c-0.52,0.496-0.415,0.719-0.332,1.254
c0.144,0.926,0.285,1.019-0.129,1.484c-0.512,0.577-0.68,0.848-0.586,2.241c0.054,0.832,0.16,1.454-0.055,1.942
c-0.281,0.637-1.055,0.961-2.07,1.758c-1.774,1.395-1.535,1.82,0.914,6.879c2.09,4.313,2.328,5.3,1.527,6.832
c-0.668,1.273-0.918,2.257-0.836,4.102c0.02,0.469,0.059,0.977,0.059,1.223c-0.004,0.597,0.004,0.527-0.34,0.898
c-0.27,0.293-0.715,0.866-0.988,1.277c-2.914,4.371-10.582,15.496-10.582,15.496l-25.786-0.043L25.344,153.543z M61.504,155.574
c0.305-0.02,0.668,0.52,1.082,1.613c0.238,0.633,0.211,1.727-0.172,2.147c-0.769,0.841-1.828-1.128-1.492-2.683
C61.074,155.949,61.27,155.594,61.504,155.574L61.504,155.574z M134.023,154.395c0.004,3.983-0.082,9.151-1.453,12.965l1.555,0.703
c-0.504-3.91,0.121-7.125,3.711-8.816C136.203,158.137,134.953,156.262,134.023,154.395L134.023,154.395z M57.641,156.906
c0.125-0.004,0.265,0.027,0.426,0.078c0.582,0.16,1.289,0.5,1.722,0.937c0.735,0.755,1.496,1.657,1.305,1.743
c-1.219,0.535-4.313-1.102-3.91-2.379C57.274,157.016,57.434,156.91,57.641,156.906L57.641,156.906z M52.219,157.074l0.031,1.953
l-3-1.918L52.219,157.074z M120.652,158.012c0.484,0.043,1.234,0.68,1.117,1.12c-0.207,0.478-0.465,0.435-0.797-0.069
C120.555,158.438,120.387,158.046,120.652,158.012L120.652,158.012z M59.934,160.426c0.726-0.02,1.355,0.141,1.422,0.52
c0,0.359-0.555,0.824-1.235,1.035c-1.707,0.522-2.984,0.184-2.515-0.648C57.895,160.777,58.996,160.453,59.934,160.426
L59.934,160.426z M119.27,162.641c-0.719,1.293-0.809,5.422,0.465,7.105c1.973,2.179,3.797,5.02,3.586,8.797l-1.898,0.852
c0.105-3.109-0.02-5.129-2.445-7.81c-2.887-3.14-2.207-8.582-1.211-10.179C118.621,159.824,119.855,162.063,119.27,162.641
L119.27,162.641z M36.145,160.921c0.609-0.034,1.351,0.325,2.691,1.211c3.438,2.431,5.297,3.368,8.703,5.774
c0.496,0.469,0.473,0.398,0.387,0.765c-1.301,4.985-5.082,8.938-10.684,9.661c-0.648,0.086-0.316-0.32-0.703-1.102
c-0.402-0.806-1.144-1.156-1.968-1.164c-2.313-0.021-0.336-1.316,2.488-1.688c0.933-0.144,2.058-0.272,2.652-0.835
c0.129,0.063-0.492-3.895,0.145-5.29c0.324-1.25,0.015-1.854-0.332-1.085c-0.223,0.484-0.528,1.753-0.696,3.055
c-0.136,1.098-0.371,1.25-0.629,0.715c-0.117-0.242-0.113-0.82,0.071-1.273c0.211-1.036-1.094-1.816-0.832-2.766
c0.347-0.793-0.016-1.668-0.453-1.957c-0.243-0.517-0.211-0.887-0.18-1.246c0.07-0.84-0.488-1.645-1.371-1.996
c-0.391-0.199-0.274-0.414,0.133-0.617C35.758,160.988,35.946,160.934,36.145,160.921L36.145,160.921z M33.336,162.344
c0.223-0.005,0.445,0.02,0.656,0.074c0.454,0.277,0.821,1.852,0.313,1.914c-0.188,0.023-0.774,0.093-1.227,0.227
c-1.535,0.448-2.261,0.391-2.234-0.492C30.875,163.164,32.137,162.363,33.336,162.344L33.336,162.344z M35.379,162.503
c0.606,0.004,1.094,0.711,0.711,1.086c-0.391,0.392-1.148,0.106-1.144-0.457C34.946,162.832,35.082,162.503,35.379,162.503
L35.379,162.503z M35.789,164.957c0.176-0.008,0.367,0.031,0.571,0.125c0.562,0.262,0.886,1.227,0.531,1.582
c-0.274,0.27-1.051,0.171-1.469-0.18C34.68,165.848,35.039,164.984,35.789,164.957L35.789,164.957z M33.883,165.098
c0.352,0.008,0.602,0.121,0.668,0.359c0.055,0.207-0.039,0.398,0.055,0.691c0.144,0.465,0.441,0.82,0.183,1.008
c-1.179-0.071-3.625,1.406-4.332,1.336c-0.59-0.078-0.656-0.621-0.145-1.5C30.903,165.973,32.84,165.074,33.883,165.098
L33.883,165.098z M34.598,167.957c0.254-0.016,0.301,0.125,0.195,0.5c-0.074,0.27-0.012,0.902,0.168,1.313
c0.195,0.438,0.547,0.699,0.363,0.871c-0.3,0.086-1.312,0.289-2.164,0.605c-1.097,0.609-4.179,2.438-3.402-0.489
c0.246-0.976,1.379-1.655,3.359-2.347C33.867,168.148,34.34,167.973,34.598,167.957L34.598,167.957z M36.211,167.992
c0.477-0.035,1.024,0.195,1.266,0.785c0.715,1.426-1.336,1.629-1.992,0.445C35.098,168.52,35.602,168.039,36.211,167.992
L36.211,167.992z M36.606,171.305c1.062,0.008,1.89,1.327,1.117,1.827c-0.574,0.345-1.285,0.282-1.942,0.118
C34.797,172.816,35.25,171.296,36.606,171.305L36.606,171.305z M138.617,171.332c4.055,2.125,9.566,4.082,14.914,5.535l-0.18,52.586
l-36.371,0.023l-10.008-17.375c0,0-0.332-0.563-0.438-0.813c-0.203-0.473-0.133-0.859,0.008-1.352
c0.328-1.185,1.332-3.508,2.258-5.156c2.418-4.438,5.852-9.305,3.992-13.567c-0.211-0.487,1.922-3.129,1.922-3.129
c3.285,0.267,6-1.875,5.027-6.933C126.602,178.352,132.25,176.07,138.617,171.332L138.617,171.332z M34.715,171.594
c0.094-0.005-0.187,1.148,0.395,1.855c0.363,0.558,0.304,0.539-0.926,1.027c-0.461,0.25-0.922,0.629-1.184,0.858
c-1.761,1.575-3.508-0.483-1.804-2.136c1.378-1.235,2.816-1.504,3.496-1.59C34.699,171.598,34.707,171.594,34.715,171.594
L34.715,171.594z M118.516,172.68c0.59,0.105,1.355,0.891,1.109,1.32c-0.832,1.398-0.871,2.148-0.945,3.594
c-0.082,1.613,0.195,1.852-0.422,1.57c-0.402-0.188-1.148-0.508-1.316-0.918C116.551,177.301,117.543,172.507,118.516,172.68
L118.516,172.68z M34.141,176.73c0.652-0.012,1.34,0.199,1.726,0.699c0.325,0.414,0.356,0.77,0.036,0.938
c-0.762,0.402-3.289,0.195-3.414-0.324C32.293,177.242,33.184,176.746,34.141,176.73L34.141,176.73z M72.391,177.753
c3.086,0.013,6.687,0.668,9.473,1.888c3.957,1.491,7.441,5.293,8.226,6.918c0.238,0.496-0.25,0.496-0.672,0.543
c-4.711,0.776-6.281,6.573-2.304,9.344c1.246,0.781,2.253,0.695,2.253,0.695c1.008-0.086-4.48,10.448-6.668,17.012
c-6.761-0.277-11.871,0.766-18.48-1.512c-0.711-1.181-0.539-3.785-0.023-5.134c0.476-1.218,1.101-2.163,0.8-3.569
c-0.527-2.449-2.761-5.642-3.507-7.664c-0.657-1.543-0.614-2.121,0.527-3.004c1.348-1.043,1.68-1.263,2.047-1.789
c0.343-0.488,0.199-0.603,0.203-1.707c0.008-1.344-0.024-1.133,1.086-1.332c0.387-0.07,1.297-0.359,1.992-0.728
c1.445-0.761,2.453-0.733,3.305-0.261c0.367,0.098,0.332-0.285,0.488-0.793c0.066-0.219,0.223-0.582,0.211-0.691
c-0.027-0.227-0.516-0.16-1.051-0.087c-2.16,0.302-3.859,0.368-4.73,0.044c-0.758-0.281-0.762-0.794-0.317-1.641
c0.395-0.754,0.672-0.742,0.512-2.313c-0.203-1.977,0.07-2.395,0.992-3.043C67.906,178.121,69.992,177.742,72.391,177.753
L72.391,177.753z M83.543,179.496H93.57c-0.984,1.586-2.082,4.035-2.699,6.355c-0.094,0.18-0.199,0.358-0.434,0.125
C89.086,184.039,87.547,181.969,83.543,179.496L83.543,179.496z M75.227,186.555c-1.196,0.034-2.696,0.613-4.578,1.691
c-1.282,0.734-2.328,1.188-3.688,0.938c-0.777-0.141-0.875-0.031-0.976,0.219c-0.457,1.137,1.238,2.351,2.953,1.555
c0.5-0.207,4.32-2.191,4.531-2.359c0.23-0.184,1.812-0.648,2.23-0.645c1.262,0.016,2.043,1.007,1.887,2.156
c-0.203,1.531-2.375,1.604-2.519,0.246c-0.11-1.051-0.547-0.582-0.586-0.066c0,0.438,0.332,1.441,0.691,1.668
c1.836,1.148,4.254-1.082,3.098-3.379C77.559,187.171,76.586,186.516,75.227,186.555L75.227,186.555z M67,191.895
c-1.242,0.233-2.054,0.719-3.394,0.832c-1.106,0.242-1.024,1.125-0.332,1.582c0.531,0.355,1.199,0.141,3.136-1.09
c1.903-1.212,3.532,1.309,2.012,2.598c-0.957,0.812-0.301,1.027,0.356,0.539C70.461,195.098,69.496,191.418,67,191.895L67,191.895z
M72.891,198.375c-0.149-0.012-0.379,0.043-0.688,0.184c-1.425,0.651-2.519,1.34-3.203,2.258c-0.117,0.199-0.054,0.535-0.109,0.797
c-0.043,0.207-0.211,0.469-0.18,0.609c0.024,0.125,0.43,0.254,0.488,0.371c0.25,0.465,0.09,1.652-0.054,2.512
c-0.067,0.41-0.68,0.535-0.922,0.785c-0.805,0.816-0.602,1.066,0.254,0.746c0.597-0.223,0.344-0.634,1.824-0.348
c1.914,0.371,3.434-0.148,4.938-0.984c1.675-0.93,2.281-1.445,2.347-1.336c0.113,0.184,0.024,0.281-1.168,1.273
c-2.992,2.484-5.215,3.063-6.894,2.129c-0.5-0.34-0.903-0.48-0.524,0.25c0.051,0.082,0.457,0.398,0.739,0.527
c1.726,0.776,3.886,0.117,6.636-2.055c0.602-0.477,1.137-1.012,1.836-1.598c2.281-1.911,1.68-2.782-0.898-1.852
c-0.813,0.293-1.039-0.023-2.141-0.453c-1.473-0.57-1.957-0.625-3.656-0.656c-1.477-0.028-1.699,0.113-1.699-0.137
c0.004-0.316,0.996-1.435,2.113-1.922C73.02,199.003,73.328,198.406,72.891,198.375L72.891,198.375z M75.61,203.089
c0.273,0.278-0.121,0.454-1.188,0.961c-0.601,0.285-1.156,0.524-1.234,0.521c-0.098,0.172-1.102-2.094-0.828-2.207
C72.477,202.316,74.942,202.527,75.61,203.089L75.61,203.089z M71.739,202.852c0.246,0.512,0.437,1.051,0.531,1.547
c0.023,0.151,0.133,0.375-0.11,0.371c-0.187,0.026-0.5,0.043-0.613-0.133c-0.242-0.38-0.508-1.664-0.418-1.914
C71.313,202.469,71.641,202.645,71.739,202.852L71.739,202.852z M80.512,206.926c-0.09,0.004-0.258,0.066-0.523,0.223
c-4.243,2.508-9.329,3.812-12.602,2.574c-1.102-0.414-1.305-0.27-0.902,0.484c0.277,0.527,0.832,1.141,1.671,1.371
c2.672,0.734,6.977-0.336,10.29-2.508C79.793,208.188,80.899,206.921,80.512,206.926L80.512,206.926z M105.477,213.641
c0,0,7.496,15.453,8.957,16.18l-61-0.11l10.277-14.69C63.801,215.835,92.574,218.91,105.477,213.641L105.477,213.641z
M105.477,213.641"/>
<path fill="#D40000" d="M53.961,229.378l9.707-14.371c14.571,2.771,27.68,1.31,42.035-1.254l9.563,16.125L53.961,229.378z
M131.242,174.934c-0.188-0.188-0.043-8.184,0.094-8.056c0.188,0.181,1.832,1.392,2.57,0.786c-0.934-7.652,4.008-7.504,3.887-8.504
c-7.672-5.789-1.09-11.7-1.219-11.828c-8.395-4.332-4.184-10.98-4.766-11.579c-10.223-2.651-6.23-10.765-7.004-9.929
c-5.953,1.789-9.23-3.199-9.332-7.254c-5.148,2.918-13.105-1.215-10.613-5.863c0,0,2.73,1.293,3.211,1.031
c4.203-3.055,3.875,1.332,4.75,2.285c3.137-0.453,4.988,1.945,5.77,3.113c4.625,0.004,4.434-1.105,4.477,3.383
c3.484,0.883,3.344,2.77,5.363,5.344c4.395,0.047,3.656,1.476,2.66,3.91c3.168,2.52,3.426,4.496,3.949,6.789
c3.453,1.254,4.074,1.762,1.82,4.676c3.047,4.57,1.578,7.219,2.043,7.469c3.801,2.742,1.902,3.734,0.242,4.789
c0.578,3.645,1.039,4.18-0.301,7.891c4.371,3.105-0.695,4.504-0.953,4.438c0,0-0.492,3.043-0.488,3.054
C137.512,171.473,131.648,175.344,131.242,174.934L131.242,174.934z M25.235,152.82l-0.086-10.699l37.05,23.941l-4.683,7.348
L25.235,152.82z M74.457,168.574l8.758-18.34c0,0-3.996-20.121-3.148-20c0.523,0.078,25.101,0.551,25.101,0.551
c2.82,6.414,4.523,11.867,11.754,22.484l-7.641,2.383l0.266,12.854L74.457,168.574z M95.922,163.75
c-0.254-0.531-0.398-0.895-0.352-1.129c0.094-0.305,0.328-0.293,0.629-0.129c1.066,0.52,2.133,0.965,2.918-0.016
c0.395-0.513,0.293-1.242-0.043-1.664c-0.602-1.228-2.496-0.34-3.133-0.297c-0.59,0.016-0.816-0.484-0.332-1.191
c0.289-0.309,0.473-0.648,0.52-1.047c0.332-2.805-4.445-1.809-2.789,0.91c0.754,1.008,0.316,1.613-0.793,0.977
c-1.215-0.7-2.91-0.047-2.855,1.425c0.043,1.118,1.445,1.806,2.625,1.134c0.273-0.156,0.484-0.324,0.676-0.41
c0.551-0.238,0.945-0.039,0.762,0.578c-0.492,0.77-1.066,1.879-0.586,2.609c0.484,1.063,2.145,0.96,2.715,0.301
C96.277,165.344,96.387,164.605,95.922,163.75L95.922,163.75z M153.824,107.543l-37.125-24.059l1.285-2.035
c1.664-0.926,2.348-2.082,2.289-3.691l1.012-2.223l32.578,20.906L153.824,107.543z M96.844,102.273l2.742,16.563l-25.769,0.242
c-0.95-4.223-9.719-20.227-10.45-20.898c4.356-4.172,4.43-11.301,6.911-16.984c0.199-0.258,33.984-0.297,34.39-0.039
C104.531,85.184,94.184,103.105,96.844,102.273L96.844,102.273z M86.059,92.18c0.656-0.602,0.609-1.52-0.113-2.555
c-0.704-1-0.391-1.723,0.734-1.043c0.621,0.414,1.609,0.504,2.277,0.289c0.848-0.289,1.199-0.965,1.074-1.816
c-0.152-1.035-1.296-1.316-2.519-0.867c-0.356,0.074-0.57,0.363-0.875,0.5c-0.66,0.293-0.922-0.5-0.316-1.531
c0.668-1.137-0.028-2.359-1.258-2.469c-1.313-0.113-2.098,1.383-1.559,2.203c0.77,1.176,0.211,1.996-0.894,1.207
c-1.586-1.133-3.661,0.305-2.801,1.988c0.418,0.82,1.781,1.035,3.004,0.516c1.019-0.434,1.324,0.066,0.707,1.113
C82.246,91.863,84.336,93.754,86.059,92.18L86.059,92.18z M48.453,73.105L48.18,83.457c-3.875-2.371-3.301-2.402-3.445-2.367
c1.14,3.113-0.188,6.957-3.477,8.848c5.926,5.559,2.723,9.469,1.75,12.109c7.57,4.395,3.731,11.992,3.762,11.598
c7.465,0.043,7.312,6.57,7.527,9.293c9.234-0.578,7.996,6.797,9.211,7.43c4.477-2,9.703-1.316,11.09,4.699
c0.894,3.414-2.395,0.125-3.828,0.269c-5.102,3.177-4.121-1.671-4.406-2.347c-4.227,0.398-4.797-1.613-6.649-3.043
c-4.562,0.879-4.187-0.625-3.918-3.396c-3.582-0.726-4.359-2.96-5.785-5.147c-4.945,0.16-2.93-3.332-2.91-4.02
c-0.598-0.535-3.438-3.328-3.578-6.527c-5.075-1.434-1.887-3.996-1.703-4.875c-1.922-2.391-2.426-4.156-1.782-7.168
c-4.508-2.105-0.742-4.074-0.425-5.273c-1.469-3.926-0.399-5.102,0.183-7.227c-2.902-3.398-1.168-3.207,0.953-5.27
c0.27-0.371-0.472-2.078-0.429-3.086L48.453,73.105z M74.485,34.742L66.36,20.199h58.031c0,0-6.316,8.75-8.762,13.152
C101.156,31.07,87.614,32.152,74.485,34.742L74.485,34.742z M74.485,34.742"/>
<path fill="#E2CF00" d="M33.977,220.109c-5.09-1.156-5.953-7.555-1.176-12.875c0.387-0.43,0.652-1.094,0.652-1.094
s-0.851-1.398-3.082-4.488c-0.414-0.574-1.019-1.492-1.019-1.492c1.222-1.762,2.504-3.223,3.871-5.133
c0.183-0.258,0.523-0.547,0.473-0.785c-0.067-0.336-0.563-0.676-1.157-1.547c-3.445-5.078-3.824-7.09-2.074-10.11
c1.645-2.839,5.57-3.167,7.961-0.664c2.586,2.704,2.465,5.161-0.891,10.161c-0.738,1.098-1.269,2.089-1.269,2.089
s-0.031,0.349,1.183,1.918c1.688,2.177,2.926,4.043,2.926,4.043s-0.769,0.981-1.496,1.832c-1.945,2.286-2.82,3.864-2.82,3.864
s0.133,0.453,0.426,0.785c5.332,6.039,4.91,12.98-1.121,13.57C35.055,220.214,34.301,220.168,33.977,220.109L33.977,220.109z
M76.875,142.996c-0.14-0.23-19.191,30.602-19.191,30.602l2.176,1.395l18.222-28.5c0.278,0.207,0.543,0.457,0.489,0.804
c0,0-15.012,24.461-17.512,28.372c-0.067,0.105,3.722,2.348,3.847,2.355c5.586-2.75,28.868-0.371,44.329-1.316
c0.063,0.046-0.234,5.43-0.234,5.43s-3.527-4.074-4.238-4.102c-3.516-0.121-7.215,1.375-9.863,1.207
c-1.688,0.52-3.621,6.679-4,8.227c-3.078-0.355-6.051,2.863-5.336,5.859c1.004,3.332,2.73,3.082,4.601,3.136
c-0.172,3.771-6.832,13.711-6.859,18.61c7.043-0.555,14.66-0.684,21.926-2.875c0,0,2.727-7.848,6.168-13.02
c1.137-1.977,1.684-4.945,1.223-6.82c-0.293-2.047,0.59-2.566,1.379-4c0.48-0.899,2.254-0.859,2.48-0.926
c4.621-1.34,2.973-7.313,1.004-8.375c-2.449-1.328-5.918,0.727-7.25-1.961c-1.41-2.845-0.953-8.727-0.953-8.727l-34.882,0.164
c0,0,9.855-18.727,9.605-18.867C81.309,148.191,76.906,143.046,76.875,142.996L76.875,142.996z M53.543,160.043
c0.164-1.895,0.465-32.676-28.617-47.977l0.156-4.047c0.176-0.207,26.453,11.863,30.961,43.215l8.11-12.707l2.984,1.168
C62.727,146.32,53.961,162.395,53.543,160.043L53.543,160.043z M35.883,148.953c1.199-3.555-0.769-1.668-2.559-1.813
c-1.226-0.668-2.429-1.527-3.566-2.277c8.5-4.504,3.438-4.285-1.512-1.121c-1.285-0.699-2.91-2.223-3.011-2.094
c9.589-6.168,5.992-6.293-0.145-1.828c0.211-4.188,0.063-2.617,0.145-4.024c5.234-5.604,0.359-2.562,0-2.491
c-1.289-5.595,4.871-4.427,5.437-0.195c1.086,0.805,3.215,1.805,3.844,5.272c2.957,1.884,2.648,3.446,2.512,5.7
c1.156,1.145,4.144,3.559,0.66,5.785L35.883,148.953z M24.852,123.43l0.195-3.094c0.402-1.262,22.832,14.742,21.215,35.305
c0.266-0.145-2.484-1.434-3.27-2.141C43.004,138.367,25.196,122.68,24.852,123.43L24.852,123.43z M153.496,140.789
c-14.965-6.859-29.176-23.297-29.922-44.676l-8.453,14.16l-2.93-1.094c0.141,0.176,6.297-11.961,13.207-20.051
c1.859,26.973,12.438,39.516,28.465,48.628L153.496,140.789z M75.121,130.926c-14.504-1.801-35.468-21.543-29.203-48.309
c0.887-2.719,14.875,12.34,14.875,12.34c0.086-0.684,12.582,19.445,12.231,23.375c10.543,3.004,31.125,0.156,31.125,0.156
c17.113,3.824,35.008,22.285,28.547,48.527c0,0-4.547-2.988-8.348-6.465c-11.551-11.164-15.215-20.341-19.309-30.457
C90.25,128.753,76.387,131.406,75.121,130.926L75.121,130.926z M153.637,108.637c0.582,1.297,0.137,4.09,0.137,4.09
c-3.852,4.195-4.254,4.273,0.578,2.922c-0.598,4.027-3.574,4.688-5.34,3.316c-0.652-0.504-0.66-3.277-0.66-3.277
c-2.93-0.734-3.934-1.617-3.52-4.77c-3.375-0.402-3.242-2.043-2.965-5.473c-3.074-1.73-2.203-4.852-0.383-6.027l1.414,1.418
c-0.488,0.438-0.25,3.168,2.441,1.137c0,0,2.156,1.789,3.191,2.48c-7.793,5.012-3.07,3.91,1.73,0.617
c0.902,0.617,2.008,1.551,2.648,1.984C146.816,111.629,144.652,115.453,153.637,108.637L153.637,108.637z M154.016,125.672
l-0.258,3.613c-15.387-9.414-19.551-21.828-20.695-35.051c0,0,2.066,1.52,3.008,2.152
C137.445,113.445,153.066,124.961,154.016,125.672L154.016,125.672z M69.723,80.914l36.898,0.234l-10.387,19.316
c0,0,5.047,7.098,6.117,4.973c6.18-9.711,12.465-19.449,18.91-29.91l-2.23-1.332l-18.254,28.84l-1.012-0.457l18.469-29.367
c-1.086-0.711-3.34-1.66-3.34-1.66S83.473,72.055,69.817,72c0.441-1.883-0.168-5.887,1.246-4.906
c0.59,2.734,4.918,5.031,8.336,2.383c0.168-0.129,5.379,0.117,5.582-0.148c0.679-1.098,1.883-4.555,3.289-8.457
c5.355-0.359,4.824-2.949,5.434-3.801c-0.41-7.613-4.684-3.512-4.316-6.281c1.207-4.934,7.379-16.102,6.598-17.078
c-1.59-1.059-17.371,2.051-21.965,2.617c-0.426-0.164-2.668,7.164-5.031,10.297c-2.575,3.41-3.489,7.066-2.176,10.516
c-1.364,3.789-3.969,3.402-6.067,4.473c-2.375,2.574-1.722,6.52,0.543,8.043c1.578,1.063,4,1.008,6.469-0.996L69.723,80.914z
M143.043,54.441l-4.316-5.801l4.184-6.098c-1.652-2.621-4.375-6.629-3.887-9.805c1.066-6.301,9.563-5.375,10.301,0.648
c0.402,2.797-1.633,6.23-3.707,9.148c1.367,2.492,1.957,2.898,3.945,5.754c-1.184,2.086-4.059,6.164-4.059,6.164
c1.793,3.016,4.289,6.34,4.105,9.41c-0.188,2.633-3.059,5.305-5.738,4.742C135.539,66.859,140.191,57.949,143.043,54.441
L143.043,54.441z M143.043,54.441"/>
<path d="M12.864,6.793v2.785h2.753c0,0,0.067,2.684,0.09,8.387c0.028,5.535,0.141,8.281-0.218,9.855
c-0.969,3.633-6.329,3.652-7.391,1.039c-0.621-1.52-0.453-2.699-0.488-4.227H4.649c0,0,0.015,0.77,0.019,1.707
c0.016,4.09,1.395,6.039,4.621,6.813c3.317,0.879,7.188-0.461,8.567-3.242c0.824-1.586,0.73-1.691,0.75-11.277
c0.011-6.395,0.113-9.055,0.113-9.055h2.535V6.793H12.864z M64.985,19.535C67.27,23.832,73.77,35.43,73.77,35.43
c15.453-3.207,28.449-4.02,42.105-1.027l9.758-14.797L64.985,19.535z M66.996,20.406h2.793l5.481,11.277l9.457-1.887l-1.61-9.367
l2.676,0.016l1.352,9.008l13.891-0.355l1.801-8.691l2.563,0.031l-1.84,8.836l11.004,1.48l5.383-10.348h3.695l-8.184,12.777
c-14.559-2.836-29.023-1.883-41.129,1.094L66.996,20.406z M72.266,20.406h8.156l1.957,7.613c-1,0.523-4.742,1.418-5.992,1.293
C74.891,26.691,73.348,22.906,72.266,20.406L72.266,20.406z M87.996,20.406h12.415l-1.059,6.484l-10.41,0.332L87.996,20.406z
M107.676,20.406h9.566l-3.777,7.871l-7.215-0.98L107.676,20.406z M46.524,22.379c-1.918,4.129-4.621,8.16-6.887,11.137
c-6.719,8.781-8.16,11.281-9.488,16.453c-2.078,8.09,5.086,14.629,11.297,10.234c1.464-1.039,3.085-3.895,3.093-5.125
c0.004-0.891,0.61-1.367,1.102-0.871c0.098,0.102,0.125,0.496,0.094,1.066c-0.344,3.664-1.817,9.629-4.664,13.371h11.382
c-3.445-4.57-4.597-9.172-4.535-13.5c0.008-1.863,1.11-1.68,1.356,0.227c1.215,9.34,13.261,7.586,13.824-1.758
c0.328-4.887-2.754-10.09-6.774-15.859C53.047,33.047,49.059,27.965,46.524,22.379L46.524,22.379z M144.094,28.285
c-0.559-0.004-1.074,0.047-1.551,0.145c-2.48,0.52-3.781,2.426-3.801,5.539c-0.008,1.43,1.043,3.949,2.641,6.336
c0.781,1.164,1.301,2.234,1.301,2.234l-4.164,6.117l4.43,5.785c0,0-0.691,0.809-1.102,1.391c-2.031,2.871-2.969,5.559-2.84,7.762
c0.141,2.379,1.527,4.195,4.129,5.066c1.426,0.477,3.461-0.105,4.828-1.348c1.102-1,1.656-2.301,1.68-3.824
c0.035-2.18-1.02-4.824-3.117-7.703c-0.57-0.781-0.848-1.398-0.848-1.398s2.938-4.18,4.043-6.094l-4.012-5.766
c3.191-4.797,3.832-5.859,3.922-8.809C149.488,30.801,147.371,28.305,144.094,28.285L144.094,28.285z M143.695,28.637
c0.137,0,0.277,0.004,0.414,0.012c3.645,0.281,5.57,2.992,5.086,6.469c-0.496,3.316-3.484,6.406-3.961,7.473
c1.434,2.336,4.145,5.656,4.145,5.656c-1.148,2.09-4.117,6.141-4.117,6.141s0.168,0.336,0.359,0.602
c3.098,4.395,3.953,6.473,3.738,9.105c-0.168,2.078-1.809,3.93-3.852,4.309c-3.242,0.594-5.898-1.703-6.227-4.809
c-0.199-2.719,1.555-5.359,2.914-7.422c0.578-0.863,1.074-1.691,1.074-1.691l-4.414-5.793c0,0,0.316-0.496,0.52-0.793
c0.777-1.129,1.781-2.52,2.293-3.188c0.93-1.211,1.48-2.043,1.48-2.043s-0.66-1.059-1.27-2.023
c-2.418-3.824-3.094-5.781-2.723-7.895C139.613,30.148,141.629,28.672,143.695,28.637L143.695,28.637z M144.023,30.598
c-1.348,0.035-2.633,1.027-3.145,2.465c-0.742,2.691,2.094,6.77,3.383,7.863c2.418-2.777,3.957-5.895,3.063-8.078
C146.738,31.527,145.371,30.563,144.023,30.598L144.023,30.598z M144.355,31.469c2.441,0.051,3.355,2.949,1.473,6.246
c-0.652,1.125-1.609,2.301-1.609,2.301s-0.895-1.117-1.43-1.957c-2.184-3.414-1.621-6.082,1.059-6.559
C144.023,31.48,144.195,31.469,144.355,31.469L144.355,31.469z M95.785,32.977c-6.386,0.035-14.921,1.098-22.425,2.801
c-0.653,4.023-2.672,8.063-4.875,11.266c-2.121,3.469-2.891,6.484-2.18,8.555c0.664,1.934-1.149,4.824-3.141,5.008
c-2.476,0.223-4.054,1.949-4.023,4.402c-0.07,3.934,2.644,6.348,6.332,5.008c0.371-0.047,0.617,0.195,0.617,0.195l-0.215,22.516
c-2.074,0.324-3.461,0.777-5.222,1.715l-0.743-0.801c-0.41-0.438-0.925-1-1.152-1.25c-0.223-0.25-0.633-0.602-0.902-0.773
c-0.274-0.176-0.641-0.551-0.821-0.836c-0.433-0.695-2.277-2.469-3.285-3.156c-0.172-0.117-0.605-0.484-0.965-0.816l-0.656-0.602
l0.004-7.477c0-4.113-0.043-7.52-0.094-7.574c-0.054-0.055-0.898,0.305-1.875,0.797c-3.359,1.469-6.566,3.496-9.031,5.141
c-1.09,0.73-1.199,1.137-0.789,2.984c0.23,1.039,0.172,1.148-0.68,1.359c-1.758,0.43-2.308,3.23-0.824,4.18
c0.699,0.445,0.703,0.469,0.25,1.484c-0.695,1.566-0.668,4.566,0.055,5.816c0.41,0.715,0.383,0.945-0.164,1.301
c-1.871,1.219-1.746,3.828,0.215,4.313c0.5,0.125,0.628,0.34,0.464,0.77c-0.613,1.578-0.054,3.977,1.348,5.797
c0.731,0.945,0.731,0.934,0.246,1.367c-1.574,1.426-0.723,3.977,1.426,4.258c0.734,0.098,0.738,0.098,0.824,0.66
c0.246,1.621,0.36,2.074,0.715,2.832c0.453,0.961,0.996,1.609,2.012,2.398c0.832,0.648,0.832,0.656,0.386,1.609
c-0.816,1.762,0.485,3.512,2.559,3.438c1.059-0.035,1.059-0.039,1.137,0.336c0.371,1.84,2.558,4,4.355,4.298
c0.922,0.151,1.067,0.37,0.754,1.151c-0.504,1.262-0.18,2.07,1.094,2.726c0.855,0.438,1.105,0.454,2.039,0.134
c1.059-0.363,1.07-0.359,1.969,0.844c1.265,1.695,2.105,2.121,4.218,2.137c1.395,0.008,1.45,0.047,1.457,1.027
c0.02,2.328,2.485,3.297,4.071,1.605c0.57-0.613,0.57-0.609,1.078-0.234c2.23,1.633,4.211,2.055,4.027,0.526
c-0.433-3.578-3.023-5.761-3.023-5.761l3.238,0.844c0.141,3.777,0.274,8.335,1.063,11.484l-14.422,22.969
c0,0-0.871-0.536-1.793-1.168c-1.355-0.938-3.016-2.035-4.035-2.672c-0.52-0.328-1.184-0.727-1.707-1.168
c-0.504-0.418,0.308-0.969,0.48-1.41c3.32-5.93,8.516-13.055,12.297-19.984l-3.66-1.414c-2.801,4.409-4.864,7.957-7.473,12.023
c-2.598-19.055-15.894-35.785-31.984-42.828l0.054,4.988c16.891,8.637,28.946,26.469,28.625,47.504
c-0.066,0.078-1.414-0.727-3.234-1.942c-0.961-0.64-2.895-1.901-3.137-2.026c0.782-23.293-22.316-37.063-22.355-36.414
c0,0-0.145,3.012-0.211,4.406c9.844,6.594,17.574,18.594,18.359,29.27c0.008,0.09-4.621-2.887-4.621-2.887
c2.754-1.371,1.996-4.926,0.012-5.887c-0.621-0.277-0.656-0.414-0.348-1.255c0.633-1.718-0.531-4.308-2.133-4.741
c-0.703-0.191-0.82-0.375-0.851-1.363c-0.063-1.805-1.063-2.984-2.86-3.379c-0.5-0.109-0.503-0.113-0.531-0.734
c-0.148-3.496-3.566-4.922-6.133-2.555c-0.285,0.262-0.586,0.766-0.586,0.766l-0.019,3.789c0.875-0.48,2.203-2.129,2.75-2.063
c0.602,0.074,0.309,0.477-1.047,1.648c-0.879,0.762-1.73,1.563-1.73,1.563l0.054,4.992c1.461-0.949,2.922-2.023,4.289-2.973
c1.18-0.825,1.786-1.094,1.93-0.855c0.164,0.27-0.098,0.617-0.769,1.02c-1.797,1.195-3.891,2.602-5.403,3.785l-0.004,3.438
l0.289,0.43l0.086,3.012l-0.27,0.066l0.004,3.793l35.527,22.694l18.078-28.519l0.297,0.301l-18.082,28.398
c0,0,0.742,0.641,1.445,1.008c0.719,0.402,1.617,0.937,2.383,1.449c0.363,0.594,0.996,1.112,1.676,1.039
c0.621-0.681,3.336-1.398,3.598-1.711c10.117-0.148,39.148,0.051,39.148,0.051l0.164,4.645c-1.305-4.504-5.512-5.434-8.82-3.418
l-5.434,0.007c-0.043,0-3.215,5.786-3.68,8.806c-2.286-0.313-5.324,1.914-5.48,4.172c-0.367,3.215,1.742,5.559,4.504,5.102
c0.051,0.02-0.434,3.184-1.996,5.656c-2.071,4.363-3.141,6.804-4.403,10.527c-0.859,2.34-0.566,2.758-0.418,2.816
c8.106-0.118,15.563-0.902,23.254-3.387c0,0-0.141-0.547-0.211-0.856c-0.277-1.245,0.77-3.797,3.73-9.062
c2.285-4.067,2.938-5.617,3.168-7.539c0.117-0.969,0.094-1.223-0.242-3.035c-0.02-0.168-0.152-0.411-0.117-0.594
c0.238-1.219,2.098-3.367,2.141-3.313c0,0,0.672-0.125,0.941-0.147c4.191-0.297,5.488-5.992,1.953-8.563
c-1.723-1.054-2.738-1.132-4.566-0.655l-0.031-22.09l2.547,0.094l2.801-1.383c4.5,3.844,7.434,7.77,12.277,10.727l-0.078,0.195
l-3.602-2.47l0.012,14.478c4.164-2.168,8.047-4.168,11.793-7.203l-0.754-0.653l0.031-2.069c3.52,0.277,3.855-4.203,0.965-4.738
c0,0,0.066-0.359,0.344-0.93c0.887-1.82,1-3.535,0.352-5.43c-0.395-1.156-0.375-1.445,0.09-1.445
c2.141,0.012,1.941-3.781-0.238-4.609c-0.75-0.289-0.695-0.051-0.543-2.403c0.117-1.769-0.316-2.968-1.621-4.519
c-0.496-0.586-0.453-0.867,0.184-1.258c1.824-1.113,0.5-4.328-1.742-4.234c-0.875,0.035-0.875,0.035-0.949-0.844
c-0.199-2.305-1.488-4.5-3.176-5.422c-0.52-0.285-0.598-0.516-0.305-0.91c1.438-1.922,0.094-4.547-1.934-3.781
c-0.391,0.152-0.805,0.301-0.918,0.336c-0.16,0.047-0.289-0.176-0.598-1.047c-0.844-2.367-1.59-3.113-4.273-4.238
c-0.527-0.223-0.559-0.379-0.32-1.461c0.41-1.867-2.16-3.605-3.547-2.398c-0.566,0.492-0.586,0.488-1.223-0.328
c-1.266-1.461-3.332-2.477-5.168-2.668c-0.879-0.078-1.008-0.148-0.938-0.484c0.488-2.289-1.738-3.777-3.586-2.402
c-0.891,0.66-1.121,0.68-2.031,0.168c-1.918-1.078-2.758-1.117-2.957-0.145c-0.063,0.809,0.117,1.766,0.313,2.363
c0.465,1.605,1.07,2.203,2.395,3.332c0,0-2.195-0.609-2.75-0.719c0.055-0.059-0.16-7.625-1.602-11.91l14.039-22.344l8.043,5.305
l-12.859,20.344l3.742,1.523c0,0,5-8.305,7.617-12.379c1.715,20.227,17.348,37.96,31.512,43.223
c-0.047,0.022,0.047-2.91,0.105-4.328c-14.941-6.578-29.156-24.965-28.262-47.031l6.004,3.844
c1.742,17.684,9.445,28.047,22.285,36.813v-5.418c-8.844-6.547-16.191-15.094-18.141-28.773c0,0,3,1.895,4.344,2.793
c0,0-0.379,0.215-0.574,0.379c-1.605,1.336-1.125,4.074,0.992,5.625c0.344,0.25,0.348,0.254,0.023,1.113
c-0.641,1.715,0.348,3.781,2.02,4.215c0.957,0.25,0.953,0.238,0.969,1.336c0.035,2.129,0.895,3.109,3.168,3.621
c0.313,0.07,0.324,0.102,0.316,1.055c-0.012,2.355,2.254,3.941,4.223,2.957c0.617-0.313,2.559-1.934,2.559-1.934v-3.793
c0,0-0.879,0.719-1.512,1.313c-1.113,1.035-1.465,1.164-1.461,0.531c0.004-0.457,0.516-1.063,1.582-1.855
c0.551-0.41,1.391-1.289,1.391-1.289v-4.418c0,0-0.496-0.785-0.465-1.73c0.016-0.512,0.16-1.289,0.16-1.289l0.531,0.012
l-0.008-5.113l-0.645-0.504l0.027-3.391l-35.129-22.727l-18.297,29.098l-0.457-0.535l18.316-28.914l-4.867-3.113l-2.938,1.449
c0,0-20.333-0.32-40.161-0.066c0,0-0.047-0.547-0.039-2.094c0.008-1.941,0.098-2.215,0.457-1.395
c0.801,1.836,2.793,2.945,5.106,2.84c1.304-0.063,1.484-0.113,2.937-0.898c0.539-0.289,0.637-0.297,3.18-0.281
c2.726,0.02,3.219-0.078,3.219-0.656c0.949-2.16,1.886-4.664,2.425-6.551c0.262-0.91,0.379-1.313,0.594-1.5
c0.164-0.145,0.293-0.113,0.692-0.137c1.742-0.113,2.23-0.227,3.484-1.453c2.52-2.531,1.074-7.68-2.574-7.699
c-0.965-0.004-0.305-2.574,1.738-6.746c2.113-4.316,2.41-4.98,3.5-7.871c0.715-1.895,1.055-3.25,1.145-4.074
C96.199,32.977,95.992,32.977,95.785,32.977L95.785,32.977z M95.594,34.223c0.508,0.426-0.754,3.543-3.031,8.262
c-1.875,3.895-2.719,5.84-3.117,7.25c-0.118,0.41-0.282,0.996-0.368,1.305c-0.125,0.434-0.285,0.648-0.714,0.957
c-0.309,0.219-0.735,0.543-0.954,0.719c-0.613,0.492-0.761,0.336-0.609-0.66c0.281-1.844,1.012-3.832,2.699-7.293
c1.34-2.758,2.648-5.711,3.664-8.723c0.23-0.703,0.336-1.418,0.719-1.676C94.43,34.055,95.008,34.113,95.594,34.223L95.594,34.223z
M92.855,34.406c0.348,0.238-1.301,4.508-4.16,10.438c-3.571,7.395-3.758,12.574-0.551,13.844c2.531,1,5.082-1.789,3.52-3.824
c-0.75-0.977-2.371-1.059-2.929-0.047c-0.309,0.555,0.117,1.191,0.66,0.418c0.789-1.129,2.371,0.172,1.988,1.508
c-0.262,0.918-1.547,1.652-2.34,1.496c-3.508-0.699-2.847-5.645,0.789-5.918c3.48-0.258,5.063,4.414,2.535,7.086
c-0.801,0.867-1.738,1.297-3.372,1.297c-2.265-0.004-4.382-1.875-4.168-3.609c0.301-1.586,0.344-2.867-0.191-4.117
c-0.172-0.402-0.383-0.801-0.371-1.309c0.031-1.406,1.187-3.586,3.769-8.977c0.926-1.934,2.063-5.281,2.622-7.395
c0.199-0.617,0.102-0.793,0.336-0.879C91.566,34.293,92.395,34.117,92.855,34.406L92.855,34.406z M89.871,34.48
c0.532,0.02-0.687,3.91-2.226,7.223c-1.164,2.539-2.758,5.797-3.942,8.813c-0.379,0.637-0.632,0.688-1.41,0.273
c-0.855-0.457-0.601-1.184,1.418-5.199c1.52-3.051,2.985-6.5,4.008-9.973c0.094-0.418,0.234-0.777,0.582-0.977
C88.824,34.41,89.34,34.457,89.871,34.48L89.871,34.48z M87.031,34.918c0.282,0.371-1.566,5.617-4.429,11.527
c-0.61,1.258-1.024,2.402-1.637,3.688c-0.297,0.297-1.434,0.445-2.004,0.563c-0.586-0.078-0.031-1.18,1.645-4.566
c1.363-2.758,1.75-3.539,2.468-5.219c0.52-1.23,1.282-3.34,1.993-5.313c0.058-0.16,0.113-0.512,0.265-0.594
C85.864,34.777,86.512,34.688,87.031,34.918L87.031,34.918z M84.239,35.246c0.046,0.125-0.059,0.387-0.098,0.586
c-0.449,2.109-1.481,4.074-2.231,6.09c-0.089,0.277-0.914,1.992-1.832,3.816c-0.914,1.82-1.757,3.563-1.867,3.867
c-0.113,0.309-0.418,1.121-0.68,1.809c-1.644,3.531,0.125,6.316,2.305,6.512c3.403,0.281,3.723-4.488,1.324-4.945
c-0.906-0.152-1.898,0.344-1.906,1.383c-0.062,0.547,0.606,1.176,0.598,0.395c-0.035-1.418,1.949-1.355,2.191-0.148
c0.477,2.352-2.195,3.504-3.785,1.656c-0.656-0.762-0.652-1.629-0.531-2.406c0.332-2.105,2.758-3.625,5.004-2.039
c3.078,2.176,2.015,6.98-1.957,7.762c-1.36,0.355-3.075-0.098-4.145-1.199c-0.683-0.703-1.133-1.738-1.301-3.02
c-0.097-0.715-0.136-1.559-0.023-2.344c0.32-2.469,2.121-6.074,3.699-9.125c1.219-2.531,2.176-5.875,3.285-8.566
C82.602,35.098,84.285,34.887,84.239,35.246L84.239,35.246z M81.239,35.582c0.179,0.055-0.75,2.98-2.075,6.137
c-1.457,3.207-3.351,6.871-4.425,10.023c-0.336,0.773-0.583,0.75-1.543-0.145c-0.508-0.473-0.223-1.176,1.554-4.809
c2.739-5.586,3.754-7.969,4.164-9.297c0.192-0.625,0.348-1.395,0.758-1.637C80.199,35.605,80.715,35.426,81.239,35.582
L81.239,35.582z M78.504,36.281c-0.289,0.941-1.238,3.73-2.859,7.031c-1.02,2.086-2.012,4.395-3.02,6.547
c-0.558,1.324-0.574,1.324-1.531,1.523c-1.613,0.336-1.613,0.32-0.188-2.57c0.422-0.859,1.239-2.434,1.813-3.5
c1.055-1.965,2.691-5.793,3.285-7.699c0.156-0.512,0.379-0.992,0.637-1.254C76.805,36.273,78.074,35.895,78.504,36.281
L78.504,36.281z M74.977,36.633c0.289-0.008,0.547,0.043,0.672,0.199c0.07,0.656-1.703,4.852-2.789,6.797
c-0.336,0.598-0.664,1.367-1.039,2.059c-1.387,2.207-3.055,6.449-3.485,8.211c-0.683,2.797,2.512,4.914,4.172,2.879
c1.051-1.23-0.043-3.445-1.559-2.828c-0.531,0.215-0.312,0.453,0.411,0.512c1.191,0.102,1.285,1.941,0.019,2.348
c-1.406,0.43-2.445-0.789-2.437-2.039c0.007-2.563,2.812-3.504,4.566-2.102c1.75,1.457,2.027,4.918-0.621,6.262
c-2.586,1.309-5.766-0.465-6.406-3.566c-0.489-2.371,0.043-4.539,2.32-8.191c1.309-2.098,3.344-5.727,4.387-8.91
c0.203-0.539,0.383-0.984,0.57-1.211C73.93,36.848,74.496,36.652,74.977,36.633L74.977,36.633z M12.715,37.277
c0,0-1.027,1.973-2.453,4.344c-1.734,2.934-4.289,5.828-4.664,9.105c-0.102,0.934,0.051,1.871,0.242,2.445
c0.793,2.41,4.246,2.773,5.453,0.742c0.36-0.609,0.485-0.723,0.836-0.531c0.152,0.082,0.215,0.32,0.207,0.652
c-0.301,2.164-1.133,3.355-2.332,4.98h5.762c-1.211-1.336-2.242-3.18-2.363-5.043c-0.039-0.762,0.425-0.828,1.125,0.008
c2.246,3.105,5.781-0.383,5.492-3.281c-0.321-3.227-3.696-7.398-4.625-9.039C13.992,39.582,12.715,37.277,12.715,37.277
L12.715,37.277z M144.242,44.086l-3.469,4.414c1,1.445,3.379,4.293,3.379,4.293l3.289-4.25L144.242,44.086z M144.273,46.555
l1.438,1.863l-1.645,1.941l-1.543-1.813L144.273,46.555z M144.402,56.148c0,0-4.195,4.598-3.23,8.008
c0.859,3.039,5.434,3.777,6.543-0.668c0.082-0.355,0.02-0.832-0.031-1.43C147.59,60.25,144.402,56.148,144.402,56.148
L144.402,56.148z M144.402,57.055c0,0,1.207,1.746,2.055,3.297c0.949,1.469,1.199,5.582-2.176,5.457
c-1.828,0.188-3.574-2.223-2.121-5.172C142.559,59.738,144.402,57.055,144.402,57.055L144.402,57.055z M75.156,57.797
c0.235-0.039,0.469,0.465,0.618,0.832c0.199,0.496-0.371,1.93-0.977,2.645c-0.113,0.121-0.883,0.188-2.027,0.77
c-0.004-0.535,0.324-1.711,0.539-2.234c0.781-0.77,1.441-1.691,1.75-1.961C75.094,57.816,75.125,57.801,75.156,57.797L75.156,57.797
z M66.797,58.055c0.516,0.582,1.024,1.09,1.004,1.449c-0.031,0.531-0.652,1.184-1.125,1.648c-0.59,0.582-1.77,0.234-1.766-0.52
C64.914,60.352,66.594,58.051,66.797,58.055L66.797,58.055z M84.555,58.813c0.5,0.266,1.004,1.176,1.066,1.59
c-0.726,3.93-3.429,8.734-3.34,8.555c0,0-1.656,0.293-2.359-0.063c1.82-2.527,3.039-5.742,3.867-8.371
C84.145,59.387,84.305,58.816,84.555,58.813L84.555,58.813z M83.02,59.363c0.281-0.016,0.386,0.211,0.156,0.816
c-1.07,4.348-3.477,8.918-5.367,9.75c-2.481,1.094-4.949,0.188-6.008-1.68c-1.148-2.023-0.941-5.215,2.879-5.914
c2.25-0.23,4.555,1.543,3.355,4.395c-1.336,2.113-4.925,0.938-3.875-1.793c0.797-1,2.461-0.133,1.918,1
c-0.277,0.57-0.011,0.926,0.399,0.527c1.308-1.273-0.844-3.461-2.297-2.367c-2.367,1.785,0.555,5.711,3.312,4.027
c0.84-0.516,2.36-3.395,2.93-5.492c0.246-0.902,0.469-1.758,1.051-2.305C82.028,59.805,82.664,59.383,83.02,59.363L83.02,59.363z
M76.742,59.535c0.137,0.008,0.293,0.074,0.512,0.18c0.277,0.137,0.602,0.387,0.563,0.707c-0.043,0.367-0.254,1.172-0.68,1.563
c-0.258-0.086-0.965-0.371-1.445-0.5c-0.305-0.082,0.097-0.734,0.285-1.094c0.297-0.582,0.461-0.828,0.707-0.852
C76.703,59.539,76.723,59.535,76.742,59.535L76.742,59.535z M68.93,59.684c0.355-0.004,0.922,0.391,1.297,0.441
c0.07,0.543-0.617,1.695-1.735,3.063c-0.918,1.117-0.914,1.121-1.523-0.109c-0.395-0.805-0.406-0.781,0.727-2.188
c0.605-0.758,0.898-1.105,1.164-1.199C68.883,59.688,68.906,59.684,68.93,59.684L68.93,59.684z M72.477,60.078
c0.019,0.289-0.129,0.926-0.254,1.297c-1.266,3.789-4.231,7.539-6.672,8.461c-3.191,1.043-6.113-0.637-6.187-4.512
c0.082-4.563,5.515-5.828,7.156-1.664c0.742,1.879-1.278,4.703-3.024,4.23c-1.761-0.473-2.496-3.223-1.043-3.902
c0.95-0.445,1.934,0.301,1.727,1.309c-0.07,0.352-0.051,0.398,0.152,0.363c0.907-0.172,0.43-1.988-0.64-2.441
c-2.02-0.859-3.547,1.863-2.184,3.891c1.633,2.43,4.199,1.965,5.676-1.031c0.254-0.512,0.73-1.242,1.062-1.625
c0.895-1.035,1.18-1.441,1.973-2.813c0.434-0.754,0.668-1.23,0.891-1.48C71.465,60.137,71.707,60.234,72.477,60.078L72.477,60.078z
M79.633,60.281c0.383,0,0.68,0.25,0.668,0.781c-0.004,0.441-0.641,2.313-0.937,2.762c-0.114,0.172-0.379,0.773-0.418,0.641
c-0.375-1.246-1.04-1.629-1.137-1.957c-0.11-0.383,0.226-0.75,0.379-1.094C78.504,60.68,79.141,60.277,79.633,60.281L79.633,60.281z
M86.379,60.871c0.461-0.004,1.117,0.207,1.25,0.551c0.422,0.742-2.433,7.641-2.539,7.66l-2.133-0.094
c1.282-2.75,2.414-5.477,3.239-8.102C86.25,60.875,86.313,60.871,86.379,60.871L86.379,60.871z M114.984,71.789l2.711,1.613
l-17.871,28.398l-2.598-1.988L114.984,71.789z M70.399,72.375c16.691,0.063,39.679,0.031,39.679,0.031l-0.969,1.844
c0,0-25.109-0.246-38.71-0.219V72.375z M47.864,73.539l-0.036,9.332c0,0-0.125-0.055-1.718-1.113
c-1.911-1.273-4.008-2.582-4.684-2.926c-0.992-0.508-0.863-0.75,1.051-1.969C44.356,75.734,47.864,73.539,47.864,73.539
L47.864,73.539z M119.336,74.465l1.676,1.059l-18.777,29.891l-1.043-2.051L119.336,74.465z M70.403,74.879h2.613v2.953h-2.613
V74.879z M76.387,74.879h3.172v2.953h-3.172V74.879z M83.321,74.91h3.261v2.953h-3.261V74.91z M90.121,74.922h3.301v2.953h-3.301
V74.922z M96.977,74.941h3.254v2.953h-3.254V74.941z M103.836,75.004h3.328v2.082l-0.504,0.871h-2.824V75.004z M121.777,75.969
l31.852,20.605l-0.02,2.844l-33.156-21.43L121.777,75.969z M119.691,78.379l0.273,0.195l-1.352,2.063l-0.277-0.156L119.691,78.379z
M70.492,78.684h35.747l-1.074,1.809l-34.672-0.051V78.684z M41.141,79.605c0.242-0.016,0.711,0.195,1.441,0.605
c1.758,0.988,2.864,3.066,2.105,3.82c-0.676,0.668-2.258-0.766-3.242-2.809C40.926,80.137,40.789,79.629,41.141,79.605
L41.141,79.605z M104.398,81.391L92.863,99.824c-2.605-3.574-5.527-6.66-11.911-4.57c-3.328-2.574-6.847-2.969-10.589-0.785
l0.042-13.016L104.398,81.391z M45.028,81.398l0.898,0.777c-0.266,0.508-0.387,1.242-0.559,1.898
C45.352,83.176,45.274,82.281,45.028,81.398L45.028,81.398z M118.141,81.59l35.535,23.379v2.168l-36.773-23.695L118.141,81.59z
M40.313,82.121c0.461-0.008,0.91,0.188,1.246,0.594c0.539,0.648,0.316,1.832-0.438,2.336c-1.5,1.008-3.304-0.941-2.113-2.285
C39.383,82.348,39.852,82.129,40.313,82.121L40.313,82.121z M46.196,82.398l1.941,1.555c-3.367,19.207,6.254,38.598,26.977,44.41
l0.238,2.461c0.039,0.117-8.805-2.629-12.668-5.516c-5.281-3.574-9.746-8.605-12.82-14.457c-0.184-0.348-0.399-0.746-0.477-0.879
c-0.922-1.621-2.543-6.078-3.035-8.336c-0.172-0.793-0.391-1.727-0.485-2.07c-0.269-0.988-0.793-8.664-0.679-10.02
C45.539,85.246,46.196,82.398,46.196,82.398L46.196,82.398z M43.992,85.004c0.747,0.031,0.825,0.566,0.227,1.598
c-0.766,1.324-1.918,2.246-3.785,3.031c-1.028,0.434-1.297,0.234-1.176-0.859c0.176-1.652,1.324-2.859,3.313-3.496
C43.047,85.145,43.528,85,43.992,85.004L43.992,85.004z M49.707,85.211c0.301,0.258,0.399,0.34,0.77,0.652
c-0.637,0.219-1.098,0.82-1.098,1.531c0,0.895,0.727,1.621,1.621,1.621c0.801,0,1.465-0.582,1.594-1.348
c0.289,0.25,0.562,0.48,0.773,0.664c-0.375,0.945-1.293,1.609-2.367,1.609c-1.406,0-2.547-1.141-2.547-2.547
C48.453,86.461,48.957,85.656,49.707,85.211L49.707,85.211z M51,86.488c0.09,0,0.176,0.016,0.254,0.039
c0.203,0.172,0.367,0.313,0.563,0.48c0.058,0.117,0.089,0.246,0.089,0.387c0,0.5-0.406,0.906-0.906,0.906s-0.906-0.406-0.906-0.906
S50.5,86.488,51,86.488L51,86.488z M44.887,87.074c-0.211,2.477-0.145,5.066-0.066,7.66c-0.481-2.055-1.547-3.594-3.325-4.645
C42.723,89.242,44.008,88.211,44.887,87.074L44.887,87.074z M54.223,89.02l1.726,1.488c-1.484,20.336,16.336,28.051,16.817,27.711
l0.75,2.301C61.211,116.332,52.703,103.613,54.223,89.02L54.223,89.02z M153.48,137.766l-0.09,2.559
c-13.965-5.418-29.879-25.406-29.676-44.559c-3.586,5.496-5.598,9.164-8.676,14.117l-2.449-1.168
c4.027-6,7.859-12.422,11.898-18.316c0.461-0.668,0.836-0.973,0.855,0.484C125.344,97.473,127.387,124.582,153.48,137.766
L153.48,137.766z M39.949,90.605c0.45-0.027,1.09,0.191,1.903,0.734c1.277,0.855,2.707,3.5,2.211,4.09
c-0.446,0.531-2.336-0.102-3.278-1.094C38.922,92.363,38.801,90.68,39.949,90.605L39.949,90.605z M50.836,90.871
c1.406,0,2.547,1.141,2.547,2.543c0,1.406-1.141,2.547-2.547,2.547c-1.406,0-2.547-1.141-2.547-2.547
C48.289,92.012,49.43,90.871,50.836,90.871L50.836,90.871z M56.535,91.113l1.664,1.949c0.325,17.066,13.793,22.328,13.668,22.371
l0.407,1.836C71.524,117.371,55.61,110.129,56.535,91.113L56.535,91.113z M50.836,91.797c-0.894,0-1.621,0.723-1.621,1.617
s0.727,1.621,1.621,1.621c0.895,0,1.621-0.727,1.621-1.621S51.731,91.797,50.836,91.797L50.836,91.797z M50.836,92.508
c0.5,0,0.906,0.406,0.906,0.906c0,0.504-0.406,0.91-0.906,0.91s-0.906-0.406-0.906-0.91C49.93,92.914,50.336,92.508,50.836,92.508
L50.836,92.508z M59.442,94.055c0.207,0,1.168,1.395,1.168,1.395s-1.055,0.371-1.512-0.09
C58.649,94.902,58.891,94.051,59.442,94.055L59.442,94.055z M133.199,94.684l2.496,1.703c1.164,11.516,7.762,22.02,17.707,29.305
l-0.063,2.852C141.223,120.355,134.5,109.234,133.199,94.684L133.199,94.684z M39.684,94.879c0.039-0.004,0.082,0,0.121,0
c1.527,0.023,2.172,2.371,0.539,3.043c-1.027,0.422-2.145-0.188-2.254-1.23c-0.078-0.738,0.469-1.523,1.215-1.742
C39.434,94.91,39.559,94.887,39.684,94.879L39.684,94.879z M60.512,96.414c0.398,0.004,0.836,0.234,1.246,0.699
c1.098,1.234,1.086,1.594-0.07,2.063c-1.625,0.656-2.973-0.258-2.434-1.652C59.539,96.789,59.996,96.414,60.512,96.414
L60.512,96.414z M43.879,96.477c0.133-0.004,0.258,0.012,0.367,0.059c1.2,0.465-1.394,5.219-3.113,5.703
c-1.09,0.305-1.316-0.121-0.961-1.789C40.567,98.594,42.606,96.5,43.879,96.477L43.879,96.477z M51.516,96.586
c1.406,0,2.547,1.137,2.547,2.543c0,1.402-1.141,2.547-2.547,2.547c-1.402,0-2.547-1.145-2.547-2.547
C48.969,97.723,50.114,96.586,51.516,96.586L51.516,96.586z M51.516,97.508c-0.895,0-1.617,0.727-1.617,1.621
s0.722,1.617,1.617,1.617c0.894,0,1.621-0.723,1.621-1.617S52.41,97.508,51.516,97.508L51.516,97.508z M45.153,97.645
c0.226,2.355,0.609,4.535,1.652,7.434c-0.981-1.57-2.379-2.348-3.719-3.234C44.028,100.441,45.114,99.043,45.153,97.645
L45.153,97.645z M51.516,98.219c0.504,0,0.91,0.406,0.91,0.91c0,0.5-0.406,0.906-0.91,0.906c-0.5,0-0.906-0.406-0.906-0.906
C50.61,98.625,51.016,98.219,51.516,98.219L51.516,98.219z M65.93,98.496c2.656-0.055,4.531,2.133,4.418,4.227
c0.074,2.434,0.164,3.992-0.035,7.016l-2.157-3.949c-0.031-1.117,0.161-1.965,0.075-3.078c-0.246-2.992-3.18-2.578-3.321-2.281
l-0.925-1.508C64.664,98.645,65.317,98.512,65.93,98.496L65.93,98.496z M75.281,98.797c2.493,0,3.934,1.402,4.008,3.895
c0.145,4.773-0.109,15.676-0.109,15.676l-5.383,0.004l-2.937-7.285c0,0-0.118-0.699-0.094-1.207c0.187-2.336,0.07-4.938,0.148-7.047
C71.223,100.594,73.063,98.801,75.281,98.797L75.281,98.797z M62.828,99.555c0.344-0.004,0.668,0.102,0.911,0.348
c1.25,1.262,1.242,2.09-0.024,2.66c-1.672,0.754-2.543,0.609-3.113-0.508C60.039,100.957,61.59,99.57,62.828,99.555L62.828,99.555z
M141.305,99.898l1.367,0.879c0,0-0.289,0.449-0.445,0.715c-0.773,1.336,0.543,2.117,2.367,1.41
c0.332-0.129,0.613-0.309,0.613-0.309l1.125,0.766c0,0-0.813,0.441-1.699,0.875c-2.277,1.113-3.914,0.641-4.461-1.289
c-0.219-0.766,0-1.723,0.426-2.285C140.816,100.375,141.305,99.898,141.305,99.898L141.305,99.898z M83.563,100.059
c2.082-0.07,4.109,1.555,4.59,3.742c0.203,1.027-0.059,14.57-0.059,14.57l-8.266-0.004l0.145-14.211
c-0.055-0.898,0-1.785,0.48-2.422C81.364,100.602,82.469,100.094,83.563,100.059L83.563,100.059z M74.977,100.68
c-1.668,0.078-2.617,2.781-0.899,4.059c0.719,0.531,0.735,0.633,0.348,2.434c-0.437,2.051,0.016,4.867,1.043,6.449
c0.785,1.313,0.625,0.641,0.223-0.527c-0.52-2.191-0.266-3.801,1-6.352c1.132-2.145,2.226-5.441-1.368-6.039
C75.207,100.684,75.09,100.676,74.977,100.68L74.977,100.68z M143.582,101.297l0.746,0.508c0,0-0.109,0.09-0.273,0.25
c-0.297,0.289-0.895,0.336-1.074,0.113C142.676,101.797,143.582,101.297,143.582,101.297L143.582,101.297z M84.031,102.348
c-1.792-0.063-2.976,3.266-0.679,4.07c0.519,0.34,0.609,0.777,0.285,1.402c-0.438,0.836-0.871,2.824-0.805,3.652
c0.098,1.191,0.403,2.746,0.645,3.289c0.601,1.484,0.48,0.891,0.324-0.828c-0.062-1.918,0.324-3.305,1.441-5.141
c1.329-2.199,3.157-5.777-1.035-6.43C84.149,102.352,84.09,102.348,84.031,102.348L84.031,102.348z M53.156,102.359
c1.407,0,2.547,1.137,2.547,2.543s-1.14,2.547-2.547,2.547c-1.406,0-2.546-1.141-2.546-2.547S51.75,102.359,53.156,102.359
L53.156,102.359z M64.961,102.617c0.438-0.004,0.77,0.289,1.168,0.883c1.098,1.641,0.973,1.977-1.144,3.141
c-2.246,1.238-3.75-1.871-1.602-3.309c0.648-0.434,1.109-0.676,1.484-0.711C64.899,102.617,64.93,102.617,64.961,102.617
L64.961,102.617z M41.649,102.738c2.371,0.023,6.07,3.406,4.265,3.895c-0.258,0.07-0.582,0.121-0.718,0.109
C42.219,106.563,38.809,102.707,41.649,102.738L41.649,102.738z M53.156,103.281c-0.894,0-1.621,0.727-1.621,1.621
s0.727,1.617,1.621,1.617c0.895,0,1.622-0.723,1.622-1.617S54.051,103.281,53.156,103.281L53.156,103.281z M146.969,103.758
l1.184,0.805c0,0-0.723,0.332-1.574,0.785c-2.309,1.234-2.98,2.141-2.184,2.945c0.285,0.289,0.621,0.414,1.23,0.184
c1.602-0.621,3.094-1.715,4.586-2.582l0.891,0.609c-0.02-0.039-3.531,2.5-5.449,3.566c-3.012,1.543-4.73-1.617-3.055-3.727
C143.887,105.059,145.273,104.641,146.969,103.758L146.969,103.758z M53.156,103.992c0.5,0,0.907,0.406,0.907,0.91
c0,0.5-0.407,0.906-0.907,0.906s-0.906-0.406-0.906-0.906C52.25,104.398,52.656,103.992,53.156,103.992L53.156,103.992z
M148.816,104.844l0.645,0.434c0,0-0.07,0.031-2.043,1.164c-2.145,1.234-2.238,1.258-2.359,1.063
c-0.105-0.059,0.043-0.563,0.703-1.008C146.914,105.723,148.957,104.777,148.816,104.844L148.816,104.844z M92.977,104.906
c1.465-0.027,2.953,0.664,3.805,2.152c0.434,1.125,0.469,2.176,0.465,3.359l-0.035,7.953h-8.324c0,0-0.387-5.422,0-9.934
C89.262,106.172,91.098,104.941,92.977,104.906L92.977,104.906z M67.121,106.082c0.532-0.039,0.918,0.48,1.422,1.605
c0.496,1.113,0.121,1.742-1.441,2.418c-0.196,0.086-0.422,0.148-0.5,0.141c-1.578-0.152-2.227-1.973-1.09-3.078
C66.215,106.48,66.711,106.113,67.121,106.082L67.121,106.082z M151.734,106.898l0.723,0.449c0,0-0.371,0.336-3.059,2.297
c-2.172,1.582-2.484,2.012-2.031,2.902c0.367,0.715,1.16,0.621,2.258-0.219c1.523-1.172,3.918-3.152,3.918-3.152l0.078,1.355
c-1.578,1.266-3.48,3.426-4.992,4.25c-2.922,1.438-5.02-2.516-2.348-4.461C148.582,108.641,151.734,106.898,151.734,106.898
L151.734,106.898z M93.293,106.902c-2.176-0.02-2.984,3.211-0.645,3.895c0.676,0.359,0.617,0.547,0.168,2.156
c-0.27,0.973-0.359,2.176-0.211,2.938c0.176,0.973,0.391,0.949,0.301-0.094c0.004-0.57,0.594-2.094,1.18-3.051
C96.254,109.719,95.688,106.93,93.293,106.902L93.293,106.902z M42.594,106.941c1.434,0.008,2.238,2.008,0.992,2.871
c-0.883,0.609-2.726-0.137-2.722-1.102c0.003-0.82,0.652-1.605,1.437-1.742C42.403,106.949,42.496,106.938,42.594,106.941
L42.594,106.941z M46.723,107.109c0.453-0.004,0.715,0.66,0.711,1.969c-0.008,1.883-0.672,3.52-1.824,4.477
c-1.664,1.387-2.039-2.391-0.481-4.891C45.778,107.625,46.324,107.109,46.723,107.109L46.723,107.109z M153.262,107.605
c0.41-0.008,0.344,0.309-0.129,0.637c-0.371,0.258-0.996,0.77-2.938,2.406c-0.352,0.297-0.855,0.684-1.117,0.859
c-0.645,0.434-1.191,0.32-0.879-0.18C148.508,110.836,152.891,107.609,153.262,107.605L153.262,107.605z M55.699,107.691
c1.407,0,2.547,1.137,2.547,2.543s-1.14,2.547-2.547,2.547c-1.406,0-2.546-1.141-2.546-2.547S54.293,107.691,55.699,107.691
L55.699,107.691z M55.699,108.613c-0.894,0-1.621,0.727-1.621,1.621s0.727,1.617,1.621,1.617c0.895,0,1.622-0.723,1.622-1.617
S56.594,108.613,55.699,108.613L55.699,108.613z M25.242,108.66c17.227,8.711,27.965,25.004,30.614,43.563l8.367-13.273l2.262,0.852
l-12.196,19.875l-0.527-0.164c-0.051-19.414-9.727-37.781-28.559-47.863L25.242,108.66z M55.699,109.324
c0.5,0,0.907,0.41,0.907,0.91s-0.407,0.906-0.907,0.906s-0.906-0.406-0.906-0.906S55.199,109.324,55.699,109.324L55.699,109.324z
M48.59,109.434c0.754,1.664,1.672,3.41,3.086,5.41c-1.434-1.352-3.004-1.293-4.559-1.496L48.59,109.434z M69.071,109.793
c0.269-0.016,0.535,0.098,0.742,0.387c0.707,0.969,0.836,1.867,0.347,2.352c-0.671,0.664-1.742,0.402-2.222-0.543
C67.434,111.004,68.27,109.832,69.071,109.793L69.071,109.793z M153.543,111.137l0.027,1.508c0,0-0.32,0.387-0.664,0.703
c-0.957,0.898-2.27,2.332-2.363,2.695c-0.305,1.188,0.867,1.625,2.023,0.75c0.402-0.301,0.977-0.758,0.977-0.758v1.855
c-0.977,0.828-1.949,1.645-3.285,1.375c-0.773-0.234-1.457-0.848-1.598-1.625c-0.559-2.336,1.707-3.641,3.461-5.203
C152.688,111.934,153.543,111.137,153.543,111.137L153.543,111.137z M59.285,112.453c0.043-0.004,0.086,0,0.129,0
c1.407,0,2.547,1.137,2.547,2.543s-1.14,2.547-2.547,2.547c-1.402,0-2.547-1.141-2.547-2.547
C56.867,113.633,57.942,112.52,59.285,112.453L59.285,112.453z M110.426,113.023c1.387-0.004,2.121,1.863,1.004,2.922
c-0.438,0.418-1.43,0.711-1.988,0.32C107.895,115.188,109.031,113.094,110.426,113.023L110.426,113.023z M107.656,114.504
c0.805,0.855,1.41,3.328,0.938,3.797c-1.047,1.082-4.086-2.516-3.906-4.863C105.012,112.031,107.359,114.191,107.656,114.504
L107.656,114.504z M70.438,113.156c0.578,0.004,0.687,0.523,0.558,0.832c-0.125,0.293-0.582,0.316-0.945,0.168
C69.438,113.906,69.727,113.152,70.438,113.156L70.438,113.156z M59.414,113.375c-0.894,0-1.617,0.727-1.617,1.621
s0.723,1.617,1.617,1.617c0.895,0,1.621-0.723,1.621-1.617S60.309,113.375,59.414,113.375L59.414,113.375z M47.293,114.086
c3.071,0.004,6.309,2.426,3.492,2.902c-2.093,0.359-3.449-0.055-5.078-1.543c-0.828-0.758-0.531-1.16,0.973-1.328
C46.883,114.098,47.086,114.086,47.293,114.086L47.293,114.086z M59.414,114.086c0.504,0,0.91,0.406,0.91,0.91
c0,0.5-0.406,0.906-0.91,0.906c-0.5,0-0.906-0.406-0.906-0.906C58.508,114.492,58.914,114.086,59.414,114.086L59.414,114.086z
M63.668,116.391c0.043,0,0.09,0,0.133,0c1.406,0,2.547,1.137,2.547,2.543s-1.141,2.547-2.547,2.547s-2.547-1.141-2.547-2.547
C61.254,117.574,62.324,116.461,63.668,116.391L63.668,116.391z M113.715,116.52c0.727-0.012,1.367,0.125,1.734,0.461
c0.449,0.414-0.227,1.207-1.609,1.879c-1.613,0.789-4.426,0.68-4.422-0.172C109.422,117.559,111.859,116.551,113.715,116.52
L113.715,116.52z M52.406,117.191c1.411,0.004,1.793,4.383,0.567,6.48c-0.637,1.09-1.492,0.359-2.106-1.789
C50.367,120.121,51.328,117.184,52.406,117.191L52.406,117.191z M63.801,117.316c-0.895,0-1.621,0.723-1.621,1.617
s0.726,1.621,1.621,1.621s1.621-0.727,1.621-1.621S64.696,117.316,63.801,117.316L63.801,117.316z M116.57,117.602
c0.121,0,0.273,0.063,0.477,0.16c1.539,0.754,2.66,4.289,1.855,5.863c-0.844,1.66-2.746-1.535-2.73-4.586
c0.008-0.996,0.07-1.398,0.348-1.434C116.535,117.602,116.555,117.602,116.57,117.602L116.57,117.602z M48.403,117.828
c0.031-0.004,0.066-0.004,0.097,0c1.395,0.035,2.406,1.961,1.098,2.949c-0.574,0.434-1.457,0.5-2,0.156
c-1.07-0.68-1.012-2.332,0.101-2.91C47.938,117.898,48.176,117.836,48.403,117.828L48.403,117.828z M63.801,118.027
c0.5,0,0.906,0.406,0.906,0.906s-0.406,0.91-0.906,0.91s-0.906-0.41-0.906-0.91S63.301,118.027,63.801,118.027L63.801,118.027z
M54.285,118.332c0.766,1.137,3.856,4.129,4.282,4.391c-1.364-0.441-2.77-0.254-4.176-0.066
C54.551,121.617,54.719,119.918,54.285,118.332L54.285,118.332z M103.938,118.59c20.941,4.902,33.727,27.124,28.672,47.973
c0,0-1.766-0.984-2.043-1.457c0.738-3.605,1.195-9.32,0.27-15.066c-1.574-9.746-9.473-24.043-26.777-28.949
C103.867,120.461,103.938,118.59,103.938,118.59L103.938,118.59z M115.219,118.742c0.238,1.426,0.465,2.863,0.816,4.145
c-1.473-1.059-3.145-1.969-4.855-2.707C112.402,119.926,113.516,119.707,115.219,118.742L115.219,118.742z M121.258,119.199
c0.836-0.02,1.684,0.574,1.664,1.602c-0.008,0.453-0.492,1.266-0.863,1.453c-1.395,0.711-2.82-0.641-2.207-2.086
C120.125,119.52,120.688,119.215,121.258,119.199L121.258,119.199z M68.645,119.754c1.406,0,2.547,1.137,2.547,2.539
c0,1.406-1.141,2.547-2.547,2.547c-1.406,0-2.547-1.141-2.547-2.547C66.098,120.891,67.239,119.754,68.645,119.754L68.645,119.754z
M68.645,120.676c-0.895,0-1.621,0.727-1.621,1.617c0,0.895,0.726,1.621,1.621,1.621c0.894,0,1.621-0.727,1.621-1.621
C70.266,121.402,69.539,120.676,68.645,120.676L68.645,120.676z M25.309,120.918c10.406,6.141,19.742,19.203,20.433,33.973
l-2.519-1.648c-1.086-9.946-6.18-20.77-17.996-29.645C25.227,123.598,25.258,122.641,25.309,120.918L25.309,120.918z M82.93,120.918
h13.453v2.898l4.031-2.078v6.414l-4.031-2.441v2.796H82.93v-2.94l-4.117,1.992l0.047-6.383l4.07,2.289V120.918z M68.645,121.387
c0.5,0,0.906,0.406,0.906,0.906c0,0.504-0.406,0.91-0.906,0.91s-0.906-0.406-0.906-0.91
C67.739,121.793,68.145,121.387,68.645,121.387L68.645,121.387z M73.934,121.895c0.015,0,0.035,0,0.051,0l0.16,0.926
c-0.028-0.004-0.051-0.004-0.078-0.004c-0.895,0-1.621,0.723-1.621,1.617s0.726,1.621,1.621,1.621c0.214,0,0.422-0.039,0.609-0.117
l0.156,0.926c-0.242,0.078-0.496,0.117-0.765,0.117c-1.407,0-2.547-1.141-2.547-2.547C71.52,123.074,72.59,121.965,73.934,121.895
L73.934,121.895z M104.316,122.215c0.043,0,0.086,0,0.133,0c1.406,0,2.547,1.141,2.547,2.543c0,1.207-0.844,2.215-1.973,2.477
l-0.152-0.914c0.688-0.188,1.195-0.813,1.195-1.563c0-0.895-0.723-1.617-1.617-1.617c-0.039,0-0.074,0-0.109,0.004l-0.156-0.918
C104.227,122.223,104.27,122.219,104.316,122.215L104.316,122.215z M122.176,123.078c3.141,0.016,4.441,1.82,1.867,2.586
c-1.191,0.355-2.75,0.164-4.293-0.516C118.465,124.578,120.234,123.066,122.176,123.078L122.176,123.078z M56.524,123.25
c0.761-0.004,1.496,0.113,2.039,0.371c1.313,0.621,1.281,1.043-0.121,1.855c-1.957,1.129-6.571-0.016-5.176-1.285
C53.922,123.598,55.258,123.254,56.524,123.25L56.524,123.25z M74.067,123.527c0.07,0,0.136,0.008,0.203,0.023l0.281,1.652
c-0.141,0.086-0.305,0.141-0.484,0.141c-0.5,0-0.907-0.406-0.907-0.91C73.16,123.934,73.567,123.527,74.067,123.527L74.067,123.527z
M104.457,123.852c0.496,0.004,0.898,0.41,0.898,0.906c0,0.398-0.254,0.73-0.605,0.855L104.457,123.852z M109.996,124.5
c1.406,0,2.547,1.141,2.547,2.543c0,1.406-1.141,2.546-2.547,2.546s-2.547-1.14-2.547-2.546
C107.449,125.641,108.59,124.5,109.996,124.5L109.996,124.5z M60.418,125.145c0.149-0.012,0.321,0.059,0.504,0.211
c1.527,1.246,2.285,3.887,1.688,5.852c-0.575,1.875-2.954-1.454-2.942-4.109C59.676,125.875,59.965,125.168,60.418,125.145
L60.418,125.145z M126.355,125.367c0.211,0,0.434,0.16,0.652,0.527c0.949,1.578,0.906,4.836-0.078,5.852
c-0.555,0.578-0.762,0.468-1.344-0.707C124.594,129.031,125.344,125.359,126.355,125.367L126.355,125.367z M109.996,125.426
c-0.895,0-1.621,0.723-1.621,1.617s0.727,1.621,1.621,1.621s1.621-0.727,1.621-1.621S110.891,125.426,109.996,125.426
L109.996,125.426z M62.442,125.859c1.922,1.215,3.89,2.32,5.937,3.242c-1.918-0.453-3.332,0.191-4.793,1.059
C63.867,128.555,63.321,127.253,62.442,125.859L62.442,125.859z M120.223,126.203c1.434,0.199,2.852,0.438,4.516,0.125
c-0.309,1.406-0.418,2.843-0.281,4.313C123.223,129.039,121.84,127.535,120.223,126.203L120.223,126.203z M109.996,126.136
c0.5,0,0.906,0.408,0.906,0.907c0,0.503-0.406,0.91-0.906,0.91s-0.906-0.407-0.906-0.91
C109.09,126.544,109.496,126.136,109.996,126.136L109.996,126.136z M57.489,126.762c0.281,0.008,0.582,0.086,0.894,0.238
c1.18,0.578,1.211,2.007,0.066,2.753c-1.441,0.942-3.32-0.707-2.421-2.121c0.343-0.547,0.808-0.836,1.339-0.866
C57.406,126.766,57.446,126.762,57.489,126.762L57.489,126.762z M115.105,127.828c1.406,0,2.547,1.136,2.547,2.543
c0,1.402-1.141,2.547-2.547,2.547s-2.547-1.145-2.547-2.547C112.559,128.964,113.699,127.828,115.105,127.828L115.105,127.828z
M130.004,128.253c0.242-0.003,0.5,0.052,0.754,0.185c0.906,0.473,1.094,1.676,0.375,2.379c-0.797,0.777-1.887,0.644-2.422-0.297
C128.098,129.445,128.938,128.273,130.004,128.253L130.004,128.253z M105.438,128.628c12.535,4.267,20.93,18.211,18.906,31.638
l-1.563-1.477c1.191-7.609-2.988-22.148-16.949-28.114L105.438,128.628z M115.105,128.75c-0.895,0-1.621,0.727-1.621,1.621
s0.727,1.617,1.621,1.617s1.621-0.723,1.621-1.617S116,128.75,115.105,128.75L115.105,128.75z M115.105,129.46
c0.5,0,0.906,0.407,0.906,0.911c0,0.5-0.406,0.906-0.906,0.906s-0.906-0.406-0.906-0.906
C114.199,129.867,114.605,129.46,115.105,129.46L115.105,129.46z M67.442,129.621c0.64,0.059,1.718-0.059,1.972,0.547
c0.285,0.762-1.277,2.078-3.261,2.335c-0.809,0.052-2.539,0.254-2.903-0.328C62.906,131.449,65.242,129.645,67.442,129.621
L67.442,129.621z M27.649,130.07c1.695-0.078,3.605,2.191,1.89,4.039c-1.375,1.422-4.183,3.354-4.183,3.354v-1.241
c0,0,2.754-2.016,2.797-2.918c0.007-1.055-0.86-1.645-1.825-1.016c-0.191,0.125-0.949,0.742-0.949,0.742l0.063-2.086
C25.953,130.382,26.86,130.102,27.649,130.07L27.649,130.07z M70.938,130.602c1.254,0.047,4.168,4.539,3.426,5.457
c-0.586,0.727-2.954-0.888-3.84-2.621c-0.477-0.935-0.336-2.594,0.242-2.81C70.817,130.609,70.875,130.598,70.938,130.602
L70.938,130.602z M90.309,131.145c0,0,0.129,10.449-0.457,11.434c-2.356,4.261-7.438,2.047-7.871-1.148
c-0.313-1.927-0.125-10.266-0.125-10.266L90.309,131.145z M91.055,131.145h8.121c0,0-0.039,14.707-0.363,15.551
c-0.27,0.687-1.449,1.871-2.188,2.195c-2.387,1.043-4.938-0.438-5.566-3.227C90.602,143.648,91.055,131.145,91.055,131.145
L91.055,131.145z M99.855,131.145h5.391c0,0,0.184,0.781,0.398,1.418c0.375,1.121,1.645,4.324,1.793,4.52
c0.656,0.878,0.691,10.492,0.039,11.589c-2.379,3.563-6.336,2.528-7.781-1.421C99.332,145.984,99.855,131.145,99.855,131.145
L99.855,131.145z M106.141,131.507c9.672,4.595,17.07,14.332,16.145,26.825l-1.777-1.77c0.648-8.625-5.918-19.406-13.578-22.609
L106.141,131.507z M119.457,131.8c1.402,0,2.547,1.138,2.547,2.544s-1.145,2.547-2.547,2.547c-1.406,0-2.547-1.141-2.547-2.547
S118.051,131.8,119.457,131.8L119.457,131.8z M128.992,132.059c0.945,0.016,2.102,0.34,2.965,1.055
c1.035,0.851,1.18,1.523,0.379,1.769c-1.551,0.481-3.406,0.017-4.574-1.132C126.676,132.68,127.609,132.039,128.992,132.059
L128.992,132.059z M119.457,132.727c-0.895,0-1.621,0.723-1.621,1.617s0.727,1.62,1.621,1.62s1.617-0.726,1.617-1.62
S120.352,132.727,119.457,132.727L119.457,132.727z M68.512,132.93c1.355,0.004,1.977,1.914,0.937,2.883
c-0.425,0.395-1.589,0.48-2.097,0.151C65.961,135.059,66.778,132.918,68.512,132.93L68.512,132.93z M86.442,133.414
c-0.45,1.289-1.172,2.746-1.77,3.742c-1.601,2.672-1.391,4.461,0.297,5.363c2.484,1.328,4.285-2.234,1.84-3.633
c-0.86-0.492-0.86-0.496-0.547-1.82C86.649,135.418,86.715,133.449,86.442,133.414L86.442,133.414z M119.457,133.438
c0.5,0,0.906,0.406,0.906,0.906s-0.406,0.909-0.906,0.909c-0.504,0-0.91-0.409-0.91-0.909S118.953,133.438,119.457,133.438
L119.457,133.438z M95.145,133.96c-0.113-0.007-0.027,0.657-0.035,1.836c-0.012,1.903-0.172,2.481-1.387,5.032
c-1.555,3.254-1.348,5.48,0.578,6.203c1.496,0.558,2.949-0.582,2.957-2.328c0.004-0.832-0.367-1.48-0.934-1.648
c-0.516-0.035-1.086-0.273-1.047-0.523C95.594,140.585,97.277,136.926,95.145,133.96L95.145,133.96z M127.266,134.223
c1.254,0.793,2.547,1.543,4.418,1.637c-0.797,1.91-0.715,3.309-0.848,4.832C130.035,138.637,128.801,136.367,127.266,134.223
L127.266,134.223z M31.371,134.52c0.098,0,0.2,0.008,0.301,0.02c1.199,0.188,2.215,1.727,1.891,2.871
c-0.282,1-0.367,1.172-4.235,3.754c-2.148,1.434-2.371,1.492-2.371,1.492l-1.152-0.774c0,0,0.976-0.647,2.516-1.687
c2.968-1.992,3.406-2.469,3.101-3.36c-0.332-0.968-1.445-0.765-3.199,0.586c-2.598,2-2.867,2.134-2.867,2.134v-1.191
c0,0,1.14-0.906,1.633-1.332C28.192,136.176,29.856,134.535,31.371,134.52L31.371,134.52z M108.207,135.039
c0.293,0,0.516,0.27,0.414,0.531c-0.047,0.121-0.219,0.203-0.445,0.203c-0.465-0.004-0.488-0.664-0.027-0.73
C108.168,135.043,108.188,135.039,108.207,135.039L108.207,135.039z M134.281,136.43c0.551,1.883-0.629,5.02-1.355,5.422
c-0.77,0.762-1.25,0.035-1.418-1.938C131.512,138.316,133.344,133.32,134.281,136.43L134.281,136.43z M103.363,135.375
c0.238,2.71,0.324,4.96-0.949,7.164c-1.648,2.855-1.223,5.305,0.543,5.848c1.758,0.534,3.313-0.723,3-2.43
c-0.094-0.523-0.813-1.379-1.25-1.493c-0.543-0.136-0.605-0.472-0.297-1.55c0.594-2.082,0.395-4.719-0.504-6.625
C103.82,136.003,103.492,135.363,103.363,135.375L103.363,135.375z M109.281,136.277c1.48,0.008,2.18,1.937,1.07,2.953
c-0.617,0.565-1.012,0.309-1.66-1.078C108.094,136.863,108.277,136.273,109.281,136.277L109.281,136.277z M123.09,136.671
c1.406,0,2.547,1.138,2.547,2.543c0,1.407-1.141,2.548-2.547,2.548s-2.547-1.141-2.547-2.548
C120.543,137.809,121.684,136.671,123.09,136.671L123.09,136.671z M123.09,137.594c-0.895,0-1.621,0.727-1.621,1.62
c0,0.896,0.727,1.621,1.621,1.621s1.621-0.726,1.621-1.621C124.711,138.32,123.984,137.594,123.09,137.594L123.09,137.594z
M123.09,138.309c0.5,0,0.906,0.405,0.906,0.905s-0.406,0.907-0.906,0.907s-0.906-0.407-0.906-0.907S122.59,138.309,123.09,138.309
L123.09,138.309z M112.164,138.977c0.207-0.008,0.41,0.026,0.598,0.117c1.34,0.648,1.195,2.508-0.285,3.613
c-0.938,0.703-1.332,0.461-2.207-1.352C109.797,140.371,111.039,139.023,112.164,138.977L112.164,138.977z M34.406,139.188
c0.137,0.004,0.262,0.022,0.387,0.059c1.383,0.379,2.258,1.992,1.914,3.218c-0.765,1.892-3.347,2.528-5.304,3.321l-1.02-0.746
c0,0,1.438-0.816,2.832-1.457c1.309-0.602,1.52-0.844,1.422-1.602c-0.191-1.48-0.906-1.43-4.156,0.319
c-1.321,0.712-2.293,1.345-2.293,1.345l-0.719-0.59c1.074-0.711,1.719-1.102,2.895-1.902c1.96-1.344,3.082-1.922,3.902-1.961
C34.313,139.188,34.36,139.188,34.406,139.188L34.406,139.188z M137.707,140.285c0.473,1.438-0.492,2.699-1.945,2.133
c-0.789-0.305-1.348-1.316-0.855-2.25C135.559,139.145,137.391,139.32,137.707,140.285L137.707,140.285z M108.555,139.785
l2.289,4.113c0,0,0.031,1.145,0.051,1.781c0.09,2.668,0.66,3.551,2.223,3.293c0.113-0.02,0.668-0.18,0.668-0.18l0.996,1.671
c0,0-1.074,0.474-1.355,0.532c-1.84,0.382-4.387-0.996-4.785-2.848C108.258,146.363,108.555,139.785,108.555,139.785
L108.555,139.785z M33.582,141.477c0.692,0.051,0.399,0.578,0.078,0.75c-1.343,0.684-2.613,1.43-4.015,2.237l-0.942-0.582
c0,0,0.727-0.405,1.227-0.711C31.469,142.227,33.035,141.5,33.582,141.477L33.582,141.477z M125.559,142.003
c1.406,0,2.547,1.138,2.547,2.543c0,1.407-1.141,2.548-2.547,2.548s-2.547-1.141-2.547-2.548
C123.012,143.141,124.152,142.003,125.559,142.003L125.559,142.003z M114.785,142.352c0.586-0.017,1.074,0.233,1.391,0.766
c0.68,1.129-0.039,2.508-1.688,3.242c-0.922,0.41-1.078,0.324-2.059-1.133c-0.664-0.984-0.66-1.16,0.074-1.785
C113.328,142.738,114.121,142.371,114.785,142.352L114.785,142.352z M25.403,142.574l36.472,23.617l-1.039,1.769l-35.363-23.147
L25.403,142.574z M133.777,142.878c2.215,0.043,5.109,2.61,4.086,3.625c-0.109,0.106-0.32,0.188-0.473,0.181
C134.23,146.496,130.734,142.824,133.777,142.878L133.777,142.878z M125.559,142.926c-0.895,0-1.621,0.727-1.621,1.62
c0,0.896,0.727,1.622,1.621,1.622s1.621-0.727,1.621-1.622C127.18,143.652,126.453,142.926,125.559,142.926L125.559,142.926z
M76.848,143.378l0.965,2.513L59.66,174.789l-1.781-1.148L76.848,143.378z M125.559,143.641c0.5,0,0.906,0.405,0.906,0.905
s-0.406,0.907-0.906,0.907s-0.906-0.407-0.906-0.907S125.059,143.641,125.559,143.641L125.559,143.641z M132.223,143.941
c0.891,1.652,2.371,2.664,4.055,3.375c-1.59,1.312-2.391,3.016-2.328,4.793C133.547,149.438,133.199,146.781,132.223,143.941
L132.223,143.941z M36.262,144.813c0.391,0.004,0.742,0.086,1.019,0.272c3.403,2.333,0.278,4.638-0.011,4.458l-1.16-0.73
c0.398-0.66,1.304-1.556-0.153-2.392c-0.824-0.358-1.742,0.071-2.547,0.63l-1.214-0.832
C32.196,146.219,34.578,144.801,36.262,144.813L36.262,144.813z M116.484,146.132c0.129-0.004,0.254,0.005,0.379,0.028
c1.918,0.371,1.785,2.406-0.223,3.352c-1.141,0.539-1.34,0.43-2.336-1.281C113.836,147.426,115.246,146.171,116.484,146.132
L116.484,146.132z M35.649,146.878c0.203,0.004,0.465,0.185,0.496,0.353c0.101,0.535-0.891,1.074-0.891,1.074l-1.137-0.759
C34.602,147.281,35.11,146.918,35.649,146.878L35.649,146.878z M137.949,147.367c0.277-0.02,0.48,0.109,0.563,0.441
c0.391,1.586-1.371,4.52-2.992,4.996c-0.949,0.28-1.223-0.168-0.914-1.477C135.043,149.484,136.953,147.445,137.949,147.367
L137.949,147.367z M79.117,147.488l2.954,2.144l-17.723,28.013l-3.067-1.824L79.117,147.488z M127.344,147.714
c1.402,0,2.547,1.138,2.547,2.543c0,1.407-1.145,2.548-2.547,2.548c-1.406,0-2.547-1.141-2.547-2.548
C124.797,148.852,125.938,147.714,127.344,147.714L127.344,147.714z M127.344,148.641c-0.895,0-1.621,0.723-1.621,1.616
c0,0.896,0.727,1.621,1.621,1.621s1.617-0.726,1.617-1.621C128.961,149.363,128.238,148.641,127.344,148.641L127.344,148.641z
M127.344,149.352c0.5,0,0.906,0.405,0.906,0.905c0,0.505-0.406,0.911-0.906,0.911c-0.504,0-0.91-0.406-0.91-0.911
C126.434,149.757,126.84,149.352,127.344,149.352L127.344,149.352z M86.621,149.445c1.922,2.168,4.083,7.015,11.625,4.73
c2.57,2.094,6.121,3.284,10.492,0.961l0.031,13.066l-33.492,0.035L86.621,149.445z M25.449,149.777l32.985,21.711l-1.031,1.82
l-31.985-20.441L25.449,149.777z M118.047,149.796c0.031,0,0.059,0.004,0.082,0.009c1.688,0.414,1.875,2.098,0.309,2.741
c-0.84,0.349-1.012,0.263-1.813-0.918c-0.316-0.472-0.496-0.858-0.453-0.979C116.285,150.363,117.574,149.793,118.047,149.796
L118.047,149.796z M139.211,151.582c0.59,0.003,1.176,0.316,1.453,0.93c0.41,0.922,0.172,1.698-0.68,2.211
c-1.406,0.848-2.984-0.711-2.25-2.23C138.027,151.882,138.621,151.578,139.211,151.582L139.211,151.582z M118.559,153.355
c0.777,0.004,1.43,0.746,1.055,1.195c-0.254,0.301-0.574,0.215-0.988-0.262C118.141,153.73,118.113,153.352,118.559,153.355
L118.559,153.355z M128.016,153.68c1.406,0,2.547,1.137,2.547,2.543c0,1.402-1.141,2.547-2.547,2.547s-2.547-1.145-2.547-2.547
C125.469,154.816,126.609,153.68,128.016,153.68L128.016,153.68z M135.191,153.82c1.918,0.008,4.578,3.215,4.125,4.976
c-0.145,0.575-1.223,0.263-2.504-0.722C135.086,156.746,133.965,153.813,135.191,153.82L135.191,153.82z M128.016,154.602
c-0.895,0-1.621,0.727-1.621,1.621s0.727,1.616,1.621,1.616s1.617-0.722,1.617-1.616S128.91,154.602,128.016,154.602
L128.016,154.602z M134.184,154.93c0.531,1.555,1.074,3.168,3.469,4.293c-3.715,1.73-4.426,4.645-3.867,8.379l-0.867-0.531
C133.711,163.723,134.316,159.91,134.184,154.93L134.184,154.93z M128.016,155.313c0.5,0,0.906,0.406,0.906,0.91
c0,0.5-0.406,0.905-0.906,0.905s-0.906-0.405-0.906-0.905C127.109,155.719,127.516,155.313,128.016,155.313L128.016,155.313z
M127.543,159.402c1.406,0,2.547,1.137,2.547,2.543c0,0.887-0.457,1.672-1.148,2.129l-0.82-0.617
c0.609-0.23,1.039-0.825,1.039-1.512c0-0.896-0.723-1.621-1.617-1.621c-0.852,0-1.547,0.66-1.613,1.496l-0.824-0.617
C125.422,160.16,126.395,159.402,127.543,159.402L127.543,159.402z M139.129,159.727c1.211,0.008-0.672,3.367-2.402,4.285
c-1.316,0.695-2.523,0.75-2.52,0.113C134.219,162.453,137.277,159.714,139.129,159.727L139.129,159.727z M127.543,161.035
c0.5,0,0.906,0.41,0.906,0.91s-0.406,0.906-0.906,0.906c-0.5-0.056-0.902-0.445-0.91-0.906
C126.633,161.445,127.039,161.035,127.543,161.035L127.543,161.035z M138.738,164.102c0.598,0.008,1.188,0.266,1.441,0.77
c0.324,0.652,0.199,1.234-0.398,1.824c-1.465,1.449-3.457-0.039-2.5-1.867C137.543,164.332,138.141,164.089,138.738,164.102
L138.738,164.102z M134.055,165.464c2.039,0.063,3.586,2.603,3.215,4.039c-0.32,0.379-2.57-1.323-2.813-1.5
C134.172,167.496,134.152,166.671,134.055,165.464L134.055,165.464z M131.273,167.039l6.395,3.839l-6.379,4.099L131.273,167.039z
M74.352,168.941l34.336,0.125l0.004,1.44l-35.278,0.021L74.352,168.941z M72.953,171.195h2.305v2.812H72.09v-1.55L72.953,171.195z
M105.945,171.262h2.777v2.816h-2.777V171.262z M78.692,171.281h3.16v2.816h-3.16V171.281z M85.266,171.305h3.418v2.816h-3.418
V171.305z M92.254,171.305h3.285v2.816h-3.285V171.305z M99.273,171.352h3.129v2.816h-3.129V171.352z M70.684,174.82l38.082,0.09
v1.684l-39.172-0.091L70.684,174.82z M103.176,178.371c3.879-0.043,6.137,4.285,3.105,7.324c-2.785,2.793-7.43-0.774-5.113-3.918
c1.297-1.754,4.48-0.34,3.688,1.531c-0.523,1.23-2.238,0.655-2.188-0.677c0.004-0.534-0.391-0.172-0.438,0.399
c-0.059,0.722,0.684,1.52,1.547,1.523c2.25,0.004,2.586-2.98,0.418-4.074c-1.938-0.978-3.98,0.27-4.449,2.746
c-0.051,0.27-0.371,0.944-0.613,1.426c-0.719,1.437-0.949,2.269-1.309,3.91c-0.164,0.207-0.668,0.535-1.016,0.707
c-1.105,0.555-1.059,0.319-0.645-1.477c1.191-5.18,3.137-8.516,5.52-9.195C102.199,178.449,102.699,178.378,103.176,178.371
L103.176,178.371z M114.645,178.641c2.395-0.052,4.195,1.922,4.512,3.444c1.375,4.638-4.781,7.478-6.926,3.274
c-1.199-2.399,1.285-5.266,3.559-4.149c1.863,0.915,1.742,3.754-0.16,3.747c-1.031,0.046-1.66-0.879-1.09-1.625
c0.293-0.293,0.648-0.063,0.797-0.555c0.063-0.207-0.23-0.371-0.934-0.227c-1.168,0.234-1.051,2.59,0.305,3.059
c2.016,0.699,3.742-1.43,2.781-3.531c-1.156-2.532-4.281-2.543-5.707,0.105c-0.211,0.383-0.535,0.934-0.715,1.176
c-2.129,2.894-2.297,3.324-2.934,4.937c-0.063,0.161-0.176,0.282-0.367,0.259c-0.586,0-1.164,0.129-1.559,0.28
c-0.266-0.069,0.09-1.085,0.113-1.16C107.773,183.191,111.504,178.75,114.645,178.641L114.645,178.641z M96.094,179.902
c-0.508,0.879-2.027,3.742-3.082,7.969c-0.277-0.172-1.023-0.484-1.563-0.672c-0.207-0.074-0.039-0.309-0.051-0.668
c0.383-1.906,1.613-5.238,2.973-6.934C94.66,179.382,96.512,179.316,96.094,179.902L96.094,179.902z M98.262,180.746
c-1.301,1.66-2.656,6.074-2.941,8.348c-0.043,0.344-0.105,0.727-0.141,0.848c-0.203,0.68-1.477-0.781-1.469-1.688
c0.008-1.534,1.711-6.218,2.93-8.007c0.422-0.625,0.473-0.727,1.379-0.758C99.477,179.449,98.836,180.016,98.262,180.746
L98.262,180.746z M34.672,179.652c-0.32,0.008-0.641,0.047-0.957,0.125c-1.883,0.465-4.125,2.461-4.344,4.578
c-0.105,0.065-0.359,1.547-0.195,2.297c0.621,2.844,2.281,4.772,4.309,7.59c0,0-2.547,3.953-4.297,5.781l4.136,5.988
c-1.144,2.262-3.132,3.969-3.632,6.758c-0.782,3.676,1.14,7.254,5.234,7.582c3.055,0.094,5.055-1.97,5.434-5.099
c0.156-2.073-0.7-4.683-3.774-8.8c-0.152-0.203-0.453-0.625-0.453-0.625s0.348-0.407,0.531-0.676
c1.078-1.465,3.899-5.039,3.899-5.039l-4.215-5.961c0,0,0.183-0.399,0.512-0.844c3.437-4.691,4.078-7.074,3.468-9.406
c-0.238-0.918-0.812-1.625-1.586-2.41C37.492,180.223,36.063,179.617,34.672,179.652L34.672,179.652z M34.574,180.227
c1.344-0.02,2.731,0.52,3.852,1.694c2.586,2.704,2.355,4.989-1,9.989c-0.738,1.097-1.461,2.304-1.461,2.304l4.238,5.856
c0,0-0.687,1.027-1.402,1.863c-1.934,2.276-3.02,3.914-3.02,3.914c0.735,1.125,1.926,2.332,2.676,3.684
c0.907,1.535,1.446,3.063,1.606,4.465c0.336,2.945-1.578,6.082-4.852,6.156c-3.18,0.022-5.597-2.625-5.527-5.949
c0.031-1.48,0.644-2.852,1.387-4.188c0.761-1.355,2.546-3.996,2.546-3.996l-4.097-5.977l4.34-5.801c0,0-3.157-3.867-4.125-6.653
c-0.789-3.168,0.687-4.972,0.882-5.245C31.582,180.988,33.051,180.25,34.574,180.227L34.574,180.227z M125.984,180.555
c2.438,2.777,3.758,6.754,4.324,10.172c0.227,1.401,0.27,3.797,0.07,4.059c-0.383,0.496-1.254,0.227-1.199-0.375
c0.441-4.816-4.746-8.27-9.234-6.18c-3.465,1.608-5.313,5.354-4.449,10.012c1.633,8.781,9,15.215,13.98,24.023
c1.766,2.984,2.184,4.664,2.172,4.605c0,0,0.652-1.743,2.137-4.223c3.555-6.523,8.375-10.73,11.965-17.254
c1.684-3.066,2.754-6.095,2.934-8.832c0.035-6.367-6.184-11.168-11.039-7.824c-1.926,1.183-3.547,3.465-3.805,5.344
c-0.109,0.805-0.25,1.043-0.609,1.043c-0.828-0.008-0.84-0.32-0.172-4.098c1.012-3.754,2.223-7.313,4.426-10.473H125.984z
M31.887,188.625c0.629,1.641,1.656,2.863,2.816,4.031c1.078-1.258,2.278-2.914,2.938-4.492
C40.813,180.563,28.555,179.941,31.887,188.625L31.887,188.625z M34.656,191.91c-1.554-1.813-2.652-3.316-2.757-5.7
c-0.172-4.726,6.007-4.198,5.699,0.028C37.254,188.539,36.047,189.996,34.656,191.91L34.656,191.91z M111.23,184.48
c0.121,0.664,0.77,1.789,0.715,2.055c-0.301,0.699-0.742,1.047-1.352,2.195c-0.129,0.246-0.066,0.297-0.41,0.233
c-0.32-0.043-0.887-0.222-1.188-0.308c-0.176-0.051-0.371-0.145-0.293-0.363C109.289,186.945,109.949,185.339,111.23,184.48
L111.23,184.48z M100.988,186.512l-0.727,1.887c-0.066,0.203-0.074,0.233-0.289,0.19c-0.414-0.05-0.777-0.086-1.188-0.054
c-0.902-0.11,0.793-3.48,1.051-3.989C100.203,184.609,100.75,186.046,100.988,186.512L100.988,186.512z M101.676,186.945
c0.016,0,0.031,0,0.047,0c0.367,0.051,0.918,0.25,1.328,0.43c0.227,0.089,0.234,0.098,0.133,0.378
c-0.207,0.415-0.465,1.61-0.738,2.028c-0.008,0.063-1.285-0.758-1.648-0.914C100.785,188.641,101.203,187.012,101.676,186.945
L101.676,186.945z M112.5,187.171c0.422,0.013,0.941,0.399,1.227,0.618c0.137,0.266,0.012,0.531-0.457,1.339
c-0.414,0.72-0.848,1.493-0.953,1.411c-0.316-0.246-0.902-0.57-1.191-0.969c-0.215-0.297,0.195-1.055,0.477-1.469
C112.039,187.445,112.25,187.21,112.5,187.171L112.5,187.171z M105.613,187.074c0.391,0.09-0.227,2.097-0.344,2.347
c-0.367,0.556-0.941,1.282-1.398,1.575c-0.234,0.148-0.953-0.277-0.938-0.782c0.012-0.358,0.695-2.159,0.922-2.636
C103.891,187.507,105.176,187.082,105.613,187.074L105.613,187.074z M89.688,187.844c0.086-0.005,0.176,0,0.261,0.004
c1.536-0.047,3.11,0.711,4.106,2.402c0.469,0.796,0.477,0.832,0.367,1.578c-0.254,1.757-0.164,2.938,0.297,4.011
c0.527,1.224,0.449,1.646-0.84,4.371c-1.297,2.743-2.863,6.083-4.058,9.181c-0.528,1.328-1.016,2.832-1.317,4.063
c-0.203,0.773-1.144,0.539-2.086,0.504c-0.48,0.105,0.692-3.118,2.422-6.965c1.387-3.078,3.27-6.551,4.023-9.996
c0.613-2.813,0.414-3.965,0.078-5.148c-1.297-3.434-5.813-2.591-5.801,0.573c0.098,2.048,2.469,3.146,3.336,1.138
c0.145-0.922-0.309-0.388-0.692,0.063c-0.816,0.961-2.218-0.105-2-1.527c0.289-1.859,2.696-2.473,3.86-1
c1.273,1.613,0.992,3.277-0.848,4.527c-1.891,1.391-3.617,0.602-4.562-0.844C84.215,191.531,86.977,187.926,89.688,187.844
L89.688,187.844z M99.059,189.203c1.879,0.039,3.922,1.617,4.25,2.863c0.18,0.848-0.094,1.844,0.207,2.66
c0.254,0.655,0.496,1.035,0.316,1.617c-1.551,4.98-5.203,10.293-7.008,16.188c-0.211,0.41-0.398,0.465-0.867,0.597
c-0.719,0.204-1,0.185-1.078-0.19c-0.074-0.359,0.168-1.043,0.59-2.316c0.508-1.532,1.621-4.148,2.277-5.379
c1.527-2.871,2.379-4.832,3.488-7.282c0.207-0.457,0.262-0.729,0.59-1.39c1.395-2.832-0.184-5.625-3.074-5.641
c-2.293-0.012-3.32,3.577-1.313,4.629c1.965,1.026,3.43-1.672,1.684-2.625c-0.422-0.23-0.531-0.013-0.191,0.395
c0.777,0.934,0.078,2.191-1.004,1.691c-1.672-0.773-0.813-3.629,1.145-3.465c3.016,0.254,3.406,4.645,0.332,5.754
c-4.23,1.53-6.449-5.281-2.469-7.57C97.594,189.355,98.328,189.191,99.059,189.203L99.059,189.203z M107.969,189.339
c1.113-0.026,2.281,0.371,3.242,1.293c2.367,2.274,1.738,5.778-2.258,12.56c-1.313,2.269-2.586,5-3.285,6.992
c-0.172,0.5-0.316,0.75-0.711,0.969c-0.691,0.383-1.48,0.43-1.582,0.16c-0.258-0.688,1.723-4.974,5.246-11.703
c0.93-1.793,2.098-3.875,2.039-6.008c-0.23-1.695-1.641-2.914-3.527-2.359c-1.27,0.375-1.789,2.164-0.855,3.066
c0.391,0.379,0.875,0.573,1.184,0.547c0.586,0.016,1.25-0.563,0.117-0.625c-1.199-0.004-1.605-1.512-0.594-2.191
c1.453-0.977,3.121,0.175,3.004,2.074c-0.242,3.82-5.82,3.25-5.965-0.684C103.93,190.996,105.844,189.395,107.969,189.339
L107.969,189.339z M163.242,190.992c1.383,0.98,2.379,2.765,2.609,4.472c0.074,0.528,0.145,1.063-0.086,1.185
c-0.277,0.147-0.473-0.07-1.051-0.828c-1.34-1.771-3.996-1.016-4.887,1.41c-0.848,2.313,0.031,4.91,3.594,10.074
c1.277,1.909,2.406,3.495,3.465,5.366c0.75-1.862,2.023-3.866,3.109-5.522c4.07-6.16,4.816-9.363,2.602-11.426
c-1.422-1.298-3.676-1.336-4.438,0.32c-0.516,0.68-0.824,1.012-1.043,0.598c-0.094-0.181-0.086-0.723-0.023-1.125
c0.387-1.957,1.023-3.238,2.434-4.523H163.242z M92.215,195.457c0.844-0.066-0.605,4.473-3.141,9.566
c-1.382,2.824-2.429,5.854-3.507,8.805c-0.289,0.395-2.036,0.465-2.032,0.059c3.098-9.927,5.286-11.637,6.344-15.418
c0.184-0.652,0.32-1.598,0.344-1.68C91.008,196.566,91.668,195.628,92.215,195.457L92.215,195.457z M34.864,196.125l-3.282,4.281
l3.203,4.543l3.329-4.344L34.864,196.125z M105.938,197.449c0,0.511-0.984,2.98-1.719,4.461c-3.215,6.488-4.016,8.238-4.57,9.968
c-0.102,0.313-0.262,0.521-0.465,0.595c-0.402,0.152-1.516,0.362-1.609,0.211c0.68-3.789,5.883-12.418,6.895-16.199
C104.871,196.469,105.906,197.082,105.938,197.449L105.938,197.449z M108.512,197.05c0.219-0.015,0.305,0.075,0.242,0.368
c-0.098,0.469-0.66,1.574-1.637,3.496c-2.711,5.324-4.129,8.477-4.582,10.098c-0.105,0.379-0.172,0.676-0.352,0.773
c-0.375,0.199-1.676,0.722-1.738,0.156c0.406-2.406,1.992-3.973,6.094-14.004c0.191-0.332,0.359-0.492,0.539-0.52
C107.582,197.332,108.02,197.094,108.512,197.05L108.512,197.05z M97.402,198.699c-0.102,0.621-0.813,1.918-1.988,4.316
c-1.953,3.987-3.215,6.957-3.98,9.594c-0.125,0.43-0.297,0.879-0.461,0.996c-0.32,0.219-1.742,0.151-1.742,0.151
c-0.215-1.089,1.5-5.155,3.414-9.433c1.043-2.324,2.246-4.641,3.059-6.73C96.258,197.68,97.324,198.21,97.402,198.699
L97.402,198.699z M100.301,197.671c0.578-0.003,0.129,0.97-1.258,3.711c-1.125,2.228-2.922,5.349-4.082,8.935
c-0.301,0.789-0.656,1.769-0.789,2.18c-0.172,0.535-0.328,0.797-0.547,0.906c-0.418,0.207-1.434,0.195-1.609-0.021
c-0.281-0.343,1.215-4.382,2.676-7.479c1.289-2.606,2.195-4.695,3.309-7.106c0.305-0.476,0.32-0.511,0.629-0.573
C99.273,198.171,99.938,197.742,100.301,197.671L100.301,197.671z M34.918,198.191l1.692,2.262l-1.985,2.468l-1.652-2.401
L34.918,198.191z M34.664,207.945c0,0-0.718,0.824-1.457,2.133c-2.16,3.598-2.218,6.25,0.328,7.824
c1.079,0.551,2.477,0.43,3.364-0.344c2.882-2.516,0.738-5.974-1.125-8.316C35.281,208.555,34.664,207.945,34.664,207.945
L34.664,207.945z M34.77,208.863c1.082,1.277,1.871,2.234,2.594,3.836c0.828,2.156,0.296,3.851-1.309,4.645
c-2.535,1.258-4.84-1.566-3.637-4.582C33.309,210.531,34.77,208.863,34.77,208.863L34.77,208.863z M105.762,213.121
c0.238,0.453-24.129,6.089-42.106,1.25l-10.937,15.828l63.148-0.11L105.762,213.121z M104.84,214.242c0,0,5.871,10.16,8.75,15.136
h-4.047l-5.77-12.354c-3.09,0.858-6.133,1.483-9.219,1.875l2.055,10.479h-3.031l-1.715-10.015c-4.421,0.34-8.93,0.472-13.527,0.34
l-1.984,9.675H73.18l2.031-9.608c-3.488-0.469-6.965-0.914-10.515-1.496l-5.95,11.104h-4.48l9.34-13.94
C77.547,218.238,90.403,217.578,104.84,214.242L104.84,214.242z M167.918,216.57c-2.758,0.008-5.672,1.492-6.496,4.672
c-0.293,1.008-0.293,1.011-0.301,10.011c-0.008,7.438-0.07,9.231-0.07,9.231h-2.543v2.973h8.277v-2.973h-2.746
c0,0-0.039-9.254-0.039-15.09c-0.113-1.513,0.023-2.845,0.426-3.77c1.465-3.375,6.617-2.637,7.238,0.242
c0.367,1.715,0.16,2.164,0.188,3.645h2.867c0,0,0.074-2.602-0.203-4.121c-0.379-3.391-3.305-4.902-6.332-4.816
C168.098,216.57,168.008,216.57,167.918,216.57L167.918,216.57z M102.633,219.695l4.578,9.683h-8.672l-1.594-8.636L102.633,219.695z
M65.52,220.398l7.578,0.983l-1.957,7.996H60.906L65.52,220.398z M90.258,221.594l1.043,7.784H78.242l1.45-7.632L90.258,221.594z
M90.258,221.594"/>
</svg>
