<?xml version="1.0" encoding="utf-8"?>
<!DOCTYPE svg PUBLIC "-//W3C//DTD SVG 1.1//EN" "http://www.w3.org/Graphics/SVG/1.1/DTD/svg11.dtd" [
<!ENTITY ns_svg "http://www.w3.org/2000/svg">
<!ENTITY ns_xlink "http://www.w3.org/1999/xlink">
]>
<svg version="1.1" id="Layer_1" xmlns="&ns_svg;" xmlns:xlink="&ns_xlink;" width="179.379" height="250.246"
viewBox="0 0 179.379 250.246" overflow="visible" enable-background="new 0 0 179.379 250.246" xml:space="preserve">
<path fill="#FFFFFF" d="M8.903,0.398h161.574c4.711,0,8.504,3.793,8.504,8.504v232.441c0,4.711-3.793,8.504-8.504,8.504H8.903
c-4.711,0-8.504-3.793-8.504-8.504V8.902C0.399,4.191,4.192,0.398,8.903,0.398L8.903,0.398z M8.903,0.398"/>
<path fill="none" stroke="#000000" stroke-width="0.7974" d="M8.903,0.398h161.574c4.711,0,8.504,3.793,8.504,8.504v232.441
c0,4.711-3.793,8.504-8.504,8.504H8.903c-4.711,0-8.504-3.793-8.504-8.504V8.902C0.399,4.191,4.192,0.398,8.903,0.398L8.903,0.398z
M8.903,0.398"/>
<path fill="#E2CF00" d="M82.106,228.089l18.566-33.897c0,0.008,4.496,1.723,9.754,3.086c-5.047,13.152-0.484,27.406-0.035,30.496
C110.766,230.367,82.106,228.089,82.106,228.089L82.106,228.089z M31.071,170.16c-1.055-14.41-1.09-28.328,1.281-39.855
c0.047-0.188-6.633-4.044-5.942-4.484c1.059-0.68,14.211-7.535,14.211-7.535s0.891,0.504,1.657,0.426
c0.601-0.059,1.16-0.605,0.929-1.184c-0.551-1.375-1.531-4.797-0.945-8.238c0.34-1.977,1.414-4.152,2.523-5.488
c2.481-2.969,8.141-1.398,9.786-1.449c1.043-0.031,4.203-11.074-0.829-13.121c-1.382-0.566-4.562,6.973-2.355,8.664
c0.332,0.254-4.441-2.516-8.102-4.168c-0.339-0.152-1.832-1.301-2.168-2.82c-0.421-1.895,5.606-5.539,4.422-7.672
c-1.722-3.109-6.175-7.762-8.082-6.484c-1.801,1.625-6.097,4.949-6.07,7.227c1.344,4.078,4.754,4.359,6.547,8.219
c0.449,0.836,3.746,4.34,3.746,4.34c-1.238,1.891,0.766,5.199,0.859,4.691l-15.621-6.801c0,0,3.578,26.934-0.199,30.922
c-0.402,0.422,3.344-1.059,3.406-0.828c1.141,1.441,13.754,9.461,17.367,12.344c6.411-8.942,8.754-12.875,17.02-20.809
c1.812-1.5,5.855-4.238,8.168-7.527c1.859-2.645,2.629-5.621,2.297-7.93c-0.434-2.988-0.699-5.035-2.543-7.414
c-4.262-5.504-11.039-10.75-10.922-10.848l2.316-1.883c0,0,8.364,6.91,11.903,11.996c2.386,3.422,1.316,7.352,3.371,8.055
c0.496,0.168,3.871-0.113,4.98,0.098c0.137,0.027,24.594,17.285,20.161,18.281c-6.141,1.379-15.929,0.48-15.929,0.48
c-6.989-6.82-10.364-9.066-14.528-6.93c0,0-10.554,9.234-16.648,16.461c-3.469,4.117-6.367,9.273-8.691,12.59
c-0.895,1.277-12.102-9.492-11.989-8.199c1.664,11.718,2.614,25.84,1.324,35.41c-0.882,8.133-2.093,16.867-2.636,24.363
c0,0,1.883-0.543,3.316-0.035c0.774,0.272,1.34,0.992,1.406,1.793c0.418,3.57-4.179,2.742-4.289,2.43
c0.008,0,2.567,5.507,2.567,5.507s-3.981,6.868-3.871,6.571c0.07-0.184-3.621-6.098-3.621-6.098s2.8-4.941,3.152-5.97
c0.211-0.616-4.039,2.043-4.367-1.812c-0.328-3.883,4.64-2.844,4.414-2.363C33.254,185.113,31.918,176.871,31.071,170.16
L31.071,170.16z M89.567,187.503c-6.735-2.804-14.93-1.804-20.532-3.608c-2.281-1.145-5.078-1.539-7.238-1.31
c-3.523,0.372-4.863,2.302-4.863,2.302l-10.813-10.074c0,0,3.793-33.992,9.45-40.892c1.785-2.175,7.656-2.358,8.242,4.974
c0.23,2.867,8.269,8.434,16.285,15.819c10.176,9.375,23.203,19.618,24.043,20.164c0.461,0.302-12.586,11.688-12.789,12.043
C90.777,187.921,90.828,187.964,89.567,187.503L89.567,187.503z M115.547,111.449c-12.824-13.066-39.66-36.43-39.66-36.43
l12.562-12.258c6.594,1.965,13.372,3.605,21.032,3.684c0.031,0.031,8.395,3.805,12.852-0.012l11.598,9.188
c0,0-4.809,25.285-7.633,34.113c0.059,3.496-1.43,7.984-4.934,8.223C118.414,118.16,116.359,114.434,115.547,111.449
L115.547,111.449z M141.465,81.176c1.34-8.219,1.613-14.203,2.543-23.793c-5.949,1.59-5.801-6.16-0.023-4.051l-2.637-5.801
l3.902-6.535l3.578,6.207l-3.082,5.5c6.406,0.316,4.863,6.262-0.656,4.824c1.039,9.188,3.332,18.469,3.219,27.551
c2.031,14.594-1.207,35.492-1.707,35.32l6.25,4.293l-1.066,31.695l-9.867-4.324l-2.938,1.98c0.941,1.863,2.141,3.652,2.547,5.68
c0,0,6.793,5.586,5.852,7.327c0.438,0.259-4.836,7.235-6.383,7.06c-2.957-0.332-6.41-4.141-7.359-6.856
c-0.832-2.729,6.102-5.405,5.227-7.405c-1.043-2.388-3.688-3.535-6.027-4.238c-3.23-0.969-4.707-3.524-4.855-3.524
c0,0-1.254,10.129-2.461,9.321c-4.859-3.258-1.535-13.594-0.633-13.305c0,0,2.121,0.483,4.629,0.723
c8.832,0.926,8.234-9.93,6.523-15.184c-0.43-1.246,0.238-1.259,0.191-1.273c-0.41-0.141,1.43-0.039,2.988-0.496
c4.289-1.266,10.863-5.625,10.863-5.625s-3.609-2.254-5.527-3.426c-5.188-3.176-13.082-8.676-13.082-8.676
s-4.93,8.426-10.949,14.426c-4.406,4.398-9.453,9.82-12.418,11.488c-0.156,0.086-5.555,6.573-2.977,14.125
c2.203,6.465,12.801,13.457,12.723,13.926l-2.086,1.992c-0.453,0-13.066-9.845-14.043-15.47c-0.238-1.362-3.223-1.679-7.035-4.554
c-7.196-5.422-18.028-14.543-19.703-18.164c-0.356-0.766,0.566-0.563,2.316-0.598c4.449-0.094,13.918,0.238,13.918,0.238
l8.645,7.059l5.406,0.281c0.352,0.309,0.547-1.426,5.305-4.977c9.094-6.777,20.359-24.18,20.359-24.18s11.91,8.371,11.922,8.375
C141.707,105.813,140.07,92.098,141.465,81.176L141.465,81.176z M98.094,21.75c0,0-12.375,23.238-19.164,34.184l-9.613-2.758
c4.027-10.688,0.168-31.055-0.844-31.566L98.094,21.75z M98.094,21.75"/>
<path fill="#131F67" d="M24.25,20.398l0.731,209.246l129.929-0.082l-0.375-209.164H24.25z M114.551,172.035
c6.164-5.727,12.262-10.453,17.961-13.887c2.211-1.332,2.883-1.527,3.75-0.738c1.418,1.289,2.301,2.41,1.836,3.313
c-0.102,0.203-0.438,0.543-0.438,0.543l-3.402-1.297l1.102,3.863c-3.063,1.246-3.008,4.559-0.051,6.316l-2.035,4.68l4.73-2.082
c0.18,1.023,3.555,3.488,5.652,0.004l4.27,2.082l-1.473-5.227c1.402-1.336,2.223-3.474,0.016-5.438l1.016-4.098l-3.855,1.254
c-0.969-1.321-1.531-1.23-1.75-1.59c-0.066-0.492-0.078-1.637-0.723-2.695c-0.527-0.875-1.137-1.801-1.703-2.454
c-0.301-0.507-0.059-0.55,1.48-1.382c0.723-0.391,1.32-0.789,1.32-0.789s7.594,3.809,10.691,5.257l0.176,70.114l-41.645-0.121
c-4.68-13.977-1.316-26.055-0.074-31.141c-2.184-0.18-13.445-3.828-13.785-5.082C102.078,184.355,108.133,177.918,114.551,172.035
L114.551,172.035z M33.528,192.434c-5.434-1.754-5.489,4.785-2.715,5.293c0.722,0.129,1.472,0.237,2.597-0.125
c0.282,0.059-3.254,5.48-3.254,5.48s2.829,5.137,4.184,7.32l4.277-7.586l-2.796-5.25c4.378,2.229,6.644-4.414,2.046-5.281
c-1.109-0.153-2.336,0.402-2.336,0.402l2.418-22.724c1.95,1.325,5.504,3.981,5.504,3.981c0.809,12.519,0.215,22.953,7.215,41.164
l0.074,12.676H26.707l-0.093-66.168l4.207,3.011c0.085,0.372-0.672,0.122-0.262,4.728C30.93,173.516,32.196,180.727,33.528,192.434
L33.528,192.434z M119.824,22.34c0.191,0.273,0.18,0.688,0.344,1.238c0.973,3.242,4.355,7.133,7.051,8.156
c0.941,0.359,1.309,0.902,0.762,1.445c-0.688,0.691-3.527-1.191-5.625-3.633c-1.902-2.219-3.176-4.055-3.457-5.445
c-0.164-0.828-0.25-1.359-0.125-1.789C119.121,21.832,119.555,21.965,119.824,22.34L119.824,22.34z M123.184,21.992
c0.359-0.004,0.836,0.418,1.125,1.18c0.691,1.836,1.777,3.207,3.473,4.395c0.449,0.313,0.629,0.785,0.402,1.059
c-0.086,0.102-0.195,0.152-0.32,0.188c-1.324,0.371-4.809-3.66-5.086-6.16C122.719,22.105,122.906,21.992,123.184,21.992
L123.184,21.992z M127.52,22.039c0.703,0,1.043,1.465,0.633,2.234c-0.266,0.242-0.848-0.129-1.367-1.094
C126.34,22.352,126.52,22.043,127.52,22.039L127.52,22.039z M125.164,22.063c0.156-0.004,0.48-0.086,0.648,0.141
c0.27,1.52,1.414,2.617,2.328,3.496c0.152,0.285,0.223,0.891-0.113,1.047c-0.797,0.352-3.207-2.383-3.223-3.969
C124.801,22.301,124.945,22.07,125.164,22.063L125.164,22.063z M122.105,23.023c0.844,2.77,2.891,5.031,4.719,6.203
c1.309,0.832,1.816,1.305,1.207,1.73c-0.148,0.105-0.301,0.188-0.336,0.18c-3.066-1.168-6.832-5.605-6.957-8.746
C121.402,21.539,121.992,22.496,122.105,23.023L122.105,23.023z M111.504,35.047c-1.613,0.004-3.586,0.367-5.191,1.098
c-2.227,1.012-2.789,1.684-2.461,1.926c0.234,0.172,1.668-0.441,2.387-0.535c3.883-0.961,6.559-1.199,9.086-0.094
c1.957,0.852,1.969,0.461,0.656-0.961C115.027,35.453,113.328,35.043,111.504,35.047L111.504,35.047z M125.191,37.176
c1.285-0.012,2.598,0.285,3.063,0.887c0.363,1.938-0.605,1.051-1.387,0.664c-1.125-0.52-2.418-0.969-3.621-0.785
c-0.777,0.121-0.797,0.082-0.359-0.168C123.551,37.371,124.488,37.184,125.191,37.176L125.191,37.176z M109.969,37.93
c-3.672,0.285-4.945,2.145-7.316,4.059c-0.973,0.742-0.754,1.313,0.434,1.121c1.465-0.242,2.059-0.184,4.055,0.496
c2.184,0.746,3.746,1.055,4.945,0.594c2.27-0.871,2.074-0.727-1.168,2.414c-1.734,1.395-1.035,1.32,0.723,0.113
c1.297-1.035,2.191-1.699,2.461-2.266c0.133-0.277,0.145-1.266,0.391-1.266c0.824,0,0.398-1.031-0.352-1.465
c-0.492-0.352-0.383-0.719,0.254-1.395c1.004-1.051,0.664-1.527-0.426-0.871c-0.191,0.102-0.285-0.219-0.949-0.621
C111.973,38.211,111.086,37.918,109.969,37.93L109.969,37.93z M112.617,39.309c0.887,0.746,0.508,0.953-1.43,0.934
c-1.637-0.016-3.031,0.156-4.977,0.805c-2.207,0.73-2.344,0.75-1.047-0.355C106.949,39.172,110.574,37.645,112.617,39.309
L112.617,39.309z M124.09,38.664c0.891-0.02,1.641,0.105,2.32,0.48c1.852,1.02,2.262,1.902,0.203,1.184
c-1.293-0.453-3.039-0.391-4.242-0.055c-1.246,0.344-1.461,0.465-1.293-0.207C121.285,39.246,122.605,38.695,124.09,38.664
L124.09,38.664z M109.539,41.672c0.438,2.199,2.105,1.48,2.27,0.152l0.609,0.004c-0.258,1.766-2.66,3.242-3.594-0.156
C109.02,41.668,109.891,41.727,109.539,41.672L109.539,41.672z M122.836,41.711l0.453-0.016c0.297,1.684,1.863,2.234,2.543,0.129
l0.547,0.012C125.961,45.352,122.242,43.637,122.836,41.711L122.836,41.711z M108.262,41.875c0.301,0.105,0.438,0.93,0.391,1.145
c-0.105,0.453-1.578-0.027-1.891-0.469C107.07,42.227,107.797,41.711,108.262,41.875L108.262,41.875z M128.281,42.25l-0.004,0.613
c-0.68,0.164-0.961,0.543-1.594,0.418c0.035-0.391-0.031-0.934,0.336-1.391C127.484,41.645,128.035,41.945,128.281,42.25
L128.281,42.25z M113.457,42.961c-0.309,0.242-0.73,0.27-0.73,0.27c-0.066-0.59-0.168-1.254,0.566-1.258
C113.777,42.113,113.742,42.711,113.457,42.961L113.457,42.961z M121.934,41.984c0.258,0.016,0.563,0.66,0.598,1.031
c-0.074,0.617-1.59,0.371-1.59-0.238C120.941,42.516,121.574,41.984,121.934,41.984L121.934,41.984z M108.086,65.258
c-1.168-0.586-10.027-5.969-12.297-15.488l-0.449,0.973c0.961,2.281,2.379,5.984,2.379,5.984c-0.059-0.32,0.363,2.477,1.266,7.23
c-0.48,0.004-1.008-0.133-1.527-0.27c-1.168-4.352-1.445-7.762-2.426-12.02l-0.43,1.191c0,0,1.234,7.637,2.07,10.625
c-0.477-0.047-1.359-0.242-1.359-0.242c-0.695-3.223-1.234-5.383-1.887-8.613L92.82,55.41c0.867,2.648,1.203,5.02,1.641,7.563
c-0.594-0.09-1.191-0.148-1.758-0.465c0,0-0.895-4.633-1.012-4.699c-0.344,0.344-0.484,0.785-0.484,0.785
c-0.035-0.043,0.777,2.566,0.719,3.645c-0.57-0.094-1.555-0.379-2.25-0.613c-0.363,0.242-0.555,0.645-0.836,1.008
c0.344,1.473,20.668,4.668,19.449,3.445c-0.008,0.129,8.961,3.926,13.969,0.699c0,0,8.707,6.457,12.105,9.035
c0,0.293,1.18,1.66,2.406,2.531l3.445,2.652c1.004,0.781,1.402,0.215,1.555-1.25c0.168-1.629,1.355-12.625,1.633-14.969
c1.035-7.902,1.031-7.816-0.168-7.453c-1.832,0.555-3.484-0.168-3.484-2.043c0-1.148,0.531-2.098,1.754-2.543
c0.348-0.117,0.801-0.129,1.32-0.117c0.234,0.043,0.676,0.07,0.723,0.078c0.582-0.031-2.262-5.184-2.262-5.184
s2.719-4.848,4.027-6.652l3.52,6.379l-2.883,5.625c5.613-0.422,5.066,6.637-0.43,4.273c0,0-0.035,2.094-0.023,1.941
c0.055-0.602,0.047-1.113,0.234-1.227c5.324,2.02,6.41-5.746,0.672-5.387c0.945-1.645,1.996-3.348,2.977-5.16l-4.148-7.563
l-4.684,7.797l2.355,4.863c-0.527-0.137-0.953-0.051-1.52,0.004c-3.477,0.715-2.727,6.301,1.242,5.535
c0.453-0.09,1.133-0.434,1.133-0.434l-2.563,22.828c0,0-0.25,0.207-1.281-0.535c-1.188-0.855-3.676-2.715-3.832-2.906
c0.887-14.594-2.762-29.949-6.93-39.563c-0.266-0.738-0.109-15.219-0.109-15.219l23.637,0.063l0.09,67.246
c-1.238-0.781-2.574-1.813-3.844-2.707c-0.383-0.309-0.617-0.676-0.457-1.262c-0.414,0.895-0.164,1.277-0.164,1.277l5.219,4.168
l-0.207,66.18c0,0-8.426-4.34-13.613-6.438c-2.34-0.953-2.445-0.681-2.445-0.681c0.008-0.004,1.656,3.712,1.184,4.384
c1.117,1.07,2.992,3.316,3.082,5.512c1,0.863,1.277,0.973,2.027,2.215l3.133-1.129l-0.711,3.262
c3.328,2.328,0.121,5.464-0.496,5.175c0,0,1.469,3.153,1.805,4.587c-0.523-0.035-3.16-1.466-3.895-1.805
c-1.91,3.762-5.137,0.605-5.164,0.05l-3.578,1.595l1.266-4.074c-2.305-1.402-3.859-3.521-0.133-5.801l-0.863-3.181l3.066,1.207
c0,0,0.57-0.917,1.008-1.589c-1.148-4.993-8.684-4.047-11.105-8.536c0,0-0.594,5.603-1.203,7.629
c-0.238,5.364-3.996-0.058-3.996-5.729c0-1.281,1.609-5.586,2.156-5.797c0.566-0.078,5.945,2.522,9.559-0.063
c1.645-1.711,4.48-6.523,1.758-14.059c-0.902-1.738,1.715-1.961,2.563-1.371c0,0,7.863-4.113,11.414-6.094
c-5.957-3.273-18.336-11.977-18.328-12.391c-1.652,2.621-3.543,4.82-6.203,8.531c-4.313,5.074-7.684,9.898-13.152,13.953
c-7.695,5.605-9.504,11.242-7.355,17.863c0.867,2.859,2.617,5.762,5.48,6.766c1.457,1.472,7.309,7.015,7.309,7.015
c-9.77,8.896-16.477,16.211-21.184,24.298c3.973,2.086,13.547,5.109,13.547,5.109c-3.555,11.824-1.938,21.214,0.406,30.641
c0,0-27.796,0.034-42.223-0.418c-0.125,0.12-1.684,0.038-1.707-0.063c-0.055-1.055,2.601-3.949,3.394-3.547
c0.461-0.293,1.407-0.336,1.094-1.078c-1.992-0.235-5.012,3.203-5.129,4.625h-1.187c-0.246-0.211,2.152-5.809,6.957-6.254
c-0.188,0.027,1.347-1.012,0.125-0.707c-5.602,0.664-8.211,6.875-8.047,6.961h-0.863c1.902-6.11,6.863-8.039,9.73-8.305
c0.031,0.137,0.934,0.215,0.692-0.863c-6.344,1.101-9.504,3.847-11.032,9.168h-1.14c0.824-5.399,6.375-10.125,12.652-9.969
c0.238,0.125,1.172,0.477,0.332-0.888c-6.961,0.785-10.437,3.11-13.297,9.091c-2.558-6.641-9.672-9.793-9.758-9.82
c0,0-0.172-1.86,0.227-1.785c6.066,2.199,8.383-3.071,8.133-6.133c-0.145-1.703-0.047-2.641-0.617-5.098
c-0.508-2.188-0.883-3.664-0.844-4.613c0.039-0.941,0.336-1.133,1.031-1.445c1.301-0.59,2.113-2.727,1.824-2.989
c-0.668,1.556-2.433,1.821-3.25,2.868c-0.648,0.859-0.363,2.227,0.793,6.977c0.707,2.895-0.129,1.566-1.773,0.66l-1.102-0.625
c0.738,0.758,1.52,1.473,2.27,2.215c0.672,0.617,0.297,0.996-0.668,0.641c-1.391-0.696-4.067-0.403-5.09,0.468
c-0.399,0.286-0.543,0.254-0.641-0.007c-0.449-7.379,0.325-11.918,2.77-17.465c1.582-3.77,3.933-6.59,7.07-6.793
c3.164-0.262,7.711,0.848,11.84,3.652c4.848,3.293,9.574,8.301,10.074,14.445c0.02,0.07,0.375-0.527,0.535-0.84
c0.223-0.73-0.586-2.926-1.851-5.469c-0.235-1.914-0.891-5.266-1.406-7.535c0.39-0.18,1.23-0.078,1.464,0.207
c0.887,3.75,1.52,6.672,2.282,11.699c0.011,0.488,0.64-0.728,0.64-1.051c-0.109-0.75-2.203-10.582-2.16-10.359
c0.012-0.336,1.988,0.105,1.715,0.414c0,0,1.504,8.25,1.609,7.996l0.508-0.699c0,0-1.433-6.028-1.254-7.188
c0.121-0.18,1.231,0.184,1.582,0.37c0.446,0.595,0.727,2.743,0.914,4.212c0.512,0.391,0.614-0.738,0.575-1.035
c-0.372-0.586-0.758-2.763-0.469-2.875c0.23-0.086,1.504,0.418,1.75,0.637c0.285,0.254,1.395-1.281,1.113-1.547
c-6.004-2.301-13.578-3.642-19.281-3.734c-1.324,0.007-1.848-0.18-3.879-0.914c-5.176-1.868-9.453-0.008-10.078,0.586
c-6.321-4.391-13.371-10.52-18.985-14.434c-0.261-0.176-0.894-0.277-0.961-0.277c-0.89,6.809-1.515,14.688-2.273,20.973
c-0.309,2.488-0.344,2.684-0.23,2.754c0.097,0.059,0.293-0.039,0.371-0.078c1.847-0.685,3.515-0.238,4.398,1.43
c0.445,2.386-1.641,3.957-3.844,2.824c-0.816-0.422-0.933-0.34-0.558,0.457c0.64,1.434,2.5,5.203,2.5,5.203
c0.004,0.004-2.508,5.121-3.778,6.516c-1.238-2-2.816-4.02-3.5-6.203c0.969-1.902,2.809-4.352,3.387-6.227
c-0.082-0.063-0.582-0.008-0.93,0.172c-3.21,1.519-3.726-1.34-3.683-2.367c0.086-2.09,1.906-2.535,4.551-1.563
c-2.86-18.984-3.469-29.805-2.739-28.634c0,0-3.453-2.464-5.168-4.14l-0.152-138.27l41.297,0.063
c4.211,11.289,3.051,24.863,0.535,31.93c4.473,0.816,8.984,1.871,14.086,4.801C73.309,71.48,59.781,85.137,45.129,93.879
c-0.832,0.375-3.558-1.328-3.879-3.008c-0.078-0.391,0.141-1.164,0.578-1.148c1.078,0.352,2.121,0.828,3.172,1.258
c0,0-1.465-3.672-0.758-4.23c0.461-0.305,0.836-0.555,1.133-0.867c1.051-1.355,0.965-2.898-0.148-4.082
c-0.449-0.473-0.969-0.797-1.231-0.914c0,0,1.032-2.867,1.551-4.219l-4.066,1.344c-1.317-1.824-3.739-3.242-5.528-0.527
c-0.339,0.727-0.269,0.613-2.789-0.5c-1.425-0.629-2.304-0.953-2.304-0.953c0.535,1.594,1.234,3.09,1.847,4.934
c-2.801,1.785-2.164,4.797,0.196,5.695l-1.243,4.066c0,0,2.649-0.984,4.082-1.371c0,0,1.262,1.266,1.633,2.469
c0.641,2.063,2.094,3.555,3.016,4.406c-1.535,1.125-2.289,1.5-4.016,2.332l5.957,2.406c-0.371-1.262-1.16-2.195-1.238-3.785
c-0.07-1.367-0.148-1.391-1.031-2.313c-1.442-1.246-1.66-2.91-2.469-4.27c-0.566-0.34-1.016-1.027-1.438-1.797
c-0.906,0.086-2.953,1.102-3.343,0.738c-0.473-0.508,0.824-3.105,0.683-3.367c-1.047-0.086-3.976-2.371-0.488-4.914l-1.113-4.133
c0,0,2.656,1.16,3.929,1.809c0.883-4.129,4.915-2.148,5.567-0.367c0,0,3.195-1.051,2.996-0.199c-0.09,0.766-0.609,2.676-0.609,2.676
c2.875,2.543,2.281,3.793-0.055,5.461c-0.035,1.348,0.531,3.445,0.531,3.445s-1.625-0.723-2.695-1.027
c-0.43,0.43-0.914,1.203-0.836,1.602c0.726,3.215,4.691,4.109,10.566,7.398c0.203-2.078,1.637-4.918,1.797-7.41
c0.102-1.816,0.164-1.848,1.445-1.266c3.364,2.43,2.336,9.109,1.11,11.852c-0.727,1.551-0.844,1.512-2.258,1.063
c-1.957-0.625-5.414-0.371-7.316,0.273c-2.629,1.078-3.871,6.945-3.903,8.727c-0.043,1.695,0.086,3.375,0.977,5.469
c0.367,1.336-0.309,2.371-1.516,2.012c-0.273-0.082-0.918-0.328-0.918-0.328l-11.355,5.875l2.14,1.258c0,0-1.578-0.941-0.601-1.453
l9.738-5.078c1.813,0.707,1.57,0.852,2.746-0.375c0.703-0.723,1.051-0.738,1.992-0.648c5.743,0.551,8.282-0.285,9.278-2.691
c0.148-0.359,0.09-0.348,0.676-0.645c1.085-0.422,1.597-1.184,1.652-2.145c0.035-0.629,0.308-0.715,0.789-1.152
c0.891-0.82,1.074-1.848,0.512-2.906c-0.266-0.496-0.469-0.652-0.36-1.168c0.184-0.863-0.133-1.766-0.965-2.715
c-0.957-1.098-0.949-0.91,0.852-2.586c3.535-3.363,6.648-5.934,10.086-8.977c2.352-2.078,2.098-1.93,3.016-0.977
c3.367,3.504,4.691,8.965,3.171,13.77c-0.07,0.227-0.101,0.199,0.075,0c0.953-1.082,0.98-6.52,0.164-8.93
c-0.992-2.961-1.953-4.504-5.239-7.406c-2.05-1.852-7.628-7.195-7.628-7.195c8.117-7.039,16.859-15.789,21.761-23.832
c-2.515-2.699-14.176-5.188-14.176-5.188c1.45-3.012,4.321-16.539-0.593-31.543l41.898,0.484l1.492,0.102
c0,0,0.223-0.086,0.344-0.117c0.402-0.105,0.602,0.18,0.504,0.629c-0.309,1.145-1.988,3.824-3.176,3.602
c-0.527-0.203-0.379,0.813-0.613,1.234c1.867-0.242,4.059-2.609,4.609-4.957c0.301-0.492,0.496-0.574,0.797-0.48
c0.344,0.109,0.258,0.438-0.117,1.574c-1.172,2.84-3.543,5.477-6.301,5.215l-0.359,0.965c3.723-0.059,6.602-3.547,7.449-6.156
c0.594-1.551,0.617-1.762,1.215-1.613c0.492,0.457,0.188,1.113,0.02,1.652c-1.871,5.977-7.008,7.574-9.566,7.316
c0.305-1.273-0.691,0.031-0.27,0.742c5.496,0.363,9.875-4.375,10.492-8.438c0.301-1.129,0.824-1.512,1.125-0.996
c0.172,0.453,0.113,0.918,0.031,1.352c-1.504,6.414-8.34,10.055-12.52,9.016c-0.32-0.242-1.785,0.453-0.051,1.023
c8.434-0.32,11.039-4.672,12.961-8.516c2.297,3.461,4.172,7.031,9.672,9.129c0,0,0.547,1.207,0.117,1.477
c-0.23,0.145-0.578,0.078-1.082-0.004c-6.703-1.082-8.922,5.18-6.066,14.539c0.781,2.563,0.43,2.172-1.238,3.773
c-0.797,0.766-1.176,2.121-0.965,2.152c0.285-0.16,0.379-0.602,1.074-1.176c0.305-0.254,0.926-0.492,1.387-0.809
c1.238-0.719,1.227-1.211,0.781-2.91c-0.328-1.266-1.172-5.109-1.172-5.5c-0.004-0.738,0.172-0.66,1.094,0
c1.285,0.957,2.016,0.887,0.457-0.336c-0.602-0.473-0.992-0.84-1.176-1.105c-0.246-0.363-0.094-0.598,0.406-0.438
c2.313,0.723,4.293,0.672,6.535-0.695c0.258,6.176-0.594,15.543-5.766,22.238C118.492,70.035,110.895,66.664,108.086,65.258
L108.086,65.258z M114.164,51.07c-0.152,0.004-0.707,0.121-1.051,0.316c-1.523,0.871-1.16,3.969,0.504,4.379
c0.668,0.168,1.277,0.258,2.398-0.277c0.672-0.32,1.609-0.57,1.871-0.461c0.551,0.23,0.727-0.258,0.844-0.809
c0.266-1.23-1.754-1.258-3.359,0.012c-2.027,1.605-3.578-0.762-1.672-2.547C114.336,51.273,114.316,51.063,114.164,51.07
L114.164,51.07z M98.426,57.691l1.703,1.965l1.066,4.688c-0.648,0.109-1.434-0.25-1.434-0.25
C99.23,61.973,98.711,59.852,98.426,57.691L98.426,57.691z M121.602,58.871c-0.02,0-0.039,0.008-0.059,0.016
c-0.07,0.031-0.391,0.172-0.828,0.223c-0.254,0.027-0.637-0.152-0.906-0.137c-0.746,0.047-1.441,0.266-1.629,0.344
c-0.23,0.094-0.453,0.137-0.648,0.02c-0.555-0.328-2.176-0.234-2.668,0.055c-0.582,0.246-1.238,0.25-1.715,0.004
c-0.207-0.105-0.418-0.375-0.453-0.34c-0.078,0.078-0.387,1.402-0.48,1.918c0,0.18-0.125,0.48-0.051,0.512
c0.094,0.035,0.398-0.242,0.777-0.434c0.773-0.395,1.637-0.363,3.152,0.008c1.875,0.461,2.605,0.328,3.711-0.238
c0.879-0.449,1.414-0.555,2-0.395c0.145,0.039,0.527,0.238,0.582,0.188c0.102-0.098-0.184-0.656-0.426-1.203
C121.785,59.012,121.723,58.855,121.602,58.871L121.602,58.871z M101.391,60.984c1.645,1.559,1.523,1.426,2.559,2.195l-0.047,1.504
c0,0-1.273,0.027-1.898-0.164C101.809,63.934,100.953,61,101.391,60.984L101.391,60.984z M114.926,61.996
c0.109,0.074,0.273,0.156,0.496,0.23c2.617,0.984-0.121,0.734-0.383,1.672c0,0.082,0.121,0.098,0.25,0.047
c0.898-0.355,3.094-0.582,4.09-0.391c1.297,0.438,1.379,0.137,0.133-0.516c-0.914-0.359,0.195-0.602,0.566-0.918
c0.773-0.496,0.242-0.699-0.742-0.227c-0.988,0.469-2.742,0.465-3.539,0.016c-0.355-0.18-0.699-0.348-0.863-0.359
C114.598,61.539,114.777,61.891,114.926,61.996L114.926,61.996z M104.613,63.676l1.535,1.199l-1.57-0.148L104.613,63.676z
M69.895,93.789c-0.309,0-0.563,0.254-0.563,0.563s0.254,0.563,0.563,0.563c0.308,0,0.563-0.254,0.563-0.563
S70.203,93.789,69.895,93.789L69.895,93.789z M71.942,94.355l-7.032,3.34l1.856,0.621l-0.012,1.922l1.711-0.543l0.723,1.797
L71.942,94.355z M72.25,95.93c-0.308,0-0.558,0.25-0.558,0.559c0,0.313,0.25,0.563,0.558,0.563c0.313,0,0.563-0.25,0.563-0.563
C72.813,96.18,72.563,95.93,72.25,95.93L72.25,95.93z M63.336,99.344c-0.308,0-0.558,0.25-0.558,0.559s0.25,0.563,0.558,0.563
c0.313,0,0.563-0.254,0.563-0.563S63.649,99.344,63.336,99.344L63.336,99.344z M65.5,100.387l-7.894,3.629l2.34,0.711l-0.618,2.406
l1.907-0.801l1.062,1.617L65.5,100.387z M65.731,102.113c-0.309,0-0.563,0.254-0.563,0.563s0.254,0.563,0.563,0.563
c0.308,0,0.558-0.254,0.558-0.563S66.039,102.113,65.731,102.113L65.731,102.113z M50.071,102.477
c2.968-0.004,6.296,1.125,7.433,3.664c0.301,1.27-0.945,2.027-3.613,1.297c-4.406-1.211-5.231-1.344-4.496-0.598
c0.097,0.102,0.289,0.344,0.949,0.566c1.66,0.566,4.875,1.223,5.738,1.133c1.188-0.16,2.004,0.395,1.711,1.379
c-0.336,1.121-1.875,1.582-4.187,1.254c-2.395-0.336-3.711-0.613-4.508-0.852c-1.02-0.309-1.059-0.285-0.574,0.434
c0.254,0.375,0.277,0.672,0.652,0.742c1.578-0.09,3.262,0.215,4.715,0.352c2.605,0.23,3.015,0.969,1.101,2.098
c-0.906,0.535-3.621,0.391-5.164-0.164c-1.101-0.398-3.629-0.965-2.652-0.195c0.234,0.184,0.152,0.637,0.559,0.781
c1.336,0.184,5.117,0.449,5.707,0.98c0.379,0.348-0.477,1.219-2.243,1.676c-2.652,0.504-6.621,0.293-7.671-0.422
c-1.942-3.953-0.895-10.426,2.144-12.953C46.641,102.891,48.289,102.477,50.071,102.477L50.071,102.477z M67.473,104.535
c-0.309,0-0.555,0.254-0.555,0.563s0.246,0.559,0.555,0.559c0.312,0,0.562-0.25,0.562-0.559S67.785,104.535,67.473,104.535
L67.473,104.535z M69.817,105.137l-8.149,4.059l2.063,0.613l-0.489,2.371l1.911-0.789l1.156,1.598L69.817,105.137z M69.883,107.121
c-0.312,0-0.562,0.254-0.562,0.563s0.25,0.563,0.562,0.563c0.309,0,0.559-0.254,0.559-0.563S70.192,107.121,69.883,107.121
L69.883,107.121z M74.621,111.906c-3.613,3.52-7.687,6.305-11.406,9.719l0.805-0.031l2.027-1.828l57.09-0.18l-1.336,1.945
l0.563,0.242c0,0,1.711-2.531,1.594-2.648c-12.543,0.039-22.223,0.008-35.984,0.102c-2.504-2.48-5.156-4.809-7.777-7.168
L74.621,111.906z M57.27,114.164c-0.313,0-0.563,0.25-0.563,0.559c0,0.313,0.25,0.563,0.563,0.563c0.308,0,0.554-0.25,0.554-0.563
C57.824,114.414,57.578,114.164,57.27,114.164L57.27,114.164z M131.797,114.594c4.934,3.66,10.773,8.148,15.625,10.813
c1.941,0.845,1.754,1.129-0.219,2.063c-1.941,1.207-5.168,2.758-7.859,4.116c-1.168,0.438-1.68-0.136-2.508,0.021
c-0.594,0.151-0.766,0.262-1.121,0.733c-0.582,0.771-0.426,0.743-3.543,0.603c-3.148-0.141-4.445-0.07-5.121,0.272
c-0.648,0.332-1.766,1.466-1.766,1.938c0,0.449-0.355,1.031-1.004,1.226c-0.754,0.185-1.625,0.782-1.59,1.707
c-0.199,0.7-0.629,1.009-1.008,1.392c-0.895,0.901-0.805,1.617-0.547,2.457c0.121,0.375,0.305,0.289,0.211,1.401
c-0.215,2.547-0.391,2.333,2.34,4.22l-13.938,12.145c-0.324,0.254-0.418,0.23-0.715,0.027c-1.699-1.263-2.883-3.349-3.563-5.434
c-2.355-6.488,0.52-11.816,4.34-15.074c1.324-1.134,3.105-2.477,3.598-2.816C120.605,130.266,126.863,121.574,131.797,114.594
L131.797,114.594z M59.348,115.066l-7.969,3.762l2.567,0.434l-0.489,2.215l1.86-0.703l0.98,1.871L59.348,115.066z M59.836,116.824
c-0.308,0-0.562,0.254-0.562,0.563s0.254,0.559,0.562,0.559c0.309,0,0.559-0.25,0.559-0.559S60.145,116.824,59.836,116.824
L59.836,116.824z M132.844,119.293l-0.906-2.141c0,0-2.516,6.199-3.051,8.301c2.133-1.098,8.379-4.277,8.379-4.277l-2.672-0.496
l0.301-2.43L132.844,119.293z M41.832,119.676c-0.313,0-0.563,0.25-0.563,0.559c0,0.313,0.25,0.563,0.563,0.563
c0.309,0,0.563-0.25,0.563-0.563C42.395,119.926,42.141,119.676,41.832,119.676L41.832,119.676z M44.27,120.188
c0,0-5.926,2.781-8.602,3.98l2.496,0.523l-0.437,2.43l2.254-0.879l0.91,2.402L44.27,120.188z M44.59,122.02
c-0.312,0-0.562,0.254-0.562,0.563s0.25,0.559,0.562,0.559c0.309,0,0.559-0.25,0.559-0.559S44.899,122.02,44.59,122.02L44.59,122.02
z M128.484,122.426c-0.309,0-0.559,0.246-0.559,0.559c0,0.309,0.25,0.559,0.559,0.559c0.313,0,0.559-0.25,0.559-0.559
C129.043,122.672,128.797,122.426,128.484,122.426L128.484,122.426z M138.18,122.934l-2.82,7.84l7.629-3.84l-2.07-0.566l0.012-1.941
l-1.707,0.496L138.18,122.934z M47.989,124.816c-0.309,0-0.563,0.254-0.563,0.563s0.254,0.563,0.563,0.563
c0.312,0,0.562-0.254,0.562-0.563S48.301,124.816,47.989,124.816L47.989,124.816z M131.457,124.961c-0.309,0-0.555,0.25-0.555,0.563
c0,0.309,0.246,0.555,0.555,0.555c0.313,0,0.563-0.246,0.563-0.555C132.02,125.211,131.77,124.961,131.457,124.961L131.457,124.961z
M50.328,125.535l-8.086,3.945l2.512,0.586l-0.277,2.527l2.043-1.16l1.105,2.305L50.328,125.535z M50.836,127.203
c-0.312,0-0.531,0.254-0.531,0.563s0.25,0.559,0.562,0.559c0.309,0,0.555-0.25,0.555-0.559S51.145,127.203,50.836,127.203
L50.836,127.203z M134.926,127.699c-0.309,0-0.563,0.254-0.563,0.563s0.254,0.559,0.563,0.559s0.563-0.25,0.563-0.559
S135.234,127.699,134.926,127.699L134.926,127.699z M123.781,130.277l-0.75-2.109l-2.992,7.742l8.047-3.688l-2.555-0.598
l0.047-2.023L123.781,130.277z M115.609,128.613c-0.094-0.008-0.176,0.019-0.176,0.078c0,0.18-2.055,2.187-2.055,2.187
l-23.746,0.224c0.047,0,1.977,0.535,1.977,0.535c3.113,2.488,7.996,6.902,7.996,6.902l5.895-0.234
c3.266-3.203,8.172-5.641,10.359-9.602C115.805,128.652,115.699,128.617,115.609,128.613L115.609,128.613z M137.867,130.207
c-0.309,0-0.563,0.253-0.563,0.563c0,0.309,0.254,0.559,0.563,0.559s0.559-0.25,0.559-0.559
C138.426,130.46,138.176,130.207,137.867,130.207L137.867,130.207z M119.535,132.91c-0.309,0-0.555,0.25-0.555,0.559
s0.246,0.563,0.555,0.563c0.313,0,0.563-0.254,0.563-0.563S119.848,132.91,119.535,132.91L119.535,132.91z M131.59,133.723
c1.703-0.013,3.344,0.047,3.77,0.371c2.629,2.215,1.383,12.57-1.934,13.879c-3.641,0.82-6.156,0.969-9.316-1.113
c-0.895-0.438-2.672-1.758-2.324-2.844c0.473-1.341,1.773-1.242,5.504-0.082c1.363,0.422,2.109,0.336,2.457,0.073
c0.328-0.25-0.098-0.526-0.793-0.526c-0.281-0.004-1.488-0.301-2.496-0.609c-1.418-0.438-1.828-0.566-2.746-0.618
c-1.543-0.093-1.992-0.151-1.992-1.097c0-1.766,2.453-1.996,6.969-0.961c0.539,0.121,1.516,0.258,1.758,0.254
c0.172,0.066-0.344-0.586-0.434-0.977c-0.16-0.138-0.453-0.203-1.223-0.23c-2.902-0.285-5.313-0.48-5.363-0.86
c-0.258-1.866,3.496-2.375,7.391-0.879c1,0.388,1.02,0.228,1.012-0.062c-0.012-0.539-1.688-1.481-4.156-1.453
c-2.398,0.023-2.066-1.195-0.09-2.113C128.254,133.563,129.891,133.73,131.59,133.723L131.59,133.723z M122.305,135.723
c-0.309,0-0.555,0.25-0.555,0.563c0,0.309,0.246,0.559,0.555,0.559c0.313,0,0.563-0.25,0.563-0.559
C122.867,135.973,122.617,135.723,122.305,135.723L122.305,135.723z M113.656,139.598l-0.508-2.095l-3.27,8.142l8.254-4.203
l-2.723-0.508l0.238-1.715L113.656,139.598z M109.449,142.867c-0.309,0-0.563,0.25-0.563,0.558c0,0.313,0.254,0.563,0.563,0.563
s0.559-0.25,0.559-0.563C110.008,143.117,109.758,142.867,109.449,142.867L109.449,142.867z M117.672,145.176l-0.695-1.98
l-2.773,7.086l7.039-3.145l-2.078-0.566l0.293-2.149L117.672,145.176z M112.066,145.195c-0.309,0-0.563,0.254-0.563,0.562
c0,0.31,0.254,0.563,0.563,0.563s0.559-0.254,0.559-0.563C112.625,145.449,112.375,145.195,112.066,145.195L112.066,145.195z
M113.867,147.902c-0.309,0-0.559,0.246-0.559,0.558c0,0.31,0.25,0.56,0.559,0.56c0.313,0,0.559-0.25,0.559-0.56
C114.426,148.148,114.18,147.902,113.867,147.902L113.867,147.902z M110.328,149.563l-2.375,6.711l6.617-3.203l-1.934-0.637
c0,0,0.105-1.513-0.078-1.441c-0.113,0.047-1.359,0.395-1.359,0.395L110.328,149.563z M116.219,150.363
c-0.309,0-0.563,0.25-0.563,0.558c0,0.31,0.254,0.563,0.563,0.563s0.563-0.254,0.563-0.563
C116.781,150.613,116.527,150.363,116.219,150.363L116.219,150.363z M107.449,153.594c-0.313,0-0.563,0.25-0.563,0.559
c0,0.312,0.25,0.562,0.563,0.562c0.309,0,0.559-0.25,0.559-0.562C108.008,153.844,107.758,153.594,107.449,153.594L107.449,153.594z
M109.977,156.188c-0.309,0-0.563,0.25-0.563,0.559s0.254,0.563,0.563,0.563s0.563-0.254,0.563-0.563
S110.285,156.188,109.977,156.188L109.977,156.188z M75.082,187.098c-0.304,0.047-1.093-0.672-1.246-1.013
c0.449-0.112,0.914-0.03,1.164,0.181C75.207,186.464,75.356,186.969,75.082,187.098L75.082,187.098z M77.477,186.613
c-0.11,0.82,0.398,2.305,0.304,2.656c-0.261,0.125-1.578-1.285-1.902-1.629c-0.066-0.47,0.004-1.063,0.031-1.332
C76.364,186.23,77.164,186.257,77.477,186.613L77.477,186.613z M79.848,187.023c0.277,1.815,1.078,4.738,0.953,5.723
c-0.117-0.094-1.133-1.094-1.883-2.157c-0.262-0.636-0.672-2.847-0.637-3.905C78.785,186.613,79.465,186.695,79.848,187.023
L79.848,187.023z M63.969,186.816c-0.809,0.414-1.73,0.711-2.887,0.707c-0.926-0.004-2.52-0.484-2.359-0.367
c0.422,0.754,1.523,0.359,1.547,0.851c-0.278,0.489-1.008,0.442-1.371,0.907c-0.078,0.125,0.105,0.23,0.621,0.175
c1.566-0.711,3.609-0.698,5.48-0.082c0.395,0.082,0.137-0.297,0.004-0.394c-0.246-0.18-0.644-0.367-0.984-0.406
c-1.633-0.289-0.918-0.457,0.176-0.945C65,186.969,65.199,186.25,63.969,186.816L63.969,186.816z M67.508,189.125
c-0.215,0.02-0.762,0.293-1.355,0.535c-1.008,0.406-1.942,0.313-3.293-0.066c-1.18-0.324-1.606-0.234-2.778,0.355
c-0.777,0.496-1.629,0.636-2.242,0.289c-0.801-0.453-0.793-0.297-0.398,0.824c0.097,0.276-0.098,1.125,0.25,1.319
c0.265,0.153,0.57-0.343,0.773-0.413s1.488,0.508,2.203-0.125c1.278-0.466,1.664,0.284,2.547,0.215
c1.438-0.508,2.336-1.035,3.57-0.059c0.075-0.363,0.36-2.363,0.821-2.84C67.594,189.132,67.559,189.121,67.508,189.125
L67.508,189.125z M64.891,194.887c-1.031,0.012-1.594,0.645-2.926,0.523c-1.062-0.075-1.43,0.871-0.976,1.559
c0.316,0.484,0.742,0.574,2.191-0.091c0.598-0.272,1.43-0.875,1.914-0.827c1.418,0.141,1.762,1.516,0.582,2.672
c-0.578,0.34-0.582,0.707-0.406,0.715c0.469,0.016,1.414-0.543,1.629-1.191C67.485,196.464,66.43,194.852,64.891,194.887
L64.891,194.887z M69.531,203.098c-1.347,0.284-3.285,1.827-3.945,2.827c-0.613,0.974-1.207,2.075-0.773,2.618
c0.351,0.445,0.847,0.878,0.886,1.121c0.04,0.211-0.25,0.421-0.519,0.723c-1.18,1.32-0.899,1.395,0.758,0.534
c0.836-0.433,1.226-0.608,1.777-0.464c1.594,0.418,3.582,0.121,4.934-0.375c0.609-0.227,1.207-0.531,1.254-0.375
c-2.465,2.714-5.543,2.031-6.641,1.867c-0.191-0.051-0.34-0.039-0.336,0.027c0,0.129,0.316,0.418,0.996,0.719
c1.133,0.5,3.856-0.031,5.559-1.274c3.367-2.202,5.222-4.308,2.57-3.429c-1.219,0.406-1.676,0.332-3.152-0.332
c-2.215-1.004-3.91-1.297-5.746-0.657c-2.325,0.813-0.543-1.104,2.074-2.765C69.793,203.503,69.864,203.089,69.531,203.098
L69.531,203.098z M56.992,208.824l-0.773,0.011c-0.555-1.866-1.895-1.862-2.477,0.013l-0.644-0.047
C53.731,206.473,56.125,205.992,56.992,208.824L56.992,208.824z M70.781,208.977l-0.582,0.026c-0.355-1.132-1.597-2.125-2.476-0.272
l-0.402-0.082C68.035,205.688,70.895,207.335,70.781,208.977L70.781,208.977z M66.899,207.277c0.363,0,0.453,0.41,0.043,1.078
c-0.293,0.473-0.637,0.43-0.985,0.074c-0.313-0.313-0.293-0.367,0.047-0.677C66.367,207.421,66.68,207.277,66.899,207.277
L66.899,207.277z M71.188,207.289c0.156-0.008,0.457,0.125,0.793,0.238c0.883,0.297,1.086,0.543,0.722,0.906
c-0.355,0.355-1.031,0.465-1.343,0.262c-0.016-0.445-0.454-0.789-0.469-1.235C70.891,207.339,71.028,207.293,71.188,207.289
L71.188,207.289z M57.34,207.305c0.613-0.031,1.438,0.332,1.375,0.688c-0.062,0.386-0.668,0.64-1.168,0.679
c-0.332,0.043-0.32-0.089-0.406-0.327c-0.078-0.212-0.18-0.48-0.235-0.691C56.766,207.246,57.028,207.316,57.34,207.305
L57.34,207.305z M53.153,207.438c0,0-0.344,1.02-0.497,1.371c-1.285-0.07-1.164-0.638-0.558-1.043
C52.426,207.516,52.754,207.512,53.153,207.438L53.153,207.438z M52.156,209.863c0.231,0.004,0.52,0.207,0.922,0.336
c1.137,0.367,3.024,0.324,4.496-0.016c0.704-0.16,1.036-0.379,1.192-0.27c0.273,0.199-0.012,0.895-1.027,1.343
c-1.325,0.489-3.348,0.755-4.879-0.026C51.551,210.563,51.406,209.852,52.156,209.863L52.156,209.863z M51.805,211.328
c1.203,0.793,2.406,1.043,3.891,0.902c2.222-0.078,2.621-0.355,0.746,0.641c-1.731,0.914-4.403,0.746-4.918-0.246
C51.231,212.055,51.422,211.375,51.805,211.328L51.805,211.328z M62.586,212.656c-0.008,0-0.015,0.004-0.019,0.004
c0.179,1.203,2.195,2.3,3.16,2.559c2.054,0.909,5.316,0.012,7.773-1.051c1.793-0.773,2.438-1.938,0.301-1.277
c-3.434,1.069-7.75,1.148-9.91,0.319C63.188,212.878,62.707,212.652,62.586,212.656L62.586,212.656z M51.274,217.152
c4.3,0.973,9.5,7.604,9.48,10.504h-1.387c-2.117-7.379-7.609-8.973-8.144-9.414C50.977,217.335,51.285,217.128,51.274,217.152
L51.274,217.152z M51.207,219.02c5.11,2.242,6.93,6.233,7.696,8.637h-1.497c-1.113-3.305-3.113-5.66-6.21-7.129
C50.985,220.07,51.207,219.02,51.207,219.02L51.207,219.02z M51.199,221.281c2.618,0.773,4.93,4.222,5.586,6.375l-1.308-0.008
c-0.926-2.402-2.242-3.945-4.328-4.832C51.063,222.363,51.078,221.852,51.199,221.281L51.199,221.281z M51.156,223.625
c1.231,0.246,3.313,2.16,3.614,4.031h-1.203c-0.422-1.262-1.731-2.414-2.403-2.887C51.164,224.543,51.156,223.625,51.156,223.625
L51.156,223.625z M51.281,225.625c0.133-0.082,1.969,1.57,1.661,2.031h-1.657C51.27,227.145,51.258,225.617,51.281,225.625
L51.281,225.625z M51.281,225.625"/>
<path fill="#D40000" d="M98.125,22.07c-3.117,6.039-19.113,33.234-19.273,34.18l4.094,1.813l19.89-35.852
C102.836,22.211,98.715,22.074,98.125,22.07L98.125,22.07z M145.086,44.785l-1.859,2.609l1.582,2.867l1.605-2.836L145.086,44.785z
M72.016,72.07c0,0-5.738,5.699-7.977,8.355c4.817,4.809,14.028,10.844,14.094,20.133l6.352,0.023l20.554,18.387
c0,0,18.609,0.133,18.957,0.055c0.375-0.09,6.988-9.555,6.988-9.555l11.797,8.598c0,0-0.566-9.258-1.012-14.934
c-0.148-3.797-0.273-6.129,2.5-7.813c-3.813-1.816-3.57-5.156-0.766-7.609c-0.926-1.277-2.309-1.516-2.516-6.047
c-0.582-0.625-1.137-0.992-1.867-1.523l-0.762,0.68c-2.445,2.199-4.113,4.438-4.387,5.898c-0.523,2.777,2.297,4.68,3.926,2.648
c0.461-0.57,0.871-0.41,0.871,0.336c0,1.516-1.906,2.371-3.516,1.582c-0.379-0.184-0.711-0.309-0.742-0.273
c-0.059,0.059,1.598,4.117,2.047,5.012c0.742,1.488,1.133,2.984,1.191,4.551c0.063,1.672,0.027,1.887-0.754,4.773
c-0.738,2.723-0.391,4.34,0.926,4.34c0.742,0,0.719,0.711-0.031,0.973c-1.59,0.555-2.578-0.617-2.633-3.121
c-0.035-1.523-0.063-1.563-0.844-1.195c-2.723,1.281-5.676-1.008-4.398-3.398c0.27-0.504,0.59-0.344,0.754,0.371
c0.316,1.348,1.02,1.941,2.293,1.938c2.938-0.012,4.168-4.164,2.477-8.34c-0.34-0.84-0.512-0.793-0.961,0.27
c-0.699,1.66-1.875,2.152-2.84,1.184c-0.324-0.324-0.484-0.852-0.262-0.879c0.051-0.004,0.371-0.02,0.715-0.031
c1.711-0.055,2.301-1.715,1.5-4.211c-0.707-2.195-0.813-2.59-1.023-3.781c-0.324-1.836-0.098-3.234,0.813-5.016
c0.16-0.316,1.164-1.438,2.41-2.699c1.273-1.285,2.371-2.273,2.371-2.273s-0.645-0.555-1.52-1.211
c-1.84-1.383-2.164-1.621-2.164-1.621s-8.746,24.02-8.129,33.375c-1.109,12.328-10.172,8.918-10.84,0.379L72.016,72.07z
M71.625,75.672c2.989-0.051,4.961,3.902,6.086,12.105c0.371,2.719,2.031,6.523,3.231,7.422c3.035,2.27,7.781,0.523,7.785-2.867
c0.004-4.223-5.922-4.848-6.016-0.637c-0.019,0.992-0.531,1.047-1.019,0.102c-0.434-0.844-0.043-2.418,0.804-3.215
c0.543-0.508,0.5-0.605-0.535-1.176c-3.605-1.988-5.137-4.957-3.211-6.219c0.844-0.555,1.992,0.145,1.465,0.887
c-0.824,1.16-0.836,1.344-0.144,2.309c0.785,1.098,1.714,1.641,3.918,2.293c1.851,0.547,2.156,0.648,3.011,1.039
c2.504,1.141,3.648,3.652,2.774,6.094c-0.203,0.574-0.407,1.145-0.446,1.262c-0.089,0.266,0.059,0.27,1.821,0.035
c2.805-0.375,5.918,0.629,7.453,2.395c0.828,0.953,1.488,3.09,1.512,4.871c0.004,0.344,0.109,1.117,0.238,1.723
s0.297,1.629,0.375,2.27c0.734,6.102,5.813,9.223,8.008,4.922c1.383-2.707-1.813-5.418-3.438-2.918
c-0.57,0.879-1.16,0.477-0.832-0.566c0.641-2.031,3.172-2.375,4.898-0.668c0.934,0.926,1.379,3.02,0.926,4.348
c-0.238,0.699-0.211,0.742,0.305,0.563c1.16-0.406,3.164-0.016,3.883,0.754c1.691,1.813,1.352,3.988-0.73,4.691
c-0.949,0.32-2.023-0.012-2.375-1.121c-0.152-0.793,0.391-1.02,0.813-0.34c0.789,1.277,2.504,0.246,2.102-1.258
c-0.465-1.711-1.926-2.074-4.629-1.145c-4.297,1.477-5.684,1.352-7.742-0.691c-1.469-1.457-2.02-2.719-2.414-5.5
c-0.438-3.07-0.48-3.152-1.238-2.504c-3.637,3.094-8.441-1.582-5.359-4.656c0.953-0.949,1.652-0.121,0.797,0.945
c-1.25,1.555,0.379,3.719,2.422,3.215c3.723-0.918,2.961-6.363-1.066-7.637c-1.227-0.387-4.598-0.227-7.191,0.344
c-7.243,1.59-10.442-1.504-11.934-11.52c-0.176-1.168-0.379-2.035-1.066-4.555c-0.817-2.988-3.59-4.609-5.106-2.984
c-1.207,1.297-0.57,3.043,1.109,3.047c1.676,0.004,1.161,1.152-0.586,1.309c-3.027,0.27-3.554-4.777-0.648-6.223
C70.344,75.863,71.004,75.68,71.625,75.672L71.625,75.672z M32.074,77.531l0.938,3.59l3.746,1.059l-1.187-3.414L32.074,77.531z
M41.68,78.602l-1.004,3.25l2.84-0.695l0.926-3.387L41.68,78.602z M72.489,83.922c0.593,0,1.074,0.48,1.074,1.078
c0,0.594-0.48,1.074-1.074,1.074c-0.598,0-1.079-0.48-1.079-1.074C71.41,84.402,71.891,83.922,72.489,83.922L72.489,83.922z
M36.387,85.859l-2.953,1.035l-0.57,2.574l3.089-0.797L36.387,85.859z M43.43,86.672l-2.41-0.414l0.676,2.66l2.554,1.043
L43.43,86.672z M148.16,86.469l-1.555,1.207c4.523,3.934-0.355,7.719-0.508,7.465c3.27,2.164,2.688,5.574,2.262,8.699
c-0.773,5.574-1.074,10.848-1.918,16.563c0,0,3.938,2.719,6.559,3.77c0.047,0.004,0.016-33.523,0.016-33.523L148.16,86.469z
M92.352,91.52c0.594,0,1.078,0.48,1.078,1.078c0,0.594-0.484,1.074-1.078,1.074s-1.078-0.48-1.078-1.074
C91.273,92,91.758,91.52,92.352,91.52L92.352,91.52z M26.231,94.277l0.136,31.285l6.477-11.582l-4.457-5.137l3.852-4.113
L26.231,94.277z M89.289,99.043c0.598,0,1.078,0.484,1.078,1.078s-0.48,1.078-1.078,1.078c-0.593,0-1.074-0.484-1.074-1.078
S88.696,99.043,89.289,99.043L89.289,99.043z M103.992,102.246c0.594,0,1.078,0.48,1.078,1.074c0,0.598-0.484,1.078-1.078,1.078
s-1.078-0.48-1.078-1.078C102.914,102.727,103.398,102.246,103.992,102.246L103.992,102.246z M146.109,137.098l4.758,4.883
l-3.719,4.625l5.852,9.93l-0.094-30.719L146.109,137.098z M26.172,126.82l0.227,33.652l5.086,3.711l1.289-1.22
c-3.282-3.504-1.321-6.112,1.152-7.62c-4.363-1.02-3.039-6.809-2.777-9.492c-0.11-4.98,1.718-10.664,1.156-15.453L26.172,126.82z
M55.469,131.5l-7.293,10.156c0,0-8.012-6.067-12.051-8.805c0.434,4.383,0.828,9.977,1.364,14.691c1.312,6.883-2.098,7-2.133,7.66
c5.422,4.113,0.871,7.961,0.058,7.77c2.887,1.57,2.649,6.344,2.649,6.344l1.367,0.777c0,0,0.445-0.273,0.637-0.375
c1.461-0.789,3.847-3.594,4.394-5.445c0.93-3.142-1.801-5.75-3.515-3.363c-0.84,1.172-1.516,0.386-0.825-0.961
c0.629-1.235,2.274-1.852,3.368-1.266c0.636,0.34,0.496-0.543-0.489-3.016c-0.328-0.833-0.597-1.738-1.062-3.57
c-0.449-1.777-0.274-3.918,0.504-6.095c1.125-3.14,0.726-5.108-1.071-5.28c-0.961-0.095-1.066-0.395-0.281-0.836
c1.746-0.988,3.438,0.418,3.367,2.805c-0.035,1.289-0.023,1.312,0.66,1.039c3.446-1.383,6.164,2.19,3.758,4.934
c-0.738,0.839-1.199,0.309-0.715-0.82c0.746-1.738,0.036-2.977-1.714-2.992c-2.543-0.02-3.95,3.492-2.95,7.352
c0.313,1.207,0.36,1.223,1.203,0.418c0.75-0.715,1.309-0.946,1.891-0.77c1.203,0.358,1.52,1.637,0.367,1.48
c-1.984-0.273-2.504,1.8-1.383,5.492c1.489,4.898-0.019,8.886-4.418,11.727c-0.222,0.141-0.574,0.418-0.574,0.418
c1.696,1.512,2.782,2.37,5.024,3.734l8-32.34c0,0-0.133-1.836-0.328-2.699c-0.008-8.68,8.089-9.512,10.625-1.633
c0.242,0.758,1.531,2.691,1.531,2.691l42.164,37.414c0,0,7.871-7.605,7.766-7.809c-5.98-6.027-14.059-10.285-14.352-19.852
c-1.434-0.039-6.223,0.047-6.223,0.047l-20.504-18.801C67.852,131.762,62.145,131.301,55.469,131.5L55.469,131.5z M66.957,132.203
c1.125-0.035,2.262,0.55,2.262,1.488c0,0.812-0.543,0.996-0.996,0.34c-0.625-0.918-1.356-0.992-2.098-0.211
c-2.058,2.164,1.141,4.14,4.817,2.976c2.25-0.711,3.339-0.901,4.164-0.737c3.476,0.694,5.152,3.039,5.449,7.605
c0.148,2.32,0.144,2.313,1.148,1.391c2.446-2.238,5.977-0.992,6.524,2.305c0.238,1.418-1.285,3.199-2.735,3.199
c-0.566,0-0.476-0.595,0.137-0.888c1.473-0.702,1.531-3.022,0.098-3.929c-1.899-1.207-4.399,0.672-4.367,3.281
c0.035,3.133,2.375,4.578,7,4.312c0.675-0.039,2.375-0.121,3.773-0.179c2.207-0.094,4.582-0.508,6.832,1.191
c2.355,1.871,3.922,5.598,4.59,10.98c1.055,6.629,1.867,8.402,4.094,8.563c1.32,0.094,2.438-1.031,2.438-2.336
c0-0.923-1.219-1.734-2.141-1.43c-1.117,0.371-1.344-0.84-0.242-1.297c1.52-0.637,3.383,0.59,3.797,2.504
c0.238,1.113-1.02,3.253-2.34,3.789c-3.445,1.395-5.895-1.453-6.703-7.82c-0.492-2.923-0.766-4.891-1.676-7.387
c-1.672-4.594-4.418-6.493-7.41-5.118c-3.386,1.556-2.715,6.625,0.875,6.591c1.969,0.156,2.383-1.293,2.426-2.844
c0.043-1.145,1.34-0.07,1.453,0.719c0.105,0.952-0.75,2.137-1.508,2.695c-1.223,0.816-0.785,0.766,0.465,1.094
c3.355,0.62,5.852,5.066,3.844,6.574c-1.043,0.637-2.152-0.301-1.426-1.219c1.148-1.465-0.797-3.774-4.34-4.551
c-4.641-1.017-6.488-4.469-4.816-8.021c0.555-1.175,0.602-1.147-1.66-1.019c-4.981,0.281-6.75-0.406-8.422-3.293
c-0.504-0.871-0.727-2.035-0.836-4.353c-0.191-4.144-0.57-6.711-1.09-7.433c-2.586-3.574-7.969-2.504-7.297,1.453
c0.356,2.078,2.5,2.742,3.969,1.229c1.106-1.144,1.621-0.082,0.543,1.114c-2.602,2.879-7.129-0.48-5.785-4.293
c0.308-0.871,0.351-0.844-1.317-0.891c-3.714-0.105-5.48-3.281-3.085-5.543C65.781,132.41,66.364,132.223,66.957,132.203
L66.957,132.203z M75.91,145.835c0.594,0,1.079,0.485,1.079,1.079c0,0.593-0.485,1.078-1.079,1.078
c-0.593,0-1.078-0.485-1.078-1.078C74.832,146.32,75.317,145.835,75.91,145.835L75.91,145.835z M90.832,149.66
c0.594,0,1.078,0.484,1.078,1.078s-0.484,1.078-1.078,1.078c-0.593,0-1.078-0.484-1.078-1.078S90.239,149.66,90.832,149.66
L90.832,149.66z M87.629,156.688c0.594,0,1.078,0.483,1.078,1.078c0,0.598-0.484,1.078-1.078,1.078c-0.594,0-1.078-0.48-1.078-1.078
C86.551,157.171,87.035,156.688,87.629,156.688L87.629,156.688z M135.051,160.878l0.68,3.185l2.473,0.651l-0.387-2.729
L135.051,160.878z M143.695,161.98l-0.051,1.891l2.199,0.257l0.777-3.257L143.695,161.98z M106.777,164.832
c0.594,0,1.078,0.484,1.078,1.078c0,0.593-0.484,1.078-1.078,1.078s-1.078-0.485-1.078-1.078
C105.699,165.316,106.184,164.832,106.777,164.832L106.777,164.832z M138.359,169.223l-2.586,0.715l-1.242,3.59l3.309-1.195
L138.359,169.223z M143.414,169.543l0.32,2.66l3.184,1.441l-1.078-3.793L143.414,169.543z M96.473,192.219l-19.77,35.741
l5.403-0.073l18.66-33.703L96.473,192.219z M34.293,200.871l-1.75,2.352l1.66,2.727l1.903-2.739L34.293,200.871z M34.293,200.871"/>
<path d="M12.797,9.445c-2.433,0.012-4.879,1.648-5.566,4.84c-0.153,0.711-0.215,1.941-0.266,5.387
c-0.078,5.109-0.125,4.695-0.125,4.695l-2.191-0.055l0.117,2.844l2.336,0.02c-0.012,0.012-0.051,0.168,0.019,1.773
c0.188,4.004,0.813,5.426,3.078,6.5c1.536,0.727,4.372,0.723,5.657-0.285c0.777-0.492,0.855-0.488,1.777,0.082
c1.961,1.211,3.578,0.555,3.578,0.555l-0.055-2.91c-3.089-0.047-3.503-0.777-2.691-2.789c0.055-0.141,0.063-0.402,0.086-0.746
c0.23-3.238,0.137-14.152-0.223-15.453C17.52,10.973,15.086,9.434,12.797,9.445L12.797,9.445z M12.531,12.309
c1.114,0.004,2.247,0.754,2.762,2.156c0.547,1.48,0.539,1.352,0.696,10.477c0.078,4.488-0.11,4.473-0.11,4.473
c-1.723-2.285-3.902-3.969-6.293-4.762c0,0,0.047,0.211,0-4.215c-0.047-4.57,0.012-5.555,0.692-6.746
C10.817,12.746,11.668,12.301,12.531,12.309L12.531,12.309z M67.887,21.176c3.641,11.039,3.98,21.914,0.82,32.367
c1.801,0.09,9.653,2.105,13.977,4.773c-0.801,2.055-13.055,17.125-21.375,23.918c2.367,2.344,4.969,4.684,7.703,7.266
c4.137,3.922,5.598,6.625,5.871,11.719c-0.039,2.461-0.918,5.496-2.484,7.645c-1.188,1.625-2.442,2.875-4.965,4.543
c-2.324,1.543-5.727,4.855-10,9.746c-1.633,1.863-4.383,5.258-6.66,8.492c-0.864,1.176-3.399,4.848-3.399,4.848
c-8.469-6.907-17.535-12.238-17.765-12.195c0,0,9.144-4.875,11.07-5.871c1.476,0.949,3.484,0.137,2.519-1.949
c-1.851-4.75-0.558-9.641,1.715-13.051c0.547-0.824,1.856-1.305,3.977-1.453c0.922-0.059,1.894-0.027,2.871-0.039
c0.352,0,1.301,0.133,1.82,0.418c1.731,0.945,2.074-0.27,3.153-4.359c1.074-4.066-0.653-9.211-3.114-9.227
c-0.578-0.004-0.906,0.207-0.785,1.656c0.09,1.09-0.172,1.656-0.453,2.348c-0.617,1.504-0.941,2.973-1.137,4.934
c0.36,0.074-2.285-2.633-6.453-3.703c-2.711-0.32-4.086-3.695-3.972-3.703c0,0,0.406-0.91,0.761-1.27
c0.926,0.445,1.836,0.965,2.934,1.285c0,0-0.254-1.352-0.352-1.719c-0.504-1.883-0.476-2.172,0.25-2.563
c1.801-0.969,1.992-2.703,0.586-4.281c-0.355-0.402-0.656-0.66-1.133-0.863l0.891-3.539c0,0-0.816,0.172-1.465,0.371
c-1.887,0.574-1.746,0.594-2.547-0.324c-1.75-1.988-4.418-1.609-4.816,0.688c-0.047,0.254-0.164,0.656-0.164,0.656l-4.016-1.949
c0.117,0.941,1.16,4.137,1.16,4.137c-3.515,2.73-0.546,5.148,0.414,5.402c0,0-0.82,2.613-1.105,3.703l3.965-1.137
c0.336,0.758,0.746,1.332,1.57,1.859c0.215,2.23,1.934,4.031,3.117,5.113c0,0,0.172,0.816,0.071,1.336
c-0.258,1.297,1.062,3.352,1.285,3.477c-5.442-2.227-11.117-4.898-16.594-7.523l0.344,67.316c0,0,1.273,1.145,3.804,2.957
c1.215,0.866,1.215,0.871,0.961,1.875c-0.332,1.323-0.25,2.332,0.879,11.043c0.598,4.602,1.246,9.379,1.828,13.664
c0.336,2.445,0.27,2.695-0.578,2.34c-0.968-0.402-2.39-0.109-3.035,0.625c-1.57,1.789-0.316,4.664,2.012,4.605
c0.527-0.036,0.887-0.188,1.34-0.497c0.883-0.472,0.742,0.099-0.477,1.974c-2.746,4.223-2.601,3.648-1.441,5.672
c2.203,3.854,2.777,4.754,2.922,4.906c0.179,0.188,0.316-0.23,1.14-1.746c0.442-0.806,1.196-2.216,1.821-3.306
c1.257-2.194,1.285-1.78-0.309-4.667c-1.711-3.094-1.754-3.266-0.727-2.75c0.391,0.195,0.914,0.344,1.278,0.367
c2.019,0.016,2.437-0.907,2.648-2.566c0-2.137-1.699-3.102-4.039-2.298c-0.367,0.125-0.773,0.161-0.773,0.161l2.457-23.477
L39,170.32l0.434-0.235l-1.153-0.979c0.25-3.762-0.988-5.094-2.332-6.004c4.485-2.551,2.543-6.582-0.437-7.82
c0,0,1.934-1.133,2.324-2.321c0.328-1.062,0.207-2.741-0.168-5.726c-0.281-4.606-1.269-14.113-1.269-14.113
c3.914,2.953,7.933,6.113,11.715,9.098l7.582-10.531l18.261,0.125c0,0,13.883,12.605,20.872,19.031l6.031,0.055
c0,0,0.066,0.645,0.129,1.074c0.57,6.223,4.746,10.496,8.547,13.496c1.551,1.391,5.379,5.047,5.379,5.047l-7.098,7.152
l-43.465-38.816c0,0-0.207-0.566-0.289-0.914c-1.004-4.109-3.731-5.832-6.207-5.543c-2.598,0.305-4.817,2.862-4.703,7.223
c0.015,0.672,0.261,1.859,0.261,1.859l-7.941,33.073c0,0-3.176-2.425-4.891-3.59l-0.375,0.22l4.645,3.491l0.347-0.147l1.321,1.031
l0.097,0.702c4.067,2.767,10.961,7.931,10.961,7.931c3.254-2.418,6.676-1.613,10.102-0.703c0,0,2.492,0.836,3.816,0.828
c6.735,0.151,12.696,1.461,18.953,3.719l-22.812,40.441l43.457,0.086c-2.145-8.461-4.418-17.059-0.352-31.496
c-4.285-0.867-13.813-4.681-13.813-4.681s-0.047-0.214,0.355-0.711c1.762-2.519,6.219-9.347,10.391-13.293
c0.508-0.366,7.785-7.425,7.855-7.647c0.039-0.125,0.215-0.603,0.5-0.789c0.672-0.449,2.453-2.133,2.453-2.133l-9.105-7.898
c0,0-0.398-0.035-0.527-0.109c-1.273-0.712-3.566-4.676-4.133-7.332c-1.301-6.109,1.102-10.938,7.875-15.895
c6.613-4.531,19.152-22.109,19.195-22.496c6.762,5.598,12.043,8.496,17.992,12.168c-3.594,2.063-6.527,3.438-9.039,4.804
c-1.633,0.931-1.859,1.125-3.238,0.735c-0.781-0.129-1.492,0.175-1.68,0.711c-0.16,0.457-0.172,1.156-0.02,1.25
c2.363,3.734,1.352,12.438-1.848,14.113c-2.773,1.453-5.473,1.062-7.703,0.234c-1.723-0.551-1.699-0.555-2.465,1.004
c-1.691,3.598-1.797,6.625-0.238,10.07c1.277,2.77,3.176,4.031,3.41,0.301c0.137-2.191,1.105-4.755,1.074-7.109
c1.938,2.141,3.223,3.121,6.402,3.992c2.137,0.332,4.402,3.008,4.332,4.098c-0.586,0.594-0.766,1.347-0.859,1.293
c-1.039-0.34-3.289-1.297-3.289-1.297l0.957,3.387c0,0-0.156,0.152-0.621,0.387c-2.117,1.082-1.98,4.004,0.242,5.172
c0.453,0.237,0.488,0.352,0.293,0.973c-0.273,1.39-0.883,2.32-1.211,3.699c0,0,0.305,0.008,2.84-1.164l0.996-0.461l0.602,0.641
c1.313,1.406,2.891,1.398,4.27-0.02l0.629-0.652l1.762,0.895c1.66,0.84,2.098,1.016,2.098,1.016s-0.957-3.715-1.137-4.141
c-0.094-0.23-0.289-0.462-0.434-0.516c-0.234-0.086-0.199-0.145,0.43-0.641c1.598-1.267,1.758-3.017,0.398-4.34
c-0.52-0.509-0.586-0.613-0.586-0.613l0.828-3.441l-3.43,1.137c-0.543-1.152-1.402-1.677-1.945-1.91
c-0.059-1.556-0.254-3.152-2.922-5.582c0.898-0.82-0.172-2.801-1.051-3.988c1.5,0.504,5.258,2.094,5.258,2.094l0.566-0.023
l1.793,0.858l0.211,0.321c0,0,5.641,2.66,8.23,3.906c-0.004-0.138-0.023-2.926-0.031-33.602c-0.008-18.289,0.023-33.332-0.012-33.43
c-0.039-0.098-0.656-0.57-1.301-1.059c-1.188-0.895-1.434-1.07-2.941-2.078c-1.207-0.805-1.129-0.801-0.875-1.73
c0.289-1.066,0.281-2.535-0.102-5.289c-0.281-2.031-1.305-9.176-2.02-14.941c-0.5-4.043-0.617-4.941-0.742-5.594
c-0.199-1.637,0.016-2.352-0.02-2.375c5.664,2.453,6.113-5.684,0.434-4.586c0,0,0.664-1.316,2.023-3.633
c1.176-2.008,1.164-1.82,0.234-3.461c-0.438-0.77-1.07-1.926-1.41-2.57c-0.895-1.699-1.723-2.746-1.723-2.746l-4.152,7.227l2.445,5
c0,0-0.383,0.055-0.719-0.008c-2.109-0.398-3.586,1.766-3.063,3.383c0.563,1.625,2.121,2.078,3.492,1.426
c1.055-0.418,1.055-0.523,0.117,7.402c-0.277,2.344-1.508,13.309-1.676,14.938c-0.113,1.098-0.184,1.402-0.629,1.16
c-0.605-0.262-0.953-0.641-1.559-1.039l-0.34,0.316c0.539,0.434,1.18,1,1.832,1.602c-0.152,2.902-0.094,4.586,2.324,6
c-4.379,2.746-1.82,6.973,0.754,7.582c-1.531,0.395-3.047,2.367-2.68,6.289l1.242,16.152l-11.875-8.816l-6.969,9.973l-18.367,0.023
l-20.715-18.691c0,0-4.543-0.063-6.406-0.105c0.211-0.102-0.391-5.781-3.387-9.488c-3.258-3.875-10.676-10.27-10.672-10.27
l7.789-7.91l43.735,39.363c0,0,0.215,1.117,0.324,1.59c1.461,6.215,8.535,6.59,10.035,0.262c0.246-1.023,0.539-3.402,0.43-3.684
c-0.035-0.094,0.184-1.129,0.488-2.309c2.352-9.223,4.352-17.176,6.668-26.027c0.316-1.219,0.656-2.578,0.75-3.02
c0.379-1.793,0.324-1.785,2.203-0.367c1.152,0.867,1.625,1.176,1.625,1.176l0.367-0.379c-1.293-1-3.5-2.594-3.5-2.594l0.023-0.676
c-7.102-5.086-8.566-6.438-12.77-9.77c-3.258,2.871-7.918,1.707-10.836,0.695c-0.754-0.297-2.602-0.777-2.602-0.777
c-7.273,0.008-13.66-1.395-19.695-3.367l23.265-41.434l-8.984,0.004l-0.316,0.352h-4.676l-0.016-0.352H67.887z M153.688,157.438
c0.004,0.026,0.004,0,0.004,0H153.688z M94.41,22.113l3.18,0.063l-18.828,33.59l-2-0.781c0,0,0.184-0.098,0.184-1.512
c-0.004-1.52-0.332-2.168-1.016-3.066c-0.574-0.777-0.82-0.82,0.859-0.59c3.434,0.473,5.871-3.258,4.508-6.172
c-0.523-1.125-0.449-1.191,0.942-1.332c3.828-0.383,5.316-5.238,2.605-7.66c-0.559-0.504-0.309-0.828,0.738-0.602
c3.313,0.715,5.875-2.961,4.559-5.836c-0.426-0.805-0.043-0.938,0.563-1.016C93.539,26.535,94.504,24.305,94.41,22.113L94.41,22.113
z M69.035,22.117l14.739,0.004c-1.985,3.031,1.515,4.828,1.961,4.617c-3.176,1.734-2.305,4.18-0.657,5.02
c1.598,0.816,3.996,0.082,3.356-3.449l0.789-0.34c0.766,0.867,1.527,6.238-4.32,5.492c-1.039-0.133-1.606,0.84-0.735,1.379
c4.621,5.313-2.613,7.656-2.926,6.777l-0.027-0.898c1.957,0.359,4.461-2.164,2.266-4.402c-1.246-1.273-4.867-0.652-4.246,3.211
c-2.141-3.191-4.473-2.23-5.102-0.543c-0.488,1.309,0.133,3.098,2.266,3.402c-2.383,1.996-1.227,4.223,0.41,4.715
c1.808,0.543,3.652-0.195,3.156-3.477c0.027-0.313,0.656-0.211,0.711-0.227c1.867,4.66-2.598,6.375-5.008,5.41
c-0.894-0.348-1.363,1.031-0.414,1.734c1.442,1.063,0.996,4.125,0.828,4.156c-2.679-1.016-6.515-1.766-6.371-1.707
C72.27,42.871,72.106,32.586,69.035,22.117L69.035,22.117z M92.531,22.121l1.332,0.004c0.016,1.906-0.813,4.25-4.063,4.613
c0.016-0.512-0.023-0.996-0.156-1.535C90.867,24.926,92.484,25.266,92.531,22.121L92.531,22.121z M98.344,22.223l4.25,0.02l-20,35.5
l-3.195-1.641L98.344,22.223z M87.86,24.918c0.75,0,1.359,0.605,1.359,1.355c0,0.754-0.609,1.363-1.359,1.363
c-0.754,0-1.36-0.609-1.36-1.363C86.5,25.523,87.106,24.918,87.86,24.918L87.86,24.918z M46.164,25.539
c-3.203,8.301-9.363,13.332-13.847,21.684c-4.684,8.488-2.539,15.801,4.074,17.156c3.484,0.715,7.558-2.68,8.082-6.371
c0.125-0.879,0.277-1.133,0.691-1.133c0.606,0,0.539,1.539,0.157,3.621c-0.922,5.523-2.821,8.883-4.266,10.945l11.484-0.098
c-2.332-2.805-4.125-6.586-4.508-11.254c-0.281-2.539-0.074-3.656,0.739-3.219c0.265,0.141,0.336,0.395,0.453,1.707
c0.418,4.551,5.183,7.035,9.035,5.031c5.32-2.813,5.176-8.074,3.953-11.906C58.535,41.672,50.422,35.074,46.164,25.539
L46.164,25.539z M11.074,28.684c1.379,1.168,2.747,2.488,3.688,3.66c-1.32,0.945-2.711,1.004-3.566,0.531
c-0.961-0.531-1.375-1.762-1.469-3.828C9.676,27.898,10.082,27.844,11.074,28.684L11.074,28.684z M12.731,39.66
c0.039-0.012-2.078,4.32-3.629,6.652c-1.11,2.051-3.844,5.621-3.11,8.477c0.848,2.969,4.02,3.727,5.707,1.441
c0.793-1.07,0.961-0.945,0.942,0.254c-0.02,2.289-1.235,3.59-2.125,4.715l5.801,0.043c-1.231-1.477-2.336-2.703-2.461-4.707
c0.004-0.754,0.226-1.305,0.758-0.488c0.597,0.582,1.105,1.652,2.738,1.352c1.691-0.301,3.172-2.5,2.832-4.629
c-0.457-2.477-2.004-4.91-3.559-7C15.324,44.027,12.684,39.746,12.731,39.66L12.731,39.66z M79.332,40.398
c0.696,0,1.258,0.563,1.258,1.258s-0.562,1.262-1.258,1.262c-0.695,0-1.258-0.566-1.258-1.262S78.637,40.398,79.332,40.398
L79.332,40.398z M145.172,41.402l3.387,5.891l-3.863,6.84l-3.223-6.555L145.172,41.402z M145.109,43.41l-2.379,3.93l2.16,4.027
l2.461-3.828L145.109,43.41z M145.156,45.094l1.23,2.379l-1.496,2.41l-1.242-2.551L145.156,45.094z M141.875,53.078
c0.258,0.004,0.531,0.059,0.813,0.176c2.281,0.953,1.555,4.418-0.883,4.203c-0.32-0.031-0.742-0.195-1.047-0.402
C139.066,55.668,140.082,53.074,141.875,53.078L141.875,53.078z M147.449,53.145c1.996,0.035,3.195,2.813,1.098,4.109
c-1.016,0.563-2.527,0.223-3.125-0.781c-0.512-0.859-0.289-2.293,0.855-3.039C146.684,53.227,147.082,53.141,147.449,53.145
L147.449,53.145z M144.68,57.105c0.199,0.016,0.418,0.984,0.617,2.664c0.07,0.609,0.266,2.133,0.43,3.387
c0.164,1.25,0.332,2.664,0.371,3.137c0.043,0.477,0.098,0.949,0.129,1.055s0.113,0.742,0.184,1.418
c0.074,0.672,0.176,1.637,0.23,2.145s0.191,1.59,0.305,2.402c1.152,8.387,1.414,11.063,1.145,11.777
c-0.73,2.5-4.141,2.691-5.566,1.238c-1.078-1.098-1.238-2.305-0.813-5.445c0.246-1.816,0.344-2.73,1.066-9.664
c0.168-1.625,0.41-3.785,0.539-4.801c0.133-1.016,0.273-2.234,0.316-2.707c0.043-0.477,0.16-1.5,0.254-2.277
c0.098-0.781,0.355-2.328,0.426-2.949C144.418,57.527,144.543,57.094,144.68,57.105L144.68,57.105z M88.789,63.336
c0,0,10.93,3.602,19.247,3.438c1.219,0,1.418-0.012,2.938,0.484c0.902,0.297,2.32,0.695,3.152,0.887
c2.563,0.496,4.816,0.355,6.813-0.457c0.313-0.129,0.773-0.516,1.238-0.375c0.285,0.086,0.695,0.652,0.695,0.652
c-7.281,1.934-24.313,1.574-34.918-2.895L88.789,63.336z M144.945,64.48c-0.047,0.008-0.094,0.07-0.145,0.156
c-0.18,0.281-0.031,2.125,0.629,7.996c1.266,11.215,1.258,11.457-0.273,12.633c-0.754,0.582-0.871,0.813-0.508,1.023
c0.27,0.156,0.25,0.156,0.797,0.004c1.289-0.355,1.824-1.379,1.813-3.469c-0.008-1.594-0.027-1.785-0.523-5.695
c-0.172-1.355-0.406-3.266-0.523-4.25C145.383,65.895,145.191,64.441,144.945,64.48L144.945,64.48z M87.688,65.656
c10.882,3.895,22.253,5,35.957,2.895c0,0,1.316,0.855,1.98,1.273l-0.461,0.109l0.207,1.891l2.328-0.371c0,0,1.258,1,2.195,1.617
c-12.219,3.73-31.953,3.086-44.129-2.324c-0.465-0.27-0.735-0.48-0.735-0.48c0.262-0.648,0.579-1.031,0.903-1.391l2.222,0.637
l0.645-2.027l-1.699-0.621L87.688,65.656z M90.539,68.082l-0.711,1.996l3.106,0.926l0.531-2.039L90.539,68.082z M95.293,69.316
l-0.41,2.273L98,72.168l0.391-2.211L95.293,69.316z M100.457,70.383l-0.246,2.191l3.309,0.352l0.203-2.219L100.457,70.383z
M123.195,70.418l-2.816,0.309l0.176,1.93l2.848-0.336L123.195,70.418z M118.23,70.977l-2.793,0.184l0.094,2.023l2.809-0.176
L118.23,70.977z M105.645,71.02l-0.004,2.148l2.863,0.109l0.035-2.199L105.645,71.02z M113.516,71.289l-2.637,0.012l-0.012,2.043
l2.664,0.012L113.516,71.289z M82.918,71.648c0.285-0.008,0.934,0.625,1.203,1.336c0.532,1.395,0.289,2.941-0.543,3.453
c-1.125,0.699-2.453-0.395-1.675-1.379c0.136-0.176,0.359-0.352,0.492-0.395c0.582-0.184,0.715-1.098,0.402-2.676
C82.75,71.754,82.809,71.652,82.918,71.648L82.918,71.648z M87.137,72.184c11.781,3.855,25.145,5.152,38.918,2.332
c0,0-6.527,26.648-6.668,26.66L87.137,72.184z M81.364,72.266c0.621,0,0.734,1.051,0.171,1.609
c-0.711,0.715-2.074,0.141-1.789-0.754C79.828,72.863,80.953,72.266,81.364,72.266L81.364,72.266z M84.75,72.883
c0.129-0.008,0.371,0.246,0.758,0.766c1.324,1.781,1.426,3.773,0.242,4.68c-1.39,1.063-2.406-0.586-1.246-2.027
c0.297-0.375,0.344-1.063,0.164-2.59C84.606,73.168,84.621,72.895,84.75,72.883L84.75,72.883z M130.422,73.527
c0.152-0.008,0.422,0.113,0.965,0.375c0.844,0.414,1.137,1.02,0.73,1.508c-0.594,0.711-2.211-0.695-1.906-1.656
C130.258,73.605,130.305,73.531,130.422,73.527L130.422,73.527z M129.152,74.453c0.215,0.02,0.551,0.41,0.945,1.195
c0.25,0.508,0.398,0.652,0.82,0.805c1.008,0.363,1.195,1.406,0.309,1.715c-0.961,0.336-1.68-0.355-2.117-2.047
C128.816,75.008,128.883,74.426,129.152,74.453L129.152,74.453z M87.02,75.199c0.144-0.008,0.426,0.32,0.867,0.973
c1.316,1.945,0.863,5.676-0.793,6.543c-0.734,0.387-1.242,0.305-1.828-0.281c-0.86-0.859-0.649-1.539,0.625-2.008
c1.086-0.398,1.437-1.629,1.101-3.875C86.86,75.652,86.852,75.211,87.02,75.199L87.02,75.199z M93.289,75.816
c8.043,6.633,15.305,13.742,24.668,22.047c2.223-6.84,5.461-21.039,5.473-21.086C123.074,77.07,107.707,79.25,93.289,75.816
L93.289,75.816z M123.43,76.777c0.008-0.008,0.008-0.012,0.004-0.016L123.43,76.777L123.43,76.777z M128.418,75.836
c0.137,0,0.523,0.996,0.742,1.906c0.203,0.824,1,2.207,1.305,2.258c1.586,0.27,2.262,1.152,1.477,1.938
c-0.574,0.574-1.816,0.246-2.418-0.633C128.395,79.652,127.625,75.836,128.418,75.836L128.418,75.836z M38.664,76.75
c0.957,0.008,1.875,0.609,2.11,1.855c0.269,1.445-0.551,2.496-1.243,2.328c-0.75-0.281-1.007-1.473-1.007-1.473
s-0.18,0.973-0.489,1.465c-0.671,1.027-2.089-0.5-1.836-1.984C36.446,77.496,37.578,76.742,38.664,76.75L38.664,76.75z
M95.918,77.129c8.758,1.316,16.297,1.66,26.746,0.523l-4.926,19.121L95.918,77.129z M89.301,77.16
c0.129,0.012,0.395,0.242,0.813,0.684c1.359,1.438,1.753,3.434,0.867,4.426c-0.539,0.605-0.899,0.672-1.473,0.281
c-0.73-0.5-0.785-1.254-0.117-1.602c0.617-0.316,0.676-1.02,0.187-2.344C89.215,77.613,89.11,77.148,89.301,77.16L89.301,77.16z
M32.153,77.652l3.199,1.328l1.144,2.703l-3.191-0.82L32.153,77.652z M44.254,78.012l-0.949,2.691l-2.465,0.922l0.957-2.914
L44.254,78.012z M127.742,78.578c0.117-0.004,0.293,0.34,0.508,1.043c0.527,1.742,0.754,2.18,1.234,2.41
c0.785,0.375,0.844,1.328,0.102,1.668c-0.473,0.215-0.629,0.168-0.965-0.27c-0.52-0.688-0.941-2-1.016-3.176
C127.531,79.152,127.59,78.578,127.742,78.578L127.742,78.578z M92.113,79.793c0.09-0.008,0.227,0.129,0.43,0.371
c1.242,1.477,1.379,3.742,0.266,4.422c-1.078,0.656-2.586-0.699-1.648-1.48c0.086-0.07,0.281-0.227,0.438-0.348
c0.262-0.199,0.285-0.316,0.309-1.598C91.922,80.203,91.957,79.805,92.113,79.793L92.113,79.793z M101.559,79.949l15.324,13.926
l3.516-13.773C114.348,80.645,108.023,80.48,101.559,79.949L101.559,79.949z M63.918,80.652c4.84,5.109,11.176,9.242,12.68,14.324
c2.695,6.996,0.719,15.113-5.594,19.758c-3.484,2.637-6.898,5.41-9.738,8.762c-4.664,4.964-7.774,10.386-10.887,14.32
c-0.531,0.66-1.922,2.742-1.922,2.742s-0.679,0.776-2.957-1.133c-6.043-5.371-12.383-9.266-18.836-12.977l2.731-1.527
c5.39,3.07,12.09,7.445,18.113,12.538c0,0,4.793-6.996,6.32-9c2.219-2.878,3.774-4.729,5.84-6.956
c5.274-6.508,10.719-8.664,12.985-11.961c3.316-4.828,3.461-10.551,0.73-15.441c-2.691-4.66-7.926-7.859-11.402-11.719
L63.918,80.652z M109.867,81.027h5.988c0,0-0.879,0.734-1.555,1.184c-0.422,0.285-0.918,0.246-1.852-0.145
C111.543,81.688,109.867,81.027,109.867,81.027L109.867,81.027z M116.723,81.027l1.398,0.043c-1.043,1.313-2.113,2.156-3.516,3.324
c-0.184,0.078-0.281,0.109-0.703-0.027c-2.863-0.949-5.492-2.152-8.281-3.289l2.488-0.012c0,0,1.195,0.383,2.992,1.125
c2.059,0.855,2.594,1.121,3.387,0.598C115.254,82.281,115.891,81.512,116.723,81.027L116.723,81.027z M119.551,81.027l-0.5,1.836
c-0.836,1.043-2.523,2.246-3.934,3.43c-0.332,0.172-0.32,0.203-1.766-0.355c-5.324-2.07-7.898-3.414-7.898-3.414l-1.082-0.965
c0,0,1.391,0.398,2.305,0.758c0.625,0.246,1.688,0.648,2.367,0.898c0.676,0.254,2.172,0.887,3.172,1.281
c2.305,0.91,2.18,0.938,4.387-1.012C118.992,81.375,119.551,81.027,119.551,81.027L119.551,81.027z M38.895,81.195l2.324,2.664
l-3.098,2.605l-2.34-2.754L38.895,81.195z M127.055,81.199c0.535,1,0.895,2.184,1.762,3.023c0.652,0.625,0.816,1.105,0.426,1.457
c-1.008,0.625-1.184-0.387-1.496-1.043C127.195,83.473,126.523,81.902,127.055,81.199L127.055,81.199z M43.035,81.465
c0.059,0,0.118,0,0.18,0c2.477,0.039,3.063,3.699,0.731,4.578c-0.836,0.316-1.797,0.172-2.317-0.344
c-0.504-0.504-0.574-0.93-0.226-1.191c0.535-0.383,1.816-0.41,1.816-0.41s-1.164-0.395-1.68-0.684
C40.52,82.836,41.403,81.531,43.035,81.465L43.035,81.465z M94.047,81.469c0.141,0.008,0.383,0.293,0.723,0.859
c1.25,2.063,1.184,5.992-0.117,6.984c-0.68,0.52-1.523,0.445-2.09-0.184c-0.746-0.828-0.52-1.664,0.594-2.152
c1.07-0.477,1.289-1.535,0.852-4.152C93.855,81.91,93.867,81.461,94.047,81.469L94.047,81.469z M33.926,81.535
c0.738-0.027,1.453,0.262,1.805,0.848c0.265,0.43,0.136,0.746-0.36,0.961c-0.601,0.238-1.742,0.453-1.742,0.453
s1.106,0.184,1.777,0.457c0.836,0.367,0.774,1.047-0.457,1.629c-2.363,1.125-4.593-1.945-2.644-3.703
C32.758,81.77,33.348,81.555,33.926,81.535L33.926,81.535z M96.066,83.016c0.02,0,0.035,0,0.059,0
c0.215,0.027,0.617,0.34,1.02,0.875c1.406,1.863,1.652,4.668,0.453,5.215c-1.266,0.578-2.18-0.613-1.266-1.652
c0.645-0.738,0.566-1.816-0.293-3.953C95.914,83.191,95.945,83.035,96.066,83.016L96.066,83.016z M126.492,83.105
c0.109-0.008,0.313,0.441,0.637,1.348c0.719,1.992,1.332,2.828,2.066,2.828c0.926,0,1.414,1.27,0.684,1.781
c-1.445,1.012-3.336-1.465-3.477-4.555C126.363,83.582,126.379,83.113,126.492,83.105L126.492,83.105z M118.859,84.102l-0.426,1.629
c0,0-0.984,0.957-1.691,1.563c-1.117,0.969-1.391,1.16-2.277,0.859c-1.359-0.469-2.703-0.895-4.117-1.324l-3.273-2.707l7.469,2.914
c0,0,0.648,0.191,0.875-0.035C116.395,86.023,117.469,85.266,118.859,84.102L118.859,84.102z M125.906,85.625
c0.094-0.023,0.188,0.098,0.254,0.395c0.34,1.535,0.828,2.645,1.242,2.816c0.523,0.219,0.727,0.672,0.504,1.137
c-0.633,1.332-2.309-1.023-2.309-3.25C125.598,86.09,125.75,85.66,125.906,85.625L125.906,85.625z M98.945,85.734
c0.09-0.008,0.238,0.129,0.469,0.359c1.031,1.031,1.344,3.887,0.516,4.715c-1.199,1.199-2.48-0.582-1.316-1.828
c0.309-0.332,0.309-0.355,0.234-1.816C98.797,86.145,98.793,85.742,98.945,85.734L98.945,85.734z M36.364,86.016l-0.809,2.68
l-2.582,0.664l0.605-2.203L36.364,86.016z M39.457,86.289c0.203-0.008,0.438,0.07,0.68,0.246c1.051,0.762,1.137,2.066,0.644,3.023
c-0.468,0.938-1.429,1.207-2.359,1.113c-1.207-0.133-2.117-0.977-2.055-2.262c0.02-0.645,0.301-1.359,0.739-1.664
c0.308-0.219,0.558-0.129,0.824,0.313c0.25,0.434,0.672,1.41,0.672,1.41s0.015-1.004,0.156-1.52
C38.875,86.539,39.129,86.305,39.457,86.289L39.457,86.289z M41.426,86.523l1.871,0.641l0.738,2.539l-2.093-0.813L41.426,86.523z
M148.023,87c0,0,0.535,0.227,3.09,2.254c0.637,0.504,1.715,1.477,1.715,1.477l-0.063,33.133c0,0-5.035-2.723-5.684-3.367
c-0.348-0.371-0.18-1.41-0.059-3.301c0.59-4.961,0.832-8.762,1.469-13.355c0.445-5.117,1.43-6.59-1.996-8.758
c3.688-2.316,2.645-5.918,0.332-7.418L148.023,87z M117.957,87.125l-0.34,1.516c-1.215,2.078-2.301,1.973-4.16,1.008l-2.23-1.895
c1.445,0.301,2.223,0.762,3.633,1.207c0.699,0.191,0.957,0.066,1.449-0.375C116.875,88.07,117.301,87.684,117.957,87.125
L117.957,87.125z M101.414,87.922c0.758,0.824,0.953,1.637,0.887,3.645c-0.145,1.43-0.078,2.492-1.254,3.293
c-0.57,0.375-1.559,0.379-2.004,0.004c-1.059-0.707-0.477-2.129,0.914-2.199c0.879-0.016,1.238-2.883,0.742-4.672
c-0.078-0.281-0.059-0.461,0.078-0.477C100.918,87.504,101.172,87.66,101.414,87.922L101.414,87.922z M125.121,87.813
c0.172,0,0.473,0.438,0.652,1.148c0.258,1.031,0.621,1.609,1.191,1.898c0.73,0.375,0.969,1.09,0.5,1.512
c-0.93,0.844-1.879-0.168-2.184-2.32C125.266,89.809,124.84,87.836,125.121,87.813L125.121,87.813z M145.078,88.168
c2.074,0.031,3.25,1.484,3.246,3.242c-0.023,1.266-0.715,2.555-1.992,3.09c-3.043,0.898-4.707-1.141-4.68-3.125
C141.676,89.777,143.008,88.137,145.078,88.168L145.078,88.168z M103.227,89.316c1.742,1.746,1.82,5.477,0.113,5.477
c-2.047-0.68-0.449-1.887-0.41-2.203c0.16-1.285-0.133-2.105-0.434-3.309C102.363,88.574,103.035,89.109,103.227,89.316
L103.227,89.316z M145.191,89.148c-0.367-0.012-0.34,0.355,0.332,0.934c1.215,1.047,0.621,2.98-0.922,2.992
c-0.711,0-0.883,0.48-0.266,0.73c2.395,0.961,4.027-2.676,1.883-4.191C145.77,89.297,145.41,89.156,145.191,89.148L145.191,89.148z
M53.731,89.637c1.922,0.656,2.586,4.324,2.66,5.617c0.086,2.25-0.961,5.93-1.899,6.668c-2.418,1.902-3.554-4.828-1.484-9.16
c0.184-0.355,0.41-0.836,0.324-1.719C53.246,90.164,53.395,89.645,53.731,89.637L53.731,89.637z M117.328,89.992
c0,0-0.242,1.098-0.5,1.699c-0.297,0.695-0.516,0.719-1.211,0.121c-0.387-0.328-1.027-1.016-1.027-1.016
c0.605,0.098,1.145,0.41,1.656,0.156C116.797,90.684,117.238,90.172,117.328,89.992L117.328,89.992z M124.633,90.047
c0.137,0.008,0.313,0.391,0.543,1.148c0.633,2.078,1.188,2.859,2.027,2.859c1.375,0,1.676,1.656,0.379,2.078
c-0.484,0.16-0.645,0.156-1.258-0.008c-0.93-0.246-2.195-3.371-2.012-4.961C124.395,90.418,124.496,90.043,124.633,90.047
L124.633,90.047z M39.926,91.258c0.504-0.012,0.703,0.234,1,0.848c0.336,0.699,1.223,1.59,1.973,1.977
c1.808,0.887,3.711,1.582,5.496,2.473c2.316,1.164,4.39,4.723,2.972,5.098c-0.515,0.117-1.109,0.125-1.636,0.074
c-0.172-0.09-0.508-0.477-0.746-0.867c-1.055-1.73-3.032-3.422-6.079-4.215c-2.148-0.555-4.07-3.203-4.484-4.445
c-0.109-0.32-0.113-0.574,0.176-0.656C39.211,91.367,39.621,91.266,39.926,91.258L39.926,91.258z M105.23,91.473
c0.094-0.016,0.238,0.105,0.449,0.336c1.277,1.363,1.438,3.875,0.289,4.582c-1.246,0.77-2.336-0.5-1.359-1.582
c0.434-0.477,0.434-0.477,0.434-1.91C105.043,91.914,105.07,91.5,105.23,91.473L105.23,91.473z M123.84,93.066
c0.156,0.004,0.387,0.43,0.664,1.266c0.395,1.184,0.449,1.277,0.898,1.512c0.766,0.395,0.887,0.984,0.328,1.543
c-1.047,1.047-2.098-0.637-2.102-3.352C123.629,93.379,123.707,93.059,123.84,93.066L123.84,93.066z M107.129,93.254
c0.094,0.008,0.359,0.215,0.566,0.461c1.566,1.855,1.25,6.207-0.496,6.859c-0.582,0.219-0.762,0.23-1.121,0.074
c-1.305-0.566-1.145-1.941,0.461-2.813C107.738,97.184,106.883,93.27,107.129,93.254L107.129,93.254z M27.051,94.621l6.465,3.211
c0,0,1.773,3.73,2.59,5.129c0.558,0.973,1.679,1.91,0.523,2.555c-1.945,1.32-3.051,2.07-3.031,2.891
c0.012,0.664,0.836,1.336,1.945,2.645c1.594,1.871,1.578,1.441,0.133,4.301c-1.109,2.004-2.051,6.543-2.051,6.543l-6.531,3.363
c1.941-4.641,4.23-8.594,6.797-11.418c-1.906-1.414-3.508-2.887-5.18-4.84c1.235-1.652,2.86-2.984,4.363-4.422
C30.024,101.129,28.114,97.824,27.051,94.621L27.051,94.621z M108.836,94.68c0.008,0,0.023,0,0.035,0
c0.27,0.02,0.887,0.691,1.434,1.773c0.703,1.398,0.77,3.156,0.145,3.781c-1.078,1.078-2.48-0.305-1.473-1.453
c0.711-0.516,0.516-1.801-0.043-3.137C108.676,95.004,108.68,94.707,108.836,94.68L108.836,94.68z M26.336,95.309
c1.68,3.574,3.563,6.48,5.492,9.234l-4.211,4.418c1.297,1.504,2.868,3.117,5.071,4.992c-2.703,3.008-4.481,7.223-6.258,11.203
L26.336,95.309z M123.121,95.383c0.148,0.012,0.355,0.445,0.566,1.316c0.27,1.098,0.453,1.379,1.094,1.656
c1.016,0.434,1.039,1.418,0.039,1.773c-0.363,0.129-1.051-0.238-1.332-0.723c-0.375-0.684-0.566-1.609-0.563-2.457
C122.867,95.902,122.957,95.371,123.121,95.383L123.121,95.383z M146.457,96.047c1.59,0.445,2.164,2.039,1.855,4.992
c-0.418,3.949-0.906,8.344-1.301,11.973c-0.457,4.184-0.723,6.359-0.824,6.523c-0.324,0.523-0.375-1.445-0.141-3.633
c0.355-3.125,0.551-5.863,0.852-8.984c0.676-6.949,0.512-9.145-0.746-9.789c-0.973-0.496-1.391-0.203-0.672,0.477
c1.367,1.055,1.324,1.496-0.141,18.605c-0.148,1.77-0.211,3.023-0.211,3.023l-1.855-1.152c0,0-0.141-1.469-0.313-3.684
c-0.422-4.172-0.664-8.617-0.941-12.617c-0.301-4.266,0.5-5.758,3.145-5.863C145.586,95.902,146.059,95.938,146.457,96.047
L146.457,96.047z M112.316,98.527c0.203,0.563,1.125,4.77-1.234,3.563c-0.629-0.355-0.664-0.91-0.199-1.449
c0.516-0.605,0.641-1.473,0.379-2.715c-0.156-0.754-0.352-1.379-0.352-1.379C111.367,96.715,112.262,98.379,112.316,98.527
L112.316,98.527z M42.114,97.207c1.996,0.379,4.191,1.543,5.605,3c0.879,0.934,0.832,1.684-0.539,1.77
c-1.32,0.195-1.348,0.41-1.981-0.137c-0.281-0.219-0.832-0.766-1.46-0.863C41.746,100.668,40.727,96.941,42.114,97.207
L42.114,97.207z M122.73,98.309c0.211,0.34,0.23,1.004,0.406,1.48c0.301,1.332,1.215,2.32,2.035,2.195
c0.551-0.066,1.316,0.102,1.398,0.762c0.16,0.559-0.133,1.09-0.738,1.332c-0.688,0.273-1.457,0.105-2.039-0.441
C122.563,102.48,121.813,98.711,122.73,98.309L122.73,98.309z M113.121,98.359c0.719,0.277,1.633,2.57,1.73,4.387
c-0.004,1.305-0.203,2.941-1.328,3.563c-0.715,0.371-1.449,0.188-1.773-0.438c-0.395-0.766-0.102-1.555,0.715-1.922
c1-0.453,1.328-2.48,0.715-4.461C113.148,99.16,112.648,98.223,113.121,98.359L113.121,98.359z M36.832,99.313l5.27,2.668
c-0.766,1.047-1.367,2.02-1.785,3.125C38.645,103.207,37.766,101.27,36.832,99.313L36.832,99.313z M115.105,100.227
c0.09-0.004,0.391,0.285,0.656,0.543c1.316,1.273,1.883,3.586,1.09,4.434c-0.637,0.676-1.746,0.629-1.93-0.082
c-0.07-0.348,0.301-1,0.465-1.313c0.242-0.465,0.285-1.793-0.082-2.766C115.141,100.609,114.988,100.23,115.105,100.227
L115.105,100.227z M78.492,100.75l5.954,0.203l19.949,17.969l-1.871-0.039L84.192,102.18l-5.703,0.012L78.492,100.75z
M44.18,103.988c-2.274,3.613-2.895,8.168-1.496,12.215c1.058,2.871-1.254,3.043-2.203,1.152c-0.731-1.414-1.153-3.879-0.93-6.5
c0.313-4.238,2.27-8.492,3.836-9.004C44.977,101.332,44.629,103.41,44.18,103.988L44.18,103.988z M125.926,112.684
c-0.605,2.828-1.727,4.234-3.316,4.82c-6.512,2.406-9.352-10.73-3.309-13.871C125.063,101.719,126.727,108.949,125.926,112.684
L125.926,112.684z M78.129,104.102l5.617,0.113c5.121,4.66,10.622,9.004,16.102,14.668h-2.648c0,0-0.777-0.738-0.961-0.914
c-4.949-4.422-8.622-8.035-13.395-12.145l-5.012-0.137L78.129,104.102z M120.98,104.969c-3.039,0.121-3.285,4.234-3.195,5.793
c0.223,2.246,1.117,5.566,3.969,5.305c2.09-0.211,3.059-2.688,2.867-5.66C124.441,107.605,123.301,104.965,120.98,104.969
L120.98,104.969z M77.617,106.332l4.926,0.113c4.344,3.785,8.934,7.898,13.496,12.438h-2.148c0,0-0.563-0.539-0.73-0.711
c-3.695-3.336-7.449-7.059-11.031-10.059l-5.113-0.199L77.617,106.332z M121.059,106.492c0.863,0.32,1.008,2.422,0.254,3.293
c-0.516,0.594-1.699-0.535-1.809-1.957C119.441,106.961,120.285,106.207,121.059,106.492L121.059,106.492z M39.614,106.754
c-0.395,1.359-0.657,2.887-0.821,4.539l-2.062-2.621L39.614,106.754z M122.625,109.281c0.504,0,0.914,0.41,0.914,0.914
s-0.41,0.91-0.914,0.91s-0.91-0.406-0.91-0.91S122.121,109.281,122.625,109.281L122.625,109.281z M81.223,109.742l9.82,9.23
l-2.797,0.031l-8.054-7.301l-5.114-0.191l1-1.742L81.223,109.742z M119.418,109.898c0.504,0,0.91,0.406,0.91,0.91
s-0.406,0.914-0.91,0.914s-0.914-0.41-0.914-0.914S118.914,109.898,119.418,109.898L119.418,109.898z M131.109,109.918
c5.535,4.305,13.352,10.012,21.469,14.641c0-0.016-1.34,1.051-2.57,1.391c-6.316-3.484-13.836-8.398-18.492-12.379
c-4.395,6.469-12.84,18.242-20.348,23.676c-4.734,3.391-7.121,7.566-7.105,12.449c0.012,5.051,1.797,8.34,6.766,12.476
c3.203,2.668,6.707,6.075,6.707,6.075l-1.84,1.586c-0.309-0.036-5.379-4.406-10.508-9.555c-2.82-2.828-4.074-9.043-3.594-12.396
c0.652-4.558,2.172-7.823,6.496-11.343c1.656-1.286,3.332-2.282,4.797-3.743C126.313,118.434,131.109,109.918,131.109,109.918
L131.109,109.918z M122.121,112.266c0.508,1.043,0.789,2.41-0.805,2.504c-0.941,0.055-1.48-1.516-0.664-2.914
C121.27,110.758,121.82,111.691,122.121,112.266L122.121,112.266z M74.805,111.988l5.301,0.156c0,0,5.226,4.559,7.867,7.082h17.758
c9.766,0,17.793,0.039,17.836,0.086c0.125,0.121-1.262,1.977-1.262,1.977l-58.563,0.035c0.012-0.008,3.618-3.219,4.907-4.121
C70.938,115.609,73.031,114.125,74.805,111.988L74.805,111.988z M38.918,114.191c0.383,1.414,0.703,2.855,1.363,4.16l-4.066,2.156
C36.965,118.355,37.821,116.285,38.918,114.191L38.918,114.191z M151.832,125.949c-0.809,2.199-2.922,6.691-5.477,10.094
c-0.504,0.652-0.852,1.16-0.852,1.16l4.98,4.77l-4.324,4.598c2.43,2.527,4.484,6.398,5.563,9.48
c-1.961-0.777-3.063-1.242-5.48-2.591c-0.684-1.714-1.383-3.534-2.152-5.101c-1.762-3.574-1.738-3.228-0.297-4.277
c2.105-1.539,2.734-1.898,2.188-2.672c-0.387-0.547-2.875-3.5-3.023-3.594c-0.23-0.141-0.129-0.578,0.297-1.277
c1.441-2.59,2.621-5.441,3.355-7.98L151.832,125.949z M152.773,126.128l0.133,30.06c-1.785-3.59-3.641-7.258-5.711-9.551
c-0.078-0.156,4.512-4.641,4.512-4.641c-1.68-1.559-2.664-2.489-5.016-4.652C148.98,134.043,150.793,129.73,152.773,126.128
L152.773,126.128z M26.438,127.171l5.711,3.317c-0.301,4.238-0.684,9.805-1.266,15.453c-0.492,4.406-0.695,6.434,0.086,7.656
c0.66,0.895,2.445,1.862,2.445,1.862c-3.004,1.216-4.16,4.806-0.793,7.485c0,0-0.82,0.644-1.183,1.031l-4.684-3.504L26.438,127.171z
M115.836,128.691c-1.426,1.594-3.656,3.961-5.371,5.094c-2.285,1.508-5.492,4.406-5.34,4.449c0,0-3.363-0.016-5.637-0.106
l-7.855-7.011c0,0,0.277-0.102-10.41-0.016c-13.817,0.112-25.012-0.039-25.012-0.039l1.567-2.203L115.836,128.691z M143.836,130.066
c-0.773,2.488-1.973,4.785-3.492,6.937c-0.352-1.526-0.543-3.147-1.281-4.444L143.836,130.066z M32.875,130.863l0.684,0.488
c0,0-0.41,5.188-0.543,6.707c-0.242,2.805-0.36,5.332-0.602,8.188c-0.492,5.675-0.41,6.511,0.703,7.386
c0.856,0.642,1.442,0.353,0.68-0.461c-0.5-0.644-0.496-0.628-0.648-1.577c-0.106-0.656-0.09-1.637,0.058-4.301
c0.848-14.988,1.028-15.493,1.043-15.497l1.707,1.103c-0.093,0.229,1.567,15.108,1.399,18.809c-0.2,4.324-6.02,3.371-6.297,0.16
c-0.113-0.739,0.992-12.883,0.992-12.883L32.875,130.863z M80.356,131.738l2.285,0.066l14.094,12.952l4.805,0.106l-0.418,1.633
l-4.645-0.008L80.356,131.738z M89.098,131.738h2.211l8.066,7.313l4.965,0.077l-0.945,1.407l-4.938-0.141L89.098,131.738z
M86.34,131.746l11.926,10.75l4.066,0.211l-0.625,1.473l-4.82-0.137l-13.398-12.27L86.34,131.746z M74.844,131.785h2.477
l18.64,16.781l4.887,0.09l-0.074,1.512l-5.879-0.027L74.844,131.785z M137.578,132.262c0.984,0.245,1.469,1.198,2.164,4.734
c0.809,4.121-0.945,10.816-3.141,12.07c-1.137,0.894-2.371-0.051-1.57-1.219c2.621-3.805,2.965-10.027,1.418-13.509
C135.957,133.219,136.461,132.059,137.578,132.262L137.578,132.262z M58.489,132.878c5.953,0.071,7.496,12.306,1.632,14.021
c-3.804,0.562-5.765-2.883-6.316-5.992C53.153,137.046,54.856,132.835,58.489,132.878L58.489,132.878z M55.211,140.219
c0.356,2.452,1.879,5.258,4.09,5.02c2.906-0.317,3.27-4.195,2.98-6.149c-0.347-2.358-1.644-4.495-3.722-4.612
C55.465,134.301,54.938,138.328,55.211,140.219L55.211,140.219z M58.406,135.457c0.833-0.012,1.442,1.098,1.215,2.473
c-0.148,0.895-0.484,1.991-1.488,1.246c-0.469-0.426-0.887-1.676-0.773-2.609C57.434,135.953,57.739,135.473,58.406,135.457
L58.406,135.457z M140.543,138.285l2.797,3.234l-3.176,2.227C140.609,142.046,140.758,140.234,140.543,138.285L140.543,138.285z
M60.434,138.578c0.504,0,0.91,0.41,0.91,0.914s-0.406,0.914-0.91,0.914c-0.504,0-0.914-0.41-0.914-0.914
S59.93,138.578,60.434,138.578L60.434,138.578z M57.172,139.141c0.504,0,0.91,0.405,0.91,0.909c0,0.505-0.406,0.91-0.91,0.91
s-0.918-0.405-0.918-0.91C56.254,139.546,56.668,139.141,57.172,139.141L57.172,139.141z M59.016,140.316
c0.461,0.137,0.754,0.559,0.996,0.926c0.613,0.906,0.691,2.047,0.258,2.523c-0.875,1.039-2.242-0.074-2.078-1.681
C58.313,140.906,58.625,140.195,59.016,140.316L59.016,140.316z M66.828,143.887c1.305,0,1.676,1.543,0.547,2.297
c-0.73,0.487-0.894,2.082-0.441,4.293c0.367,1.594,0.176,1.84-0.778,0.401C64.531,148.273,64.949,143.887,66.828,143.887
L66.828,143.887z M63.77,144.723c1.144-0.043,1.515,0.836,0.844,1.508c-0.391,0.434-0.352,1.582,0.085,2.526
c0.618,1.368,0.473,1.778-0.683,0.466C62.414,147.512,62.438,144.773,63.77,144.723L63.77,144.723z M139.605,145.391
c1.301,1.73,2.457,3.987,3.508,6.547l-5.641-2.594L139.605,145.391z M57.137,152.348c-0.398-0.461-0.594-1.961-0.922-2.598
c-0.254-0.77-0.473-1.215-0.887-1.191c-2.386,0.203-2.285-2.078-0.918-2.509C57.246,145.16,58.278,152,57.137,152.348
L57.137,152.348z M68.969,150.046c-0.406,1.196-0.109,1.911-0.027,3.188c0.07,0.578,0.101,0.729-0.375,0.285
c-1.133-0.984-1.731-4.352-0.715-4.977C69.223,147.703,69.637,149.121,68.969,150.046L68.969,150.046z M125.508,148.449
c0.551-0.028,1.18,0.402,1.492,1.195c0.445,1.141,0.406,3.93,0.18,5.418c-0.344,2.272-0.895,4.363-1.117,5.926
c-0.801,0.949-2.766-2.406-2.953-5.059c-0.309-2.102,0.414-6.47,2.031-7.391C125.258,148.484,125.379,148.453,125.508,148.449
L125.508,148.449z M133.125,148.805c0.496-0.02,0.383,0.145,0.75,0.527c0.555,0.582,0.781,0.723,1.566,0.969
c1.617,0.512,3.395,2.766,2.711,3.452c-0.543,0.431-2.016-0.382-2.52-0.554c-0.543-0.188-1.219-0.418-1.504-0.516
c-1.359-0.457-3.309-2.957-2.703-3.461C131.75,148.953,132.742,148.824,133.125,148.805L133.125,148.805z M129.18,149.223
c1.004,0.008,1.277,0.258,1.852,1.336c0.852,1.602,2.43,2.73,4.723,3.379c2.93,0.895,5.457,2.59,5.332,5.733
c-0.699,0.009-1.395,0.056-2.094,0.271c-0.813-2.281-2.828-3.59-4.563-3.984c-4.004-0.907-7.723-4.969-6.664-6.582
C128.227,149.141,128.723,149.214,129.18,149.223L129.18,149.223z M60.117,149.421l34.586,30.122
c-14.593-5.415-27.984-5.297-40.934-3.297L60.117,149.421z M74.867,151.414c-0.062,0.941-1.351,1.141-1.617,1.371
c-0.644,0.563-0.558,2.188-0.285,4.082c0.211,1.136-0.07,1.086-0.668,0.195c-1.058-1.578-1.039-4.313-0.336-5.926
C72.867,149.063,74.961,150.102,74.867,151.414L74.867,151.414z M54.977,149.941c1.328,0.137,1.691,1.94,1.746,3.137
c0,1.652-0.465,1.59-0.731,0c-0.125-0.703-0.343-0.973-0.91-1.145C53.793,151.546,53.707,149.941,54.977,149.941L54.977,149.941z
M71.051,151.785c-0.34,0.371-0.348,2.121-0.039,3.297c0.172,0.648-0.145,0.699-0.586,0.184c-1.43-1.681-1.562-4.523-0.234-5.074
C71.274,149.91,71.555,151.23,71.051,151.785L71.051,151.785z M56.086,155.148c0.031,1.676-0.351,1.832-0.855,0.223
c-0.129-0.371-0.356-0.746-0.524-0.859c-0.941-0.645-1.105-1.148-0.558-1.691C55.489,151.723,56.071,154.652,56.086,155.148
L56.086,155.148z M61.141,153.671l-4.688,20c11.539-0.968,16.786-1.171,29.118,1.239L61.141,153.671z M75.125,154.003
c0.703,0.177,0.949,1.099,0.125,1.97c-0.269,0.344-0.519,0.879-0.191,2.293c0.449,1.934-0.309,1.316-1.231-0.513
C73.239,156.582,73.508,153.598,75.125,154.003L75.125,154.003z M53.047,154.066c1.254,0,2.418,2.035,2.434,4.262
c0.015,1.8-0.242,1.668-0.91-0.051c-0.473-1.137-0.852-1.551-1.704-1.848C51.285,155.878,51.422,154.066,53.047,154.066
L53.047,154.066z M61.524,154.641l21.718,18.98c-8.894-1.422-17.625-1.532-26.105-0.465L61.524,154.641z M79.598,155.355
c1.703,0,2.375,2.104,0.285,2.844c-1.246,0.438-0.715,2.957-0.484,4.453c0.086,0.562-0.094,0.601-0.45,0.098
C77.637,160.813,76.903,155.93,79.598,155.355L79.598,155.355z M77.297,157.723c-0.308,0.487-0.344,1.012-0.129,1.953
c0.551,2.031,0.696,2.406-0.457,1.374c-1.215-1.284-1.746-3.823-0.73-4.577C77.125,155.628,78.153,156.566,77.297,157.723
L77.297,157.723z M34.379,156.156c2.016-0.016,3.481,1.289,3.402,3.109c-0.085,2.004-1.339,3.27-3.183,3.375
c-2.059,0.105-3.332-1.539-3.375-3.238C31.18,157.898,32.137,156.171,34.379,156.156L34.379,156.156z M34.344,156.96
c-2.309-0.007-3.172,3.036-1.262,4.442c0.821,0.601,1.465,0.43,0.793-0.211c-1.269-1.203-0.758-3.199,0.91-3.563
C35.614,157.445,35.293,156.964,34.344,156.96L34.344,156.96z M62.438,157.477l-2.778,13.473c5.68-0.883,12.555-0.614,17.86-0.117
L62.438,157.477z M53.082,157.988c1.383-0.07,1.785,2.008,1.797,2.836c0,1.07-0.125,1.625-0.324,1.054
c-0.465-1.347-0.922-2.089-1.422-2.089c-0.269-0.07-0.504-0.18-0.719-0.422C51.922,158.714,52.399,158.016,53.082,157.988
L53.082,157.988z M62.696,158.527l1.832,1.555c-1.18-0.516-2.184,0.82-2.184,0.82L62.696,158.527z M81.539,161.07
c-0.531,0.668-0.527,2.078-0.113,3.719c0.113,0.461-0.312,0.121-0.746-0.426c-0.82-1.031-1.203-2.242-1.055-3.235
C79.789,158.617,82.973,159.105,81.539,161.07L81.539,161.07z M52.574,159.871c1.184,0.132,1.633,2.605,1.606,3.355
c-0.039,0.785-0.219,1.316-0.375,0.84c-0.305-1.035-0.934-2.521-1.481-2.863C51.387,160.621,51.653,159.953,52.574,159.871
L52.574,159.871z M143.309,162.641c0.043,0.875-0.32,1.77-0.859,2.055c-0.551,0.293-0.883-0.102-1.211-1.11
c-0.242-0.737-0.328-1.022-0.328-1.022s-0.203,0.926-0.27,1.117c-0.426,1.284-1.82,1.297-2.406-0.137
c-0.621-1.672,1.117-3.387,2.449-3.329C142.164,160.285,143.23,161.238,143.309,162.641L143.309,162.641z M64.156,160.773
c0.418,0,2.032,0.723,2.032,0.723l1.609,1.425c0,0-1.48-0.644-2-0.827c-1.246-0.441-1.219-0.445-2.226,0.375
c-1.036,0.848-1.883,1.469-1.883,1.469l0.32-1.828C62.008,162.109,63.52,160.773,64.156,160.773L64.156,160.773z M53.606,165.262
c0.238,1.934-0.305,2.094-0.828,0.25c-0.45-1.578-0.891-2.152-1.653-2.152c-1.406,0.211-1.879-1.875-0.617-2.293
C52.891,160.398,53.504,164.5,53.606,165.262L53.606,165.262z M135.234,161.027l2.199,1.019l0.465,2.274l-2.023-0.5L135.234,161.027
z M86.004,161.238c2.113-0.586,2.375,2.043,0.754,2.433c-0.988,0.239-0.984,1.771-0.699,3.997c0.062,0.507,0.199,1.121,0.168,1.207
c-0.153,0.402-0.653-0.211-1.332-1.637C83.883,164.637,84.199,161.738,86.004,161.238L86.004,161.238z M146.434,161.203
l-0.609,2.632l-1.859-0.128l-0.07-1.609L146.434,161.203z M83.836,162.914c-1.019,1.477-0.105,2.836,0.121,3.988
c0.039,0.672-0.824,0.016-1.324-0.961c-1.039-2.039-1.098-3.685-0.164-4.418C83.778,160.757,84.379,162.128,83.836,162.914
L83.836,162.914z M64.774,162.555c0.359,0.004,0.843,0.198,1.867,0.594c0.777,0.297,2.57,1.027,2.57,1.027l2.375,2.094
c0,0-2.086-0.767-3.535-1.379c-3.27-1.384-2.801-1.427-5.383,0.543c-0.746,0.566-1.523,1.215-1.523,1.215l0.316-1.685
c0,0,0.977-0.972,2.192-1.847C64.176,162.738,64.414,162.55,64.774,162.555L64.774,162.555z M34.375,163.352
c1.672-0.047,2.77,1.285,3.172,2.77c0.234,0.859,0.031,1.656-0.016,2.48c-1.152,8.844-1.66,17.055-2.722,25.242
c-0.129,0.395-0.274,0.245-0.442-0.457c-1.23-7.427-2.031-15.574-3.062-22.934c-0.238-2.75-0.945-6.34,2.531-7.043
C34.02,163.375,34.199,163.355,34.375,163.352L34.375,163.352z M34.274,164.332c-0.739,0.031-1.61,0.535-1.918,1.188
c-0.633,1.336-0.469,4.047,0.734,12.18c0.098,0.679,0.238,1.808,0.309,2.511c0.211,2.161,0.496,3.875,0.703,4.196
c0.394,0.605,0.441-0.047,0.16-2.16c-0.145-1.078-0.34-2.727-0.434-3.661c-0.539-3.858-0.656-6.601-0.992-10.121
c-0.168-1.729,0.528-3.007,1.836-3.351c0.707-0.188,0.742-0.504,0.082-0.719C34.61,164.348,34.446,164.324,34.274,164.332
L34.274,164.332z M144.871,164.441c2.445,0.004,3.344,3.426,0.953,4.629c-0.891,0.449-2.375,0.238-2.746-0.477
c-0.18-0.555,0.02-0.88,0.465-1.117c0.539-0.285,1.328-0.531,1.328-0.531s-1.293-0.25-1.656-0.863
C142.43,164.762,143.871,164.464,144.871,164.441L144.871,164.441z M52.969,168.128c-0.027,0.646-0.355,0.379-0.438,0
c-0.261-0.858-0.812-1.789-1.273-2.155c-0.555-0.449-0.687-1.055-0.312-1.434C52.364,163.285,52.961,167.727,52.969,168.128
L52.969,168.128z M135.844,164.43c0.625-0.016,1.473,0.195,2.012,0.734c0.695,0.695,0.656,0.953-0.508,1.379
c-0.563,0.207-0.953,0.371-0.953,0.371s0.523,0.207,0.914,0.316c1.117,0.371,1.059,1.02,0.031,1.785
c-1.395,1.039-3.633-0.345-3.609-2.177C133.754,165.387,134.648,164.464,135.844,164.43L135.844,164.43z M141,164.421l2.23,2.457
l-2.609,2.7l-2.453-2.691L141,164.421z M65.176,164.652c0.031-0.004,0.063,0,0.098,0c0.691,0.012,1.793,0.479,4.5,1.57
c1.488,0.598,3.203,1.28,3.203,1.28l2.437,2.153c0,0-3.336-1.047-4.5-1.637c-0.25-0.125-0.804-0.363-1.23-0.52
c-0.422-0.161-1.477-0.574-2.34-0.922c-1.859-0.746-1.879-0.75-2.504-0.227c-0.266,0.227-0.918,0.737-1.449,1.141
c-0.531,0.398-1.305,0.988-1.723,1.304c-0.492,0.375-1.113,0.942-1.113,0.942l0.394-2.078c0,0,0.352-0.344,0.977-0.825
c0.508-0.386,1.375-1.05,1.922-1.472C64.406,164.934,64.699,164.676,65.176,164.652L65.176,164.652z M89.125,166.477
c0.067,0.43,0.028,0.516-0.472,1.023c-0.625,0.641-0.711,1.691-0.254,3.051c0.129,0.379,0.281,0.824,0.25,0.855
c-0.664,0.664-2.41-3.524-1.996-4.774C87.153,165.141,88.793,165.117,89.125,166.477L89.125,166.477z M50.828,166.656
c0.457-0.024,0.989,0.324,1.254,1.047c0.723,2.016,0.282,4.488-0.457,2.184c-0.191-0.488-0.523-1.012-0.773-1.277
c-0.262-0.274-0.84-0.594-0.828-1.043C50.078,166.98,50.426,166.675,50.828,166.656L50.828,166.656z M65.758,166.714
c0.293,0.009,0.684,0.153,1.383,0.442c0.637,0.258,2.422,0.855,3.437,1.246c1.578,0.609,3.223,1.41,3.223,1.41l-3.57-0.199
c0,0-1.211-0.403-1.934-0.699c-2.617-1.075-2.469-1.07-3.769-0.082c-0.465,0.355-1.051,0.925-1.051,0.925l-1.817,0.099
c0,0,0.852-0.91,2.086-1.824c0.403-0.297,0.953-0.723,1.219-0.946C65.27,166.832,65.465,166.703,65.758,166.714L65.758,166.714z
M93.688,167.418c0.992-0.188,1.535,0.757,1.473,1.348c-0.066,0.648-0.668,1.297-1.594,1.477c-0.195,0.722-0.75,2.375-0.426,4.843
c0.258,1.153-0.23,1.181-0.727,0.071C91.605,173.363,90.426,168.035,93.688,167.418L93.688,167.418z M90.852,169.395
c-0.422,0.901-0.571,1.625-0.336,2.762c0.258,1.262,0.313,1.574-0.402,0.785c-1.391-1.853-1.594-4.801-0.313-5.142
C91.035,167.477,91.309,168.816,90.852,169.395L90.852,169.395z M49.203,168.016c2.168,0.34,2.809,4.035,2.504,5.612
c-0.574,1.915-0.543,0.622-0.746-0.175c-0.531-1.926-1.152-2.973-1.812-3.082C47.371,170.074,47.621,167.762,49.203,168.016
L49.203,168.016z M65.824,168.742c0.036-0.004,0.067,0,0.102,0.008c0.715,0.117,2.625,0.707,1.801,0.906l-2.821,0.015
C64.36,169.691,65.262,168.781,65.824,168.742L65.824,168.742z M141.754,169.344c0.273-0.023,0.645,0.297,1.082,0.741
c1.004,1.024,0.563,2.634-0.793,3.431c-2.125,1.246-4.547-1.105-3.379-3.263c0.641-1.187,1.41-0.976,2.066,0.696
c0.121,0.203,0-0.207,0.227-0.715C141.18,169.727,141.48,169.371,141.754,169.344L141.754,169.344z M138.184,169.464l-0.641,2.571
l-2.594,1.246l0.949-3.168L138.184,169.464z M143.574,169.902l2.066,0.164l1.148,3.34l-2.98-1.27L143.574,169.902z M94.762,171.789
c1.504,0.063,1.656,1.48,0.793,2.102c-0.484,0.465-0.648,1.133-0.551,2.207c0.047,0.473,0.141,1.059,0.137,1.125
c-0.016,0.23-0.203,0.191-0.461-0.091C93.09,175.406,93.301,171.73,94.762,171.789L94.762,171.789z M49.313,172.344
c0.953,0,2.031,2.73,1.5,3.773c-0.336,0.613-0.657,0.461-0.782-0.25c-0.089-0.516-0.386-1.227-1.156-1.352
C47.762,174.16,48.125,172.344,49.313,172.344L49.313,172.344z M97.508,173.996c0.73,0.375,0.797,1.211,0.141,1.679
c-0.512,0.364-0.645,0.673-0.723,1.657c0.164,2.238-1.094,0.816-1.211-1.223C95.648,175.003,96.25,173.355,97.508,173.996
L97.508,173.996z M48.512,174.684c0.684,0,1.496,1.227,1.316,1.944c-0.097,0.567-0.394,0.466-0.812,0.043
c-0.16-0.125-0.524-0.253-0.695-0.304C47.301,176.055,47.473,174.684,48.512,174.684L48.512,174.684z M67.934,175.625
c9.238-0.043,18.847,1.426,26.832,4.613l-0.656,1.183l-2.098-0.722l-0.719,1.902l1.727,0.655l-0.813,1.755
c-9.426-3.098-19.59-5.406-36.484-2.906c-0.836-0.586-2.352-1.734-2.352-1.734l1.348-0.297l-0.176-1.879l-3.41,0.609l-0.996-1.043
C55.469,176.395,61.614,175.656,67.934,175.625L67.934,175.625z M98.918,176.039c0.883,0,1.434,0.992,0.785,1.418
c-0.457,0.296-1.465,0.378-1.668,0.137C97.617,177.085,98.211,176.035,98.918,176.039L98.918,176.039z M66.629,177.199l-0.035,1.949
l2.785-0.09l0.055-1.849L66.629,177.199z M71.496,177.242l0.012,1.91l2.703,0.09l0.129-1.871L71.496,177.242z M64.422,177.375
l-2.734,0.18l0.086,1.784l2.711-0.12L64.422,177.375z M76.653,177.668l-0.071,1.844l2.75,0.305l0.199-1.875L76.653,177.668z
M59.332,177.757l-2.75,0.353l0.235,1.832l2.675-0.293L59.332,177.757z M81.969,178.355l-0.27,1.922l2.567,0.383l0.328-1.828
L81.969,178.355z M126.988,178.91c1.238,1.734,2.422,3.211,3.246,5.148c1.059,2.487,1.766,5.742,1.766,8.422
c0,1.602-1.117,1.276-1.348-0.392c-0.961-7.019-9.41-8.077-12.73-1.589c-0.863,1.855-1.027,4.152-0.574,6.71
c1.605,9.06,13.02,17.806,16.598,27.306c6.723-13.77,12.621-15.91,15.68-27.121c2.461-8.617-5.926-15.023-12.008-9.441
c-1.109,1.023-2.137,2.925-2.254,4.179c-0.254,2.021-1.148,1.72-1.234,0.056c-0.031-1.754,0.719-5.117,1.781-8.113
c0.563-1.582,1.402-3.528,2.543-5.164H126.988z M87.055,179.43l-0.254,1.945l2.605,0.555l0.352-1.805L87.055,179.43z
M68.594,181.671c8.66-0.011,16.551,1.481,23.199,4.009c0,0-0.863,1.855-1.164,2.059c-4.773-1.906-12.902-3.676-18.394-3.774
c-2.012-0.073-2.457-0.125-3.2-0.382c-4.187-1.375-7.882-1.973-11.293,0.063l-1.39-0.984
C60.559,181.988,64.656,181.675,68.594,181.671L68.594,181.671z M163.297,188.914c0,0,0.488,0.66,0.789,1.023
c1.344,1.613,2.16,4.504,1.277,4.504c-0.219,0-0.324-0.203-0.648-0.516c-1.199-1.773-3.602-1.152-4.531,0.159
c-0.957,1.349-1.059,3.532-0.32,5.129c2.402,4.961,7.016,10.621,6.934,11.271c2.465-5.504,4.484-7.055,6.313-11.082
c0.652-1.992,0.66-3.16,0.152-4.692c-0.695-2.093-4.066-3.046-5.258-0.866c-0.395,0.668-0.707,0.859-0.973,0.59
c-0.547-0.547,0.398-3.531,1.508-4.758c0.195-0.219,0.563-0.762,0.563-0.762H163.297z M32.016,192.773
c1.98,0.022,2.922,3.059,0.832,4.336c-0.563,0.315-1.301,0.272-1.895,0.008c-1.695-0.809-1.82-3.332,0.157-4.157
C31.426,192.828,31.735,192.77,32.016,192.773L32.016,192.773z M96.742,192.871c0.711,0.434,3.328,1.593,3.328,1.593l-18.391,33.25
l-4.453,0.036L96.742,192.871z M37.422,192.949c1.102-0.121,1.883,0.824,2.168,1.617c0.387,1.078-0.309,2.992-2.25,2.883
C35.114,197.324,34.114,193.32,37.422,192.949L37.422,192.949z M100.672,194.68c0.492,0.273,2.281,0.566,2.434,0.914
c0.066,0.172-0.066,0.508-0.105,0.949c-0.098,1.055,0.168,2.227,0.809,3.164c1.047,1.457-0.09,0.789-1.137,0.777
c-2.363-0.603-5.375,2.617-4.23,5.934c0.262,0.734,0.211,0.789-1.055,1.176c-2.875,0.875-4.129,3.926-2.75,6.652
c0.723,1.422,0.742,1.348-0.523,1.453c-3.52,0.293-5.563,3.414-4.085,6.605c0.226,0.491,0.082,0.629-0.684,0.773
c-2.402,0.441-3.48,2.449-3.781,4.656l-3.18,0.027L100.672,194.68z M103.719,195.855l6.105,1.664
c-2.535,8.621-2.887,18.633,0.164,30.219l-14.035,0.012c1.949-1.75,1.176-4.168-1.102-4.704c2.211-1.269,2.215-4.644-0.438-5.05
c-2.328-0.359-3.531,1.855-2.496,4.078l-0.996,0.27c0,0-0.445-0.559-0.547-0.859c-0.879-2.563,0.961-5.106,4.094-5.098
c1.938,0.008,2.336-0.539,1.266-1.73c-1.91-2.125-1.309-5.113,1.188-6.285c1.148-0.543,1.824-0.184,1.824-0.184l0.063,1.406
c0,0-0.469,0.047-0.828,0.105c-2.758,0.441-2.246,4.832,0.555,4.793c1.543-0.02,2.645-1.188,2.645-2.867c0-0.473,0-1.168,0-1.168
c1.418,2.421,3.848,2.593,4.887,0.625c1.219-2.32-0.996-3.777-3.211-3.539c0,0,0.465-0.301,0.758-0.454
c2.363-1.214,1.547-4.683-1.063-4.683c-1.793,0-2.836,1.664-2.262,3.429c0.094,0.286,0.313,0.739,0.313,0.739l-1.066,0.27
c0,0-0.242-0.184-0.348-0.355c-1.828-2.856,1.105-6.004,4.809-5.293c1.355,0.426,1.309-0.512,0.551-1.356
C103.727,198.621,103.117,197.238,103.719,195.855L103.719,195.855z M34.723,197.102l3.207,5.645l-3.59,6.507l-3.559-6.093
L34.723,197.102z M34.41,200.039l-2.226,3.063l2.18,3.516l2.066-3.559L34.41,200.039z M34.313,201.188l1.445,1.94l-1.457,2.379
l-1.426-2.233L34.313,201.188z M100.531,207.289c0.676,0,1.227,0.546,1.227,1.223c0,0.672-0.551,1.219-1.227,1.219
c-0.672,0-1.219-0.547-1.219-1.219C99.313,207.835,99.859,207.289,100.531,207.289L100.531,207.289z M167.125,214.007
c-0.938,0.024-1.953,0.298-3.008,0.841c-1.137,0.59-1.137,0.59-1.578,0.293c-1.086-0.715-1.418-0.884-2.637-0.884
c-0.758,0-1.281,0.043-1.281,0.043l0.105,2.923c2.625-0.07,3.348,0.82,2.797,2.405c-0.574,0.716-0.445,11.032-0.262,15.013
c-0.047,1.957,0.824,3.816,2.027,4.944c1.875,1.661,5.195,1.54,7.125,0.149c1.289-0.926,1.902-2.478,2.176-4.055
c0.133-3.238,0.059-6.48,0.059-9.72l2.078,0.021l-0.023-2.93l-2.031-0.117c0,0,0.023,0.082-0.063-2.09
c0.141-4.548-2.191-6.716-5.297-6.837C167.25,214.003,167.188,214.003,167.125,214.007L167.125,214.007z M166.961,216.953
c1.715,0.132,2.41,0.813,2.805,2.273c0.285,1.043,0.391,2.276,0.152,2.664c-0.383,0.629-1.867-0.47-3.809-2.836
c-0.652-0.798-0.945-1.211-0.945-1.211C165.543,217.175,166.34,216.906,166.961,216.953L166.961,216.953z M163.844,220.891
c1.781,1.53,2.035,3.086,6.238,4.566c0,0,0.121-0.164,0.051,4.961c-0.082,5.656-0.418,6.813-2.125,7.281
c-1.48,0.406-2.871-0.281-3.484-1.715c-0.629-1.469-0.781-4.926-0.758-11.504C163.773,222.094,163.844,220.891,163.844,220.891
L163.844,220.891z M91.906,222.602c0.699,0,1.266,0.563,1.266,1.262s-0.566,1.265-1.266,1.265s-1.262-0.565-1.262-1.265
S91.207,222.602,91.906,222.602L91.906,222.602z M89.992,223.46c-0.113,0.052,0.004,1.149,0.282,1.603
c-1.825,0.108-2.305,1.504-2.485,2.684l-1.633-0.004C86.43,223.762,89.879,223.671,89.992,223.46L89.992,223.46z M89.992,223.46"/>
</svg>
