<?xml version="1.0" encoding="utf-8"?>
<!DOCTYPE svg PUBLIC "-//W3C//DTD SVG 1.1//EN" "http://www.w3.org/Graphics/SVG/1.1/DTD/svg11.dtd" [
<!ENTITY ns_svg "http://www.w3.org/2000/svg">
<!ENTITY ns_xlink "http://www.w3.org/1999/xlink">
]>
<svg version="1.1" id="Layer_1" xmlns="&ns_svg;" xmlns:xlink="&ns_xlink;" width="179.379" height="250.246"
viewBox="0 0 179.379 250.246" overflow="visible" enable-background="new 0 0 179.379 250.246" xml:space="preserve">
<path fill="#FFFFFF" d="M8.903,0.398h161.574c4.711,0,8.504,3.793,8.504,8.504v232.441c0,4.711-3.793,8.504-8.504,8.504H8.903
c-4.711,0-8.504-3.793-8.504-8.504V8.902C0.399,4.191,4.192,0.398,8.903,0.398L8.903,0.398z M8.903,0.398"/>
<path fill="none" stroke="#000000" stroke-width="0.7974" d="M8.903,0.398h161.574c4.711,0,8.504,3.793,8.504,8.504v232.441
c0,4.711-3.793,8.504-8.504,8.504H8.903c-4.711,0-8.504-3.793-8.504-8.504V8.902C0.399,4.191,4.192,0.398,8.903,0.398L8.903,0.398z
M8.903,0.398"/>
<path d="M7.047,37.711l0.129-1.617c0.41-4.992,1.5-6.676,7.699-11.883c3.008-2.527,3.996-3.773,4.133-5.223
c0.395-3.406-2.68-4.473-4.684-4.488c-2.593-0.027-5.527,1.527-4.128,5.129l-2.911,0.855c-0.586-3.359,0.016-6.516,2.743-7.914
c3.636-1.824,8.304-1.109,10.66,1.766c1.582,1.93,1.941,4.598,1.093,6.684c-2.48,5.336-10.898,7.684-11.593,13.855h9.304v-3.438
h2.743v6.328L7.047,37.711z M7.047,37.711"/>
<path d="M172.332,212.539l-0.133,1.617c-0.406,4.988-1.5,6.676-7.695,11.883c-3.008,2.527-3.996,3.773-4.137,5.218
c-0.391,3.411,2.684,4.474,4.684,4.493c2.594,0.023,5.527-1.527,4.129-5.129l2.91-0.855c0.59,3.359-0.012,6.512-2.738,7.914
c-3.637,1.823-8.305,1.109-10.66-1.766c-1.582-1.93-1.941-4.598-1.094-6.684c2.48-5.34,10.895-7.688,11.594-13.855h-9.309v3.434
h-2.738v-6.324L172.332,212.539z M172.332,212.539"/>
<path d="M88.856,54.93c0.011-1.621-1.27-1.652-1.258-0.469c-0.106,5.945-5.133,8.871-8.781,8.176
c-5.629-1.07-7.426-6.656-7.375-9.949c0.168-10.156,10.39-17.645,19.617-30.668c6.762,11.754,17.918,20.984,18.578,30.07
c0.879,12.078-14.406,16.582-16.59,2.504c-0.141-0.992-1.313-1.438-1.219-0.051c0.332,3.859-0.141,5.465,4.211,14.977H84.664
C87.184,65.074,88.684,59.621,88.856,54.93L88.856,54.93z M88.856,54.93"/>
<path d="M88.864,195.676c0.011,1.62-1.27,1.652-1.254,0.469c-0.11-5.941-5.133-8.867-8.786-8.176
c-5.628,1.07-7.425,6.659-7.371,9.949c0.164,10.156,10.391,17.648,19.614,30.667c6.762-11.753,17.918-20.983,18.578-30.069
c0.879-12.078-14.406-16.582-16.586-2.504c-0.145,0.991-1.313,1.441-1.223,0.051c0.332-3.855-0.141-5.465,4.211-14.978H84.672
C87.192,185.531,88.692,190.988,88.864,195.676L88.864,195.676z M88.864,195.676"/>
<path d="M15.164,55.832c0.008-0.699-0.715-0.375-0.816-0.152c-0.93,1.586-2.289,1.957-3.637,1.383
c-1.332-0.566-2.082-1.824-1.965-3.617c0.25-2.75,2.43-5.758,3.485-7.461c1.004-1.543,2.105-3.379,3.261-5.723
c1.36,2.691,2.047,3.457,3.524,5.914c1.301,2.164,3.117,4.281,3.254,6.898c0,1.984-0.836,3.863-2.719,4.207
c-1.062,0.191-2.062-0.355-2.801-1.629c-0.226-0.328-0.679-0.156-0.672,0.289c0.133,1.672,0.762,3.184,2.262,4.969h-5.508
C13.961,59.648,15.11,57.945,15.164,55.832L15.164,55.832z M15.164,55.832"/>
<path d="M165.344,194.359c0.008,0.695-0.719,0.371-0.816,0.152c-0.93-1.591-2.289-1.962-3.637-1.387
c-1.336,0.566-2.082,1.824-1.965,3.617c0.25,2.75,2.43,5.761,3.484,7.461c1.004,1.543,2.102,3.379,3.262,5.723
c1.359-2.691,2.047-3.457,3.523-5.914c1.301-2.16,3.113-4.281,3.254-6.895c0-1.989-0.836-3.867-2.719-4.211
c-1.066-0.192-2.063,0.355-2.801,1.633c-0.227,0.324-0.68,0.152-0.672-0.293c0.129-1.672,0.762-3.184,2.262-4.969h-5.508
C164.137,190.539,165.289,192.242,165.344,194.359L165.344,194.359z M165.344,194.359"/>
</svg>
