<?xml version="1.0" encoding="utf-8"?>
<!DOCTYPE svg PUBLIC "-//W3C//DTD SVG 1.1//EN" "http://www.w3.org/Graphics/SVG/1.1/DTD/svg11.dtd" [
<!ENTITY ns_svg "http://www.w3.org/2000/svg">
<!ENTITY ns_xlink "http://www.w3.org/1999/xlink">
]>
<svg version="1.1" id="Layer_1" xmlns="&ns_svg;" xmlns:xlink="&ns_xlink;" width="179.379" height="250.246"
viewBox="0 0 179.379 250.246" overflow="visible" enable-background="new 0 0 179.379 250.246" xml:space="preserve">
<path fill="#FFFFFF" d="M8.903,0.398h161.574c4.711,0,8.504,3.793,8.504,8.504v232.441c0,4.711-3.793,8.504-8.504,8.504H8.903
c-4.711,0-8.504-3.793-8.504-8.504V8.902C0.399,4.191,4.192,0.398,8.903,0.398L8.903,0.398z M8.903,0.398"/>
<path fill="none" stroke="#000000" stroke-width="0.7974" d="M8.903,0.398h161.574c4.711,0,8.504,3.793,8.504,8.504v232.441
c0,4.711-3.793,8.504-8.504,8.504H8.903c-4.711,0-8.504-3.793-8.504-8.504V8.902C0.399,4.191,4.192,0.398,8.903,0.398L8.903,0.398z
M8.903,0.398"/>
<path d="M14.664,37.5v-2.25h2.071v-3.711H6.395v-2.617l11.188-16.879l1.828,0.008v16.871h3.164v2.617H19.41l-0.062,3.711h1.734v2.25
H14.664z M16.735,18.223L9.629,28.922h7.106V18.223z M16.735,18.223"/>
<path d="M164.711,212.75V215h-2.066v3.71h10.34v2.614l-11.188,16.879l-1.828-0.004v-16.875h-3.164v-2.614h3.164l0.059-3.71h-1.734
v-2.25H164.711z M162.645,232.027l7.102-10.703h-7.102V232.027z M162.645,232.027"/>
<path d="M44.324,53.41c0.012-1.621-1.269-1.652-1.257-0.469c-0.106,5.941-5.133,8.867-8.786,8.176
c-5.628-1.07-7.421-6.66-7.371-9.949C27.078,41.012,37.301,33.52,46.528,20.5c6.761,11.754,17.918,20.984,18.578,30.07
c0.879,12.078-14.407,16.582-16.59,2.504c-0.141-0.992-1.313-1.441-1.219-0.051c0.332,3.855-0.141,5.465,4.211,14.977H40.129
C42.649,63.555,44.153,58.098,44.324,53.41L44.324,53.41z M44.324,53.41"/>
<path d="M133.547,53.41c0.016-1.621-1.27-1.652-1.254-0.469c-0.105,5.941-5.133,8.867-8.785,8.176
c-5.629-1.07-7.426-6.66-7.371-9.949c0.168-10.156,10.391-17.648,19.617-30.668c6.762,11.754,17.918,20.984,18.578,30.07
c0.879,12.078-14.406,16.582-16.59,2.504c-0.141-0.992-1.313-1.441-1.219-0.051c0.328,3.855-0.141,5.465,4.211,14.977h-11.379
C131.875,63.555,133.379,58.098,133.547,53.41L133.547,53.41z M133.547,53.41"/>
<path d="M44.332,194.188c0.012,1.621-1.269,1.651-1.254,0.469c-0.109-5.946-5.136-8.871-8.785-8.176
c-5.629,1.07-7.426,6.656-7.371,9.949c0.164,10.155,10.387,17.645,19.613,30.668c6.762-11.754,17.918-20.984,18.579-30.07
c0.878-12.078-14.407-16.582-16.59-2.508c-0.141,0.996-1.309,1.44-1.219,0.055c0.332-3.86-0.141-5.465,4.211-14.977H40.141
C42.66,184.043,44.16,189.496,44.332,194.188L44.332,194.188z M44.332,194.188"/>
<path d="M133.559,194.188c0.012,1.621-1.27,1.651-1.258,0.469c-0.105-5.946-5.133-8.871-8.781-8.176
c-5.629,1.07-7.426,6.656-7.375,9.949c0.168,10.155,10.391,17.645,19.617,30.668c6.762-11.754,17.918-20.984,18.578-30.07
c0.879-12.078-14.406-16.582-16.59-2.508c-0.141,0.996-1.313,1.44-1.219,0.055c0.332-3.86-0.141-5.465,4.211-14.977h-11.375
C131.887,184.043,133.387,189.496,133.559,194.188L133.559,194.188z M133.559,194.188"/>
<path d="M14,56.441c0.008-0.699-0.719-0.371-0.816-0.152c-0.93,1.59-2.293,1.957-3.637,1.387c-1.336-0.57-2.086-1.824-1.965-3.621
c0.25-2.75,2.43-5.758,3.485-7.461c1-1.543,2.101-3.375,3.261-5.723c1.36,2.691,2.047,3.457,3.524,5.914
c1.301,2.164,3.113,4.281,3.254,6.898c0,1.988-0.836,3.863-2.719,4.207c-1.066,0.195-2.063-0.352-2.805-1.629
c-0.222-0.324-0.676-0.156-0.668,0.289c0.129,1.676,0.762,3.188,2.262,4.969h-5.508C12.793,60.258,13.946,58.559,14,56.441
L14,56.441z M14,56.441"/>
<path d="M163.773,194.043c0.008,0.695-0.715,0.371-0.813,0.152c-0.934-1.59-2.293-1.961-3.641-1.387
c-1.332,0.566-2.082,1.823-1.961,3.617c0.246,2.749,2.426,5.758,3.48,7.461c1.004,1.543,2.105,3.379,3.262,5.723
c1.359-2.691,2.047-3.457,3.527-5.914c1.301-2.16,3.113-4.281,3.254-6.895c0-1.988-0.84-3.867-2.723-4.212
c-1.063-0.19-2.063,0.356-2.801,1.634c-0.227,0.323-0.68,0.152-0.672-0.293c0.133-1.673,0.766-3.184,2.262-4.97h-5.508
C162.57,190.223,163.719,191.926,163.773,194.043L163.773,194.043z M163.773,194.043"/>
</svg>
