<?xml version="1.0" encoding="utf-8"?>
<!DOCTYPE svg PUBLIC "-//W3C//DTD SVG 1.1//EN" "http://www.w3.org/Graphics/SVG/1.1/DTD/svg11.dtd" [
<!ENTITY ns_svg "http://www.w3.org/2000/svg">
<!ENTITY ns_xlink "http://www.w3.org/1999/xlink">
]>
<svg version="1.1" id="Layer_1" xmlns="&ns_svg;" xmlns:xlink="&ns_xlink;" width="179.379" height="250.246"
viewBox="0 0 179.379 250.246" overflow="visible" enable-background="new 0 0 179.379 250.246" xml:space="preserve">
<path fill="#FFFFFF" d="M8.903,0.398h161.574c4.711,0,8.504,3.793,8.504,8.504v232.441c0,4.711-3.793,8.504-8.504,8.504H8.903
c-4.711,0-8.504-3.793-8.504-8.504V8.902C0.399,4.191,4.192,0.398,8.903,0.398L8.903,0.398z M8.903,0.398"/>
<path fill="none" stroke="#000000" stroke-width="0.7974" d="M8.903,0.398h161.574c4.711,0,8.504,3.793,8.504,8.504v232.441
c0,4.711-3.793,8.504-8.504,8.504H8.903c-4.711,0-8.504-3.793-8.504-8.504V8.902C0.399,4.191,4.192,0.398,8.903,0.398L8.903,0.398z
M8.903,0.398"/>
<path d="M5.871,30.441c0.129-3.5,1.418-4.816,3.957-6.648c-2.027-1.438-2.879-3.551-2.707-5.352c0.418-4.355,3.848-6.535,7.59-6.441
c3.738,0.094,6.961,3.012,7.215,6.18c0.219,2.754-0.617,4.082-2.605,5.531c2.359,1.953,3.871,3.238,3.812,6.688
c-0.055,3.449-3.043,7.551-8.25,7.676C9.676,38.203,5.746,33.941,5.871,30.441L5.871,30.441z M20.41,30.453
c0.223-3.172-2.629-5.309-5.851-5.344c-3.137-0.031-5.945,2.598-5.945,5.445c0,3.055,3.652,4.715,6.007,4.727
C17.489,35.289,20.219,33.184,20.41,30.453L20.41,30.453z M19.379,19.113c0.063-2.672-2.445-4.582-5.031-4.508
c-2.301,0.07-4.734,1.793-4.738,4.027c0,2.789,2.769,4.184,5.136,4.238C16.891,22.918,19.332,21.129,19.379,19.113L19.379,19.113z
M19.379,19.113"/>
<path d="M173.504,219.809c-0.129,3.5-1.414,4.816-3.953,6.648c2.023,1.434,2.879,3.546,2.703,5.348
c-0.414,4.359-3.848,6.539-7.586,6.445c-3.742-0.098-6.965-3.012-7.215-6.18c-0.219-2.754,0.617-4.082,2.605-5.531
c-2.363-1.954-3.871-3.239-3.816-6.688c0.059-3.449,3.047-7.552,8.254-7.681C169.703,212.046,173.633,216.309,173.504,219.809
L173.504,219.809z M158.969,219.796c-0.227,3.173,2.629,5.31,5.848,5.341c3.141,0.034,5.945-2.594,5.945-5.441
c0-3.055-3.648-4.719-6.008-4.727C161.887,214.957,159.16,217.066,158.969,219.796L158.969,219.796z M159.996,231.137
c-0.063,2.668,2.445,4.582,5.031,4.504c2.301-0.066,4.738-1.789,4.738-4.023c0.004-2.793-2.77-4.184-5.133-4.239
C162.488,227.332,160.043,229.117,159.996,231.137L159.996,231.137z M159.996,231.137"/>
<path d="M42.371,54.668c0.016-1.621-1.269-1.652-1.254-0.469c-0.105,5.941-5.132,8.867-8.785,8.176
c-5.629-1.07-7.426-6.66-7.371-9.949c0.168-10.156,10.391-17.648,19.617-30.668c6.762,11.754,17.918,20.984,18.578,30.07
c0.879,12.078-14.406,16.582-16.589,2.504c-0.141-0.992-1.313-1.441-1.219-0.051c0.328,3.859-0.141,5.465,4.211,14.977H38.18
C40.699,64.813,42.203,59.355,42.371,54.668L42.371,54.668z M42.371,54.668"/>
<path d="M131.598,54.668c0.012-1.621-1.27-1.652-1.254-0.469c-0.105,5.941-5.133,8.867-8.785,8.176
c-5.629-1.07-7.426-6.66-7.371-9.949c0.168-10.156,10.391-17.648,19.617-30.668c6.758,11.754,17.918,20.984,18.578,30.07
c0.879,12.078-14.406,16.582-16.59,2.504c-0.141-0.992-1.313-1.441-1.223-0.051c0.332,3.859-0.137,5.465,4.215,14.977h-11.379
C129.926,64.813,131.426,59.355,131.598,54.668L131.598,54.668z M131.598,54.668"/>
<path d="M87.321,94.766c0.011-1.621-1.27-1.648-1.254-0.469c-0.11,5.945-5.137,8.871-8.786,8.176
c-5.628-1.07-7.425-6.656-7.371-9.949c0.164-10.156,10.387-17.645,19.614-30.668c6.761,11.754,17.917,20.984,18.578,30.07
c0.879,12.078-14.406,16.582-16.59,2.508c-0.141-0.996-1.309-1.441-1.219-0.055c0.332,3.859-0.14,5.465,4.211,14.977H83.129
C85.649,104.91,87.149,99.457,87.321,94.766L87.321,94.766z M87.321,94.766"/>
<path d="M42.371,134.867c0.016-1.621-1.269-1.653-1.254-0.469c-0.105,5.94-5.132,8.867-8.785,8.176
c-5.629-1.071-7.426-6.66-7.371-9.949c0.168-10.156,10.391-17.648,19.617-30.668c6.762,11.754,17.918,20.984,18.578,30.066
c0.879,12.082-14.406,16.586-16.589,2.508c-0.141-0.996-1.313-1.442-1.219-0.051c0.328,3.854-0.141,5.465,4.211,14.973H38.18
C40.699,145.012,42.203,139.555,42.371,134.867L42.371,134.867z M42.371,134.867"/>
<path d="M131.598,134.867c0.012-1.621-1.27-1.653-1.254-0.469c-0.105,5.94-5.133,8.867-8.785,8.176
c-5.629-1.071-7.426-6.66-7.371-9.949c0.168-10.156,10.391-17.648,19.617-30.668c6.758,11.754,17.918,20.984,18.578,30.066
c0.879,12.082-14.406,16.586-16.59,2.508c-0.141-0.996-1.313-1.442-1.223-0.051c0.332,3.854-0.137,5.465,4.215,14.973h-11.379
C129.926,145.012,131.426,139.555,131.598,134.867L131.598,134.867z M131.598,134.867"/>
<path d="M131.609,195.445c0.012,1.621-1.27,1.652-1.258,0.469c-0.105-5.945-5.133-8.871-8.785-8.176
c-5.625,1.07-7.422,6.656-7.371,9.949c0.168,10.156,10.391,17.645,19.617,30.668c6.762-11.754,17.918-20.984,18.578-30.07
c0.879-12.078-14.406-16.582-16.59-2.504c-0.141,0.992-1.313,1.438-1.219,0.051c0.332-3.859-0.141-5.465,4.211-14.977h-11.379
C129.938,185.301,131.438,190.753,131.609,195.445L131.609,195.445z M131.609,195.445"/>
<path d="M87.328,156.003c0.012,1.622-1.269,1.653-1.254,0.47c-0.109-5.941-5.132-8.867-8.785-8.177
c-5.629,1.071-7.425,6.661-7.371,9.95c0.164,10.156,10.391,17.648,19.613,30.668c6.762-11.75,17.918-20.984,18.583-30.066
c0.875-12.078-14.41-16.586-16.59-2.509c-0.141,0.996-1.313,1.442-1.223,0.052c0.332-3.855-0.141-5.466,4.211-14.973H83.137
C85.656,145.859,87.156,151.316,87.328,156.003L87.328,156.003z M87.328,156.003"/>
<path d="M42.383,195.445c0.012,1.621-1.269,1.652-1.258,0.469c-0.105-5.945-5.133-8.871-8.781-8.176
c-5.629,1.07-7.426,6.656-7.375,9.949c0.168,10.156,10.391,17.645,19.617,30.668c6.762-11.754,17.918-20.984,18.578-30.07
c0.879-12.078-14.406-16.582-16.59-2.504c-0.14,0.992-1.312,1.438-1.218,0.051c0.332-3.859-0.141-5.465,4.211-14.977H38.192
C40.711,185.301,42.211,190.753,42.383,195.445L42.383,195.445z M42.383,195.445"/>
<path d="M14.66,57.973c0.008-0.695-0.718-0.371-0.816-0.152c-0.93,1.59-2.289,1.957-3.637,1.387
c-1.336-0.566-2.086-1.824-1.965-3.617c0.25-2.75,2.43-5.762,3.485-7.461c1.004-1.547,2.101-3.379,3.262-5.727
c1.359,2.691,2.046,3.457,3.523,5.914c1.301,2.164,3.113,4.285,3.254,6.898c0,1.988-0.836,3.867-2.719,4.207
c-1.066,0.195-2.062-0.352-2.801-1.629c-0.226-0.324-0.679-0.156-0.672,0.289c0.129,1.676,0.762,3.188,2.262,4.969h-5.508
C13.453,61.793,14.606,60.09,14.66,57.973L14.66,57.973z M14.66,57.973"/>
<path d="M165.711,196.168c0.008,0.699-0.715,0.375-0.813,0.152c-0.934-1.586-2.293-1.957-3.641-1.383
c-1.332,0.565-2.082,1.824-1.961,3.617c0.246,2.75,2.426,5.758,3.484,7.461c1,1.543,2.102,3.379,3.258,5.723
c1.359-2.692,2.047-3.457,3.527-5.914c1.301-2.164,3.113-4.281,3.254-6.899c0-1.987-0.84-3.862-2.723-4.206
c-1.063-0.191-2.063,0.355-2.801,1.629c-0.227,0.327-0.68,0.155-0.672-0.289c0.133-1.672,0.766-3.184,2.262-4.97h-5.508
C164.508,192.352,165.656,194.055,165.711,196.168L165.711,196.168z M165.711,196.168"/>
</svg>
