<?xml version="1.0" encoding="utf-8"?>
<!DOCTYPE svg PUBLIC "-//W3C//DTD SVG 1.1//EN" "http://www.w3.org/Graphics/SVG/1.1/DTD/svg11.dtd" [
<!ENTITY ns_svg "http://www.w3.org/2000/svg">
<!ENTITY ns_xlink "http://www.w3.org/1999/xlink">
]>
<svg version="1.1" id="Layer_1" xmlns="&ns_svg;" xmlns:xlink="&ns_xlink;" width="179.379" height="250.246"
viewBox="0 0 179.379 250.246" overflow="visible" enable-background="new 0 0 179.379 250.246" xml:space="preserve">
<path fill="#FFFFFF" d="M8.903,0.398h161.574c4.711,0,8.504,3.793,8.504,8.504v232.441c0,4.711-3.793,8.504-8.504,8.504H8.903
c-4.711,0-8.504-3.793-8.504-8.504V8.902C0.399,4.191,4.192,0.398,8.903,0.398L8.903,0.398z M8.903,0.398"/>
<path fill="none" stroke="#000000" stroke-width="0.7974" d="M8.903,0.398h161.574c4.711,0,8.504,3.793,8.504,8.504v232.441
c0,4.711-3.793,8.504-8.504,8.504H8.903c-4.711,0-8.504-3.793-8.504-8.504V8.902C0.399,4.191,4.192,0.398,8.903,0.398L8.903,0.398z
M8.903,0.398"/>
<path d="M7.02,31.879l2.418-0.75c0.914,2.395,2.761,3.102,4.715,2.949c3.503-0.273,4.668-4.117,4.933-7.52
c-1.367,1.418-3.422,2.141-5.168,2.07c-5.586-0.297-7.015-4.684-7.07-9.281c-0.152-3.875,1.48-6.684,4.281-7.969
c1.481-0.656,4.875-0.656,6.367,0.117c3.426,1.773,4.692,4.84,4.461,12.152c0.004,6.02-1.297,13.031-7.867,13.18
C10.289,37.344,7.406,34.445,7.02,31.879L7.02,31.879z M16.528,25.285c1.14-0.707,1.785-1.371,2.293-2.367
c0.421-0.82,0.562-1.246,0.441-2.938c-0.305-4.363-2.637-6.84-6.02-6.348c-1.882,0.273-2.914,1.313-3.503,3.238
c-1.094,3.559,0.292,7.727,2.886,8.688C13.793,25.988,15.598,25.863,16.528,25.285L16.528,25.285z M16.528,25.285"/>
<path d="M171.848,218.367l-2.422,0.754c-0.914-2.395-2.762-3.102-4.715-2.95c-3.504,0.274-4.668,4.118-4.93,7.521
c1.363-1.422,3.418-2.141,5.168-2.07c5.586,0.293,7.016,4.684,7.066,9.281c0.156,3.875-1.48,6.683-4.277,7.969
c-1.484,0.652-4.879,0.652-6.371-0.118c-3.426-1.772-4.691-4.839-4.461-12.151c-0.004-6.02,1.297-13.031,7.867-13.181
C168.574,212.906,171.457,215.805,171.848,218.367L171.848,218.367z M162.336,224.964c-1.141,0.707-1.781,1.371-2.293,2.368
c-0.418,0.82-0.563,1.242-0.441,2.938c0.309,4.362,2.641,6.84,6.02,6.348c1.883-0.273,2.914-1.313,3.504-3.239
c1.094-3.558-0.289-7.726-2.887-8.687C165.07,224.257,163.27,224.382,162.336,224.964L162.336,224.964z M162.336,224.964"/>
<path d="M42.606,55.5c0.011-1.621-1.27-1.652-1.254-0.469c-0.11,5.941-5.133,8.867-8.785,8.172c-5.629-1.07-7.426-6.656-7.371-9.945
c0.164-10.16,10.39-17.648,19.617-30.668c6.758,11.75,17.918,20.984,18.578,30.066c0.879,12.078-14.41,16.586-16.59,2.508
c-0.141-0.996-1.312-1.441-1.223-0.051c0.332,3.855-0.14,5.465,4.215,14.973H38.414C40.934,65.645,42.434,60.188,42.606,55.5
L42.606,55.5z M42.606,55.5"/>
<path d="M131.832,55.5c0.012-1.621-1.27-1.652-1.254-0.469c-0.109,5.941-5.133,8.867-8.785,8.172
c-5.629-1.07-7.426-6.656-7.371-9.945c0.164-10.16,10.391-17.648,19.617-30.668c6.758,11.75,17.918,20.984,18.578,30.066
c0.875,12.078-14.41,16.586-16.59,2.508c-0.141-0.996-1.313-1.441-1.223-0.051c0.332,3.855-0.141,5.465,4.215,14.973h-11.379
C130.16,65.645,131.66,60.188,131.832,55.5L131.832,55.5z M131.832,55.5"/>
<path d="M131.832,107.762c0.012-1.621-1.27-1.652-1.254-0.469c-0.109,5.945-5.133,8.871-8.785,8.176
c-5.629-1.07-7.426-6.656-7.371-9.949c0.164-10.156,10.391-17.645,19.617-30.668c6.758,11.754,17.918,20.984,18.578,30.07
c0.875,12.078-14.41,16.582-16.59,2.508c-0.141-0.996-1.313-1.441-1.223-0.055c0.332,3.859-0.141,5.465,4.215,14.977h-11.379
C130.16,117.906,131.66,112.453,131.832,107.762L131.832,107.762z M131.832,107.762"/>
<path d="M42.606,107.762c0.011-1.621-1.27-1.652-1.254-0.469c-0.11,5.945-5.133,8.871-8.785,8.176
c-5.629-1.07-7.426-6.656-7.371-9.949c0.164-10.156,10.39-17.645,19.617-30.668c6.758,11.754,17.918,20.984,18.578,30.07
c0.879,12.078-14.41,16.582-16.59,2.508c-0.141-0.996-1.312-1.441-1.223-0.055c0.332,3.859-0.14,5.465,4.215,14.977H38.414
C40.934,117.906,42.434,112.453,42.606,107.762L42.606,107.762z M42.606,107.762"/>
<path d="M131.84,195.063c0.012,1.621-1.27,1.651-1.254,0.469c-0.105-5.942-5.133-8.867-8.785-8.172
c-5.629,1.07-7.426,6.656-7.371,9.945c0.164,10.159,10.391,17.648,19.617,30.668c6.758-11.75,17.918-20.984,18.578-30.066
c0.879-12.078-14.406-16.586-16.59-2.508c-0.141,0.996-1.313,1.44-1.223,0.051c0.332-3.855-0.137-5.465,4.215-14.973h-11.379
C130.168,184.918,131.668,190.375,131.84,195.063L131.84,195.063z M131.84,195.063"/>
<path d="M131.84,142.98c0.012,1.621-1.27,1.651-1.254,0.469c-0.105-5.946-5.133-8.871-8.785-8.176
c-5.629,1.07-7.426,6.656-7.371,9.949c0.164,10.155,10.391,17.645,19.617,30.668c6.758-11.754,17.918-20.984,18.578-30.07
c0.879-12.078-14.406-16.582-16.59-2.504c-0.141,0.992-1.313,1.437-1.223,0.051c0.332-3.86-0.137-5.465,4.215-14.977h-11.379
C130.168,132.835,131.668,138.289,131.84,142.98L131.84,142.98z M131.84,142.98"/>
<path d="M87.77,115.973c0.011,1.621-1.27,1.652-1.254,0.469c-0.11-5.945-5.133-8.871-8.785-8.176
c-5.629,1.07-7.426,6.656-7.371,9.949c0.164,10.156,10.39,17.645,19.617,30.667c6.758-11.754,17.918-20.983,18.578-30.069
c0.879-12.078-14.41-16.582-16.59-2.504c-0.141,0.992-1.313,1.438-1.223,0.051c0.332-3.859-0.141-5.465,4.215-14.977H83.578
C86.098,105.828,87.598,111.281,87.77,115.973L87.77,115.973z M87.77,115.973"/>
<path d="M42.614,142.98c0.011,1.621-1.27,1.651-1.254,0.469c-0.106-5.946-5.133-8.871-8.786-8.176
c-5.628,1.07-7.425,6.656-7.371,9.949c0.168,10.155,10.391,17.645,19.618,30.668c6.757-11.754,17.918-20.984,18.578-30.07
c0.879-12.078-14.407-16.582-16.59-2.504c-0.141,0.992-1.313,1.437-1.223,0.051c0.332-3.86-0.137-5.465,4.215-14.977H38.422
C40.942,132.835,42.442,138.289,42.614,142.98L42.614,142.98z M42.614,142.98"/>
<path d="M42.614,195.063c0.011,1.621-1.27,1.651-1.254,0.469c-0.106-5.942-5.133-8.867-8.786-8.172
c-5.628,1.07-7.425,6.656-7.371,9.945c0.168,10.159,10.391,17.648,19.618,30.668c6.757-11.75,17.918-20.984,18.578-30.066
c0.879-12.078-14.407-16.586-16.59-2.508c-0.141,0.996-1.313,1.44-1.223,0.051c0.332-3.855-0.137-5.465,4.215-14.973H38.422
C40.942,184.918,42.442,190.375,42.614,195.063L42.614,195.063z M42.614,195.063"/>
<path d="M13.86,54.305c0.007-0.695-0.715-0.371-0.813-0.152c-0.93,1.59-2.293,1.957-3.641,1.387
c-1.332-0.566-2.082-1.824-1.96-3.617c0.246-2.75,2.425-5.762,3.484-7.461c1-1.547,2.101-3.379,3.262-5.727
c1.355,2.691,2.047,3.457,3.523,5.914c1.301,2.164,3.113,4.285,3.254,6.898c0,1.988-0.836,3.867-2.719,4.207
c-1.066,0.195-2.066-0.352-2.804-1.629c-0.227-0.324-0.68-0.156-0.672,0.289c0.132,1.676,0.765,3.188,2.265,4.969h-5.511
C12.656,58.125,13.809,56.422,13.86,54.305L13.86,54.305z M13.86,54.305"/>
<path d="M164.914,192.5c0.008,0.699-0.719,0.375-0.816,0.152c-0.93-1.586-2.293-1.957-3.637-1.383
c-1.336,0.565-2.086,1.824-1.965,3.617c0.25,2.75,2.43,5.758,3.484,7.461c1,1.543,2.102,3.379,3.262,5.723
c1.359-2.692,2.047-3.457,3.523-5.914c1.301-2.164,3.113-4.281,3.254-6.899c0-1.987-0.836-3.862-2.719-4.207
c-1.066-0.19-2.063,0.356-2.805,1.63c-0.223,0.327-0.676,0.155-0.668-0.289c0.129-1.672,0.762-3.188,2.262-4.97h-5.508
C163.707,188.684,164.859,190.387,164.914,192.5L164.914,192.5z M164.914,192.5"/>
</svg>
