<?xml version="1.0" encoding="utf-8"?>
<!DOCTYPE svg PUBLIC "-//W3C//DTD SVG 1.1//EN" "http://www.w3.org/Graphics/SVG/1.1/DTD/svg11.dtd" [
<!ENTITY ns_svg "http://www.w3.org/2000/svg">
<!ENTITY ns_xlink "http://www.w3.org/1999/xlink">
]>
<svg version="1.1" id="Layer_1" xmlns="&ns_svg;" xmlns:xlink="&ns_xlink;" width="179.379" height="250.246"
viewBox="0 0 179.379 250.246" overflow="visible" enable-background="new 0 0 179.379 250.246" xml:space="preserve">
<path fill="#FFFFFF" d="M8.903,0.398h161.574c4.711,0,8.504,3.793,8.504,8.504v232.441c0,4.711-3.793,8.504-8.504,8.504H8.903
c-4.711,0-8.504-3.793-8.504-8.504V8.902C0.399,4.191,4.192,0.398,8.903,0.398L8.903,0.398z M8.903,0.398"/>
<path fill="none" stroke="#000000" stroke-width="0.7974" d="M8.903,0.398h161.574c4.711,0,8.504,3.793,8.504,8.504v232.441
c0,4.711-3.793,8.504-8.504,8.504H8.903c-4.711,0-8.504-3.793-8.504-8.504V8.902C0.399,4.191,4.192,0.398,8.903,0.398L8.903,0.398z
M8.903,0.398"/>
<path d="M6.184,37.254v-2.191h2.129l4.531-23.418h2.582l4.992,23.418h1.719v2.191h-5.856v-2.191h1.583l-0.629-3.59h-5.911
l-0.457,3.59h1.582v2.191H6.184z M16.727,28.922L14.16,16.383l-2.406,12.539H16.727z M16.727,28.922"/>
<path d="M173.191,212.996v2.191h-2.129l-4.531,23.414h-2.578l-4.996-23.414h-1.715v-2.191h5.852v2.191h-1.582l0.633,3.586h5.906
l0.457-3.586h-1.582v-2.191H173.191z M162.648,221.328l2.566,12.539l2.406-12.539H162.648z M162.648,221.328"/>
<path d="M83.809,147.98c2.301-4.621,3.98-9.359,4.277-14.43c0.274-1.863-0.859-1.895-1.031-0.582
c-3.262,12.473-20.609,9.098-20.012-2.637c0.485-9.516,9.934-11.563,14.863-8.453c1.95,1.148,1.84,0.461,0.778-0.73
c-7.324-8.168-2.891-18.688,7.008-18.879c10.703,0.633,13.48,11.895,6.914,18.516c-0.816,0.797-2.625,3.355,0.098,1.566
c6.633-4.711,15.832,0.355,15.645,7.617c-0.348,13.391-16.672,14.391-20.164,3.202c-0.336-1.237-1.301-1.862-1.035,0.247
c0.484,3.813,1.484,9.563,4.352,14.563H83.809z M83.809,147.98"/>
<path d="M10.723,60.547c0.957-1.957,1.883-3.777,2.391-5.922c0.335-2.023-0.352-1.27-0.743,0.055
c-0.578,1.836-2.175,2.676-3.664,2.695c-2.695,0.035-4.043-2.086-3.957-4.363c-0.297-2.398,2.137-4.098,3.969-3.965
c1.379,0.098,2.578,0.84,3.305,1.418c0.48,0.254,0.988,0.363,0.277-0.285c-1.34-1.469-2.461-2.371-2.437-4.57
c0.023-2.063,1.789-4.215,4.125-4.145c2.921,0.082,4.25,2.313,4.242,4.383c-0.008,1.512-0.762,2.902-1.93,3.762
c-0.754,0.613-0.543,1.074,0.32,0.492c0.828-0.715,1.813-1.027,2.836-1.047c2.793-0.043,3.883,2.367,3.723,4.609
c-0.149,2.102-1.938,4.266-4.293,4.02c-2.106-0.242-3.211-2.008-3.848-3.82c-0.207-0.559-0.539-0.707-0.531,0.121
c0.488,4.047,1.996,6.563,2.004,6.563H10.723z M10.723,60.547"/>
<path d="M167.898,190.012c-0.953,1.957-1.879,3.777-2.387,5.922c-0.336,2.02,0.352,1.27,0.742-0.056
c0.574-1.839,2.176-2.675,3.664-2.694c2.695-0.039,4.039,2.082,3.957,4.362c0.293,2.399-2.137,4.095-3.969,3.966
c-1.379-0.098-2.578-0.844-3.309-1.423c-0.477-0.25-0.984-0.362-0.273,0.289c1.34,1.466,2.461,2.372,2.438,4.567
c-0.023,2.062-1.789,4.215-4.125,4.148c-2.922-0.087-4.25-2.313-4.242-4.384c0.008-1.511,0.762-2.901,1.926-3.765
c0.758-0.61,0.547-1.07-0.316-0.492c-0.828,0.715-1.813,1.027-2.836,1.05c-2.793,0.043-3.883-2.371-3.723-4.612
c0.148-2.098,1.938-4.263,4.293-4.016c2.105,0.238,3.211,2.007,3.844,3.82c0.211,0.555,0.543,0.707,0.531-0.121
c-0.484-4.047-1.992-6.567-2.004-6.563H167.898z M167.898,190.012"/>
</svg>
