<?xml version="1.0" encoding="utf-8"?>
<!DOCTYPE svg PUBLIC "-//W3C//DTD SVG 1.1//EN" "http://www.w3.org/Graphics/SVG/1.1/DTD/svg11.dtd" [
<!ENTITY ns_svg "http://www.w3.org/2000/svg">
<!ENTITY ns_xlink "http://www.w3.org/1999/xlink">
]>
<svg version="1.1" id="Layer_1" xmlns="&ns_svg;" xmlns:xlink="&ns_xlink;" width="179.379" height="250.246"
viewBox="0 0 179.379 250.246" overflow="visible" enable-background="new 0 0 179.379 250.246" xml:space="preserve">
<path fill="#FFFFFF" d="M8.903,0.398h161.574c4.711,0,8.504,3.793,8.504,8.504v232.441c0,4.711-3.793,8.504-8.504,8.504H8.903
c-4.711,0-8.504-3.793-8.504-8.504V8.902C0.399,4.191,4.192,0.398,8.903,0.398L8.903,0.398z M8.903,0.398"/>
<path fill="none" stroke="#000000" stroke-width="0.7974" d="M8.903,0.398h161.574c4.711,0,8.504,3.793,8.504,8.504v232.441
c0,4.711-3.793,8.504-8.504,8.504H8.903c-4.711,0-8.504-3.793-8.504-8.504V8.902C0.399,4.191,4.192,0.398,8.903,0.398L8.903,0.398z
M8.903,0.398"/>
<path d="M6.895,29.199c-0.324-2.195-0.321-7.875-0.051-9.551c0.824-5.145,2.824-7.496,6.176-8.27
c3.258-0.746,7.832,0.086,8.836,4.387l-2.723,0.051c-1.473-2.906-5.199-2.129-7.293-0.867c-1.676,1.012-2.434,5.219-2.109,5.477
c0,0,3.168-2.301,5.66-2.133c5.336,0.547,7.535,5.086,7.351,9.375c-0.171,5.16-1.836,9.281-7.492,9.559
C9.879,37.023,7.41,34.145,6.895,29.199L6.895,29.199z M20.153,27.836c0.031-3.578-1.625-6.258-4.758-6.555
c-3.133-0.293-6.293,2.707-6.074,6.355c0.218,3.66,1.664,6.746,5.46,6.727C18.867,34.348,20.133,30.383,20.153,27.836L20.153,27.836
z M20.153,27.836"/>
<path d="M172.297,221.046c0.324,2.2,0.32,7.879,0.051,9.556c-0.824,5.145-2.824,7.496-6.18,8.266
c-3.254,0.75-7.828-0.082-8.832-4.383l2.723-0.051c1.473,2.905,5.199,2.129,7.293,0.862c1.676-1.007,2.43-5.214,2.109-5.472
c0,0-3.168,2.301-5.66,2.133c-5.336-0.547-7.535-5.086-7.352-9.375c0.172-5.161,1.836-9.286,7.492-9.559
C169.313,213.227,171.781,216.105,172.297,221.046L172.297,221.046z M159.039,222.414c-0.031,3.578,1.625,6.257,4.758,6.55
c3.133,0.298,6.293-2.702,6.074-6.351c-0.219-3.66-1.664-6.746-5.461-6.731C160.324,215.902,159.059,219.867,159.039,222.414
L159.039,222.414z M159.039,222.414"/>
<path d="M123.641,148.059c2.301-4.621,3.98-9.359,4.277-14.431c0.273-1.862-0.859-1.894-1.031-0.582
c-3.258,12.474-20.609,9.099-20.012-2.636c0.484-9.516,9.934-11.563,14.867-8.453c1.945,1.148,1.836,0.461,0.773-0.73
c-7.324-8.168-2.891-18.688,7.008-18.879c10.703,0.633,13.48,11.895,6.914,18.516c-0.816,0.797-2.625,3.355,0.102,1.566
c6.629-4.711,15.828,0.355,15.641,7.616c-0.348,13.392-16.672,14.392-20.164,3.204c-0.336-1.238-1.301-1.863-1.035,0.246
c0.484,3.813,1.484,9.563,4.352,14.563H123.641z M123.641,148.059"/>
<path d="M44.016,148.059c2.301-4.621,3.98-9.359,4.277-14.431c0.274-1.862-0.859-1.894-1.031-0.582
C44,145.52,26.653,142.145,27.25,130.41c0.481-9.516,9.934-11.563,14.864-8.453c1.949,1.148,1.835,0.461,0.773-0.73
c-7.32-8.168-2.887-18.688,7.012-18.879c10.703,0.633,13.48,11.895,6.914,18.516c-0.817,0.797-2.625,3.355,0.097,1.566
c6.629-4.711,15.832,0.355,15.645,7.616c-0.348,13.392-16.672,14.392-20.164,3.204c-0.336-1.238-1.305-1.863-1.035,0.246
c0.484,3.813,1.484,9.563,4.347,14.563H44.016z M44.016,148.059"/>
<path d="M123.641,68.945c2.301-4.621,3.98-9.363,4.277-14.43c0.273-1.867-0.859-1.898-1.031-0.586
c-3.258,12.477-20.609,9.098-20.012-2.637c0.484-9.516,9.934-11.563,14.867-8.449c1.945,1.145,1.836,0.457,0.773-0.73
c-7.324-8.168-2.891-18.688,7.008-18.883c10.703,0.637,13.48,11.898,6.914,18.52c-0.816,0.797-2.625,3.352,0.102,1.566
c6.629-4.711,15.828,0.352,15.641,7.613c-0.348,13.395-16.672,14.391-20.164,3.207c-0.336-1.242-1.301-1.863-1.035,0.242
c0.484,3.813,1.484,9.563,4.352,14.566H123.641z M123.641,68.945"/>
<path d="M44.016,68.945c2.301-4.621,3.98-9.363,4.277-14.43c0.274-1.867-0.859-1.898-1.031-0.586
C44,66.406,26.653,63.027,27.25,51.293c0.481-9.516,9.934-11.563,14.864-8.449c1.949,1.145,1.835,0.457,0.773-0.73
C35.567,33.945,40,23.426,49.899,23.23c10.703,0.637,13.48,11.898,6.914,18.52c-0.817,0.797-2.625,3.352,0.097,1.566
c6.629-4.711,15.832,0.352,15.645,7.613c-0.348,13.395-16.672,14.391-20.164,3.207c-0.336-1.242-1.305-1.863-1.035,0.242
c0.484,3.813,1.484,9.563,4.347,14.566H44.016z M44.016,68.945"/>
<path d="M135.402,181.227c-2.305,4.617-3.98,9.358-4.277,14.43c-0.273,1.863,0.859,1.895,1.027,0.582
c3.262-12.477,20.613-9.098,20.016,2.637c-0.484,9.516-9.938,11.563-14.867,8.453c-1.945-1.148-1.836-0.461-0.773,0.727
c7.324,8.172,2.887,18.691-7.008,18.883c-10.703-0.633-13.48-11.895-6.918-18.52c0.816-0.793,2.629-3.352-0.098-1.563
c-6.629,4.711-15.828-0.355-15.641-7.617c0.344-13.391,16.672-14.391,20.16-3.207c0.336,1.242,1.305,1.863,1.039-0.242
c-0.484-3.813-1.488-9.563-4.352-14.563H135.402z M135.402,181.227"/>
<path d="M55.778,181.227c-2.305,4.617-3.985,9.358-4.282,14.43c-0.273,1.863,0.86,1.895,1.032,0.582
c3.261-12.477,20.609-9.098,20.015,2.637c-0.484,9.516-9.937,11.563-14.867,8.453c-1.949-1.148-1.836-0.461-0.773,0.727
c7.324,8.172,2.886,18.691-7.012,18.883c-10.703-0.633-13.481-11.895-6.914-18.52c0.816-0.793,2.625-3.352-0.098-1.563
c-6.629,4.711-15.832-0.355-15.644-7.617c0.347-13.391,16.671-14.391,20.164-3.207c0.336,1.242,1.304,1.863,1.035-0.242
c-0.485-3.813-1.485-9.563-4.348-14.563H55.778z M55.778,181.227"/>
<path d="M10.926,59.441c0.953-1.957,1.883-3.777,2.387-5.922c0.336-2.02-0.348-1.27-0.739,0.055
c-0.578,1.84-2.179,2.676-3.664,2.695c-2.695,0.035-4.043-2.082-3.957-4.363c-0.297-2.398,2.137-4.094,3.969-3.965
c1.379,0.098,2.578,0.84,3.305,1.422c0.476,0.25,0.988,0.363,0.277-0.289c-1.344-1.465-2.461-2.371-2.437-4.566
c0.023-2.066,1.785-4.215,4.125-4.148c2.922,0.086,4.25,2.313,4.242,4.383c-0.008,1.512-0.762,2.902-1.93,3.762
c-0.754,0.613-0.543,1.074,0.32,0.492c0.829-0.711,1.813-1.023,2.836-1.047c2.789-0.043,3.883,2.371,3.723,4.613
c-0.148,2.098-1.937,4.262-4.297,4.016c-2.101-0.242-3.211-2.008-3.844-3.82c-0.207-0.555-0.539-0.707-0.531,0.121
c0.488,4.047,1.992,6.563,2.004,6.563H10.926z M10.926,59.441"/>
<path d="M168.449,189.043c-0.953,1.957-1.879,3.777-2.387,5.921c-0.336,2.024,0.352,1.271,0.742-0.054
c0.574-1.84,2.176-2.676,3.664-2.696c2.695-0.034,4.039,2.082,3.957,4.364c0.293,2.398-2.137,4.097-3.969,3.965
c-1.379-0.098-2.582-0.84-3.309-1.418c-0.477-0.254-0.984-0.368-0.273,0.285c1.34,1.465,2.461,2.371,2.438,4.566
c-0.023,2.066-1.789,4.215-4.125,4.148c-2.922-0.082-4.25-2.313-4.242-4.383c0.008-1.512,0.762-2.903,1.926-3.762
c0.758-0.613,0.547-1.074-0.316-0.492c-0.828,0.711-1.813,1.023-2.836,1.047c-2.793,0.043-3.883-2.371-3.723-4.614
c0.148-2.097,1.938-4.261,4.293-4.015c2.105,0.242,3.211,2.008,3.844,3.82c0.211,0.559,0.543,0.707,0.531-0.121
c-0.484-4.047-1.992-6.563-2.004-6.563H168.449z M168.449,189.043"/>
</svg>
