<?xml version="1.0" encoding="utf-8"?>
<!DOCTYPE svg PUBLIC "-//W3C//DTD SVG 1.1//EN" "http://www.w3.org/Graphics/SVG/1.1/DTD/svg11.dtd" [
<!ENTITY ns_svg "http://www.w3.org/2000/svg">
<!ENTITY ns_xlink "http://www.w3.org/1999/xlink">
]>
<svg version="1.1" id="Layer_1" xmlns="&ns_svg;" xmlns:xlink="&ns_xlink;" width="179.379" height="250.246"
viewBox="0 0 179.379 250.246" overflow="visible" enable-background="new 0 0 179.379 250.246" xml:space="preserve">
<path fill="#FFFFFF" d="M8.903,0.398h161.574c4.711,0,8.504,3.793,8.504,8.504v232.441c0,4.711-3.793,8.504-8.504,8.504H8.903
c-4.711,0-8.504-3.793-8.504-8.504V8.902C0.399,4.191,4.192,0.398,8.903,0.398L8.903,0.398z M8.903,0.398"/>
<path fill="none" stroke="#000000" stroke-width="0.7974" d="M8.903,0.398h161.574c4.711,0,8.504,3.793,8.504,8.504v232.441
c0,4.711-3.793,8.504-8.504,8.504H8.903c-4.711,0-8.504-3.793-8.504-8.504V8.902C0.399,4.191,4.192,0.398,8.903,0.398L8.903,0.398z
M8.903,0.398"/>
<path d="M10.032,37.607c1.707-8.871,3.528-15.527,8.305-22.758H8.63v3.109H6.048v-5.863h14.203l1.754,2.754
c-5.074,5.438-9.719,23.012-8.898,22.758H10.032z M10.032,37.607"/>
<path d="M168.868,212.639c-1.707,8.871-3.527,15.527-8.305,22.758h9.707v-3.113h2.582v5.867h-14.203l-1.75-2.754
c5.07-5.438,9.719-23.017,8.895-22.758H168.868z M168.868,212.639"/>
<path d="M124.493,70.1c2.305-4.621,3.98-9.363,4.281-14.434c0.27-1.863-0.863-1.895-1.031-0.582
c-3.262,12.477-20.609,9.098-20.016-2.637c0.484-9.516,9.938-11.563,14.867-8.449c1.945,1.145,1.836,0.457,0.773-0.73
c-7.324-8.168-2.887-18.691,7.008-18.883c10.707,0.637,13.484,11.895,6.918,18.52c-0.816,0.797-2.629,3.352,0.098,1.563
c6.629-4.707,15.828,0.355,15.641,7.617c-0.344,13.391-16.672,14.391-20.16,3.207c-0.336-1.242-1.305-1.863-1.039,0.242
c0.484,3.813,1.488,9.563,4.352,14.566H124.493z M124.493,70.1"/>
<path d="M124.493,150.294c2.305-4.616,3.98-9.358,4.281-14.429c0.27-1.864-0.863-1.895-1.031-0.582
c-3.262,12.477-20.609,9.097-20.016-2.637c0.484-9.516,9.938-11.563,14.867-8.453c1.945,1.148,1.836,0.461,0.773-0.727
c-7.324-8.172-2.887-18.691,7.008-18.883c10.707,0.633,13.484,11.895,6.918,18.52c-0.816,0.793-2.629,3.353,0.098,1.563
c6.629-4.711,15.828,0.355,15.641,7.617c-0.344,13.39-16.672,14.391-20.16,3.207c-0.336-1.242-1.305-1.864-1.039,0.242
c0.484,3.812,1.488,9.562,4.352,14.562H124.493z M124.493,150.294"/>
<path d="M43.267,150.294c2.304-4.616,3.98-9.358,4.281-14.429c0.273-1.864-0.859-1.895-1.031-0.582
c-3.262,12.477-20.61,9.097-20.016-2.637c0.485-9.516,9.938-11.563,14.867-8.453c1.946,1.148,1.836,0.461,0.774-0.727
c-7.324-8.172-2.887-18.691,7.008-18.883c10.707,0.633,13.484,11.895,6.918,18.52c-0.817,0.793-2.629,3.353,0.097,1.563
c6.629-4.711,15.828,0.355,15.641,7.617c-0.344,13.39-16.668,14.391-20.16,3.207c-0.336-1.242-1.305-1.864-1.035,0.242
c0.48,3.812,1.484,9.562,4.347,14.562H43.267z M43.267,150.294"/>
<path d="M83.614,110.197c2.305-4.621,3.981-9.359,4.278-14.43c0.273-1.867-0.86-1.898-1.028-0.582
c-3.261,12.473-20.613,9.094-20.015-2.637c0.484-9.516,9.937-11.566,14.867-8.453c1.945,1.145,1.836,0.461,0.773-0.73
c-7.324-8.168-2.886-18.688,7.008-18.883c10.703,0.637,13.48,11.898,6.918,18.52c-0.816,0.797-2.629,3.355,0.098,1.566
c6.629-4.711,15.828,0.355,15.641,7.617c-0.344,13.391-16.672,14.391-20.16,3.203c-0.336-1.238-1.305-1.863-1.039,0.242
c0.484,3.816,1.488,9.563,4.352,14.566H83.614z M83.614,110.197"/>
<path d="M43.267,70.1c2.304-4.621,3.98-9.363,4.281-14.434c0.273-1.863-0.859-1.895-1.031-0.582
c-3.262,12.477-20.61,9.098-20.016-2.637c0.485-9.516,9.938-11.563,14.867-8.449c1.946,1.145,1.836,0.457,0.774-0.73
c-7.324-8.168-2.887-18.691,7.008-18.883c10.707,0.637,13.484,11.895,6.918,18.52c-0.817,0.797-2.629,3.352,0.097,1.563
c6.629-4.707,15.828,0.355,15.641,7.617c-0.344,13.391-16.668,14.391-20.16,3.207c-0.336-1.242-1.305-1.863-1.035,0.242
c0.48,3.813,1.484,9.563,4.347,14.566H43.267z M43.267,70.1"/>
<path d="M136.255,183.462c-2.301,4.621-3.98,9.36-4.277,14.431c-0.273,1.862,0.859,1.895,1.031,0.582
c3.262-12.474,20.609-9.099,20.012,2.637c-0.484,9.515-9.934,11.562-14.863,8.453c-1.949-1.148-1.84-0.461-0.777,0.729
c7.324,8.168,2.891,18.688-7.008,18.879c-10.703-0.632-13.48-11.894-6.914-18.515c0.816-0.797,2.625-3.355-0.098-1.566
c-6.633,4.711-15.832-0.355-15.645-7.617c0.348-13.392,16.672-14.392,20.164-3.203c0.336,1.238,1.301,1.863,1.035-0.246
c-0.484-3.813-1.484-9.563-4.352-14.563H136.255z M136.255,183.462"/>
<path d="M55.028,183.462c-2.3,4.621-3.98,9.36-4.277,14.431c-0.273,1.862,0.86,1.895,1.031,0.582
c3.262-12.474,20.61-9.099,20.012,2.637c-0.484,9.515-9.933,11.562-14.863,8.453c-1.949-1.148-1.84-0.461-0.778,0.729
c7.325,8.168,2.891,18.688-7.007,18.879c-10.703-0.632-13.481-11.894-6.914-18.515c0.816-0.797,2.625-3.355-0.098-1.566
c-6.633,4.711-15.832-0.355-15.645-7.617c0.348-13.392,16.672-14.392,20.164-3.203c0.336,1.238,1.301,1.863,1.036-0.246
c-0.485-3.813-1.485-9.563-4.352-14.563H55.028z M55.028,183.462"/>
<path d="M10.923,61.51c0.953-1.957,1.883-3.777,2.387-5.922c0.336-2.023-0.348-1.27-0.739,0.055
c-0.578,1.836-2.179,2.676-3.664,2.695c-2.695,0.035-4.043-2.086-3.957-4.363c-0.297-2.398,2.137-4.098,3.969-3.965
c1.379,0.098,2.578,0.84,3.305,1.418c0.476,0.254,0.988,0.363,0.277-0.285c-1.344-1.469-2.461-2.371-2.437-4.57
c0.023-2.063,1.785-4.215,4.125-4.145c2.922,0.082,4.25,2.313,4.242,4.383c-0.008,1.512-0.762,2.902-1.93,3.762
c-0.754,0.613-0.543,1.074,0.32,0.492c0.829-0.715,1.813-1.027,2.836-1.047c2.789-0.043,3.883,2.367,3.723,4.609
c-0.148,2.102-1.937,4.266-4.297,4.02c-2.101-0.242-3.211-2.008-3.844-3.82c-0.207-0.559-0.539-0.707-0.531,0.121
c0.488,4.047,1.992,6.563,2.004,6.563H10.923z M10.923,61.51"/>
<path d="M168.446,191.111c-0.953,1.957-1.879,3.777-2.387,5.922c-0.336,2.02,0.352,1.27,0.742-0.055
c0.574-1.84,2.176-2.676,3.664-2.695c2.695-0.039,4.039,2.082,3.957,4.363c0.293,2.397-2.137,4.094-3.969,3.965
c-1.379-0.098-2.582-0.844-3.309-1.422c-0.477-0.25-0.984-0.363-0.273,0.289c1.34,1.465,2.461,2.371,2.438,4.565
c-0.023,2.063-1.789,4.216-4.125,4.149c-2.922-0.086-4.25-2.313-4.242-4.387c0.008-1.508,0.762-2.898,1.926-3.763
c0.758-0.612,0.547-1.069-0.316-0.491c-0.828,0.715-1.813,1.027-2.836,1.051c-2.793,0.043-3.883-2.371-3.723-4.613
c0.148-2.102,1.938-4.262,4.293-4.016c2.105,0.237,3.211,2.008,3.844,3.819c0.211,0.556,0.543,0.707,0.531-0.121
c-0.484-4.047-1.992-6.565-2.004-6.562H168.446z M168.446,191.111"/>
</svg>
