<?xml version="1.0" encoding="utf-8"?>
<!DOCTYPE svg PUBLIC "-//W3C//DTD SVG 1.1//EN" "http://www.w3.org/Graphics/SVG/1.1/DTD/svg11.dtd" [
<!ENTITY ns_svg "http://www.w3.org/2000/svg">
<!ENTITY ns_xlink "http://www.w3.org/1999/xlink">
]>
<svg version="1.1" id="Layer_1" xmlns="&ns_svg;" xmlns:xlink="&ns_xlink;" width="179.379" height="250.246"
viewBox="0 0 179.379 250.246" overflow="visible" enable-background="new 0 0 179.379 250.246" xml:space="preserve">
<path fill="#FFFFFF" d="M8.903,0.398h161.574c4.711,0,8.504,3.793,8.504,8.504v232.441c0,4.711-3.793,8.504-8.504,8.504H8.903
c-4.711,0-8.504-3.793-8.504-8.504V8.902C0.399,4.191,4.192,0.398,8.903,0.398L8.903,0.398z M8.903,0.398"/>
<path fill="none" stroke="#000000" stroke-width="0.7974" d="M8.903,0.398h161.574c4.711,0,8.504,3.793,8.504,8.504v232.441
c0,4.711-3.793,8.504-8.504,8.504H8.903c-4.711,0-8.504-3.793-8.504-8.504V8.902C0.399,4.191,4.192,0.398,8.903,0.398L8.903,0.398z
M8.903,0.398"/>
<path fill="#D40000" d="M14.664,37.5v-2.25h2.071v-3.711H6.395v-2.617l11.188-16.879l1.828,0.008v16.871h3.164v2.617H19.41
l-0.062,3.711h1.734v2.25H14.664z M16.735,18.223L9.629,28.922h7.106V18.223z M16.735,18.223"/>
<path fill="#D40000" d="M164.711,212.75V215h-2.066v3.71h10.34v2.614l-11.188,16.879l-1.828-0.004v-16.875h-3.164v-2.614h3.164
l0.059-3.71h-1.734v-2.25H164.711z M162.645,232.027l7.102-10.703h-7.102V232.027z M162.645,232.027"/>
<path fill="#D40000" d="M7.403,49.195c-1.266-2.777-1.407-7.523,2.375-8.164c2.851-0.367,4.011,0.957,4.242,2.992
c0.113,0.594,0.449,0.629,0.554-0.047c0.165-2.086,2.231-3.305,3.844-3c4.422,0.758,4.164,5.621,2.719,8.926
c-2.184,4.383-4.481,7.148-6.594,11.559C12.114,56.871,9.336,53.137,7.403,49.195L7.403,49.195z M7.403,49.195"/>
<path fill="#D40000" d="M36.395,21.25c5.715-0.379,8.695,4.504,9.277,8.352c0.348,0.609,0.535,0.438,0.668-0.035
c0.281-4.938,4.699-8.977,8.797-8.422c6.66,0.086,10.711,7.5,9.57,13.773c-1.39,7.664-5.519,12.281-8.644,17.035
c-3.539,4.922-8.301,12.031-9.832,15.453c0,0-4.84-7.363-11.133-16.023c-4.211-5.793-7.582-12.066-7.895-17.469
C26.844,27.742,29.379,22.207,36.395,21.25L36.395,21.25z M36.395,21.25"/>
<path fill="#D40000" d="M124.02,21.25c5.719-0.379,8.695,4.504,9.277,8.352c0.348,0.609,0.535,0.438,0.672-0.035
c0.277-4.938,4.699-8.977,8.793-8.422c6.66,0.086,10.711,7.5,9.574,13.773c-1.395,7.664-5.523,12.281-8.648,17.035
c-3.535,4.922-8.297,12.031-9.832,15.453c0,0-4.84-7.363-11.133-16.023c-4.211-5.793-7.578-12.066-7.895-17.469
C114.473,27.742,117.004,22.207,124.02,21.25L124.02,21.25z M124.02,21.25"/>
<path fill="#D40000" d="M36.395,226.324c5.715,0.379,8.695-4.504,9.277-8.348c0.348-0.613,0.535-0.441,0.668,0.03
c0.281,4.942,4.699,8.978,8.797,8.427c6.66-0.086,10.711-7.5,9.57-13.777c-1.39-7.664-5.519-12.281-8.644-17.031
c-3.539-4.922-8.301-12.036-9.832-15.457c0,0-4.84,7.367-11.133,16.027c-4.211,5.789-7.582,12.062-7.895,17.465
C26.844,219.835,29.379,225.367,36.395,226.324L36.395,226.324z M36.395,226.324"/>
<path fill="#D40000" d="M124.02,226.324c5.719,0.379,8.695-4.504,9.277-8.348c0.348-0.613,0.535-0.441,0.672,0.03
c0.277,4.942,4.699,8.978,8.793,8.427c6.66-0.086,10.711-7.5,9.574-13.777c-1.395-7.664-5.523-12.281-8.648-17.031
c-3.535-4.922-8.297-12.036-9.832-15.457c0,0-4.84,7.367-11.133,16.027c-4.211,5.789-7.578,12.062-7.895,17.465
C114.473,219.835,117.004,225.367,124.02,226.324L124.02,226.324z M124.02,226.324"/>
<path fill="#D40000" d="M157.176,201.285c-1.266,2.777-1.402,7.523,2.379,8.168c2.848,0.367,4.008-0.961,4.238-2.996
c0.113-0.594,0.449-0.629,0.555,0.046c0.164,2.091,2.23,3.31,3.848,3c4.422-0.753,4.164-5.621,2.719-8.921
c-2.184-4.383-4.48-7.152-6.598-11.563C161.887,193.613,159.113,197.344,157.176,201.285L157.176,201.285z M157.176,201.285"/>
</svg>
