<?xml version="1.0" encoding="utf-8"?>
<!DOCTYPE svg PUBLIC "-//W3C//DTD SVG 1.1//EN" "http://www.w3.org/Graphics/SVG/1.1/DTD/svg11.dtd" [
<!ENTITY ns_svg "http://www.w3.org/2000/svg">
<!ENTITY ns_xlink "http://www.w3.org/1999/xlink">
]>
<svg version="1.1" id="Layer_1" xmlns="&ns_svg;" xmlns:xlink="&ns_xlink;" width="179.379" height="250.246"
viewBox="0 0 179.379 250.246" overflow="visible" enable-background="new 0 0 179.379 250.246" xml:space="preserve">
<path fill="#FFFFFF" d="M8.903,0.398h161.574c4.711,0,8.504,3.793,8.504,8.504v232.441c0,4.711-3.793,8.504-8.504,8.504H8.903
c-4.711,0-8.504-3.793-8.504-8.504V8.902C0.399,4.191,4.192,0.398,8.903,0.398L8.903,0.398z M8.903,0.398"/>
<path fill="none" stroke="#000000" stroke-width="0.7974" d="M8.903,0.398h161.574c4.711,0,8.504,3.793,8.504,8.504v232.441
c0,4.711-3.793,8.504-8.504,8.504H8.903c-4.711,0-8.504-3.793-8.504-8.504V8.902C0.399,4.191,4.192,0.398,8.903,0.398L8.903,0.398z
M8.903,0.398"/>
<path fill="#D40000" d="M6.942,30.43l2.574-0.023c0.492,1.559,1.578,3.141,3.055,3.582c4.168,0.977,6.855-1.352,7.738-4.039
c1.07-3.258-0.024-7.836-2.895-9.461c-2.379-1.352-5.914-0.211-7.539,2.668l-1.804-1.102l0.968-10.738h11.785v2.539h-9.55
l-0.149,4.473c2.051-1.441,5.215-1.43,7.27-0.418c3.89,1.855,5.699,6.074,4.941,11.051c-1.051,4.945-3.359,7.746-8.574,8.152
C8.965,37.16,6.918,33.176,6.942,30.43L6.942,30.43z M6.942,30.43"/>
<path fill="#D40000" d="M172.438,219.82l-2.578,0.019c-0.488-1.554-1.578-3.14-3.051-3.577c-4.172-0.977-6.855,1.352-7.738,4.038
c-1.074,3.259,0.023,7.837,2.895,9.462c2.379,1.348,5.914,0.211,7.535-2.673l1.805,1.106l-0.969,10.738h-11.781v-2.539h9.547
l0.152-4.474c-2.055,1.442-5.215,1.431-7.27,0.418c-3.891-1.854-5.699-6.073-4.941-11.05c1.047-4.945,3.359-7.75,8.574-8.152
C170.414,213.085,172.461,217.07,172.438,219.82L172.438,219.82z M172.438,219.82"/>
<path fill="#D40000" d="M8.008,48.879c-1.269-2.777-1.406-7.523,2.375-8.168c2.852-0.367,4.012,0.961,4.242,2.992
c0.114,0.598,0.449,0.633,0.555-0.043c0.164-2.09,2.23-3.309,3.844-3c4.422,0.754,4.164,5.621,2.718,8.922
c-2.183,4.383-4.48,7.152-6.593,11.563C12.715,56.551,9.942,52.82,8.008,48.879L8.008,48.879z M8.008,48.879"/>
<path fill="#D40000" d="M35.641,22.738c5.715-0.379,8.695,4.5,9.277,8.348c0.348,0.613,0.535,0.441,0.668-0.031
c0.281-4.941,4.699-8.977,8.797-8.426c6.66,0.086,10.711,7.5,9.57,13.773c-1.39,7.668-5.519,12.281-8.644,17.035
c-3.539,4.922-8.297,12.031-9.832,15.453c0,0-4.84-7.363-11.133-16.023c-4.211-5.789-7.578-12.066-7.895-17.469
C26.094,29.227,28.625,23.695,35.641,22.738L35.641,22.738z M35.641,22.738"/>
<path fill="#D40000" d="M124.188,22.738c5.715-0.379,8.695,4.5,9.273,8.348c0.348,0.613,0.539,0.441,0.672-0.031
c0.277-4.941,4.699-8.977,8.793-8.426c6.664,0.086,10.711,7.5,9.574,13.773c-1.391,7.668-5.52,12.281-8.648,17.035
c-3.535,4.922-8.297,12.031-9.832,15.453c0,0-4.836-7.363-11.133-16.023c-4.207-5.789-7.578-12.066-7.891-17.469
C114.637,29.227,117.172,23.695,124.188,22.738L124.188,22.738z M124.188,22.738"/>
<path fill="#D40000" d="M80.047,102.129c5.719-0.383,8.695,4.5,9.277,8.348c0.348,0.609,0.54,0.438,0.672-0.035
c0.278-4.938,4.7-8.977,8.793-8.422c6.66,0.086,10.711,7.5,9.574,13.773c-1.391,7.664-5.52,12.281-8.648,17.035
c-3.535,4.922-8.297,12.031-9.832,15.453c0,0-4.84-7.363-11.133-16.024c-4.211-5.789-7.578-12.065-7.89-17.468
C70.5,108.617,73.031,103.086,80.047,102.129L80.047,102.129z M80.047,102.129"/>
<path fill="#D40000" d="M35.641,226.055c5.715,0.379,8.695-4.504,9.277-8.352c0.348-0.609,0.535-0.438,0.668,0.035
c0.281,4.938,4.699,8.976,8.797,8.426c6.66-0.09,10.711-7.5,9.57-13.777c-1.39-7.664-5.519-12.281-8.644-17.035
c-3.539-4.922-8.297-12.031-9.832-15.453c0,0-4.84,7.363-11.133,16.022c-4.211,5.793-7.578,12.067-7.895,17.47
C26.094,219.563,28.625,225.098,35.641,226.055L35.641,226.055z M35.641,226.055"/>
<path fill="#D40000" d="M124.188,226.055c5.715,0.379,8.695-4.504,9.273-8.352c0.348-0.609,0.539-0.438,0.672,0.035
c0.277,4.938,4.699,8.976,8.793,8.426c6.664-0.09,10.711-7.5,9.574-13.777c-1.391-7.664-5.52-12.281-8.648-17.035
c-3.535-4.922-8.297-12.031-9.832-15.453c0,0-4.836,7.363-11.133,16.022c-4.207,5.793-7.578,12.067-7.891,17.47
C114.637,219.563,117.172,225.098,124.188,226.055L124.188,226.055z M124.188,226.055"/>
<path fill="#D40000" d="M157.371,201.563c-1.266,2.781-1.402,7.526,2.379,8.168c2.848,0.367,4.008-0.957,4.238-2.992
c0.113-0.598,0.449-0.633,0.559,0.047c0.16,2.086,2.227,3.304,3.844,3c4.422-0.758,4.164-5.625,2.719-8.926
c-2.184-4.383-4.48-7.149-6.598-11.563C162.082,193.891,159.309,197.621,157.371,201.563L157.371,201.563z M157.371,201.563"/>
</svg>
