<?xml version="1.0" encoding="utf-8"?>
<!DOCTYPE svg PUBLIC "-//W3C//DTD SVG 1.1//EN" "http://www.w3.org/Graphics/SVG/1.1/DTD/svg11.dtd" [
<!ENTITY ns_svg "http://www.w3.org/2000/svg">
<!ENTITY ns_xlink "http://www.w3.org/1999/xlink">
]>
<svg version="1.1" id="Layer_1" xmlns="&ns_svg;" xmlns:xlink="&ns_xlink;" width="179.379" height="250.246"
viewBox="0 0 179.379 250.246" overflow="visible" enable-background="new 0 0 179.379 250.246" xml:space="preserve">
<path fill="#FFFFFF" d="M8.903,0.398h161.574c4.711,0,8.504,3.793,8.504,8.504v232.441c0,4.711-3.793,8.504-8.504,8.504H8.903
c-4.711,0-8.504-3.793-8.504-8.504V8.902C0.399,4.191,4.192,0.398,8.903,0.398L8.903,0.398z M8.903,0.398"/>
<path fill="none" stroke="#000000" stroke-width="0.7974" d="M8.903,0.398h161.574c4.711,0,8.504,3.793,8.504,8.504v232.441
c0,4.711-3.793,8.504-8.504,8.504H8.903c-4.711,0-8.504-3.793-8.504-8.504V8.902C0.399,4.191,4.192,0.398,8.903,0.398L8.903,0.398z
M8.903,0.398"/>
<path fill="#D40000" d="M10.267,37.607c1.707-8.871,3.527-15.527,8.304-22.758H8.864v3.109H6.282v-5.863h14.207l1.75,2.754
c-5.074,5.438-9.718,23.012-8.898,22.758H10.267z M10.267,37.607"/>
<path fill="#D40000" d="M169.103,212.639c-1.707,8.871-3.527,15.527-8.305,22.758h9.707v-3.113h2.582v5.867h-14.203l-1.75-2.754
c5.074-5.438,9.719-23.017,8.895-22.758H169.103z M169.103,212.639"/>
<path fill="#D40000" d="M7.458,49.967c-1.269-2.777-1.406-7.523,2.375-8.168c2.852-0.367,4.012,0.961,4.242,2.996
c0.114,0.594,0.45,0.629,0.555-0.047c0.164-2.09,2.231-3.309,3.844-3c4.422,0.754,4.164,5.621,2.719,8.922
c-2.184,4.387-4.481,7.152-6.594,11.563C12.165,57.639,9.392,53.908,7.458,49.967L7.458,49.967z M7.458,49.967"/>
<path fill="#D40000" d="M34.943,24.244c5.714-0.379,8.695,4.5,9.277,8.348c0.348,0.613,0.535,0.441,0.668-0.031
c0.281-4.941,4.703-8.977,8.797-8.426c6.66,0.086,10.711,7.5,9.57,13.777c-1.391,7.664-5.519,12.277-8.644,17.031
c-3.536,4.922-8.297,12.031-9.833,15.453c0,0-4.839-7.363-11.132-16.023c-4.211-5.789-7.578-12.063-7.895-17.469
C25.396,30.732,27.927,25.201,34.943,24.244L34.943,24.244z M34.943,24.244"/>
<path fill="#D40000" d="M124.169,24.244c5.715-0.379,8.695,4.5,9.277,8.348c0.348,0.613,0.535,0.441,0.668-0.031
c0.281-4.941,4.703-8.977,8.797-8.426c6.66,0.086,10.711,7.5,9.57,13.777c-1.391,7.664-5.52,12.277-8.645,17.031
c-3.539,4.922-8.297,12.031-9.832,15.453c0,0-4.84-7.363-11.133-16.023c-4.211-5.789-7.578-12.063-7.895-17.469
C114.622,30.732,117.153,25.201,124.169,24.244L124.169,24.244z M124.169,24.244"/>
<path fill="#D40000" d="M80.091,64.342c5.715-0.379,8.695,4.504,9.277,8.352c0.348,0.609,0.535,0.438,0.668-0.035
c0.282-4.938,4.7-8.977,8.793-8.422c6.664,0.086,10.715,7.5,9.574,13.773c-1.391,7.664-5.52,12.281-8.645,17.035
c-3.539,4.922-8.301,12.031-9.832,15.453c0,0-4.84-7.363-11.137-16.023c-4.207-5.793-7.578-12.066-7.89-17.469
C70.54,70.834,73.075,65.299,80.091,64.342L80.091,64.342z M80.091,64.342"/>
<path fill="#D40000" d="M34.943,104.443c5.714-0.379,8.695,4.5,9.277,8.348c0.348,0.613,0.535,0.441,0.668-0.031
c0.281-4.941,4.703-8.977,8.797-8.426c6.66,0.086,10.711,7.5,9.57,13.773c-1.391,7.668-5.519,12.281-8.644,17.035
c-3.536,4.922-8.297,12.03-9.833,15.453c0,0-4.839-7.363-11.132-16.023c-4.211-5.789-7.578-12.066-7.895-17.469
C25.396,110.932,27.927,105.4,34.943,104.443L34.943,104.443z M34.943,104.443"/>
<path fill="#D40000" d="M124.169,104.443c5.715-0.379,8.695,4.5,9.277,8.348c0.348,0.613,0.535,0.441,0.668-0.031
c0.281-4.941,4.703-8.977,8.797-8.426c6.66,0.086,10.711,7.5,9.57,13.773c-1.391,7.668-5.52,12.281-8.645,17.035
c-3.539,4.922-8.297,12.03-9.832,15.453c0,0-4.84-7.363-11.133-16.023c-4.211-5.789-7.578-12.066-7.895-17.469
C114.622,110.932,117.153,105.4,124.169,104.443L124.169,104.443z M124.169,104.443"/>
<path fill="#D40000" d="M158.509,202.654c-1.266,2.777-1.406,7.523,2.375,8.164c2.852,0.367,4.012-0.957,4.242-2.992
c0.113-0.594,0.449-0.633,0.555,0.047c0.164,2.085,2.23,3.305,3.848,3c4.418-0.758,4.16-5.625,2.719-8.926
c-2.188-4.383-4.48-7.149-6.598-11.563C163.22,194.979,160.442,198.708,158.509,202.654L158.509,202.654z M158.509,202.654"/>
<path fill="#D40000" d="M124.169,229.314c5.715,0.383,8.695-4.5,9.277-8.348c0.348-0.609,0.535-0.438,0.668,0.034
c0.281,4.938,4.703,8.978,8.797,8.423c6.66-0.087,10.711-7.5,9.57-13.773c-1.391-7.664-5.52-12.281-8.645-17.035
c-3.539-4.922-8.297-12.032-9.832-15.453c0,0-4.84,7.363-11.133,16.023c-4.211,5.793-7.578,12.065-7.895,17.469
C114.622,222.826,117.153,228.361,124.169,229.314L124.169,229.314z M124.169,229.314"/>
<path fill="#D40000" d="M34.943,229.314c5.714,0.383,8.695-4.5,9.277-8.348c0.348-0.609,0.535-0.438,0.668,0.034
c0.281,4.938,4.703,8.978,8.797,8.423c6.66-0.087,10.711-7.5,9.57-13.773c-1.391-7.664-5.519-12.281-8.644-17.035
c-3.536-4.922-8.297-12.032-9.833-15.453c0,0-4.839,7.363-11.132,16.023c-4.211,5.793-7.578,12.065-7.895,17.469
C25.396,222.826,27.927,228.361,34.943,229.314L34.943,229.314z M34.943,229.314"/>
</svg>
