<?xml version="1.0" encoding="utf-8"?>
<!DOCTYPE svg PUBLIC "-//W3C//DTD SVG 1.1//EN" "http://www.w3.org/Graphics/SVG/1.1/DTD/svg11.dtd" [
<!ENTITY ns_svg "http://www.w3.org/2000/svg">
<!ENTITY ns_xlink "http://www.w3.org/1999/xlink">
]>
<svg version="1.1" id="Layer_1" xmlns="&ns_svg;" xmlns:xlink="&ns_xlink;" width="179.379" height="250.246"
viewBox="0 0 179.379 250.246" overflow="visible" enable-background="new 0 0 179.379 250.246" xml:space="preserve">
<path fill="#FFFFFF" d="M8.903,0.398h161.574c4.711,0,8.504,3.793,8.504,8.504v232.441c0,4.711-3.793,8.504-8.504,8.504H8.903
c-4.711,0-8.504-3.793-8.504-8.504V8.902C0.399,4.191,4.192,0.398,8.903,0.398L8.903,0.398z M8.903,0.398"/>
<path fill="none" stroke="#000000" stroke-width="0.7974" d="M8.903,0.398h161.574c4.711,0,8.504,3.793,8.504,8.504v232.441
c0,4.711-3.793,8.504-8.504,8.504H8.903c-4.711,0-8.504-3.793-8.504-8.504V8.902C0.399,4.191,4.192,0.398,8.903,0.398L8.903,0.398z
M8.903,0.398"/>
<path d="M6.942,30.43l2.574-0.023c0.492,1.559,1.578,3.141,3.055,3.582c4.168,0.977,6.855-1.352,7.738-4.039
c1.07-3.258-0.024-7.836-2.895-9.461c-2.379-1.352-5.914-0.211-7.539,2.668l-1.804-1.102l0.968-10.738h11.785v2.539h-9.55
l-0.149,4.473c2.051-1.441,5.215-1.43,7.27-0.418c3.89,1.855,5.699,6.074,4.941,11.051c-1.051,4.945-3.359,7.746-8.574,8.152
C8.965,37.16,6.918,33.176,6.942,30.43L6.942,30.43z M6.942,30.43"/>
<path d="M172.438,219.82l-2.578,0.019c-0.488-1.554-1.578-3.14-3.051-3.577c-4.172-0.977-6.855,1.352-7.738,4.038
c-1.074,3.259,0.023,7.837,2.895,9.462c2.379,1.348,5.914,0.211,7.535-2.673l1.805,1.106l-0.969,10.738h-11.781v-2.539h9.547
l0.152-4.474c-2.055,1.442-5.215,1.431-7.27,0.418c-3.891-1.854-5.699-6.073-4.941-11.05c1.047-4.945,3.359-7.75,8.574-8.152
C170.414,213.085,172.461,217.07,172.438,219.82L172.438,219.82z M172.438,219.82"/>
<path d="M43.571,54.895c0.011-1.621-1.27-1.652-1.258-0.469c-0.106,5.945-5.133,8.871-8.782,8.176
c-5.628-1.07-7.425-6.656-7.375-9.949c0.168-10.156,10.391-17.645,19.618-30.668c6.761,11.754,17.918,20.984,18.578,30.07
c0.879,12.078-14.406,16.582-16.59,2.508c-0.141-0.996-1.313-1.441-1.219-0.055c0.332,3.859-0.14,5.465,4.211,14.977H39.379
C41.899,65.039,43.399,59.586,43.571,54.895L43.571,54.895z M43.571,54.895"/>
<path d="M132.113,54.895c0.012-1.621-1.27-1.652-1.254-0.469c-0.109,5.945-5.133,8.871-8.785,8.176
c-5.629-1.07-7.426-6.656-7.371-9.949c0.164-10.156,10.391-17.645,19.617-30.668c6.758,11.754,17.918,20.984,18.578,30.07
c0.879,12.078-14.41,16.582-16.59,2.508c-0.141-0.996-1.313-1.441-1.223-0.055c0.332,3.859-0.141,5.465,4.215,14.977h-11.379
C130.441,65.039,131.941,59.586,132.113,54.895L132.113,54.895z M132.113,54.895"/>
<path d="M87.918,134.305c0.016-1.621-1.269-1.652-1.254-0.47c-0.105,5.946-5.133,8.872-8.785,8.177
c-5.629-1.07-7.426-6.656-7.371-9.949c0.168-10.156,10.391-17.645,19.617-30.668c6.762,11.754,17.918,20.984,18.578,30.069
c0.879,12.079-14.406,16.582-16.59,2.505c-0.141-0.992-1.313-1.438-1.219-0.051c0.328,3.859-0.141,5.464,4.211,14.977H83.727
C86.246,144.449,87.75,138.996,87.918,134.305L87.918,134.305z M87.918,134.305"/>
<path d="M43.578,193.918c0.012,1.617-1.269,1.648-1.254,0.469c-0.109-5.945-5.136-8.871-8.785-8.177
c-5.629,1.071-7.425,6.657-7.371,9.946c0.164,10.16,10.387,17.648,19.613,30.668c6.762-11.75,17.918-20.98,18.579-30.067
c0.879-12.077-14.407-16.586-16.59-2.507c-0.141,0.996-1.309,1.441-1.219,0.055c0.332-3.859-0.141-5.466,4.211-14.977H39.387
C41.906,183.77,43.406,189.227,43.578,193.918L43.578,193.918z M43.578,193.918"/>
<path d="M132.121,193.918c0.012,1.617-1.27,1.648-1.254,0.469c-0.105-5.945-5.133-8.871-8.785-8.177
c-5.629,1.071-7.426,6.657-7.371,9.946c0.168,10.16,10.391,17.648,19.617,30.668c6.758-11.75,17.918-20.98,18.578-30.067
c0.879-12.077-14.406-16.586-16.59-2.507c-0.141,0.996-1.313,1.441-1.223,0.055c0.332-3.859-0.137-5.466,4.215-14.977H127.93
C130.449,183.77,131.949,189.227,132.121,193.918L132.121,193.918z M132.121,193.918"/>
<path d="M14.602,56.121c0.008-0.695-0.715-0.371-0.813-0.152c-0.929,1.59-2.293,1.961-3.64,1.387
c-1.332-0.566-2.082-1.824-1.961-3.617c0.246-2.75,2.429-5.758,3.484-7.461c1-1.543,2.102-3.379,3.262-5.723
c1.355,2.691,2.047,3.457,3.523,5.914c1.301,2.16,3.114,4.281,3.254,6.895c0,1.988-0.836,3.867-2.719,4.211
c-1.066,0.191-2.062-0.355-2.804-1.633c-0.227-0.324-0.68-0.152-0.672,0.293c0.133,1.672,0.765,3.184,2.265,4.969H12.27
C13.399,59.941,14.551,58.238,14.602,56.121L14.602,56.121z M14.602,56.121"/>
<path d="M163.969,194.32c0.008,0.695-0.715,0.371-0.813,0.152c-0.934-1.591-2.293-1.961-3.641-1.388
c-1.332,0.567-2.082,1.825-1.961,3.618c0.246,2.75,2.426,5.761,3.484,7.461c1,1.543,2.102,3.379,3.258,5.723
c1.359-2.688,2.047-3.457,3.527-5.91c1.301-2.164,3.113-4.285,3.254-6.898c0-1.989-0.84-3.868-2.723-4.207
c-1.063-0.195-2.063,0.352-2.801,1.629c-0.227,0.324-0.68,0.156-0.672-0.29c0.133-1.675,0.766-3.187,2.262-4.972h-5.508
C162.766,190.5,163.914,192.203,163.969,194.32L163.969,194.32z M163.969,194.32"/>
</svg>
