<?xml version="1.0" encoding="utf-8"?>
<!DOCTYPE svg PUBLIC "-//W3C//DTD SVG 1.1//EN" "http://www.w3.org/Graphics/SVG/1.1/DTD/svg11.dtd" [
<!ENTITY ns_svg "http://www.w3.org/2000/svg">
<!ENTITY ns_xlink "http://www.w3.org/1999/xlink">
]>
<svg version="1.1" id="Layer_1" xmlns="&ns_svg;" xmlns:xlink="&ns_xlink;" width="179.379" height="250.246"
viewBox="0 0 179.379 250.246" overflow="visible" enable-background="new 0 0 179.379 250.246" xml:space="preserve">
<path fill="#FFFFFF" d="M8.903,0.398h161.574c4.711,0,8.504,3.793,8.504,8.504v232.441c0,4.711-3.793,8.504-8.504,8.504H8.903
c-4.711,0-8.504-3.793-8.504-8.504V8.902C0.399,4.191,4.192,0.398,8.903,0.398L8.903,0.398z M8.903,0.398"/>
<path fill="none" stroke="#000000" stroke-width="0.7974" d="M8.903,0.398h161.574c4.711,0,8.504,3.793,8.504,8.504v232.441
c0,4.711-3.793,8.504-8.504,8.504H8.903c-4.711,0-8.504-3.793-8.504-8.504V8.902C0.399,4.191,4.192,0.398,8.903,0.398L8.903,0.398z
M8.903,0.398"/>
<path d="M6.989,29.199c-0.325-2.195-0.321-7.875-0.051-9.551c0.82-5.145,2.824-7.496,6.176-8.27
c3.257-0.746,7.832,0.086,8.835,4.387l-2.726,0.051c-1.469-2.906-5.195-2.129-7.289-0.867c-1.676,1.012-2.434,5.219-2.11,5.477
c-0.003,0,3.168-2.301,5.661-2.133c5.336,0.547,7.535,5.086,7.347,9.375c-0.168,5.16-1.836,9.281-7.488,9.559
C9.969,37.023,7.504,34.145,6.989,29.199L6.989,29.199z M20.246,27.836c0.028-3.578-1.629-6.258-4.761-6.555
c-3.133-0.293-6.289,2.707-6.071,6.355c0.219,3.66,1.664,6.746,5.461,6.727C18.961,34.348,20.223,30.383,20.246,27.836
L20.246,27.836z M20.246,27.836"/>
<path d="M172.387,221.046c0.328,2.2,0.324,7.879,0.055,9.556c-0.824,5.145-2.828,7.496-6.18,8.266
c-3.254,0.75-7.832-0.082-8.836-4.383l2.727-0.051c1.473,2.905,5.195,2.129,7.293,0.862c1.676-1.007,2.43-5.214,2.105-5.472
c0.004,0-3.164,2.301-5.66,2.133c-5.332-0.547-7.531-5.086-7.348-9.375c0.168-5.161,1.836-9.286,7.488-9.559
C169.406,213.227,171.871,216.105,172.387,221.046L172.387,221.046z M159.133,222.414c-0.031,3.578,1.625,6.257,4.758,6.55
c3.133,0.298,6.293-2.702,6.074-6.351c-0.223-3.66-1.664-6.746-5.461-6.731C160.418,215.902,159.152,219.867,159.133,222.414
L159.133,222.414z M159.133,222.414"/>
<path d="M43.477,55.25c0.012-1.621-1.27-1.652-1.258-0.469c-0.105,5.941-5.133,8.867-8.781,8.172
c-5.629-1.07-7.426-6.656-7.375-9.945c0.168-10.16,10.39-17.648,19.617-30.668c6.762,11.75,17.918,20.984,18.578,30.066
c0.879,12.078-14.406,16.586-16.59,2.508c-0.14-0.996-1.312-1.441-1.219-0.051c0.332,3.855-0.14,5.465,4.211,14.973H39.285
C41.805,65.395,43.305,59.938,43.477,55.25L43.477,55.25z M43.477,55.25"/>
<path d="M132.703,55.25c0.012-1.621-1.27-1.652-1.258-0.469c-0.105,5.941-5.133,8.867-8.781,8.172
c-5.629-1.07-7.426-6.656-7.375-9.945c0.168-10.16,10.391-17.648,19.617-30.668c6.762,11.75,17.918,20.984,18.578,30.066
c0.879,12.078-14.406,16.586-16.59,2.508c-0.141-0.996-1.313-1.441-1.219-0.051c0.332,3.855-0.141,5.465,4.211,14.973h-11.379
C131.031,65.395,132.531,59.938,132.703,55.25L132.703,55.25z M132.703,55.25"/>
<path d="M43.485,116.063c0.011,1.621-1.27,1.652-1.254,0.469c-0.11-5.941-5.133-8.871-8.785-8.176
c-5.629,1.07-7.426,6.66-7.372,9.949c0.165,10.155,10.391,17.648,19.614,30.668c6.761-11.754,17.918-20.984,18.578-30.07
c0.879-12.078-14.406-16.582-16.586-2.504c-0.145,0.992-1.313,1.441-1.223,0.051c0.332-3.859-0.14-5.465,4.211-14.977H39.293
C41.813,105.918,43.313,111.375,43.485,116.063L43.485,116.063z M43.485,116.063"/>
<path d="M132.711,116.063c0.012,1.621-1.27,1.652-1.254,0.469c-0.109-5.941-5.137-8.871-8.785-8.176
c-5.629,1.07-7.426,6.66-7.371,9.949c0.164,10.155,10.387,17.648,19.613,30.668c6.762-11.754,17.918-20.984,18.578-30.07
c0.879-12.078-14.406-16.582-16.59-2.504c-0.141,0.992-1.309,1.441-1.219,0.051c0.332-3.859-0.141-5.465,4.211-14.977H128.52
C131.039,105.918,132.539,111.375,132.711,116.063L132.711,116.063z M132.711,116.063"/>
<path d="M132.711,194.941c0.012,1.621-1.27,1.652-1.254,0.469c-0.109-5.941-5.137-8.871-8.785-8.176
c-5.629,1.07-7.426,6.66-7.371,9.949c0.164,10.155,10.387,17.648,19.613,30.668c6.762-11.754,17.918-20.984,18.578-30.07
c0.879-12.078-14.406-16.582-16.59-2.504c-0.141,0.992-1.309,1.441-1.219,0.051c0.332-3.859-0.141-5.465,4.211-14.977H128.52
C131.039,184.796,132.539,190.253,132.711,194.941L132.711,194.941z M132.711,194.941"/>
<path d="M43.485,194.941c0.011,1.621-1.27,1.652-1.254,0.469c-0.11-5.941-5.133-8.871-8.785-8.176
c-5.629,1.07-7.426,6.66-7.372,9.949c0.165,10.155,10.391,17.648,19.614,30.668c6.761-11.754,17.918-20.984,18.578-30.07
c0.879-12.078-14.406-16.582-16.586-2.504c-0.145,0.992-1.313,1.441-1.223,0.051c0.332-3.859-0.14-5.465,4.211-14.977H39.293
C41.813,184.796,43.313,190.253,43.485,194.941L43.485,194.941z M43.485,194.941"/>
<path d="M13.914,55.145c0.008-0.699-0.715-0.371-0.816-0.152c-0.93,1.59-2.289,1.957-3.637,1.387
c-1.332-0.57-2.082-1.824-1.965-3.621c0.25-2.75,2.43-5.758,3.485-7.461c1.004-1.543,2.105-3.375,3.261-5.723
c1.36,2.691,2.047,3.457,3.524,5.914c1.301,2.164,3.117,4.281,3.258,6.898c0,1.988-0.84,3.863-2.723,4.207
c-1.062,0.195-2.062-0.352-2.801-1.629c-0.226-0.324-0.679-0.156-0.672,0.289c0.133,1.676,0.766,3.188,2.262,4.969h-5.508
C12.711,58.961,13.86,57.262,13.914,55.145L13.914,55.145z M13.914,55.145"/>
<path d="M164.965,193.339c0.008,0.7-0.715,0.371-0.813,0.153c-0.93-1.586-2.293-1.957-3.641-1.387
c-1.332,0.57-2.082,1.824-1.961,3.621c0.246,2.75,2.43,5.758,3.484,7.461c1,1.543,2.102,3.375,3.262,5.723
c1.355-2.691,2.047-3.457,3.523-5.914c1.301-2.164,3.113-4.282,3.254-6.898c0-1.988-0.836-3.863-2.719-4.207
c-1.066-0.195-2.063,0.352-2.805,1.629c-0.227,0.324-0.68,0.155-0.672-0.289c0.133-1.676,0.766-3.188,2.266-4.969h-5.512
C163.762,189.523,164.914,191.223,164.965,193.339L164.965,193.339z M164.965,193.339"/>
</svg>
